<svg width="1725" height="508" viewBox="0 0 1725 508" fill="none" xmlns="http://www.w3.org/2000/svg">
<rect x="1514.33" y="296.732" width="35.4978" height="52.1428" transform="rotate(13.342 1514.33 296.732)" fill="#DE7E29"/>
<circle cx="239.961" cy="267.734" r="202.863" stroke="#F9E342" stroke-width="14.6648"/>
<circle cx="239.968" cy="267.735" r="183.31" stroke="black" stroke-width="24.4413" stroke-dasharray="48.88 48.88"/>
<circle cx="239.953" cy="267.736" r="183.31" transform="rotate(15.1988 239.953 267.736)" stroke="#E30808" stroke-width="24.4413" stroke-dasharray="48.88 48.88"/>
<path d="M240.138 74.7982L239.714 91.0696L237.743 91.0182L238.114 76.8125L238.019 76.81L233.977 79.3441L234.03 77.3419L238.168 74.7468L240.138 74.7982Z" fill="#FEFEFE"/>
<path d="M289.656 81.0787C290.291 81.2824 290.891 81.6025 291.454 82.0388C292.018 82.4752 292.476 83.0511 292.831 83.7664C293.186 84.4767 293.376 85.3544 293.4 86.3997C293.424 87.4449 293.214 88.6808 292.769 90.1073C292.339 91.4883 291.825 92.674 291.228 93.6645C290.637 94.6514 289.982 95.4352 289.263 96.0158C288.549 96.5979 287.784 96.9699 286.967 97.1318C286.156 97.2952 285.313 97.2406 284.438 96.9678C283.568 96.6967 282.845 96.2827 282.269 95.7259C281.7 95.1657 281.294 94.5092 281.051 93.7565C280.815 93.0003 280.764 92.1935 280.898 91.3362L282.75 91.9131C282.694 92.6784 282.842 93.371 283.193 93.9909C283.55 94.6073 284.138 95.0431 284.958 95.2985C286.157 95.6721 287.266 95.4434 288.285 94.6122C289.31 93.7826 290.12 92.4118 290.716 90.4996L290.594 90.4618C290.179 90.7984 289.728 91.0604 289.242 91.2475C288.757 91.4347 288.25 91.5377 287.722 91.5565C287.195 91.5752 286.663 91.501 286.127 91.3339C285.237 91.0565 284.488 90.5819 283.882 89.91C283.282 89.2347 282.88 88.4407 282.676 87.5281C282.479 86.6119 282.536 85.653 282.848 84.6514C283.145 83.7004 283.628 82.8966 284.299 82.2398C284.976 81.5796 285.776 81.1349 286.696 80.9057C287.622 80.678 288.608 80.7357 289.656 81.0787ZM289.135 82.7481C288.498 82.5494 287.874 82.5299 287.264 82.6893C286.66 82.8453 286.126 83.1449 285.66 83.5881C285.201 84.0278 284.871 84.5714 284.669 85.2189C284.468 85.8664 284.426 86.4999 284.543 87.1193C284.668 87.7352 284.929 88.2773 285.327 88.7454C285.731 89.21 286.253 89.5417 286.89 89.7403C287.37 89.89 287.847 89.936 288.32 89.8781C288.795 89.8151 289.238 89.6673 289.649 89.4347C290.067 89.1985 290.429 88.8981 290.737 88.5334C291.047 88.1637 291.273 87.7487 291.417 87.2883C291.606 86.6813 291.637 86.0665 291.509 85.4439C291.386 84.8229 291.12 84.2684 290.712 83.7804C290.308 83.2939 289.783 82.9498 289.135 82.7481Z" fill="#FEFEFE"/>
<path d="M331.542 117.162C330.671 116.577 329.996 115.906 329.515 115.149C329.038 114.395 328.779 113.618 328.736 112.817C328.701 112.014 328.903 111.247 329.344 110.515L331.006 111.632C330.749 112.091 330.646 112.567 330.697 113.061C330.751 113.551 330.934 114.025 331.245 114.483C331.557 114.941 331.972 115.344 332.491 115.693C333.072 116.083 333.654 116.328 334.239 116.427C334.823 116.526 335.364 116.48 335.861 116.291C336.359 116.102 336.767 115.77 337.086 115.295C337.42 114.798 337.591 114.277 337.599 113.734C337.609 113.186 337.45 112.644 337.119 112.11C336.789 111.575 336.281 111.077 335.595 110.616L334.513 109.89L335.488 108.438L336.57 109.165C337.106 109.525 337.642 109.745 338.177 109.823C338.716 109.904 339.218 109.846 339.683 109.648C340.152 109.452 340.546 109.117 340.866 108.642C341.173 108.185 341.339 107.719 341.364 107.244C341.389 106.77 341.281 106.314 341.038 105.876C340.8 105.442 340.433 105.058 339.936 104.724C339.47 104.411 338.972 104.201 338.443 104.095C337.922 103.987 337.424 104.007 336.949 104.154C336.477 104.296 336.079 104.584 335.755 105.018L334.172 103.954C334.674 103.264 335.304 102.787 336.062 102.524C336.822 102.256 337.626 102.19 338.474 102.325C339.326 102.463 340.141 102.794 340.919 103.317C341.755 103.878 342.358 104.529 342.729 105.269C343.103 106.005 343.265 106.756 343.217 107.522C343.169 108.287 342.93 108.989 342.502 109.627C341.991 110.387 341.355 110.902 340.594 111.169C339.838 111.44 339.05 111.45 338.229 111.199L338.158 111.304C338.917 112.018 339.339 112.829 339.426 113.736C339.515 114.638 339.272 115.518 338.696 116.376C338.202 117.111 337.559 117.636 336.766 117.952C335.98 118.267 335.132 118.361 334.221 118.234C333.311 118.107 332.418 117.75 331.542 117.162Z" fill="#FEFEFE"/>
<path d="M364.008 144.777C363.311 143.936 362.845 143.07 362.608 142.179C362.38 141.288 362.379 140.445 362.608 139.65C362.841 138.852 363.298 138.174 363.978 137.617C364.505 137.173 365.081 136.871 365.706 136.712C366.334 136.549 366.952 136.525 367.558 136.642C368.171 136.76 368.708 137.014 369.169 137.403L369.242 137.342C368.9 136.614 368.841 135.858 369.065 135.073C369.293 134.286 369.741 133.618 370.41 133.071C371.043 132.54 371.745 132.229 372.518 132.14C373.29 132.05 374.058 132.171 374.821 132.502C375.587 132.837 376.274 133.372 376.883 134.106C377.485 134.833 377.878 135.601 378.061 136.412C378.245 137.224 378.221 138 377.99 138.743C377.762 139.489 377.331 140.128 376.698 140.659C376.03 141.206 375.286 141.517 374.466 141.59C373.654 141.665 372.927 141.473 372.285 141.014L372.212 141.075C372.505 141.595 372.65 142.164 372.645 142.78C372.644 143.393 372.506 143.996 372.233 144.587C371.963 145.175 371.565 145.691 371.038 146.135C370.357 146.692 369.601 147.009 368.77 147.085C367.946 147.162 367.118 147.006 366.285 146.616C365.46 146.226 364.701 145.613 364.008 144.777ZM365.354 143.661C365.824 144.228 366.321 144.642 366.847 144.901C367.372 145.161 367.894 145.265 368.415 145.212C368.935 145.159 369.422 144.949 369.874 144.581C370.344 144.185 370.66 143.716 370.824 143.174C370.988 142.633 371.001 142.067 370.864 141.479C370.731 140.894 370.444 140.337 370.005 139.807C369.562 139.272 369.062 138.881 368.506 138.633C367.953 138.39 367.395 138.298 366.833 138.358C366.274 138.422 365.759 138.653 365.289 139.049C364.837 139.417 364.535 139.85 364.383 140.347C364.234 140.849 364.241 141.384 364.402 141.952C364.563 142.52 364.881 143.09 365.354 143.661ZM371.302 138.732C371.674 139.18 372.093 139.504 372.56 139.702C373.031 139.904 373.51 139.971 373.998 139.904C374.486 139.837 374.947 139.626 375.383 139.272C375.804 138.916 376.091 138.51 376.242 138.054C376.398 137.594 376.418 137.12 376.302 136.632C376.19 136.139 375.943 135.663 375.561 135.202C375.172 134.733 374.745 134.395 374.279 134.19C373.817 133.981 373.347 133.913 372.87 133.985C372.397 134.053 371.95 134.265 371.529 134.621C371.093 134.975 370.795 135.384 370.635 135.847C370.479 136.314 370.456 136.797 370.567 137.297C370.678 137.796 370.923 138.275 371.302 138.732Z" fill="#FEFEFE"/>
<path d="M390.014 179.681L406.119 180.68L406.236 180.63L402.921 172.92L404.527 172.229L408.646 181.808L406.952 182.537L390.83 181.58L390.014 179.681Z" fill="#FEFEFE"/>
<path d="M408.295 217.255L409.677 216.886L416.744 220.562C417.572 220.993 418.285 221.341 418.881 221.604C419.483 221.866 420.027 222.033 420.512 222.107C421.004 222.184 421.491 222.158 421.972 222.03C422.525 221.882 422.968 221.622 423.302 221.247C423.637 220.879 423.853 220.437 423.952 219.923C424.051 219.408 424.024 218.867 423.873 218.299C423.711 217.694 423.445 217.201 423.074 216.817C422.71 216.437 422.272 216.184 421.761 216.057C421.252 215.935 420.697 215.954 420.098 216.114L419.615 214.301C420.537 214.056 421.402 214.052 422.212 214.292C423.021 214.531 423.718 214.965 424.303 215.593C424.888 216.226 425.303 217.001 425.548 217.918C425.793 218.839 425.817 219.708 425.617 220.523C425.418 221.338 425.042 222.036 424.49 222.617C423.937 223.198 423.256 223.596 422.448 223.811C421.869 223.966 421.275 224.012 420.666 223.949C420.064 223.891 419.357 223.695 418.544 223.364C417.739 223.036 416.732 222.55 415.524 221.907L410.803 219.382L410.681 219.415L412.63 226.726L410.941 227.176L408.295 217.255Z" fill="#FEFEFE"/>
<path d="M415.809 260.31L417.43 260.299L428.798 267.372L428.806 268.548L426.294 268.566L426.289 267.771L417.699 262.427L417.572 262.428L417.64 272.06L415.892 272.073L415.809 260.31ZM412.525 267.995L416.355 267.968L417.11 267.963L428.801 267.881L428.814 269.756L412.538 269.871L412.525 267.995Z" fill="#FEFEFE"/>
<path d="M423.714 317.456C423.46 318.073 423.093 318.645 422.613 319.172C422.133 319.699 421.523 320.11 420.781 320.406C420.045 320.704 419.155 320.823 418.111 320.764C417.067 320.704 415.852 320.396 414.466 319.839C413.123 319.3 411.982 318.693 411.043 318.019C410.106 317.351 409.377 316.636 408.856 315.872C408.332 315.114 408.023 314.322 407.926 313.495C407.828 312.673 407.95 311.837 408.292 310.987C408.631 310.141 409.102 309.453 409.703 308.924C410.307 308.401 410.993 308.049 411.763 307.867C412.536 307.692 413.344 307.706 414.188 307.908L413.465 309.707C412.707 309.591 412.004 309.683 411.359 309.983C410.716 310.29 410.234 310.842 409.914 311.638C409.446 312.804 409.586 313.927 410.333 315.01C411.078 316.097 412.38 317.014 414.238 317.761L414.286 317.643C413.983 317.201 413.758 316.731 413.61 316.232C413.463 315.733 413.4 315.22 413.424 314.692C413.447 314.165 413.564 313.641 413.773 313.12C414.12 312.254 414.653 311.546 415.371 310.995C416.092 310.451 416.916 310.114 417.842 309.984C418.771 309.86 419.722 309.994 420.696 310.385C421.62 310.756 422.383 311.302 422.984 312.023C423.588 312.751 423.967 313.583 424.123 314.519C424.276 315.46 424.139 316.439 423.714 317.456ZM422.091 316.804C422.34 316.184 422.409 315.564 422.299 314.943C422.192 314.329 421.936 313.772 421.531 313.273C421.13 312.78 420.614 312.408 419.985 312.155C419.355 311.902 418.727 311.81 418.1 311.877C417.477 311.952 416.915 312.169 416.417 312.529C415.922 312.895 415.549 313.388 415.301 314.007C415.113 314.475 415.029 314.946 415.049 315.422C415.074 315.901 415.186 316.354 415.385 316.782C415.587 317.217 415.858 317.603 416.197 317.939C416.54 318.277 416.936 318.536 417.384 318.716C417.974 318.953 418.584 319.032 419.215 318.954C419.844 318.881 420.417 318.661 420.937 318.293C421.454 317.929 421.839 317.433 422.091 316.804Z" fill="#FEFEFE"/>
<path d="M400.828 361.62L387.777 351.893L388.954 350.313L400.349 358.805L400.406 358.728L400.665 353.965L402.271 355.162L402.006 360.039L400.828 361.62Z" fill="#FEFEFE"/>
<path d="M331.124 414.052L335.113 429.688L335.196 429.783L341.518 424.263L342.668 425.58L334.814 432.439L333.601 431.05L329.567 415.411L331.124 414.052Z" fill="#FEFEFE"/>
<path d="M366.055 388.832L372.022 403.825L372.117 403.909L377.676 397.621L378.986 398.78L372.079 406.592L370.698 405.37L364.686 390.38L366.055 388.832Z" fill="#FEFEFE"/>
<path d="M292.035 437.185L292.476 438.746L288.669 451.581L287.537 451.901L286.854 449.484L287.619 449.268L290.495 439.569L290.461 439.447L281.191 442.065L280.716 440.383L292.035 437.185ZM283.755 436.056L284.796 439.742L285.001 440.469L288.179 451.72L286.374 452.23L281.95 436.565L283.755 436.056Z" fill="#FEFEFE"/>
<path d="M236.896 441.211C237.987 441.227 238.949 441.435 239.78 441.834C240.606 442.239 241.247 442.786 241.703 443.476C242.159 444.172 242.378 444.96 242.359 445.839C242.354 446.528 242.21 447.162 241.926 447.74C241.641 448.324 241.258 448.809 240.775 449.194C240.287 449.584 239.746 449.827 239.151 449.925L239.15 450.02C239.925 450.233 240.539 450.679 240.99 451.359C241.44 452.044 241.657 452.818 241.639 453.682C241.632 454.508 241.411 455.244 240.978 455.889C240.544 456.535 239.954 457.04 239.207 457.405C238.454 457.77 237.601 457.945 236.647 457.931C235.704 457.917 234.865 457.717 234.128 457.329C233.392 456.942 232.817 456.42 232.403 455.762C231.984 455.104 231.777 454.361 231.784 453.535C231.803 452.671 232.05 451.904 232.526 451.233C232.997 450.567 233.616 450.139 234.381 449.949L234.383 449.854C233.796 449.739 233.27 449.479 232.805 449.075C232.339 448.676 231.97 448.18 231.698 447.588C231.426 447.001 231.292 446.363 231.297 445.674C231.316 444.795 231.566 444.014 232.048 443.333C232.524 442.656 233.181 442.128 234.019 441.749C234.851 441.374 235.81 441.195 236.896 441.211ZM236.87 442.959C236.134 442.948 235.496 443.058 234.957 443.289C234.419 443.519 234.001 443.849 233.703 444.279C233.405 444.71 233.249 445.216 233.235 445.799C233.231 446.413 233.382 446.959 233.688 447.435C233.993 447.911 234.414 448.288 234.95 448.566C235.481 448.845 236.091 448.989 236.78 448.999C237.474 449.009 238.096 448.883 238.646 448.621C239.19 448.359 239.622 447.995 239.942 447.528C240.256 447.061 240.415 446.52 240.419 445.906C240.433 445.323 240.3 444.812 240.02 444.373C239.736 443.935 239.325 443.592 238.788 443.346C238.251 443.099 237.612 442.97 236.87 442.959ZM236.755 450.684C236.172 450.675 235.654 450.784 235.2 451.01C234.741 451.237 234.379 451.557 234.113 451.972C233.847 452.386 233.707 452.875 233.694 453.436C233.691 453.987 233.813 454.469 234.062 454.88C234.31 455.297 234.657 455.62 235.104 455.85C235.551 456.084 236.074 456.206 236.673 456.215C237.282 456.224 237.816 456.118 238.275 455.897C238.734 455.681 239.091 455.368 239.346 454.959C239.601 454.555 239.73 454.077 239.733 453.526C239.747 452.964 239.63 452.473 239.382 452.05C239.128 451.628 238.775 451.297 238.323 451.057C237.871 450.817 237.348 450.693 236.755 450.684Z" fill="#FEFEFE"/>
<path d="M193.997 437.335C194.887 437.613 195.633 438.041 196.236 438.617C196.838 439.194 197.258 439.858 197.495 440.61C197.732 441.361 197.747 442.137 197.541 442.939L195.721 442.37C195.87 441.645 195.733 440.964 195.31 440.327C194.881 439.693 194.269 439.252 193.475 439.004C192.838 438.805 192.225 438.777 191.636 438.92C191.042 439.062 190.522 439.349 190.076 439.782C189.624 440.218 189.294 440.767 189.087 441.429C188.875 442.107 188.835 442.758 188.968 443.382C189.094 444.01 189.366 444.559 189.786 445.028C190.205 445.498 190.745 445.839 191.406 446.051C191.88 446.205 192.391 446.284 192.939 446.289C193.486 446.298 193.957 446.238 194.353 446.106L196.047 446.868L192.717 454.221L184.645 451.699L185.167 450.03L191.66 452.059L193.638 447.648L193.547 447.62C193.15 447.773 192.685 447.858 192.152 447.875C191.619 447.891 191.093 447.818 190.572 447.656C189.621 447.358 188.845 446.866 188.244 446.179C187.636 445.495 187.242 444.694 187.062 443.778C186.877 442.86 186.942 441.897 187.257 440.891C187.566 439.9 188.066 439.084 188.754 438.444C189.436 437.808 190.234 437.386 191.148 437.177C192.061 436.974 193.011 437.027 193.997 437.335Z" fill="#FEFEFE"/>
<path d="M138.511 431.063L147.39 417.421L149.042 418.496L141.291 430.406L141.37 430.458L146.14 430.414L145.048 432.093L140.163 432.138L138.511 431.063Z" fill="#FEFEFE"/>
<path d="M112.244 388.843C112.86 389.543 113.276 390.296 113.491 391.102C113.706 391.908 113.72 392.693 113.532 393.459C113.345 394.224 112.955 394.895 112.362 395.473L111.102 394.042C111.606 393.499 111.843 392.846 111.813 392.082C111.775 391.318 111.481 390.623 110.932 389.999C110.491 389.498 109.981 389.155 109.403 388.972C108.822 388.785 108.229 388.76 107.623 388.898C107.01 389.036 106.443 389.333 105.922 389.792C105.389 390.261 105.017 390.797 104.806 391.399C104.587 392.001 104.535 392.611 104.65 393.231C104.764 393.85 105.049 394.422 105.503 394.946C105.828 395.324 106.224 395.657 106.69 395.945C107.152 396.238 107.586 396.43 107.993 396.524L109.044 398.055L102.38 402.608L96.7924 396.261L98.1049 395.106L102.6 400.212L106.581 397.47L106.518 397.399C106.099 397.323 105.657 397.154 105.193 396.892C104.73 396.629 104.317 396.294 103.957 395.884C103.299 395.136 102.891 394.312 102.735 393.413C102.57 392.512 102.65 391.624 102.972 390.747C103.291 389.867 103.846 389.078 104.638 388.381C105.417 387.695 106.267 387.258 107.188 387.068C108.101 386.879 109.002 386.932 109.892 387.229C110.777 387.53 111.561 388.068 112.244 388.843Z" fill="#FEFEFE"/>
<path d="M87.4138 352.579C87.9592 353.335 88.2999 354.125 88.436 354.948C88.572 355.771 88.5096 356.554 88.2486 357.297C87.9876 358.041 87.5343 358.671 86.8886 359.189L85.7731 357.642C86.3271 357.151 86.6262 356.524 86.6703 355.761C86.7069 354.996 86.482 354.276 85.9955 353.602C85.6051 353.06 85.1313 352.67 84.574 352.432C84.0137 352.189 83.4254 352.107 82.8092 352.185C82.1856 352.263 81.5923 352.504 81.0292 352.91C80.4533 353.325 80.0311 353.823 79.7626 354.401C79.4868 354.979 79.3758 355.582 79.4297 356.209C79.4836 356.837 79.7113 357.433 80.1129 357.999C80.3999 358.407 80.7613 358.776 81.197 359.109C81.6284 359.445 82.0421 359.679 82.4381 359.811L83.3359 361.437L76.2611 365.323L71.3156 358.463L72.734 357.441L76.7126 362.959L80.9412 360.616L80.8854 360.539C80.4753 360.423 80.0522 360.212 79.616 359.906C79.1798 359.6 78.8021 359.225 78.4829 358.783C77.9004 357.975 77.5748 357.115 77.5061 356.205C77.43 355.293 77.5949 354.416 78.0008 353.575C78.4036 352.729 79.0326 351.998 79.8879 351.382C80.7303 350.774 81.6188 350.421 82.5534 350.322C83.4805 350.222 84.3724 350.363 85.229 350.745C86.0813 351.129 86.8096 351.741 87.4138 352.579Z" fill="#FEFEFE"/>
<path d="M69.4314 312.492C69.8727 313.444 70.1028 314.368 70.1214 315.265C70.1379 316.157 69.9567 316.956 69.5779 317.663C69.1921 318.368 68.6212 318.919 67.8652 319.316L67.0225 317.499C67.4806 317.24 67.8158 316.886 68.0281 316.437C68.2356 315.991 68.325 315.491 68.2962 314.937C68.2675 314.384 68.1216 313.824 67.8585 313.257C67.5643 312.622 67.1929 312.111 66.7444 311.724C66.2959 311.336 65.81 311.094 65.2865 310.998C64.7631 310.902 64.2418 310.974 63.7227 311.215C63.1795 311.467 62.7636 311.823 62.4751 312.284C62.1817 312.747 62.0377 313.293 62.0429 313.921C62.0481 314.55 62.2246 315.239 62.5724 315.989L63.1207 317.171L61.5345 317.907L60.9861 316.724C60.7142 316.138 60.3699 315.673 59.9533 315.329C59.5345 314.98 59.0749 314.769 58.5744 314.698C58.0717 314.621 57.5608 314.703 57.0417 314.944C56.5418 315.176 56.1581 315.488 55.8905 315.881C55.6229 316.274 55.4794 316.72 55.46 317.22C55.4383 317.714 55.5534 318.233 55.8053 318.777C56.0416 319.286 56.3583 319.723 56.7553 320.088C57.1452 320.451 57.5814 320.692 58.0638 320.813C58.5414 320.936 59.031 320.896 59.5324 320.693L60.3349 322.423C59.5476 322.753 58.7618 322.834 57.9773 322.667C57.188 322.501 56.4661 322.141 55.8116 321.586C55.1548 321.026 54.6291 320.321 54.2346 319.47C53.811 318.557 53.6327 317.687 53.6997 316.862C53.7618 316.039 54.0119 315.313 54.4501 314.683C54.8882 314.054 55.4557 313.577 56.1527 313.254C56.9843 312.868 57.7947 312.758 58.5839 312.924C59.371 313.084 60.0502 313.485 60.6217 314.125L60.737 314.071C60.4584 313.068 60.5172 312.156 60.9135 311.335C61.3051 310.517 61.9695 309.89 62.9068 309.456C63.7095 309.084 64.5319 308.968 65.3741 309.109C66.2092 309.247 66.9833 309.607 67.6964 310.187C68.4094 310.767 68.9878 311.536 69.4314 312.492Z" fill="#FEFEFE"/>
<path d="M63.3015 267.675C63.4588 268.756 63.4063 269.738 63.1442 270.622C62.876 271.501 62.4374 272.221 61.8282 272.781C61.2137 273.342 60.4709 273.683 59.5998 273.804C58.919 273.909 58.2703 273.867 57.6539 273.678C57.0322 273.49 56.493 273.188 56.0363 272.773C55.5736 272.353 55.247 271.857 55.0567 271.285L54.9623 271.299C54.8753 272.099 54.532 272.775 53.9325 273.328C53.3278 273.882 52.5978 274.219 51.7424 274.338C50.9252 274.462 50.1636 274.362 49.4576 274.036C48.7516 273.71 48.1591 273.208 47.6799 272.528C47.2 271.843 46.8914 271.028 46.754 270.085C46.6181 269.151 46.6829 268.291 46.9483 267.502C47.2137 266.714 47.6383 266.063 48.2221 265.55C48.8052 265.031 49.5053 264.71 50.3225 264.585C51.1779 264.466 51.9748 264.589 52.7131 264.952C53.4454 265.311 53.9661 265.854 54.2753 266.58L54.3697 266.566C54.3898 265.969 54.5625 265.409 54.8878 264.885C55.2079 264.361 55.6387 263.919 56.1802 263.556C56.7165 263.194 57.3251 262.961 58.0059 262.856C58.8771 262.735 59.6874 262.858 60.437 263.225C61.1805 263.588 61.8062 264.153 62.314 264.92C62.8159 265.682 63.145 266.601 63.3015 267.675ZM61.5713 267.927C61.4652 267.199 61.2556 266.587 60.9426 266.091C60.6295 265.596 60.237 265.236 59.7651 265.01C59.2932 264.784 58.7684 264.71 58.1909 264.789C57.5835 264.883 57.069 265.119 56.6473 265.496C56.2257 265.873 55.9202 266.349 55.7306 266.922C55.5403 267.491 55.4948 268.116 55.594 268.798C55.694 269.484 55.917 270.078 56.2631 270.58C56.6083 271.075 57.0368 271.444 57.5485 271.685C58.0594 271.922 58.6186 271.993 59.226 271.899C59.8036 271.82 60.2867 271.608 60.6754 271.262C61.0634 270.911 61.3364 270.451 61.4945 269.882C61.6525 269.313 61.6781 268.661 61.5713 267.927ZM53.9267 269.04C53.8427 268.464 53.6529 267.969 53.3574 267.557C53.061 267.14 52.687 266.833 52.2354 266.636C51.7838 266.44 51.2797 266.379 50.7232 266.455C50.1786 266.539 49.7228 266.737 49.3557 267.047C48.9834 267.359 48.7196 267.753 48.5643 268.231C48.4037 268.709 48.3665 269.245 48.4528 269.837C48.5406 270.44 48.73 270.951 49.0211 271.369C49.307 271.788 49.6723 272.091 50.1172 272.277C50.5568 272.465 51.0489 272.517 51.5934 272.432C52.1499 272.356 52.617 272.162 52.9946 271.851C53.3714 271.533 53.6423 271.132 53.8074 270.648C53.9724 270.163 54.0122 269.628 53.9267 269.04Z" fill="#FEFEFE"/>
<path d="M69.3979 226.404L67.9819 226.2L62.9252 220.045C62.3331 219.323 61.8144 218.724 61.369 218.248C60.9184 217.771 60.4841 217.403 60.0662 217.145C59.6438 216.881 59.1862 216.713 58.6932 216.642C58.1268 216.561 57.6168 216.627 57.1633 216.84C56.7105 217.048 56.3378 217.369 56.0451 217.803C55.7525 218.237 55.5643 218.746 55.4806 219.328C55.3916 219.947 55.4424 220.505 55.6331 221.004C55.8192 221.496 56.1223 221.901 56.5424 222.219C56.9632 222.531 57.4804 222.731 58.094 222.819L57.8271 224.676C56.883 224.54 56.0857 224.203 55.435 223.665C54.7844 223.127 54.3137 222.455 54.0229 221.648C53.7329 220.835 53.6555 219.959 53.7904 219.021C53.9262 218.077 54.2458 217.269 54.7492 216.597C55.2526 215.925 55.8724 215.431 56.6085 215.114C57.3446 214.797 58.127 214.698 58.9556 214.817C59.5483 214.902 60.1123 215.093 60.6478 215.39C61.1788 215.68 61.7527 216.137 62.3696 216.761C62.982 217.379 63.7174 218.221 64.5759 219.287L67.926 223.462L68.0519 223.48L69.1288 215.991L70.8595 216.24L69.3979 226.404Z" fill="#FEFEFE"/>
<path d="M89.0269 179.812C88.6369 180.659 88.1171 181.344 87.4677 181.867C86.8184 182.391 86.1059 182.722 85.3304 182.861C84.5548 182.999 83.7828 182.915 83.0143 182.608L83.8122 180.875C84.5122 181.116 85.2052 181.068 85.8914 180.73C86.575 180.386 87.0908 179.836 87.4387 179.08C87.718 178.474 87.8242 177.87 87.7575 177.267C87.6929 176.66 87.4749 176.107 87.1033 175.61C86.7291 175.105 86.2267 174.707 85.5963 174.417C84.9514 174.12 84.3109 173.997 83.6748 174.048C83.0361 174.093 82.4569 174.292 81.9373 174.648C81.4177 175.004 81.0103 175.496 80.7151 176.124C80.502 176.574 80.3579 177.071 80.2829 177.614C80.203 178.155 80.2029 178.63 80.2824 179.04L79.309 180.622L72.4445 176.375L75.9816 168.694L77.5698 169.426L74.7241 175.605L78.8451 178.133L78.885 178.046C78.784 177.632 78.7593 177.16 78.811 176.63C78.8628 176.099 79.0028 175.586 79.231 175.091C79.6477 174.186 80.2355 173.479 80.9944 172.971C81.7508 172.456 82.595 172.169 83.5271 172.108C84.4615 172.042 85.4075 172.23 86.3653 172.671C87.3085 173.105 88.0532 173.705 88.5994 174.47C89.1429 175.228 89.4593 176.073 89.5485 177.007C89.633 177.938 89.4591 178.873 89.0269 179.812Z" fill="#FEFEFE"/>
<path d="M108.988 145.688L107.769 144.619L103.974 131.78L104.749 130.895L106.638 132.551L106.114 133.149L108.982 142.85L109.077 142.934L115.427 135.69L116.742 136.843L108.988 145.688ZM116.549 142.127L113.668 139.602L113.1 139.104L104.309 131.397L105.545 129.987L117.785 140.717L116.549 142.127Z" fill="#FEFEFE"/>
<path d="M147.195 119.521L146.432 118.31L147.842 110.47C148.009 109.552 148.129 108.768 148.203 108.12C148.274 107.468 148.273 106.899 148.198 106.414C148.126 105.921 147.957 105.464 147.691 105.042C147.386 104.558 147.006 104.212 146.549 104.005C146.098 103.795 145.612 103.719 145.091 103.778C144.571 103.836 144.062 104.022 143.564 104.336C143.035 104.669 142.643 105.07 142.386 105.538C142.132 105.999 142.02 106.492 142.051 107.018C142.086 107.541 142.268 108.064 142.599 108.589L141.012 109.589C140.504 108.782 140.243 107.956 140.231 107.112C140.219 106.268 140.426 105.474 140.853 104.729C141.284 103.982 141.9 103.355 142.703 102.85C143.51 102.341 144.332 102.061 145.17 102.009C146.008 101.957 146.786 102.109 147.504 102.464C148.223 102.819 148.805 103.351 149.251 104.059C149.571 104.566 149.791 105.119 149.912 105.719C150.035 106.312 150.059 107.045 149.983 107.919C149.909 108.786 149.745 109.892 149.49 111.236L148.481 116.493L148.549 116.601L154.95 112.568L155.882 114.047L147.195 119.521Z" fill="#FEFEFE"/>
<path d="M180.396 83.732C181.04 83.5578 181.717 83.501 182.427 83.5615C183.137 83.6221 183.835 83.8565 184.521 84.2648C185.206 84.6679 185.842 85.3019 186.429 86.1666C187.017 87.0314 187.512 88.1834 187.913 89.6226C188.301 91.016 188.514 92.2906 188.55 93.4466C188.59 94.5961 188.466 95.6099 188.177 96.488C187.894 97.3647 187.453 98.0926 186.855 98.6718C186.263 99.2496 185.525 99.6616 184.642 99.9078C183.765 100.153 182.933 100.198 182.147 100.043C181.365 99.8812 180.667 99.5503 180.055 99.0501C179.446 98.5433 178.965 97.8936 178.612 97.1009L180.48 96.58C180.849 97.2527 181.349 97.754 181.98 98.0841C182.615 98.4076 183.346 98.4541 184.173 98.2235C185.382 97.8862 186.189 97.0918 186.594 95.8404C187.004 94.5875 186.94 92.9964 186.402 91.0672L186.279 91.1014C186.113 91.6098 185.877 92.0745 185.57 92.4954C185.264 92.9163 184.895 93.2779 184.462 93.5801C184.029 93.8823 183.542 94.1088 183.001 94.2597C182.103 94.5102 181.217 94.518 180.343 94.2832C179.472 94.0419 178.704 93.5934 178.037 92.9378C177.374 92.2756 176.901 91.4393 176.619 90.4288C176.352 89.4692 176.321 88.5316 176.528 87.6159C176.738 86.6936 177.168 85.8863 177.816 85.1939C178.47 84.5 179.33 84.0128 180.396 83.732ZM180.865 85.4163C180.222 85.5956 179.688 85.9179 179.262 86.3832C178.84 86.842 178.554 87.3838 178.403 88.0088C178.257 88.6272 178.275 89.2631 178.457 89.9164C178.639 90.5697 178.948 91.1244 179.383 91.5806C179.822 92.0302 180.335 92.3436 180.924 92.5205C181.516 92.6909 182.134 92.6865 182.777 92.5071C183.261 92.3719 183.687 92.1516 184.053 91.846C184.417 91.5354 184.709 91.1708 184.928 90.7522C185.15 90.3271 185.292 89.8778 185.352 89.4044C185.411 88.9259 185.376 88.4544 185.246 87.99C185.076 87.3775 184.767 86.8446 184.322 86.3913C183.882 85.9365 183.357 85.6151 182.749 85.4271C182.147 85.2377 181.518 85.2341 180.865 85.4163Z" fill="#FEFEFE"/>
<path d="M182.749 160.785C185.992 160.996 188.597 162.033 190.949 164.29C193.084 166.798 194.418 169.46 194.531 172.784C194.312 174.631 194.057 176.522 193.11 178.145C195.711 180.358 198.56 182.104 201.47 183.872C202.653 184.59 203.834 185.313 205.015 186.036C205.613 186.403 206.212 186.769 206.811 187.135C209.39 188.712 211.956 190.311 214.516 191.92C215.321 192.425 216.125 192.93 216.93 193.435C217.328 193.685 217.726 193.935 218.136 194.192C220.328 195.566 222.524 196.934 224.72 198.302C225.393 198.721 225.393 198.721 226.08 199.149C226.989 199.715 227.898 200.281 228.807 200.847C230.613 201.972 232.419 203.097 234.224 204.223C235.118 204.779 236.011 205.336 236.904 205.892C239.001 207.198 241.097 208.505 243.192 209.814C244.174 210.428 245.156 211.041 246.139 211.654C246.827 212.084 247.514 212.514 248.202 212.944C249.39 213.685 250.581 214.422 251.773 215.158C252.087 215.356 252.402 215.553 252.726 215.757C254.735 216.989 255.999 217.335 258.275 216.818C260.587 216.071 261.825 214.827 263 212.745C263.494 211.357 263.807 209.95 264.111 208.51C264.29 207.72 264.47 206.93 264.65 206.14C264.734 205.762 264.818 205.384 264.904 204.994C265.19 203.735 265.516 202.489 265.857 201.244C266.462 199.001 267.019 196.748 267.57 194.492C268.225 191.803 268.907 189.125 269.626 186.453C270.108 184.612 270.559 182.765 271.01 180.916C272.084 176.517 273.213 172.14 274.503 167.799C274.212 167.603 273.922 167.407 273.622 167.205C271.635 165.452 270.195 163.504 269.8 160.838C269.667 158.632 270.288 156.777 271.533 154.965C273.386 153.437 275.196 152.153 277.594 151.804C280.795 152.39 282.928 153.13 284.983 155.717C286.203 157.988 286.737 159.865 286.058 162.402C285.317 164.52 284.37 165.77 282.638 167.182C282.377 167.395 282.117 167.608 281.848 167.827C281.649 167.989 281.45 168.151 281.244 168.318C281.49 168.838 281.49 168.838 281.74 169.368C285.713 177.79 289.685 186.214 293.655 194.638C295.575 198.712 297.496 202.785 299.417 206.858C301.092 210.407 302.765 213.956 304.437 217.506C305.323 219.387 306.21 221.267 307.097 223.147C307.932 224.915 308.765 226.683 309.598 228.452C309.904 229.102 310.211 229.753 310.518 230.403C310.937 231.288 311.353 232.173 311.769 233.059C311.954 233.448 311.954 233.448 312.143 233.845C312.975 235.624 312.975 235.624 313.093 236.644C312.259 237.726 311.198 238.493 310.11 239.307C309.546 239.73 309.546 239.73 308.972 240.161C308.561 240.466 308.151 240.772 307.728 241.087C307.299 241.408 306.869 241.729 306.426 242.06C300.992 246.119 295.534 250.146 290.064 254.156C289.657 254.455 289.249 254.754 288.83 255.061C265.023 272.481 240.014 288.764 214.488 303.548C214.246 303.688 214.003 303.829 213.753 303.974C207.671 307.496 201.575 310.992 195.46 314.458C195.018 314.709 194.575 314.961 194.119 315.221C193.71 315.452 193.301 315.683 192.88 315.921C192.525 316.121 192.171 316.322 191.806 316.529C190.842 317.036 189.876 317.45 188.859 317.835C186.265 315.412 183.966 312.745 181.645 310.066C181.195 309.549 180.745 309.032 180.296 308.515C179.081 307.117 177.867 305.719 176.654 304.32C175.639 303.15 174.624 301.981 173.609 300.813C171.215 298.056 168.821 295.298 166.429 292.54C163.962 289.696 161.494 286.854 159.024 284.012C156.901 281.569 154.779 279.125 152.658 276.68C151.392 275.222 150.126 273.763 148.859 272.305C147.669 270.936 146.48 269.565 145.292 268.194C144.856 267.691 144.42 267.189 143.983 266.687C143.386 266.001 142.791 265.314 142.196 264.627C141.863 264.243 141.53 263.859 141.187 263.463C140.363 262.454 139.648 261.426 138.959 260.321C138.616 260.588 138.616 260.588 138.265 260.861C136.267 262.307 134.736 263.186 132.231 263.042C130.008 262.666 128.436 262.044 126.934 260.313C125.604 258.403 124.584 256.749 124.721 254.359C125.321 251.493 126.066 249.963 128.542 248.291C130.567 247.005 132.001 246.354 134.424 246.861C137.041 247.557 138.152 248.43 139.647 250.729C140.032 251.315 140.032 251.315 140.424 251.913C141.084 253.022 141.084 253.022 141.307 253.931C141.598 254.748 141.598 254.748 142.666 254.999C143.313 255.113 143.313 255.113 143.973 255.228C144.394 255.307 144.815 255.385 145.249 255.466C146.443 255.652 147.637 255.824 148.835 255.989C151.138 256.309 153.423 256.712 155.711 257.13C159.013 257.725 162.316 258.297 165.627 258.835C167.32 259.11 169.011 259.391 170.703 259.675C171.145 259.749 171.145 259.749 171.597 259.825C173.236 260.1 174.873 260.384 176.508 260.679C184.477 262.644 184.477 262.645 191.926 260.776C193.42 259.564 193.913 258.251 194.229 256.395C194.416 254.571 194.202 252.894 193.912 251.092C193.835 250.584 193.835 250.584 193.757 250.065C193.588 248.953 193.414 247.842 193.24 246.732C193.12 245.947 193 245.162 192.881 244.377C192.635 242.758 192.386 241.139 192.136 239.52C191.793 237.294 191.458 235.067 191.128 232.839C191.077 232.496 191.026 232.153 190.974 231.8C190.872 231.115 190.771 230.429 190.669 229.744C190.02 225.369 189.363 220.994 188.7 216.621C188.651 216.301 188.603 215.98 188.552 215.649C188.309 214.046 188.066 212.442 187.822 210.838C187.277 207.25 186.746 203.661 186.227 200.069C186.111 199.263 185.994 198.458 185.877 197.653C185.653 196.106 185.431 194.558 185.212 193.01C185.109 192.302 185.007 191.595 184.904 190.888C184.837 190.41 184.837 190.41 184.769 189.922C184.491 188.025 184.06 186.278 183.447 184.46C182.951 184.479 182.456 184.498 181.946 184.518C179.19 184.417 176.691 183.098 174.556 181.406C172.421 178.679 170.944 176.07 170.749 172.567C170.942 171.025 170.942 171.025 171.347 169.714C171.505 169.092 171.505 169.092 171.666 168.459C173.519 163.855 177.804 160.99 182.749 160.785ZM222.437 247.135C221.744 253.722 225.279 259.872 229.135 264.919C231.677 267.845 234.633 269.876 238.224 271.291C238.64 271.477 239.055 271.662 239.484 271.853C242.106 272.403 244.507 272.247 246.839 270.863C249.179 269.123 250.226 267.135 250.73 264.288C251.441 257.277 248.435 251.111 244.175 245.733C240.655 241.739 236.384 238.899 231.043 238.323C225.582 238.132 223.318 242.398 222.437 247.135ZM187.924 282.494C187.752 285.879 188.918 288.249 190.935 290.869C193.777 293.873 197.787 296.969 202.052 297.193C204.936 297.241 206.76 297.155 209.075 295.265C210.321 293.382 210.509 291.524 210.23 289.309C208.323 284.302 204.539 281.059 199.732 278.879C197.04 277.924 194.297 277.44 191.508 278.182C189.403 279.252 188.573 280.218 187.924 282.494ZM273.229 228.961C272.767 233.774 273.869 239.215 276.902 243.059C278.807 244.867 280.673 246.195 283.375 246.37C285.442 245.77 286.947 244.673 288.123 242.897C290.184 238.953 289.858 234.393 288.756 230.219C287.712 227.268 285.934 224.023 283.194 222.356C282.418 221.987 282.418 221.987 281.671 221.72C281.297 221.568 280.923 221.416 280.539 221.26C276.174 221.193 273.964 225.102 273.229 228.961Z" fill="#E30808"/>
<path d="M196.988 333.858C197.285 333.687 197.583 333.516 197.89 333.34C201.391 331.342 204.937 329.426 208.481 327.506C214.635 324.168 220.764 320.792 226.809 317.26C227.065 317.111 227.32 316.962 227.583 316.809C229.168 315.883 230.747 314.947 232.323 314.004C232.99 313.605 233.659 313.207 234.327 312.81C242.884 307.722 251.219 302.299 259.548 296.849C260.085 296.498 260.085 296.498 260.632 296.14C281.566 282.449 302.034 268.062 321.653 252.529C327.214 248.148 327.214 248.148 330.374 248.007C332.526 248.362 334.303 248.875 335.645 250.692C335.866 251.025 336.087 251.358 336.315 251.702C336.567 252.08 336.819 252.458 337.078 252.847C337.483 253.462 337.483 253.462 337.896 254.089C338.174 254.511 338.452 254.932 338.739 255.366C339.327 256.259 339.914 257.152 340.5 258.046C341.398 259.412 342.302 260.773 343.207 262.133C343.777 263.001 344.347 263.869 344.917 264.737C345.188 265.143 345.46 265.549 345.739 265.968C347.277 268.334 348.148 270.013 347.916 272.899C347.197 275.73 345.558 277.169 343.368 279.006C343.061 279.275 342.753 279.545 342.436 279.822C338.437 283.29 334.307 286.61 330.219 289.97C330.533 289.766 330.847 289.563 331.171 289.353C334.129 287.438 337.092 285.53 340.06 283.629C341.586 282.651 343.11 281.671 344.631 280.685C346.097 279.734 347.568 278.789 349.043 277.849C349.605 277.489 350.165 277.127 350.724 276.762C351.506 276.252 352.294 275.751 353.083 275.251C353.53 274.963 353.977 274.675 354.438 274.379C355.636 273.851 355.636 273.851 356.732 274.056C357.574 274.555 357.574 274.555 358.101 275.503C358.356 276.506 358.356 276.506 358.117 277.647C357.129 278.417 357.129 278.417 355.754 279.318C355.501 279.485 355.249 279.652 354.989 279.824C354.133 280.388 353.274 280.946 352.415 281.505C351.799 281.91 351.182 282.315 350.566 282.721C348.864 283.839 347.16 284.952 345.456 286.065C343.62 287.264 341.788 288.467 339.955 289.67C336.361 292.027 332.764 294.38 329.167 296.732C326.244 298.643 323.322 300.554 320.4 302.467C312.125 307.883 303.849 313.297 295.57 318.707C295.123 318.999 294.676 319.29 294.216 319.591C293.769 319.883 293.322 320.176 292.861 320.477C285.609 325.216 278.361 329.962 271.116 334.711C263.684 339.582 256.25 344.447 248.812 349.307C244.632 352.038 240.454 354.772 236.28 357.51C232.727 359.841 229.17 362.168 225.609 364.488C223.791 365.673 221.975 366.86 220.162 368.054C218.504 369.145 216.843 370.229 215.178 371.309C214.574 371.701 213.972 372.097 213.372 372.495C212.559 373.033 211.742 373.562 210.922 374.089C210.468 374.386 210.014 374.683 209.546 374.989C208.346 375.528 208.346 375.528 207.249 375.325C206.141 374.665 205.94 374.106 205.626 372.873C205.971 371.226 206.83 370.965 208.215 370.039C208.462 369.872 208.709 369.706 208.964 369.535C209.782 368.985 210.603 368.439 211.425 367.894C211.992 367.514 212.559 367.134 213.126 366.753C214.62 365.752 216.117 364.754 217.615 363.757C219.142 362.739 220.666 361.718 222.19 360.697C225.183 358.693 228.179 356.694 231.176 354.697C230.839 354.869 230.839 354.869 230.494 355.044C228.142 356.239 225.786 357.425 223.427 358.607C222.549 359.049 221.671 359.493 220.795 359.938C219.531 360.58 218.264 361.215 216.996 361.848C216.414 362.147 216.414 362.147 215.82 362.452C212.975 363.86 210.333 364.827 207.187 363.911C205.352 363.2 204.819 362.694 203.739 361.077C203.477 360.686 203.215 360.295 202.945 359.892C202.663 359.466 202.381 359.039 202.09 358.6C201.801 358.164 201.512 357.727 201.214 357.278C200.602 356.351 199.99 355.424 199.38 354.496C198.6 353.311 197.813 352.132 197.023 350.953C196.269 349.825 195.526 348.69 194.781 347.557C194.497 347.136 194.213 346.715 193.921 346.281C192.175 343.595 191.568 342.169 192.145 339.012C193.058 336.158 194.449 335.3 196.988 333.858ZM218.765 331.163C218.628 331.841 218.628 331.841 218.488 332.533C218.387 333.02 218.287 333.508 218.184 334.011C218.081 334.524 217.979 335.037 217.873 335.566C217.768 336.081 217.662 336.596 217.554 337.127C217.294 338.404 217.036 339.681 216.78 340.959C218.075 341.82 219.257 342.143 220.775 342.45C221.233 342.544 221.691 342.638 222.164 342.735C222.64 342.83 223.117 342.925 223.608 343.022C224.332 343.17 224.332 343.17 225.07 343.321C226.261 343.563 227.452 343.803 228.644 344.04C229.436 341.435 230.07 338.837 230.61 336.169C230.685 335.804 230.76 335.439 230.837 335.064C231.019 334.177 231.2 333.29 231.38 332.402C228.789 331.618 226.201 330.965 223.552 330.408C223.193 330.329 222.834 330.251 222.464 330.169C221.952 330.061 221.952 330.061 221.429 329.951C221.121 329.885 220.813 329.819 220.496 329.751C219.233 329.608 219.091 329.973 218.765 331.163ZM311.624 270.522C311.476 271.238 311.476 271.238 311.326 271.967C311.219 272.482 311.112 272.996 311.002 273.526C310.89 274.073 310.778 274.621 310.665 275.169C310.552 275.718 310.438 276.267 310.325 276.816C310.046 278.164 309.768 279.513 309.491 280.862C311.998 281.632 314.508 282.249 317.078 282.768C317.584 282.872 317.584 282.872 318.1 282.978C318.919 283.146 319.739 283.312 320.559 283.478C321.391 282.217 321.726 281.085 322.024 279.608C322.112 279.176 322.201 278.743 322.292 278.298C322.426 277.624 322.426 277.624 322.563 276.936C322.655 276.481 322.748 276.025 322.844 275.556C323.072 274.433 323.297 273.309 323.521 272.185C322.264 271.358 321.132 271.016 319.663 270.713C319.017 270.578 319.017 270.578 318.357 270.441C317.909 270.351 317.461 270.26 317 270.168C316.321 270.026 316.321 270.026 315.629 269.881C312.992 268.947 312.992 268.947 311.624 270.522ZM267.027 304.1C266.93 304.576 266.834 305.052 266.734 305.542C266.628 306.056 266.523 306.569 266.414 307.098C266.304 307.644 266.195 308.19 266.086 308.736C265.974 309.284 265.862 309.832 265.75 310.379C265.475 311.724 265.203 313.069 264.933 314.414C267.538 315.207 270.137 315.84 272.805 316.38C273.17 316.455 273.534 316.53 273.91 316.607C274.797 316.79 275.684 316.971 276.571 317.15C277.364 314.545 277.997 311.947 278.537 309.279C278.612 308.914 278.687 308.55 278.765 308.174C278.947 307.287 279.128 306.4 279.308 305.512C278.055 304.69 276.924 304.341 275.462 304.032C275.033 303.941 274.603 303.85 274.161 303.757C273.715 303.666 273.268 303.574 272.809 303.481C272.359 303.384 271.909 303.287 271.446 303.188C271.018 303.099 270.589 303.01 270.148 302.918C269.756 302.837 269.363 302.755 268.958 302.671C267.544 302.49 267.397 302.735 267.027 304.1Z" fill="#DE7E29"/>
<path d="M191.227 320.713C191.483 320.568 191.74 320.423 192.004 320.273C194.522 318.848 197.038 317.42 199.553 315.991C200.844 315.257 202.135 314.524 203.427 313.794C220.132 304.343 236.412 294.305 252.46 283.776C254.074 282.718 255.691 281.663 257.309 280.609C273.74 269.912 289.818 258.793 305.466 246.977C306.389 246.283 307.311 245.59 308.234 244.897C310.415 243.258 312.594 241.616 314.771 239.973C315.187 240.726 315.602 241.48 316.017 242.234C316.249 242.653 316.48 243.073 316.719 243.505C317.415 244.791 318.048 246.079 318.648 247.412C318.834 247.821 319.02 248.23 319.212 248.652C319.599 249.622 319.599 249.622 319.48 250.192C318.98 250.618 318.463 251.023 317.94 251.42C317.435 251.804 317.435 251.804 316.919 252.197C316.548 252.477 316.176 252.757 315.793 253.046C315.408 253.338 315.023 253.63 314.626 253.931C313.357 254.893 312.086 255.851 310.815 256.809C310.382 257.136 309.949 257.463 309.503 257.8C303.932 262.007 298.338 266.181 292.675 270.265C292.413 270.454 292.15 270.644 291.88 270.839C290.249 272.015 288.612 273.181 286.971 274.34C286.265 274.839 285.56 275.339 284.855 275.839C276.353 281.866 267.666 287.601 258.94 293.297C258.58 293.532 258.22 293.767 257.848 294.01C240.664 305.232 223.182 315.777 205.26 325.775C204.861 325.999 204.462 326.222 204.051 326.452C202.295 327.428 200.561 328.372 198.696 329.128C197.937 328.332 197.18 327.534 196.424 326.735C196.214 326.514 196.003 326.294 195.786 326.067C194.618 324.829 193.508 323.565 192.444 322.235C192.215 321.949 191.985 321.662 191.749 321.367C191.577 321.151 191.404 320.935 191.227 320.713Z" fill="#F9E342"/>
<path d="M152.205 215.044C154.367 215.219 156.157 215.546 157.897 216.925C159.536 219.064 161.011 221.022 160.922 223.813C160.702 225.126 160.702 225.126 160.443 226.096C162.151 227.482 164.077 228.13 166.114 228.885C166.886 229.176 167.659 229.468 168.432 229.759C168.827 229.907 169.221 230.055 169.628 230.207C172.519 231.293 175.4 232.406 178.281 233.518C179.389 233.944 180.5 234.365 181.611 234.786C182.335 235.064 183.059 235.343 183.782 235.621C184.118 235.747 184.453 235.872 184.798 236.002C185.109 236.122 185.42 236.243 185.74 236.368C186.012 236.471 186.284 236.575 186.564 236.682C187.594 237.232 188.108 237.628 188.801 238.59C189.157 239.851 189.319 241.127 189.485 242.425C189.537 242.8 189.589 243.174 189.643 243.56C189.751 244.351 189.856 245.142 189.958 245.934C190.115 247.145 190.284 248.353 190.455 249.562C190.558 250.331 190.661 251.101 190.764 251.87C190.814 252.231 190.865 252.592 190.917 252.964C191.315 256.136 191.315 256.136 190.455 257.701C189.647 258.537 189.647 258.537 188.385 259.054C186.908 259.028 185.492 258.721 184.045 258.443C183.217 258.304 182.389 258.166 181.56 258.031C180.459 257.851 179.359 257.669 178.262 257.462C177.425 257.323 177.425 257.323 176.586 257.424C175.429 257.463 174.722 257.329 173.655 256.861C171.976 255.103 170.72 253.09 169.412 251.05C169.022 250.459 168.63 249.869 168.237 249.28C167.209 247.731 166.196 246.174 165.186 244.614C164.151 243.022 163.102 241.439 162.055 239.856C160.005 236.75 157.969 233.636 155.944 230.514C155.42 230.76 155.42 230.76 154.887 231.011C152.888 231.836 151.304 231.685 149.256 231.068C146.847 229.711 145.52 227.795 144.639 225.218C144.231 223.072 144.517 220.845 145.609 218.948C147.229 217.013 149.64 215.284 152.205 215.044Z" fill="#DE7E29"/>
<path d="M241.332 156.838C243.508 156.902 245.529 157.602 247.145 159.082C248.897 161.149 249.703 163.125 249.598 165.851C249.282 167.714 248.609 169.299 247.381 170.747C247.039 170.971 246.698 171.194 246.346 171.424C246.666 171.901 246.666 171.901 246.992 172.387C249.001 175.386 251.002 178.39 252.993 181.4C254.017 182.947 255.044 184.493 256.079 186.033C257.078 187.52 258.067 189.012 259.052 190.508C259.429 191.078 259.808 191.646 260.191 192.211C260.728 193.005 261.253 193.804 261.776 194.606C262.016 194.954 262.016 194.954 262.262 195.309C263.107 196.632 263.269 197.243 263.07 198.823C262.936 199.264 262.801 199.705 262.663 200.159C262.58 200.573 262.496 200.987 262.411 201.413C261.919 203.836 261.38 206.226 260.674 208.596C260.449 209.363 260.265 210.141 260.092 210.92C259.314 212.6 258.502 213.042 256.821 213.827C254.803 213.381 253.201 212.389 251.504 211.255C251.245 211.085 250.986 210.915 250.719 210.74C250.174 210.382 249.631 210.022 249.088 209.662C248.262 209.113 247.433 208.568 246.604 208.023C246.073 207.673 245.542 207.323 245.011 206.972C244.766 206.811 244.521 206.649 244.268 206.483C243.596 206.035 242.93 205.577 242.264 205.118C241.874 204.853 241.484 204.588 241.082 204.315C240.221 203.499 240.221 203.499 240.001 202.565C240.017 202.225 240.034 201.885 240.051 201.534C240.071 200.959 240.071 200.959 240.092 200.372C240.117 199.963 240.142 199.553 240.168 199.132C240.186 198.707 240.204 198.282 240.222 197.844C240.278 196.565 240.348 195.288 240.422 194.01C240.457 193.334 240.491 192.658 240.525 191.983C240.588 190.747 240.657 189.511 240.73 188.276C241.014 183.3 241.197 178.305 241.183 173.321C240.941 173.259 240.698 173.197 240.449 173.133C237.478 172.33 235.748 171.42 234.106 168.756C233.146 166.748 233.039 164.714 233.606 162.574C235.057 159.093 237.582 157.106 241.332 156.838Z" fill="#DE7E29"/>
<path d="M361.959 269.585C362.264 269.385 362.57 269.184 362.884 268.977C363.367 268.667 363.367 268.667 363.86 268.35C364.179 268.138 364.497 267.926 364.825 267.708C365.285 267.409 365.285 267.409 365.755 267.105C366.036 266.922 366.318 266.739 366.608 266.55C367.367 266.181 367.367 266.181 368.509 266.421C369.384 267.572 369.384 267.572 370.087 268.836C369.8 270.207 369.571 270.284 368.443 271.027C368.01 271.311 368.01 271.311 367.569 271.602C367.265 271.796 366.961 271.991 366.648 272.192C366.349 272.391 366.049 272.591 365.741 272.796C365.451 272.984 365.161 273.173 364.863 273.367C364.597 273.539 364.332 273.711 364.058 273.889C363.291 274.263 363.291 274.263 361.805 274.249C360.908 273.112 360.908 273.112 360.226 271.833C360.519 270.435 360.8 270.347 361.959 269.585Z" fill="#E30808"/>
<path d="M197.295 377.166C197.653 376.935 197.653 376.935 198.018 376.698C198.253 376.537 198.487 376.376 198.728 376.21C199.42 375.758 199.42 375.758 200.677 375.115C202.044 375.699 202.044 375.699 202.775 377.006C202.941 377.446 203.107 377.887 203.277 378.34C202.587 379.523 201.575 380.029 200.439 380.78C199.793 381.213 199.793 381.213 199.133 381.654C197.981 382.294 197.981 382.294 196.84 382.055C195.964 380.903 195.964 380.903 195.261 379.639C195.558 378.222 196.13 377.945 197.295 377.166Z" fill="#E30808"/>
<path d="M498.002 313.064L468.708 115.226H506.493L518.38 196.739C518.946 200.56 519.512 204.593 520.078 208.838C520.644 212.942 521.069 217.966 521.352 223.91C524.607 217.966 527.579 212.942 530.267 208.838C533.098 204.593 535.786 200.56 538.334 196.739L596.709 108.858L611.78 196.739C612.488 200.56 613.266 204.593 614.115 208.838C614.964 212.942 615.53 217.966 615.813 223.91C619.068 217.966 621.969 212.942 624.516 208.838C627.064 204.593 629.54 200.56 631.946 196.739L684.165 115.226H725.133L597.345 313.064L581.425 218.815C580.859 214.994 580.222 210.961 579.515 206.716C578.807 202.47 578.312 197.376 578.029 191.432C574.774 197.376 571.731 202.47 568.901 206.716C566.212 210.82 563.594 214.782 561.047 218.603L498.002 313.064ZM700.43 306.271L748.192 115.226H787.674L739.913 306.271H700.43ZM930.646 312.64L845.737 192.493L817.505 306.271H781.843L831.091 108.858L916 228.792L944.232 115.226H979.894L930.646 312.64ZM1000.7 149.614L1009.19 115.226H1142.07L1133.58 149.614H1086.88L1047.61 306.271H1008.13L1047.4 149.614H1000.7ZM1124.7 306.271L1172.03 115.226H1226.38C1236.85 115.226 1246.26 117.561 1254.61 122.231C1262.96 126.76 1269.54 132.986 1274.35 140.911C1279.3 148.836 1281.78 157.751 1281.78 167.658C1281.78 175.441 1280.22 183.012 1277.11 190.371C1273.99 197.588 1269.68 204.168 1264.16 210.112C1258.78 215.914 1252.56 220.796 1245.48 224.759L1274.35 306.271H1235.08L1210.67 233.674H1179.68L1161.63 306.271H1124.7ZM1187.53 201.833H1212.15C1218.1 201.833 1223.54 200.489 1228.5 197.8C1233.45 195.111 1237.34 191.503 1240.17 186.974C1243.14 182.446 1244.63 177.493 1244.63 172.115C1244.63 165.323 1242.22 159.874 1237.41 155.77C1232.6 151.666 1226.23 149.614 1218.31 149.614H1200.48L1187.53 201.833ZM1391.66 310.092C1374.82 310.092 1359.6 306.201 1346.02 298.417C1332.57 290.634 1321.89 280.091 1313.96 266.789C1306.18 253.486 1302.29 238.627 1302.29 222.212C1302.29 207.636 1305.33 193.767 1311.42 180.606C1317.5 167.304 1325.78 155.487 1336.25 145.157C1346.72 134.685 1358.68 126.477 1372.13 120.533C1385.57 114.448 1399.72 111.405 1414.58 111.405C1431.56 111.405 1446.78 115.297 1460.22 123.08C1473.66 130.864 1484.28 141.406 1492.06 154.709C1499.99 168.011 1503.95 182.941 1503.95 199.498C1503.95 213.933 1500.91 227.801 1494.82 241.104C1488.88 254.406 1480.6 266.223 1469.98 276.553C1459.51 286.884 1447.55 295.092 1434.11 301.177C1420.67 307.121 1406.51 310.092 1391.66 310.092ZM1395.9 273.157C1404.82 273.157 1413.31 271.247 1421.37 267.426C1429.58 263.605 1436.87 258.369 1443.24 251.717C1449.61 245.066 1454.56 237.495 1458.1 229.004C1461.78 220.513 1463.62 211.669 1463.62 202.47C1463.62 192.14 1461.28 182.941 1456.61 174.875C1452.08 166.667 1445.79 160.228 1437.72 155.558C1429.79 150.746 1420.74 148.341 1410.55 148.341C1401.63 148.341 1393.07 150.251 1384.86 154.072C1376.66 157.893 1369.37 163.129 1363 169.78C1356.77 176.29 1351.82 183.79 1348.14 192.281C1344.46 200.631 1342.62 209.404 1342.62 218.603C1342.62 228.792 1344.96 238.061 1349.63 246.411C1354.3 254.619 1360.66 261.128 1368.73 265.94C1376.8 270.751 1385.85 273.157 1395.9 273.157ZM1661.1 312.64L1576.19 192.493L1547.95 306.271H1512.29L1561.54 108.858L1646.45 228.792L1674.68 115.226H1710.34L1661.1 312.64Z" fill="url(#paint0_linear_1437_552)"/>
<path d="M488.875 447V393.875H502.038C505.541 393.875 508.492 394.406 510.892 395.469C513.332 396.531 515.3 397.928 516.795 399.66C518.291 401.352 519.373 403.201 520.042 405.208C520.75 407.215 521.104 409.183 521.104 411.111C521.104 413 520.77 414.948 520.101 416.955C519.432 418.962 518.35 420.831 516.854 422.563C515.359 424.294 513.391 425.691 510.951 426.753C508.512 427.816 505.541 428.347 502.038 428.347H495.604V447H488.875ZM495.604 422.326H501.684C504.872 422.326 507.39 421.775 509.24 420.674C511.089 419.532 512.407 418.116 513.194 416.424C513.981 414.692 514.375 412.921 514.375 411.111C514.375 409.38 513.981 407.648 513.194 405.917C512.447 404.185 511.148 402.749 509.299 401.608C507.488 400.466 504.95 399.896 501.684 399.896H495.604V422.326ZM550.004 447V390.333H556.379V447H550.004ZM603.255 447.472C600.028 447.472 597.077 446.666 594.401 445.052C591.725 443.399 589.58 441.196 587.967 438.441C586.393 435.686 585.606 432.637 585.606 429.292C585.606 425.947 586.393 422.897 587.967 420.142C589.58 417.388 591.725 415.204 594.401 413.59C597.077 411.937 600.028 411.111 603.255 411.111C605.695 411.111 607.977 411.564 610.102 412.469C612.267 413.374 614.136 414.633 615.71 416.247V411.583H621.613V447H615.71V442.337C614.136 443.911 612.267 445.17 610.102 446.115C607.977 447.02 605.695 447.472 603.255 447.472ZM604.081 441.688C606.324 441.688 608.351 441.137 610.161 440.035C612.011 438.894 613.467 437.398 614.529 435.549C615.631 433.66 616.182 431.574 616.182 429.292C616.182 427.009 615.631 424.943 614.529 423.094C613.467 421.205 612.011 419.709 610.161 418.608C608.351 417.466 606.324 416.896 604.081 416.896C601.838 416.896 599.792 417.466 597.942 418.608C596.132 419.709 594.676 421.205 593.574 423.094C592.512 424.943 591.981 427.009 591.981 429.292C591.981 431.574 592.512 433.66 593.574 435.549C594.676 437.398 596.132 438.894 597.942 440.035C599.792 441.137 601.838 441.688 604.081 441.688ZM651.833 464.708L663.344 441.806L648.351 411.583H655.552L663.108 426.931C663.777 428.308 664.426 429.666 665.056 431.003C665.685 432.341 666.315 433.955 666.944 435.844C667.613 433.955 668.243 432.341 668.833 431.003C669.463 429.626 670.132 428.269 670.84 426.931L678.514 411.583H685.302L658.74 464.708H651.833ZM775.698 448.063C771.842 448.063 768.241 447.354 764.896 445.937C761.551 444.481 758.6 442.494 756.042 439.976C753.524 437.418 751.556 434.486 750.139 431.181C748.723 427.836 748.014 424.255 748.014 420.438C748.014 416.62 748.723 413.059 750.139 409.753C751.595 406.409 753.583 403.477 756.101 400.958C758.659 398.4 761.61 396.413 764.955 394.997C768.3 393.541 771.901 392.813 775.757 392.813C779.535 392.813 783.077 393.521 786.382 394.937C789.688 396.315 792.6 398.223 795.118 400.663L793.171 408.809C791.36 405.897 788.921 403.575 785.851 401.844C782.821 400.073 779.456 399.188 775.757 399.188C771.862 399.188 768.34 400.152 765.191 402.08C762.083 403.969 759.603 406.527 757.754 409.753C755.904 412.941 754.98 416.502 754.98 420.438C754.98 424.294 755.885 427.836 757.695 431.062C759.544 434.289 762.024 436.867 765.132 438.795C768.281 440.723 771.803 441.688 775.698 441.688C777.902 441.688 779.988 441.432 781.955 440.92C783.962 440.369 785.792 439.602 787.445 438.618V424.687H772.806V418.667H793.938V442.042C791.537 444.049 788.743 445.564 785.556 446.587C782.408 447.571 779.122 448.063 775.698 448.063ZM841.159 447.472C837.932 447.472 834.98 446.666 832.305 445.052C829.629 443.399 827.484 441.196 825.87 438.441C824.296 435.686 823.509 432.637 823.509 429.292C823.509 425.947 824.296 422.897 825.87 420.142C827.484 417.388 829.629 415.204 832.305 413.59C834.98 411.937 837.932 411.111 841.159 411.111C843.598 411.111 845.881 411.564 848.006 412.469C850.17 413.374 852.039 414.633 853.614 416.247V411.583H859.516V447H853.614V442.337C852.039 443.911 850.17 445.17 848.006 446.115C845.881 447.02 843.598 447.472 841.159 447.472ZM841.985 441.688C844.228 441.688 846.255 441.137 848.065 440.035C849.914 438.894 851.37 437.398 852.433 435.549C853.535 433.66 854.086 431.574 854.086 429.292C854.086 427.009 853.535 424.943 852.433 423.094C851.37 421.205 849.914 419.709 848.065 418.608C846.255 417.466 844.228 416.896 841.985 416.896C839.742 416.896 837.696 417.466 835.846 418.608C834.036 419.709 832.58 421.205 831.478 423.094C830.416 424.943 829.884 427.009 829.884 429.292C829.884 431.574 830.416 433.66 831.478 435.549C832.58 437.398 834.036 438.894 835.846 440.035C837.696 441.137 839.742 441.688 841.985 441.688ZM891.213 447V411.583H897.116V416.66C898.414 414.731 900.047 413.295 902.015 412.351C904.022 411.367 906.127 410.875 908.331 410.875C910.731 410.875 912.935 411.446 914.942 412.587C916.949 413.689 918.562 415.243 919.782 417.25C921.16 415.125 922.93 413.531 925.095 412.469C927.298 411.406 929.62 410.875 932.06 410.875C934.736 410.875 937.176 411.505 939.379 412.764C941.622 414.023 943.393 415.794 944.692 418.076C946.03 420.319 946.699 422.976 946.699 426.045V447H940.324V426.812C940.324 423.586 939.399 421.146 937.55 419.493C935.739 417.801 933.634 416.955 931.234 416.955C929.738 416.955 928.282 417.289 926.866 417.958C925.488 418.627 924.347 419.67 923.442 421.087C922.576 422.503 922.143 424.353 922.143 426.635V447H915.768V426.812C915.768 424.569 915.316 422.72 914.411 421.264C913.545 419.808 912.404 418.726 910.987 418.017C909.61 417.27 908.173 416.896 906.678 416.896C905.222 416.896 903.786 417.23 902.369 417.899C900.992 418.568 899.85 419.611 898.945 421.028C898.04 422.444 897.588 424.314 897.588 426.635V447H891.213ZM994.569 447.708C990.87 447.708 987.545 446.882 984.593 445.229C981.681 443.576 979.379 441.333 977.687 438.5C976.034 435.627 975.208 432.44 975.208 428.937C975.208 425.593 976.015 422.562 977.628 419.847C979.241 417.093 981.406 414.909 984.121 413.295C986.876 411.682 989.906 410.875 993.211 410.875C996.478 410.875 999.468 411.662 1002.18 413.236C1004.9 414.771 1007.06 416.856 1008.68 419.493C1010.29 422.13 1011.1 425.12 1011.1 428.465V431.062H987.958C986.935 431.062 985.892 431.023 984.829 430.944C983.767 430.866 982.724 430.748 981.701 430.59C982.134 433.738 983.55 436.375 985.951 438.5C988.391 440.625 991.283 441.688 994.628 441.688C996.871 441.688 998.957 441.176 1000.88 440.153C1002.81 439.13 1004.37 437.772 1005.55 436.08L1007.32 443.34C1005.63 444.718 1003.68 445.8 1001.48 446.587C999.311 447.334 997.009 447.708 994.569 447.708ZM981.524 426.281C983.649 425.927 985.793 425.75 987.958 425.75H999.704C1000.57 425.75 1001.42 425.789 1002.24 425.868C1003.11 425.907 1003.97 425.966 1004.84 426.045C1004.29 423.291 1002.91 421.028 1000.71 419.257C998.504 417.447 996.005 416.542 993.211 416.542C990.339 416.542 987.82 417.506 985.656 419.434C983.491 421.323 982.114 423.605 981.524 426.281ZM1049.16 447.708C1047.35 447.708 1045.4 447.374 1043.31 446.705C1041.27 445.997 1039.49 444.836 1038 443.222L1039.77 436.257C1040.87 438.106 1042.29 439.582 1044.02 440.684C1045.75 441.747 1047.6 442.278 1049.57 442.278C1051.46 442.278 1052.87 441.825 1053.82 440.92C1054.76 439.976 1055.24 438.834 1055.24 437.497C1055.24 435.962 1054.72 434.84 1053.7 434.132C1052.72 433.424 1051.83 432.932 1051.04 432.656L1046.26 430.826C1045.4 430.472 1044.35 429.961 1043.13 429.292C1041.91 428.583 1040.85 427.58 1039.95 426.281C1039.04 424.983 1038.59 423.291 1038.59 421.205C1038.59 419.316 1039.04 417.584 1039.95 416.01C1040.85 414.436 1042.13 413.197 1043.78 412.292C1045.44 411.347 1047.38 410.875 1049.63 410.875C1051.4 410.875 1053.25 411.19 1055.18 411.819C1057.1 412.449 1058.74 413.512 1060.08 415.007L1058.3 421.972C1057.36 420.241 1056.08 418.863 1054.47 417.84C1052.85 416.817 1051.18 416.306 1049.45 416.306C1047.84 416.306 1046.56 416.758 1045.61 417.663C1044.71 418.568 1044.26 419.611 1044.26 420.792C1044.26 421.736 1044.57 422.582 1045.2 423.33C1045.83 424.078 1046.77 424.688 1048.03 425.16L1052.81 426.99C1053.68 427.304 1054.74 427.816 1056 428.524C1057.3 429.233 1058.44 430.256 1059.43 431.594C1060.41 432.932 1060.9 434.742 1060.9 437.024C1060.9 440.212 1059.78 442.789 1057.54 444.757C1055.33 446.725 1052.54 447.708 1049.16 447.708ZM1130.39 447V393.875H1156.6V399.896H1137.12V411.229H1152.47V417.25H1137.12V440.979H1156.6V447H1130.39ZM1199.63 447.472C1196.41 447.472 1193.45 446.666 1190.78 445.052C1188.1 443.399 1185.96 441.196 1184.34 438.441C1182.77 435.686 1181.98 432.637 1181.98 429.292C1181.98 425.947 1182.77 422.897 1184.34 420.142C1185.96 417.388 1188.1 415.204 1190.78 413.59C1193.45 411.937 1196.41 411.111 1199.63 411.111C1202.07 411.111 1204.36 411.564 1206.48 412.469C1208.64 413.374 1210.51 414.633 1212.09 416.247V411.583H1217.99V447H1212.09V442.337C1210.51 443.911 1208.64 445.17 1206.48 446.115C1204.36 447.02 1202.07 447.472 1199.63 447.472ZM1200.46 441.688C1202.7 441.688 1204.73 441.137 1206.54 440.035C1208.39 438.894 1209.84 437.398 1210.91 435.549C1212.01 433.66 1212.56 431.574 1212.56 429.292C1212.56 427.009 1212.01 424.943 1210.91 423.094C1209.84 421.205 1208.39 419.709 1206.54 418.608C1204.73 417.466 1202.7 416.896 1200.46 416.896C1198.22 416.896 1196.17 417.466 1194.32 418.608C1192.51 419.709 1191.05 421.205 1189.95 423.094C1188.89 424.943 1188.36 427.009 1188.36 429.292C1188.36 431.574 1188.89 433.66 1189.95 435.549C1191.05 437.398 1192.51 438.894 1194.32 440.035C1196.17 441.137 1198.22 441.688 1200.46 441.688ZM1249.69 447V411.583H1255.59V418.076C1256.85 415.991 1258.52 414.338 1260.61 413.118C1262.69 411.859 1265.17 411.229 1268.04 411.229L1269.64 417.604C1268.89 417.368 1268.02 417.25 1267.04 417.25C1263.74 417.25 1261.08 418.313 1259.07 420.438C1257.07 422.523 1256.06 425.514 1256.06 429.41V447H1249.69ZM1296.65 447V411.583H1302.55V417.309C1303.85 415.223 1305.52 413.63 1307.57 412.528C1309.66 411.426 1311.9 410.875 1314.3 410.875C1316.82 410.875 1319.14 411.505 1321.26 412.764C1323.43 413.984 1325.18 415.774 1326.52 418.135C1327.86 420.457 1328.52 423.291 1328.52 426.635V447H1322.15V427.521C1322.15 424.727 1321.3 422.267 1319.61 420.142C1317.96 417.978 1315.62 416.896 1312.59 416.896C1310.11 416.896 1307.88 417.801 1305.92 419.611C1303.99 421.382 1303.02 423.959 1303.02 427.344V447H1296.65ZM1423.25 448.063C1419.43 448.063 1415.83 447.354 1412.45 445.937C1409.1 444.481 1406.15 442.494 1403.59 439.976C1401.07 437.457 1399.09 434.525 1397.63 431.181C1396.21 427.836 1395.51 424.255 1395.51 420.438C1395.51 416.62 1396.21 413.039 1397.63 409.694C1399.09 406.35 1401.07 403.418 1403.59 400.899C1406.15 398.381 1409.1 396.413 1412.45 394.997C1415.83 393.541 1419.43 392.813 1423.25 392.813C1427.03 392.813 1430.57 393.521 1433.87 394.937C1437.18 396.315 1440.09 398.223 1442.61 400.663L1440.66 408.809C1438.85 405.897 1436.41 403.575 1433.34 401.844C1430.31 400.073 1426.95 399.188 1423.25 399.188C1419.35 399.188 1415.83 400.152 1412.68 402.08C1409.57 403.969 1407.09 406.527 1405.24 409.753C1403.4 412.941 1402.47 416.502 1402.47 420.438C1402.47 424.333 1403.4 427.895 1405.24 431.122C1407.09 434.348 1409.57 436.926 1412.68 438.854C1415.83 440.743 1419.35 441.688 1423.25 441.688C1426.99 441.688 1430.37 440.802 1433.4 439.031C1436.43 437.26 1438.85 434.939 1440.66 432.066L1442.61 440.212C1440.09 442.612 1437.18 444.521 1433.87 445.937C1430.57 447.354 1427.03 448.063 1423.25 448.063ZM1471.16 447V411.583H1477.06V418.076C1478.32 415.991 1479.99 414.338 1482.08 413.118C1484.16 411.859 1486.64 411.229 1489.51 411.229L1491.11 417.604C1490.36 417.368 1489.49 417.25 1488.51 417.25C1485.2 417.25 1482.55 418.313 1480.54 420.438C1478.53 422.523 1477.53 425.514 1477.53 429.41V447H1471.16ZM1516.64 464.708L1528.15 441.806L1513.16 411.583H1520.36L1527.92 426.931C1528.59 428.308 1529.23 429.666 1529.86 431.003C1530.49 432.341 1531.12 433.955 1531.75 435.844C1532.42 433.955 1533.05 432.341 1533.64 431.003C1534.27 429.626 1534.94 428.269 1535.65 426.931L1543.32 411.583H1550.11L1523.55 464.708H1516.64ZM1576.87 464.708V411.583H1582.77V416.247C1584.38 414.633 1586.25 413.374 1588.38 412.469C1590.5 411.564 1592.79 411.111 1595.22 411.111C1598.49 411.111 1601.44 411.937 1604.08 413.59C1606.75 415.204 1608.88 417.388 1610.45 420.142C1612.07 422.897 1612.87 425.947 1612.87 429.292C1612.87 432.637 1612.07 435.686 1610.45 438.441C1608.88 441.196 1606.75 443.399 1604.08 445.052C1601.44 446.666 1598.49 447.472 1595.22 447.472C1592.9 447.472 1590.72 447.059 1588.67 446.233C1586.63 445.406 1584.82 444.265 1583.24 442.809V464.708H1576.87ZM1594.4 441.688C1596.64 441.688 1598.67 441.137 1600.48 440.035C1602.33 438.894 1603.78 437.398 1604.85 435.549C1605.95 433.66 1606.5 431.574 1606.5 429.292C1606.5 427.009 1605.95 424.943 1604.85 423.094C1603.78 421.205 1602.33 419.709 1600.48 418.608C1598.67 417.466 1596.64 416.896 1594.4 416.896C1592.16 416.896 1590.11 417.466 1588.26 418.608C1586.45 419.709 1584.99 421.205 1583.89 423.094C1582.83 424.943 1582.3 427.009 1582.3 429.292C1582.3 431.574 1582.83 433.66 1583.89 435.549C1584.99 437.398 1586.45 438.894 1588.26 440.035C1590.11 441.137 1592.16 441.688 1594.4 441.688ZM1644.48 447V416.896H1636.45V411.583H1644.66V399.778H1650.68V411.583H1659.47V416.896H1650.86V447H1644.48ZM1701.74 447.708C1698.32 447.708 1695.19 446.882 1692.36 445.229C1689.52 443.576 1687.26 441.353 1685.57 438.559C1683.91 435.765 1683.09 432.676 1683.09 429.292C1683.09 425.868 1683.91 422.779 1685.57 420.024C1687.26 417.23 1689.52 415.007 1692.36 413.354C1695.19 411.701 1698.32 410.875 1701.74 410.875C1705.2 410.875 1708.33 411.701 1711.13 413.354C1713.96 415.007 1716.2 417.23 1717.86 420.024C1719.55 422.779 1720.39 425.868 1720.39 429.292C1720.39 432.676 1719.55 435.765 1717.86 438.559C1716.2 441.353 1713.96 443.576 1711.13 445.229C1708.33 446.882 1705.2 447.708 1701.74 447.708ZM1701.74 441.688C1704.02 441.688 1706.09 441.137 1707.94 440.035C1709.79 438.894 1711.26 437.398 1712.37 435.549C1713.47 433.66 1714.02 431.574 1714.02 429.292C1714.02 427.009 1713.47 424.943 1712.37 423.094C1711.26 421.205 1709.79 419.709 1707.94 418.608C1706.09 417.466 1704.02 416.896 1701.74 416.896C1699.46 416.896 1697.39 417.466 1695.54 418.608C1693.69 419.709 1692.22 421.205 1691.12 423.094C1690.01 424.943 1689.46 427.009 1689.46 429.292C1689.46 431.574 1690.01 433.66 1691.12 435.549C1692.22 437.398 1693.69 438.894 1695.54 440.035C1697.39 441.137 1699.46 441.688 1701.74 441.688Z" fill="white"/>
<rect x="479.914" y="321.229" width="1056.1" height="35.1523" fill="#DE7E29"/>
<path d="M1456.42 210.841L1374 252.867L1413.74 210.738L1374.22 168.392L1456.42 210.841Z" fill="url(#paint1_linear_1437_552)"/>
<defs>
<linearGradient id="paint0_linear_1437_552" x1="1079.8" y1="0.271484" x2="1080.64" y2="305.944" gradientUnits="userSpaceOnUse">
<stop offset="0.427885" stop-color="#CAA12D"/>
<stop offset="0.696789" stop-color="#FAE443"/>
<stop offset="0.918269" stop-color="#DE7E29"/>
</linearGradient>
<linearGradient id="paint1_linear_1437_552" x1="1415.38" y1="168.498" x2="1415.16" y2="252.973" gradientUnits="userSpaceOnUse">
<stop stop-color="#CAA12D"/>
<stop offset="0.466531" stop-color="#F9E243"/>
<stop offset="1" stop-color="#DD7D28"/>
</linearGradient>
</defs>
</svg>
