<svg width="164" height="48" viewBox="0 0 164 48" fill="none" xmlns="http://www.w3.org/2000/svg">
<rect x="143.922" y="28.0469" width="3.35804" height="4.93263" transform="rotate(13.342 143.922 28.0469)" fill="#DE7E29"/>
<circle cx="23.3685" cy="25.3021" r="19.1905" stroke="#F9E342" stroke-width="1.38727"/>
<circle cx="23.3641" cy="25.3035" r="17.3408" stroke="black" stroke-width="2.31211" stroke-dasharray="4.62 4.62"/>
<circle cx="23.3678" cy="25.3008" r="17.3408" transform="rotate(15.1988 23.3678 25.3008)" stroke="#E30808" stroke-width="2.31211" stroke-dasharray="4.62 4.62"/>
<path d="M23.376 7.25374L23.3358 8.79299L23.1494 8.78813L23.1845 7.44429L23.1755 7.44405L22.7932 7.68377L22.7981 7.49437L23.1896 7.24888L23.376 7.25374Z" fill="#FEFEFE"/>
<path d="M28.0051 7.83911C28.0653 7.85838 28.122 7.88866 28.1753 7.92994C28.2286 7.97122 28.272 8.02569 28.3055 8.09336C28.3391 8.16055 28.3571 8.24359 28.3594 8.34247C28.3616 8.44135 28.3417 8.55826 28.2997 8.69321C28.259 8.82385 28.2104 8.93601 28.1539 9.02971C28.098 9.12307 28.036 9.19721 27.968 9.25214C27.9004 9.30721 27.828 9.3424 27.7508 9.35771C27.6741 9.37317 27.5943 9.368 27.5115 9.3422C27.4292 9.31655 27.3608 9.27739 27.3064 9.22472C27.2525 9.17172 27.2141 9.10961 27.1912 9.03841C27.1689 8.96687 27.164 8.89056 27.1767 8.80945L27.3518 8.86403C27.3466 8.93643 27.3606 9.00194 27.3938 9.06058C27.4276 9.11889 27.4832 9.16013 27.5607 9.18429C27.6742 9.21963 27.7791 9.19799 27.8755 9.11936C27.9724 9.04088 28.049 8.9112 28.1054 8.73032L28.0939 8.72674C28.0546 8.75858 28.012 8.78336 27.966 8.80107C27.9201 8.81878 27.8722 8.82852 27.8223 8.83029C27.7724 8.83207 27.722 8.82505 27.6713 8.80924C27.5871 8.783 27.5163 8.7381 27.4589 8.67454C27.4022 8.61066 27.3642 8.53555 27.3449 8.44921C27.3262 8.36254 27.3316 8.27183 27.3612 8.17708C27.3892 8.08712 27.4349 8.01108 27.4984 7.94895C27.5625 7.8865 27.6381 7.84443 27.7252 7.82274C27.8127 7.8012 27.9061 7.80666 28.0051 7.83911ZM27.9559 7.99703C27.8956 7.97824 27.8366 7.97639 27.7789 7.99147C27.7218 8.00623 27.6712 8.03457 27.6272 8.0765C27.5838 8.11809 27.5525 8.16952 27.5334 8.23077C27.5143 8.29202 27.5104 8.35195 27.5215 8.41054C27.5333 8.46881 27.558 8.52009 27.5956 8.56437C27.6339 8.60832 27.6832 8.63969 27.7435 8.65848C27.789 8.67265 27.8341 8.677 27.8788 8.67152C27.9237 8.66556 27.9656 8.65158 28.0045 8.62957C28.044 8.60723 28.0783 8.57882 28.1075 8.54432C28.1367 8.50934 28.1582 8.47008 28.1717 8.42653C28.1896 8.36911 28.1925 8.31095 28.1804 8.25205C28.1688 8.19331 28.1437 8.14085 28.105 8.09469C28.0669 8.04867 28.0172 8.01612 27.9559 7.99703Z" fill="#FEFEFE"/>
<path d="M31.9138 11.2266C31.8314 11.1713 31.7675 11.1078 31.722 11.0362C31.6769 10.9648 31.6524 10.8913 31.6483 10.8155C31.645 10.7396 31.6641 10.667 31.7058 10.5978L31.8631 10.7034C31.8387 10.7469 31.829 10.7919 31.8338 10.8387C31.839 10.885 31.8562 10.9298 31.8857 10.9731C31.9152 11.0165 31.9544 11.0546 32.0035 11.0876C32.0585 11.1245 32.1136 11.1476 32.1689 11.157C32.2242 11.1664 32.2753 11.1621 32.3224 11.1442C32.3694 11.1263 32.4081 11.0949 32.4382 11.0499C32.4698 11.0029 32.486 10.9537 32.4867 10.9023C32.4877 10.8504 32.4726 10.7992 32.4414 10.7486C32.4101 10.6981 32.3621 10.651 32.2972 10.6074L32.1948 10.5386L32.287 10.4013L32.3894 10.4701C32.4401 10.5042 32.4908 10.5249 32.5414 10.5323C32.5924 10.54 32.6399 10.5345 32.6839 10.5157C32.7283 10.4972 32.7656 10.4655 32.7958 10.4206C32.8248 10.3773 32.8406 10.3332 32.8429 10.2884C32.8453 10.2435 32.835 10.2003 32.8121 10.159C32.7896 10.1179 32.7548 10.0815 32.7078 10.05C32.6637 10.0203 32.6167 10.0005 32.5666 9.99045C32.5173 9.98026 32.4702 9.98212 32.4252 9.996C32.3806 10.0095 32.3429 10.0367 32.3124 10.0778L32.1626 9.97715C32.2101 9.91184 32.2696 9.86673 32.3413 9.84181C32.4133 9.81649 32.4894 9.81022 32.5695 9.82301C32.6501 9.83608 32.7272 9.86735 32.8009 9.91682C32.8799 9.96993 32.937 10.0315 32.972 10.1015C33.0074 10.1712 33.0228 10.2422 33.0182 10.3146C33.0137 10.387 32.9911 10.4534 32.9506 10.5137C32.9022 10.5857 32.8421 10.6344 32.7701 10.6597C32.6986 10.6853 32.624 10.6862 32.5464 10.6625L32.5396 10.6724C32.6114 10.74 32.6514 10.8166 32.6596 10.9024C32.668 10.9878 32.645 11.0711 32.5905 11.1522C32.5438 11.2217 32.483 11.2714 32.408 11.3013C32.3336 11.3311 32.2534 11.34 32.1672 11.328C32.0811 11.316 31.9966 11.2822 31.9138 11.2266Z" fill="#FEFEFE"/>
<path d="M34.9462 13.8019C34.8804 13.7224 34.8362 13.6405 34.8139 13.5561C34.7922 13.4719 34.7922 13.3921 34.8138 13.3169C34.8359 13.2414 34.8791 13.1773 34.9435 13.1245C34.9933 13.0826 35.0478 13.054 35.1069 13.0389C35.1663 13.0235 35.2247 13.0213 35.2821 13.0324C35.3401 13.0435 35.3909 13.0675 35.4345 13.1043L35.4414 13.0986C35.4091 13.0297 35.4035 12.9581 35.4247 12.8839C35.4462 12.8094 35.4886 12.7463 35.5519 12.6945C35.6117 12.6443 35.6782 12.6149 35.7513 12.6064C35.8243 12.598 35.8969 12.6094 35.9691 12.6407C36.0416 12.6724 36.1066 12.723 36.1642 12.7925C36.2211 12.8612 36.2583 12.9339 36.2757 13.0106C36.2931 13.0874 36.2908 13.1608 36.2689 13.231C36.2474 13.3016 36.2066 13.3621 36.1467 13.4124C36.0835 13.4641 36.0131 13.4935 35.9356 13.5005C35.8588 13.5075 35.79 13.4893 35.7293 13.4459L35.7223 13.4516C35.7501 13.5009 35.7637 13.5547 35.7633 13.613C35.7632 13.671 35.7502 13.728 35.7243 13.784C35.6988 13.8396 35.6611 13.8884 35.6113 13.9304C35.5469 13.9831 35.4754 14.013 35.3967 14.0203C35.3188 14.0276 35.2405 14.0127 35.1617 13.9758C35.0836 13.939 35.0118 13.881 34.9462 13.8019ZM35.0736 13.6963C35.1181 13.75 35.1651 13.7891 35.2148 13.8137C35.2645 13.8383 35.3139 13.848 35.3631 13.843C35.4124 13.838 35.4584 13.8181 35.5012 13.7834C35.5456 13.7459 35.5756 13.7015 35.591 13.6503C35.6065 13.599 35.6078 13.5456 35.5948 13.4899C35.5822 13.4346 35.5551 13.3819 35.5135 13.3317C35.4717 13.2812 35.4244 13.2442 35.3718 13.2207C35.3195 13.1977 35.2667 13.189 35.2135 13.1947C35.1606 13.2008 35.1119 13.2226 35.0675 13.26C35.0247 13.2948 34.9961 13.3358 34.9817 13.3828C34.9677 13.4303 34.9683 13.4809 34.9835 13.5346C34.9988 13.5884 35.0288 13.6423 35.0736 13.6963ZM35.6363 13.23C35.6715 13.2725 35.7111 13.303 35.7553 13.3218C35.7998 13.3409 35.8451 13.3473 35.8913 13.3409C35.9374 13.3346 35.9811 13.3146 36.0223 13.2811C36.0622 13.2475 36.0893 13.2091 36.1036 13.1659C36.1184 13.1224 36.1203 13.0776 36.1093 13.0313C36.0987 12.9848 36.0753 12.9397 36.0392 12.8961C36.0024 12.8517 35.962 12.8198 35.9179 12.8004C35.8741 12.7806 35.8297 12.7741 35.7846 12.781C35.7398 12.7874 35.6976 12.8075 35.6577 12.8412C35.6165 12.8747 35.5883 12.9133 35.5732 12.9571C35.5584 13.0013 35.5562 13.047 35.5668 13.0943C35.5773 13.1415 35.6005 13.1868 35.6363 13.23Z" fill="#FEFEFE"/>
<path d="M37.3697 17.051L38.8932 17.1455L38.9043 17.1408L38.5907 16.4114L38.7426 16.3461L39.1323 17.2522L38.972 17.3211L37.4469 17.2306L37.3697 17.051Z" fill="#FEFEFE"/>
<path d="M39.093 20.5815L39.2238 20.5466L39.8923 20.8944C39.9706 20.9352 40.038 20.9681 40.0945 20.9929C40.1514 21.0177 40.2028 21.0336 40.2488 21.0405C40.2953 21.0478 40.3414 21.0454 40.3869 21.0332C40.4392 21.0193 40.4811 20.9946 40.5127 20.9592C40.5443 20.9243 40.5648 20.8825 40.5742 20.8339C40.5835 20.7852 40.581 20.734 40.5667 20.6803C40.5514 20.6231 40.5262 20.5764 40.4911 20.5401C40.4567 20.5042 40.4152 20.4802 40.3669 20.4682C40.3187 20.4567 40.2663 20.4585 40.2096 20.4736L40.1639 20.3021C40.2511 20.2789 40.3329 20.2786 40.4095 20.3012C40.4861 20.3238 40.552 20.3649 40.6073 20.4243C40.6627 20.4842 40.702 20.5575 40.7251 20.6442C40.7484 20.7314 40.7506 20.8135 40.7317 20.8907C40.7129 20.9678 40.6773 21.0338 40.625 21.0888C40.5728 21.1437 40.5084 21.1814 40.4318 21.2018C40.3771 21.2164 40.321 21.2207 40.2634 21.2148C40.2064 21.2092 40.1395 21.1908 40.0626 21.1594C39.9864 21.1284 39.8911 21.0825 39.7769 21.0216L39.3303 20.7828L39.3187 20.7859L39.5032 21.4775L39.3433 21.5201L39.093 20.5815Z" fill="#FEFEFE"/>
<path d="M39.8011 24.6L39.9544 24.5989L41.0298 25.268L41.0306 25.3793L40.793 25.381L40.7925 25.3058L39.9799 24.8003L39.9679 24.8003L39.9743 25.7116L39.8089 25.7127L39.8011 24.6ZM39.4904 25.327L39.8528 25.3245L39.9242 25.324L41.0301 25.3161L41.0314 25.4936L39.4917 25.5044L39.4904 25.327Z" fill="#FEFEFE"/>
<path d="M40.5613 29.9293C40.5373 29.9877 40.5026 30.0419 40.4572 30.0917C40.4118 30.1415 40.354 30.1804 40.2839 30.2084C40.2142 30.2366 40.13 30.2479 40.0313 30.2423C39.9325 30.2366 39.8176 30.2075 39.6864 30.1548C39.5594 30.1038 39.4515 30.0464 39.3626 29.9826C39.274 29.9194 39.205 29.8518 39.1557 29.7796C39.1062 29.7078 39.0769 29.6328 39.0678 29.5546C39.0585 29.4769 39.07 29.3978 39.1024 29.3174C39.1345 29.2374 39.179 29.1723 39.2358 29.1222C39.293 29.0728 39.3579 29.0395 39.4308 29.0223C39.5038 29.0057 39.5803 29.007 39.6601 29.0261L39.5918 29.1963C39.52 29.1853 39.4536 29.194 39.3925 29.2224C39.3317 29.2515 39.2861 29.3037 39.2559 29.379C39.2116 29.4892 39.2248 29.5956 39.2955 29.6979C39.366 29.8008 39.4891 29.8875 39.6649 29.9582L39.6694 29.947C39.6408 29.9053 39.6195 29.8608 39.6055 29.8136C39.5915 29.7664 39.5856 29.7178 39.5879 29.6679C39.5901 29.618 39.6011 29.5685 39.6209 29.5192C39.6538 29.4373 39.7042 29.3703 39.7721 29.3182C39.8403 29.2667 39.9182 29.2348 40.0058 29.2225C40.0937 29.2108 40.1837 29.2234 40.2758 29.2604C40.3632 29.2956 40.4354 29.3472 40.4922 29.4154C40.5494 29.4843 40.5853 29.563 40.5999 29.6515C40.6144 29.7405 40.6015 29.8331 40.5613 29.9293ZM40.4078 29.8677C40.4313 29.8091 40.4379 29.7504 40.4275 29.6916C40.4173 29.6335 40.3931 29.5809 40.3548 29.5336C40.3168 29.487 40.268 29.4518 40.2085 29.4279C40.149 29.404 40.0896 29.3952 40.0303 29.4016C39.9712 29.4087 39.9182 29.4293 39.871 29.4633C39.8241 29.4979 39.7889 29.5445 39.7654 29.6031C39.7477 29.6473 39.7397 29.6919 39.7416 29.737C39.744 29.7822 39.7546 29.8251 39.7734 29.8656C39.7925 29.9068 39.8181 29.9433 39.8502 29.975C39.8827 30.007 39.9201 30.0315 39.9624 30.0485C40.0183 30.0709 40.076 30.0785 40.1357 30.0711C40.1952 30.0642 40.2495 30.0433 40.2986 30.0085C40.3475 29.9741 40.3839 29.9272 40.4078 29.8677Z" fill="#FEFEFE"/>
<path d="M38.4232 34.0622L37.1886 33.1421L37.3 32.9926L38.3779 33.7959L38.3833 33.7887L38.4078 33.3381L38.5597 33.4513L38.5346 33.9127L38.4232 34.0622Z" fill="#FEFEFE"/>
<path d="M31.8485 38.9894L32.2258 40.4686L32.2338 40.4776L32.8318 39.9554L32.9406 40.08L32.1976 40.7288L32.0829 40.5974L31.7012 39.118L31.8485 38.9894Z" fill="#FEFEFE"/>
<path d="M35.1376 36.6257L35.7021 38.044L35.7111 38.0519L36.237 37.4571L36.3609 37.5667L35.7076 38.3057L35.5769 38.1902L35.0081 36.7721L35.1376 36.6257Z" fill="#FEFEFE"/>
<path d="M28.2282 41.1334L28.2699 41.281L27.9097 42.4953L27.8027 42.5255L27.7381 42.2969L27.8104 42.2764L28.0825 41.3589L28.0793 41.3474L27.2023 41.5951L27.1574 41.4359L28.2282 41.1334ZM27.4449 41.0265L27.5434 41.3753L27.5628 41.444L27.8634 42.5083L27.6927 42.5566L27.2741 41.0748L27.4449 41.0265Z" fill="#FEFEFE"/>
<path d="M23.0807 41.5105C23.1839 41.512 23.2749 41.5317 23.3535 41.5694C23.4316 41.6077 23.4923 41.6595 23.5354 41.7248C23.5785 41.7906 23.5992 41.8651 23.5975 41.9483C23.597 42.0134 23.5834 42.0734 23.5565 42.1281C23.5296 42.1834 23.4933 42.2292 23.4477 42.2656C23.4015 42.3025 23.3503 42.3256 23.294 42.3348L23.2939 42.3438C23.3672 42.3639 23.4253 42.4061 23.4679 42.4704C23.5106 42.5352 23.531 42.6085 23.5293 42.6902C23.5286 42.7683 23.5078 42.838 23.4668 42.899C23.4258 42.9601 23.3699 43.0079 23.2992 43.0424C23.228 43.0769 23.1473 43.0935 23.0571 43.0922C22.9679 43.0909 22.8885 43.0719 22.8189 43.0352C22.7492 42.9986 22.6948 42.9492 22.6557 42.8869C22.616 42.8247 22.5965 42.7545 22.5971 42.6763C22.5988 42.5946 22.6222 42.522 22.6673 42.4585C22.7118 42.3955 22.7703 42.355 22.8428 42.3371L22.8429 42.328C22.7874 42.3172 22.7377 42.2926 22.6936 42.2544C22.6496 42.2166 22.6147 42.1697 22.589 42.1137C22.5632 42.0582 22.5506 41.9979 22.5511 41.9327C22.5528 41.8495 22.5764 41.7757 22.622 41.7112C22.6671 41.6472 22.7292 41.5972 22.8085 41.5613C22.8872 41.5259 22.9779 41.5089 23.0807 41.5105ZM23.0782 41.6759C23.0086 41.6748 22.9482 41.6852 22.8973 41.707C22.8463 41.7288 22.8068 41.76 22.7786 41.8007C22.7504 41.8414 22.7357 41.8893 22.7343 41.9444C22.734 42.0026 22.7483 42.0542 22.7772 42.0992C22.8061 42.1443 22.8459 42.18 22.8966 42.2063C22.9469 42.2326 23.0046 42.2462 23.0697 42.2472C23.1354 42.2482 23.1942 42.2363 23.2462 42.2115C23.2977 42.1867 23.3386 42.1522 23.3688 42.108C23.3985 42.0639 23.4136 42.0127 23.4139 41.9546C23.4153 41.8994 23.4027 41.8511 23.3762 41.8096C23.3493 41.7681 23.3104 41.7357 23.2596 41.7124C23.2089 41.6891 23.1484 41.6769 23.0782 41.6759ZM23.0673 42.4066C23.0122 42.4058 22.9632 42.4161 22.9203 42.4375C22.8768 42.4589 22.8425 42.4892 22.8174 42.5284C22.7922 42.5677 22.779 42.6138 22.7777 42.6669C22.7775 42.7191 22.7891 42.7646 22.8125 42.8036C22.836 42.843 22.8689 42.8736 22.9112 42.8953C22.9535 42.9174 23.0029 42.929 23.0596 42.9298C23.1172 42.9307 23.1677 42.9206 23.2111 42.8997C23.2545 42.8793 23.2883 42.8497 23.3125 42.811C23.3366 42.7728 23.3488 42.7276 23.3491 42.6754C23.3504 42.6223 23.3393 42.5758 23.3158 42.5358C23.2918 42.4959 23.2585 42.4646 23.2157 42.4419C23.1729 42.4192 23.1235 42.4074 23.0673 42.4066Z" fill="#FEFEFE"/>
<path d="M19.0773 41.1514C19.1615 41.1777 19.2321 41.2181 19.2891 41.2727C19.3461 41.3273 19.3858 41.3901 19.4083 41.4612C19.4307 41.5322 19.4321 41.6057 19.4127 41.6815L19.2404 41.6277C19.2545 41.5591 19.2416 41.4947 19.2016 41.4344C19.161 41.3744 19.1031 41.3327 19.028 41.3092C18.9677 41.2904 18.9097 41.2878 18.854 41.3013C18.7978 41.3148 18.7487 41.3419 18.7065 41.3828C18.6637 41.4241 18.6324 41.476 18.6129 41.5387C18.5928 41.6028 18.5891 41.6644 18.6016 41.7234C18.6135 41.7828 18.6393 41.8347 18.679 41.8792C18.7187 41.9236 18.7698 41.9558 18.8323 41.9759C18.8771 41.9904 18.9254 41.9979 18.9773 41.9984C19.029 41.9993 19.0736 41.9936 19.1111 41.9811L19.2713 42.0532L18.9563 42.7488L18.1927 42.5102L18.242 42.3523L18.8563 42.5443L19.0434 42.127L19.0348 42.1243C18.9972 42.1388 18.9532 42.1468 18.9028 42.1484C18.8524 42.15 18.8026 42.1431 18.7533 42.1277C18.6634 42.0996 18.59 42.053 18.5331 41.988C18.4756 41.9233 18.4384 41.8476 18.4214 41.7609C18.4039 41.674 18.41 41.583 18.4397 41.4878C18.469 41.394 18.5163 41.3168 18.5814 41.2563C18.6459 41.1961 18.7214 41.1562 18.8079 41.1365C18.8942 41.1172 18.9841 41.1222 19.0773 41.1514Z" fill="#FEFEFE"/>
<path d="M13.8747 40.5836L14.7146 39.2931L14.8708 39.3948L14.1376 40.5215L14.1451 40.5264L14.5964 40.5222L14.493 40.681L14.031 40.6853L13.8747 40.5836Z" fill="#FEFEFE"/>
<path d="M11.4376 36.6233C11.4959 36.6895 11.5352 36.7607 11.5556 36.8369C11.5759 36.9132 11.5772 36.9875 11.5595 37.0599C11.5417 37.1323 11.5048 37.1958 11.4488 37.2505L11.3295 37.115C11.3772 37.0637 11.3996 37.0019 11.3968 36.9296C11.3932 36.8573 11.3654 36.7916 11.3134 36.7326C11.2717 36.6852 11.2235 36.6528 11.1689 36.6355C11.1139 36.6177 11.0577 36.6154 11.0004 36.6285C10.9424 36.6414 10.8888 36.6696 10.8395 36.713C10.7891 36.7574 10.7539 36.8081 10.7339 36.865C10.7132 36.922 10.7083 36.9797 10.7192 37.0383C10.73 37.0969 10.7569 37.151 10.7999 37.2006C10.8307 37.2363 10.8681 37.2678 10.9121 37.2951C10.9558 37.3228 10.9969 37.341 11.0354 37.3498L11.1349 37.4947L10.5044 37.9254L9.97587 37.325L10.1 37.2157L10.5253 37.6988L10.9019 37.4394L10.8959 37.4326C10.8563 37.4254 10.8145 37.4095 10.7706 37.3846C10.7267 37.3598 10.6877 37.328 10.6536 37.2893C10.5914 37.2186 10.5528 37.1406 10.538 37.0555C10.5225 36.9704 10.53 36.8863 10.5605 36.8034C10.5906 36.7201 10.6431 36.6455 10.718 36.5796C10.7918 36.5147 10.8722 36.4733 10.9593 36.4554C11.0456 36.4374 11.1309 36.4425 11.2151 36.4706C11.2988 36.499 11.373 36.5499 11.4376 36.6233Z" fill="#FEFEFE"/>
<path d="M9.10073 33.2106C9.15232 33.2821 9.18455 33.3568 9.19742 33.4347C9.21029 33.5125 9.20438 33.5866 9.17969 33.6569C9.15501 33.7272 9.11212 33.7869 9.05104 33.8359L8.94552 33.6895C8.99793 33.6431 9.02622 33.5837 9.03039 33.5115C9.03385 33.4392 9.01258 33.3711 8.96656 33.3073C8.92962 33.2561 8.8848 33.2192 8.83208 33.1966C8.77908 33.1737 8.72343 33.1659 8.66513 33.1733C8.60614 33.1806 8.55001 33.2035 8.49675 33.2419C8.44227 33.2812 8.40233 33.3282 8.37693 33.383C8.35084 33.4376 8.34034 33.4946 8.34544 33.554C8.35053 33.6133 8.37208 33.6698 8.41007 33.7233C8.43722 33.7618 8.4714 33.7968 8.51262 33.8283C8.55343 33.86 8.59257 33.8822 8.63003 33.8947L8.71496 34.0485L8.04569 34.4161L7.57786 33.7672L7.71203 33.6705L8.08841 34.1925L8.48843 33.9708L8.48315 33.9635C8.44435 33.9526 8.40432 33.9326 8.36306 33.9037C8.32179 33.8747 8.28607 33.8393 8.25587 33.7974C8.20077 33.721 8.16996 33.6397 8.16347 33.5535C8.15627 33.4673 8.17187 33.3844 8.21027 33.3048C8.24837 33.2248 8.30788 33.1556 8.38879 33.0973C8.46848 33.0398 8.55253 33.0064 8.64093 32.9971C8.72864 32.9876 8.81301 33.0009 8.89405 33.037C8.97468 33.0734 9.04357 33.1313 9.10073 33.2106Z" fill="#FEFEFE"/>
<path d="M7.41472 29.4491C7.45647 29.5392 7.47823 29.6266 7.48 29.7114C7.48155 29.7958 7.46441 29.8714 7.42858 29.9383C7.39209 30.005 7.33808 30.0571 7.26656 30.0947L7.18685 29.9228C7.23018 29.8983 7.26188 29.8648 7.28197 29.8223C7.3016 29.7801 7.31006 29.7328 7.30734 29.6804C7.30461 29.6281 7.29081 29.5751 7.26593 29.5214C7.23809 29.4614 7.20296 29.4131 7.16053 29.3764C7.11811 29.3397 7.07214 29.3168 7.02262 29.3078C6.9731 29.2987 6.92379 29.3055 6.87468 29.3283C6.8233 29.3521 6.78396 29.3858 6.75666 29.4294C6.72891 29.4732 6.71528 29.5249 6.71578 29.5843C6.71627 29.6438 6.73297 29.7089 6.76587 29.7799L6.81774 29.8917L6.66769 29.9613L6.61581 29.8495C6.59008 29.794 6.55752 29.75 6.51811 29.7174C6.47849 29.6844 6.43501 29.6645 6.38767 29.6577C6.34011 29.6505 6.29178 29.6583 6.24267 29.6811C6.19538 29.703 6.15908 29.7325 6.13377 29.7697C6.10846 29.8068 6.09488 29.8491 6.09304 29.8963C6.09099 29.9431 6.10188 29.9922 6.12571 30.0436C6.14807 30.0918 6.17802 30.1332 6.21558 30.1677C6.25247 30.202 6.29373 30.2248 6.33937 30.2362C6.38455 30.2479 6.43085 30.2441 6.47829 30.2249L6.5542 30.3886C6.47973 30.4198 6.40539 30.4275 6.33118 30.4116C6.25652 30.3959 6.18822 30.3619 6.1263 30.3094C6.06417 30.2564 6.01445 30.1897 5.97712 30.1092C5.93705 30.0228 5.92019 29.9406 5.92652 29.8625C5.9324 29.7846 5.95606 29.7159 5.99751 29.6564C6.03895 29.5968 6.09264 29.5517 6.15857 29.5212C6.23724 29.4847 6.3139 29.4743 6.38857 29.4899C6.46302 29.5051 6.52728 29.543 6.58133 29.6036L6.59225 29.5985C6.56589 29.5035 6.57145 29.4173 6.60894 29.3397C6.64598 29.2623 6.70883 29.203 6.7975 29.1619C6.87344 29.1267 6.95124 29.1157 7.0309 29.129C7.10991 29.1421 7.18313 29.1761 7.25059 29.231C7.31804 29.2859 7.37275 29.3586 7.41472 29.4491Z" fill="#FEFEFE"/>
<path d="M6.85126 25.2662C6.86613 25.3683 6.86117 25.4612 6.83637 25.5449C6.81101 25.6281 6.76951 25.6962 6.71188 25.7491C6.65376 25.8022 6.58349 25.8344 6.50108 25.8459C6.43667 25.8558 6.37531 25.8518 6.317 25.834C6.25819 25.8162 6.20718 25.7877 6.16397 25.7484C6.1202 25.7087 6.08931 25.6617 6.07131 25.6076L6.06238 25.6089C6.05415 25.6846 6.02167 25.7486 5.96496 25.8009C5.90776 25.8533 5.8387 25.8851 5.75778 25.8964C5.68047 25.9082 5.60843 25.8987 5.54164 25.8679C5.47486 25.8371 5.4188 25.7895 5.37348 25.7252C5.32808 25.6604 5.29888 25.5833 5.28588 25.4941C5.27303 25.4058 5.27915 25.3243 5.30426 25.2498C5.32937 25.1752 5.36954 25.1136 5.42477 25.0651C5.47993 25.016 5.54616 24.9856 5.62346 24.9739C5.70438 24.9626 5.77976 24.9741 5.8496 25.0086C5.91888 25.0425 5.96814 25.0939 5.99739 25.1625L6.00631 25.1612C6.00822 25.1047 6.02456 25.0517 6.05533 25.0022C6.08561 24.9527 6.12636 24.9108 6.17759 24.8765C6.22832 24.8422 6.28589 24.8202 6.3503 24.8103C6.43271 24.7988 6.50937 24.8104 6.58027 24.8452C6.65061 24.8795 6.7098 24.933 6.75784 25.0055C6.80532 25.0776 6.83645 25.1645 6.85126 25.2662ZM6.68758 25.29C6.67754 25.221 6.65771 25.1631 6.6281 25.1163C6.59849 25.0695 6.56136 25.0354 6.51672 25.014C6.47207 24.9926 6.42243 24.9857 6.3678 24.9931C6.31034 25.002 6.26166 25.0243 6.22178 25.06C6.1819 25.0957 6.15299 25.1406 6.13506 25.1949C6.11706 25.2487 6.11275 25.3078 6.12214 25.3723C6.1316 25.4373 6.1527 25.4935 6.18543 25.5409C6.21809 25.5878 6.25862 25.6227 6.30703 25.6455C6.35536 25.6678 6.40826 25.6746 6.46572 25.6657C6.52035 25.6583 6.56606 25.6382 6.60283 25.6055C6.63953 25.5723 6.66536 25.5288 6.68031 25.4749C6.69527 25.4211 6.69769 25.3594 6.68758 25.29ZM5.96441 25.3953C5.95647 25.3407 5.93851 25.2939 5.91055 25.255C5.88252 25.2155 5.84714 25.1864 5.80442 25.1678C5.76169 25.1492 5.71401 25.1435 5.66136 25.1507C5.60985 25.1587 5.56673 25.1774 5.532 25.2067C5.49678 25.2362 5.47183 25.2735 5.45713 25.3187C5.44194 25.364 5.43843 25.4146 5.44659 25.4707C5.45489 25.5277 5.47281 25.576 5.50035 25.6156C5.52739 25.6552 5.56196 25.6838 5.60404 25.7015C5.64562 25.7193 5.69217 25.7241 5.74368 25.7161C5.79633 25.709 5.84051 25.6906 5.87623 25.6611C5.91188 25.6311 5.93751 25.5932 5.95312 25.5474C5.96874 25.5015 5.9725 25.4508 5.96441 25.3953Z" fill="#FEFEFE"/>
<path d="M7.43201 21.4218L7.29806 21.4026L6.8197 20.8203C6.76369 20.752 6.71462 20.6953 6.67249 20.6503C6.62986 20.6051 6.58878 20.5704 6.54924 20.5459C6.50929 20.521 6.46599 20.5051 6.41936 20.4984C6.36578 20.4907 6.31753 20.4969 6.27463 20.5171C6.2318 20.5368 6.19654 20.5671 6.16886 20.6082C6.14117 20.6493 6.12337 20.6974 6.11545 20.7525C6.10703 20.811 6.11184 20.8638 6.12987 20.911C6.14748 20.9576 6.17615 20.9959 6.21589 21.0259C6.2557 21.0554 6.30463 21.0744 6.36268 21.0827L6.33742 21.2583C6.24812 21.2455 6.17269 21.2136 6.11114 21.1628C6.04959 21.1119 6.00506 21.0483 5.97756 20.9719C5.95013 20.895 5.94279 20.8122 5.95556 20.7234C5.96841 20.6341 5.99864 20.5577 6.04626 20.4941C6.09388 20.4306 6.15251 20.3838 6.22215 20.3538C6.29178 20.3238 6.3658 20.3145 6.44418 20.3257C6.50025 20.3338 6.55361 20.3519 6.60426 20.3799C6.65449 20.4074 6.70879 20.4506 6.76714 20.5097C6.82507 20.5681 6.89464 20.6478 6.97585 20.7486L7.29277 21.1435L7.30467 21.1453L7.40655 20.4368L7.57027 20.4603L7.43201 21.4218Z" fill="#FEFEFE"/>
<path d="M9.26776 17.0702C9.23086 17.1503 9.18169 17.2151 9.12026 17.2646C9.05883 17.3142 8.99143 17.3455 8.91807 17.3586C8.84471 17.3717 8.77167 17.3637 8.69897 17.3347L8.77445 17.1708C8.84067 17.1936 8.90623 17.189 8.97114 17.1571C9.03581 17.1245 9.0846 17.0725 9.11752 17.001C9.14393 16.9436 9.15398 16.8864 9.14767 16.8295C9.14156 16.772 9.12093 16.7198 9.08578 16.6727C9.05038 16.6249 9.00286 16.5873 8.94322 16.5598C8.88222 16.5317 8.82163 16.5201 8.76145 16.525C8.70103 16.5291 8.64625 16.5481 8.59709 16.5817C8.54793 16.6154 8.50939 16.6619 8.48147 16.7213C8.46131 16.7639 8.44768 16.8109 8.44058 16.8623C8.43303 16.9134 8.43302 16.9584 8.44054 16.9972L8.34846 17.1468L7.69908 16.7451L8.03369 16.0185L8.18393 16.0877L7.91473 16.6722L8.30457 16.9114L8.30834 16.9032C8.29879 16.864 8.29646 16.8193 8.30135 16.7692C8.30624 16.719 8.31949 16.6705 8.34108 16.6236C8.3805 16.538 8.4361 16.4712 8.5079 16.4231C8.57944 16.3744 8.65931 16.3471 8.74749 16.3414C8.83587 16.3352 8.92537 16.353 9.01597 16.3947C9.1052 16.4358 9.17565 16.4925 9.22731 16.5648C9.27873 16.6365 9.30866 16.7165 9.3171 16.8048C9.32509 16.893 9.30864 16.9814 9.26776 17.0702Z" fill="#FEFEFE"/>
<path d="M11.1212 13.8906L11.0059 13.7895L10.6468 12.5749L10.7202 12.4912L10.8989 12.6478L10.8493 12.7044L11.1206 13.6221L11.1296 13.63L11.7303 12.9448L11.8547 13.0538L11.1212 13.8906ZM11.8364 13.5537L11.5639 13.3148L11.5102 13.2677L10.6786 12.5387L10.7955 12.4053L11.9534 13.4203L11.8364 13.5537Z" fill="#FEFEFE"/>
<path d="M14.6932 11.4529L14.6211 11.3384L14.7545 10.5967C14.7702 10.5098 14.7816 10.4357 14.7886 10.3744C14.7953 10.3127 14.7952 10.2589 14.7882 10.2129C14.7813 10.1663 14.7653 10.1231 14.7402 10.0832C14.7113 10.0374 14.6753 10.0047 14.6322 9.9851C14.5894 9.96522 14.5434 9.95806 14.4942 9.9636C14.445 9.96915 14.3968 9.98675 14.3497 10.0164C14.2997 10.0479 14.2626 10.0858 14.2383 10.1301C14.2143 10.1737 14.2037 10.2204 14.2066 10.2701C14.2099 10.3196 14.2272 10.3691 14.2584 10.4187L14.1083 10.5133C14.0602 10.437 14.0356 10.3589 14.0345 10.279C14.0333 10.1992 14.0529 10.124 14.0933 10.0536C14.134 9.98289 14.1924 9.92363 14.2683 9.8758C14.3446 9.82771 14.4224 9.8012 14.5016 9.79629C14.5809 9.79138 14.6545 9.80573 14.7225 9.83932C14.7904 9.87292 14.8455 9.92322 14.8878 9.99022C14.918 10.0381 14.9388 10.0905 14.9503 10.1472C14.9619 10.2033 14.9641 10.2727 14.957 10.3554C14.95 10.4374 14.9344 10.542 14.9103 10.6692L14.8149 11.1665L14.8213 11.1767L15.4269 10.7951L15.515 10.9351L14.6932 11.4529Z" fill="#FEFEFE"/>
<path d="M17.7828 8.08838C17.8437 8.0719 17.9078 8.06652 17.9749 8.07225C18.0421 8.07798 18.1081 8.10015 18.173 8.13878C18.2378 8.17692 18.2979 8.23689 18.3535 8.31869C18.4091 8.4005 18.4559 8.50947 18.4939 8.64563C18.5306 8.77743 18.5507 8.89801 18.5542 9.00737C18.558 9.11611 18.5462 9.21201 18.5189 9.29508C18.4921 9.37801 18.4504 9.44687 18.3939 9.50166C18.3378 9.55632 18.268 9.59529 18.1845 9.61859C18.1015 9.64174 18.0228 9.646 17.9484 9.63134C17.8744 9.61607 17.8085 9.58477 17.7505 9.53745C17.6929 9.48951 17.6474 9.42804 17.614 9.35306L17.7907 9.30378C17.8257 9.36742 17.873 9.41484 17.9327 9.44607C17.9927 9.47667 18.0619 9.48107 18.1401 9.45926C18.2545 9.42735 18.3308 9.3522 18.3691 9.23382C18.4079 9.11529 18.4018 8.96478 18.3509 8.78228L18.3393 8.78551C18.3236 8.83361 18.3013 8.87757 18.2723 8.91738C18.2433 8.9572 18.2084 8.99141 18.1674 9.01999C18.1265 9.04858 18.0804 9.07001 18.0293 9.08429C17.9443 9.10798 17.8604 9.10872 17.7778 9.08651C17.6954 9.06368 17.6227 9.02126 17.5596 8.95924C17.4969 8.8966 17.4522 8.81748 17.4255 8.72188C17.4002 8.63112 17.3973 8.54242 17.4169 8.45579C17.4368 8.36854 17.4774 8.29217 17.5388 8.22667C17.6006 8.16104 17.6819 8.11494 17.7828 8.08838ZM17.8272 8.24771C17.7663 8.26467 17.7158 8.29516 17.6755 8.33918C17.6356 8.38258 17.6085 8.43384 17.5943 8.49296C17.5804 8.55146 17.5821 8.61161 17.5993 8.67341C17.6166 8.73521 17.6458 8.78769 17.687 8.83084C17.7285 8.87338 17.7771 8.90302 17.8327 8.91976C17.8887 8.93588 17.9472 8.93546 18.008 8.9185C18.0539 8.90571 18.0941 8.88486 18.1287 8.85595C18.1632 8.82657 18.1908 8.79208 18.2115 8.75248C18.2325 8.71227 18.2459 8.66977 18.2516 8.62498C18.2572 8.57971 18.2539 8.53511 18.2416 8.49118C18.2255 8.43324 18.1963 8.38283 18.1542 8.33994C18.1125 8.29692 18.0629 8.26652 18.0054 8.24874C17.9484 8.23082 17.889 8.23048 17.8272 8.24771Z" fill="#FEFEFE"/>
<path d="M17.9518 15.1842C18.2586 15.2042 18.505 15.3023 18.7275 15.5158C18.9295 15.753 19.0557 16.0048 19.0663 16.3193C19.0457 16.4941 19.0215 16.6729 18.9319 16.8265C19.178 17.0358 19.4475 17.201 19.7228 17.3682C19.8347 17.4362 19.9464 17.5046 20.0581 17.573C20.1147 17.6076 20.1714 17.6423 20.228 17.6769C20.472 17.8261 20.7147 17.9773 20.9569 18.1295C21.033 18.1773 21.1092 18.2251 21.1853 18.2729C21.2229 18.2965 21.2605 18.3202 21.2993 18.3445C21.5067 18.4745 21.7144 18.6039 21.9222 18.7333C21.9859 18.7729 21.9859 18.7729 22.0508 18.8134C22.1368 18.867 22.2228 18.9205 22.3088 18.9741C22.4797 19.0805 22.6505 19.1869 22.8213 19.2934C22.9058 19.346 22.9903 19.3987 23.0748 19.4513C23.2731 19.5749 23.4714 19.6985 23.6696 19.8223C23.7625 19.8804 23.8555 19.9384 23.9484 19.9964C24.0135 20.037 24.0785 20.0777 24.1435 20.1184C24.2559 20.1885 24.3686 20.2583 24.4813 20.3278C24.5111 20.3465 24.5409 20.3653 24.5715 20.3845C24.7616 20.501 24.8811 20.5338 25.0964 20.4849C25.3151 20.4142 25.4323 20.2966 25.5435 20.0996C25.5902 19.9683 25.6198 19.8352 25.6485 19.699C25.6655 19.6242 25.6824 19.5495 25.6995 19.4748C25.7074 19.439 25.7154 19.4032 25.7236 19.3664C25.7506 19.2472 25.7815 19.1294 25.8137 19.0116C25.8709 18.7994 25.9236 18.5863 25.9757 18.3728C26.0377 18.1185 26.1022 17.8652 26.1703 17.6124C26.2158 17.4383 26.2585 17.2635 26.3011 17.0886C26.4028 16.6725 26.5096 16.2584 26.6316 15.8477C26.6041 15.8292 26.5766 15.8106 26.5483 15.7915C26.3603 15.6257 26.224 15.4415 26.1867 15.1892C26.1741 14.9805 26.2329 14.8051 26.3506 14.6337C26.5259 14.4892 26.6971 14.3676 26.924 14.3347C27.2268 14.3901 27.4286 14.4601 27.623 14.7048C27.7384 14.9196 27.7889 15.0972 27.7247 15.3372C27.6546 15.5375 27.565 15.6558 27.4011 15.7894C27.3765 15.8095 27.3518 15.8297 27.3264 15.8504C27.3076 15.8657 27.2887 15.881 27.2693 15.8968C27.2925 15.946 27.2925 15.946 27.3162 15.9962C27.6921 16.7929 28.0678 17.5898 28.4434 18.3867C28.625 18.772 28.8067 19.1574 28.9884 19.5427C29.1468 19.8784 29.3051 20.2142 29.4633 20.55C29.5472 20.7279 29.631 20.9058 29.715 21.0836C29.7939 21.2508 29.8728 21.4181 29.9515 21.5854C29.9805 21.647 30.0095 21.7085 30.0386 21.77C30.0782 21.8537 30.1176 21.9375 30.1569 22.0212C30.1744 22.0581 30.1744 22.0581 30.1923 22.0957C30.271 22.2639 30.271 22.2639 30.2822 22.3604C30.2032 22.4628 30.1029 22.5353 29.9999 22.6123C29.9466 22.6523 29.9466 22.6523 29.8923 22.6931C29.8535 22.722 29.8146 22.7509 29.7747 22.7807C29.734 22.8111 29.6933 22.8415 29.6515 22.8728C29.1374 23.2567 28.6211 23.6377 28.1036 24.017C28.0651 24.0453 28.0266 24.0736 27.9869 24.1027C25.7348 25.7505 23.369 27.2908 20.9543 28.6894C20.9313 28.7027 20.9084 28.716 20.8847 28.7297C20.3094 29.0629 19.7327 29.3936 19.1543 29.7214C19.1124 29.7453 19.0705 29.7691 19.0273 29.7937C18.9887 29.8155 18.95 29.8373 18.9102 29.8598C18.8766 29.8788 18.8431 29.8978 18.8085 29.9174C18.7174 29.9653 18.626 30.0045 18.5298 30.041C18.2844 29.8118 18.0669 29.5595 17.8473 29.306C17.8048 29.2571 17.7623 29.2082 17.7197 29.1592C17.6048 29.0271 17.49 28.8948 17.3752 28.7624C17.2792 28.6518 17.1832 28.5412 17.0872 28.4307C16.8606 28.1699 16.6342 27.909 16.4079 27.6481C16.1746 27.379 15.9411 27.1102 15.7075 26.8413C15.5066 26.6102 15.3059 26.379 15.1052 26.1478C14.9855 26.0098 14.8657 25.8718 14.7459 25.7339C14.6333 25.6044 14.5208 25.4747 14.4084 25.345C14.3671 25.2974 14.3259 25.2499 14.2846 25.2024C14.2281 25.1375 14.1718 25.0725 14.1156 25.0075C14.0841 24.9712 14.0525 24.9349 14.0201 24.8975C13.9421 24.8019 13.8745 24.7047 13.8093 24.6002C13.7768 24.6255 13.7768 24.6255 13.7437 24.6513C13.5547 24.788 13.4098 24.8713 13.1728 24.8576C12.9626 24.822 12.8138 24.7632 12.6718 24.5995C12.5459 24.4188 12.4495 24.2623 12.4624 24.0362C12.5192 23.765 12.5896 23.6204 12.8239 23.4622C13.0155 23.3406 13.1511 23.2789 13.3803 23.3269C13.6279 23.3928 13.733 23.4753 13.8744 23.6928C13.9108 23.7483 13.9108 23.7483 13.9479 23.8048C14.0103 23.9098 14.0103 23.9098 14.0314 23.9957C14.059 24.073 14.059 24.073 14.16 24.0967C14.2212 24.1075 14.2212 24.1075 14.2836 24.1184C14.3234 24.1259 14.3633 24.1333 14.4044 24.1409C14.5173 24.1585 14.6303 24.1748 14.7435 24.1904C14.9615 24.2207 15.1776 24.2588 15.394 24.2983C15.7064 24.3546 16.0188 24.4087 16.3321 24.4596C16.4922 24.4857 16.6522 24.5122 16.8122 24.5391C16.8541 24.5461 16.8541 24.5461 16.8968 24.5532C17.0519 24.5793 17.2067 24.6062 17.3614 24.634C18.1153 24.82 18.1153 24.82 18.8199 24.6432C18.9613 24.5286 19.0079 24.4044 19.0378 24.2288C19.0554 24.0563 19.0352 23.8976 19.0078 23.7272C19.0005 23.6791 19.0005 23.6791 18.9931 23.63C18.9772 23.5248 18.9607 23.4198 18.9442 23.3147C18.9328 23.2404 18.9215 23.1662 18.9103 23.0919C18.887 22.9387 18.8635 22.7856 18.8398 22.6325C18.8073 22.4219 18.7757 22.2112 18.7444 22.0004C18.7396 21.968 18.7348 21.9356 18.7299 21.9022C18.7203 21.8373 18.7107 21.7725 18.701 21.7076C18.6396 21.2937 18.5774 20.88 18.5147 20.4663C18.5101 20.4359 18.5055 20.4056 18.5008 20.3743C18.4778 20.2226 18.4547 20.0709 18.4317 19.9192C18.3801 19.5798 18.3299 19.2402 18.2808 18.9004C18.2698 18.8242 18.2588 18.7481 18.2477 18.6719C18.2265 18.5255 18.2055 18.3791 18.1847 18.2327C18.1751 18.1657 18.1654 18.0988 18.1557 18.0319C18.1494 17.9867 18.1494 17.9867 18.1429 17.9406C18.1166 17.7611 18.0758 17.5958 18.0178 17.4239C17.9709 17.4257 17.9241 17.4275 17.8758 17.4293C17.6151 17.4198 17.3787 17.295 17.1767 17.135C16.9748 16.877 16.8351 16.6302 16.8166 16.2988C16.8349 16.1529 16.8349 16.1529 16.8732 16.0289C16.8881 15.9701 16.8881 15.9701 16.9033 15.9102C17.0787 15.4747 17.484 15.2036 17.9518 15.1842ZM21.7062 23.3528C21.6407 23.976 21.9751 24.5577 22.3398 25.0352C22.5803 25.3119 22.86 25.5041 23.1996 25.638C23.239 25.6555 23.2783 25.673 23.3188 25.6911C23.5669 25.7431 23.794 25.7284 24.0146 25.5974C24.236 25.4329 24.335 25.2448 24.3827 24.9754C24.4499 24.3123 24.1656 23.729 23.7626 23.2202C23.4296 22.8424 23.0256 22.5737 22.5203 22.5192C22.0037 22.5011 21.7895 22.9047 21.7062 23.3528ZM18.4414 26.6978C18.4251 27.0179 18.5354 27.2422 18.7262 27.49C18.995 27.7742 19.3744 28.0671 19.7778 28.0883C20.0506 28.0928 20.2232 28.0846 20.4422 27.9059C20.5601 27.7277 20.5778 27.552 20.5515 27.3424C20.371 26.8688 20.0131 26.562 19.5584 26.3557C19.3037 26.2654 19.0442 26.2196 18.7804 26.2898C18.5812 26.391 18.5028 26.4824 18.4414 26.6978ZM26.511 21.6336C26.4674 22.0889 26.5716 22.6036 26.8585 22.9672C27.0388 23.1383 27.2152 23.2639 27.4708 23.2804C27.6664 23.2237 27.8088 23.12 27.92 22.9519C28.115 22.5788 28.0842 22.1474 27.9799 21.7526C27.8811 21.4734 27.713 21.1664 27.4538 21.0088C27.3804 20.9739 27.3804 20.9739 27.3096 20.9486C27.2743 20.9342 27.239 20.9199 27.2025 20.9051C26.7897 20.8987 26.5806 21.2685 26.511 21.6336Z" fill="#E30808"/>
<path d="M19.3005 31.5554C19.3287 31.5392 19.3568 31.523 19.3858 31.5064C19.717 31.3173 20.0525 31.1361 20.3878 30.9545C20.97 30.6387 21.5497 30.3193 22.1216 29.9852C22.1457 29.9711 22.1699 29.9571 22.1948 29.9425C22.3448 29.855 22.4941 29.7664 22.6432 29.6772C22.7063 29.6395 22.7695 29.6018 22.8328 29.5643C23.6423 29.0829 24.4307 28.57 25.2187 28.0544C25.2694 28.0212 25.2694 28.0212 25.3211 27.9873C27.3015 26.6922 29.2377 25.3312 31.0937 23.8618C31.6198 23.4473 31.6198 23.4473 31.9187 23.434C32.1223 23.4676 32.2904 23.5161 32.4173 23.688C32.4382 23.7195 32.4591 23.751 32.4807 23.7835C32.5045 23.8193 32.5283 23.855 32.5529 23.8919C32.5912 23.95 32.5912 23.95 32.6303 24.0094C32.6566 24.0492 32.6829 24.0891 32.71 24.1301C32.7656 24.2146 32.8212 24.2991 32.8766 24.3837C32.9615 24.5129 33.0471 24.6416 33.1327 24.7703C33.1866 24.8524 33.2405 24.9345 33.2944 25.0167C33.3201 25.0551 33.3457 25.0935 33.3722 25.1331C33.5176 25.3569 33.6001 25.5158 33.5782 25.7887C33.5101 26.0566 33.355 26.1927 33.1479 26.3665C33.1188 26.3919 33.0897 26.4174 33.0597 26.4437C32.6814 26.7717 32.2908 27.0858 31.904 27.4036C31.9337 27.3844 31.9634 27.3651 31.994 27.3453C32.2739 27.1641 32.5542 26.9836 32.835 26.8038C32.9793 26.7113 33.1235 26.6185 33.2673 26.5253C33.4061 26.4353 33.5452 26.3459 33.6847 26.257C33.7379 26.223 33.7909 26.1887 33.8438 26.1542C33.9178 26.1059 33.9923 26.0585 34.0669 26.0112C34.1092 25.984 34.1515 25.9568 34.1951 25.9287C34.3084 25.8788 34.3084 25.8788 34.4121 25.8982C34.4917 25.9454 34.4917 25.9454 34.5416 26.0351C34.5657 26.13 34.5657 26.13 34.5431 26.2379C34.4497 26.3108 34.4497 26.3108 34.3196 26.396C34.2957 26.4118 34.2718 26.4276 34.2472 26.4438C34.1662 26.4972 34.085 26.55 34.0038 26.6029C33.9454 26.6412 33.8871 26.6795 33.8288 26.7179C33.6678 26.8236 33.5066 26.929 33.3454 27.0343C33.1718 27.1477 32.9984 27.2615 32.825 27.3753C32.485 27.5982 32.1448 27.8208 31.8044 28.0433C31.528 28.2241 31.2515 28.4049 30.9752 28.5858C30.1924 29.0982 29.4094 29.6103 28.6262 30.1221C28.584 30.1497 28.5417 30.1773 28.4982 30.2058C28.4559 30.2334 28.4136 30.2611 28.37 30.2895C27.6839 30.7379 26.9983 31.1868 26.3129 31.6361C25.6099 32.0968 24.9066 32.5571 24.203 33.0169C23.8076 33.2752 23.4124 33.5338 23.0175 33.7928C22.6814 34.0134 22.3449 34.2335 22.0081 34.453C21.8361 34.5651 21.6642 34.6774 21.4928 34.7902C21.336 34.8934 21.1788 34.996 21.0213 35.0982C20.9642 35.1353 20.9072 35.1727 20.8505 35.2103C20.7736 35.2612 20.6962 35.3113 20.6187 35.3612C20.5758 35.3893 20.5328 35.4174 20.4885 35.4463C20.3749 35.4973 20.375 35.4973 20.2712 35.4781C20.1664 35.4157 20.1473 35.3628 20.1176 35.2462C20.1503 35.0904 20.2315 35.0656 20.3626 34.978C20.386 34.9623 20.4094 34.9466 20.4334 34.9303C20.5108 34.8783 20.5885 34.8267 20.6663 34.7752C20.7199 34.7392 20.7736 34.7032 20.8272 34.6672C20.9686 34.5725 21.1101 34.4781 21.2518 34.3838C21.3962 34.2875 21.5404 34.1909 21.6847 34.0943C21.9678 33.9048 22.2512 33.7156 22.5347 33.5268C22.5028 33.543 22.5028 33.543 22.4702 33.5596C22.2477 33.6726 22.0248 33.7848 21.8017 33.8966C21.7186 33.9384 21.6355 33.9804 21.5526 34.0225C21.4331 34.0833 21.3133 34.1433 21.1933 34.2032C21.1382 34.2315 21.1382 34.2315 21.0821 34.2603C20.8129 34.3936 20.563 34.485 20.2653 34.3984C20.0917 34.3311 20.0413 34.2832 19.9392 34.1302C19.9144 34.0932 19.8896 34.0563 19.8641 34.0181C19.8374 33.9778 19.8107 33.9375 19.7832 33.896C19.7559 33.8547 19.7285 33.8134 19.7003 33.7708C19.6424 33.6832 19.5846 33.5955 19.5268 33.5078C19.4531 33.3957 19.3785 33.2841 19.3038 33.1726C19.2326 33.0658 19.1622 32.9585 19.0917 32.8513C19.0649 32.8114 19.038 32.7716 19.0104 32.7306C18.8452 32.4765 18.7878 32.3416 18.8424 32.0429C18.9288 31.7729 19.0604 31.6917 19.3005 31.5554ZM21.3606 31.3005C21.3476 31.3646 21.3476 31.3646 21.3344 31.43C21.3249 31.4761 21.3154 31.5223 21.3056 31.5698C21.2959 31.6184 21.2862 31.6669 21.2762 31.717C21.2663 31.7657 21.2563 31.8144 21.2461 31.8646C21.2214 31.9854 21.197 32.1062 21.1729 32.2271C21.2953 32.3086 21.4071 32.3391 21.5507 32.3681C21.5941 32.377 21.6375 32.3859 21.6821 32.3951C21.7272 32.4041 21.7723 32.4131 21.8187 32.4223C21.8872 32.4363 21.8872 32.4363 21.9571 32.4505C22.0697 32.4735 22.1824 32.4962 22.2951 32.5186C22.3701 32.2722 22.43 32.0264 22.4811 31.774C22.4882 31.7395 22.4953 31.705 22.5026 31.6695C22.5199 31.5855 22.537 31.5016 22.554 31.4177C22.3089 31.3435 22.064 31.2817 21.8134 31.229C21.7795 31.2216 21.7455 31.2141 21.7106 31.2064C21.6621 31.1962 21.6621 31.1962 21.6126 31.1858C21.5835 31.1795 21.5544 31.1733 21.5244 31.1669C21.4049 31.1533 21.3915 31.1879 21.3606 31.3005ZM30.1449 25.5639C30.131 25.6316 30.131 25.6316 30.1167 25.7006C30.1066 25.7493 30.0965 25.7979 30.0861 25.848C30.0755 25.8999 30.0649 25.9517 30.0543 26.0035C30.0435 26.0554 30.0328 26.1073 30.022 26.1593C29.9956 26.2868 29.9694 26.4144 29.9432 26.542C30.1804 26.6149 30.4177 26.6732 30.6609 26.7223C30.7087 26.7321 30.7087 26.7321 30.7576 26.7422C30.8351 26.7581 30.9126 26.7738 30.9902 26.7895C31.0689 26.6702 31.1006 26.5631 31.1287 26.4235C31.1371 26.3825 31.1455 26.3416 31.1542 26.2995C31.1668 26.2357 31.1668 26.2357 31.1797 26.1707C31.1885 26.1276 31.1973 26.0845 31.2063 26.0401C31.2279 25.9338 31.2492 25.8276 31.2704 25.7212C31.1514 25.643 31.0444 25.6106 30.9054 25.5819C30.8443 25.5692 30.8443 25.5692 30.7819 25.5562C30.7395 25.5477 30.6972 25.5391 30.6535 25.5304C30.5893 25.5169 30.5893 25.5169 30.5238 25.5032C30.2743 25.4149 30.2743 25.4149 30.1449 25.5639ZM25.9261 28.7404C25.917 28.7854 25.9078 28.8304 25.8984 28.8767C25.8884 28.9253 25.8784 28.9739 25.8681 29.0239C25.8578 29.0756 25.8474 29.1272 25.8371 29.1789C25.8265 29.2307 25.8159 29.2825 25.8053 29.3343C25.7793 29.4615 25.7536 29.5887 25.7281 29.716C25.9745 29.791 26.2203 29.8509 26.4727 29.902C26.5072 29.9091 26.5417 29.9162 26.5772 29.9235C26.6611 29.9407 26.7451 29.9579 26.829 29.9749C26.904 29.7284 26.9639 29.4826 27.015 29.2302C27.0221 29.1957 27.0292 29.1612 27.0365 29.1257C27.0537 29.0418 27.0709 28.9579 27.0879 28.8739C26.9694 28.7961 26.8624 28.7631 26.7241 28.7339C26.6835 28.7253 26.6428 28.7167 26.601 28.7079C26.5588 28.6992 26.5166 28.6906 26.4731 28.6817C26.4305 28.6726 26.388 28.6635 26.3442 28.654C26.3036 28.6456 26.2631 28.6372 26.2214 28.6285C26.1842 28.6208 26.1471 28.6131 26.1088 28.6051C25.9751 28.588 25.9611 28.6112 25.9261 28.7404Z" fill="#DE7E29"/>
<path d="M18.75 30.3125C18.7743 30.2988 18.7985 30.285 18.8235 30.2709C19.0617 30.1361 19.2998 30.001 19.5377 29.8658C19.6598 29.7964 19.7819 29.7271 19.9041 29.658C21.4844 28.7639 23.0245 27.8144 24.5426 26.8184C24.6953 26.7182 24.8482 26.6184 25.0013 26.5188C26.5557 25.5068 28.0767 24.455 29.5569 23.3372C29.6442 23.2715 29.7315 23.206 29.8188 23.1404C30.0251 22.9854 30.2312 22.8301 30.4371 22.6746C30.4765 22.7459 30.5158 22.8172 30.555 22.8885C30.5769 22.9282 30.5988 22.9679 30.6214 23.0088C30.6873 23.1304 30.7471 23.2522 30.8039 23.3783C30.8215 23.417 30.8391 23.4557 30.8572 23.4956C30.8939 23.5874 30.8939 23.5874 30.8826 23.6414C30.8353 23.6816 30.7864 23.72 30.7369 23.7575C30.6891 23.7938 30.6891 23.7938 30.6404 23.831C30.6052 23.8575 30.57 23.884 30.5338 23.9113C30.4974 23.939 30.4609 23.9666 30.4234 23.9951C30.3034 24.086 30.1831 24.1767 30.0629 24.2673C30.0219 24.2982 29.981 24.3291 29.9388 24.361C29.4118 24.759 28.8826 25.1539 28.3469 25.5402C28.3221 25.5581 28.2972 25.576 28.2716 25.5945C28.1174 25.7057 27.9625 25.816 27.8072 25.9257C27.7405 25.9729 27.6738 26.0202 27.6071 26.0675C26.8029 26.6376 25.9811 27.1802 25.1556 27.719C25.1215 27.7412 25.0874 27.7635 25.0523 27.7864C23.4267 28.8481 21.773 29.8455 20.0776 30.7914C20.0398 30.8125 20.0021 30.8337 19.9632 30.8554C19.7971 30.9477 19.633 31.037 19.4566 31.1086C19.3848 31.0332 19.3132 30.9578 19.2417 30.8822C19.2218 30.8613 19.2019 30.8405 19.1814 30.819C19.0708 30.7019 18.9658 30.5823 18.8652 30.4565C18.8435 30.4294 18.8218 30.4023 18.7994 30.3744C18.7831 30.354 18.7668 30.3336 18.75 30.3125Z" fill="#F9E342"/>
<path d="M15.0769 20.3162C15.2815 20.3328 15.4508 20.3637 15.6155 20.4942C15.7705 20.6965 15.91 20.8818 15.9016 21.1458C15.8808 21.27 15.8808 21.27 15.8563 21.3617C16.0178 21.4929 16.2 21.5542 16.3927 21.6256C16.4658 21.6531 16.5389 21.6807 16.612 21.7083C16.6493 21.7223 16.6867 21.7363 16.7252 21.7507C16.9986 21.8534 17.2712 21.9586 17.5437 22.0638C17.6486 22.1042 17.7537 22.144 17.8587 22.1838C17.9272 22.2101 17.9957 22.2365 18.0642 22.2628C18.0959 22.2747 18.1275 22.2866 18.1602 22.2988C18.1896 22.3102 18.219 22.3217 18.2493 22.3334C18.2751 22.3432 18.3008 22.3531 18.3273 22.3632C18.4247 22.4152 18.4734 22.4527 18.5389 22.5437C18.5726 22.663 18.588 22.7836 18.6036 22.9065C18.6085 22.9419 18.6135 22.9773 18.6185 23.0138C18.6288 23.0886 18.6387 23.1635 18.6484 23.2384C18.6632 23.3529 18.6792 23.4672 18.6953 23.5816C18.7052 23.6544 18.7149 23.7272 18.7246 23.8C18.7294 23.8341 18.7342 23.8682 18.7391 23.9034C18.7767 24.2034 18.7767 24.2034 18.6954 24.3515C18.619 24.4306 18.619 24.4306 18.4995 24.4795C18.3599 24.477 18.2259 24.4481 18.089 24.4217C18.0107 24.4086 17.9323 24.3955 17.854 24.3827C17.7498 24.3657 17.6457 24.3485 17.542 24.3289C17.4627 24.3158 17.4627 24.3158 17.3833 24.3253C17.274 24.329 17.2071 24.3163 17.1061 24.2721C16.9473 24.1058 16.8284 23.9154 16.7048 23.7223C16.6678 23.6664 16.6307 23.6106 16.5936 23.5549C16.4964 23.4084 16.4005 23.2611 16.3049 23.1135C16.207 22.9629 16.1079 22.8132 16.0088 22.6634C15.8148 22.3696 15.6223 22.075 15.4306 21.7797C15.3811 21.8029 15.3811 21.8029 15.3307 21.8267C15.1416 21.9047 14.9917 21.8904 14.798 21.8321C14.5702 21.7037 14.4446 21.5225 14.3613 21.2787C14.3227 21.0757 14.3497 20.865 14.453 20.6856C14.6062 20.5026 14.8343 20.3389 15.0769 20.3162Z" fill="#DE7E29"/>
<path d="M23.4955 14.8106C23.7013 14.8166 23.8925 14.8829 24.0454 15.0229C24.2111 15.2184 24.2874 15.4054 24.2775 15.6632C24.2475 15.8394 24.1839 15.9893 24.0677 16.1264C24.0354 16.1475 24.0031 16.1686 23.9698 16.1904C24.0001 16.2355 24.0001 16.2355 24.0309 16.2815C24.221 16.5652 24.4102 16.8494 24.5986 17.1341C24.6955 17.2805 24.7927 17.4267 24.8905 17.5724C24.985 17.713 25.0787 17.8542 25.1718 17.9958C25.2074 18.0497 25.2433 18.1033 25.2796 18.1568C25.3303 18.2319 25.38 18.3075 25.4295 18.3834C25.4522 18.4163 25.4522 18.4163 25.4754 18.4499C25.5553 18.5751 25.5707 18.6328 25.5519 18.7823C25.5392 18.824 25.5265 18.8657 25.5134 18.9087C25.5055 18.9479 25.4976 18.987 25.4895 19.0273C25.443 19.2565 25.392 19.4826 25.3252 19.7069C25.304 19.7793 25.2866 19.8529 25.2701 19.9267C25.1966 20.0856 25.1197 20.1274 24.9607 20.2017C24.7699 20.1595 24.6183 20.0657 24.4577 19.9584C24.4332 19.9423 24.4087 19.9262 24.3835 19.9097C24.332 19.8758 24.2806 19.8418 24.2292 19.8076C24.1511 19.7557 24.0727 19.7041 23.9942 19.6527C23.944 19.6195 23.8938 19.5864 23.8435 19.5532C23.8204 19.5379 23.7972 19.5227 23.7733 19.5069C23.7096 19.4646 23.6466 19.4212 23.5837 19.3778C23.5468 19.3528 23.5098 19.3277 23.4718 19.3019C23.3904 19.2246 23.3904 19.2246 23.3696 19.1363C23.3711 19.1041 23.3727 19.0719 23.3743 19.0388C23.3762 18.9844 23.3762 18.9844 23.3782 18.9288C23.3806 18.8901 23.3829 18.8514 23.3854 18.8115C23.3871 18.7713 23.3887 18.7311 23.3905 18.6897C23.3958 18.5687 23.4024 18.4479 23.4094 18.327C23.4127 18.2631 23.4159 18.1991 23.4191 18.1352C23.4251 18.0183 23.4317 17.9014 23.4385 17.7846C23.4654 17.3138 23.4827 16.8414 23.4814 16.3698C23.4585 16.364 23.4356 16.3581 23.4119 16.3521C23.1309 16.2761 22.9672 16.19 22.8119 15.938C22.7211 15.7481 22.711 15.5556 22.7646 15.3532C22.9019 15.0239 23.1408 14.836 23.4955 14.8106Z" fill="#DE7E29"/>
<path d="M34.9153 25.4757C34.9442 25.4567 34.9731 25.4377 35.0029 25.4181C35.0486 25.3888 35.0486 25.3888 35.0952 25.3589C35.1253 25.3388 35.1555 25.3188 35.1865 25.2981C35.23 25.2699 35.23 25.2699 35.2744 25.241C35.3011 25.2237 35.3277 25.2064 35.3552 25.1886C35.427 25.1537 35.427 25.1537 35.535 25.1763C35.6178 25.2852 35.6178 25.2852 35.6843 25.4048C35.6571 25.5345 35.6355 25.5418 35.5287 25.6121C35.4878 25.639 35.4878 25.639 35.4461 25.6664C35.4173 25.6849 35.3886 25.7033 35.3589 25.7223C35.3306 25.7412 35.3023 25.76 35.2732 25.7795C35.2457 25.7973 35.2183 25.8151 35.19 25.8334C35.1649 25.8497 35.1398 25.866 35.114 25.8828C35.0414 25.9182 35.0414 25.9182 34.9008 25.9169C34.8159 25.8093 34.8159 25.8093 34.7515 25.6884C34.7792 25.5561 34.8057 25.5478 34.9153 25.4757Z" fill="#E30808"/>
<path d="M19.327 35.6536C19.3609 35.6317 19.3609 35.6317 19.3954 35.6094C19.4176 35.5941 19.4398 35.5789 19.4626 35.5632C19.528 35.5204 19.528 35.5204 19.6469 35.4596C19.7762 35.5148 19.7762 35.5148 19.8454 35.6385C19.8611 35.6801 19.8768 35.7218 19.8929 35.7647C19.8276 35.8765 19.7319 35.9245 19.6245 35.9955C19.5633 36.0364 19.5633 36.0364 19.5009 36.0782C19.3919 36.1387 19.3919 36.1387 19.284 36.1161C19.2011 36.0071 19.2011 36.0071 19.1346 35.8875C19.1627 35.7535 19.2168 35.7273 19.327 35.6536Z" fill="#E30808"/>
<path d="M47.7787 29.6426L45.0076 10.9274H48.5819L49.7065 18.6384C49.76 18.9998 49.8136 19.3814 49.8671 19.783C49.9207 20.1712 49.9608 20.6464 49.9876 21.2087C50.2955 20.6464 50.5766 20.1712 50.831 19.783C51.0987 19.3814 51.3531 18.9998 51.5941 18.6384L57.1162 10.325L58.542 18.6384C58.6089 18.9998 58.6825 19.3814 58.7629 19.783C58.8432 20.1712 58.8967 20.6464 58.9235 21.2087C59.2314 20.6464 59.5058 20.1712 59.7468 19.783C59.9878 19.3814 60.2221 18.9998 60.4496 18.6384L65.3895 10.9274H69.2651L57.1765 29.6426L55.6704 20.7268C55.6169 20.3653 55.5566 19.9838 55.4897 19.5822C55.4228 19.1805 55.3759 18.6986 55.3491 18.1363C55.0412 18.6986 54.7534 19.1805 54.4857 19.5822C54.2313 19.9704 53.9837 20.3452 53.7427 20.7067L47.7787 29.6426ZM66.9282 29L71.4463 10.9274H75.1813L70.6632 29H66.9282ZM88.7063 29.6024L80.674 18.2368L78.0033 29H74.6297L79.2885 10.325L87.3207 21.6705L89.9915 10.9274H93.365L88.7063 29.6024ZM95.3329 14.1805L96.1362 10.9274H108.707L107.903 14.1805H103.486L99.7708 29H96.0358L99.7507 14.1805H95.3329ZM107.063 29L111.541 10.9274H116.682C117.672 10.9274 118.563 11.1483 119.353 11.59C120.142 12.0184 120.765 12.6075 121.22 13.3571C121.689 14.1068 121.923 14.9502 121.923 15.8873C121.923 16.6236 121.776 17.3398 121.481 18.0359C121.187 18.7187 120.778 19.3412 120.256 19.9034C119.747 20.4523 119.158 20.9142 118.489 21.289L121.22 29H117.505L115.196 22.1324H112.264L110.557 29H107.063ZM113.007 19.1203H115.336C115.899 19.1203 116.414 18.9931 116.883 18.7388C117.351 18.4844 117.719 18.143 117.987 17.7147C118.268 17.2863 118.409 16.8177 118.409 16.309C118.409 15.6664 118.181 15.151 117.726 14.7628C117.271 14.3746 116.668 14.1805 115.919 14.1805H114.232L113.007 19.1203ZM132.317 29.3615C130.724 29.3615 129.285 28.9933 128 28.257C126.728 27.5207 125.717 26.5234 124.968 25.265C124.231 24.0066 123.863 22.601 123.863 21.048C123.863 19.6692 124.151 18.3572 124.727 17.1122C125.302 15.8538 126.085 14.736 127.076 13.7588C128.067 12.7681 129.198 11.9917 130.47 11.4294C131.742 10.8538 133.08 10.5659 134.486 10.5659C136.092 10.5659 137.531 10.9341 138.803 11.6704C140.075 12.4067 141.079 13.404 141.815 14.6624C142.565 15.9208 142.94 17.3331 142.94 18.8994C142.94 20.2649 142.652 21.5768 142.076 22.8352C141.514 24.0936 140.731 25.2114 139.727 26.1887C138.736 27.166 137.605 27.9424 136.333 28.5181C135.062 29.0803 133.723 29.3615 132.317 29.3615ZM132.719 25.8674C133.562 25.8674 134.365 25.6867 135.128 25.3252C135.905 24.9638 136.594 24.4685 137.197 23.8393C137.799 23.2101 138.268 22.4939 138.602 21.6906C138.95 20.8874 139.125 20.0507 139.125 19.1805C139.125 18.2033 138.904 17.3331 138.462 16.5701C138.033 15.7936 137.438 15.1845 136.675 14.7427C135.925 14.2876 135.068 14.06 134.104 14.06C133.261 14.06 132.451 14.2407 131.675 14.6021C130.898 14.9636 130.209 15.4589 129.606 16.0881C129.017 16.7039 128.549 17.4134 128.201 18.2167C127.853 19.0065 127.679 19.8365 127.679 20.7067C127.679 21.6705 127.899 22.5474 128.341 23.3372C128.783 24.1137 129.385 24.7295 130.148 25.1847C130.912 25.6398 131.768 25.8674 132.719 25.8674ZM157.806 29.6024L149.774 18.2368L147.103 29H143.729L148.388 10.325L156.42 21.6705L159.091 10.9274H162.465L157.806 29.6024Z" fill="url(#paint0_linear_1442_11)"/>
<path d="M46.9145 42.2188V37.1932H48.1597C48.491 37.1932 48.7702 37.2435 48.9973 37.344C49.2281 37.4445 49.4143 37.5766 49.5557 37.7404C49.6972 37.9005 49.7996 38.0755 49.8628 38.2653C49.9298 38.4552 49.9633 38.6413 49.9633 38.8237C49.9633 39.0024 49.9317 39.1867 49.8684 39.3765C49.8051 39.5664 49.7028 39.7432 49.5613 39.907C49.4198 40.0708 49.2337 40.2029 49.0029 40.3035C48.7721 40.404 48.491 40.4542 48.1597 40.4542H47.5511V42.2188H46.9145ZM47.5511 39.8847H48.1262C48.4278 39.8847 48.666 39.8325 48.841 39.7283C49.0159 39.6204 49.1406 39.4863 49.2151 39.3263C49.2896 39.1625 49.3268 38.995 49.3268 38.8237C49.3268 38.6599 49.2896 38.4961 49.2151 38.3323C49.1444 38.1685 49.0215 38.0327 48.8466 37.9247C48.6753 37.8167 48.4352 37.7628 48.1262 37.7628H47.5511V39.8847ZM52.6972 42.2188V36.8582H53.3003V42.2188H52.6972ZM57.7347 42.2634C57.4294 42.2634 57.1502 42.1871 56.8971 42.0345C56.644 41.8781 56.4411 41.6697 56.2885 41.4091C56.1396 41.1485 56.0651 40.86 56.0651 40.5436C56.0651 40.2271 56.1396 39.9386 56.2885 39.6781C56.4411 39.4175 56.644 39.2109 56.8971 39.0582C57.1502 38.9019 57.4294 38.8237 57.7347 38.8237C57.9655 38.8237 58.1814 38.8665 58.3824 38.9521C58.5872 39.0378 58.764 39.1569 58.9129 39.3095V38.8684H59.4713V42.2188H58.9129V41.7776C58.764 41.9265 58.5872 42.0456 58.3824 42.135C58.1814 42.2206 57.9655 42.2634 57.7347 42.2634ZM57.8129 41.7162C58.0251 41.7162 58.2168 41.6641 58.388 41.5598C58.563 41.4519 58.7007 41.3104 58.8012 41.1355C58.9055 40.9568 58.9576 40.7595 58.9576 40.5436C58.9576 40.3277 58.9055 40.1322 58.8012 39.9573C58.7007 39.7786 58.563 39.6371 58.388 39.5329C58.2168 39.4249 58.0251 39.3709 57.8129 39.3709C57.6007 39.3709 57.4071 39.4249 57.2321 39.5329C57.0609 39.6371 56.9232 39.7786 56.8189 39.9573C56.7184 40.1322 56.6682 40.3277 56.6682 40.5436C56.6682 40.7595 56.7184 40.9568 56.8189 41.1355C56.9232 41.3104 57.0609 41.4519 57.2321 41.5598C57.4071 41.6641 57.6007 41.7162 57.8129 41.7162ZM62.3302 43.8939L63.419 41.7274L62.0007 38.8684H62.6819L63.3967 40.3202C63.46 40.4505 63.5214 40.5789 63.581 40.7055C63.6405 40.8321 63.7001 40.9847 63.7596 41.1634C63.8229 40.9847 63.8825 40.8321 63.9383 40.7055C63.9979 40.5752 64.0612 40.4468 64.1282 40.3202L64.8541 38.8684H65.4962L62.9835 43.8939H62.3302ZM74.0476 42.3193C73.6828 42.3193 73.3422 42.2523 73.0257 42.1182C72.7093 41.9805 72.4301 41.7925 72.1882 41.5543C71.9499 41.3123 71.7638 41.035 71.6298 40.7223C71.4957 40.4058 71.4287 40.0671 71.4287 39.706C71.4287 39.3449 71.4957 39.008 71.6298 38.6953C71.7675 38.3789 71.9555 38.1015 72.1937 37.8633C72.4357 37.6213 72.7149 37.4333 73.0313 37.2993C73.3478 37.1616 73.6884 37.0927 74.0532 37.0927C74.4106 37.0927 74.7456 37.1597 75.0583 37.2937C75.371 37.424 75.6465 37.6045 75.8847 37.8354L75.7005 38.6059C75.5292 38.3305 75.2984 38.1108 75.008 37.947C74.7214 37.7795 74.4031 37.6958 74.0532 37.6958C73.6847 37.6958 73.3515 37.787 73.0537 37.9694C72.7596 38.1481 72.5251 38.39 72.3501 38.6953C72.1751 38.9968 72.0876 39.3337 72.0876 39.706C72.0876 40.0708 72.1733 40.4058 72.3445 40.7111C72.5195 41.0163 72.754 41.2602 73.0481 41.4426C73.3459 41.625 73.6791 41.7162 74.0476 41.7162C74.2561 41.7162 74.4534 41.692 74.6395 41.6436C74.8294 41.5915 75.0025 41.5189 75.1588 41.4258V40.108H73.774V39.5385H75.773V41.7497C75.546 41.9396 75.2817 42.0829 74.9801 42.1797C74.6823 42.2727 74.3715 42.3193 74.0476 42.3193ZM80.2401 42.2634C79.9348 42.2634 79.6556 42.1871 79.4025 42.0345C79.1493 41.8781 78.9465 41.6697 78.7938 41.4091C78.6449 41.1485 78.5705 40.86 78.5705 40.5436C78.5705 40.2271 78.6449 39.9386 78.7938 39.6781C78.9465 39.4175 79.1493 39.2109 79.4025 39.0582C79.6556 38.9019 79.9348 38.8237 80.2401 38.8237C80.4709 38.8237 80.6868 38.8665 80.8878 38.9521C81.0925 39.0378 81.2694 39.1569 81.4183 39.3095V38.8684H81.9767V42.2188H81.4183V41.7776C81.2694 41.9265 81.0925 42.0456 80.8878 42.135C80.6868 42.2206 80.4709 42.2634 80.2401 42.2634ZM80.3182 41.7162C80.5304 41.7162 80.7221 41.6641 80.8934 41.5598C81.0684 41.4519 81.2061 41.3104 81.3066 41.1355C81.4108 40.9568 81.4629 40.7595 81.4629 40.5436C81.4629 40.3277 81.4108 40.1322 81.3066 39.9573C81.2061 39.7786 81.0684 39.6371 80.8934 39.5329C80.7221 39.4249 80.5304 39.3709 80.3182 39.3709C80.1061 39.3709 79.9125 39.4249 79.7375 39.5329C79.5663 39.6371 79.4285 39.7786 79.3243 39.9573C79.2238 40.1322 79.1735 40.3277 79.1735 40.5436C79.1735 40.7595 79.2238 40.9568 79.3243 41.1355C79.4285 41.3104 79.5663 41.4519 79.7375 41.5598C79.9125 41.6641 80.1061 41.7162 80.3182 41.7162ZM84.9751 42.2188V38.8684H85.5335V39.3486C85.6564 39.1662 85.8108 39.0303 85.997 38.941C86.1868 38.8479 86.386 38.8014 86.5945 38.8014C86.8215 38.8014 87.03 38.8554 87.2199 38.9633C87.4097 39.0675 87.5623 39.2146 87.6777 39.4044C87.808 39.2034 87.9756 39.0527 88.1803 38.9521C88.3888 38.8516 88.6084 38.8014 88.8392 38.8014C89.0923 38.8014 89.3231 38.8609 89.5316 38.9801C89.7438 39.0992 89.9113 39.2667 90.0342 39.4826C90.1607 39.6948 90.224 39.9461 90.224 40.2364V42.2188H89.621V40.309C89.621 40.0038 89.5335 39.773 89.3585 39.6166C89.1873 39.4566 88.9881 39.3765 88.761 39.3765C88.6196 39.3765 88.4818 39.4082 88.3478 39.4714C88.2175 39.5347 88.1096 39.6334 88.024 39.7674C87.9421 39.9014 87.9011 40.0764 87.9011 40.2923V42.2188H87.298V40.309C87.298 40.0969 87.2552 39.9219 87.1696 39.7841C87.0877 39.6464 86.9798 39.544 86.8457 39.477C86.7154 39.4063 86.5796 39.3709 86.4381 39.3709C86.3004 39.3709 86.1645 39.4026 86.0305 39.4659C85.9002 39.5291 85.7922 39.6278 85.7066 39.7618C85.621 39.8958 85.5782 40.0727 85.5782 40.2923V42.2188H84.9751ZM94.7525 42.2858C94.4025 42.2858 94.088 42.2076 93.8088 42.0512C93.5333 41.8949 93.3155 41.6827 93.1555 41.4147C92.9991 41.1429 92.9209 40.8414 92.9209 40.5101C92.9209 40.1936 92.9972 39.907 93.1499 39.6501C93.3025 39.3896 93.5072 39.1829 93.7641 39.0303C94.0247 38.8777 94.3113 38.8014 94.624 38.8014C94.933 38.8014 95.2159 38.8758 95.4728 39.0247C95.7297 39.1699 95.9344 39.3672 96.087 39.6166C96.2397 39.866 96.316 40.149 96.316 40.4654V40.7111H94.1271C94.0303 40.7111 93.9316 40.7074 93.8311 40.6999C93.7306 40.6925 93.632 40.6813 93.5352 40.6664C93.5761 40.9642 93.7101 41.2136 93.9372 41.4147C94.168 41.6157 94.4416 41.7162 94.758 41.7162C94.9702 41.7162 95.1675 41.6678 95.3499 41.571C95.5324 41.4742 95.6794 41.3458 95.7911 41.1857L95.9586 41.8725C95.7985 42.0028 95.6143 42.1052 95.4058 42.1797C95.201 42.2504 94.9833 42.2858 94.7525 42.2858ZM93.5184 40.2588C93.7194 40.2253 93.9223 40.2085 94.1271 40.2085H95.2383C95.3202 40.2085 95.4002 40.2123 95.4784 40.2197C95.5603 40.2234 95.6422 40.229 95.7241 40.2364C95.672 39.9759 95.5417 39.7618 95.3332 39.5943C95.1247 39.4231 94.8883 39.3374 94.624 39.3374C94.3523 39.3374 94.114 39.4286 93.9093 39.611C93.7045 39.7897 93.5743 40.0056 93.5184 40.2588ZM99.9163 42.2858C99.745 42.2858 99.5607 42.2541 99.3634 42.1908C99.1699 42.1238 99.0023 42.014 98.8609 41.8614L99.0284 41.2025C99.1326 41.3774 99.2667 41.517 99.4305 41.6213C99.5942 41.7218 99.7692 41.772 99.9553 41.772C100.134 41.772 100.268 41.7292 100.357 41.6436C100.447 41.5543 100.491 41.4463 100.491 41.3197C100.491 41.1746 100.443 41.0685 100.346 41.0014C100.253 40.9344 100.169 40.8879 100.095 40.8619L99.6426 40.6887C99.5607 40.6552 99.4621 40.6069 99.3467 40.5436C99.2313 40.4766 99.1308 40.3816 99.0452 40.2588C98.9595 40.1359 98.9167 39.9759 98.9167 39.7786C98.9167 39.5999 98.9595 39.4361 99.0452 39.2872C99.1308 39.1383 99.2518 39.021 99.4081 38.9354C99.5645 38.846 99.7487 38.8014 99.9609 38.8014C100.128 38.8014 100.303 38.8312 100.486 38.8907C100.668 38.9503 100.823 39.0508 100.949 39.1923L100.782 39.8512C100.692 39.6874 100.571 39.5571 100.419 39.4603C100.266 39.3635 100.108 39.3151 99.9442 39.3151C99.7915 39.3151 99.6706 39.3579 99.5812 39.4435C99.4956 39.5291 99.4528 39.6278 99.4528 39.7395C99.4528 39.8288 99.4826 39.9089 99.5421 39.9796C99.6017 40.0503 99.691 40.108 99.8102 40.1527L100.262 40.3258C100.344 40.3556 100.445 40.404 100.564 40.471C100.687 40.538 100.795 40.6348 100.888 40.7613C100.981 40.8879 101.027 41.0592 101.027 41.2751C101.027 41.5766 100.921 41.8204 100.709 42.0066C100.501 42.1927 100.236 42.2858 99.9163 42.2858ZM107.601 42.2188V37.1932H110.08V37.7628H108.237V38.8349H109.689V39.4044H108.237V41.6492H110.08V42.2188H107.601ZM114.151 42.2634C113.846 42.2634 113.567 42.1871 113.314 42.0345C113.061 41.8781 112.858 41.6697 112.705 41.4091C112.556 41.1485 112.482 40.86 112.482 40.5436C112.482 40.2271 112.556 39.9386 112.705 39.6781C112.858 39.4175 113.061 39.2109 113.314 39.0582C113.567 38.9019 113.846 38.8237 114.151 38.8237C114.382 38.8237 114.598 38.8665 114.799 38.9521C115.004 39.0378 115.181 39.1569 115.329 39.3095V38.8684H115.888V42.2188H115.329V41.7776C115.181 41.9265 115.004 42.0456 114.799 42.135C114.598 42.2206 114.382 42.2634 114.151 42.2634ZM114.229 41.7162C114.442 41.7162 114.633 41.6641 114.805 41.5598C114.98 41.4519 115.117 41.3104 115.218 41.1355C115.322 40.9568 115.374 40.7595 115.374 40.5436C115.374 40.3277 115.322 40.1322 115.218 39.9573C115.117 39.7786 114.98 39.6371 114.805 39.5329C114.633 39.4249 114.442 39.3709 114.229 39.3709C114.017 39.3709 113.824 39.4249 113.649 39.5329C113.477 39.6371 113.34 39.7786 113.235 39.9573C113.135 40.1322 113.085 40.3277 113.085 40.5436C113.085 40.7595 113.135 40.9568 113.235 41.1355C113.34 41.3104 113.477 41.4519 113.649 41.5598C113.824 41.6641 114.017 41.7162 114.229 41.7162ZM118.886 42.2188V38.8684H119.445V39.4826C119.564 39.2853 119.722 39.129 119.919 39.0136C120.117 38.8944 120.351 38.8349 120.623 38.8349L120.774 39.4379C120.703 39.4156 120.621 39.4044 120.528 39.4044C120.215 39.4044 119.964 39.505 119.774 39.706C119.584 39.9033 119.489 40.1862 119.489 40.5547V42.2188H118.886ZM123.329 42.2188V38.8684H123.887V39.41C124.01 39.2127 124.168 39.062 124.362 38.9577C124.559 38.8535 124.771 38.8014 124.998 38.8014C125.237 38.8014 125.456 38.8609 125.657 38.9801C125.862 39.0955 126.028 39.2648 126.154 39.4882C126.281 39.7078 126.344 39.9759 126.344 40.2923V42.2188H125.741V40.376C125.741 40.1117 125.661 39.8791 125.501 39.6781C125.345 39.4733 125.123 39.3709 124.837 39.3709C124.602 39.3709 124.392 39.4566 124.206 39.6278C124.023 39.7953 123.932 40.0391 123.932 40.3593V42.2188H123.329ZM135.305 42.3193C134.944 42.3193 134.603 42.2523 134.283 42.1182C133.967 41.9805 133.687 41.7925 133.445 41.5543C133.207 41.316 133.019 41.0387 132.882 40.7223C132.747 40.4058 132.68 40.0671 132.68 39.706C132.68 39.3449 132.747 39.0061 132.882 38.6897C133.019 38.3733 133.207 38.0959 133.445 37.8577C133.687 37.6194 133.967 37.4333 134.283 37.2993C134.603 37.1616 134.944 37.0927 135.305 37.0927C135.662 37.0927 135.997 37.1597 136.31 37.2937C136.623 37.424 136.898 37.6045 137.136 37.8354L136.952 38.6059C136.781 38.3305 136.55 38.1108 136.26 37.947C135.973 37.7795 135.655 37.6958 135.305 37.6958C134.936 37.6958 134.603 37.787 134.305 37.9694C134.011 38.1481 133.777 38.39 133.602 38.6953C133.427 38.9968 133.339 39.3337 133.339 39.706C133.339 40.0745 133.427 40.4114 133.602 40.7167C133.777 41.0219 134.011 41.2658 134.305 41.4482C134.603 41.6269 134.936 41.7162 135.305 41.7162C135.659 41.7162 135.979 41.6324 136.265 41.4649C136.552 41.2974 136.781 41.0778 136.952 40.806L137.136 41.5766C136.898 41.8037 136.623 41.9842 136.31 42.1182C135.997 42.2523 135.662 42.3193 135.305 42.3193ZM139.837 42.2188V38.8684H140.395V39.4826C140.514 39.2853 140.673 39.129 140.87 39.0136C141.067 38.8944 141.302 38.8349 141.573 38.8349L141.724 39.4379C141.654 39.4156 141.572 39.4044 141.479 39.4044C141.166 39.4044 140.915 39.505 140.725 39.706C140.535 39.9033 140.44 40.1862 140.44 40.5547V42.2188H139.837ZM144.14 43.8939L145.229 41.7274L143.81 38.8684H144.492L145.206 40.3202C145.27 40.4505 145.331 40.5789 145.391 40.7055C145.45 40.8321 145.51 40.9847 145.569 41.1634C145.633 40.9847 145.692 40.8321 145.748 40.7055C145.808 40.5752 145.871 40.4468 145.938 40.3202L146.664 38.8684H147.306L144.793 43.8939H144.14ZM149.837 43.8939V38.8684H150.395V39.3095C150.548 39.1569 150.725 39.0378 150.926 38.9521C151.127 38.8665 151.343 38.8237 151.574 38.8237C151.883 38.8237 152.162 38.9019 152.411 39.0582C152.664 39.2109 152.865 39.4175 153.014 39.6781C153.167 39.9386 153.243 40.2271 153.243 40.5436C153.243 40.86 153.167 41.1485 153.014 41.4091C152.865 41.6697 152.664 41.8781 152.411 42.0345C152.162 42.1871 151.883 42.2634 151.574 42.2634C151.354 42.2634 151.147 42.2243 150.954 42.1462C150.76 42.068 150.589 41.96 150.44 41.8223V43.8939H149.837ZM151.496 41.7162C151.708 41.7162 151.899 41.6641 152.071 41.5598C152.246 41.4519 152.383 41.3104 152.484 41.1355C152.588 40.9568 152.64 40.7595 152.64 40.5436C152.64 40.3277 152.588 40.1322 152.484 39.9573C152.383 39.7786 152.246 39.6371 152.071 39.5329C151.899 39.4249 151.708 39.3709 151.496 39.3709C151.283 39.3709 151.09 39.4249 150.915 39.5329C150.744 39.6371 150.606 39.7786 150.502 39.9573C150.401 40.1322 150.351 40.3277 150.351 40.5436C150.351 40.7595 150.401 40.9568 150.502 41.1355C150.606 41.3104 150.744 41.4519 150.915 41.5598C151.09 41.6641 151.283 41.7162 151.496 41.7162ZM156.233 42.2188V39.3709H155.474V38.8684H156.25V37.7516H156.819V38.8684H157.652V39.3709H156.836V42.2188H156.233ZM161.65 42.2858C161.326 42.2858 161.03 42.2076 160.762 42.0512C160.494 41.8949 160.28 41.6846 160.12 41.4202C159.964 41.1559 159.885 40.8637 159.885 40.5436C159.885 40.2197 159.964 39.9275 160.12 39.6669C160.28 39.4026 160.494 39.1923 160.762 39.0359C161.03 38.8795 161.326 38.8014 161.65 38.8014C161.978 38.8014 162.274 38.8795 162.538 39.0359C162.806 39.1923 163.018 39.4026 163.174 39.6669C163.334 39.9275 163.415 40.2197 163.415 40.5436C163.415 40.8637 163.334 41.1559 163.174 41.4202C163.018 41.6846 162.806 41.8949 162.538 42.0512C162.274 42.2076 161.978 42.2858 161.65 42.2858ZM161.65 41.7162C161.866 41.7162 162.061 41.6641 162.236 41.5598C162.411 41.4519 162.551 41.3104 162.655 41.1355C162.759 40.9568 162.811 40.7595 162.811 40.5436C162.811 40.3277 162.759 40.1322 162.655 39.9573C162.551 39.7786 162.411 39.6371 162.236 39.5329C162.061 39.4249 161.866 39.3709 161.65 39.3709C161.434 39.3709 161.239 39.4249 161.064 39.5329C160.889 39.6371 160.749 39.7786 160.645 39.9573C160.541 40.1322 160.489 40.3277 160.489 40.5436C160.489 40.7595 160.541 40.9568 160.645 41.1355C160.749 41.3104 160.889 41.4519 161.064 41.5598C161.239 41.6641 161.434 41.7162 161.65 41.7162Z" fill="white"/>
<rect x="46.0781" y="30.3633" width="99.9054" height="3.32536" fill="#DE7E29"/>
<path d="M138.443 19.9214L130.646 23.897L134.405 19.9116L130.667 15.9057L138.443 19.9214Z" fill="url(#paint1_linear_1442_11)"/>
<defs>
<linearGradient id="paint0_linear_1442_11" x1="102.816" y1="0" x2="102.895" y2="28.9162" gradientUnits="userSpaceOnUse">
<stop offset="0.427885" stop-color="#CAA12D"/>
<stop offset="0.696789" stop-color="#FAE443"/>
<stop offset="0.918269" stop-color="#DE7E29"/>
</linearGradient>
<linearGradient id="paint1_linear_1442_11" x1="134.56" y1="15.9158" x2="134.539" y2="23.907" gradientUnits="userSpaceOnUse">
<stop stop-color="#CAA12D"/>
<stop offset="0.466531" stop-color="#F9E243"/>
<stop offset="1" stop-color="#DD7D28"/>
</linearGradient>
</defs>
</svg>
