<svg width="31" height="30" viewBox="0 0 31 30" fill="none" xmlns="http://www.w3.org/2000/svg">
<circle cx="15.9288" cy="15.0001" r="12.6814" stroke="#F9E342" stroke-width="0.916728"/>
<circle cx="15.9418" cy="14.9994" r="11.4591" stroke="black" stroke-width="1.52788" stroke-dasharray="3.06 3.06"/>
<circle cx="15.9348" cy="15" r="11.4591" transform="rotate(15.1988 15.9348 15)" stroke="#E30808" stroke-width="1.52788" stroke-dasharray="3.06 3.06"/>
<path d="M15.9477 2.74946L15.9212 3.76662L15.798 3.76341L15.8212 2.87538L15.8152 2.87522L15.5626 3.03363L15.5658 2.90847L15.8245 2.74625L15.9477 2.74946Z" fill="white"/>
<path d="M19.091 3.14947C19.1308 3.16221 19.1683 3.18221 19.2035 3.20949C19.2387 3.23677 19.2674 3.27277 19.2895 3.31749C19.3118 3.36189 19.3236 3.41676 19.3251 3.4821C19.3266 3.54744 19.3135 3.6247 19.2857 3.71387C19.2588 3.8002 19.2267 3.87432 19.1893 3.93624C19.1524 3.99793 19.1115 4.04693 19.0665 4.08322C19.0219 4.11961 18.974 4.14287 18.923 4.15299C18.8723 4.1632 18.8196 4.15979 18.7649 4.14274C18.7105 4.12579 18.6653 4.09991 18.6293 4.0651C18.5937 4.03008 18.5683 3.98904 18.5532 3.94199C18.5384 3.89472 18.5352 3.84428 18.5436 3.79069L18.6593 3.82676C18.6559 3.8746 18.6651 3.91789 18.687 3.95664C18.7094 3.99517 18.7462 4.02242 18.7974 4.03839C18.8723 4.06174 18.9417 4.04744 19.0054 3.99548C19.0694 3.94362 19.1201 3.85793 19.1573 3.7384L19.1497 3.73603C19.1237 3.75708 19.0956 3.77345 19.0652 3.78515C19.0348 3.79685 19.0032 3.80329 18.9702 3.80446C18.9372 3.80563 18.904 3.801 18.8705 3.79055C18.8148 3.77321 18.768 3.74354 18.7301 3.70154C18.6926 3.65932 18.6675 3.60969 18.6547 3.55264C18.6424 3.49536 18.646 3.43542 18.6655 3.37281C18.684 3.31336 18.7143 3.26311 18.7562 3.22206C18.7985 3.18079 18.8485 3.15299 18.906 3.13865C18.9639 3.12442 19.0256 3.12803 19.091 3.14947ZM19.0585 3.25383C19.0187 3.24141 18.9797 3.24019 18.9415 3.25016C18.9038 3.25991 18.8704 3.27864 18.8413 3.30634C18.8126 3.33383 18.7919 3.36781 18.7793 3.40829C18.7667 3.44876 18.7641 3.48836 18.7715 3.52708C18.7792 3.56559 18.7956 3.59947 18.8204 3.62873C18.8457 3.65778 18.8783 3.67851 18.9181 3.69093C18.9482 3.70029 18.978 3.70316 19.0076 3.69954C19.0373 3.6956 19.0649 3.68637 19.0906 3.67182C19.1167 3.65706 19.1394 3.63828 19.1587 3.61548C19.178 3.59237 19.1922 3.56643 19.2011 3.53765C19.213 3.4997 19.2149 3.46127 19.2069 3.42235C19.1992 3.38353 19.1826 3.34887 19.1571 3.31836C19.1318 3.28795 19.099 3.26644 19.0585 3.25383Z" fill="white"/>
<path d="M21.7528 5.42998C21.6983 5.39342 21.6561 5.35147 21.626 5.30415C21.5962 5.25701 21.58 5.2084 21.5773 5.15832C21.5751 5.10816 21.5878 5.0602 21.6153 5.01446L21.7193 5.08427C21.7032 5.11297 21.6967 5.14276 21.6999 5.17363C21.7033 5.20424 21.7147 5.23386 21.7342 5.2625C21.7537 5.29113 21.7796 5.31635 21.8121 5.33814C21.8484 5.36252 21.8848 5.37781 21.9213 5.384C21.9579 5.39019 21.9917 5.38737 22.0228 5.37553C22.0539 5.3637 22.0794 5.34294 22.0993 5.31324C22.1202 5.28217 22.1309 5.24964 22.1314 5.21566C22.132 5.18139 22.122 5.14755 22.1014 5.11413C22.0808 5.08071 22.049 5.0496 22.0061 5.02079L21.9385 4.97535L21.9994 4.88462L22.067 4.93005C22.1006 4.95259 22.1341 4.9663 22.1675 4.97119C22.2012 4.97627 22.2326 4.97262 22.2616 4.96022C22.291 4.94802 22.3156 4.92707 22.3356 4.89737C22.3548 4.86878 22.3652 4.83965 22.3668 4.80998C22.3683 4.78031 22.3615 4.75181 22.3464 4.72447C22.3315 4.69732 22.3085 4.67331 22.2775 4.65244C22.2483 4.63286 22.2172 4.61976 22.1842 4.61312C22.1516 4.60639 22.1204 4.60761 22.0907 4.61679C22.0612 4.62569 22.0364 4.6437 22.0161 4.67082L21.9172 4.60433C21.9485 4.56117 21.9879 4.53136 22.0353 4.5149C22.0828 4.49816 22.1331 4.49402 22.1861 4.50247C22.2393 4.51111 22.2903 4.53178 22.339 4.56447C22.3912 4.59956 22.4289 4.64025 22.4521 4.68654C22.4754 4.73255 22.4856 4.77948 22.4826 4.82733C22.4796 4.87518 22.4647 4.91904 22.4379 4.95891C22.4059 5.00648 22.3662 5.03863 22.3186 5.05536C22.2714 5.07229 22.2221 5.07289 22.1708 5.05719L22.1663 5.06379C22.2138 5.10842 22.2402 5.15908 22.2456 5.21578C22.2512 5.2722 22.236 5.32722 22.2 5.38084C22.1691 5.42676 22.1289 5.45959 22.0793 5.47935C22.0302 5.49903 21.9772 5.5049 21.9202 5.49699C21.8633 5.48907 21.8075 5.46674 21.7528 5.42998Z" fill="white"/>
<path d="M24.2211 7.47999C24.1775 7.42746 24.1484 7.37333 24.1336 7.31761C24.1193 7.26193 24.1193 7.20924 24.1336 7.15953C24.1481 7.10961 24.1767 7.06724 24.2192 7.03241C24.2522 7.00468 24.2882 6.98582 24.3272 6.97583C24.3665 6.96563 24.4051 6.96419 24.443 6.9715C24.4814 6.97886 24.5149 6.9947 24.5437 7.01904L24.5483 7.01524C24.5269 6.96972 24.5232 6.92244 24.5372 6.87341C24.5515 6.82417 24.5795 6.78245 24.6213 6.74826C24.6608 6.71503 24.7048 6.69562 24.753 6.69003C24.8013 6.68444 24.8493 6.69199 24.897 6.71268C24.9449 6.73364 24.9879 6.76707 25.0259 6.81297C25.0636 6.85836 25.0881 6.90642 25.0996 6.95713C25.1111 7.00783 25.1096 7.05639 25.0951 7.10279C25.0809 7.14944 25.054 7.18938 25.0144 7.22261C24.9726 7.2568 24.9261 7.2762 24.8749 7.28081C24.8241 7.28547 24.7786 7.27345 24.7385 7.24476L24.7339 7.24856C24.7523 7.2811 24.7613 7.31664 24.761 7.35519C24.7609 7.39352 24.7523 7.43118 24.7352 7.46816C24.7184 7.50492 24.6935 7.53717 24.6605 7.5649C24.618 7.59973 24.5707 7.61953 24.5188 7.62431C24.4673 7.62913 24.4155 7.61935 24.3634 7.59495C24.3119 7.57059 24.2644 7.53227 24.2211 7.47999ZM24.3052 7.41025C24.3346 7.4457 24.3657 7.47154 24.3985 7.48779C24.4314 7.50404 24.464 7.51051 24.4966 7.5072C24.5291 7.5039 24.5595 7.49075 24.5878 7.46776C24.6171 7.44299 24.6369 7.41367 24.6472 7.37981C24.6574 7.34596 24.6582 7.31063 24.6497 7.27384C24.6413 7.23731 24.6234 7.20246 24.596 7.16931C24.5683 7.1359 24.537 7.11145 24.5023 7.09596C24.4677 7.08073 24.4328 7.07499 24.3977 7.07876C24.3627 7.08278 24.3306 7.09717 24.3012 7.12194C24.2729 7.14494 24.254 7.17198 24.2445 7.20309C24.2352 7.23444 24.2356 7.26788 24.2457 7.30341C24.2558 7.33893 24.2756 7.37454 24.3052 7.41025ZM24.6771 7.1021C24.7003 7.13015 24.7265 7.15037 24.7557 7.16274C24.7851 7.17538 24.8151 7.17959 24.8456 7.17539C24.8761 7.17119 24.9049 7.15802 24.9322 7.13587C24.9585 7.11363 24.9764 7.08826 24.9859 7.05974C24.9956 7.03102 24.9969 7.00138 24.9896 6.97082C24.9826 6.94006 24.9672 6.91027 24.9433 6.88145C24.919 6.85212 24.8923 6.83103 24.8631 6.81819C24.8342 6.80513 24.8049 6.80086 24.7751 6.80536C24.7455 6.80964 24.7176 6.82291 24.6912 6.84514C24.664 6.86729 24.6454 6.89283 24.6354 6.92177C24.6256 6.95096 24.6242 6.98117 24.6311 7.01241C24.6381 7.04364 24.6534 7.07354 24.6771 7.1021Z" fill="white"/>
<path d="M25.9011 9.87942L26.9079 9.94185L26.9153 9.93871L26.708 9.45673L26.8084 9.41355L27.0659 10.0124L26.96 10.0579L25.9522 9.99808L25.9011 9.87942Z" fill="white"/>
<path d="M26.9262 12.8292L27.0149 12.8185L27.4203 13.1077C27.4678 13.1417 27.5088 13.1694 27.5435 13.1909C27.5784 13.2124 27.6106 13.2275 27.64 13.2363C27.6698 13.2453 27.7002 13.248 27.7311 13.2443C27.7666 13.24 27.7963 13.2277 27.8202 13.2074C27.8442 13.1875 27.8614 13.1621 27.872 13.1311C27.8826 13.1001 27.8857 13.0664 27.8813 13.0299C27.8766 12.9911 27.8644 12.9582 27.8448 12.9312C27.8256 12.9045 27.8007 12.885 27.7702 12.8727C27.7397 12.8607 27.7052 12.857 27.6668 12.8617L27.6527 12.7453C27.7119 12.7381 27.7655 12.7455 27.8135 12.7674C27.8615 12.7892 27.9009 12.8222 27.9315 12.8662C27.9623 12.9105 27.9812 12.9621 27.9883 13.0209C27.9955 13.0801 27.9893 13.1341 27.9699 13.1828C27.9504 13.2316 27.921 13.2715 27.8818 13.3026C27.8425 13.3337 27.7969 13.3524 27.7449 13.3587C27.7078 13.3632 27.6706 13.3608 27.6335 13.3517C27.5967 13.3428 27.5546 13.3245 27.5072 13.2969C27.4602 13.2695 27.4021 13.2307 27.333 13.1803L27.0629 12.9828L27.055 12.9838L27.1118 13.4533L27.0033 13.4665L26.9262 12.8292Z" fill="white"/>
<path d="M27.2843 16.0705L27.3843 16.0875L28.0066 16.6471L27.9943 16.7196L27.8395 16.6932L27.8478 16.6442L27.3776 16.2214L27.3697 16.2201L27.2686 16.8137L27.1609 16.7953L27.2843 16.0705ZM26.9982 16.5076L27.2343 16.5478L27.2808 16.5557L28.0013 16.6785L27.9816 16.794L26.9785 16.6232L26.9982 16.5076Z" fill="white"/>
<path d="M27.0713 19.9862C27.0524 20.0234 27.0267 20.0573 26.9942 20.0877C26.9617 20.1181 26.9216 20.1407 26.8739 20.1555C26.8266 20.1704 26.7705 20.1734 26.7057 20.1645C26.641 20.1556 26.5668 20.1303 26.4832 20.0887C26.4022 20.0485 26.3341 20.005 26.2789 19.9583C26.2239 19.912 26.182 19.8638 26.1533 19.8137C26.1245 19.7638 26.1091 19.7129 26.1072 19.6609C26.1052 19.6092 26.117 19.5577 26.1425 19.5064C26.1678 19.4554 26.2006 19.4149 26.2407 19.3849C26.2809 19.3553 26.3254 19.3368 26.3743 19.3293C26.4233 19.3222 26.4736 19.3271 26.5252 19.3439L26.4712 19.4524C26.4245 19.4414 26.3803 19.4436 26.3386 19.4591C26.297 19.4751 26.2642 19.5071 26.2403 19.5551C26.2054 19.6254 26.2085 19.6961 26.2497 19.7673C26.2907 19.8387 26.3673 19.9023 26.4794 19.9581L26.4829 19.951C26.4662 19.922 26.4546 19.8916 26.4478 19.8597C26.4411 19.8279 26.4398 19.7956 26.4438 19.7629C26.4479 19.7301 26.4578 19.698 26.4734 19.6666C26.4994 19.6144 26.5361 19.5729 26.5836 19.5422C26.6312 19.5119 26.6842 19.4949 26.7426 19.4914C26.8011 19.4883 26.8597 19.5014 26.9184 19.5306C26.9742 19.5583 27.019 19.5962 27.0528 19.6441C27.0869 19.6925 27.1064 19.7462 27.1114 19.8053C27.1163 19.8647 27.1029 19.925 27.0713 19.9862ZM26.9735 19.9375C26.992 19.9002 26.9994 19.8619 26.9957 19.8226C26.992 19.7838 26.9788 19.7479 26.9561 19.7147C26.9335 19.682 26.9033 19.6562 26.8653 19.6374C26.8273 19.6185 26.7887 19.6096 26.7493 19.6107C26.71 19.6123 26.674 19.623 26.6411 19.6429C26.6084 19.6633 26.5828 19.6922 26.5642 19.7295C26.5502 19.7577 26.5426 19.7867 26.5415 19.8164C26.5407 19.8464 26.5454 19.8752 26.5557 19.9028C26.5661 19.931 26.581 19.9563 26.6005 19.979C26.6202 20.0017 26.6436 20.0198 26.6706 20.0333C26.7062 20.051 26.7438 20.059 26.7835 20.0572C26.8231 20.0558 26.8599 20.0449 26.8941 20.0246C26.9281 20.0045 26.9546 19.9755 26.9735 19.9375Z" fill="white"/>
<path d="M25.1475 22.9526L24.3932 22.2697L24.476 22.1783L25.1344 22.7746L25.1384 22.7702L25.1829 22.4753L25.2757 22.5594L25.2302 22.8613L25.1475 22.9526Z" fill="white"/>
<path d="M22.4899 24.0467L22.5869 25.0508L22.5911 25.0575L23.0344 24.7769L23.0929 24.8693L22.5421 25.2179L22.4805 25.1205L22.3808 24.1158L22.4899 24.0467Z" fill="white"/>
<path d="M19.8159 25.7157L19.8434 25.8132L19.6054 26.6156L19.5346 26.6356L19.492 26.4845L19.5398 26.471L19.7196 25.8647L19.7174 25.8571L19.138 26.0208L19.1082 25.9156L19.8159 25.7157ZM19.2982 25.6451L19.3633 25.8755L19.3762 25.9209L19.5748 26.6243L19.462 26.6561L19.1854 25.6769L19.2982 25.6451Z" fill="white"/>
<path d="M16.1933 26.1556C16.2615 26.1566 16.3216 26.1696 16.3736 26.1945C16.4252 26.2198 16.4653 26.254 16.4938 26.2972C16.5223 26.3407 16.5359 26.3899 16.5348 26.4449C16.5345 26.4879 16.5254 26.5275 16.5077 26.5637C16.4899 26.6002 16.4659 26.6305 16.4358 26.6546C16.4053 26.679 16.3714 26.6942 16.3342 26.7003L16.3341 26.7062C16.3826 26.7195 16.421 26.7474 16.4492 26.7899C16.4773 26.8327 16.4909 26.8811 16.4897 26.9351C16.4893 26.9868 16.4755 27.0328 16.4484 27.0731C16.4213 27.1135 16.3844 27.1451 16.3377 27.1679C16.2906 27.1907 16.2373 27.2017 16.1777 27.2008C16.1188 27.1999 16.0663 27.1874 16.0203 27.1632C15.9742 27.139 15.9383 27.1063 15.9124 27.0652C15.8862 27.024 15.8733 26.9776 15.8737 26.9259C15.8749 26.872 15.8903 26.824 15.9201 26.782C15.9495 26.7404 15.9882 26.7137 16.0361 26.7018L16.0362 26.6958C15.9995 26.6887 15.9666 26.6724 15.9375 26.6472C15.9084 26.6222 15.8853 26.5912 15.8683 26.5542C15.8513 26.5175 15.843 26.4776 15.8433 26.4346C15.8444 26.3796 15.8601 26.3308 15.8902 26.2882C15.92 26.2459 15.961 26.2129 16.0134 26.1892C16.0654 26.1658 16.1254 26.1546 16.1933 26.1556ZM16.1916 26.2649C16.1456 26.2642 16.1058 26.271 16.0721 26.2854C16.0384 26.2998 16.0123 26.3205 15.9936 26.3474C15.975 26.3743 15.9653 26.4059 15.9644 26.4423C15.9642 26.4808 15.9736 26.5149 15.9927 26.5446C16.0118 26.5744 16.0381 26.598 16.0716 26.6154C16.1048 26.6327 16.143 26.6418 16.186 26.6424C16.2294 26.643 16.2683 26.6352 16.3026 26.6188C16.3367 26.6024 16.3637 26.5796 16.3837 26.5504C16.4033 26.5213 16.4132 26.4874 16.4135 26.449C16.4144 26.4126 16.4061 26.3807 16.3886 26.3533C16.3708 26.3258 16.3451 26.3044 16.3115 26.289C16.278 26.2736 16.238 26.2655 16.1916 26.2649ZM16.1845 26.7477C16.148 26.7472 16.1156 26.754 16.0873 26.7681C16.0586 26.7823 16.0359 26.8023 16.0193 26.8282C16.0027 26.8542 15.9939 26.8847 15.9931 26.9198C15.9929 26.9542 16.0006 26.9843 16.0161 27.0101C16.0316 27.0361 16.0533 27.0563 16.0813 27.0707C16.1092 27.0853 16.1419 27.0929 16.1793 27.0935C16.2174 27.094 16.2508 27.0874 16.2795 27.0736C16.3082 27.0601 16.3305 27.0406 16.3464 27.015C16.3624 26.9897 16.3704 26.9598 16.3706 26.9254C16.3715 26.8903 16.3641 26.8595 16.3486 26.8331C16.3328 26.8067 16.3108 26.786 16.2825 26.771C16.2542 26.756 16.2215 26.7483 16.1845 26.7477Z" fill="white"/>
<path d="M12.9999 25.779C13.0556 25.7964 13.1022 25.8231 13.1399 25.8592C13.1776 25.8953 13.2038 25.9368 13.2186 25.9837C13.2334 26.0307 13.2344 26.0792 13.2215 26.1294L13.1077 26.0938C13.117 26.0485 13.1085 26.0059 13.082 25.966C13.0552 25.9264 13.017 25.8989 12.9673 25.8834C12.9275 25.8709 12.8892 25.8692 12.8524 25.8781C12.8153 25.887 12.7827 25.905 12.7549 25.932C12.7266 25.9592 12.706 25.9936 12.693 26.035C12.6798 26.0774 12.6773 26.118 12.6856 26.1571C12.6934 26.1963 12.7105 26.2306 12.7367 26.26C12.7629 26.2893 12.7967 26.3106 12.838 26.3239C12.8676 26.3335 12.8996 26.3385 12.9338 26.3388C12.968 26.3394 12.9975 26.3356 13.0222 26.3273L13.1281 26.375L12.9199 26.8346L12.4154 26.677L12.448 26.5726L12.8539 26.6995L12.9775 26.4237L12.9719 26.4219C12.947 26.4315 12.9179 26.4368 12.8846 26.4379C12.8513 26.4389 12.8184 26.4344 12.7858 26.4242C12.7264 26.4056 12.6779 26.3749 12.6403 26.3319C12.6023 26.2891 12.5777 26.2391 12.5665 26.1818C12.5549 26.1244 12.559 26.0642 12.5786 26.0013C12.598 25.9394 12.6292 25.8884 12.6722 25.8484C12.7148 25.8086 12.7647 25.7822 12.8219 25.7692C12.8789 25.7565 12.9383 25.7598 12.9999 25.779Z" fill="white"/>
<path d="M9.49298 25.3656L10.048 24.5128L10.1513 24.58L9.66671 25.3246L9.67171 25.3278L9.96989 25.3251L9.90159 25.43L9.59625 25.4328L9.49298 25.3656Z" fill="white"/>
<path d="M7.80952 22.692C7.84804 22.7358 7.87402 22.7829 7.88747 22.8332C7.90093 22.8836 7.90179 22.9327 7.89006 22.9805C7.87833 23.0284 7.85395 23.0704 7.81691 23.1065L7.73813 23.017C7.76962 22.9831 7.78443 22.9423 7.78254 22.8945C7.78019 22.8467 7.76183 22.8033 7.72747 22.7643C7.6999 22.7329 7.66806 22.7115 7.63194 22.7001C7.59561 22.6884 7.55851 22.6868 7.52064 22.6955C7.48231 22.704 7.44686 22.7227 7.41429 22.7513C7.38098 22.7807 7.35772 22.8142 7.34453 22.8518C7.33087 22.8894 7.32761 22.9276 7.33477 22.9663C7.34192 23.005 7.35971 23.0407 7.38813 23.0735C7.40845 23.0971 7.43318 23.1179 7.4623 23.136C7.49118 23.1543 7.51834 23.1663 7.54378 23.1722L7.60949 23.2679L7.19287 23.5525L6.84359 23.1557L6.92564 23.0835L7.20664 23.4027L7.45553 23.2313L7.45159 23.2268C7.42537 23.2221 7.39776 23.2116 7.36877 23.1952C7.33977 23.1788 7.314 23.1578 7.29146 23.1322C7.25032 23.0854 7.22485 23.0339 7.21506 22.9777C7.2048 22.9214 7.20974 22.8659 7.2299 22.8111C7.24983 22.756 7.28454 22.7067 7.33402 22.6631C7.38275 22.6203 7.43589 22.5929 7.49343 22.5811C7.55051 22.5692 7.60686 22.5726 7.66247 22.5911C7.71783 22.6099 7.76685 22.6436 7.80952 22.692Z" fill="white"/>
<path d="M5.94179 20.0742C5.96938 20.1337 5.98376 20.1914 5.98493 20.2475C5.98595 20.3032 5.97463 20.3532 5.95095 20.3974C5.92683 20.4415 5.89114 20.4759 5.84388 20.5008L5.79121 20.3872C5.81984 20.371 5.84079 20.3488 5.85407 20.3208C5.86704 20.2929 5.87263 20.2616 5.87083 20.227C5.86903 20.1924 5.85991 20.1574 5.84347 20.122C5.82507 20.0823 5.80186 20.0504 5.77382 20.0261C5.74578 20.0019 5.71541 19.9868 5.68268 19.9808C5.64996 19.9748 5.61738 19.9793 5.58492 19.9943C5.55097 20.0101 5.52497 20.0324 5.50694 20.0612C5.4886 20.0901 5.47959 20.1242 5.47992 20.1635C5.48025 20.2028 5.49128 20.2459 5.51302 20.2927L5.5473 20.3667L5.44814 20.4126L5.41386 20.3387C5.39686 20.3021 5.37534 20.273 5.34929 20.2515C5.32311 20.2297 5.29438 20.2165 5.2631 20.212C5.23167 20.2073 5.19973 20.2124 5.16728 20.2274C5.13603 20.2419 5.11204 20.2615 5.09532 20.286C5.07859 20.3106 5.06962 20.3385 5.06841 20.3697C5.06705 20.4006 5.07425 20.4331 5.08999 20.467C5.10476 20.4989 5.12456 20.5262 5.14938 20.549C5.17375 20.5717 5.20102 20.5868 5.23118 20.5943C5.26103 20.602 5.29164 20.5995 5.32298 20.5868L5.37315 20.695C5.32393 20.7156 5.27481 20.7207 5.22577 20.7102C5.17643 20.6998 5.1313 20.6773 5.09038 20.6426C5.04933 20.6076 5.01647 20.5636 4.9918 20.5104C4.96533 20.4533 4.95418 20.3989 4.95836 20.3473C4.96225 20.2959 4.97789 20.2505 5.00527 20.2111C5.03266 20.1718 5.06814 20.142 5.11171 20.1218C5.16369 20.0977 5.21435 20.0908 5.26369 20.1011C5.31289 20.1112 5.35535 20.1362 5.39107 20.1762L5.39829 20.1729C5.38087 20.1101 5.38455 20.0531 5.40932 20.0018C5.43379 19.9507 5.47533 19.9115 5.53392 19.8844C5.5841 19.8611 5.63551 19.8539 5.68816 19.8627C5.74036 19.8713 5.78875 19.8938 5.83333 19.9301C5.8779 19.9663 5.91406 20.0144 5.94179 20.0742Z" fill="white"/>
<path d="M4.90214 17.0532C4.91197 17.1207 4.90869 17.1821 4.8923 17.2373C4.87554 17.2923 4.84812 17.3373 4.81004 17.3723C4.77163 17.4074 4.72519 17.4287 4.67074 17.4363C4.62818 17.4428 4.58763 17.4402 4.54909 17.4284C4.51023 17.4166 4.47652 17.3978 4.44797 17.3718C4.41905 17.3456 4.39864 17.3146 4.38674 17.2788L4.38084 17.2797C4.3754 17.3297 4.35394 17.3719 4.31646 17.4065C4.27866 17.4411 4.23302 17.4622 4.17955 17.4696C4.12847 17.4774 4.08086 17.4711 4.03673 17.4508C3.99259 17.4304 3.95555 17.399 3.9256 17.3565C3.8956 17.3137 3.8763 17.2628 3.86771 17.2038C3.85922 17.1454 3.86327 17.0916 3.87986 17.0423C3.89645 16.9931 3.92299 16.9524 3.95949 16.9203C3.99594 16.8879 4.03971 16.8678 4.09079 16.86C4.14427 16.8525 4.19408 16.8602 4.24023 16.8829C4.28601 16.9054 4.31856 16.9393 4.33789 16.9847L4.34379 16.9838C4.34505 16.9465 4.35584 16.9114 4.37618 16.8787C4.39619 16.846 4.42312 16.8183 4.45697 16.7956C4.49049 16.773 4.52854 16.7584 4.5711 16.7519C4.62556 16.7443 4.67621 16.752 4.72307 16.775C4.76955 16.7977 4.80866 16.833 4.84041 16.8809C4.87178 16.9285 4.89236 16.986 4.90214 17.0532ZM4.79398 17.0689C4.78734 17.0233 4.77424 16.9851 4.75467 16.9541C4.73511 16.9232 4.71057 16.9006 4.68107 16.8865C4.65157 16.8724 4.61877 16.8678 4.58266 16.8727C4.54469 16.8786 4.51253 16.8933 4.48617 16.9169C4.45982 16.9405 4.44071 16.9702 4.42887 17.0061C4.41697 17.0416 4.41412 17.0807 4.42033 17.1233C4.42658 17.1662 4.44052 17.2034 4.46215 17.2347C4.48373 17.2657 4.51052 17.2887 4.5425 17.3038C4.57444 17.3186 4.6094 17.323 4.64737 17.3172C4.68347 17.3123 4.71367 17.299 4.73797 17.2774C4.76223 17.2554 4.77929 17.2267 4.78918 17.1911C4.79906 17.1555 4.80066 17.1148 4.79398 17.0689ZM4.3161 17.1385C4.31085 17.1024 4.29898 17.0715 4.28051 17.0458C4.26198 17.0197 4.2386 17.0005 4.21037 16.9882C4.18214 16.9759 4.15063 16.9721 4.11584 16.9768C4.0818 16.9821 4.0533 16.9945 4.03036 17.0139C4.00708 17.0333 3.99059 17.058 3.98088 17.0879C3.97084 17.1178 3.96852 17.1513 3.97391 17.1883C3.9794 17.226 3.99124 17.2579 4.00944 17.284C4.02731 17.3102 4.05015 17.3292 4.07796 17.3408C4.10544 17.3526 4.1362 17.3558 4.17024 17.3505C4.20503 17.3458 4.23422 17.3336 4.25783 17.3141C4.28138 17.2943 4.29832 17.2693 4.30864 17.239C4.31896 17.2087 4.32144 17.1752 4.3161 17.1385Z" fill="white"/>
<path d="M4.70794 14.1377L4.61942 14.125L4.30331 13.7402C4.2663 13.695 4.23387 13.6576 4.20603 13.6278C4.17786 13.598 4.15071 13.575 4.12459 13.5589C4.09819 13.5424 4.06957 13.5319 4.03876 13.5275C4.00335 13.5224 3.97147 13.5265 3.94312 13.5398C3.91481 13.5528 3.89152 13.5729 3.87322 13.6C3.85493 13.6272 3.84317 13.659 3.83793 13.6954C3.83237 13.734 3.83555 13.769 3.84746 13.8001C3.8591 13.8309 3.87804 13.8562 3.9043 13.8761C3.93061 13.8956 3.96294 13.9081 4.0013 13.9136L3.98461 14.0297C3.9256 14.0212 3.87576 14.0001 3.83508 13.9665C3.79441 13.9329 3.76498 13.8908 3.74681 13.8404C3.72868 13.7896 3.72384 13.7348 3.73228 13.6761C3.74076 13.6171 3.76074 13.5666 3.79221 13.5246C3.82368 13.4827 3.86242 13.4518 3.90844 13.4319C3.95445 13.4121 4.00336 13.4059 4.05516 13.4134C4.09221 13.4187 4.12747 13.4306 4.16095 13.4492C4.19414 13.4673 4.23002 13.4959 4.26858 13.5349C4.30686 13.5736 4.35283 13.6262 4.4065 13.6928L4.61592 13.9538L4.62379 13.9549L4.69111 13.4868L4.7993 13.5023L4.70794 14.1377Z" fill="white"/>
<path d="M5.55114 10.7095C5.52675 10.7625 5.49426 10.8053 5.45367 10.838C5.41308 10.8708 5.36854 10.8915 5.32006 10.9001C5.27158 10.9088 5.22332 10.9035 5.17527 10.8843L5.22515 10.776C5.26891 10.7911 5.31224 10.788 5.35513 10.767C5.39786 10.7454 5.4301 10.711 5.45186 10.6638C5.46931 10.6259 5.47595 10.5881 5.47178 10.5505C5.46775 10.5125 5.45411 10.478 5.43088 10.4469C5.40749 10.4153 5.37609 10.3904 5.33668 10.3723C5.29637 10.3537 5.25633 10.346 5.21656 10.3493C5.17664 10.352 5.14043 10.3645 5.10795 10.3867C5.07546 10.409 5.05 10.4397 5.03155 10.479C5.01822 10.5072 5.00922 10.5382 5.00453 10.5721C4.99954 10.6059 4.99953 10.6357 5.0045 10.6613L4.94365 10.7602L4.51453 10.4947L4.73565 10.0146L4.83493 10.0603L4.65704 10.4466L4.91465 10.6046L4.91714 10.5992C4.91083 10.5733 4.90929 10.5438 4.91252 10.5106C4.91575 10.4775 4.9245 10.4454 4.93877 10.4144C4.96482 10.3579 5.00156 10.3137 5.04901 10.2819C5.09629 10.2497 5.14906 10.2317 5.20733 10.2279C5.26574 10.2238 5.32488 10.2356 5.38475 10.2632C5.44372 10.2903 5.49027 10.3278 5.52441 10.3756C5.55839 10.423 5.57817 10.4758 5.58374 10.5342C5.58902 10.5924 5.57815 10.6509 5.55114 10.7095Z" fill="white"/>
<path d="M6.78158 8.07756L6.70537 8.01075L6.46812 7.20813L6.51659 7.15284L6.63465 7.25634L6.6019 7.2937L6.78118 7.90014L6.78716 7.90538L7.1841 7.45258L7.2663 7.52463L6.78158 8.07756ZM7.25421 7.85497L7.07414 7.69711L7.03864 7.66599L6.48908 7.18422L6.56637 7.09605L7.3315 7.7668L7.25421 7.85497Z" fill="white"/>
<path d="M9.27063 5.90613L9.22296 5.83047L9.31113 5.34037C9.32152 5.28293 9.32903 5.23396 9.33366 5.19346C9.33811 5.15268 9.33802 5.11712 9.33338 5.08676C9.32884 5.05595 9.31827 5.02738 9.30168 5.00104C9.28261 4.97077 9.25881 4.94916 9.23029 4.9362C9.20205 4.92307 9.17166 4.91833 9.13913 4.922C9.1066 4.92566 9.07478 4.93729 9.04367 4.95689C9.0106 4.97773 8.98607 5.00278 8.97006 5.03205C8.95415 5.06086 8.94715 5.09169 8.94906 5.12455C8.95125 5.15723 8.96268 5.18996 8.98334 5.22275L8.88413 5.28525C8.85235 5.23481 8.83608 5.18321 8.83533 5.13044C8.83458 5.07767 8.84753 5.02802 8.87418 4.98147C8.90112 4.93475 8.93967 4.89558 8.98983 4.86398C9.04027 4.8322 9.09168 4.81468 9.14405 4.81144C9.19642 4.80819 9.24506 4.81767 9.28998 4.83987C9.3349 4.86207 9.3713 4.89531 9.3992 4.93959C9.41915 4.97126 9.43292 5.00584 9.4405 5.04335C9.44818 5.08039 9.44966 5.12624 9.44495 5.18089C9.44033 5.23508 9.43005 5.3042 9.4141 5.38824L9.35104 5.71688L9.35528 5.7236L9.75546 5.47147L9.81372 5.56395L9.27063 5.90613Z" fill="white"/>
<path d="M12.155 3.31439C12.1953 3.3035 12.2377 3.29994 12.2821 3.30373C12.3264 3.30751 12.3701 3.32217 12.4129 3.34769C12.4557 3.37289 12.4955 3.41252 12.5322 3.46658C12.569 3.52064 12.5999 3.59265 12.625 3.68262C12.6493 3.76972 12.6625 3.8494 12.6648 3.92167C12.6673 3.99353 12.6595 4.0569 12.6415 4.11179C12.6238 4.1666 12.5962 4.2121 12.5589 4.24831C12.5218 4.28442 12.4757 4.31018 12.4205 4.32557C12.3656 4.34087 12.3137 4.34368 12.2645 4.334C12.2156 4.32391 12.172 4.30323 12.1338 4.27195C12.0957 4.24027 12.0656 4.19966 12.0436 4.15011L12.1603 4.11754C12.1834 4.15959 12.2147 4.19094 12.2541 4.21157C12.2938 4.23179 12.3395 4.2347 12.3912 4.22029C12.4668 4.1992 12.5172 4.14954 12.5425 4.07131C12.5681 3.99299 12.5641 3.89353 12.5305 3.77293L12.5228 3.77506C12.5124 3.80685 12.4977 3.83589 12.4785 3.86221C12.4594 3.88852 12.4363 3.91112 12.4092 3.93001C12.3822 3.9489 12.3518 3.96307 12.3179 3.9725C12.2618 3.98816 12.2064 3.98865 12.1517 3.97397C12.0973 3.95888 12.0493 3.93085 12.0076 3.88986C11.9661 3.84847 11.9366 3.79619 11.919 3.73302C11.9023 3.67303 11.9004 3.61442 11.9133 3.55718C11.9264 3.49952 11.9533 3.44906 11.9938 3.40577C12.0347 3.3624 12.0884 3.33194 12.155 3.31439ZM12.1844 3.41967C12.1442 3.43088 12.1108 3.45103 12.0842 3.48012C12.0578 3.5088 12.0399 3.54267 12.0305 3.58174C12.0213 3.6204 12.0225 3.66015 12.0338 3.70099C12.0452 3.74182 12.0645 3.7765 12.0917 3.80502C12.1192 3.83313 12.1513 3.85271 12.1881 3.86378C12.2251 3.87443 12.2637 3.87415 12.3039 3.86294C12.3342 3.85449 12.3608 3.84071 12.3837 3.82161C12.4064 3.80219 12.4247 3.7794 12.4384 3.75323C12.4523 3.72666 12.4611 3.69858 12.4649 3.66898C12.4686 3.63907 12.4664 3.60959 12.4583 3.58056C12.4476 3.54228 12.4283 3.50896 12.4005 3.48062C12.373 3.45219 12.3402 3.4321 12.3022 3.42035C12.2645 3.40851 12.2252 3.40829 12.1844 3.41967Z" fill="white"/>
<path d="M12.3501 8.31437C12.5528 8.32761 12.7157 8.39241 12.8627 8.5335C12.9962 8.69026 13.0796 8.85666 13.0866 9.06449C13.073 9.17996 13.057 9.29813 12.9978 9.39963C13.1604 9.53793 13.3385 9.64711 13.5204 9.75759C13.5944 9.80251 13.6682 9.84772 13.742 9.8929C13.7794 9.91581 13.8168 9.93869 13.8543 9.96157C14.0155 10.0602 14.1759 10.1601 14.3359 10.2607C14.3862 10.2923 14.4365 10.3239 14.4869 10.3554C14.5117 10.3711 14.5366 10.3867 14.5622 10.4028C14.6992 10.4887 14.8365 10.5742 14.9738 10.6597C15.0159 10.6859 15.0159 10.6859 15.0588 10.7126C15.1157 10.748 15.1725 10.7834 15.2293 10.8188C15.3422 10.8891 15.4551 10.9594 15.568 11.0298C15.6238 11.0646 15.6796 11.0994 15.7355 11.1341C15.8665 11.2158 15.9976 11.2975 16.1285 11.3793C16.1899 11.4177 16.2513 11.456 16.3128 11.4943C16.3558 11.5212 16.3987 11.5481 16.4417 11.575C16.516 11.6213 16.5904 11.6674 16.6649 11.7134C16.6846 11.7257 16.7043 11.7381 16.7245 11.7508C16.8501 11.8278 16.9291 11.8495 17.0714 11.8172C17.2159 11.7704 17.2933 11.6927 17.3668 11.5625C17.3977 11.4758 17.4172 11.3878 17.4362 11.2978C17.4474 11.2484 17.4587 11.199 17.4699 11.1496C17.4752 11.126 17.4804 11.1024 17.4858 11.078C17.5037 10.9993 17.5241 10.9214 17.5454 10.8436C17.5832 10.7034 17.618 10.5625 17.6524 10.4215C17.6934 10.2534 17.7361 10.086 17.781 9.91895C17.8111 9.80388 17.8393 9.68839 17.8675 9.57284C17.9347 9.29786 18.0053 9.02422 18.0859 8.75283C18.0677 8.74057 18.0495 8.72832 18.0308 8.71569C17.9066 8.60614 17.8165 8.48438 17.7919 8.31769C17.7835 8.17979 17.8224 8.06387 17.9002 7.95057C18.016 7.85508 18.1292 7.77476 18.2791 7.753C18.4792 7.7896 18.6126 7.83585 18.741 7.99757C18.8172 8.13955 18.8507 8.25689 18.8082 8.41544C18.7619 8.54786 18.7027 8.62601 18.5944 8.71429C18.5781 8.7276 18.5618 8.74091 18.545 8.75462C18.5326 8.76474 18.5201 8.77485 18.5073 8.78528C18.5226 8.81777 18.5226 8.81777 18.5383 8.85093C18.7866 9.37744 19.0349 9.90401 19.2831 10.4306C19.4031 10.6853 19.5232 10.9399 19.6433 11.1945C19.748 11.4164 19.8526 11.6383 19.9571 11.8602C20.0125 11.9777 20.0679 12.0953 20.1234 12.2128C20.1756 12.3233 20.2277 12.4338 20.2797 12.5444C20.2989 12.5851 20.3181 12.6257 20.3373 12.6664C20.3634 12.7217 20.3895 12.777 20.4155 12.8324C20.427 12.8567 20.427 12.8567 20.4388 12.8816C20.4908 12.9927 20.4908 12.9927 20.4982 13.0565C20.4461 13.1242 20.3798 13.1721 20.3117 13.223C20.2765 13.2494 20.2765 13.2494 20.2406 13.2764C20.2149 13.2955 20.1893 13.3146 20.1629 13.3342C20.136 13.3543 20.1091 13.3744 20.0814 13.3951C19.7417 13.6488 19.4006 13.9006 19.0586 14.1513C19.0332 14.1699 19.0077 14.1886 18.9815 14.2078C17.4932 15.2968 15.9299 16.3146 14.3342 17.2388C14.319 17.2476 14.3039 17.2564 14.2883 17.2654C13.9081 17.4856 13.5269 17.7042 13.1447 17.9208C13.1171 17.9366 13.0894 17.9523 13.0609 17.9685C13.0353 17.983 13.0098 17.9974 12.9834 18.0123C12.9613 18.0248 12.9391 18.0374 12.9163 18.0503C12.856 18.082 12.7956 18.1079 12.732 18.1319C12.5699 17.9805 12.4262 17.8138 12.2811 17.6463C12.253 17.6139 12.2249 17.5816 12.1967 17.5493C12.1208 17.462 12.0449 17.3745 11.9691 17.2871C11.9057 17.214 11.8422 17.1409 11.7788 17.0678C11.6291 16.8955 11.4795 16.7231 11.3299 16.5507C11.1757 16.3729 11.0214 16.1952 10.867 16.0176C10.7343 15.8649 10.6016 15.7121 10.469 15.5593C10.3899 15.4681 10.3108 15.3769 10.2316 15.2858C10.1572 15.2002 10.0828 15.1145 10.0086 15.0288C9.98132 14.9973 9.95405 14.9659 9.92675 14.9346C9.88945 14.8917 9.85225 14.8487 9.81508 14.8058C9.79425 14.7818 9.77343 14.7578 9.75197 14.733C9.70046 14.6699 9.6558 14.6057 9.61271 14.5366C9.59124 14.5533 9.59124 14.5533 9.56934 14.5704C9.44444 14.6607 9.34868 14.7157 9.1921 14.7067C9.05316 14.6832 8.95487 14.6443 8.86101 14.5361C8.77782 14.4167 8.7141 14.3133 8.72263 14.1639C8.76017 13.9847 8.80671 13.8891 8.96153 13.7846C9.08811 13.7042 9.17773 13.6635 9.32921 13.6952C9.49282 13.7387 9.56224 13.7933 9.65572 13.937C9.67976 13.9736 9.67976 13.9736 9.70429 14.011C9.74554 14.0804 9.74554 14.0804 9.75946 14.1372C9.7777 14.1882 9.7777 14.1882 9.84445 14.2039C9.88487 14.211 9.88487 14.211 9.9261 14.2183C9.95244 14.2232 9.97878 14.2281 10.0059 14.2331C10.0806 14.2448 10.1552 14.2555 10.23 14.2658C10.3741 14.2858 10.5169 14.311 10.6599 14.3371C10.8663 14.3743 11.0728 14.4101 11.2798 14.4437C11.3856 14.4609 11.4913 14.4785 11.5971 14.4962C11.6247 14.5009 11.6247 14.5009 11.653 14.5056C11.7554 14.5228 11.8578 14.5406 11.96 14.559C12.4581 14.6819 12.4581 14.6819 12.9238 14.5651C13.0172 14.4893 13.048 14.4072 13.0678 14.2912C13.0794 14.1772 13.0661 14.0723 13.0479 13.9597C13.0431 13.9279 13.0431 13.9279 13.0382 13.8955C13.0277 13.826 13.0168 13.7566 13.0059 13.6871C12.9984 13.6381 12.9909 13.589 12.9835 13.5399C12.9681 13.4387 12.9525 13.3375 12.9369 13.2363C12.9155 13.0971 12.8946 12.9579 12.8739 12.8186C12.8707 12.7972 12.8676 12.7758 12.8643 12.7537C12.8579 12.7109 12.8516 12.668 12.8452 12.6252C12.8046 12.3517 12.7635 12.0782 12.7221 11.8048C12.7191 11.7848 12.716 11.7647 12.7129 11.7441C12.6977 11.6438 12.6825 11.5436 12.6672 11.4433C12.6331 11.219 12.6 10.9946 12.5676 10.7701C12.5603 10.7198 12.553 10.6694 12.5457 10.6191C12.5316 10.5224 12.5178 10.4256 12.5041 10.3288C12.4977 10.2846 12.4912 10.2404 12.4848 10.1962C12.4807 10.1663 12.4807 10.1663 12.4764 10.1358C12.459 10.0173 12.4321 9.90799 12.3937 9.79439C12.3628 9.79558 12.3318 9.79677 12.2999 9.798C12.1276 9.79166 11.9714 9.70924 11.8379 9.60346C11.7045 9.433 11.6122 9.2699 11.6 9.05089C11.612 8.95451 11.612 8.95451 11.6373 8.87254C11.6472 8.83371 11.6472 8.83371 11.6573 8.79409C11.7731 8.50632 12.041 8.32718 12.3501 8.31437ZM14.8311 13.7123C14.7878 14.1241 15.0088 14.5085 15.2498 14.8241C15.4087 15.0069 15.5935 15.1339 15.818 15.2224C15.844 15.234 15.8699 15.2456 15.8967 15.2575C16.0607 15.2919 16.2108 15.2821 16.3565 15.1956C16.5028 15.0869 16.5682 14.9626 16.5998 14.7846C16.6442 14.3463 16.4563 13.9609 16.19 13.6247C15.97 13.375 15.703 13.1975 15.3691 13.1614C15.0277 13.1495 14.8861 13.4162 14.8311 13.7123ZM12.6736 15.9227C12.6629 16.1343 12.7358 16.2825 12.8618 16.4462C13.0395 16.634 13.2902 16.8276 13.5568 16.8416C13.7371 16.8446 13.8511 16.8392 13.9958 16.7211C14.0737 16.6033 14.0854 16.4872 14.068 16.3487C13.9488 16.0357 13.7123 15.833 13.4118 15.6967C13.2435 15.637 13.072 15.6068 12.8977 15.6531C12.7661 15.72 12.7142 15.7804 12.6736 15.9227ZM18.0062 12.5762C17.9773 12.8771 18.0462 13.2172 18.2358 13.4575C18.3549 13.5706 18.4715 13.6536 18.6405 13.6645C18.7697 13.627 18.8638 13.5584 18.9373 13.4474C19.0661 13.2009 19.0458 12.9158 18.9769 12.6549C18.9116 12.4704 18.8005 12.2675 18.6292 12.1633C18.5807 12.1403 18.5807 12.1403 18.5339 12.1236C18.5106 12.1141 18.4872 12.1046 18.4632 12.0948C18.1903 12.0906 18.0521 12.335 18.0062 12.5762Z" fill="#E30808"/>
<path d="M13.243 19.1343C13.2616 19.1236 13.2803 19.1129 13.2994 19.1019C13.5183 18.977 13.74 18.8572 13.9615 18.7372C14.3462 18.5285 14.7293 18.3175 15.1072 18.0967C15.1232 18.0874 15.1392 18.0781 15.1556 18.0685C15.2547 18.0106 15.3534 17.9521 15.4519 17.8932C15.4936 17.8682 15.5354 17.8433 15.5772 17.8185C16.1121 17.5004 16.6332 17.1615 17.1538 16.8207C17.1874 16.7988 17.1874 16.7988 17.2216 16.7765C18.5302 15.9206 19.8097 15.0212 21.0361 14.0502C21.3838 13.7763 21.3838 13.7763 21.5813 13.7675C21.7158 13.7898 21.8269 13.8218 21.9108 13.9354C21.9246 13.9562 21.9385 13.977 21.9527 13.9985C21.9684 14.0221 21.9842 14.0458 22.0004 14.0701C22.0257 14.1085 22.0257 14.1085 22.0515 14.1478C22.0689 14.1741 22.0863 14.2004 22.1042 14.2276C22.141 14.2834 22.1777 14.3392 22.2143 14.3951C22.2704 14.4805 22.327 14.5655 22.3835 14.6506C22.4192 14.7048 22.4548 14.7591 22.4904 14.8134C22.5074 14.8388 22.5243 14.8642 22.5418 14.8903C22.6379 15.0382 22.6924 15.1432 22.6779 15.3236C22.6329 15.5006 22.5305 15.5905 22.3936 15.7054C22.3744 15.7222 22.3552 15.739 22.3353 15.7564C22.0854 15.9731 21.8272 16.1807 21.5716 16.3907C21.5912 16.378 21.6109 16.3653 21.6311 16.3522C21.8161 16.2325 22.0013 16.1132 22.1868 15.9943C22.2822 15.9332 22.3775 15.8719 22.4725 15.8103C22.5642 15.7508 22.6562 15.6918 22.7483 15.6331C22.7835 15.6105 22.8185 15.5879 22.8534 15.5651C22.9024 15.5332 22.9516 15.5019 23.0009 15.4706C23.0289 15.4526 23.0568 15.4346 23.0856 15.4161C23.1605 15.3831 23.1605 15.3831 23.229 15.3959C23.2816 15.4271 23.2816 15.4271 23.3146 15.4864C23.3305 15.5491 23.3305 15.5491 23.3156 15.6204C23.2538 15.6686 23.2538 15.6686 23.1679 15.7249C23.1521 15.7353 23.1363 15.7457 23.12 15.7565C23.0665 15.7917 23.0129 15.8267 22.9592 15.8616C22.9206 15.8869 22.8821 15.9122 22.8435 15.9376C22.7372 16.0075 22.6307 16.0771 22.5241 16.1466C22.4094 16.2216 22.2948 16.2968 22.1802 16.372C21.9556 16.5193 21.7307 16.6664 21.5058 16.8134C21.3231 16.9329 21.1405 17.0524 20.9578 17.1719C20.4406 17.5105 19.9232 17.849 19.4056 18.1871C19.3777 18.2054 19.3498 18.2236 19.321 18.2424C19.293 18.2607 19.2651 18.279 19.2363 18.2978C18.7829 18.594 18.3299 18.8907 17.8769 19.1876C17.4124 19.4921 16.9476 19.7962 16.4827 20.1001C16.2214 20.2708 15.9602 20.4416 15.6993 20.6128C15.4772 20.7586 15.2548 20.904 15.0322 21.0491C14.9186 21.1231 14.805 21.1973 14.6917 21.2719C14.5881 21.3401 14.4842 21.4079 14.3802 21.4754C14.3424 21.5 14.3048 21.5247 14.2673 21.5495C14.2165 21.5832 14.1653 21.6163 14.1141 21.6492C14.0857 21.6678 14.0573 21.6863 14.0281 21.7055C13.953 21.7392 13.953 21.7392 13.8845 21.7265C13.8152 21.6852 13.8026 21.6503 13.783 21.5732C13.8046 21.4702 13.8583 21.4539 13.9449 21.396C13.9603 21.3856 13.9758 21.3752 13.9917 21.3645C14.0428 21.3301 14.0942 21.296 14.1455 21.262C14.181 21.2382 14.2165 21.2144 14.2519 21.1906C14.3453 21.128 14.4389 21.0657 14.5325 21.0033C14.6279 20.9397 14.7232 20.8759 14.8185 20.812C15.0056 20.6868 15.1929 20.5618 15.3802 20.437C15.3591 20.4477 15.3591 20.4477 15.3376 20.4587C15.1906 20.5333 15.0433 20.6075 14.8958 20.6814C14.8409 20.709 14.7861 20.7368 14.7313 20.7646C14.6523 20.8048 14.5731 20.8444 14.4938 20.884C14.4574 20.9027 14.4574 20.9027 14.4203 20.9217C14.2424 21.0098 14.0773 21.0702 13.8806 21.013C13.7659 20.9685 13.7326 20.9369 13.6651 20.8358C13.6487 20.8113 13.6323 20.7869 13.6155 20.7617C13.5978 20.7351 13.5802 20.7084 13.562 20.681C13.5439 20.6537 13.5259 20.6264 13.5072 20.5983C13.4689 20.5404 13.4307 20.4824 13.3926 20.4244C13.3438 20.3504 13.2946 20.2766 13.2452 20.203C13.1981 20.1324 13.1516 20.0615 13.1051 19.9906C13.0873 19.9643 13.0696 19.938 13.0513 19.9109C12.9422 19.743 12.9042 19.6538 12.9403 19.4564C12.9974 19.278 13.0843 19.2244 13.243 19.1343ZM14.6044 18.9658C14.5958 19.0082 14.5958 19.0082 14.587 19.0514C14.5808 19.0819 14.5745 19.1124 14.568 19.1438C14.5616 19.1759 14.5552 19.208 14.5486 19.2411C14.542 19.2733 14.5355 19.3055 14.5287 19.3386C14.5124 19.4184 14.4963 19.4983 14.4803 19.5782C14.5612 19.632 14.6351 19.6522 14.73 19.6714C14.7587 19.6772 14.7873 19.6831 14.8168 19.6892C14.8466 19.6951 14.8764 19.7011 14.9071 19.7072C14.9524 19.7164 14.9524 19.7164 14.9986 19.7258C15.073 19.741 15.1474 19.756 15.2219 19.7708C15.2715 19.6079 15.3111 19.4455 15.3448 19.2787C15.3495 19.2559 15.3542 19.2331 15.359 19.2097C15.3704 19.1542 15.3818 19.0988 15.393 19.0433C15.231 18.9943 15.0692 18.9534 14.9036 18.9186C14.8812 18.9137 14.8587 18.9088 14.8356 18.9037C14.8036 18.8969 14.8036 18.8969 14.7709 18.89C14.7517 18.8859 14.7324 18.8818 14.7126 18.8776C14.6336 18.8686 14.6248 18.8914 14.6044 18.9658ZM20.4092 15.175C20.4 15.2197 20.4 15.2197 20.3906 15.2654C20.3839 15.2975 20.3772 15.3296 20.3703 15.3628C20.3633 15.397 20.3563 15.4313 20.3493 15.4655C20.3422 15.4998 20.3351 15.5341 20.328 15.5684C20.3105 15.6527 20.2932 15.737 20.2759 15.8213C20.4326 15.8695 20.5895 15.9081 20.7501 15.9405C20.7818 15.947 20.7818 15.947 20.814 15.9536C20.8653 15.9642 20.9165 15.9746 20.9677 15.9849C21.0198 15.9061 21.0407 15.8353 21.0593 15.743C21.0649 15.716 21.0704 15.6889 21.0761 15.6611C21.0845 15.619 21.0845 15.619 21.093 15.576C21.0988 15.5475 21.1046 15.519 21.1106 15.4897C21.1248 15.4195 21.1389 15.3492 21.1529 15.279C21.0743 15.2273 21.0036 15.2059 20.9117 15.1869C20.8713 15.1785 20.8713 15.1785 20.8301 15.1699C20.8021 15.1643 20.7741 15.1587 20.7453 15.1528C20.7028 15.144 20.7028 15.144 20.6595 15.1349C20.4947 15.0765 20.4947 15.0765 20.4092 15.175ZM17.6213 17.2741C17.6153 17.3038 17.6093 17.3335 17.603 17.3642C17.5964 17.3963 17.5898 17.4284 17.583 17.4615C17.5762 17.4956 17.5693 17.5297 17.5625 17.5638C17.5555 17.5981 17.5485 17.6323 17.5415 17.6666C17.5243 17.7506 17.5073 17.8347 17.4905 17.9188C17.6533 17.9683 17.8158 18.0079 17.9825 18.0417C18.0053 18.0464 18.0281 18.0511 18.0516 18.0559C18.107 18.0673 18.1625 18.0786 18.218 18.0899C18.2675 17.927 18.3071 17.7646 18.3409 17.5978C18.3456 17.575 18.3503 17.5522 18.3551 17.5287C18.3665 17.4733 18.3778 17.4178 18.389 17.3623C18.3107 17.3109 18.24 17.2891 18.1486 17.2698C18.1218 17.2641 18.095 17.2584 18.0673 17.2526C18.0394 17.2469 18.0115 17.2412 17.9828 17.2353C17.9547 17.2293 17.9265 17.2232 17.8976 17.217C17.8708 17.2115 17.844 17.2059 17.8165 17.2002C17.7919 17.1951 17.7674 17.19 17.7421 17.1847C17.6537 17.1734 17.6445 17.1887 17.6213 17.2741Z" fill="#DE7E29"/>
<path d="M12.8828 18.3125C12.8989 18.3034 12.9149 18.2943 12.9314 18.285C13.0888 18.1959 13.2461 18.1067 13.4033 18.0173C13.484 17.9715 13.5647 17.9256 13.6455 17.88C14.6897 17.2892 15.7075 16.6617 16.7106 16.0035C16.8116 15.9373 16.9126 15.8714 17.0137 15.8055C18.0409 15.1368 19.046 14.4417 20.0242 13.7031C20.0818 13.6597 20.1395 13.6164 20.1972 13.5731C20.3336 13.4706 20.4698 13.368 20.6058 13.2652C20.6318 13.3123 20.6578 13.3595 20.6838 13.4066C20.6982 13.4328 20.7127 13.459 20.7276 13.4861C20.7712 13.5664 20.8107 13.6469 20.8482 13.7303C20.8598 13.7559 20.8715 13.7814 20.8834 13.8078C20.9077 13.8684 20.9077 13.8684 20.9002 13.9041C20.869 13.9307 20.8367 13.956 20.804 13.9808C20.7724 14.0049 20.7724 14.0049 20.7402 14.0294C20.7169 14.0469 20.6937 14.0644 20.6697 14.0825C20.6457 14.1008 20.6216 14.119 20.5968 14.1378C20.5175 14.1979 20.438 14.2578 20.3585 14.3177C20.3315 14.3382 20.3044 14.3586 20.2766 14.3797C19.9283 14.6426 19.5786 14.9036 19.2246 15.1589C19.2082 15.1707 19.1918 15.1826 19.1749 15.1948C19.0729 15.2683 18.9706 15.3411 18.868 15.4136C18.8239 15.4448 18.7798 15.4761 18.7357 15.5073C18.2043 15.8841 17.6612 16.2426 17.1158 16.5986C17.0932 16.6134 17.0707 16.6281 17.0475 16.6432C15.9733 17.3448 14.8804 18.0039 13.7601 18.629C13.7351 18.6429 13.7102 18.6569 13.6845 18.6713C13.5747 18.7323 13.4663 18.7913 13.3498 18.8386C13.3023 18.7888 13.255 18.7389 13.2077 18.689C13.1946 18.6752 13.1814 18.6614 13.1679 18.6472C13.0948 18.5698 13.0254 18.4908 12.9589 18.4076C12.9446 18.3898 12.9303 18.3719 12.9155 18.3534C12.9047 18.3399 12.8939 18.3264 12.8828 18.3125Z" fill="#F9E342"/>
<path d="M10.4411 11.7076C10.5763 11.7185 10.6882 11.739 10.797 11.8252C10.8994 11.9589 10.9916 12.0814 10.9861 12.2558C10.9724 12.3379 10.9724 12.3379 10.9562 12.3985C11.0629 12.4852 11.1833 12.5257 11.3106 12.5729C11.3589 12.5911 11.4072 12.6093 11.4555 12.6275C11.4802 12.6368 11.5049 12.646 11.5303 12.6555C11.711 12.7234 11.8911 12.793 12.0712 12.8625C12.1405 12.8891 12.21 12.9154 12.2794 12.9417C12.3247 12.9591 12.3699 12.9765 12.4151 12.994C12.4361 13.0018 12.457 13.0097 12.4786 13.0177C12.4981 13.0253 12.5175 13.0328 12.5375 13.0406C12.5545 13.0471 12.5715 13.0536 12.589 13.0603C12.6534 13.0947 12.6856 13.1194 12.7289 13.1796C12.7511 13.2584 12.7613 13.3381 12.7716 13.4193C12.7749 13.4427 12.7781 13.4661 12.7815 13.4902C12.7882 13.5397 12.7948 13.5891 12.8012 13.6386C12.811 13.7143 12.8216 13.7899 12.8322 13.8654C12.8387 13.9135 12.8452 13.9616 12.8516 14.0097C12.8547 14.0323 12.8579 14.0549 12.8612 14.0781C12.886 14.2764 12.886 14.2764 12.8323 14.3742C12.7818 14.4265 12.7818 14.4265 12.7029 14.4588C12.6106 14.4571 12.522 14.438 12.4316 14.4206C12.3798 14.4119 12.328 14.4033 12.2762 14.3948C12.2074 14.3836 12.1386 14.3722 12.0701 14.3593C12.0177 14.3506 12.0177 14.3506 11.9653 14.3569C11.893 14.3593 11.8488 14.351 11.782 14.3217C11.6771 14.2118 11.5986 14.086 11.5168 13.9584C11.4924 13.9215 11.4679 13.8846 11.4434 13.8478C11.3791 13.751 11.3158 13.6536 11.2526 13.5561C11.1879 13.4566 11.1224 13.3577 11.0569 13.2587C10.9287 13.0646 10.8015 12.8698 10.6749 12.6747C10.6422 12.6901 10.6422 12.6901 10.6088 12.7057C10.4839 12.7573 10.3848 12.7479 10.2568 12.7093C10.1063 12.6245 10.0233 12.5047 9.96822 12.3437C9.94271 12.2095 9.96055 12.0703 10.0288 11.9517C10.1301 11.8308 10.2808 11.7226 10.4411 11.7076Z" fill="#DE7E29"/>
<path d="M16.0079 8.06736C16.1439 8.07132 16.2702 8.11512 16.3712 8.20764C16.4808 8.33684 16.5311 8.46038 16.5246 8.63077C16.5048 8.74723 16.4627 8.84629 16.386 8.93686C16.3646 8.95082 16.3433 8.96477 16.3213 8.97915C16.3413 9.00896 16.3413 9.00896 16.3617 9.03938C16.4873 9.22682 16.6123 9.4146 16.7368 9.60278C16.8008 9.69951 16.865 9.7961 16.9297 9.89239C16.9921 9.98534 17.054 10.0786 17.1156 10.1722C17.1391 10.2078 17.1629 10.2433 17.1868 10.2786C17.2203 10.3282 17.2531 10.3782 17.2858 10.4283C17.3009 10.4501 17.3009 10.4501 17.3162 10.4722C17.369 10.555 17.3792 10.5931 17.3668 10.6919C17.3584 10.7195 17.3499 10.7471 17.3413 10.7755C17.3361 10.8013 17.3309 10.8272 17.3255 10.8538C17.2948 11.0053 17.2611 11.1547 17.217 11.3029C17.2029 11.3508 17.1914 11.3994 17.1806 11.4481C17.132 11.5532 17.0812 11.5808 16.9761 11.6299C16.85 11.602 16.7498 11.54 16.6437 11.4691C16.6275 11.4585 16.6113 11.4478 16.5946 11.4369C16.5606 11.4145 16.5266 11.392 16.4927 11.3695C16.4411 11.3351 16.3893 11.3011 16.3374 11.2671C16.3042 11.2452 16.271 11.2233 16.2378 11.2014C16.2225 11.1913 16.2072 11.1812 16.1914 11.1708C16.1494 11.1428 16.1077 11.1141 16.0661 11.0855C16.0417 11.0689 16.0173 11.0523 15.9922 11.0353C15.9384 10.9842 15.9384 10.9842 15.9246 10.9259C15.9257 10.9046 15.9267 10.8833 15.9278 10.8614C15.929 10.8254 15.929 10.8254 15.9303 10.7888C15.9319 10.7632 15.9335 10.7376 15.9351 10.7112C15.9362 10.6847 15.9373 10.6581 15.9385 10.6307C15.942 10.5508 15.9464 10.4709 15.951 10.3911C15.9531 10.3488 15.9553 10.3066 15.9574 10.2643C15.9613 10.1871 15.9657 10.1098 15.9702 10.0326C15.9879 9.72153 15.9994 9.40932 15.9985 9.09772C15.9834 9.09385 15.9682 9.08998 15.9526 9.08599C15.7669 9.0358 15.6588 8.9789 15.5561 8.81236C15.4961 8.68686 15.4894 8.55967 15.5249 8.42595C15.6156 8.20828 15.7734 8.08413 16.0079 8.06736Z" fill="#DE7E29"/>
<path d="M23.5516 15.1171C23.5707 15.1046 23.5898 15.092 23.6095 15.0791C23.6397 15.0597 23.6397 15.0597 23.6705 15.0399C23.6904 15.0267 23.7103 15.0134 23.7309 14.9998C23.7596 14.9811 23.7596 14.9811 23.7889 14.9621C23.8065 14.9506 23.8242 14.9392 23.8423 14.9274C23.8898 14.9043 23.8898 14.9043 23.9611 14.9193C24.0158 14.9913 24.0158 14.9913 24.0598 15.0703C24.0418 15.156 24.0275 15.1608 23.957 15.2072C23.93 15.225 23.93 15.225 23.9024 15.2432C23.8834 15.2554 23.8644 15.2675 23.8448 15.2801C23.8261 15.2926 23.8074 15.305 23.7881 15.3179C23.77 15.3296 23.7518 15.3414 23.7332 15.3535C23.7166 15.3643 23.7 15.3751 23.6829 15.3862C23.635 15.4095 23.635 15.4095 23.542 15.4087C23.486 15.3376 23.486 15.3376 23.4434 15.2577C23.4617 15.1703 23.4792 15.1648 23.5516 15.1171Z" fill="#E30808"/>
<path d="M13.266 21.841C13.2884 21.8265 13.2884 21.8265 13.3112 21.8117C13.3259 21.8017 13.3405 21.7916 13.3556 21.7812C13.3988 21.7529 13.3988 21.7529 13.4774 21.7127C13.5629 21.7493 13.5629 21.7493 13.6086 21.831C13.619 21.8585 13.6293 21.886 13.64 21.9144C13.5969 21.9883 13.5336 22.02 13.4626 22.0669C13.4222 22.0939 13.4222 22.0939 13.3809 22.1216C13.3089 22.1615 13.3089 22.1615 13.2376 22.1466C13.1829 22.0746 13.1829 22.0746 13.1389 21.9956C13.1575 21.907 13.1932 21.8897 13.266 21.841Z" fill="#E30808"/>
</svg>
