<svg width="129" height="128" viewBox="0 0 129 128" fill="none" xmlns="http://www.w3.org/2000/svg">
<circle cx="64.9302" cy="63.9995" r="54.1073" stroke="#F9E342" stroke-width="3.91137"/>
<circle cx="64.9407" cy="64.0003" r="48.8922" stroke="black" stroke-width="6.51896" stroke-dasharray="13.04 13.04"/>
<circle cx="64.9362" cy="64" r="48.8922" transform="rotate(15.1988 64.9362 64)" stroke="#E30808" stroke-width="6.51896" stroke-dasharray="13.04 13.04"/>
<path d="M64.9656 12.4727L64.8523 16.8125L64.3268 16.7988L64.4257 13.0099L64.4003 13.0092L63.3224 13.6851L63.3363 13.1511L64.4401 12.4589L64.9656 12.4727Z" fill="white"/>
<path d="M78.1953 14.1512C78.3649 14.2056 78.5248 14.2909 78.675 14.4073C78.8252 14.5237 78.9476 14.6773 79.0421 14.8681C79.137 15.0575 79.1877 15.2916 79.194 15.5704C79.2004 15.8492 79.1443 16.1788 79.0257 16.5593C78.911 16.9277 78.7739 17.2439 78.6146 17.5081C78.4571 17.7713 78.2824 17.9804 78.0906 18.1352C77.9001 18.2905 77.696 18.3897 77.4783 18.4329C77.2619 18.4765 77.037 18.4619 76.8036 18.3892C76.5715 18.3168 76.3787 18.2064 76.2251 18.0579C76.0734 17.9085 75.9651 17.7334 75.9004 17.5326C75.8374 17.3309 75.8238 17.1157 75.8595 16.8871L76.3533 17.041C76.3386 17.2451 76.378 17.4298 76.4715 17.5951C76.5668 17.7595 76.7237 17.8758 76.9423 17.9439C77.2621 18.0436 77.5579 17.9825 77.8298 17.7609C78.103 17.5396 78.3191 17.174 78.478 16.664L78.4456 16.6539C78.3348 16.7437 78.2145 16.8135 78.085 16.8634C77.9555 16.9134 77.8204 16.9408 77.6797 16.9458C77.539 16.9508 77.3971 16.9311 77.2541 16.8865C77.0166 16.8125 76.817 16.6859 76.6553 16.5067C76.4953 16.3266 76.3881 16.1148 76.3337 15.8714C76.281 15.627 76.2964 15.3713 76.3796 15.1041C76.4587 14.8505 76.5876 14.6361 76.7666 14.4609C76.9473 14.2848 77.1604 14.1662 77.4059 14.1051C77.6528 14.0443 77.9159 14.0597 78.1953 14.1512ZM78.0565 14.5965C77.8865 14.5435 77.7202 14.5383 77.5574 14.5808C77.3964 14.6224 77.2538 14.7023 77.1297 14.8205C77.0072 14.9378 76.9191 15.0828 76.8653 15.2555C76.8115 15.4282 76.8003 15.5971 76.8317 15.7624C76.8649 15.9266 76.9346 16.0712 77.0407 16.1961C77.1486 16.32 77.2876 16.4084 77.4576 16.4614C77.5858 16.5014 77.713 16.5136 77.8391 16.4982C77.9658 16.4814 78.0839 16.442 78.1935 16.3799C78.3049 16.3169 78.4017 16.2368 78.4838 16.1395C78.5663 16.0409 78.6267 15.9302 78.665 15.8074C78.7154 15.6455 78.7236 15.4816 78.6895 15.3155C78.6568 15.1499 78.5859 15.002 78.477 14.8718C78.3694 14.7421 78.2292 14.6503 78.0565 14.5965Z" fill="white"/>
<path d="M89.3868 23.784C89.1545 23.6279 88.9743 23.449 88.846 23.2471C88.7189 23.0459 88.6497 22.8385 88.6383 22.6249C88.6289 22.4108 88.6829 22.2062 88.8004 22.0111L89.2438 22.3089C89.1752 22.4314 89.1477 22.5585 89.1613 22.6902C89.1758 22.8208 89.2245 22.9472 89.3076 23.0694C89.3906 23.1915 89.5014 23.2991 89.6398 23.3921C89.7946 23.4961 89.95 23.5613 90.1059 23.5878C90.2618 23.6142 90.4061 23.6021 90.5388 23.5516C90.6714 23.5012 90.7803 23.4126 90.8654 23.2859C90.9545 23.1533 91 23.0145 91.0021 22.8695C91.005 22.7233 90.9624 22.5789 90.8743 22.4363C90.7862 22.2937 90.6506 22.161 90.4676 22.0381L90.1791 21.8442L90.4391 21.4571L90.7277 21.6509C90.8708 21.7471 91.0137 21.8056 91.1563 21.8265C91.3 21.8481 91.4339 21.8325 91.558 21.7797C91.6832 21.7276 91.7884 21.6382 91.8735 21.5115C91.9554 21.3895 91.9998 21.2652 92.0065 21.1386C92.0132 21.012 91.9842 20.8904 91.9196 20.7738C91.8561 20.6579 91.758 20.5555 91.6255 20.4664C91.5011 20.3829 91.3685 20.327 91.2275 20.2987C91.0884 20.27 90.9555 20.2752 90.8288 20.3143C90.7028 20.3523 90.5967 20.4291 90.5105 20.5449L90.0882 20.2612C90.2221 20.077 90.3901 19.9498 90.5922 19.8796C90.7951 19.8082 91.0095 19.7905 91.2356 19.8266C91.4628 19.8634 91.6802 19.9516 91.8878 20.0911C92.1107 20.2408 92.2716 20.4144 92.3705 20.6119C92.4701 20.8082 92.5135 21.0085 92.5007 21.2127C92.4878 21.4168 92.4242 21.604 92.31 21.7741C92.1736 21.977 92.004 22.1142 91.8011 22.1856C91.5994 22.2578 91.3891 22.2604 91.1703 22.1934L91.1514 22.2215C91.3537 22.4119 91.4664 22.6281 91.4895 22.87C91.5133 23.1108 91.4484 23.3455 91.2948 23.5743C91.1632 23.7702 90.9916 23.9103 90.78 23.9946C90.5704 24.0785 90.3442 24.1036 90.1013 24.0698C89.8584 24.0361 89.6202 23.9408 89.3868 23.784Z" fill="white"/>
<path d="M99.7396 32.3853C99.5538 32.1612 99.4294 31.9302 99.3663 31.6925C99.3053 31.4549 99.3053 31.2301 99.3663 31.018C99.4284 30.805 99.5502 30.6242 99.7317 30.4756C99.8723 30.3573 100.026 30.2768 100.192 30.2342C100.36 30.1907 100.525 30.1845 100.686 30.2157C100.85 30.2471 100.993 30.3147 101.116 30.4186L101.136 30.4023C101.044 30.2081 101.029 30.0064 101.088 29.7972C101.149 29.5871 101.269 29.4091 101.447 29.2632C101.616 29.1215 101.803 29.0387 102.009 29.0148C102.215 28.9909 102.42 29.0231 102.624 29.1115C102.828 29.2009 103.011 29.3435 103.174 29.5393C103.334 29.733 103.439 29.938 103.488 30.1544C103.537 30.3708 103.531 30.5779 103.469 30.7759C103.408 30.975 103.293 31.1454 103.124 31.2871C102.946 31.433 102.748 31.5158 102.529 31.5355C102.312 31.5553 102.118 31.5041 101.947 31.3816L101.928 31.3979C102.006 31.5367 102.044 31.6883 102.043 31.8528C102.043 32.0164 102.006 32.177 101.933 32.3348C101.861 32.4917 101.755 32.6293 101.615 32.7476C101.433 32.8962 101.231 32.9807 101.01 33.0011C100.79 33.0216 100.569 32.9799 100.347 32.8758C100.127 32.7719 99.9244 32.6084 99.7396 32.3853ZM100.099 32.0877C100.224 32.239 100.357 32.3493 100.497 32.4186C100.637 32.4879 100.776 32.5155 100.915 32.5014C101.054 32.4873 101.184 32.4312 101.304 32.3331C101.429 32.2274 101.514 32.1023 101.558 31.9579C101.601 31.8134 101.605 31.6627 101.568 31.5057C101.533 31.3498 101.456 31.2012 101.339 31.0597C101.221 30.9172 101.088 30.8129 100.939 30.7468C100.792 30.6818 100.643 30.6573 100.493 30.6734C100.344 30.6905 100.207 30.7519 100.081 30.8576C99.9607 30.9557 99.8802 31.0711 99.8397 31.2038C99.8 31.3376 99.8017 31.4803 99.8447 31.6319C99.8878 31.7834 99.9724 31.9354 100.099 32.0877ZM101.685 30.773C101.784 30.8926 101.896 30.9789 102.021 31.0317C102.146 31.0856 102.274 31.1036 102.404 31.0857C102.534 31.0678 102.657 31.0115 102.774 30.917C102.886 30.8222 102.962 30.7139 103.003 30.5922C103.044 30.4697 103.05 30.3432 103.019 30.2128C102.989 30.0816 102.923 29.9545 102.821 29.8315C102.717 29.7064 102.603 29.6164 102.479 29.5616C102.356 29.5059 102.231 29.4877 102.103 29.5069C101.977 29.5252 101.858 29.5817 101.746 29.6766C101.629 29.7711 101.55 29.8801 101.507 30.0036C101.465 30.1281 101.459 30.257 101.489 30.3903C101.519 30.5235 101.584 30.6511 101.685 30.773Z" fill="white"/>
<path d="M106.81 42.4531L111.105 42.7195L111.137 42.7061L110.252 40.6497L110.681 40.4655L111.779 43.0204L111.328 43.2147L107.027 42.9595L106.81 42.4531Z" fill="white"/>
<path d="M111.098 54.839L111.477 54.7931L113.206 56.0272C113.409 56.1721 113.584 56.2904 113.732 56.3821C113.881 56.4737 114.018 56.5382 114.144 56.5757C114.271 56.6144 114.401 56.6257 114.532 56.6098C114.684 56.5914 114.811 56.5391 114.913 56.4527C115.015 56.3678 115.089 56.2592 115.134 56.127C115.179 55.9949 115.192 55.8509 115.173 55.6952C115.153 55.5296 115.101 55.3893 115.018 55.2741C114.936 55.1602 114.829 55.077 114.699 55.0244C114.569 54.9733 114.422 54.9576 114.258 54.9775L114.198 54.4808C114.45 54.4503 114.679 54.4817 114.884 54.575C115.089 54.6684 115.257 54.8089 115.388 54.9966C115.519 55.1857 115.6 55.4059 115.63 55.657C115.66 55.9095 115.634 56.1398 115.551 56.3477C115.468 56.5556 115.343 56.7259 115.175 56.8587C115.008 56.9914 114.813 57.0712 114.591 57.098C114.433 57.1172 114.274 57.1072 114.116 57.068C113.959 57.0301 113.78 56.9522 113.577 56.8343C113.377 56.7176 113.129 56.5519 112.834 56.3371L111.681 55.4944L111.648 55.4984L111.89 57.5019L111.427 57.5579L111.098 54.839Z" fill="white"/>
<path d="M112.656 68.4533L113.082 68.5259L115.738 70.9136L115.685 71.2229L115.025 71.1104L115.06 70.9014L113.054 69.0974L113.02 69.0917L112.589 71.6244L112.129 71.5461L112.656 68.4533ZM111.435 70.3183L112.442 70.4899L112.641 70.5237L115.715 71.0474L115.631 71.5405L111.351 70.8114L111.435 70.3183Z" fill="white"/>
<path d="M111.773 84.953C111.692 85.1118 111.582 85.2561 111.444 85.386C111.305 85.5158 111.134 85.6122 110.93 85.6752C110.728 85.7388 110.489 85.7517 110.213 85.7137C109.937 85.6757 109.62 85.5679 109.263 85.3904C108.918 85.2186 108.627 85.0331 108.392 84.8339C108.157 84.6365 107.978 84.4309 107.856 84.2169C107.733 84.0041 107.667 83.7868 107.659 83.565C107.651 83.3445 107.701 83.1247 107.81 82.9058C107.918 82.6882 108.058 82.5154 108.229 82.3874C108.4 82.2613 108.59 82.1822 108.799 82.1502C109.008 82.12 109.223 82.1408 109.443 82.2123L109.212 82.6755C109.013 82.6285 108.824 82.638 108.646 82.7041C108.469 82.7721 108.329 82.9086 108.227 83.1136C108.078 83.4134 108.091 83.7152 108.267 84.0188C108.442 84.3237 108.769 84.5951 109.247 84.833L109.262 84.8027C109.191 84.679 109.141 84.5492 109.112 84.4134C109.084 84.2775 109.078 84.1398 109.095 84.0001C109.113 83.8604 109.155 83.7234 109.222 83.5893C109.332 83.3666 109.489 83.1897 109.692 83.0584C109.895 82.9291 110.121 82.8569 110.37 82.8418C110.62 82.8287 110.87 82.8844 111.12 83.009C111.358 83.1274 111.549 83.2888 111.694 83.4932C111.839 83.6996 111.922 83.9288 111.944 84.181C111.964 84.4344 111.907 84.6917 111.773 84.953ZM111.355 84.7453C111.434 84.5859 111.466 84.4224 111.45 84.255C111.434 84.0894 111.378 83.936 111.281 83.7946C111.185 83.6551 111.056 83.5451 110.894 83.4645C110.732 83.384 110.567 83.3461 110.399 83.3508C110.231 83.3575 110.077 83.4033 109.937 83.4883C109.798 83.5752 109.688 83.6983 109.609 83.8578C109.549 83.978 109.517 84.1016 109.512 84.2286C109.509 84.3563 109.529 84.4792 109.573 84.5973C109.617 84.7173 109.681 84.8255 109.764 84.9221C109.848 85.0192 109.948 85.0964 110.063 85.1537C110.215 85.2292 110.375 85.2633 110.545 85.256C110.713 85.25 110.871 85.2036 111.017 85.1167C111.162 85.031 111.275 84.9073 111.355 84.7453Z" fill="white"/>
<path d="M103.701 97.4472L100.483 94.5332L100.836 94.1435L103.646 96.6876L103.663 96.6687L103.852 95.4107L104.248 95.7692L104.054 97.0575L103.701 97.4472Z" fill="white"/>
<path d="M92.5346 101.99L92.9483 106.275L92.9664 106.303L94.8579 105.106L95.1073 105.5L92.7573 106.987L92.4943 106.572L92.0689 102.285L92.5346 101.99Z" fill="white"/>
<path d="M81.3062 109.022L81.4237 109.439L80.4082 112.862L80.1063 112.947L79.9242 112.303L80.1282 112.245L80.8954 109.658L80.8862 109.626L78.4137 110.324L78.287 109.875L81.3062 109.022ZM79.0976 108.721L79.3753 109.704L79.4301 109.898L80.2777 112.899L79.7962 113.035L78.6162 108.857L79.0976 108.721Z" fill="white"/>
<path d="M66.048 110.87C66.3391 110.874 66.5955 110.93 66.8172 111.036C67.0375 111.144 67.2085 111.29 67.3301 111.474C67.4517 111.66 67.5101 111.87 67.5052 112.104C67.5039 112.288 67.4653 112.457 67.3895 112.611C67.3137 112.767 67.2114 112.896 67.0827 112.999C66.9525 113.103 66.8081 113.168 66.6494 113.194L66.649 113.219C66.856 113.276 67.0196 113.395 67.1398 113.576C67.2601 113.759 67.3178 113.966 67.3129 114.196C67.3111 114.416 67.2523 114.613 67.1367 114.785C67.021 114.957 66.8636 115.092 66.6643 115.189C66.4635 115.286 66.236 115.333 65.9816 115.329C65.7301 115.326 65.5062 115.272 65.3098 115.169C65.1135 115.066 64.9601 114.926 64.8497 114.751C64.7378 114.575 64.6828 114.377 64.6847 114.157C64.6895 113.927 64.7554 113.722 64.8825 113.543C65.0081 113.365 65.173 113.251 65.3773 113.2L65.3777 113.175C65.2213 113.144 65.081 113.075 64.9568 112.967C64.8326 112.861 64.7342 112.729 64.6616 112.571C64.589 112.414 64.5534 112.244 64.5547 112.06C64.5596 111.826 64.6263 111.618 64.7548 111.436C64.8819 111.255 65.0571 111.114 65.2805 111.013C65.5025 110.913 65.7583 110.866 66.048 110.87ZM66.0411 111.336C65.8447 111.333 65.6746 111.363 65.5309 111.424C65.3873 111.485 65.2757 111.574 65.1963 111.688C65.1168 111.803 65.0753 111.938 65.0715 112.093C65.0705 112.257 65.1107 112.403 65.1922 112.53C65.2737 112.657 65.386 112.757 65.5291 112.832C65.6707 112.906 65.8334 112.944 66.0171 112.947C66.2022 112.95 66.3681 112.916 66.5147 112.846C66.6599 112.776 66.7751 112.679 66.8603 112.555C66.9442 112.43 66.9866 112.286 66.9876 112.122C66.9914 111.967 66.9559 111.83 66.8814 111.713C66.8054 111.596 66.6958 111.505 66.5526 111.439C66.4094 111.373 66.2389 111.339 66.0411 111.336ZM66.0104 113.396C65.855 113.394 65.7167 113.423 65.5957 113.484C65.4732 113.544 65.3766 113.629 65.3057 113.74C65.2348 113.851 65.1975 113.981 65.1939 114.131C65.1931 114.277 65.2258 114.406 65.292 114.516C65.3582 114.627 65.4509 114.713 65.5701 114.774C65.6893 114.837 65.8288 114.869 65.9884 114.872C66.1509 114.874 66.2934 114.846 66.4158 114.787C66.5382 114.729 66.6335 114.646 66.7015 114.537C66.7696 114.429 66.804 114.301 66.8047 114.154C66.8084 114.005 66.7771 113.874 66.711 113.761C66.6434 113.648 66.5493 113.56 66.4287 113.496C66.3081 113.432 66.1687 113.399 66.0104 113.396Z" fill="white"/>
<path d="M52.6446 109.3C52.882 109.374 53.081 109.488 53.2417 109.642C53.4024 109.796 53.5143 109.973 53.5776 110.174C53.6408 110.374 53.6449 110.581 53.59 110.795L53.1044 110.643C53.1441 110.45 53.1076 110.268 52.9948 110.098C52.8804 109.929 52.7172 109.812 52.5055 109.745C52.3355 109.692 52.172 109.685 52.0149 109.723C51.8565 109.761 51.7178 109.838 51.5989 109.953C51.4782 110.069 51.3902 110.216 51.335 110.392C51.2785 110.573 51.2679 110.747 51.3032 110.913C51.3368 111.081 51.4095 111.227 51.5214 111.352C51.6332 111.478 51.7773 111.568 51.9536 111.625C52.08 111.666 52.2163 111.687 52.3624 111.688C52.5082 111.691 52.6339 111.675 52.7397 111.64L53.1914 111.843L52.3031 113.804L50.1503 113.131L50.2894 112.686L52.0214 113.227L52.549 112.051L52.5247 112.043C52.4186 112.084 52.2946 112.107 52.1525 112.111C52.0105 112.116 51.87 112.096 51.731 112.053C51.4775 111.974 51.2705 111.842 51.1101 111.659C50.948 111.477 50.843 111.263 50.795 111.019C50.7457 110.774 50.763 110.517 50.8468 110.249C50.9295 109.984 51.0626 109.767 51.2462 109.596C51.428 109.426 51.6409 109.314 51.8848 109.258C52.1283 109.204 52.3815 109.218 52.6446 109.3Z" fill="white"/>
<path d="M37.8362 107.619L40.2043 103.981L40.6449 104.267L38.5775 107.444L38.5988 107.458L39.871 107.446L39.5796 107.894L38.2768 107.906L37.8362 107.619Z" fill="white"/>
<path d="M30.8075 96.3474C30.9719 96.5341 31.0827 96.7349 31.1401 96.9498C31.1975 97.1648 31.2012 97.3743 31.1512 97.5784C31.1011 97.7825 30.9971 97.9616 30.8391 98.1157L30.5029 97.7338C30.6373 97.5892 30.7005 97.415 30.6924 97.2112C30.6824 97.0073 30.6041 96.8221 30.4575 96.6555C30.3398 96.5219 30.204 96.4306 30.0499 96.3817C29.8948 96.3318 29.7366 96.3252 29.575 96.362C29.4115 96.3986 29.2602 96.4781 29.1212 96.6004C28.9791 96.7255 28.8799 96.8684 28.8236 97.0291C28.7653 97.1896 28.7514 97.3524 28.7819 97.5175C28.8125 97.6827 28.8884 97.8352 29.0096 97.9751C29.0963 98.0758 29.2018 98.1646 29.3261 98.2416C29.4493 98.3196 29.5652 98.371 29.6737 98.3959L29.9541 98.8043L28.1765 100.019L26.6863 98.3258L27.0363 98.0176L28.2352 99.3797L29.2972 98.6483L29.2804 98.6292C29.1685 98.6091 29.0507 98.564 28.927 98.4941C28.8033 98.4241 28.6933 98.3345 28.5972 98.2252C28.4216 98.0258 28.313 97.8061 28.2712 97.5661C28.2274 97.326 28.2485 97.089 28.3345 96.8552C28.4195 96.6203 28.5676 96.41 28.7787 96.2241C28.9866 96.0411 29.2134 95.9244 29.4589 95.874C29.7024 95.8234 29.9428 95.8377 30.1801 95.9169C30.4163 95.997 30.6255 96.1405 30.8075 96.3474Z" fill="white"/>
<path d="M22.9633 85.3507C23.081 85.6046 23.1423 85.8511 23.1473 86.0902C23.1517 86.3281 23.1034 86.5413 23.0024 86.7299C22.8995 86.9179 22.7472 87.0648 22.5455 87.1708L22.3208 86.6862C22.4429 86.6171 22.5323 86.5226 22.589 86.4029C22.6443 86.2838 22.6682 86.1504 22.6605 86.0029C22.6528 85.8553 22.6139 85.7059 22.5437 85.5546C22.4653 85.3854 22.3662 85.2491 22.2466 85.1457C22.127 85.0423 21.9974 84.9777 21.8577 84.9521C21.7181 84.9265 21.5791 84.9458 21.4406 85.01C21.2958 85.0772 21.1848 85.1723 21.1079 85.2952C21.0296 85.4187 20.9912 85.5643 20.9926 85.7319C20.994 85.8995 21.0411 86.0833 21.1338 86.2833L21.2801 86.5987L20.857 86.7949L20.7108 86.4795C20.6382 86.3231 20.5464 86.199 20.4353 86.1072C20.3236 86.0141 20.201 85.958 20.0675 85.9389C19.9334 85.9186 19.7972 85.9405 19.6587 86.0047C19.5254 86.0665 19.423 86.1498 19.3517 86.2546C19.2803 86.3593 19.242 86.4783 19.2368 86.6116C19.231 86.7436 19.2617 86.882 19.3289 87.0269C19.392 87.1628 19.4764 87.2794 19.5823 87.3767C19.6863 87.4733 19.8027 87.5378 19.9313 87.57C20.0587 87.6028 20.1893 87.5921 20.323 87.5379L20.5371 87.9994C20.3271 88.0875 20.1175 88.1091 19.9082 88.0644C19.6977 88.0203 19.5052 87.9242 19.3306 87.7762C19.1554 87.6268 19.0152 87.4387 18.91 87.2118C18.797 86.9682 18.7495 86.7364 18.7673 86.5162C18.7839 86.2967 18.8506 86.1029 18.9675 85.935C19.0843 85.7671 19.2357 85.6401 19.4216 85.5538C19.6434 85.451 19.8595 85.4216 20.07 85.4658C20.28 85.5086 20.4611 85.6154 20.6135 85.7862L20.6443 85.7719C20.57 85.5042 20.5857 85.2609 20.6914 85.0421C20.7958 84.8238 20.973 84.6568 21.223 84.5408C21.4371 84.4415 21.6565 84.4107 21.8811 84.4483C22.1038 84.4852 22.3103 84.581 22.5005 84.7358C22.6907 84.8906 22.8449 85.0956 22.9633 85.3507Z" fill="white"/>
<path d="M18.6087 72.6583C18.6506 72.9464 18.6366 73.2083 18.5667 73.4442C18.4952 73.6788 18.3782 73.8708 18.2157 74.0201C18.0518 74.1696 17.8537 74.2606 17.6213 74.293C17.4398 74.3209 17.2667 74.3096 17.1023 74.2593C16.9365 74.2092 16.7927 74.1287 16.6709 74.0179C16.5475 73.9059 16.4604 73.7737 16.4096 73.6211L16.3844 73.6248C16.3612 73.8381 16.2697 74.0185 16.1098 74.166C15.9485 74.3138 15.7538 74.4035 15.5256 74.4353C15.3077 74.4685 15.1045 74.4416 14.9162 74.3548C14.7279 74.268 14.5699 74.1339 14.4421 73.9525C14.3141 73.7698 14.2318 73.5526 14.1951 73.3009C14.1589 73.0519 14.1762 72.8224 14.2469 72.6121C14.3177 72.4019 14.431 72.2283 14.5867 72.0914C14.7422 71.9531 14.929 71.8673 15.1469 71.8342C15.3751 71.8024 15.5876 71.835 15.7845 71.932C15.9798 72.0278 16.1187 72.1725 16.2012 72.3662L16.2264 72.3625C16.2317 72.2032 16.2778 72.0537 16.3646 71.9139C16.4499 71.7744 16.5648 71.6563 16.7093 71.5596C16.8523 71.4631 17.0146 71.4009 17.1962 71.373C17.4286 71.3406 17.6447 71.3734 17.8446 71.4714C18.0429 71.5682 18.2098 71.7188 18.3453 71.9233C18.4791 72.1266 18.5669 72.3716 18.6087 72.6583ZM18.1472 72.7255C18.1189 72.5311 18.063 72.3679 17.9795 72.2358C17.896 72.1037 17.7913 72.0076 17.6654 71.9473C17.5396 71.8871 17.3996 71.8675 17.2456 71.8885C17.0836 71.9135 16.9463 71.9763 16.8339 72.077C16.7214 72.1776 16.6399 72.3044 16.5894 72.4575C16.5386 72.6091 16.5265 72.7758 16.5529 72.9576C16.5796 73.1408 16.6391 73.2992 16.7314 73.4329C16.8235 73.5651 16.9377 73.6635 17.0742 73.7279C17.2105 73.7908 17.3596 73.8098 17.5217 73.7848C17.6757 73.7638 17.8045 73.7072 17.9082 73.615C18.0117 73.5214 18.0845 73.3987 18.1267 73.2469C18.1689 73.0951 18.1757 72.9213 18.1472 72.7255ZM16.1082 73.0223C16.0858 72.8685 16.0352 72.7366 15.9564 72.6267C15.8773 72.5154 15.7776 72.4335 15.6571 72.3811C15.5367 72.3287 15.4022 72.3125 15.2538 72.3327C15.1085 72.3553 14.987 72.408 14.8891 72.4908C14.7898 72.5738 14.7194 72.679 14.678 72.8064C14.6351 72.9341 14.6252 73.0769 14.6482 73.2349C14.6716 73.3957 14.7222 73.5319 14.7998 73.6434C14.8761 73.7551 14.9735 73.8359 15.0922 73.8858C15.2094 73.9358 15.3406 73.9495 15.4859 73.927C15.6343 73.9068 15.7589 73.8551 15.8596 73.7719C15.9601 73.6873 16.0324 73.5804 16.0764 73.4511C16.1204 73.3219 16.131 73.179 16.1082 73.0223Z" fill="white"/>
<path d="M17.7709 60.4368L17.3932 60.3825L16.0445 58.7408C15.8866 58.5482 15.7482 58.3884 15.6294 58.2613C15.5092 58.1341 15.3934 58.0361 15.2819 57.9672C15.1693 57.8968 15.0472 57.8521 14.9157 57.8332C14.7646 57.8115 14.6286 57.829 14.5077 57.8859C14.3869 57.9413 14.2875 58.027 14.2094 58.1428C14.1314 58.2587 14.0812 58.3942 14.0589 58.5495C14.0351 58.7145 14.0487 58.8636 14.0995 58.9965C14.1492 59.1279 14.23 59.2359 14.342 59.3205C14.4543 59.4037 14.5922 59.4571 14.7559 59.4807L14.6847 59.9758C14.4329 59.9396 14.2202 59.8498 14.0467 59.7064C13.8732 59.5629 13.7476 59.3835 13.6701 59.1682C13.5927 58.9515 13.572 58.7179 13.6081 58.4675C13.6443 58.2157 13.7295 58.0003 13.8638 57.8211C13.998 57.642 14.1633 57.5101 14.3597 57.4256C14.556 57.341 14.7647 57.3146 14.9857 57.3464C15.1438 57.3691 15.2942 57.42 15.437 57.4991C15.5787 57.5766 15.7318 57.6985 15.8963 57.865C16.0596 58.0298 16.2558 58.2543 16.4847 58.5385L17.3783 59.6522L17.4118 59.657L17.6991 57.6595L18.1607 57.7259L17.7709 60.4368Z" fill="white"/>
<path d="M21.2963 46.0148C21.1922 46.2407 21.0536 46.4235 20.8804 46.5631C20.7072 46.7027 20.5172 46.791 20.3103 46.828C20.1035 46.865 19.8976 46.8425 19.6926 46.7606L19.9054 46.2985C20.0921 46.3627 20.2769 46.3498 20.46 46.2598C20.6423 46.168 20.7799 46.0213 20.8727 45.8197C20.9471 45.658 20.9755 45.4968 20.9577 45.3361C20.9405 45.1742 20.8823 45.0268 20.7832 44.894C20.6834 44.7594 20.5494 44.6534 20.3812 44.5759C20.2092 44.4967 20.0384 44.4639 19.8687 44.4776C19.6984 44.4894 19.5439 44.5427 19.4053 44.6376C19.2667 44.7325 19.1581 44.8637 19.0793 45.0313C19.0225 45.1513 18.9841 45.2838 18.9641 45.4286C18.9428 45.5728 18.9427 45.6996 18.9639 45.8089L18.7043 46.2308L16.8734 45.0983L17.8168 43.0496L18.2404 43.2447L17.4814 44.8929L18.5806 45.567L18.5912 45.5439C18.5643 45.4335 18.5577 45.3076 18.5715 45.1661C18.5853 45.0247 18.6226 44.8878 18.6835 44.7556C18.7946 44.5143 18.9514 44.3259 19.1538 44.1904C19.3556 44.053 19.5807 43.9762 19.8294 43.96C20.0786 43.9426 20.3309 43.9926 20.5863 44.1103C20.8379 44.2261 21.0366 44.386 21.1822 44.59C21.3272 44.7922 21.4116 45.0177 21.4354 45.2667C21.4579 45.5151 21.4115 45.7645 21.2963 46.0148Z" fill="white"/>
<path d="M26.4133 34.9535L26.0881 34.6685L25.0758 31.244L25.2826 31.0081L25.7864 31.4496L25.6466 31.609L26.4116 34.1966L26.4371 34.2189L28.1307 32.287L28.4814 32.5944L26.4133 34.9535ZM28.4298 34.0038L27.6615 33.3303L27.5101 33.1975L25.1653 31.142L25.495 30.7658L28.7596 33.6276L28.4298 34.0038Z" fill="white"/>
<path d="M36.9206 25.8257L36.7172 25.5029L37.0934 23.4118C37.1377 23.1667 37.1698 22.9578 37.1895 22.785C37.2085 22.611 37.2081 22.4593 37.1883 22.3298C37.169 22.1983 37.1239 22.0764 37.0531 21.964C36.9717 21.8349 36.8702 21.7427 36.7485 21.6874C36.628 21.6313 36.4984 21.6111 36.3596 21.6268C36.2207 21.6424 36.085 21.692 35.9523 21.7756C35.8112 21.8645 35.7065 21.9714 35.6382 22.0963C35.5703 22.2192 35.5404 22.3508 35.5486 22.491C35.5579 22.6304 35.6067 22.7701 35.6948 22.91L35.2716 23.1767C35.136 22.9614 35.0666 22.7413 35.0633 22.5161C35.0601 22.291 35.1154 22.0791 35.2291 21.8805C35.344 21.6812 35.5085 21.5141 35.7225 21.3792C35.9377 21.2436 36.1571 21.1689 36.3805 21.155C36.604 21.1412 36.8115 21.1816 37.0032 21.2764C37.1948 21.3711 37.3501 21.5129 37.4692 21.7018C37.5543 21.8369 37.613 21.9845 37.6454 22.1445C37.6782 22.3026 37.6845 22.4982 37.6644 22.7314C37.6447 22.9626 37.6008 23.2575 37.5327 23.616L37.2637 25.0183L37.2818 25.047L38.9892 23.9712L39.2378 24.3657L36.9206 25.8257Z" fill="white"/>
<path d="M49.0189 14.8577C49.1908 14.8113 49.3715 14.7961 49.5608 14.8123C49.7502 14.8284 49.9363 14.8909 50.1193 14.9998C50.3019 15.1074 50.4715 15.2764 50.6283 15.5071C50.785 15.7377 50.9169 16.045 51.024 16.4289C51.1276 16.8005 51.1843 17.1405 51.1939 17.4488C51.2046 17.7554 51.1715 18.0258 51.0945 18.26C51.0188 18.4938 50.9013 18.688 50.7419 18.8425C50.5839 18.9966 50.3871 19.1064 50.1516 19.1721C49.9175 19.2374 49.6956 19.2494 49.4861 19.2081C49.2775 19.165 49.0915 19.0768 48.9281 18.9433C48.7657 18.8082 48.6374 18.6349 48.5432 18.4235L49.0415 18.2845C49.1399 18.4639 49.2733 18.5977 49.4416 18.6857C49.6109 18.772 49.8058 18.7844 50.0264 18.7229C50.349 18.6329 50.5643 18.421 50.6722 18.0873C50.7814 17.7531 50.7643 17.3287 50.6208 16.8142L50.5882 16.8233C50.5438 16.9589 50.4808 17.0828 50.3992 17.1951C50.3175 17.3074 50.219 17.4038 50.1035 17.4844C49.9881 17.565 49.8582 17.6254 49.7139 17.6657C49.4744 17.7325 49.238 17.7346 49.0049 17.6719C48.7727 17.6076 48.5677 17.488 48.3898 17.3131C48.2129 17.1365 48.0869 16.9134 48.0118 16.6439C47.9404 16.388 47.9323 16.1379 47.9874 15.8936C48.0435 15.6476 48.158 15.4323 48.331 15.2476C48.5053 15.0626 48.7346 14.9326 49.0189 14.8577ZM49.1442 15.307C48.9727 15.3548 48.8301 15.4407 48.7166 15.5648C48.604 15.6872 48.5276 15.8317 48.4876 15.9984C48.4485 16.1634 48.4532 16.333 48.5018 16.5072C48.5504 16.6815 48.6327 16.8294 48.7488 16.9511C48.8659 17.071 49.0029 17.1546 49.1598 17.2018C49.3178 17.2472 49.4825 17.2461 49.654 17.1982C49.7833 17.1622 49.8968 17.1034 49.9944 17.0219C50.0916 16.939 50.1693 16.8418 50.2277 16.7301C50.287 16.6168 50.3248 16.4969 50.3409 16.3707C50.3567 16.243 50.3473 16.1173 50.3127 15.9934C50.2672 15.8301 50.185 15.6879 50.0662 15.567C49.9487 15.4457 49.8089 15.36 49.6468 15.3098C49.486 15.2593 49.3184 15.2584 49.1442 15.307Z" fill="white"/>
<path d="M49.6729 35.4736C50.5379 35.5301 51.2328 35.8066 51.8602 36.4086C52.4295 37.0774 52.7854 37.7874 52.8154 38.6741C52.7571 39.1668 52.6891 39.671 52.4363 40.1041C53.1302 40.6941 53.89 41.16 54.6663 41.6313C54.9819 41.823 55.2968 42.0159 55.6117 42.2087C55.7713 42.3064 55.931 42.4041 56.0907 42.5016C56.7787 42.9224 57.463 43.3488 58.1458 43.7779C58.3605 43.9127 58.5751 44.0474 58.7897 44.1822C58.8958 44.2488 59.0019 44.3154 59.1113 44.3841C59.6959 44.7506 60.2817 45.1154 60.8674 45.4802C61.047 45.592 61.047 45.592 61.2302 45.7061C61.4727 45.8571 61.7151 46.0081 61.9576 46.1591C62.4393 46.4591 62.9209 46.7592 63.4024 47.0593C63.6407 47.2078 63.8789 47.3562 64.1172 47.5047C64.6764 47.853 65.2355 48.2016 65.7942 48.5506C66.0562 48.7143 66.3182 48.8779 66.5803 49.0415C66.7637 49.156 66.9471 49.2707 67.1304 49.3854C67.4474 49.5832 67.765 49.7798 68.0829 49.976C68.1668 50.0287 68.2507 50.0815 68.3372 50.1359C68.873 50.4643 69.2101 50.5567 69.8172 50.4188C70.4338 50.2195 70.764 49.8878 71.0775 49.3324C71.2093 48.9623 71.2927 48.5869 71.3738 48.2029C71.4215 47.9922 71.4694 47.7815 71.5174 47.5708C71.5398 47.4699 71.5622 47.3691 71.5853 47.2652C71.6616 46.9293 71.7486 46.5971 71.8394 46.2648C72.0008 45.6666 72.1494 45.0658 72.2962 44.4639C72.4711 43.7469 72.653 43.0325 72.8448 42.3198C72.9732 41.8289 73.0935 41.3361 73.2138 40.8431C73.5004 39.6698 73.8016 38.5023 74.1455 37.3444C74.068 37.2921 73.9904 37.2398 73.9106 37.1859C73.3806 36.7185 72.9964 36.199 72.8911 35.4878C72.8555 34.8994 73.0213 34.4048 73.3534 33.9214C73.8475 33.514 74.3303 33.1713 74.9698 33.0784C75.8237 33.2346 76.3927 33.4319 76.9407 34.1219C77.2661 34.7277 77.4086 35.2284 77.2275 35.9049C77.0298 36.4698 76.7773 36.8033 76.3152 37.1799C76.2457 37.2367 76.1762 37.2935 76.1046 37.352C76.0515 37.3952 75.9983 37.4383 75.9436 37.4828C76.009 37.6215 76.009 37.6215 76.0757 37.7629C77.1355 40.0094 78.1948 42.256 79.2538 44.5029C79.7658 45.5895 80.2781 46.6759 80.7906 47.7623C81.2372 48.7088 81.6835 49.6555 82.1296 50.6023C82.3659 51.1039 82.6023 51.6055 82.839 52.1069C83.0616 52.5783 83.2839 53.05 83.5059 53.5218C83.5877 53.6953 83.6695 53.8687 83.7515 54.0421C83.8631 54.2781 83.9742 54.5143 84.0852 54.7505C84.1344 54.8544 84.1344 54.8544 84.1847 54.9603C84.4067 55.4346 84.4067 55.4346 84.4382 55.7067C84.2157 55.9954 83.9329 56.1998 83.6425 56.4171C83.4922 56.5298 83.4922 56.5298 83.3389 56.6447C83.2295 56.7262 83.1201 56.8077 83.0073 56.8917C82.8927 56.9774 82.7781 57.0631 82.66 57.1514C81.2106 58.234 79.755 59.3081 78.296 60.3776C78.1873 60.4573 78.0787 60.537 77.9667 60.619C71.617 65.2652 64.9466 69.608 58.1384 73.5513C58.0737 73.5887 58.009 73.6262 57.9424 73.6648C56.3202 74.6042 54.6941 75.5367 53.0633 76.4611C52.9452 76.5283 52.8272 76.5955 52.7055 76.6647C52.5965 76.7263 52.4874 76.7879 52.3751 76.8513C52.2805 76.9049 52.186 76.9584 52.0885 77.0136C51.8315 77.1487 51.5739 77.2591 51.3026 77.3619C50.6106 76.7158 49.9976 76.0044 49.3784 75.2898C49.2585 75.1518 49.1386 75.0139 49.0186 74.876C48.6945 74.5033 48.3709 74.1303 48.0473 73.7571C47.7767 73.4452 47.5059 73.1335 47.2352 72.8218C46.5965 72.0865 45.9582 71.351 45.32 70.6152C44.6621 69.8567 44.0037 69.0986 43.3451 68.3407C42.7789 67.6891 42.2129 67.0372 41.6471 66.3852C41.3095 65.9961 40.9718 65.6071 40.6339 65.2183C40.3164 64.8531 39.9993 64.4875 39.6824 64.1217C39.5661 63.9876 39.4498 63.8537 39.3333 63.7198C39.1742 63.5369 39.0155 63.3536 38.8568 63.1702C38.768 63.0678 38.6791 62.9654 38.5876 62.8599C38.3678 62.5906 38.1772 62.3165 37.9934 62.0218C37.9018 62.0931 37.9018 62.0931 37.8084 62.1658C37.2754 62.5514 36.8669 62.7861 36.1988 62.7477C35.606 62.6473 35.1866 62.4813 34.7861 62.0198C34.4312 61.5104 34.1593 61.0691 34.1957 60.4317C34.3559 59.6671 34.5545 59.2593 35.215 58.8132C35.7551 58.4703 36.1375 58.2965 36.7838 58.4319C37.4819 58.6176 37.7781 58.8503 38.1769 59.4636C38.2795 59.6198 38.2795 59.6198 38.3842 59.7792C38.5601 60.0751 38.5601 60.0751 38.6195 60.3175C38.6974 60.5355 38.6974 60.5355 38.9822 60.6023C39.1546 60.6326 39.1546 60.6326 39.3305 60.6636C39.4429 60.6844 39.5553 60.7053 39.671 60.7268C39.9896 60.7766 40.308 60.8225 40.6273 60.8664C41.2418 60.9518 41.8512 61.0593 42.4615 61.1706C43.342 61.3294 44.223 61.482 45.1062 61.6255C45.5577 61.6989 46.0089 61.7738 46.46 61.8496C46.5781 61.8693 46.5781 61.8693 46.6985 61.8894C47.1357 61.9629 47.5723 62.0387 48.0085 62.1172C50.1339 62.6416 50.1339 62.6416 52.1206 62.1432C52.5193 61.82 52.6507 61.4697 52.735 60.9746C52.7847 60.4883 52.7277 60.0409 52.6503 59.5604C52.6298 59.4247 52.6298 59.4247 52.609 59.2864C52.564 58.9899 52.5175 58.6936 52.471 58.3973C52.439 58.188 52.4071 57.9787 52.3754 57.7693C52.3096 57.3374 52.2434 56.9056 52.1767 56.4738C52.0851 55.8801 51.9959 55.286 51.9078 54.6918C51.8943 54.6004 51.8807 54.509 51.8668 54.4148C51.8397 54.232 51.8126 54.0492 51.7855 53.8663C51.6123 52.6994 51.4369 51.5327 51.2601 50.3663C51.2472 50.2807 51.2342 50.1952 51.2209 50.1071C51.156 49.6793 51.0911 49.2515 51.0259 48.8238C50.8806 47.8668 50.739 46.9094 50.6007 45.9514C50.5696 45.7366 50.5385 45.5219 50.5073 45.3071C50.4475 44.8944 50.3884 44.4816 50.3298 44.0687C50.3025 43.88 50.2751 43.6913 50.2478 43.5026C50.23 43.3752 50.23 43.3752 50.2119 43.2452C50.1376 42.7392 50.0227 42.2731 49.8591 41.7884C49.727 41.7934 49.5948 41.7985 49.4587 41.8038C48.7237 41.7767 48.0572 41.4251 47.4877 40.9737C46.9184 40.2464 46.5245 39.5505 46.4724 38.6161C46.5238 38.2049 46.5238 38.2049 46.6318 37.8551C46.6739 37.6894 46.6739 37.6894 46.7169 37.5204C47.2112 36.2926 48.354 35.5283 49.6729 35.4736ZM60.2584 58.5048C60.0737 60.2619 61.0166 61.9021 62.0449 63.2483C62.723 64.0286 63.5115 64.5705 64.4692 64.9478C64.58 64.9973 64.6909 65.0467 64.8052 65.0977C65.5048 65.2442 66.1451 65.2028 66.7671 64.8335C67.3912 64.3696 67.6703 63.8393 67.8048 63.0798C67.9943 61.21 67.1927 59.5655 66.0564 58.1308C65.1177 57.0658 63.9786 56.3081 62.5538 56.1544C61.0972 56.1036 60.4934 57.2413 60.2584 58.5048ZM51.0533 67.9359C51.0074 68.8386 51.3185 69.4709 51.8563 70.1695C52.6143 70.9709 53.684 71.7966 54.8213 71.8564C55.5906 71.8691 56.0773 71.8461 56.6947 71.3422C57.027 70.8398 57.0771 70.3444 57.0028 69.7534C56.494 68.4181 55.4849 67.5532 54.2027 66.9716C53.4846 66.7168 52.7531 66.5878 52.0093 66.7857C51.4477 67.0711 51.2265 67.3287 51.0533 67.9359ZM73.8056 53.6576C73.6825 54.9412 73.9764 56.3924 74.7853 57.4177C75.2935 57.9 75.791 58.2542 76.5118 58.3008C77.0631 58.1409 77.4646 57.8483 77.7783 57.3746C78.328 56.3226 78.2411 55.1064 77.9472 53.9932C77.6686 53.206 77.1944 52.3404 76.4636 51.8958C76.2567 51.7975 76.2567 51.7975 76.0573 51.7263C75.9576 51.6858 75.858 51.6452 75.7553 51.6035C74.5913 51.5856 74.0016 52.6283 73.8056 53.6576Z" fill="#E30808"/>
<path d="M53.4734 81.6354C53.5528 81.5898 53.6322 81.5442 53.714 81.4972C54.6478 80.9642 55.5937 80.4534 56.5389 79.9412C58.1804 79.0508 59.8149 78.1504 61.4274 77.2084C61.4955 77.1687 61.5636 77.129 61.6337 77.0881C62.0566 76.8411 62.4777 76.5914 62.898 76.3399C63.076 76.2335 63.2542 76.1274 63.4326 76.0215C65.7149 74.6644 67.9379 73.2181 70.1595 71.7644C70.3025 71.6708 70.3025 71.6708 70.4485 71.5754C76.0321 67.9237 81.4912 64.0865 86.724 59.9435C88.2073 58.7749 88.2073 58.7749 89.05 58.7374C89.6241 58.8321 90.098 58.9689 90.456 59.4534C90.5149 59.5423 90.5739 59.6312 90.6347 59.7228C90.7018 59.8236 90.769 59.9244 90.8382 60.0283C90.9462 60.1923 90.9462 60.1923 91.0564 60.3596C91.1306 60.4719 91.2047 60.5843 91.2812 60.7001C91.438 60.9382 91.5946 61.1765 91.751 61.415C91.9903 61.7792 92.2316 62.1421 92.4729 62.5051C92.625 62.7365 92.777 62.968 92.9289 63.1997C93.0013 63.3079 93.0737 63.4162 93.1483 63.5278C93.5583 64.159 93.7908 64.6068 93.7289 65.3764C93.537 66.1316 93.0999 66.5154 92.5159 67.0054C92.4339 67.0772 92.3518 67.149 92.2672 67.2231C91.2006 68.1479 90.0992 69.0334 89.0086 69.9297C89.0924 69.8754 89.1762 69.8211 89.2625 69.7652C90.0517 69.2544 90.842 68.7454 91.6336 68.2383C92.0406 67.9775 92.447 67.7161 92.8525 67.4531C93.2438 67.1994 93.6361 66.9475 94.0293 66.6969C94.1792 66.6008 94.3287 66.5042 94.4778 66.4068C94.6865 66.2708 94.8965 66.1371 95.107 66.0038C95.2263 65.927 95.3456 65.8502 95.4685 65.7711C95.788 65.6305 95.788 65.6305 96.0801 65.6852C96.3047 65.8182 96.3047 65.8182 96.4454 66.0711C96.5134 66.3386 96.5134 66.3386 96.4497 66.643C96.1862 66.8484 96.1862 66.8484 95.8194 67.0887C95.752 67.1332 95.6847 67.1776 95.6153 67.2235C95.387 67.3738 95.158 67.5229 94.9289 67.6719C94.7644 67.7799 94.6 67.888 94.4355 67.9962C93.9818 68.2944 93.5273 68.5914 93.0726 68.8882C92.5831 69.208 92.0943 69.5289 91.6054 69.8497C90.6468 70.4783 89.6875 71.106 88.728 71.7332C87.9484 72.2428 87.1691 72.7527 86.3898 73.2628C84.1828 74.7075 81.9753 76.1514 79.7671 77.5943C79.648 77.6721 79.5288 77.75 79.4061 77.8302C79.2868 77.9082 79.1675 77.9861 79.0446 78.0664C77.1103 79.3304 75.1773 80.5962 73.2448 81.8629C71.2627 83.162 69.2797 84.4598 67.2958 85.7561C66.1811 86.4845 65.0668 87.2135 63.9534 87.9439C63.0057 88.5657 62.057 89.1862 61.1073 89.8051C60.6224 90.1212 60.1379 90.4378 59.6544 90.7561C59.2123 91.047 58.7692 91.3363 58.3251 91.6242C58.1641 91.729 58.0036 91.8344 57.8434 91.9405C57.6267 92.084 57.4086 92.2252 57.19 92.3658C57.0689 92.445 56.9478 92.5242 56.823 92.6059C56.5028 92.7496 56.5028 92.7496 56.2102 92.6955C55.9147 92.5194 55.861 92.3705 55.7773 92.0415C55.8693 91.6022 56.0984 91.5324 56.468 91.2855C56.5339 91.2411 56.5998 91.1968 56.6676 91.1511C56.8859 91.0044 57.105 90.8589 57.3241 90.7135C57.4754 90.6122 57.6267 90.5107 57.7779 90.4092C58.1764 90.142 58.5756 89.8759 58.975 89.6101C59.3823 89.3387 59.7888 89.0662 60.1955 88.7939C60.9937 88.2595 61.7927 87.7262 62.5921 87.1937C62.5021 87.2395 62.5021 87.2395 62.4103 87.2862C61.7829 87.6048 61.1544 87.9213 60.5253 88.2366C60.291 88.3543 60.057 88.4727 59.8232 88.5915C59.4862 88.7628 59.1483 88.932 58.8101 89.101C58.6548 89.1807 58.6548 89.1807 58.4964 89.262C57.7375 89.6376 57.033 89.8954 56.1937 89.6512C55.7042 89.4616 55.562 89.3265 55.2741 88.8952C55.2042 88.7909 55.1344 88.6866 55.0624 88.5791C54.9872 88.4655 54.9119 88.3518 54.8344 88.2347C54.7572 88.1183 54.6801 88.0018 54.6006 87.8819C54.4373 87.6348 54.2743 87.3876 54.1116 87.1401C53.9035 86.824 53.6934 86.5094 53.4828 86.1951C53.2818 85.8941 53.0835 85.5915 52.8847 85.2891C52.809 85.1768 52.7333 85.0645 52.6554 84.9488C52.1898 84.2324 52.0278 83.8521 52.1818 83.01C52.4253 82.2488 52.7963 82.0199 53.4734 81.6354ZM59.2818 80.9167C59.2452 81.0975 59.2452 81.0975 59.2078 81.2819C59.1811 81.412 59.1543 81.5421 59.1268 81.6761C59.0994 81.813 59.0721 81.9499 59.0439 82.091C59.0158 82.2284 58.9878 82.3658 58.9588 82.5073C58.8894 82.8479 58.8206 83.1885 58.7524 83.5294C59.0978 83.759 59.4129 83.8451 59.8179 83.927C59.9401 83.9521 60.0624 83.9772 60.1883 84.0031C60.3154 84.0284 60.4425 84.0537 60.5735 84.0797C60.7666 84.1191 60.7666 84.1191 60.9636 84.1593C61.2812 84.224 61.5989 84.2879 61.9167 84.3512C62.1281 83.6564 62.297 82.9633 62.441 82.2517C62.461 82.1545 62.4811 82.0572 62.5017 81.957C62.5503 81.7205 62.5986 81.4839 62.6465 81.2471C61.9554 81.038 61.265 80.8637 60.5585 80.7153C60.4628 80.6943 60.3671 80.6733 60.2685 80.6516C60.1318 80.6227 60.1318 80.6227 59.9923 80.5933C59.9102 80.5757 59.8281 80.5582 59.7435 80.5401C59.4066 80.5019 59.3689 80.5993 59.2818 80.9167ZM84.0491 64.7426C84.0097 64.9334 84.0097 64.9334 83.9696 65.1281C83.9411 65.2652 83.9126 65.4023 83.8833 65.5436C83.8533 65.6898 83.8234 65.8359 83.7934 65.982C83.7631 66.1284 83.7328 66.2748 83.7025 66.4212C83.6281 66.7808 83.554 67.1405 83.4803 67.5003C84.149 67.7057 84.8182 67.8703 85.5037 68.0086C85.6387 68.0364 85.6387 68.0364 85.7764 68.0647C85.9949 68.1095 86.2135 68.1539 86.4322 68.1982C86.6541 67.8617 86.7434 67.5599 86.8228 67.1661C86.8465 67.0507 86.8702 66.9353 86.8945 66.8165C86.9302 66.6367 86.9302 66.6367 86.9666 66.4533C86.9913 66.3318 87.0161 66.2103 87.0416 66.0851C87.1024 65.7856 87.1626 65.486 87.2222 65.1862C86.8869 64.9655 86.5851 64.8743 86.1932 64.7934C86.0208 64.7575 86.0208 64.7575 85.8449 64.7209C85.7255 64.6968 85.606 64.6728 85.483 64.648C85.3019 64.6101 85.3019 64.6101 85.1172 64.5715C84.4139 64.3224 84.4139 64.3224 84.0491 64.7426ZM72.1541 73.6985C72.1284 73.8254 72.1026 73.9523 72.0761 74.083C72.0479 74.22 72.0197 74.3569 71.9907 74.498C71.9615 74.6437 71.9323 74.7893 71.9032 74.9349C71.8733 75.081 71.8435 75.2271 71.8135 75.3732C71.7402 75.7318 71.6677 76.0905 71.5958 76.4494C72.2906 76.6607 72.9837 76.8297 73.6953 76.9737C73.7926 76.9937 73.8898 77.0137 73.99 77.0344C74.2265 77.083 74.4632 77.1313 74.6999 77.1792C74.9112 76.4844 75.0802 75.7913 75.2242 75.0797C75.2442 74.9824 75.2642 74.8852 75.2848 74.785C75.3335 74.5485 75.3818 74.3118 75.4297 74.0751C75.0956 73.8558 74.794 73.7626 74.404 73.6802C74.2895 73.656 74.175 73.6318 74.0569 73.6069C73.9379 73.5826 73.8189 73.5582 73.6963 73.5332C73.5764 73.5074 73.4564 73.4817 73.3328 73.4552C73.2186 73.4314 73.1044 73.4077 72.9867 73.3833C72.882 73.3615 72.7772 73.3397 72.6693 73.3173C72.2922 73.2691 72.2529 73.3343 72.1541 73.6985Z" fill="#DE7E29"/>
<path d="M51.9375 78.1299C52.0059 78.0912 52.0744 78.0524 52.1449 78.0125C52.8164 77.6324 53.4875 77.2517 54.1584 76.8704C54.5026 76.6748 54.8469 76.4793 55.1915 76.2844C59.647 73.7636 63.9894 71.0864 68.2696 68.2782C68.7001 67.9959 69.1313 67.7144 69.5628 67.4335C73.9455 64.5802 78.2338 61.6146 82.4074 58.4631C82.6534 58.278 82.8995 58.0931 83.1457 57.9083C83.7273 57.4712 84.3084 57.0334 84.8891 56.5949C85 56.7959 85.1109 56.9969 85.2216 57.1979C85.2833 57.3099 85.3451 57.4218 85.4086 57.5371C85.5944 57.8801 85.7632 58.2235 85.9231 58.5791C85.9727 58.6882 86.0224 58.7973 86.0735 58.9098C86.1769 59.1685 86.1769 59.1685 86.1451 59.3207C86.0118 59.4342 85.8739 59.5423 85.7344 59.6481C85.5996 59.7506 85.5996 59.7506 85.4622 59.8553C85.363 59.9301 85.2639 60.0049 85.1617 60.0819C85.059 60.1598 84.9563 60.2377 84.8504 60.318C84.512 60.5744 84.173 60.83 83.834 61.0856C83.7185 61.1728 83.6031 61.2599 83.4842 61.3497C81.9982 62.4718 80.5061 63.5852 78.9958 64.6744C78.9258 64.725 78.8557 64.7755 78.7836 64.8277C78.3487 65.1412 77.9121 65.4521 77.4742 65.7614C77.286 65.8945 77.098 66.0277 76.91 66.1611C74.6424 67.7686 72.3255 69.2983 69.9981 70.8174C69.9019 70.8802 69.8058 70.943 69.7068 71.0077C65.1235 74.0009 60.4607 76.8133 55.6805 79.4802C55.5741 79.5397 55.4677 79.5993 55.3581 79.6607C54.8897 79.9209 54.4272 80.1727 53.9298 80.3744C53.7274 80.162 53.5255 79.9492 53.3238 79.7361C53.2677 79.6773 53.2115 79.6184 53.1537 79.5578C52.842 79.2277 52.546 78.8905 52.2623 78.5358C52.2011 78.4595 52.1399 78.3831 52.0769 78.3045C52.0309 78.2469 51.9849 78.1892 51.9375 78.1299Z" fill="#F9E342"/>
<path d="M41.5306 49.9464C42.1074 49.9931 42.5849 50.0804 43.049 50.4482C43.4861 51.0187 43.8794 51.5411 43.8556 52.2855C43.7972 52.6357 43.7972 52.6357 43.7281 52.8943C44.1835 53.2641 44.6971 53.4369 45.2405 53.6381C45.4466 53.7159 45.6527 53.7936 45.8588 53.8713C45.964 53.9108 46.0693 53.9502 46.1778 53.9909C46.9489 54.2804 47.7172 54.5772 48.4856 54.8738C48.7813 54.9875 49.0776 55.0998 49.3739 55.212C49.567 55.2863 49.76 55.3605 49.9531 55.4349C50.0424 55.4683 50.1318 55.5018 50.2239 55.5363C50.3068 55.5685 50.3897 55.6008 50.4752 55.634C50.5477 55.6616 50.6203 55.6893 50.695 55.7177C50.9697 55.8646 51.1069 55.9702 51.2915 56.2267C51.3867 56.5631 51.4299 56.9033 51.4741 57.2496C51.488 57.3495 51.5018 57.4493 51.5161 57.5522C51.5449 57.7632 51.573 57.9743 51.6002 58.1855C51.6422 58.5083 51.6872 58.8307 51.7327 59.1531C51.7603 59.3583 51.7878 59.5635 51.8151 59.7688C51.8286 59.865 51.8421 59.9613 51.856 60.0605C51.9622 60.9064 51.9622 60.9064 51.7329 61.3239C51.5174 61.5468 51.5174 61.5468 51.1806 61.6848C50.7868 61.6778 50.4091 61.5961 50.0232 61.5217C49.8023 61.4848 49.5814 61.4479 49.3604 61.4119C49.0667 61.364 48.7732 61.3154 48.4808 61.2602C48.2574 61.2231 48.2574 61.2231 48.0335 61.25C47.7251 61.2604 47.5366 61.2247 47.2518 61.0999C46.804 60.6311 46.469 60.0942 46.1202 59.5499C46.016 59.3923 45.9116 59.235 45.8068 59.0778C45.5327 58.6648 45.2624 58.2494 44.9929 57.8334C44.7169 57.4088 44.4373 56.9866 44.158 56.5642C43.6111 55.736 43.0682 54.9052 42.5279 54.0727C42.3884 54.1382 42.3884 54.1382 42.246 54.2051C41.7129 54.4252 41.2903 54.3849 40.7443 54.2203C40.1018 53.8584 39.7478 53.3475 39.5128 52.6602C39.404 52.0877 39.4801 51.4938 39.7714 50.9878C40.2035 50.4718 40.8465 50.0105 41.5306 49.9464Z" fill="#DE7E29"/>
<path d="M65.2935 34.4217C65.8737 34.4386 66.4127 34.6255 66.8438 35.0202C67.3111 35.5715 67.526 36.0986 67.4982 36.8256C67.4137 37.3225 67.2342 37.7452 66.9068 38.1316C66.8157 38.1911 66.7245 38.2507 66.6307 38.312C66.716 38.4392 66.716 38.4392 66.803 38.569C67.3388 39.3687 67.8724 40.1699 68.4036 40.9728C68.6768 41.3855 68.9507 41.7976 69.2267 42.2085C69.493 42.6051 69.757 43.0031 70.0196 43.4022C70.1201 43.5541 70.2214 43.7055 70.3235 43.8564C70.4666 44.068 70.6066 44.2813 70.7461 44.4952C70.8103 44.5879 70.8103 44.5879 70.8757 44.6825C71.101 45.0356 71.1443 45.1984 71.0914 45.6199C71.0555 45.7375 71.0197 45.8551 70.9827 45.9763C70.9605 46.0866 70.9383 46.197 70.9155 46.3107C70.7843 46.9569 70.6406 47.5944 70.4523 48.2266C70.3923 48.431 70.3433 48.6385 70.297 48.8463C70.0896 49.2945 69.8728 49.4124 69.4245 49.6218C68.8864 49.5028 68.4591 49.2383 68.0064 48.9358C67.9373 48.8905 67.8682 48.8451 67.7971 48.7984C67.6518 48.7029 67.5068 48.607 67.3621 48.5107C67.1417 48.3643 66.9207 48.2189 66.6996 48.0738C66.5579 47.9804 66.4163 47.887 66.2747 47.7935C66.2093 47.7504 66.1439 47.7073 66.0766 47.6629C65.8971 47.5434 65.7195 47.4212 65.542 47.2989C65.4379 47.2282 65.3338 47.1576 65.2266 47.0848C64.997 46.867 64.997 46.867 64.9383 46.618C64.9427 46.5272 64.9471 46.4365 64.9517 46.343C64.9571 46.1895 64.9571 46.1895 64.9626 46.033C64.9693 45.9238 64.976 45.8147 64.9829 45.7022C64.9876 45.5889 64.9924 45.4756 64.9973 45.3588C65.0123 45.0177 65.031 44.677 65.0507 44.3361C65.0599 44.1559 65.069 43.9757 65.078 43.7954C65.095 43.4658 65.1135 43.1363 65.1328 42.8068C65.2084 41.4795 65.2573 40.1474 65.2536 38.8179C65.189 38.8014 65.1244 38.7849 65.0578 38.7679C64.2655 38.5537 63.8039 38.311 63.366 37.6004C63.11 37.0649 63.0814 36.5222 63.2327 35.9517C63.6196 35.023 64.2933 34.4933 65.2935 34.4217Z" fill="#DE7E29"/>
<path d="M97.4641 64.4941C97.5456 64.4405 97.627 64.3869 97.711 64.3317C97.8398 64.249 97.8398 64.249 97.9713 64.1647C98.0562 64.1081 98.1412 64.0516 98.2287 63.9933C98.3514 63.9136 98.3514 63.9136 98.4766 63.8324C98.5517 63.7836 98.6268 63.7348 98.7042 63.6845C98.9067 63.5861 98.9067 63.5861 99.2111 63.6499C99.4447 63.957 99.4447 63.957 99.6322 64.2942C99.5556 64.6598 99.4946 64.6805 99.1936 64.8785C99.0782 64.9544 99.0782 64.9544 98.9605 65.0318C98.8794 65.0838 98.7983 65.1358 98.7148 65.1893C98.635 65.2425 98.5552 65.2957 98.473 65.3504C98.3956 65.4006 98.3183 65.4508 98.2386 65.5026C98.1678 65.5485 98.097 65.5945 98.0241 65.6419C97.8196 65.7415 97.8196 65.7415 97.4232 65.7379C97.1839 65.4345 97.1839 65.4345 97.0021 65.0936C97.0802 64.7207 97.1551 64.6972 97.4641 64.4941Z" fill="#E30808"/>
<path d="M53.5532 93.1862C53.6488 93.1245 53.6488 93.1245 53.7462 93.0614C53.8087 93.0185 53.8712 92.9755 53.9356 92.9312C54.1199 92.8105 54.1199 92.8105 54.4553 92.639C54.8199 92.7949 54.8199 92.7949 55.0149 93.1436C55.0591 93.261 55.1033 93.3784 55.1489 93.4993C54.9648 93.8147 54.6949 93.9498 54.3919 94.15C54.2195 94.2655 54.2195 94.2655 54.0436 94.3833C53.7363 94.5538 53.7363 94.5538 53.432 94.49C53.1984 94.1829 53.1984 94.1829 53.0109 93.8457C53.0901 93.4679 53.2426 93.394 53.5532 93.1862Z" fill="#E30808"/>
</svg>
