<svg width="147" height="43" viewBox="0 0 147 43" fill="none" xmlns="http://www.w3.org/2000/svg">
<rect x="128.508" y="25.125" width="3.00817" height="4.41871" transform="rotate(13.342 128.508 25.125)" fill="#DE7E29"/>
<circle cx="20.5078" cy="22.666" r="17.1911" stroke="#F9E342" stroke-width="1.24273"/>
<circle cx="20.4994" cy="22.6674" r="15.5341" stroke="black" stroke-width="2.07122" stroke-dasharray="4.14 4.14"/>
<circle cx="20.4977" cy="22.6662" r="15.5341" transform="rotate(15.1988 20.4977 22.6662)" stroke="#E30808" stroke-width="2.07122" stroke-dasharray="4.14 4.14"/>
<path d="M20.5019 6.70713L20.4659 8.08601L20.299 8.08165L20.3304 6.87783L20.3223 6.87762L19.9798 7.09236L19.9843 6.92269L20.335 6.70277L20.5019 6.70713Z" fill="#FEFEFE"/>
<path d="M24.5953 7.22033C24.6491 7.23759 24.7 7.26471 24.7477 7.30169C24.7954 7.33867 24.8343 7.38747 24.8643 7.44809C24.8945 7.50828 24.9106 7.58266 24.9126 7.67124C24.9146 7.75982 24.8968 7.86455 24.8591 7.98543C24.8227 8.10246 24.7791 8.20294 24.7285 8.28687C24.6785 8.37051 24.623 8.43693 24.562 8.48613C24.5015 8.53546 24.4366 8.56699 24.3675 8.5807C24.2987 8.59455 24.2272 8.58992 24.1531 8.56681C24.0794 8.54383 24.0181 8.50875 23.9693 8.46157C23.9211 8.41409 23.8867 8.35846 23.8661 8.29467C23.8461 8.23059 23.8418 8.16222 23.8531 8.08957L24.01 8.13846C24.0053 8.20331 24.0179 8.262 24.0476 8.31453C24.0779 8.36677 24.1277 8.40371 24.1972 8.42535C24.2988 8.45701 24.3928 8.43762 24.4791 8.36719C24.5659 8.29689 24.6346 8.18072 24.6851 8.01868L24.6748 8.01547C24.6396 8.044 24.6014 8.0662 24.5602 8.08206C24.5191 8.09792 24.4761 8.10665 24.4314 8.10824C24.3867 8.10982 24.3417 8.10354 24.2962 8.08938C24.2208 8.06587 24.1574 8.02565 24.106 7.96871C24.0551 7.91149 24.0211 7.8442 24.0038 7.76686C23.9871 7.68922 23.9919 7.60796 24.0184 7.52309C24.0435 7.4425 24.0845 7.37437 24.1413 7.31872C24.1987 7.26278 24.2665 7.22509 24.3445 7.20566C24.4229 7.18637 24.5065 7.19125 24.5953 7.22033ZM24.5512 7.36179C24.4972 7.34496 24.4443 7.3433 24.3926 7.35681C24.3414 7.37003 24.2961 7.39542 24.2567 7.43298C24.2178 7.47024 24.1898 7.51631 24.1727 7.57118C24.1556 7.62605 24.1521 7.67973 24.162 7.73222C24.1726 7.78442 24.1947 7.83035 24.2284 7.87002C24.2627 7.90939 24.3069 7.9375 24.3609 7.95433C24.4016 7.96702 24.442 7.97091 24.4821 7.966C24.5223 7.96067 24.5599 7.94814 24.5947 7.92843C24.6301 7.90842 24.6608 7.88296 24.6869 7.85206C24.7132 7.82072 24.7323 7.78555 24.7445 7.74654C24.7605 7.6951 24.7631 7.643 24.7523 7.59024C24.7419 7.53762 24.7194 7.49063 24.6848 7.44927C24.6506 7.40805 24.6061 7.37889 24.5512 7.36179Z" fill="#FEFEFE"/>
<path d="M28.0437 10.2302C27.9699 10.1806 27.9127 10.1238 27.8719 10.0596C27.8316 9.99572 27.8096 9.92983 27.8059 9.86194C27.8029 9.79394 27.8201 9.72893 27.8574 9.66692L27.9983 9.76156C27.9765 9.80046 27.9678 9.84084 27.9721 9.8827C27.9767 9.92418 27.9922 9.96434 28.0186 10.0032C28.045 10.042 28.0801 10.0762 28.1241 10.1057C28.1733 10.1388 28.2227 10.1595 28.2722 10.1679C28.3218 10.1763 28.3676 10.1724 28.4098 10.1564C28.4519 10.1404 28.4865 10.1122 28.5135 10.072C28.5418 10.0298 28.5563 9.98574 28.557 9.93966C28.5579 9.89322 28.5443 9.84734 28.5163 9.80204C28.4884 9.75673 28.4453 9.71455 28.3872 9.6755L28.2955 9.6139L28.3781 9.49091L28.4698 9.5525C28.5152 9.58304 28.5606 9.60163 28.6059 9.60827C28.6516 9.61515 28.6942 9.61019 28.7336 9.59339C28.7734 9.57685 28.8068 9.54845 28.8338 9.50819C28.8599 9.46943 28.8739 9.42994 28.8761 9.38972C28.8782 9.34951 28.869 9.31087 28.8485 9.27381C28.8283 9.237 28.7971 9.20445 28.755 9.17616C28.7155 9.14962 28.6734 9.13185 28.6286 9.12285C28.5844 9.11373 28.5422 9.11539 28.5019 9.12783C28.4619 9.13989 28.4282 9.16431 28.4008 9.20107L28.2666 9.11094C28.3091 9.05243 28.3625 9.01202 28.4267 8.98971C28.4912 8.96702 28.5593 8.9614 28.6311 8.97286C28.7033 8.98457 28.7724 9.01259 28.8384 9.0569C28.9092 9.10447 28.9603 9.15963 28.9917 9.22238C29.0234 9.28476 29.0372 9.34838 29.0331 9.41325C29.029 9.47811 29.0088 9.53757 28.9725 9.59162C28.9292 9.6561 28.8753 9.69968 28.8108 9.72237C28.7467 9.74531 28.6799 9.74613 28.6104 9.72484L28.6044 9.73379C28.6687 9.79429 28.7045 9.86297 28.7118 9.93983C28.7194 10.0163 28.6988 10.0909 28.65 10.1636C28.6081 10.2258 28.5536 10.2703 28.4864 10.2971C28.4198 10.3238 28.3479 10.3318 28.2708 10.321C28.1936 10.3103 28.1179 10.28 28.0437 10.2302Z" fill="#FEFEFE"/>
<path d="M30.7249 12.4962C30.6658 12.4249 30.6263 12.3516 30.6063 12.276C30.5869 12.2006 30.5869 12.1291 30.6063 12.0617C30.626 11.9941 30.6647 11.9366 30.7224 11.8894C30.767 11.8518 30.8158 11.8263 30.8687 11.8127C30.922 11.7989 30.9743 11.7969 31.0257 11.8068C31.0777 11.8168 31.1232 11.8383 31.1622 11.8713L31.1684 11.8661C31.1395 11.8044 31.1345 11.7403 31.1534 11.6739C31.1728 11.6071 31.2107 11.5506 31.2674 11.5042C31.321 11.4592 31.3806 11.4329 31.446 11.4253C31.5115 11.4177 31.5765 11.4279 31.6412 11.456C31.7061 11.4844 31.7644 11.5297 31.8159 11.5919C31.8669 11.6535 31.9002 11.7186 31.9158 11.7874C31.9313 11.8561 31.9293 11.9219 31.9097 11.9848C31.8904 12.0481 31.8539 12.1022 31.8003 12.1472C31.7436 12.1936 31.6806 12.2199 31.6111 12.2262C31.5423 12.2325 31.4807 12.2162 31.4263 12.1773L31.4201 12.1824C31.445 12.2265 31.4572 12.2747 31.4568 12.327C31.4567 12.3789 31.445 12.43 31.4218 12.4801C31.399 12.53 31.3653 12.5737 31.3206 12.6113C31.2629 12.6585 31.1989 12.6853 31.1284 12.6918C31.0586 12.6983 30.9884 12.6851 30.9179 12.652C30.8479 12.619 30.7836 12.567 30.7249 12.4962ZM30.8389 12.4016C30.8788 12.4497 30.9209 12.4847 30.9654 12.5067C31.0099 12.5288 31.0542 12.5375 31.0983 12.533C31.1424 12.5286 31.1836 12.5107 31.222 12.4796C31.2618 12.446 31.2886 12.4063 31.3025 12.3604C31.3163 12.3145 31.3175 12.2666 31.3059 12.2167C31.2946 12.1672 31.2703 12.1199 31.2331 12.075C31.1955 12.0297 31.1532 11.9966 31.106 11.9756C31.0592 11.9549 31.0119 11.9471 30.9643 11.9522C30.9169 11.9577 30.8733 11.9772 30.8334 12.0108C30.7951 12.042 30.7695 12.0786 30.7567 12.1208C30.7441 12.1633 30.7446 12.2086 30.7583 12.2568C30.7719 12.3049 30.7988 12.3532 30.8389 12.4016ZM31.343 11.9839C31.3745 12.0219 31.4101 12.0493 31.4496 12.0661C31.4895 12.0832 31.5301 12.0889 31.5714 12.0832C31.6128 12.0775 31.6519 12.0597 31.6888 12.0297C31.7245 11.9995 31.7488 11.9651 31.7616 11.9265C31.7749 11.8875 31.7765 11.8473 31.7667 11.8059C31.7572 11.7642 31.7363 11.7238 31.7039 11.6848C31.671 11.645 31.6347 11.6164 31.5952 11.599C31.5561 11.5813 31.5163 11.5755 31.4759 11.5816C31.4358 11.5874 31.3979 11.6054 31.3622 11.6355C31.3253 11.6656 31.3 11.7002 31.2865 11.7394C31.2732 11.779 31.2713 11.82 31.2807 11.8623C31.2901 11.9046 31.3109 11.9452 31.343 11.9839Z" fill="#FEFEFE"/>
<path d="M32.8689 15.3573L34.2338 15.442L34.2437 15.4377L33.9627 14.7844L34.0988 14.7258L34.4479 15.5376L34.3044 15.5993L32.9381 15.5182L32.8689 15.3573Z" fill="#FEFEFE"/>
<path d="M34.3934 18.4932L34.5105 18.462L35.1094 18.7734C35.1796 18.81 35.24 18.8395 35.2905 18.8618C35.3415 18.884 35.3876 18.8982 35.4288 18.9044C35.4705 18.9109 35.5117 18.9087 35.5525 18.8979C35.5993 18.8854 35.6369 18.8633 35.6652 18.8316C35.6935 18.8003 35.7119 18.7629 35.7203 18.7193C35.7286 18.6757 35.7264 18.6298 35.7135 18.5817C35.6999 18.5305 35.6773 18.4886 35.6459 18.4561C35.615 18.4239 35.5779 18.4024 35.5346 18.3917C35.4914 18.3814 35.4444 18.383 35.3937 18.3965L35.3527 18.2429C35.4308 18.2221 35.5042 18.2218 35.5728 18.2421C35.6414 18.2624 35.7004 18.2991 35.75 18.3524C35.7996 18.4061 35.8348 18.4717 35.8555 18.5494C35.8763 18.6275 35.8783 18.7011 35.8614 18.7702C35.8445 18.8393 35.8126 18.8984 35.7658 18.9476C35.719 18.9968 35.6613 19.0305 35.5928 19.0488C35.5437 19.0619 35.4934 19.0658 35.4418 19.0605C35.3908 19.0555 35.3308 19.039 35.262 19.0109C35.1937 18.9831 35.1084 18.942 35.006 18.8875L34.606 18.6735L34.5956 18.6763L34.7608 19.2958L34.6177 19.334L34.3934 18.4932Z" fill="#FEFEFE"/>
<path d="M35.0103 22.0386L35.1477 22.0376L36.111 22.637L36.1117 22.7367L35.8989 22.7382L35.8984 22.6708L35.1705 22.218L35.1597 22.218L35.1655 23.0343L35.0173 23.0354L35.0103 22.0386ZM34.732 22.6898L35.0566 22.6875L35.1206 22.6871L36.1113 22.6801L36.1124 22.839L34.7331 22.8488L34.732 22.6898Z" fill="#FEFEFE"/>
<path d="M35.7169 26.7317C35.6954 26.784 35.6643 26.8325 35.6236 26.8771C35.5829 26.9218 35.5312 26.9566 35.4684 26.9817C35.406 27.007 35.3305 27.0171 35.2421 27.012C35.1536 27.007 35.0506 26.9808 34.9331 26.9336C34.8194 26.888 34.7227 26.8365 34.6431 26.7794C34.5637 26.7228 34.5019 26.6622 34.4577 26.5975C34.4134 26.5333 34.3871 26.4661 34.379 26.396C34.3707 26.3264 34.381 26.2556 34.4099 26.1835C34.4387 26.1118 34.4786 26.0535 34.5295 26.0087C34.5807 25.9644 34.6389 25.9345 34.7041 25.9191C34.7696 25.9043 34.8381 25.9054 34.9096 25.9226L34.8483 26.0751C34.7841 26.0652 34.7246 26.073 34.6698 26.0984C34.6154 26.1245 34.5746 26.1712 34.5474 26.2387C34.5078 26.3375 34.5196 26.4327 34.5829 26.5244C34.6461 26.6166 34.7564 26.6943 34.9139 26.7575L34.9179 26.7475C34.8923 26.7101 34.8732 26.6703 34.8607 26.628C34.8481 26.5857 34.8429 26.5422 34.8449 26.4975C34.8468 26.4528 34.8567 26.4084 34.8744 26.3643C34.9039 26.2909 34.949 26.2309 35.0099 26.1842C35.071 26.1381 35.1408 26.1095 35.2193 26.0985C35.298 26.088 35.3786 26.0993 35.4611 26.1325C35.5394 26.1639 35.6041 26.2102 35.655 26.2713C35.7062 26.333 35.7383 26.4035 35.7515 26.4828C35.7645 26.5626 35.7529 26.6455 35.7169 26.7317ZM35.5794 26.6764C35.6005 26.6239 35.6063 26.5714 35.597 26.5188C35.5879 26.4667 35.5662 26.4195 35.5319 26.3772C35.4979 26.3355 35.4542 26.3039 35.4008 26.2825C35.3475 26.2611 35.2943 26.2532 35.2412 26.259C35.1883 26.2653 35.1407 26.2837 35.0985 26.3142C35.0565 26.3452 35.025 26.387 35.0039 26.4395C34.988 26.4791 34.9809 26.519 34.9826 26.5594C34.9847 26.5999 34.9942 26.6383 35.0111 26.6746C35.0282 26.7115 35.0511 26.7442 35.0798 26.7726C35.109 26.8013 35.1425 26.8232 35.1804 26.8385C35.2304 26.8585 35.2821 26.8653 35.3356 26.8587C35.3889 26.8525 35.4375 26.8338 35.4815 26.8026C35.5253 26.7718 35.5579 26.7298 35.5794 26.6764Z" fill="#FEFEFE"/>
<path d="M33.8148 30.3902L32.7088 29.566L32.8086 29.4321L33.7742 30.1517L33.779 30.1452L33.8009 29.7416L33.937 29.843L33.9146 30.2563L33.8148 30.3902Z" fill="#FEFEFE"/>
<path d="M27.9663 34.7701L28.3044 36.0952L28.3115 36.1033L28.8472 35.6355L28.9446 35.7471L28.2791 36.3283L28.1763 36.2106L27.8344 34.8853L27.9663 34.7701Z" fill="#FEFEFE"/>
<path d="M30.9019 32.672L31.4076 33.9425L31.4157 33.9496L31.8868 33.4168L31.9978 33.5149L31.4125 34.177L31.2954 34.0735L30.786 32.8032L30.9019 32.672Z" fill="#FEFEFE"/>
<path d="M24.8098 36.6471L24.8471 36.7793L24.5245 37.867L24.4285 37.8941L24.3707 37.6893L24.4355 37.671L24.6793 36.8491L24.6763 36.8387L23.8908 37.0606L23.8505 36.918L24.8098 36.6471ZM24.1081 36.5513L24.1963 36.8638L24.2137 36.9253L24.483 37.8788L24.33 37.922L23.9551 36.5945L24.1081 36.5513Z" fill="#FEFEFE"/>
<path d="M20.2658 36.9785C20.3583 36.9799 20.4398 36.9975 20.5102 37.0313C20.5802 37.0656 20.6345 37.112 20.6732 37.1705C20.7118 37.2294 20.7304 37.2962 20.7288 37.3707C20.7284 37.4291 20.7161 37.4828 20.692 37.5318C20.668 37.5813 20.6355 37.6224 20.5946 37.655C20.5532 37.688 20.5073 37.7087 20.4569 37.7169L20.4568 37.725C20.5225 37.743 20.5745 37.7809 20.6127 37.8385C20.6509 37.8965 20.6692 37.9621 20.6677 38.0353C20.6671 38.1053 20.6485 38.1677 20.6117 38.2224C20.575 38.2771 20.5249 38.3199 20.4616 38.3508C20.3978 38.3818 20.3255 38.3966 20.2447 38.3954C20.1648 38.3942 20.0937 38.3772 20.0313 38.3444C19.9689 38.3116 19.9202 38.2673 19.8851 38.2116C19.8495 38.1558 19.8321 38.0929 19.8327 38.0229C19.8342 37.9497 19.8551 37.8847 19.8955 37.8278C19.9354 37.7714 19.9878 37.7351 20.0527 37.719L20.0528 37.7109C20.0031 37.7012 19.9586 37.6792 19.9191 37.6449C19.8796 37.6111 19.8484 37.5691 19.8253 37.5189C19.8023 37.4692 19.791 37.4151 19.7914 37.3568C19.7929 37.2822 19.8141 37.2161 19.8549 37.1583C19.8953 37.101 19.951 37.0562 20.022 37.0241C20.0925 36.9923 20.1738 36.9772 20.2658 36.9785ZM20.2636 37.1267C20.2012 37.1258 20.1472 37.1351 20.1015 37.1546C20.0559 37.1741 20.0204 37.2021 19.9952 37.2385C19.97 37.275 19.9568 37.3179 19.9556 37.3673C19.9552 37.4194 19.968 37.4656 19.9939 37.5059C20.0198 37.5463 20.0555 37.5783 20.1009 37.6018C20.1459 37.6254 20.1976 37.6376 20.256 37.6385C20.3148 37.6394 20.3675 37.6287 20.4141 37.6065C20.4602 37.5843 20.4968 37.5534 20.5239 37.5138C20.5505 37.4743 20.564 37.4284 20.5644 37.3763C20.5655 37.327 20.5543 37.2837 20.5306 37.2465C20.5064 37.2093 20.4716 37.1803 20.4261 37.1594C20.3806 37.1385 20.3265 37.1276 20.2636 37.1267ZM20.2539 37.7813C20.2045 37.7805 20.1606 37.7897 20.1221 37.8089C20.0832 37.8281 20.0525 37.8553 20.03 37.8904C20.0074 37.9256 19.9956 37.9669 19.9944 38.0145C19.9942 38.0612 20.0046 38.102 20.0256 38.1369C20.0466 38.1722 20.0761 38.1996 20.114 38.219C20.1519 38.2389 20.1962 38.2492 20.2469 38.25C20.2985 38.2507 20.3438 38.2418 20.3827 38.223C20.4216 38.2047 20.4518 38.1783 20.4735 38.1435C20.4951 38.1093 20.506 38.0688 20.5062 38.0221C20.5074 37.9745 20.4975 37.9328 20.4764 37.8971C20.455 37.8613 20.4251 37.8332 20.3868 37.8129C20.3485 37.7925 20.3042 37.782 20.2539 37.7813Z" fill="#FEFEFE"/>
<path d="M16.7263 36.6656C16.8018 36.6891 16.865 36.7254 16.916 36.7742C16.9671 36.8231 17.0027 36.8794 17.0228 36.9431C17.0429 37.0067 17.0442 37.0725 17.0267 37.1405L16.8724 37.0922C16.885 37.0308 16.8734 36.9731 16.8376 36.9191C16.8012 36.8654 16.7494 36.828 16.6821 36.807C16.6281 36.7901 16.5762 36.7877 16.5263 36.7999C16.476 36.8119 16.4319 36.8363 16.3941 36.8729C16.3557 36.9099 16.3278 36.9564 16.3102 37.0125C16.2923 37.07 16.2889 37.1251 16.3002 37.178C16.3108 37.2312 16.3339 37.2777 16.3695 37.3175C16.405 37.3573 16.4508 37.3862 16.5068 37.4042C16.5469 37.4172 16.5902 37.4239 16.6367 37.4243C16.683 37.4251 16.723 37.42 16.7565 37.4088L16.9001 37.4735L16.6179 38.0965L15.9339 37.8828L15.9781 37.7414L16.5283 37.9133L16.696 37.5395L16.6882 37.5371C16.6545 37.5501 16.6151 37.5573 16.57 37.5587C16.5249 37.5601 16.4802 37.5539 16.4361 37.5402C16.3555 37.515 16.2898 37.4733 16.2388 37.415C16.1873 37.357 16.1539 37.2892 16.1387 37.2115C16.123 37.1337 16.1285 37.0522 16.1552 36.9669C16.1814 36.8829 16.2237 36.8138 16.282 36.7596C16.3398 36.7057 16.4074 36.6699 16.4849 36.6522C16.5623 36.635 16.6428 36.6394 16.7263 36.6656Z" fill="#FEFEFE"/>
<path d="M12.1171 36.1823L12.8695 35.0263L13.0095 35.1174L12.3526 36.1267L12.3594 36.1311L12.7636 36.1274L12.671 36.2696L12.2571 36.2734L12.1171 36.1823Z" fill="#FEFEFE"/>
<path d="M9.96441 32.6709C10.0166 32.7302 10.0518 32.794 10.0701 32.8623C10.0883 32.9306 10.0895 32.9972 10.0736 33.062C10.0577 33.1269 10.0246 33.1838 9.97443 33.2328L9.86763 33.1114C9.91032 33.0655 9.93039 33.0101 9.92784 32.9454C9.92465 32.8806 9.89976 32.8217 9.85319 32.7688C9.81581 32.7263 9.77264 32.6974 9.72368 32.6818C9.67442 32.666 9.62413 32.6639 9.5728 32.6756C9.52084 32.6872 9.47278 32.7124 9.42863 32.7513C9.38347 32.7911 9.35194 32.8365 9.33406 32.8875C9.31554 32.9385 9.31113 32.9902 9.32083 33.0427C9.33053 33.0952 9.35464 33.1436 9.39317 33.1881C9.42072 33.2201 9.45423 33.2483 9.49372 33.2728C9.53286 33.2975 9.56968 33.3139 9.60417 33.3218L9.69325 33.4515L9.12847 33.8374L8.65499 33.2995L8.76621 33.2016L9.14713 33.6343L9.48453 33.402L9.47919 33.3959C9.44365 33.3895 9.40622 33.3752 9.36692 33.353C9.32761 33.3307 9.29268 33.3023 9.26212 33.2675C9.20635 33.2042 9.17183 33.1344 9.15855 33.0581C9.14464 32.9818 9.15135 32.9066 9.17867 32.8323C9.20569 32.7576 9.25274 32.6908 9.31981 32.6318C9.38587 32.5736 9.4579 32.5365 9.53592 32.5205C9.61329 32.5044 9.68967 32.509 9.76506 32.5341C9.84011 32.5596 9.90656 32.6052 9.96441 32.6709Z" fill="#FEFEFE"/>
<path d="M7.89579 29.6312C7.94201 29.6953 7.97088 29.7622 7.98241 29.832C7.99394 29.9017 7.98865 29.9681 7.96653 30.0311C7.94442 30.0941 7.906 30.1475 7.85128 30.1914L7.75675 30.0603C7.8037 30.0187 7.82904 29.9655 7.83278 29.9008C7.83589 29.836 7.81683 29.775 7.7756 29.7179C7.74251 29.672 7.70236 29.6389 7.65514 29.6187C7.60765 29.5982 7.5578 29.5912 7.50558 29.5979C7.45274 29.6044 7.40246 29.6249 7.35474 29.6593C7.30594 29.6945 7.27016 29.7366 7.24741 29.7856C7.22403 29.8346 7.21463 29.8857 7.21919 29.9388C7.22376 29.992 7.24306 30.0426 7.2771 30.0906C7.30141 30.125 7.33204 30.1564 7.36896 30.1846C7.40552 30.213 7.44058 30.2328 7.47413 30.2441L7.55022 30.3819L6.95068 30.7111L6.53159 30.1298L6.65178 30.0432L6.98894 30.5109L7.34728 30.3123L7.34256 30.3057C7.3078 30.2959 7.27194 30.278 7.23498 30.2521C7.19801 30.2262 7.16601 30.1944 7.13896 30.1569C7.0896 30.0885 7.062 30.0156 7.05618 29.9385C7.04974 29.8612 7.06371 29.7869 7.09811 29.7156C7.13224 29.6439 7.18555 29.582 7.25803 29.5297C7.32941 29.4783 7.40471 29.4483 7.4839 29.4399C7.56247 29.4315 7.63805 29.4434 7.71065 29.4757C7.78287 29.5084 7.84459 29.5602 7.89579 29.6312Z" fill="#FEFEFE"/>
<path d="M6.39564 26.2916C6.43305 26.3723 6.45254 26.4506 6.45412 26.5266C6.45552 26.6022 6.44016 26.6699 6.40807 26.7298C6.37537 26.7895 6.32699 26.8362 6.26292 26.8699L6.19152 26.7159C6.23033 26.694 6.25873 26.664 6.27673 26.6259C6.29431 26.5881 6.30189 26.5457 6.29945 26.4988C6.29701 26.452 6.28465 26.4045 6.26236 26.3564C6.23742 26.3027 6.20595 26.2593 6.16795 26.2265C6.12994 26.1936 6.08876 26.1731 6.0444 26.165C6.00004 26.1569 5.95587 26.163 5.91187 26.1834C5.86585 26.2047 5.83061 26.2349 5.80615 26.274C5.78129 26.3132 5.76909 26.3595 5.76953 26.4127C5.76997 26.466 5.78493 26.5244 5.8144 26.5879L5.86087 26.6881L5.72645 26.7505L5.67998 26.6503C5.65693 26.6006 5.62775 26.5611 5.59245 26.532C5.55696 26.5024 5.51801 26.4846 5.4756 26.4785C5.433 26.472 5.38971 26.479 5.34571 26.4994C5.30335 26.5191 5.27083 26.5455 5.24816 26.5788C5.22548 26.6121 5.21332 26.6499 5.21167 26.6922C5.20984 26.7342 5.21959 26.7781 5.24094 26.8242C5.26096 26.8674 5.2878 26.9044 5.32144 26.9353C5.35449 26.966 5.39145 26.9865 5.43233 26.9967C5.47281 27.0072 5.51429 27.0038 5.55678 26.9865L5.62479 27.1332C5.55807 27.1612 5.49148 27.168 5.425 27.1538C5.35811 27.1398 5.29694 27.1093 5.24147 27.0622C5.18581 27.0148 5.14127 26.955 5.10783 26.8829C5.07194 26.8055 5.05683 26.7319 5.0625 26.6619C5.06777 26.5922 5.08896 26.5306 5.12609 26.4773C5.16322 26.4239 5.21131 26.3836 5.27038 26.3562C5.34085 26.3235 5.40952 26.3142 5.47641 26.3282C5.5431 26.3418 5.60067 26.3757 5.64909 26.43L5.65887 26.4255C5.63525 26.3404 5.64024 26.2631 5.67382 26.1936C5.707 26.1242 5.7633 26.0711 5.84274 26.0343C5.91076 26.0028 5.98046 25.993 6.05182 26.0049C6.12259 26.0166 6.18819 26.0471 6.24862 26.0963C6.30904 26.1455 6.35805 26.2106 6.39564 26.2916Z" fill="#FEFEFE"/>
<path d="M5.93701 22.6033C5.95033 22.6948 5.94589 22.778 5.92368 22.853C5.90095 22.9275 5.86378 22.9885 5.81215 23.036C5.76008 23.0835 5.69714 23.1124 5.62332 23.1227C5.56562 23.1315 5.51065 23.128 5.45841 23.112C5.40573 23.096 5.36003 23.0705 5.32133 23.0353C5.28212 22.9997 5.25445 22.9577 5.23832 22.9092L5.23032 22.9104C5.22295 22.9781 5.19386 23.0355 5.14306 23.0823C5.09181 23.1293 5.02994 23.1578 4.95746 23.1679C4.88821 23.1784 4.82367 23.1699 4.76384 23.1423C4.70401 23.1147 4.6538 23.0721 4.6132 23.0145C4.57253 22.9564 4.54637 22.8874 4.53473 22.8074C4.52321 22.7284 4.5287 22.6554 4.55119 22.5886C4.57368 22.5218 4.60966 22.4667 4.65914 22.4232C4.70855 22.3792 4.76788 22.352 4.83713 22.3414C4.90962 22.3313 4.97715 22.3417 5.03972 22.3725C5.10177 22.403 5.1459 22.4489 5.1721 22.5105L5.1801 22.5093C5.1818 22.4587 5.19644 22.4112 5.22401 22.3668C5.25113 22.3225 5.28764 22.2849 5.33353 22.2542C5.37898 22.2235 5.43055 22.2038 5.48824 22.1949C5.56207 22.1846 5.63074 22.195 5.69426 22.2262C5.75727 22.2569 5.81029 22.3048 5.85333 22.3698C5.89585 22.4344 5.92375 22.5122 5.93701 22.6033ZM5.79038 22.6246C5.78139 22.5629 5.76363 22.511 5.7371 22.469C5.71057 22.4271 5.67731 22.3965 5.63732 22.3774C5.59733 22.3583 5.55286 22.352 5.50392 22.3587C5.45245 22.3667 5.40884 22.3866 5.37312 22.4186C5.33739 22.4506 5.31149 22.4909 5.29543 22.5395C5.2793 22.5877 5.27545 22.6406 5.28385 22.6984C5.29233 22.7566 5.31123 22.8069 5.34055 22.8494C5.36981 22.8914 5.40612 22.9227 5.44948 22.9431C5.49278 22.9631 5.54016 22.9692 5.59164 22.9612C5.64058 22.9545 5.68152 22.9366 5.71446 22.9073C5.74734 22.8775 5.77048 22.8385 5.78387 22.7903C5.79727 22.7421 5.79944 22.6868 5.79038 22.6246ZM5.14256 22.719C5.13544 22.6701 5.11936 22.6282 5.09431 22.5933C5.0692 22.5579 5.03751 22.5319 4.99924 22.5152C4.96097 22.4986 4.91825 22.4934 4.87109 22.4998C4.82494 22.507 4.78631 22.5238 4.75521 22.5501C4.72365 22.5764 4.7013 22.6099 4.68813 22.6504C4.67453 22.6909 4.67138 22.7363 4.67869 22.7865C4.68613 22.8376 4.70218 22.8808 4.72685 22.9163C4.75108 22.9518 4.78204 22.9774 4.81973 22.9933C4.85699 23.0092 4.89869 23.0135 4.94483 23.0064C4.99199 23 5.03157 22.9835 5.06357 22.9571C5.0955 22.9302 5.11846 22.8962 5.13245 22.8552C5.14643 22.8141 5.14981 22.7687 5.14256 22.719Z" fill="#FEFEFE"/>
<path d="M6.42965 19.2215L6.30965 19.2042L5.88113 18.6826C5.83096 18.6214 5.787 18.5706 5.74926 18.5303C5.71107 18.4899 5.67427 18.4587 5.63885 18.4368C5.60306 18.4145 5.56428 18.4003 5.5225 18.3942C5.4745 18.3873 5.43128 18.3929 5.39285 18.411C5.35448 18.4286 5.3229 18.4558 5.2981 18.4926C5.2733 18.5294 5.25735 18.5725 5.25026 18.6218C5.24272 18.6743 5.24702 18.7216 5.26318 18.7639C5.27895 18.8056 5.30464 18.8399 5.34023 18.8668C5.3759 18.8932 5.41973 18.9102 5.47173 18.9177L5.4491 19.075C5.3691 19.0635 5.30154 19.035 5.2464 18.9894C5.19126 18.9438 5.15137 18.8868 5.12673 18.8184C5.10216 18.7496 5.09559 18.6753 5.10703 18.5958C5.11853 18.5158 5.14562 18.4473 5.18828 18.3904C5.23094 18.3335 5.28346 18.2916 5.34584 18.2647C5.40822 18.2379 5.47452 18.2295 5.54474 18.2396C5.59496 18.2468 5.64276 18.263 5.68814 18.2881C5.73314 18.3127 5.78177 18.3515 5.83405 18.4043C5.88594 18.4567 5.94827 18.5281 6.02102 18.6184L6.30491 18.9722L6.31558 18.9737L6.40684 18.3391L6.5535 18.3601L6.42965 19.2215Z" fill="#FEFEFE"/>
<path d="M8.07379 15.3799C8.04073 15.4517 7.99669 15.5097 7.94166 15.5541C7.88663 15.5984 7.82625 15.6265 7.76053 15.6383C7.69481 15.65 7.62939 15.6429 7.56426 15.6168L7.63188 15.47C7.69119 15.4904 7.74993 15.4863 7.80808 15.4577C7.86601 15.4285 7.90971 15.3819 7.9392 15.3179C7.96286 15.2665 7.97187 15.2153 7.96621 15.1642C7.96074 15.1128 7.94226 15.066 7.91077 15.0238C7.87906 14.981 7.83649 14.9473 7.78307 14.9227C7.72841 14.8975 7.67414 14.8871 7.62023 14.8915C7.56611 14.8952 7.51703 14.9122 7.47299 14.9423C7.42896 14.9724 7.39444 15.0141 7.36942 15.0674C7.35136 15.1055 7.33915 15.1476 7.33279 15.1936C7.32603 15.2394 7.32602 15.2797 7.33276 15.3145L7.25027 15.4485L6.66855 15.0887L6.9683 14.4378L7.10288 14.4997L6.86173 15.0234L7.21095 15.2376L7.21433 15.2303C7.20577 15.1952 7.20368 15.1552 7.20807 15.1102C7.21245 15.0653 7.22431 15.0218 7.24366 14.9798C7.27897 14.9031 7.32878 14.8433 7.39309 14.8002C7.45719 14.7566 7.52873 14.7322 7.60772 14.727C7.6869 14.7215 7.76707 14.7374 7.84823 14.7748C7.92817 14.8116 7.99128 14.8624 8.03756 14.9272C8.08362 14.9914 8.11043 15.0631 8.11799 15.1422C8.12514 15.2211 8.11041 15.3003 8.07379 15.3799Z" fill="#FEFEFE"/>
<path d="M9.69997 12.5821L9.59666 12.4915L9.27504 11.4035L9.34075 11.3285L9.50079 11.4688L9.45639 11.5195L9.69944 12.3416L9.70754 12.3487L10.2456 11.7348L10.3571 11.8325L9.69997 12.5821ZM10.3407 12.2803L10.0966 12.0663L10.0485 12.0241L9.30345 11.3711L9.40823 11.2515L10.4455 12.1608L10.3407 12.2803Z" fill="#FEFEFE"/>
<path d="M12.8432 10.4383L12.7786 10.3357L12.8981 9.67133C12.9122 9.59346 12.9224 9.52708 12.9287 9.47218C12.9347 9.4169 12.9346 9.36869 12.9283 9.32754C12.9221 9.28577 12.9078 9.24704 12.8853 9.21133C12.8594 9.1703 12.8272 9.141 12.7885 9.12344C12.7502 9.10563 12.7091 9.09921 12.6649 9.10418C12.6208 9.10915 12.5777 9.12492 12.5355 9.15148C12.4907 9.17973 12.4575 9.21369 12.4357 9.25337C12.4142 9.29243 12.4047 9.33422 12.4073 9.37876C12.4103 9.42306 12.4257 9.46744 12.4538 9.51188L12.3193 9.59662C12.2762 9.52824 12.2541 9.45828 12.2531 9.38675C12.2521 9.31522 12.2696 9.2479 12.3058 9.1848C12.3423 9.12146 12.3946 9.06837 12.4626 9.02553C12.5309 8.98244 12.6006 8.9587 12.6716 8.9543C12.7426 8.94991 12.8086 8.96275 12.8694 8.99285C12.9303 9.02295 12.9797 9.06801 13.0175 9.12803C13.0445 9.17096 13.0632 9.21784 13.0735 9.26868C13.0839 9.31891 13.0859 9.38106 13.0795 9.45514C13.0733 9.5286 13.0593 9.62229 13.0377 9.73622L12.9522 10.1817L12.958 10.1909L13.5004 9.84905L13.5794 9.97442L12.8432 10.4383Z" fill="#FEFEFE"/>
<path d="M15.5503 7.4468C15.6049 7.43204 15.6623 7.42722 15.7225 7.43235C15.7826 7.43748 15.8418 7.45735 15.8999 7.49194C15.9579 7.52611 16.0118 7.57984 16.0616 7.65312C16.1114 7.72639 16.1533 7.82402 16.1873 7.94598C16.2203 8.06406 16.2383 8.17208 16.2414 8.27004C16.2447 8.36745 16.2342 8.45336 16.2097 8.52777C16.1857 8.60206 16.1484 8.66375 16.0977 8.71283C16.0475 8.76179 15.985 8.79671 15.9102 8.81757C15.8358 8.83832 15.7653 8.84213 15.6987 8.829C15.6324 8.81532 15.5733 8.78728 15.5214 8.74489C15.4698 8.70194 15.4291 8.64688 15.3992 8.57971L15.5575 8.53557C15.5887 8.59257 15.6311 8.63506 15.6846 8.66303C15.7384 8.69045 15.8003 8.69439 15.8704 8.67485C15.9729 8.64626 16.0413 8.57894 16.0756 8.47289C16.1103 8.36672 16.1049 8.23189 16.0593 8.0684L16.0489 8.0713C16.0348 8.11438 16.0148 8.15376 15.9888 8.18943C15.9629 8.2251 15.9316 8.25574 15.8949 8.28135C15.8582 8.30696 15.817 8.32616 15.7711 8.33894C15.695 8.36017 15.6199 8.36083 15.5458 8.34094C15.4721 8.32048 15.4069 8.28248 15.3504 8.22692C15.2942 8.17081 15.2542 8.09993 15.2303 8.0143C15.2076 7.93299 15.205 7.85353 15.2226 7.77593C15.2404 7.69777 15.2768 7.62936 15.3317 7.57068C15.3871 7.51188 15.46 7.47059 15.5503 7.4468ZM15.5901 7.58953C15.5356 7.60472 15.4903 7.63204 15.4542 7.67147C15.4185 7.71034 15.3942 7.75626 15.3815 7.80922C15.3691 7.86163 15.3706 7.91552 15.386 7.97088C15.4014 8.02624 15.4276 8.07325 15.4645 8.11191C15.5017 8.15001 15.5452 8.17656 15.5951 8.19156C15.6453 8.206 15.6976 8.20562 15.7521 8.19043C15.7932 8.17897 15.8292 8.16029 15.8602 8.1344C15.8911 8.10807 15.9158 8.07718 15.9344 8.04171C15.9532 8.00568 15.9652 7.96761 15.9703 7.92749C15.9753 7.88694 15.9723 7.84699 15.9614 7.80763C15.9469 7.75573 15.9208 7.71057 15.883 7.67215C15.8457 7.63361 15.8013 7.60638 15.7498 7.59045C15.6987 7.5744 15.6455 7.57409 15.5901 7.58953Z" fill="#FEFEFE"/>
<path d="M15.6773 13.5975C15.9521 13.6154 16.1729 13.7033 16.3723 13.8945C16.5531 14.107 16.6662 14.3326 16.6757 14.6143C16.6572 14.7709 16.6356 14.9311 16.5553 15.0687C16.7758 15.2561 17.0172 15.4041 17.2638 15.5539C17.3641 15.6148 17.4641 15.6761 17.5642 15.7373C17.6149 15.7684 17.6656 15.7994 17.7164 15.8304C17.935 15.9641 18.1524 16.0996 18.3693 16.2359C18.4375 16.2787 18.5057 16.3215 18.5739 16.3644C18.6076 16.3855 18.6414 16.4067 18.6761 16.4285C18.8619 16.545 19.048 16.6609 19.2341 16.7768C19.2911 16.8123 19.2911 16.8123 19.3493 16.8485C19.4264 16.8965 19.5034 16.9445 19.5804 16.9925C19.7335 17.0878 19.8865 17.1831 20.0395 17.2785C20.1152 17.3257 20.1909 17.3728 20.2666 17.42C20.4442 17.5307 20.6219 17.6414 20.7994 17.7523C20.8826 17.8043 20.9659 17.8563 21.0492 17.9083C21.1074 17.9447 21.1657 17.9811 21.224 18.0175C21.3246 18.0804 21.4256 18.1428 21.5266 18.2052C21.5532 18.2219 21.5799 18.2387 21.6074 18.256C21.7776 18.3603 21.8847 18.3897 22.0776 18.3459C22.2735 18.2826 22.3784 18.1772 22.478 18.0007C22.5199 17.8831 22.5464 17.7639 22.5722 17.6418C22.5873 17.5749 22.6025 17.5079 22.6178 17.441C22.6249 17.409 22.632 17.3769 22.6394 17.3439C22.6636 17.2372 22.6913 17.1316 22.7201 17.0261C22.7714 16.836 22.8186 16.6451 22.8652 16.4539C22.9208 16.2261 22.9786 15.9991 23.0395 15.7726C23.0803 15.6167 23.1186 15.4601 23.1568 15.3035C23.2478 14.9307 23.3435 14.5597 23.4528 14.1918C23.4282 14.1752 23.4035 14.1586 23.3782 14.1415C23.2098 13.993 23.0877 13.8279 23.0542 13.602C23.0429 13.415 23.0956 13.2579 23.2011 13.1043C23.3581 12.9748 23.5115 12.866 23.7147 12.8365C23.986 12.8861 24.1668 12.9488 24.3409 13.168C24.4443 13.3605 24.4896 13.5195 24.432 13.7345C24.3692 13.914 24.289 14.0199 24.1421 14.1396C24.1201 14.1576 24.098 14.1757 24.0752 14.1943C24.0584 14.208 24.0415 14.2217 24.0241 14.2358C24.0449 14.2799 24.0449 14.2799 24.0661 14.3248C24.4028 15.0386 24.7394 15.7524 25.0758 16.4663C25.2385 16.8115 25.4012 17.1567 25.5641 17.5018C25.706 17.8026 25.8478 18.1034 25.9895 18.4042C26.0646 18.5636 26.1397 18.7229 26.2149 18.8822C26.2856 19.032 26.3563 19.1819 26.4268 19.3317C26.4528 19.3869 26.4788 19.442 26.5048 19.4971C26.5403 19.5721 26.5756 19.6471 26.6108 19.7221C26.6265 19.7551 26.6265 19.7551 26.6425 19.7888C26.713 19.9395 26.713 19.9395 26.723 20.0259C26.6523 20.1177 26.5625 20.1826 26.4702 20.2517C26.4225 20.2875 26.4225 20.2875 26.3738 20.324C26.339 20.3499 26.3042 20.3758 26.2684 20.4025C26.232 20.4297 26.1956 20.4569 26.158 20.485C25.6975 20.8289 25.235 21.1702 24.7715 21.51C24.737 21.5353 24.7024 21.5606 24.6669 21.5867C22.6494 23.0629 20.5301 24.4427 18.367 25.6956C18.3464 25.7075 18.3259 25.7194 18.3047 25.7316C17.7893 26.0301 17.2727 26.3264 16.7545 26.6201C16.717 26.6414 16.6795 26.6628 16.6408 26.6848C16.6062 26.7043 16.5716 26.7239 16.5359 26.7441C16.5058 26.7611 16.4758 26.7781 16.4448 26.7956C16.3631 26.8386 16.2813 26.8736 16.1951 26.9063C15.9752 26.701 15.7805 26.475 15.5838 26.2479C15.5457 26.2041 15.5075 26.1603 15.4694 26.1165C15.3665 25.998 15.2636 25.8795 15.1608 25.761C15.0749 25.6619 14.9888 25.5628 14.9028 25.4638C14.6999 25.2302 14.4971 24.9965 14.2943 24.7627C14.0853 24.5217 13.8761 24.2809 13.6668 24.0401C13.4869 23.833 13.3071 23.6259 13.1273 23.4187C13.0201 23.2951 12.9128 23.1715 12.8054 23.048C12.7046 22.932 12.6038 22.8158 12.5031 22.6996C12.4662 22.657 12.4292 22.6144 12.3922 22.5719C12.3416 22.5138 12.2912 22.4555 12.2408 22.3973C12.2126 22.3648 12.1843 22.3322 12.1553 22.2987C12.0854 22.2131 12.0249 22.126 11.9665 22.0324C11.9374 22.0551 11.9374 22.0551 11.9077 22.0782C11.7384 22.2007 11.6086 22.2752 11.3963 22.263C11.2079 22.2311 11.0747 22.1784 10.9475 22.0318C10.8347 21.8699 10.7483 21.7297 10.7599 21.5272C10.8108 21.2843 10.8739 21.1547 11.0837 21.013C11.2553 20.904 11.3768 20.8488 11.5822 20.8918C11.804 20.9508 11.8981 21.0247 12.0248 21.2196C12.0574 21.2692 12.0574 21.2692 12.0906 21.3199C12.1465 21.4139 12.1465 21.4139 12.1654 21.4909C12.1901 21.5602 12.1901 21.5602 12.2806 21.5814C12.3354 21.591 12.3354 21.591 12.3913 21.6009C12.427 21.6075 12.4627 21.6141 12.4995 21.621C12.6007 21.6368 12.7019 21.6514 12.8033 21.6653C12.9986 21.6924 13.1922 21.7266 13.3861 21.762C13.6659 21.8124 13.9458 21.8609 14.2264 21.9065C14.3698 21.9298 14.5132 21.9536 14.6565 21.9777C14.694 21.9839 14.694 21.9839 14.7323 21.9903C14.8712 22.0137 15.0099 22.0378 15.1485 22.0627C15.8238 22.2293 15.8238 22.2293 16.455 22.071C16.5817 21.9683 16.6234 21.857 16.6502 21.6997C16.666 21.5452 16.6479 21.403 16.6233 21.2503C16.6168 21.2073 16.6168 21.2073 16.6102 21.1633C16.5959 21.0691 16.5811 20.975 16.5663 20.8808C16.5562 20.8143 16.546 20.7478 16.5359 20.6813C16.5151 20.5441 16.494 20.4069 16.4728 20.2697C16.4437 20.081 16.4154 19.8923 16.3874 19.7035C16.3831 19.6745 16.3788 19.6454 16.3744 19.6155C16.3657 19.5574 16.3571 19.4993 16.3485 19.4412C16.2935 19.0705 16.2378 18.6998 16.1816 18.3292C16.1775 18.302 16.1734 18.2748 16.1691 18.2468C16.1485 18.1109 16.1279 17.975 16.1072 17.8391C16.061 17.5351 16.016 17.2309 15.9721 16.9265C15.9622 16.8583 15.9523 16.79 15.9424 16.7218C15.9234 16.5907 15.9047 16.4595 15.886 16.3283C15.8773 16.2684 15.8687 16.2084 15.86 16.1485C15.8543 16.108 15.8543 16.108 15.8486 16.0667C15.825 15.9059 15.7885 15.7578 15.7365 15.6038C15.6945 15.6054 15.6525 15.607 15.6093 15.6087C15.3757 15.6001 15.164 15.4884 14.983 15.345C14.8021 15.1139 14.677 14.8928 14.6604 14.5959C14.6768 14.4652 14.6768 14.4652 14.7111 14.3541C14.7245 14.3015 14.7245 14.3015 14.7381 14.2478C14.8952 13.8577 15.2583 13.6148 15.6773 13.5975ZM19.0406 20.915C18.9819 21.4732 19.2814 21.9944 19.6082 22.4221C19.8236 22.67 20.0742 22.8422 20.3784 22.9621C20.4136 22.9778 20.4489 22.9935 20.4852 23.0097C20.7074 23.0562 20.9109 23.0431 21.1085 22.9257C21.3068 22.7784 21.3955 22.6099 21.4382 22.3686C21.4984 21.7745 21.2437 21.252 20.8827 20.7962C20.5844 20.4578 20.2225 20.217 19.7699 20.1682C19.3071 20.1521 19.1152 20.5135 19.0406 20.915ZM16.1159 23.9114C16.1013 24.1983 16.2001 24.3991 16.371 24.6211C16.6118 24.8757 16.9517 25.1381 17.3131 25.1571C17.5575 25.1611 17.7121 25.1538 17.9083 24.9937C18.0139 24.8341 18.0298 24.6767 18.0062 24.4889C17.8445 24.0647 17.5239 23.7898 17.1165 23.6051C16.8884 23.5241 16.656 23.4831 16.4196 23.546C16.2412 23.6367 16.1709 23.7185 16.1159 23.9114ZM23.3448 19.3749C23.3057 19.7827 23.3991 20.2438 23.6561 20.5696C23.8175 20.7228 23.9756 20.8353 24.2046 20.8502C24.3798 20.7994 24.5073 20.7064 24.607 20.5559C24.7817 20.2216 24.7541 19.8352 24.6607 19.4815C24.5721 19.2314 24.4215 18.9564 24.1893 18.8152C24.1236 18.7839 24.1236 18.7839 24.0602 18.7613C24.0285 18.7484 23.9969 18.7355 23.9643 18.7223C23.5944 18.7166 23.4071 19.0479 23.3448 19.3749Z" fill="#E30808"/>
<path d="M16.8906 28.264C16.9158 28.2495 16.9411 28.235 16.967 28.2201C17.2637 28.0508 17.5643 27.8885 17.8646 27.7257C18.3861 27.4428 18.9054 27.1568 19.4177 26.8575C19.4394 26.8448 19.461 26.8322 19.4833 26.8192C19.6177 26.7408 19.7515 26.6614 19.885 26.5815C19.9416 26.5477 19.9982 26.514 20.0549 26.4804C20.78 26.0492 21.4863 25.5896 22.1921 25.1278C22.2376 25.0981 22.2376 25.0981 22.284 25.0677C24.058 23.9075 25.7925 22.6883 27.4551 21.372C27.9263 21.0007 27.9263 21.0007 28.1941 20.9888C28.3765 21.0189 28.5271 21.0624 28.6408 21.2163C28.6595 21.2446 28.6783 21.2728 28.6976 21.3019C28.7189 21.3339 28.7402 21.366 28.7622 21.399C28.7965 21.4511 28.7965 21.4511 28.8315 21.5042C28.8551 21.5399 28.8787 21.5756 28.903 21.6124C28.9528 21.6881 29.0026 21.7638 29.0522 21.8395C29.1283 21.9553 29.2049 22.0706 29.2816 22.1859C29.3299 22.2594 29.3782 22.333 29.4265 22.4066C29.4495 22.441 29.4725 22.4754 29.4962 22.5108C29.6265 22.7114 29.7003 22.8537 29.6807 23.0982C29.6197 23.3381 29.4808 23.4601 29.2953 23.6157C29.2692 23.6386 29.2431 23.6614 29.2163 23.6849C28.8774 23.9787 28.5274 24.2601 28.1809 24.5448C28.2075 24.5276 28.2342 24.5104 28.2616 24.4926C28.5123 24.3303 28.7634 24.1686 29.0149 24.0075C29.1442 23.9246 29.2734 23.8416 29.4022 23.758C29.5265 23.6774 29.6512 23.5974 29.7761 23.5177C29.8237 23.4872 29.8712 23.4565 29.9186 23.4256C29.9849 23.3823 30.0516 23.3399 30.1185 23.2975C30.1564 23.2731 30.1943 23.2487 30.2334 23.2236C30.3349 23.1789 30.3349 23.1789 30.4277 23.1963C30.4991 23.2385 30.4991 23.2385 30.5437 23.3189C30.5654 23.4039 30.5654 23.4039 30.5451 23.5006C30.4614 23.5659 30.4614 23.5659 30.3449 23.6422C30.3235 23.6563 30.302 23.6705 30.28 23.685C30.2075 23.7328 30.1347 23.7802 30.0619 23.8275C30.0097 23.8618 29.9574 23.8962 29.9052 23.9305C29.761 24.0253 29.6166 24.1196 29.4721 24.2139C29.3166 24.3156 29.1613 24.4175 29.006 24.5194C28.7014 24.7192 28.3966 24.9186 28.0918 25.1179C27.8441 25.2798 27.5965 25.4418 27.3489 25.6039C26.6477 26.0629 25.9463 26.5216 25.2447 26.9801C25.2068 27.0048 25.169 27.0295 25.13 27.055C25.0921 27.0798 25.0542 27.1046 25.0151 27.1301C24.4006 27.5317 23.7864 27.9339 23.1724 28.3363C22.5426 28.7491 21.9126 29.1614 21.2823 29.5733C20.9281 29.8047 20.5741 30.0363 20.2203 30.2684C19.9192 30.4659 19.6178 30.6631 19.3161 30.8597C19.162 30.9601 19.0081 31.0607 18.8544 31.1619C18.714 31.2543 18.5732 31.3462 18.4321 31.4377C18.3809 31.471 18.3299 31.5045 18.2791 31.5382C18.2102 31.5838 18.1409 31.6286 18.0715 31.6733C18.033 31.6985 17.9945 31.7236 17.9548 31.7496C17.8531 31.7952 17.8531 31.7952 17.7602 31.7781C17.6663 31.7221 17.6492 31.6748 17.6226 31.5703C17.6518 31.4307 17.7246 31.4085 17.8421 31.3301C17.863 31.316 17.8839 31.3019 17.9055 31.2874C17.9748 31.2407 18.0444 31.1945 18.1141 31.1483C18.1621 31.1161 18.2102 31.0839 18.2582 31.0517C18.3848 30.9668 18.5117 30.8822 18.6386 30.7977C18.768 30.7115 18.8972 30.625 19.0263 30.5384C19.28 30.3686 19.5338 30.1992 19.7878 30.03C19.7592 30.0446 19.7592 30.0446 19.73 30.0594C19.5307 30.1606 19.331 30.2612 19.1312 30.3614C19.0567 30.3988 18.9823 30.4364 18.9081 30.4741C18.801 30.5285 18.6936 30.5823 18.5862 30.636C18.5369 30.6613 18.5369 30.6613 18.4865 30.6871C18.2454 30.8065 18.0216 30.8884 17.7549 30.8108C17.5994 30.7506 17.5542 30.7077 17.4627 30.5706C17.4405 30.5375 17.4183 30.5043 17.3955 30.4702C17.3716 30.4341 17.3477 30.398 17.323 30.3608C17.2985 30.3238 17.274 30.2868 17.2487 30.2487C17.1969 30.1702 17.1451 30.0916 17.0934 30.013C17.0273 29.9126 16.9605 29.8126 16.8936 29.7127C16.8297 29.6171 16.7667 29.521 16.7036 29.4249C16.6795 29.3892 16.6555 29.3535 16.6307 29.3168C16.4828 29.0892 16.4313 28.9683 16.4802 28.7008C16.5576 28.4589 16.6755 28.3862 16.8906 28.264ZM18.7361 28.0357C18.7244 28.0931 18.7244 28.0931 18.7126 28.1517C18.7041 28.193 18.6956 28.2344 18.6868 28.277C18.6781 28.3205 18.6694 28.364 18.6605 28.4088C18.6516 28.4524 18.6426 28.4961 18.6334 28.541C18.6114 28.6492 18.5895 28.7575 18.5679 28.8658C18.6776 28.9387 18.7777 28.9661 18.9064 28.9921C18.9452 29.0001 18.9841 29.0081 19.0241 29.0163C19.0645 29.0243 19.1048 29.0324 19.1464 29.0406C19.2078 29.0531 19.2078 29.0531 19.2704 29.0659C19.3713 29.0865 19.4722 29.1068 19.5732 29.1269C19.6404 28.9061 19.694 28.6859 19.7398 28.4598C19.7462 28.4289 19.7525 28.398 19.7591 28.3662C19.7745 28.291 19.7899 28.2159 19.8051 28.1407C19.5855 28.0742 19.3662 28.0188 19.1417 27.9717C19.1113 27.965 19.0809 27.9583 19.0496 27.9514C19.0061 27.9423 19.0061 27.9423 18.9618 27.9329C18.9357 27.9273 18.9096 27.9218 18.8827 27.916C18.7757 27.9039 18.7637 27.9348 18.7361 28.0357ZM26.6052 22.8968C26.5927 22.9574 26.5927 22.9574 26.5799 23.0193C26.5709 23.0628 26.5618 23.1064 26.5525 23.1513C26.543 23.1977 26.5335 23.2442 26.5239 23.2906C26.5143 23.3371 26.5047 23.3836 26.495 23.4301C26.4714 23.5444 26.4479 23.6587 26.4244 23.773C26.6369 23.8383 26.8495 23.8905 27.0673 23.9345C27.1102 23.9433 27.1102 23.9433 27.154 23.9523C27.2234 23.9666 27.2929 23.9807 27.3623 23.9947C27.4328 23.8878 27.4612 23.7919 27.4864 23.6668C27.494 23.6301 27.5015 23.5935 27.5092 23.5557C27.5206 23.4986 27.5206 23.4986 27.5321 23.4403C27.54 23.4017 27.5478 23.3631 27.5559 23.3234C27.5753 23.2282 27.5944 23.133 27.6133 23.0377C27.5068 22.9676 27.4109 22.9386 27.2864 22.9129C27.2316 22.9015 27.2316 22.9015 27.1757 22.8899C27.1378 22.8823 27.0999 22.8746 27.0608 22.8667C27.0032 22.8547 27.0032 22.8547 26.9445 22.8424C26.7211 22.7633 26.7211 22.7633 26.6052 22.8968ZM22.8259 25.7423C22.8177 25.7826 22.8095 25.8229 22.8011 25.8645C22.7921 25.908 22.7832 25.9515 22.7739 25.9963C22.7647 26.0426 22.7554 26.0889 22.7461 26.1351C22.7367 26.1816 22.7272 26.228 22.7177 26.2744C22.6944 26.3883 22.6713 26.5023 22.6485 26.6163C22.8692 26.6835 23.0895 26.7371 23.3156 26.7829C23.3464 26.7893 23.3773 26.7956 23.4092 26.8022C23.4843 26.8176 23.5595 26.833 23.6347 26.8482C23.7019 26.6274 23.7555 26.4072 23.8013 26.1811C23.8077 26.1502 23.814 26.1193 23.8206 26.0875C23.836 26.0123 23.8514 25.9372 23.8666 25.862C23.7604 25.7923 23.6646 25.7627 23.5407 25.7365C23.5043 25.7288 23.4679 25.7211 23.4304 25.7132C23.3926 25.7055 23.3548 25.6977 23.3159 25.6898C23.2778 25.6816 23.2396 25.6734 23.2004 25.665C23.1641 25.6574 23.1278 25.6499 23.0904 25.6421C23.0571 25.6352 23.0239 25.6283 22.9896 25.6212C22.8698 25.6059 22.8573 25.6266 22.8259 25.7423Z" fill="#DE7E29"/>
<path d="M16.3984 27.1504C16.4202 27.1381 16.4419 27.1258 16.4643 27.1131C16.6777 26.9923 16.8909 26.8714 17.1041 26.7502C17.2134 26.6881 17.3228 26.626 17.4323 26.564C18.8479 25.7631 20.2276 24.9125 21.5875 24.0203C21.7243 23.9306 21.8613 23.8412 21.9984 23.7519C23.3909 22.8454 24.7534 21.9031 26.0794 20.9018C26.1575 20.843 26.2358 20.7843 26.314 20.7255C26.4988 20.5867 26.6834 20.4476 26.8679 20.3083C26.9031 20.3721 26.9383 20.436 26.9735 20.4999C26.9931 20.5354 27.0128 20.571 27.033 20.6076C27.092 20.7166 27.1456 20.8257 27.1964 20.9387C27.2122 20.9734 27.228 21.008 27.2442 21.0437C27.2771 21.1259 27.2771 21.1259 27.2669 21.1743C27.2246 21.2104 27.1808 21.2447 27.1364 21.2783C27.0936 21.3109 27.0936 21.3109 27.05 21.3441C27.0185 21.3679 26.987 21.3917 26.9545 21.4162C26.9219 21.4409 26.8892 21.4657 26.8556 21.4912C26.7481 21.5726 26.6404 21.6538 26.5326 21.735C26.496 21.7627 26.4593 21.7904 26.4215 21.819C25.9494 22.1755 25.4753 22.5292 24.9955 22.8753C24.9732 22.8914 24.951 22.9074 24.928 22.924C24.7899 23.0236 24.6511 23.1224 24.512 23.2207C24.4522 23.2629 24.3925 23.3053 24.3328 23.3477C23.6123 23.8584 22.8761 24.3444 22.1367 24.8271C22.1061 24.847 22.0756 24.867 22.0441 24.8875C20.5879 25.8385 19.1064 26.7321 17.5877 27.5794C17.5539 27.5983 17.5201 27.6173 17.4852 27.6368C17.3364 27.7194 17.1895 27.7994 17.0314 27.8635C16.9671 27.796 16.903 27.7284 16.8389 27.6607C16.8211 27.642 16.8032 27.6233 16.7849 27.6041C16.6858 27.4992 16.5918 27.3921 16.5016 27.2794C16.4822 27.2551 16.4627 27.2309 16.4427 27.2059C16.4281 27.1876 16.4135 27.1693 16.3984 27.1504Z" fill="#F9E342"/>
<path d="M13.1032 18.1936C13.2865 18.2084 13.4382 18.2362 13.5857 18.353C13.7245 18.5343 13.8495 18.7003 13.8419 18.9368C13.8234 19.048 13.8234 19.048 13.8014 19.1302C13.9461 19.2477 14.1093 19.3026 14.2819 19.3665C14.3474 19.3912 14.4129 19.4159 14.4784 19.4406C14.5118 19.4532 14.5453 19.4657 14.5797 19.4786C14.8247 19.5706 15.0688 19.6649 15.313 19.7592C15.4069 19.7953 15.5011 19.8309 15.5952 19.8666C15.6566 19.8902 15.7179 19.9138 15.7792 19.9374C15.8076 19.948 15.836 19.9587 15.8653 19.9696C15.8916 19.9799 15.918 19.9901 15.9451 20.0007C15.9682 20.0094 15.9912 20.0182 16.015 20.0273C16.1022 20.0739 16.1458 20.1075 16.2045 20.189C16.2347 20.2959 16.2484 20.404 16.2625 20.514C16.2669 20.5457 16.2713 20.5774 16.2758 20.6101C16.285 20.6772 16.2939 20.7442 16.3026 20.8113C16.3159 20.9139 16.3302 21.0163 16.3446 21.1188C16.3534 21.184 16.3622 21.2492 16.3708 21.3144C16.3751 21.345 16.3794 21.3756 16.3838 21.4071C16.4176 21.6758 16.4176 21.6758 16.3447 21.8085C16.2762 21.8793 16.2762 21.8793 16.1692 21.9231C16.0441 21.9209 15.9241 21.895 15.8015 21.8713C15.7313 21.8596 15.6612 21.8479 15.5909 21.8364C15.4976 21.8212 15.4044 21.8058 15.3114 21.7882C15.2405 21.7765 15.2405 21.7765 15.1693 21.785C15.0714 21.7883 15.0114 21.777 14.921 21.7373C14.7787 21.5884 14.6723 21.4178 14.5615 21.2448C14.5284 21.1948 14.4952 21.1448 14.4619 21.0948C14.3748 20.9636 14.2889 20.8316 14.2033 20.6995C14.1156 20.5646 14.0268 20.4304 13.938 20.2962C13.7642 20.0331 13.5918 19.7691 13.4201 19.5046C13.3758 19.5254 13.3758 19.5254 13.3305 19.5467C13.1612 19.6166 13.0269 19.6038 12.8534 19.5515C12.6493 19.4365 12.5368 19.2742 12.4621 19.0558C12.4276 18.8739 12.4517 18.6852 12.5443 18.5245C12.6816 18.3605 12.8859 18.214 13.1032 18.1936Z" fill="#DE7E29"/>
<path d="M20.6385 13.2612C20.8229 13.2666 20.9941 13.326 21.1311 13.4514C21.2796 13.6265 21.3479 13.794 21.339 14.025C21.3122 14.1829 21.2551 14.3172 21.1511 14.4399C21.1222 14.4589 21.0932 14.4778 21.0634 14.4973C21.0905 14.5377 21.0905 14.5377 21.1181 14.5789C21.2884 14.833 21.4579 15.0876 21.6267 15.3427C21.7135 15.4738 21.8005 15.6047 21.8882 15.7353C21.9728 15.8613 22.0567 15.9877 22.1401 16.1145C22.172 16.1628 22.2042 16.2109 22.2367 16.2588C22.2821 16.3261 22.3266 16.3938 22.371 16.4618C22.3913 16.4913 22.3913 16.4913 22.4121 16.5213C22.4837 16.6335 22.4975 16.6852 22.4807 16.8191C22.4693 16.8565 22.4579 16.8939 22.4461 16.9324C22.4391 16.9674 22.432 17.0025 22.4248 17.0386C22.3831 17.2439 22.3374 17.4465 22.2776 17.6473C22.2586 17.7123 22.243 17.7782 22.2282 17.8442C22.1624 17.9866 22.0935 18.0241 21.951 18.0906C21.7801 18.0528 21.6443 17.9688 21.5005 17.8727C21.4785 17.8583 21.4566 17.8439 21.434 17.829C21.3878 17.7987 21.3418 17.7682 21.2958 17.7376C21.2258 17.6911 21.1555 17.6449 21.0853 17.5988C21.0403 17.5691 20.9953 17.5394 20.9503 17.5097C20.9295 17.496 20.9087 17.4823 20.8873 17.4682C20.8303 17.4303 20.7739 17.3915 20.7175 17.3526C20.6844 17.3301 20.6513 17.3077 20.6173 17.2846C20.5443 17.2154 20.5443 17.2154 20.5257 17.1363C20.5271 17.1074 20.5285 17.0786 20.5299 17.0489C20.5316 17.0001 20.5316 17.0001 20.5334 16.9504C20.5355 16.9157 20.5377 16.881 20.5398 16.8453C20.5414 16.8093 20.5429 16.7733 20.5444 16.7362C20.5492 16.6278 20.5551 16.5196 20.5614 16.4113C20.5643 16.354 20.5672 16.2967 20.5701 16.2395C20.5755 16.1347 20.5813 16.03 20.5875 15.9253C20.6115 15.5036 20.627 15.0804 20.6259 14.658C20.6053 14.6527 20.5848 14.6475 20.5636 14.6421C20.3119 14.5741 20.1653 14.4969 20.0261 14.2712C19.9448 14.101 19.9357 13.9286 19.9838 13.7473C20.1067 13.4523 20.3207 13.284 20.6385 13.2612Z" fill="#DE7E29"/>
<path d="M30.8768 22.8149C30.9027 22.7979 30.9286 22.7808 30.9552 22.7633C30.9962 22.737 30.9962 22.737 31.0379 22.7102C31.0649 22.6923 31.0919 22.6743 31.1197 22.6558C31.1587 22.6305 31.1587 22.6305 31.1985 22.6046C31.2223 22.5891 31.2462 22.5736 31.2708 22.5577C31.3351 22.5264 31.3351 22.5264 31.4319 22.5467C31.5061 22.6443 31.5061 22.6443 31.5656 22.7514C31.5413 22.8675 31.5219 22.8741 31.4263 22.937C31.3896 22.9611 31.3896 22.9611 31.3522 22.9857C31.3265 23.0022 31.3007 23.0188 31.2742 23.0358C31.2488 23.0527 31.2235 23.0696 31.1973 23.087C31.1728 23.1029 31.1482 23.1189 31.1229 23.1353C31.1004 23.1499 31.0779 23.1645 31.0547 23.1796C30.9897 23.2112 30.9897 23.2112 30.8638 23.2101C30.7877 23.1137 30.7877 23.1137 30.73 23.0054C30.7548 22.8869 30.7786 22.8794 30.8768 22.8149Z" fill="#E30808"/>
<path d="M16.9104 31.936C16.9408 31.9164 16.9408 31.9164 16.9717 31.8964C16.9916 31.8827 17.0115 31.8691 17.0319 31.855C17.0905 31.8166 17.0905 31.8166 17.197 31.7622C17.3129 31.8117 17.3129 31.8117 17.3748 31.9225C17.3889 31.9598 17.4029 31.9971 17.4174 32.0355C17.3589 32.1357 17.2732 32.1786 17.1769 32.2422C17.1221 32.2789 17.1221 32.2789 17.0662 32.3164C16.9686 32.3705 16.9686 32.3705 16.8719 32.3503C16.7977 32.2527 16.7977 32.2527 16.7381 32.1456C16.7633 32.0255 16.8118 32.002 16.9104 31.936Z" fill="#E30808"/>
<path d="M42.3902 26.5756L39.9078 9.81034H43.1097L44.1171 16.7179C44.1651 17.0417 44.213 17.3835 44.261 17.7433C44.309 18.0911 44.3449 18.5168 44.3689 19.0205C44.6447 18.5168 44.8966 18.0911 45.1244 17.7433C45.3643 17.3835 45.5921 17.0417 45.808 16.7179L50.7548 9.27069L52.032 16.7179C52.092 17.0417 52.1579 17.3835 52.2299 17.7433C52.3019 18.0911 52.3498 18.5168 52.3738 19.0205C52.6496 18.5168 52.8955 18.0911 53.1113 17.7433C53.3272 17.3835 53.5371 17.0417 53.7409 16.7179L58.1661 9.81034H61.6379L50.8088 26.5756L49.4597 18.5887C49.4117 18.2649 49.3577 17.9232 49.2978 17.5634C49.2378 17.2036 49.1958 16.7719 49.1719 16.2682C48.896 16.7719 48.6382 17.2036 48.3983 17.5634C48.1705 17.9112 47.9486 18.247 47.7328 18.5707L42.3902 26.5756ZM59.5445 26L63.5919 9.81034H66.9378L62.8903 26H59.5445ZM79.0536 26.5397L71.8582 16.3582L69.4657 26H66.4436L70.617 9.27069L77.8124 19.4342L80.2048 9.81034H83.2269L79.0536 26.5397ZM84.9898 12.7245L85.7093 9.81034H96.9701L96.2506 12.7245H92.2931L88.9652 26H85.6194L88.9473 12.7245H84.9898ZM95.4979 26L99.5093 9.81034H104.114C105.002 9.81034 105.799 10.0082 106.507 10.404C107.214 10.7877 107.772 11.3154 108.18 11.987C108.6 12.6585 108.809 13.414 108.809 14.2535C108.809 14.9131 108.677 15.5547 108.414 16.1783C108.15 16.7899 107.784 17.3475 107.316 17.8512C106.861 18.3429 106.333 18.7566 105.733 19.0924L108.18 26H104.852L102.783 19.8479H100.157L98.6279 26H95.4979ZM100.822 17.1497H102.909C103.413 17.1497 103.875 17.0357 104.294 16.8079C104.714 16.58 105.044 16.2742 105.284 15.8905C105.535 15.5067 105.661 15.087 105.661 14.6313C105.661 14.0556 105.458 13.5939 105.05 13.2461C104.642 12.8984 104.102 12.7245 103.431 12.7245H101.92L100.822 17.1497ZM118.121 26.3238C116.694 26.3238 115.404 25.994 114.253 25.3344C113.114 24.6748 112.208 23.7814 111.537 22.6541C110.877 21.5269 110.548 20.2677 110.548 18.8766C110.548 17.6413 110.805 16.4661 111.321 15.3508C111.837 14.2235 112.538 13.2222 113.426 12.3467C114.313 11.4593 115.326 10.7637 116.466 10.2601C117.605 9.74438 118.804 9.48655 120.063 9.48655C121.503 9.48655 122.792 9.81634 123.931 10.4759C125.07 11.1355 125.97 12.0289 126.629 13.1562C127.301 14.2835 127.637 15.5487 127.637 16.9518C127.637 18.175 127.379 19.3502 126.863 20.4775C126.359 21.6048 125.658 22.6062 124.758 23.4816C123.871 24.357 122.858 25.0526 121.718 25.5683C120.579 26.072 119.38 26.3238 118.121 26.3238ZM118.48 23.1938C119.236 23.1938 119.956 23.0319 120.639 22.7081C121.335 22.3843 121.952 21.9406 122.492 21.377C123.032 20.8133 123.451 20.1717 123.751 19.4522C124.063 18.7326 124.219 17.9831 124.219 17.2036C124.219 16.3282 124.021 15.5487 123.625 14.8651C123.241 14.1696 122.708 13.6239 122.024 13.2282C121.353 12.8204 120.585 12.6166 119.722 12.6166C118.966 12.6166 118.241 12.7784 117.545 13.1022C116.849 13.426 116.232 13.8697 115.692 14.4334C115.165 14.985 114.745 15.6206 114.433 16.3402C114.121 17.0477 113.965 17.7912 113.965 18.5707C113.965 19.4342 114.163 20.2197 114.559 20.9272C114.955 21.6228 115.494 22.1744 116.178 22.5822C116.861 22.9899 117.629 23.1938 118.48 23.1938ZM140.954 26.5397L133.758 16.3582L131.366 26H128.344L132.517 9.27069L139.713 19.4342L142.105 9.81034H145.127L140.954 26.5397Z" fill="url(#paint0_linear_1442_11)"/>
<path d="M41.6068 37.6543V33.1523H42.7223C43.0191 33.1523 43.2692 33.1974 43.4726 33.2874C43.6794 33.3774 43.8461 33.4958 43.9729 33.6426C44.0996 33.786 44.1913 33.9427 44.248 34.1128C44.308 34.2828 44.338 34.4496 44.338 34.613C44.338 34.7731 44.3097 34.9381 44.253 35.1082C44.1963 35.2783 44.1046 35.4367 43.9779 35.5834C43.8511 35.7301 43.6844 35.8485 43.4776 35.9386C43.2709 36.0286 43.0191 36.0736 42.7223 36.0736H42.1771V37.6543H41.6068ZM42.1771 35.5634H42.6923C42.9624 35.5634 43.1758 35.5167 43.3326 35.4233C43.4893 35.3266 43.601 35.2066 43.6677 35.0632C43.7344 34.9164 43.7678 34.7664 43.7678 34.613C43.7678 34.4663 43.7344 34.3195 43.6677 34.1728C43.6044 34.0261 43.4943 33.9043 43.3376 33.8076C43.1842 33.7109 42.9691 33.6626 42.6923 33.6626H42.1771V35.5634ZM46.7871 37.6543V32.8522H47.3273V37.6543H46.7871ZM51.2997 37.6943C51.0262 37.6943 50.7761 37.626 50.5494 37.4892C50.3226 37.3492 50.1408 37.1624 50.0041 36.929C49.8707 36.6955 49.804 36.4371 49.804 36.1536C49.804 35.8702 49.8707 35.6117 50.0041 35.3783C50.1408 35.1449 50.3226 34.9598 50.5494 34.8231C50.7761 34.683 51.0262 34.613 51.2997 34.613C51.5064 34.613 51.6999 34.6513 51.8799 34.728C52.0633 34.8047 52.2217 34.9114 52.3551 35.0482V34.653H52.8554V37.6543H52.3551V37.2591C52.2217 37.3925 52.0633 37.4992 51.8799 37.5793C51.6999 37.656 51.5064 37.6943 51.2997 37.6943ZM51.3697 37.2041C51.5598 37.2041 51.7315 37.1574 51.8849 37.064C52.0417 36.9673 52.1651 36.8406 52.2551 36.6839C52.3485 36.5238 52.3952 36.3471 52.3952 36.1536C52.3952 35.9602 52.3485 35.7852 52.2551 35.6284C52.1651 35.4684 52.0417 35.3416 51.8849 35.2483C51.7315 35.1515 51.5598 35.1032 51.3697 35.1032C51.1796 35.1032 51.0062 35.1515 50.8495 35.2483C50.6961 35.3416 50.5727 35.4684 50.4793 35.6284C50.3893 35.7852 50.3443 35.9602 50.3443 36.1536C50.3443 36.3471 50.3893 36.5238 50.4793 36.6839C50.5727 36.8406 50.6961 36.9673 50.8495 37.064C51.0062 37.1574 51.1796 37.2041 51.3697 37.2041ZM55.4163 39.1549L56.3918 37.2141L55.1212 34.653H55.7315L56.3718 35.9536C56.4284 36.0703 56.4835 36.1853 56.5368 36.2987C56.5902 36.4121 56.6435 36.5488 56.6969 36.7089C56.7536 36.5488 56.8069 36.4121 56.857 36.2987C56.9103 36.182 56.967 36.0669 57.027 35.9536L57.6773 34.653H58.2526L56.0016 39.1549H55.4163ZM65.913 37.7443C65.5862 37.7443 65.281 37.6843 64.9976 37.5643C64.7141 37.4409 64.464 37.2725 64.2473 37.059C64.0338 36.8423 63.8671 36.5938 63.747 36.3137C63.627 36.0303 63.567 35.7268 63.567 35.4033C63.567 35.0799 63.627 34.7781 63.747 34.4979C63.8704 34.2145 64.0388 33.966 64.2523 33.7526C64.469 33.5358 64.7191 33.3674 65.0026 33.2474C65.286 33.124 65.5912 33.0623 65.918 33.0623C66.2381 33.0623 66.5382 33.1223 66.8184 33.2424C67.0985 33.3591 67.3453 33.5208 67.5587 33.7276L67.3936 34.4179C67.2402 34.1711 67.0335 33.9744 66.7733 33.8276C66.5166 33.6776 66.2314 33.6025 65.918 33.6025C65.5878 33.6025 65.2894 33.6842 65.0226 33.8477C64.7591 34.0077 64.549 34.2245 64.3923 34.4979C64.2356 34.768 64.1572 35.0698 64.1572 35.4033C64.1572 35.7301 64.2339 36.0303 64.3873 36.3037C64.544 36.5772 64.7541 36.7956 65.0176 36.959C65.2844 37.1224 65.5828 37.2041 65.913 37.2041C66.0997 37.2041 66.2765 37.1824 66.4432 37.1391C66.6133 37.0924 66.7683 37.0274 66.9084 36.944V35.7635H65.6679V35.2533H67.4586V37.2341C67.2552 37.4042 67.0185 37.5326 66.7483 37.6193C66.4816 37.7027 66.2031 37.7443 65.913 37.7443ZM71.4602 37.6943C71.1868 37.6943 70.9367 37.626 70.7099 37.4892C70.4832 37.3492 70.3014 37.1624 70.1647 36.929C70.0313 36.6955 69.9646 36.4371 69.9646 36.1536C69.9646 35.8702 70.0313 35.6117 70.1647 35.3783C70.3014 35.1449 70.4832 34.9598 70.7099 34.8231C70.9367 34.683 71.1868 34.613 71.4602 34.613C71.667 34.613 71.8604 34.6513 72.0405 34.728C72.2239 34.8047 72.3823 34.9114 72.5157 35.0482V34.653H73.0159V37.6543H72.5157V37.2591C72.3823 37.3925 72.2239 37.4992 72.0405 37.5793C71.8604 37.656 71.667 37.6943 71.4602 37.6943ZM71.5303 37.2041C71.7204 37.2041 71.8921 37.1574 72.0455 37.064C72.2022 36.9673 72.3256 36.8406 72.4157 36.6839C72.509 36.5238 72.5557 36.3471 72.5557 36.1536C72.5557 35.9602 72.509 35.7852 72.4157 35.6284C72.3256 35.4684 72.2022 35.3416 72.0455 35.2483C71.8921 35.1515 71.7204 35.1032 71.5303 35.1032C71.3402 35.1032 71.1668 35.1515 71.0101 35.2483C70.8567 35.3416 70.7333 35.4684 70.6399 35.6284C70.5499 35.7852 70.5048 35.9602 70.5048 36.1536C70.5048 36.3471 70.5499 36.5238 70.6399 36.6839C70.7333 36.8406 70.8567 36.9673 71.0101 37.064C71.1668 37.1574 71.3402 37.2041 71.5303 37.2041ZM75.702 37.6543V34.653H76.2022V35.0832C76.3122 34.9198 76.4506 34.7981 76.6174 34.718C76.7874 34.6347 76.9658 34.593 77.1526 34.593C77.356 34.593 77.5428 34.6413 77.7128 34.738C77.8829 34.8314 78.0196 34.9631 78.123 35.1332C78.2397 34.9531 78.3898 34.8181 78.5732 34.728C78.7599 34.638 78.9567 34.593 79.1635 34.593C79.3902 34.593 79.597 34.6463 79.7837 34.753C79.9738 34.8598 80.1239 35.0098 80.2339 35.2032C80.3473 35.3933 80.404 35.6184 80.404 35.8785V37.6543H79.8638V35.9436C79.8638 35.6701 79.7854 35.4633 79.6287 35.3233C79.4753 35.1799 79.2968 35.1082 79.0934 35.1082C78.9667 35.1082 78.8433 35.1365 78.7233 35.1932C78.6065 35.2499 78.5098 35.3383 78.4331 35.4583C78.3598 35.5784 78.3231 35.7351 78.3231 35.9286V37.6543H77.7829V35.9436C77.7829 35.7535 77.7445 35.5967 77.6678 35.4734C77.5944 35.35 77.4977 35.2583 77.3777 35.1982C77.261 35.1349 77.1392 35.1032 77.0125 35.1032C76.8891 35.1032 76.7674 35.1315 76.6474 35.1882C76.5306 35.2449 76.4339 35.3333 76.3572 35.4533C76.2805 35.5734 76.2422 35.7318 76.2422 35.9286V37.6543H75.702ZM84.4606 37.7143C84.1472 37.7143 83.8654 37.6443 83.6153 37.5042C83.3685 37.3642 83.1734 37.1741 83.03 36.934C82.8899 36.6905 82.8199 36.4204 82.8199 36.1236C82.8199 35.8402 82.8883 35.5834 83.025 35.3533C83.1617 35.1199 83.3451 34.9348 83.5752 34.7981C83.8087 34.6613 84.0654 34.593 84.3456 34.593C84.6224 34.593 84.8758 34.6597 85.1059 34.7931C85.336 34.9231 85.5194 35.0999 85.6561 35.3233C85.7929 35.5467 85.8612 35.8002 85.8612 36.0836V36.3037H83.9004C83.8137 36.3037 83.7253 36.3004 83.6353 36.2937C83.5452 36.287 83.4569 36.277 83.3701 36.2637C83.4068 36.5305 83.5269 36.7539 83.7303 36.934C83.9371 37.1141 84.1822 37.2041 84.4656 37.2041C84.6557 37.2041 84.8324 37.1608 84.9959 37.074C85.1593 36.9873 85.291 36.8723 85.391 36.7289L85.5411 37.3442C85.3977 37.4609 85.2326 37.5526 85.0459 37.6193C84.8625 37.6826 84.6674 37.7143 84.4606 37.7143ZM83.3551 35.8985C83.5352 35.8685 83.717 35.8535 83.9004 35.8535H84.8958C84.9692 35.8535 85.0409 35.8569 85.1109 35.8635C85.1843 35.8669 85.2576 35.8719 85.331 35.8785C85.2843 35.6451 85.1676 35.4533 84.9808 35.3033C84.7941 35.1499 84.5823 35.0732 84.3456 35.0732C84.1021 35.0732 83.8887 35.1549 83.7053 35.3183C83.5219 35.4784 83.4052 35.6718 83.3551 35.8985ZM89.0864 37.7143C88.933 37.7143 88.7679 37.686 88.5912 37.6293C88.4178 37.5693 88.2677 37.4709 88.141 37.3342L88.2911 36.7439C88.3844 36.9006 88.5045 37.0257 88.6512 37.1191C88.7979 37.2091 88.9547 37.2541 89.1214 37.2541C89.2815 37.2541 89.4015 37.2158 89.4816 37.1391C89.5616 37.059 89.6016 36.9623 89.6016 36.8489C89.6016 36.7189 89.5583 36.6239 89.4716 36.5638C89.3882 36.5038 89.3132 36.4621 89.2465 36.4388L88.8413 36.2837C88.7679 36.2537 88.6796 36.2103 88.5762 36.1536C88.4728 36.0936 88.3828 36.0086 88.3061 35.8985C88.2294 35.7885 88.191 35.6451 88.191 35.4684C88.191 35.3083 88.2294 35.1616 88.3061 35.0282C88.3828 34.8948 88.4911 34.7897 88.6312 34.713C88.7713 34.633 88.9363 34.593 89.1264 34.593C89.2765 34.593 89.4332 34.6197 89.5966 34.673C89.76 34.7264 89.8984 34.8164 90.0118 34.9431L89.8617 35.5334C89.7817 35.3866 89.6733 35.2699 89.5366 35.1832C89.3999 35.0965 89.2581 35.0532 89.1114 35.0532C88.9747 35.0532 88.8663 35.0915 88.7863 35.1682C88.7096 35.2449 88.6712 35.3333 88.6712 35.4333C88.6712 35.5134 88.6979 35.5851 88.7513 35.6484C88.8046 35.7118 88.8846 35.7635 88.9914 35.8035L89.3965 35.9586C89.4699 35.9852 89.5599 36.0286 89.6667 36.0886C89.7767 36.1486 89.8734 36.2353 89.9568 36.3487C90.0401 36.4621 90.0818 36.6155 90.0818 36.8089C90.0818 37.079 89.9868 37.2975 89.7967 37.4642C89.61 37.631 89.3732 37.7143 89.0864 37.7143ZM95.9704 37.6543V33.1523H98.1913V33.6626H96.5406V34.623H97.8412V35.1332H96.5406V37.1441H98.1913V37.6543H95.9704ZM101.838 37.6943C101.565 37.6943 101.315 37.626 101.088 37.4892C100.861 37.3492 100.679 37.1624 100.543 36.929C100.409 36.6955 100.343 36.4371 100.343 36.1536C100.343 35.8702 100.409 35.6117 100.543 35.3783C100.679 35.1449 100.861 34.9598 101.088 34.8231C101.315 34.683 101.565 34.613 101.838 34.613C102.045 34.613 102.238 34.6513 102.419 34.728C102.602 34.8047 102.76 34.9114 102.894 35.0482V34.653H103.394V37.6543H102.894V37.2591C102.76 37.3925 102.602 37.4992 102.419 37.5793C102.238 37.656 102.045 37.6943 101.838 37.6943ZM101.908 37.2041C102.098 37.2041 102.27 37.1574 102.424 37.064C102.58 36.9673 102.704 36.8406 102.794 36.6839C102.887 36.5238 102.934 36.3471 102.934 36.1536C102.934 35.9602 102.887 35.7852 102.794 35.6284C102.704 35.4684 102.58 35.3416 102.424 35.2483C102.27 35.1515 102.098 35.1032 101.908 35.1032C101.718 35.1032 101.545 35.1515 101.388 35.2483C101.235 35.3416 101.111 35.4684 101.018 35.6284C100.928 35.7852 100.883 35.9602 100.883 36.1536C100.883 36.3471 100.928 36.5238 101.018 36.6839C101.111 36.8406 101.235 36.9673 101.388 37.064C101.545 37.1574 101.718 37.2041 101.908 37.2041ZM106.08 37.6543V34.653H106.58V35.2032C106.687 35.0265 106.829 34.8864 107.005 34.7831C107.182 34.6763 107.392 34.623 107.636 34.623L107.771 35.1632C107.707 35.1432 107.634 35.1332 107.551 35.1332C107.27 35.1332 107.045 35.2232 106.875 35.4033C106.705 35.5801 106.62 35.8335 106.62 36.1637V37.6543H106.08ZM110.06 37.6543V34.653H110.56V35.1382C110.67 34.9615 110.812 34.8264 110.985 34.733C111.162 34.6397 111.352 34.593 111.555 34.593C111.769 34.593 111.966 34.6463 112.146 34.753C112.329 34.8564 112.477 35.0082 112.591 35.2082C112.704 35.405 112.761 35.6451 112.761 35.9286V37.6543H112.221V36.0036C112.221 35.7668 112.149 35.5584 112.006 35.3783C111.865 35.1949 111.667 35.1032 111.41 35.1032C111.2 35.1032 111.012 35.1799 110.845 35.3333C110.682 35.4834 110.6 35.7018 110.6 35.9886V37.6543H110.06ZM120.788 37.7443C120.465 37.7443 120.159 37.6843 119.873 37.5643C119.589 37.4409 119.339 37.2725 119.122 37.059C118.909 36.8456 118.74 36.5972 118.617 36.3137C118.497 36.0303 118.437 35.7268 118.437 35.4033C118.437 35.0799 118.497 34.7764 118.617 34.4929C118.74 34.2095 118.909 33.961 119.122 33.7476C119.339 33.5342 119.589 33.3674 119.873 33.2474C120.159 33.124 120.465 33.0623 120.788 33.0623C121.108 33.0623 121.408 33.1223 121.688 33.2424C121.968 33.3591 122.215 33.5208 122.429 33.7276L122.264 34.4179C122.11 34.1711 121.903 33.9744 121.643 33.8276C121.387 33.6776 121.101 33.6025 120.788 33.6025C120.458 33.6025 120.159 33.6842 119.893 33.8477C119.629 34.0077 119.419 34.2245 119.262 34.4979C119.106 34.768 119.027 35.0698 119.027 35.4033C119.027 35.7335 119.106 36.0353 119.262 36.3087C119.419 36.5822 119.629 36.8006 119.893 36.964C120.159 37.1241 120.458 37.2041 120.788 37.2041C121.105 37.2041 121.392 37.1291 121.648 36.979C121.905 36.8289 122.11 36.6322 122.264 36.3887L122.429 37.079C122.215 37.2825 121.968 37.4442 121.688 37.5643C121.408 37.6843 121.108 37.7443 120.788 37.7443ZM124.848 37.6543V34.653H125.348V35.2032C125.455 35.0265 125.596 34.8864 125.773 34.7831C125.95 34.6763 126.16 34.623 126.403 34.623L126.538 35.1632C126.475 35.1432 126.402 35.1332 126.318 35.1332C126.038 35.1332 125.813 35.2232 125.643 35.4033C125.473 35.5801 125.388 35.8335 125.388 36.1637V37.6543H124.848ZM128.702 39.1549L129.678 37.2141L128.407 34.653H129.018L129.658 35.9536C129.715 36.0703 129.77 36.1853 129.823 36.2987C129.876 36.4121 129.93 36.5488 129.983 36.7089C130.04 36.5488 130.093 36.4121 130.143 36.2987C130.196 36.182 130.253 36.0669 130.313 35.9536L130.963 34.653H131.539L129.288 39.1549H128.702ZM133.806 39.1549V34.653H134.306V35.0482C134.443 34.9114 134.601 34.8047 134.781 34.728C134.962 34.6513 135.155 34.613 135.362 34.613C135.639 34.613 135.889 34.683 136.112 34.8231C136.339 34.9598 136.519 35.1449 136.652 35.3783C136.789 35.6117 136.857 35.8702 136.857 36.1536C136.857 36.4371 136.789 36.6955 136.652 36.929C136.519 37.1624 136.339 37.3492 136.112 37.4892C135.889 37.626 135.639 37.6943 135.362 37.6943C135.165 37.6943 134.98 37.6593 134.806 37.5893C134.633 37.5192 134.48 37.4225 134.346 37.2991V39.1549H133.806ZM135.292 37.2041C135.482 37.2041 135.654 37.1574 135.807 37.064C135.964 36.9673 136.087 36.8406 136.177 36.6839C136.27 36.5238 136.317 36.3471 136.317 36.1536C136.317 35.9602 136.27 35.7852 136.177 35.6284C136.087 35.4684 135.964 35.3416 135.807 35.2483C135.654 35.1515 135.482 35.1032 135.292 35.1032C135.102 35.1032 134.928 35.1515 134.771 35.2483C134.618 35.3416 134.495 35.4684 134.401 35.6284C134.311 35.7852 134.266 35.9602 134.266 36.1536C134.266 36.3471 134.311 36.5238 134.401 36.6839C134.495 36.8406 134.618 36.9673 134.771 37.064C134.928 37.1574 135.102 37.2041 135.292 37.2041ZM139.536 37.6543V35.1032H138.855V34.653H139.551V33.6526H140.061V34.653H140.806V35.1032H140.076V37.6543H139.536ZM144.388 37.7143C144.098 37.7143 143.833 37.6443 143.593 37.5042C143.353 37.3642 143.161 37.1758 143.018 36.939C142.878 36.7022 142.808 36.4404 142.808 36.1536C142.808 35.8635 142.878 35.6017 143.018 35.3683C143.161 35.1315 143.353 34.9431 143.593 34.8031C143.833 34.663 144.098 34.593 144.388 34.593C144.682 34.593 144.947 34.663 145.184 34.8031C145.424 34.9431 145.614 35.1315 145.754 35.3683C145.897 35.6017 145.969 35.8635 145.969 36.1536C145.969 36.4404 145.897 36.7022 145.754 36.939C145.614 37.1758 145.424 37.3642 145.184 37.5042C144.947 37.6443 144.682 37.7143 144.388 37.7143ZM144.388 37.2041C144.582 37.2041 144.757 37.1574 144.913 37.064C145.07 36.9673 145.195 36.8406 145.289 36.6839C145.382 36.5238 145.429 36.3471 145.429 36.1536C145.429 35.9602 145.382 35.7852 145.289 35.6284C145.195 35.4684 145.07 35.3416 144.913 35.2483C144.757 35.1515 144.582 35.1032 144.388 35.1032C144.195 35.1032 144.02 35.1515 143.863 35.2483C143.706 35.3416 143.581 35.4684 143.488 35.6284C143.394 35.7852 143.348 35.9602 143.348 36.1536C143.348 36.3471 143.394 36.5238 143.488 36.6839C143.581 36.8406 143.706 36.9673 143.863 37.064C144.02 37.1574 144.195 37.2041 144.388 37.2041Z" fill="white"/>
<rect x="40.8594" y="27.1992" width="89.4964" height="2.9789" fill="#DE7E29"/>
<path d="M123.6 17.8449L116.616 21.4063L119.983 17.8362L116.634 14.2477L123.6 17.8449Z" fill="url(#paint1_linear_1442_11)"/>
<defs>
<linearGradient id="paint0_linear_1442_11" x1="91.6931" y1="0" x2="91.7643" y2="25.9034" gradientUnits="userSpaceOnUse">
<stop offset="0.427885" stop-color="#CAA12D"/>
<stop offset="0.696789" stop-color="#FAE443"/>
<stop offset="0.918269" stop-color="#DE7E29"/>
</linearGradient>
<linearGradient id="paint1_linear_1442_11" x1="120.122" y1="14.2567" x2="120.103" y2="21.4153" gradientUnits="userSpaceOnUse">
<stop stop-color="#CAA12D"/>
<stop offset="0.466531" stop-color="#F9E243"/>
<stop offset="1" stop-color="#DD7D28"/>
</linearGradient>
</defs>
</svg>
