<svg width="157" height="46" viewBox="0 0 157 46" fill="none" xmlns="http://www.w3.org/2000/svg">
<rect x="137.352" y="26.8809" width="3.21812" height="4.72711" transform="rotate(13.342 137.352 26.8809)" fill="#DE7E29"/>
<circle cx="21.8291" cy="24.249" r="18.3909" stroke="#F9E342" stroke-width="1.32946"/>
<circle cx="21.8199" cy="24.2477" r="16.6183" stroke="black" stroke-width="2.21577" stroke-dasharray="4.43 4.43"/>
<circle cx="21.8183" cy="24.2476" r="16.6183" transform="rotate(15.1988 21.8183 24.2476)" stroke="#E30808" stroke-width="2.21577" stroke-dasharray="4.43 4.43"/>
<path d="M21.8217 7.03587L21.7832 8.51098L21.6045 8.50632L21.6382 7.21847L21.6295 7.21825L21.2631 7.44798L21.2679 7.26647L21.643 7.0312L21.8217 7.03587Z" fill="#FEFEFE"/>
<path d="M26.2334 7.59237C26.291 7.61083 26.3454 7.63985 26.3964 7.67941C26.4475 7.71897 26.4891 7.77117 26.5212 7.83602C26.5535 7.90041 26.5707 7.97999 26.5729 8.07475C26.575 8.16951 26.556 8.28155 26.5157 8.41087C26.4766 8.53607 26.4301 8.64356 26.3759 8.73335C26.3224 8.82283 26.263 8.89388 26.1978 8.94652C26.1331 8.99929 26.0637 9.03302 25.9897 9.04769C25.9161 9.06251 25.8397 9.05755 25.7603 9.03283C25.6815 9.00825 25.6159 8.97072 25.5637 8.92024C25.5122 8.86945 25.4754 8.80993 25.4534 8.74169C25.4319 8.67314 25.4273 8.6 25.4395 8.52228L25.6073 8.57458C25.6023 8.64396 25.6157 8.70675 25.6475 8.76294C25.6799 8.81882 25.7332 8.85834 25.8075 8.88149C25.9162 8.91536 26.0167 8.89462 26.1092 8.81927C26.202 8.74407 26.2755 8.61979 26.3295 8.44644L26.3185 8.44301C26.2808 8.47353 26.2399 8.49727 26.1959 8.51424C26.1519 8.53121 26.106 8.54055 26.0581 8.54225C26.0103 8.54395 25.9621 8.53722 25.9135 8.52207C25.8328 8.49692 25.7649 8.45389 25.7099 8.39299C25.6556 8.33177 25.6191 8.25979 25.6006 8.17704C25.5827 8.09399 25.5879 8.00706 25.6162 7.91626C25.6431 7.83004 25.687 7.75717 25.7478 7.69763C25.8092 7.63778 25.8816 7.59746 25.9651 7.57668C26.049 7.55604 26.1384 7.56127 26.2334 7.59237ZM26.1862 7.7437C26.1284 7.7257 26.0719 7.72392 26.0166 7.73838C25.9619 7.75252 25.9134 7.77968 25.8712 7.81986C25.8296 7.85972 25.7996 7.90901 25.7813 7.96771C25.763 8.02641 25.7592 8.08383 25.7699 8.13999C25.7812 8.19583 25.8049 8.24497 25.841 8.2874C25.8776 8.32953 25.9249 8.35959 25.9826 8.3776C26.0262 8.39118 26.0694 8.39534 26.1123 8.39009C26.1554 8.38438 26.1955 8.37098 26.2328 8.34989C26.2707 8.32848 26.3035 8.30125 26.3315 8.26819C26.3595 8.23467 26.38 8.19704 26.393 8.15531C26.4102 8.10028 26.413 8.04454 26.4014 7.9881C26.3902 7.93181 26.3662 7.88153 26.3291 7.83729C26.2926 7.79319 26.2449 7.762 26.1862 7.7437Z" fill="#FEFEFE"/>
<path d="M29.9689 10.8292C29.89 10.7762 29.8287 10.7154 29.7851 10.6467C29.7419 10.5784 29.7184 10.5079 29.7145 10.4352C29.7113 10.3625 29.7297 10.2929 29.7696 10.2266L29.9203 10.3279C29.897 10.3695 29.8876 10.4127 29.8923 10.4575C29.8972 10.5018 29.9138 10.5448 29.942 10.5863C29.9702 10.6279 30.0079 10.6644 30.0549 10.696C30.1075 10.7314 30.1604 10.7535 30.2133 10.7625C30.2663 10.7715 30.3154 10.7674 30.3605 10.7503C30.4056 10.7331 30.4426 10.703 30.4715 10.6599C30.5018 10.6149 30.5172 10.5677 30.5179 10.5184C30.5189 10.4687 30.5044 10.4196 30.4745 10.3712C30.4446 10.3227 30.3985 10.2776 30.3363 10.2358L30.2382 10.1699L30.3266 10.0383L30.4247 10.1042C30.4733 10.1369 30.5219 10.1568 30.5703 10.1639C30.6192 10.1712 30.6647 10.1659 30.7069 10.148C30.7495 10.1303 30.7852 10.0999 30.8141 10.0568C30.842 10.0153 30.857 9.97309 30.8593 9.93007C30.8616 9.88704 30.8518 9.84571 30.8298 9.80607C30.8082 9.76669 30.7749 9.73187 30.7298 9.7016C30.6876 9.67321 30.6425 9.6542 30.5945 9.64457C30.5473 9.63482 30.5021 9.63659 30.459 9.6499C30.4162 9.6628 30.3802 9.68892 30.3509 9.72825L30.2073 9.63183C30.2528 9.56924 30.3099 9.52601 30.3786 9.50213C30.4476 9.47786 30.5205 9.47186 30.5973 9.48411C30.6745 9.49664 30.7484 9.52661 30.819 9.57402C30.8948 9.62491 30.9495 9.68392 30.9831 9.75105C31.0169 9.81778 31.0317 9.88584 31.0273 9.95523C31.0229 10.0246 31.0013 10.0882 30.9625 10.1461C30.9162 10.215 30.8585 10.2617 30.7895 10.2859C30.721 10.3105 30.6495 10.3114 30.5751 10.2886L30.5687 10.2981C30.6375 10.3629 30.6758 10.4363 30.6836 10.5186C30.6917 10.6004 30.6697 10.6802 30.6174 10.7579C30.5727 10.8245 30.5144 10.8722 30.4425 10.9008C30.3712 10.9293 30.2943 10.9379 30.2118 10.9264C30.1292 10.9149 30.0483 10.8825 29.9689 10.8292Z" fill="#FEFEFE"/>
<path d="M32.8593 13.2804C32.7961 13.2042 32.7538 13.1257 32.7324 13.0449C32.7116 12.9641 32.7116 12.8877 32.7324 12.8156C32.7535 12.7432 32.7949 12.6818 32.8566 12.6313C32.9044 12.5911 32.9566 12.5637 33.0132 12.5492C33.0702 12.5344 33.1261 12.5323 33.1811 12.5429C33.2367 12.5536 33.2854 12.5766 33.3271 12.6119L33.3338 12.6064C33.3028 12.5404 33.2974 12.4718 33.3177 12.4007C33.3384 12.3293 33.379 12.2688 33.4396 12.2192C33.497 12.171 33.5607 12.1429 33.6307 12.1347C33.7007 12.1266 33.7703 12.1376 33.8395 12.1676C33.909 12.198 33.9713 12.2465 34.0265 12.313C34.081 12.3789 34.1166 12.4486 34.1333 12.5221C34.1499 12.5956 34.1478 12.666 34.1268 12.7333C34.1062 12.801 34.0671 12.8589 34.0097 12.9071C33.9491 12.9567 33.8817 12.9848 33.8074 12.9915C33.7337 12.9983 33.6678 12.9808 33.6096 12.9392L33.603 12.9447C33.6296 12.9919 33.6427 13.0435 33.6422 13.0994C33.6421 13.155 33.6297 13.2096 33.6049 13.2632C33.5805 13.3165 33.5443 13.3633 33.4966 13.4035C33.4349 13.454 33.3663 13.4827 33.291 13.4897C33.2163 13.4967 33.1412 13.4825 33.0657 13.4471C32.9909 13.4118 32.9221 13.3562 32.8593 13.2804ZM32.9813 13.1792C33.0239 13.2306 33.069 13.2681 33.1166 13.2917C33.1642 13.3152 33.2116 13.3246 33.2588 13.3198C33.306 13.315 33.3501 13.296 33.391 13.2626C33.4336 13.2267 33.4624 13.1842 33.4772 13.1351C33.492 13.086 33.4932 13.0348 33.4808 12.9814C33.4687 12.9284 33.4428 12.8779 33.4029 12.8298C33.3628 12.7814 33.3175 12.7459 33.267 12.7234C33.2169 12.7013 33.1664 12.693 33.1154 12.6985C33.0647 12.7043 33.018 12.7252 32.9754 12.7611C32.9344 12.7945 32.9071 12.8337 32.8933 12.8788C32.8798 12.9243 32.8804 12.9728 32.895 13.0243C32.9096 13.0758 32.9384 13.1274 32.9813 13.1792ZM33.5205 12.7323C33.5543 12.773 33.5923 12.8023 33.6346 12.8203C33.6772 12.8386 33.7207 12.8447 33.7649 12.8386C33.8091 12.8325 33.851 12.8134 33.8905 12.7813C33.9287 12.7491 33.9546 12.7123 33.9684 12.6709C33.9825 12.6293 33.9843 12.5863 33.9738 12.542C33.9637 12.4973 33.9413 12.4541 33.9067 12.4123C33.8714 12.3698 33.8326 12.3392 33.7904 12.3206C33.7485 12.3017 33.7059 12.2955 33.6627 12.302C33.6198 12.3082 33.5793 12.3274 33.5411 12.3597C33.5016 12.3918 33.4746 12.4289 33.4601 12.4708C33.4459 12.5132 33.4438 12.557 33.4539 12.6023C33.464 12.6476 33.4862 12.6909 33.5205 12.7323Z" fill="#FEFEFE"/>
<path d="M35.1709 16.3732L36.631 16.4637L36.6416 16.4592L36.341 15.7602L36.4867 15.6976L36.8601 16.566L36.7066 16.632L35.2449 16.5453L35.1709 16.3732Z" fill="#FEFEFE"/>
<path d="M36.8179 19.747L36.9432 19.7136L37.5839 20.0468C37.6589 20.0859 37.7235 20.1174 37.7776 20.1413C37.8321 20.165 37.8814 20.1802 37.9255 20.1868C37.9701 20.1938 38.0142 20.1915 38.0578 20.1799C38.108 20.1665 38.1481 20.1429 38.1784 20.1089C38.2087 20.0755 38.2284 20.0355 38.2373 19.9888C38.2462 19.9422 38.2438 19.8931 38.2301 19.8416C38.2155 19.7868 38.1914 19.7421 38.1577 19.7073C38.1247 19.6729 38.085 19.6499 38.0387 19.6384C37.9925 19.6273 37.9422 19.629 37.8879 19.6435L37.8441 19.4792C37.9277 19.4569 38.0061 19.4567 38.0795 19.4783C38.1529 19.5 38.2161 19.5394 38.2691 19.5963C38.3222 19.6537 38.3598 19.724 38.382 19.8071C38.4042 19.8906 38.4063 19.9693 38.3883 20.0433C38.3702 20.1172 38.3361 20.1805 38.286 20.2331C38.236 20.2857 38.1742 20.3218 38.1009 20.3414C38.0485 20.3554 37.9946 20.3595 37.9394 20.3539C37.8848 20.3486 37.8207 20.3309 37.7471 20.3008C37.674 20.2711 37.5827 20.227 37.4732 20.1688L37.0453 19.9399L37.0341 19.9428L37.2109 20.6056L37.0578 20.6464L36.8179 19.747Z" fill="#FEFEFE"/>
<path d="M37.4832 23.5755L37.6302 23.5744L38.6607 24.2156L38.6615 24.3223L38.4338 24.3239L38.4333 24.2518L37.6546 23.7673L37.6431 23.7674L37.6492 24.6407L37.4907 24.6418L37.4832 23.5755ZM37.1855 24.2721L37.5328 24.2697L37.6012 24.2692L38.6611 24.2617L38.6623 24.4318L37.1867 24.4422L37.1855 24.2721Z" fill="#FEFEFE"/>
<path d="M38.222 28.6495C38.199 28.7055 38.1657 28.7573 38.1222 28.8051C38.0787 28.8528 38.0233 28.8901 37.9561 28.917C37.8894 28.944 37.8087 28.9548 37.714 28.9494C37.6194 28.944 37.5092 28.916 37.3835 28.8656C37.2619 28.8167 37.1584 28.7617 37.0732 28.7005C36.9883 28.64 36.9222 28.5752 36.875 28.506C36.8275 28.4372 36.7994 28.3654 36.7907 28.2904C36.7818 28.2159 36.7929 28.1401 36.8238 28.063C36.8546 27.9864 36.8973 27.924 36.9518 27.876C37.0065 27.8287 37.0688 27.7967 37.1385 27.7802C37.2086 27.7644 37.2819 27.7656 37.3584 27.7839L37.2928 27.947C37.2241 27.9365 37.1604 27.9448 37.1019 27.972C37.0436 27.9999 36.9999 28.0499 36.9709 28.1221C36.9285 28.2277 36.9411 28.3296 37.0089 28.4278C37.0764 28.5263 37.1945 28.6095 37.3629 28.6771L37.3672 28.6664C37.3398 28.6264 37.3194 28.5838 37.306 28.5386C37.2926 28.4933 37.287 28.4468 37.2891 28.399C37.2912 28.3512 37.3018 28.3037 37.3207 28.2564C37.3523 28.178 37.4006 28.1138 37.4657 28.0638C37.531 28.0145 37.6057 27.9839 37.6896 27.9721C37.7739 27.9609 37.8601 27.973 37.9483 28.0085C38.0321 28.0421 38.1013 28.0916 38.1558 28.157C38.2105 28.223 38.245 28.2984 38.259 28.3833C38.2729 28.4686 38.2605 28.5573 38.222 28.6495ZM38.0749 28.5904C38.0974 28.5342 38.1037 28.478 38.0937 28.4217C38.084 28.366 38.0608 28.3156 38.0241 28.2703C37.9877 28.2256 37.9409 28.1919 37.8839 28.1689C37.8268 28.146 37.7699 28.1376 37.7131 28.1438C37.6565 28.1506 37.6056 28.1703 37.5605 28.2028C37.5155 28.2361 37.4818 28.2807 37.4592 28.3369C37.4422 28.3792 37.4346 28.422 37.4364 28.4652C37.4387 28.5085 37.4489 28.5496 37.4669 28.5884C37.4852 28.6279 37.5097 28.6629 37.5405 28.6933C37.5716 28.724 37.6075 28.7474 37.6481 28.7637C37.7016 28.7852 37.7569 28.7924 37.8141 28.7854C37.8711 28.7788 37.9231 28.7588 37.9702 28.7254C38.0171 28.6925 38.052 28.6475 38.0749 28.5904Z" fill="#FEFEFE"/>
<path d="M36.1783 32.5942L34.9951 31.7125L35.1019 31.5692L36.1348 32.339L36.14 32.3321L36.1635 31.9003L36.3091 32.0088L36.285 32.451L36.1783 32.5942Z" fill="#FEFEFE"/>
<path d="M29.894 37.3021L30.2557 38.7196L30.2633 38.7283L30.8364 38.2278L30.9406 38.3472L30.2286 38.969L30.1187 38.8431L29.7529 37.4253L29.894 37.3021Z" fill="#FEFEFE"/>
<path d="M33.0418 35.045L33.5828 36.4042L33.5914 36.4118L34.0954 35.8418L34.2141 35.9468L33.588 36.655L33.4627 36.5443L32.9177 35.1853L33.0418 35.045Z" fill="#FEFEFE"/>
<path d="M26.464 39.3381L26.5039 39.4796L26.1588 40.6432L26.0561 40.6722L25.9942 40.4531L26.0636 40.4335L26.3244 39.5542L26.3212 39.5431L25.4808 39.7805L25.4377 39.628L26.464 39.3381ZM25.7133 39.2357L25.8077 39.5699L25.8263 39.6358L26.1144 40.6557L25.9507 40.702L25.5496 39.2819L25.7133 39.2357Z" fill="#FEFEFE"/>
<path d="M21.561 39.6973C21.6599 39.6988 21.7471 39.7176 21.8224 39.7538C21.8973 39.7905 21.9554 39.8401 21.9968 39.9027C22.0381 39.9657 22.0579 40.0371 22.0563 40.1169C22.0558 40.1793 22.0427 40.2368 22.017 40.2892C21.9912 40.3422 21.9564 40.3861 21.9127 40.421C21.8684 40.4563 21.8193 40.4784 21.7654 40.4872L21.7653 40.4959C21.8356 40.5152 21.8912 40.5556 21.9321 40.6173C21.973 40.6794 21.9926 40.7496 21.9909 40.8278C21.9903 40.9028 21.9703 40.9695 21.931 41.028C21.8917 41.0865 21.8382 41.1323 21.7704 41.1654C21.7022 41.1985 21.6249 41.2144 21.5384 41.2131C21.4529 41.2118 21.3768 41.1936 21.3101 41.1585C21.2433 41.1234 21.1912 41.0761 21.1537 41.0164C21.1156 40.9568 21.0969 40.8895 21.0976 40.8145C21.0992 40.7363 21.1216 40.6667 21.1648 40.6058C21.2075 40.5455 21.2636 40.5067 21.333 40.4894L21.3331 40.4808C21.28 40.4704 21.2323 40.4469 21.1901 40.4102C21.1479 40.374 21.1144 40.3291 21.0897 40.2754C21.0651 40.2222 21.053 40.1644 21.0534 40.1019C21.0551 40.0222 21.0778 39.9514 21.1214 39.8896C21.1646 39.8283 21.2242 39.7804 21.3001 39.746C21.3756 39.7121 21.4625 39.6958 21.561 39.6973ZM21.5586 39.8558C21.4919 39.8548 21.4341 39.8648 21.3852 39.8856C21.3364 39.9065 21.2985 39.9365 21.2715 39.9755C21.2445 40.0145 21.2303 40.0604 21.2291 40.1132C21.2287 40.1689 21.2424 40.2184 21.2701 40.2615C21.2978 40.3047 21.336 40.3389 21.3846 40.3641C21.4327 40.3893 21.488 40.4024 21.5505 40.4033C21.6134 40.4043 21.6698 40.3929 21.7196 40.3691C21.769 40.3453 21.8081 40.3123 21.8371 40.27C21.8656 40.2276 21.88 40.1786 21.8804 40.1229C21.8816 40.0701 21.8696 40.0238 21.8442 39.984C21.8184 39.9442 21.7811 39.9132 21.7325 39.8908C21.6838 39.8685 21.6259 39.8568 21.5586 39.8558ZM21.5482 40.5561C21.4954 40.5553 21.4484 40.5651 21.4072 40.5857C21.3656 40.6062 21.3328 40.6352 21.3087 40.6728C21.2846 40.7104 21.2719 40.7547 21.2707 40.8056C21.2704 40.8555 21.2815 40.8992 21.304 40.9365C21.3265 40.9743 21.358 41.0036 21.3985 41.0244C21.4391 41.0456 21.4865 41.0567 21.5407 41.0575C21.596 41.0583 21.6444 41.0487 21.686 41.0287C21.7276 41.0091 21.76 40.9808 21.7831 40.9436C21.8062 40.907 21.8179 40.8637 21.8182 40.8137C21.8194 40.7628 21.8088 40.7182 21.7863 40.6799C21.7633 40.6417 21.7314 40.6116 21.6904 40.5899C21.6494 40.5681 21.602 40.5569 21.5482 40.5561Z" fill="#FEFEFE"/>
<path d="M17.7354 39.3574C17.8161 39.3826 17.8837 39.4214 17.9383 39.4737C17.9929 39.526 18.031 39.5862 18.0525 39.6543C18.074 39.7224 18.0754 39.7928 18.0567 39.8655L17.8917 39.8139C17.9052 39.7482 17.8927 39.6864 17.8544 39.6286C17.8155 39.5712 17.7601 39.5312 17.6881 39.5087C17.6303 39.4907 17.5747 39.4882 17.5214 39.5012C17.4675 39.514 17.4204 39.5401 17.3799 39.5793C17.3389 39.6188 17.309 39.6686 17.2902 39.7286C17.271 39.7901 17.2674 39.8491 17.2795 39.9057C17.2909 39.9626 17.3156 40.0123 17.3536 40.0549C17.3916 40.0975 17.4406 40.1284 17.5005 40.1476C17.5435 40.1615 17.5898 40.1687 17.6395 40.1692C17.689 40.17 17.7318 40.1645 17.7677 40.1526L17.9212 40.2217L17.6193 40.8883L16.8876 40.6596L16.9349 40.5083L17.5236 40.6923L17.7029 40.2924L17.6946 40.2898C17.6586 40.3037 17.6164 40.3114 17.5681 40.3129C17.5198 40.3144 17.4721 40.3078 17.4249 40.2931C17.3387 40.2661 17.2683 40.2215 17.2138 40.1592C17.1587 40.0972 17.123 40.0246 17.1067 39.9415C17.0899 39.8583 17.0958 39.771 17.1243 39.6798C17.1524 39.5899 17.1977 39.516 17.2601 39.458C17.3219 39.4003 17.3942 39.362 17.4771 39.3432C17.5599 39.3247 17.646 39.3295 17.7354 39.3574Z" fill="#FEFEFE"/>
<path d="M12.7701 38.8251L13.575 37.5883L13.7247 37.6858L13.022 38.7655L13.0293 38.7702L13.4617 38.7663L13.3627 38.9184L12.9198 38.9225L12.7701 38.8251Z" fill="#FEFEFE"/>
<path d="M10.4389 35.0443C10.4948 35.1077 10.5325 35.176 10.552 35.2491C10.5715 35.3221 10.5727 35.3933 10.5557 35.4627C10.5387 35.5321 10.5034 35.5929 10.4497 35.6453L10.3354 35.5155C10.3811 35.4664 10.4025 35.4071 10.3998 35.3379C10.3964 35.2686 10.3698 35.2056 10.32 35.149C10.28 35.1036 10.2338 35.0726 10.1814 35.056C10.1287 35.039 10.0749 35.0367 10.02 35.0492C9.96441 35.0617 9.913 35.0887 9.86576 35.1303C9.81745 35.1728 9.78372 35.2214 9.76459 35.276C9.74478 35.3305 9.74006 35.3859 9.75044 35.442C9.76082 35.4981 9.78661 35.55 9.82783 35.5975C9.8573 35.6318 9.89315 35.6619 9.93539 35.6881C9.97727 35.7146 10.0167 35.7321 10.0536 35.7406L10.1489 35.8794L9.54465 36.2922L9.03812 35.7167L9.15711 35.612L9.56462 36.075L9.92556 35.8264L9.91985 35.8199C9.88183 35.813 9.84179 35.7977 9.79974 35.7739C9.75769 35.7501 9.72032 35.7197 9.68764 35.6825C9.62797 35.6148 9.59103 35.5401 9.57683 35.4585C9.56195 35.3769 9.56912 35.2964 9.59835 35.2169C9.62726 35.137 9.67759 35.0655 9.74935 35.0024C9.82002 34.9402 9.89708 34.9005 9.98054 34.8834C10.0633 34.8662 10.145 34.871 10.2257 34.898C10.306 34.9252 10.377 34.974 10.4389 35.0443Z" fill="#FEFEFE"/>
<path d="M8.21719 31.7796C8.26663 31.8482 8.29752 31.9198 8.30985 31.9944C8.32218 32.069 8.31652 32.14 8.29286 32.2074C8.26921 32.2747 8.22811 32.3319 8.16957 32.3788L8.06844 32.2386C8.11867 32.1941 8.14578 32.1372 8.14978 32.068C8.1531 31.9987 8.13271 31.9335 8.08861 31.8723C8.05321 31.8232 8.01026 31.7878 7.95974 31.7662C7.90894 31.7442 7.85561 31.7368 7.79974 31.7439C7.74321 31.7509 7.68942 31.7728 7.63838 31.8096C7.58617 31.8473 7.54789 31.8923 7.52355 31.9448C7.49854 31.9972 7.48848 32.0518 7.49337 32.1087C7.49825 32.1656 7.5189 32.2197 7.55531 32.271C7.58133 32.3079 7.61408 32.3414 7.65358 32.3716C7.69269 32.402 7.7302 32.4232 7.7661 32.4352L7.84749 32.5826L7.20611 32.9349L6.75777 32.313L6.88635 32.2203L7.24705 32.7206L7.6304 32.5082L7.62534 32.5012C7.58816 32.4907 7.5498 32.4716 7.51025 32.4438C7.47071 32.4161 7.43647 32.3821 7.40754 32.342C7.35472 32.2687 7.32521 32.1908 7.31898 32.1083C7.31208 32.0256 7.32703 31.9461 7.36383 31.8699C7.40035 31.7932 7.45737 31.7269 7.53491 31.671C7.61128 31.616 7.69183 31.584 7.77655 31.575C7.86061 31.5659 7.94146 31.5787 8.01912 31.6133C8.09639 31.6482 8.16241 31.7036 8.21719 31.7796Z" fill="#FEFEFE"/>
<path d="M6.60552 28.1861C6.64554 28.2724 6.66639 28.3562 6.66808 28.4375C6.66957 28.5183 6.65315 28.5908 6.61881 28.6549C6.58384 28.7188 6.53208 28.7687 6.46354 28.8048L6.38715 28.64C6.42867 28.6165 6.45906 28.5845 6.47831 28.5438C6.49712 28.5033 6.50522 28.4579 6.50262 28.4078C6.50001 28.3576 6.48678 28.3069 6.46293 28.2554C6.43626 28.1979 6.40259 28.1516 6.36193 28.1164C6.32127 28.0813 6.27722 28.0593 6.22976 28.0506C6.18231 28.0419 6.13505 28.0485 6.08799 28.0703C6.03875 28.0932 6.00105 28.1255 5.97489 28.1673C5.94829 28.2092 5.93523 28.2587 5.93571 28.3157C5.93618 28.3726 5.95218 28.4351 5.98371 28.5031L6.03342 28.6103L5.88962 28.677L5.8399 28.5698C5.81525 28.5166 5.78404 28.4744 5.74627 28.4432C5.7083 28.4116 5.66664 28.3925 5.62127 28.3861C5.57569 28.3791 5.52938 28.3866 5.48231 28.4084C5.43699 28.4294 5.40221 28.4577 5.37795 28.4933C5.35369 28.5289 5.34068 28.5694 5.33892 28.6147C5.33695 28.6595 5.34739 28.7066 5.37023 28.7558C5.39165 28.802 5.42035 28.8417 5.45635 28.8747C5.4917 28.9076 5.53124 28.9295 5.57498 28.9404C5.61828 28.9516 5.66265 28.948 5.70811 28.9295L5.78087 29.0864C5.70949 29.1163 5.63825 29.1237 5.56713 29.1085C5.49558 29.0935 5.43013 29.0608 5.37079 29.0105C5.31125 28.9598 5.2636 28.8958 5.22783 28.8187C5.18943 28.7359 5.17327 28.6571 5.17933 28.5823C5.18497 28.5076 5.20764 28.4418 5.24736 28.3847C5.28708 28.3277 5.33853 28.2845 5.40172 28.2552C5.47711 28.2202 5.55058 28.2102 5.62213 28.2252C5.69348 28.2398 5.75506 28.2761 5.80686 28.3341L5.81732 28.3293C5.79206 28.2383 5.79739 28.1556 5.83332 28.0812C5.86882 28.007 5.92905 27.9502 6.01402 27.9108C6.0868 27.8771 6.16136 27.8666 6.2377 27.8794C6.31341 27.8919 6.38359 27.9245 6.44823 27.9771C6.51288 28.0297 6.56531 28.0994 6.60552 28.1861Z" fill="#FEFEFE"/>
<path d="M6.0965 24.2014C6.11075 24.2993 6.106 24.3884 6.08223 24.4685C6.05792 24.5483 6.01815 24.6135 5.96292 24.6643C5.90722 24.7151 5.83988 24.746 5.76091 24.757C5.69918 24.7665 5.64038 24.7627 5.58449 24.7456C5.52813 24.7285 5.47925 24.7012 5.43785 24.6635C5.3959 24.6255 5.3663 24.5805 5.34904 24.5287L5.34048 24.5299C5.3326 24.6024 5.30148 24.6637 5.24713 24.7139C5.19231 24.7641 5.12612 24.7946 5.04857 24.8054C4.97449 24.8167 4.90545 24.8075 4.84145 24.778C4.77744 24.7485 4.72372 24.7029 4.68029 24.6413C4.63678 24.5792 4.6088 24.5054 4.59634 24.4198C4.58402 24.3352 4.5899 24.2572 4.61396 24.1857C4.63802 24.1142 4.67651 24.0552 4.72944 24.0087C4.7823 23.9617 4.84577 23.9325 4.91986 23.9213C4.9974 23.9105 5.06964 23.9216 5.13658 23.9545C5.20297 23.9871 5.25017 24.0363 5.2782 24.1021L5.28676 24.1009C5.28858 24.0467 5.30424 23.9959 5.33373 23.9484C5.36275 23.901 5.4018 23.8608 5.4509 23.8279C5.49951 23.7951 5.55469 23.774 5.61641 23.7645C5.69538 23.7535 5.76885 23.7647 5.8368 23.798C5.90421 23.8309 5.96093 23.8821 6.00697 23.9516C6.05247 24.0207 6.08231 24.104 6.0965 24.2014ZM5.93964 24.2242C5.93002 24.1582 5.91102 24.1027 5.88264 24.0578C5.85426 24.0129 5.81868 23.9802 5.77589 23.9597C5.73311 23.9393 5.68554 23.9326 5.63318 23.9397C5.57811 23.9482 5.53147 23.9696 5.49325 24.0038C5.45502 24.038 5.42732 24.0811 5.41014 24.1331C5.39289 24.1847 5.38876 24.2413 5.39776 24.3031C5.40682 24.3654 5.42704 24.4192 5.45841 24.4647C5.48971 24.5096 5.52855 24.543 5.57494 24.5649C5.62126 24.5863 5.67195 24.5928 5.72702 24.5843C5.77938 24.5772 5.82318 24.5579 5.85842 24.5266C5.89359 24.4948 5.91834 24.453 5.93267 24.4014C5.947 24.3499 5.94932 24.2908 5.93964 24.2242ZM5.2466 24.3251C5.23899 24.2728 5.22178 24.228 5.19498 24.1907C5.16812 24.1528 5.13421 24.125 5.09327 24.1072C5.05233 24.0894 5.00663 24.0839 4.95618 24.0907C4.90681 24.0984 4.86549 24.1163 4.83221 24.1445C4.79846 24.1727 4.77454 24.2084 4.76046 24.2517C4.7459 24.2951 4.74253 24.3437 4.75035 24.3974C4.75831 24.452 4.77548 24.4983 4.80188 24.5362C4.82779 24.5742 4.86091 24.6017 4.90124 24.6186C4.94109 24.6356 4.9857 24.6403 5.03507 24.6326C5.08552 24.6258 5.12787 24.6082 5.1621 24.5799C5.19626 24.5511 5.22082 24.5148 5.23578 24.4709C5.25074 24.4269 5.25435 24.3784 5.2466 24.3251Z" fill="#FEFEFE"/>
<path d="M6.62638 20.5436L6.49801 20.5252L6.03958 19.9672C5.98591 19.9017 5.93888 19.8474 5.8985 19.8042C5.85765 19.761 5.81828 19.7276 5.78039 19.7042C5.7421 19.6803 5.70061 19.6651 5.65592 19.6587C5.60457 19.6513 5.55834 19.6573 5.51722 19.6766C5.47617 19.6954 5.44238 19.7245 5.41585 19.7639C5.38932 19.8033 5.37227 19.8494 5.36468 19.9021C5.35661 19.9583 5.36122 20.0089 5.3785 20.0541C5.39537 20.0987 5.42285 20.1354 5.46093 20.1642C5.49908 20.1925 5.54597 20.2107 5.6016 20.2187L5.5774 20.387C5.49181 20.3747 5.41953 20.3441 5.36054 20.2954C5.30156 20.2466 5.25888 20.1856 5.23253 20.1124C5.20624 20.0388 5.19921 19.9594 5.21145 19.8743C5.22376 19.7887 5.25273 19.7155 5.29837 19.6546C5.344 19.5937 5.40019 19.5489 5.46693 19.5201C5.53366 19.4914 5.60459 19.4824 5.67971 19.4932C5.73344 19.5009 5.78457 19.5183 5.83312 19.5451C5.88126 19.5715 5.93329 19.6129 5.98921 19.6695C6.04473 19.7255 6.1114 19.8018 6.18923 19.8984L6.49294 20.2769L6.50435 20.2786L6.60198 19.5996L6.75888 19.6222L6.62638 20.5436Z" fill="#FEFEFE"/>
<path d="M8.38861 16.3948C8.35325 16.4716 8.30613 16.5337 8.24726 16.5812C8.18839 16.6287 8.1238 16.6587 8.05349 16.6712C7.98318 16.6838 7.9132 16.6762 7.84352 16.6483L7.91586 16.4912C7.97931 16.5131 8.04215 16.5087 8.10435 16.4781C8.16633 16.4469 8.21308 16.397 8.24463 16.3285C8.26994 16.2736 8.27958 16.2188 8.27352 16.1641C8.26767 16.1091 8.2479 16.059 8.21422 16.0139C8.18029 15.9681 8.13475 15.9321 8.0776 15.9058C8.01913 15.8788 7.96107 15.8677 7.9034 15.8723C7.8455 15.8763 7.79299 15.8945 7.74589 15.9267C7.69878 15.959 7.66184 16.0036 7.63509 16.0605C7.61576 16.1013 7.6027 16.1464 7.5959 16.1956C7.58866 16.2446 7.58865 16.2877 7.59586 16.3249L7.50761 16.4682L6.88529 16.0833L7.20596 15.387L7.34994 15.4533L7.09196 16.0135L7.46555 16.2426L7.46917 16.2348C7.46001 16.1972 7.45778 16.1544 7.46247 16.1064C7.46716 16.0583 7.47985 16.0118 7.50054 15.9668C7.53832 15.8848 7.59161 15.8208 7.66041 15.7747C7.72898 15.728 7.80551 15.7019 7.89002 15.6964C7.97472 15.6905 8.06049 15.7075 8.14731 15.7475C8.23283 15.7869 8.30034 15.8412 8.34985 15.9106C8.39912 15.9793 8.42781 16.0559 8.4359 16.1406C8.44355 16.225 8.42779 16.3097 8.38861 16.3948Z" fill="#FEFEFE"/>
<path d="M10.1511 13.3679L10.0406 13.2711L9.69656 12.1071L9.76685 12.0269L9.93806 12.177L9.89056 12.2312L10.1506 13.1107L10.1592 13.1183L10.7349 12.4616L10.8541 12.5661L10.1511 13.3679ZM10.8366 13.0451L10.5754 12.8162L10.5239 12.7711L9.72695 12.0724L9.83904 11.9445L10.9487 12.9173L10.8366 13.0451Z" fill="#FEFEFE"/>
<path d="M13.5548 11.0482L13.4856 10.9385L13.6135 10.2277C13.6286 10.1444 13.6395 10.0734 13.6462 10.0147C13.6526 9.95553 13.6525 9.90396 13.6458 9.85994C13.6392 9.81526 13.6239 9.77382 13.5998 9.73561C13.5721 9.69172 13.5376 9.66038 13.4963 9.64159C13.4553 9.62254 13.4112 9.61568 13.3641 9.62099C13.3169 9.6263 13.2707 9.64317 13.2256 9.6716C13.1777 9.70181 13.1421 9.73814 13.1189 9.78059C13.0958 9.82237 13.0857 9.86709 13.0884 9.91474C13.0916 9.96213 13.1082 10.0096 13.1381 10.0571L12.9943 10.1478C12.9482 10.0746 12.9246 9.9998 12.9235 9.92328C12.9224 9.84676 12.9412 9.77474 12.9798 9.70724C13.0189 9.63948 13.0748 9.58268 13.1475 9.53685C13.2207 9.49076 13.2952 9.46536 13.3712 9.46065C13.4471 9.45595 13.5177 9.46969 13.5828 9.50189C13.648 9.53409 13.7008 9.58229 13.7412 9.6465C13.7702 9.69243 13.7901 9.74259 13.8011 9.79698C13.8123 9.8507 13.8144 9.91719 13.8076 9.99644C13.8009 10.075 13.786 10.1753 13.7628 10.2971L13.6714 10.7737L13.6775 10.7835L14.2579 10.4178L14.3424 10.552L13.5548 11.0482Z" fill="#FEFEFE"/>
<path d="M16.4773 7.83017C16.5357 7.81438 16.5971 7.80922 16.6615 7.81471C16.7258 7.8202 16.7891 7.84145 16.8513 7.87847C16.9133 7.91502 16.971 7.97249 17.0243 8.05089C17.0776 8.12928 17.1224 8.23372 17.1588 8.3642C17.194 8.49051 17.2133 8.60607 17.2166 8.71087C17.2202 8.81508 17.2089 8.90698 17.1827 8.98659C17.157 9.06607 17.1171 9.13206 17.0629 9.18457C17.0092 9.23694 16.9423 9.2743 16.8623 9.29662C16.7827 9.31881 16.7073 9.32288 16.636 9.30884C16.5651 9.29421 16.5019 9.26421 16.4464 9.21886C16.3912 9.17292 16.3476 9.11401 16.3156 9.04216L16.4849 8.99493C16.5184 9.05591 16.5637 9.10136 16.6209 9.13129C16.6785 9.16062 16.7447 9.16483 16.8197 9.14393C16.9294 9.11335 17.0025 9.04133 17.0392 8.92788C17.0763 8.8143 17.0705 8.67006 17.0218 8.49516L17.0107 8.49826C16.9956 8.54435 16.9742 8.58647 16.9464 8.62463C16.9187 8.66279 16.8852 8.69557 16.8459 8.72297C16.8067 8.75036 16.7626 8.7709 16.7135 8.78458C16.6321 8.80729 16.5517 8.808 16.4725 8.78671C16.3936 8.76483 16.3239 8.72418 16.2634 8.66474C16.2033 8.60471 16.1605 8.52889 16.1349 8.43728C16.1107 8.35029 16.1079 8.26529 16.1267 8.18227C16.1457 8.09866 16.1847 8.02547 16.2435 7.9627C16.3027 7.8998 16.3806 7.85562 16.4773 7.83017ZM16.5199 7.98286C16.4616 7.99912 16.4131 8.02834 16.3745 8.07052C16.3362 8.11211 16.3103 8.16123 16.2967 8.21789C16.2834 8.27396 16.285 8.3316 16.3015 8.39083C16.318 8.45005 16.346 8.50034 16.3855 8.5417C16.4253 8.58246 16.4718 8.61087 16.5252 8.62691C16.5788 8.64236 16.6348 8.64196 16.6931 8.6257C16.7371 8.61344 16.7757 8.59346 16.8088 8.56576C16.8419 8.5376 16.8683 8.50454 16.8881 8.4666C16.9083 8.42806 16.9211 8.38733 16.9266 8.34441C16.932 8.30103 16.9288 8.25829 16.917 8.21618C16.9016 8.16066 16.8736 8.11235 16.8332 8.07125C16.7933 8.03002 16.7458 8.00089 16.6907 7.98384C16.636 7.96667 16.5791 7.96634 16.5199 7.98286Z" fill="#FEFEFE"/>
<path d="M16.6452 14.5487C16.9392 14.5679 17.1754 14.6619 17.3886 14.8665C17.5821 15.0938 17.7031 15.3351 17.7133 15.6365C17.6935 15.804 17.6704 15.9754 17.5845 16.1226C17.8203 16.3231 18.0786 16.4815 18.3424 16.6417C18.4497 16.7068 18.5567 16.7724 18.6638 16.8379C18.718 16.8711 18.7723 16.9043 18.8266 16.9375C19.0604 17.0805 19.293 17.2254 19.5251 17.3713C19.5981 17.4171 19.671 17.4629 19.744 17.5087C19.78 17.5313 19.8161 17.554 19.8533 17.5773C20.052 17.7019 20.2511 17.8259 20.4502 17.9499C20.5112 17.9879 20.5112 17.9879 20.5735 18.0267C20.6559 18.078 20.7383 18.1293 20.8207 18.1807C20.9844 18.2826 21.1481 18.3846 21.3118 18.4866C21.3928 18.5371 21.4738 18.5875 21.5547 18.638C21.7448 18.7564 21.9348 18.8749 22.1248 18.9935C22.2138 19.0492 22.3029 19.1048 22.392 19.1604C22.4543 19.1993 22.5166 19.2383 22.5789 19.2773C22.6867 19.3445 22.7946 19.4113 22.9027 19.478C22.9312 19.4959 22.9597 19.5139 22.9891 19.5323C23.1712 19.644 23.2858 19.6754 23.4922 19.6285C23.7018 19.5608 23.814 19.448 23.9205 19.2592C23.9653 19.1334 23.9937 19.0059 24.0212 18.8753C24.0375 18.8037 24.0538 18.7321 24.0701 18.6605C24.0777 18.6262 24.0853 18.5919 24.0931 18.5566C24.1191 18.4424 24.1487 18.3295 24.1795 18.2166C24.2344 18.0133 24.2849 17.809 24.3348 17.6045C24.3942 17.3607 24.4561 17.1179 24.5212 16.8757C24.5649 16.7088 24.6058 16.5413 24.6467 16.3737C24.7441 15.975 24.8464 15.5781 24.9633 15.1845C24.937 15.1668 24.9106 15.149 24.8835 15.1307C24.7034 14.9718 24.5728 14.7952 24.537 14.5535C24.5249 14.3535 24.5812 14.1854 24.6941 14.0211C24.862 13.8826 25.0261 13.7661 25.2435 13.7346C25.5337 13.7876 25.7272 13.8547 25.9134 14.0892C26.024 14.2951 26.0725 14.4653 26.0109 14.6953C25.9437 14.8873 25.8579 15.0006 25.7008 15.1286C25.6772 15.148 25.6536 15.1673 25.6292 15.1871C25.6112 15.2018 25.5931 15.2165 25.5745 15.2316C25.5967 15.2787 25.5967 15.2787 25.6194 15.3268C25.9796 16.0904 26.3397 16.854 26.6996 17.6177C26.8737 17.987 27.0478 18.3563 27.222 18.7256C27.3738 19.0473 27.5255 19.3691 27.6771 19.6909C27.7574 19.8614 27.8378 20.0318 27.9183 20.2023C27.9939 20.3625 28.0695 20.5228 28.1449 20.6832C28.1727 20.7422 28.2005 20.8011 28.2284 20.8601C28.2663 20.9403 28.3041 21.0205 28.3418 21.1008C28.3586 21.1361 28.3586 21.1361 28.3756 21.1722C28.4511 21.3333 28.4511 21.3333 28.4618 21.4258C28.3862 21.524 28.29 21.5935 28.1913 21.6673C28.1403 21.7056 28.1403 21.7056 28.0882 21.7447C28.051 21.7724 28.0138 21.8001 27.9755 21.8286C27.9365 21.8577 27.8975 21.8869 27.8574 21.9169C27.3648 22.2849 26.87 22.65 26.3741 23.0135C26.3371 23.0406 26.3002 23.0676 26.2622 23.0955C24.1039 24.6747 21.8367 26.1509 19.5226 27.4912C19.5006 27.5039 19.4786 27.5166 19.4559 27.5298C18.9046 27.8491 18.3519 28.166 17.7976 28.4802C17.7574 28.503 17.7173 28.5259 17.6759 28.5494C17.6389 28.5703 17.6018 28.5913 17.5637 28.6128C17.5315 28.631 17.4994 28.6492 17.4662 28.668C17.3789 28.7139 17.2913 28.7515 17.1991 28.7864C16.9639 28.5668 16.7555 28.325 16.5451 28.0821C16.5043 28.0352 16.4636 27.9883 16.4228 27.9414C16.3126 27.8147 16.2026 27.688 16.0926 27.5611C16.0007 27.4551 15.9086 27.3492 15.8166 27.2432C15.5995 26.9933 15.3826 26.7433 15.1657 26.4932C14.942 26.2354 14.7183 25.9777 14.4944 25.7201C14.3019 25.4986 14.1095 25.2771 13.9172 25.0554C13.8025 24.9232 13.6877 24.791 13.5728 24.6588C13.4649 24.5347 13.3571 24.4104 13.2494 24.2861C13.2099 24.2405 13.1704 24.195 13.1308 24.1495C13.0767 24.0873 13.0227 24.025 12.9688 23.9627C12.9386 23.9279 12.9084 23.8931 12.8773 23.8572C12.8026 23.7657 12.7378 23.6725 12.6753 23.5723C12.6442 23.5966 12.6442 23.5966 12.6125 23.6213C12.4313 23.7523 12.2924 23.8321 12.0654 23.8191C11.8639 23.7849 11.7213 23.7285 11.5852 23.5716C11.4646 23.3985 11.3722 23.2485 11.3845 23.0319C11.439 22.772 11.5065 22.6333 11.731 22.4817C11.9146 22.3652 12.0445 22.3061 12.2642 22.3521C12.5015 22.4152 12.6022 22.4943 12.7377 22.7028C12.7726 22.7559 12.7726 22.7559 12.8082 22.8101C12.868 22.9107 12.868 22.9107 12.8882 22.993C12.9146 23.0671 12.9146 23.0671 13.0114 23.0899C13.07 23.1002 13.07 23.1002 13.1298 23.1107C13.168 23.1178 13.2062 23.1249 13.2456 23.1322C13.3539 23.1491 13.4621 23.1647 13.5706 23.1796C13.7795 23.2086 13.9866 23.2452 14.194 23.283C14.4933 23.337 14.7928 23.3888 15.093 23.4376C15.2464 23.4626 15.3998 23.488 15.5531 23.5138C15.5933 23.5205 15.5933 23.5205 15.6342 23.5273C15.7828 23.5523 15.9312 23.5781 16.0795 23.6048C16.8019 23.783 16.8019 23.783 17.4771 23.6136C17.6126 23.5037 17.6573 23.3847 17.686 23.2164C17.7029 23.0511 17.6835 22.899 17.6572 22.7357C17.6502 22.6896 17.6502 22.6896 17.6431 22.6426C17.6279 22.5418 17.6121 22.4411 17.5963 22.3404C17.5854 22.2692 17.5745 22.1981 17.5637 22.1269C17.5414 21.9801 17.5189 21.8333 17.4962 21.6866C17.4651 21.4848 17.4348 21.2829 17.4048 21.0809C17.4002 21.0498 17.3956 21.0188 17.3909 20.9867C17.3817 20.9246 17.3724 20.8625 17.3632 20.8003C17.3044 20.4037 17.2448 20.0071 17.1847 19.6107C17.1803 19.5816 17.1759 19.5525 17.1713 19.5226C17.1493 19.3771 17.1272 19.2317 17.1051 19.0864C17.0557 18.7611 17.0075 18.4357 16.9606 18.1101C16.95 18.0371 16.9394 17.9641 16.9288 17.8911C16.9085 17.7508 16.8884 17.6105 16.8685 17.4701C16.8592 17.406 16.8499 17.3419 16.8406 17.2777C16.8345 17.2344 16.8345 17.2344 16.8284 17.1902C16.8031 17.0182 16.7641 16.8598 16.7085 16.695C16.6636 16.6968 16.6186 16.6985 16.5724 16.7003C16.3225 16.6911 16.096 16.5716 15.9024 16.4181C15.7089 16.1709 15.575 15.9344 15.5573 15.6168C15.5748 15.477 15.5748 15.477 15.6115 15.3581C15.6258 15.3018 15.6258 15.3018 15.6404 15.2444C15.8085 14.827 16.1969 14.5673 16.6452 14.5487ZM20.2432 22.3769C20.1804 22.9741 20.5009 23.5316 20.8504 23.9892C21.0809 24.2544 21.3489 24.4386 21.6744 24.5669C21.7121 24.5837 21.7498 24.6005 21.7886 24.6178C22.0264 24.6676 22.244 24.6535 22.4554 24.528C22.6676 24.3703 22.7624 24.1901 22.8082 23.932C22.8726 23.2964 22.6001 22.7374 22.2139 22.2498C21.8948 21.8878 21.5076 21.6303 21.0234 21.578C20.5283 21.5608 20.323 21.9475 20.2432 22.3769ZM17.1144 25.5825C17.0988 25.8894 17.2045 26.1042 17.3873 26.3417C17.6449 26.6141 18.0085 26.8948 18.3951 26.9151C18.6566 26.9194 18.822 26.9116 19.0319 26.7403C19.1448 26.5695 19.1618 26.4011 19.1366 26.2003C18.9637 25.7464 18.6206 25.4524 18.1848 25.2547C17.9408 25.1681 17.6921 25.1243 17.4393 25.1916C17.2484 25.2886 17.1732 25.3761 17.1144 25.5825ZM24.8478 20.7293C24.806 21.1657 24.9059 21.6589 25.1808 22.0074C25.3536 22.1714 25.5227 22.2917 25.7676 22.3076C25.955 22.2532 26.0915 22.1538 26.1981 21.9928C26.3849 21.6352 26.3554 21.2218 26.2555 20.8434C26.1608 20.5759 25.9997 20.2816 25.7513 20.1305C25.6809 20.0971 25.6809 20.0971 25.6131 20.0729C25.5793 20.0591 25.5454 20.0454 25.5105 20.0312C25.1149 20.0251 24.9144 20.3795 24.8478 20.7293Z" fill="#E30808"/>
<path d="M17.9475 30.24C17.9745 30.2245 18.0015 30.209 18.0293 30.193C18.3467 30.0119 18.6682 29.8382 18.9895 29.6642C19.5474 29.3615 20.103 29.0555 20.651 28.7353C20.6742 28.7218 20.6973 28.7083 20.7212 28.6944C20.8649 28.6104 21.008 28.5255 21.1509 28.4401C21.2114 28.4039 21.272 28.3678 21.3326 28.3318C22.1084 27.8706 22.8639 27.379 23.619 26.8849C23.6677 26.8531 23.6677 26.8531 23.7173 26.8206C25.6151 25.5794 27.4707 24.2752 29.2493 22.867C29.7534 22.4698 29.7534 22.4698 30.0399 22.457C30.235 22.4892 30.3961 22.5357 30.5178 22.7004C30.5378 22.7306 30.5579 22.7608 30.5785 22.792C30.6013 22.8262 30.6242 22.8605 30.6477 22.8958C30.6844 22.9515 30.6844 22.9515 30.7218 23.0084C30.7471 23.0466 30.7723 23.0848 30.7982 23.1241C30.8516 23.2051 30.9048 23.2861 30.9579 23.3671C31.0393 23.4909 31.1213 23.6143 31.2033 23.7377C31.255 23.8163 31.3067 23.895 31.3583 23.9737C31.3829 24.0105 31.4075 24.0474 31.4329 24.0853C31.5722 24.2998 31.6513 24.452 31.6302 24.7136C31.565 24.9703 31.4164 25.1008 31.2179 25.2673C31.19 25.2917 31.1621 25.3161 31.1334 25.3413C30.7709 25.6556 30.3965 25.9566 30.0258 26.2612C30.0543 26.2428 30.0828 26.2244 30.1121 26.2053C30.3804 26.0317 30.649 25.8587 30.918 25.6864C31.0564 25.5977 31.1945 25.5089 31.3324 25.4195C31.4653 25.3333 31.5987 25.2476 31.7323 25.1624C31.7833 25.1298 31.8341 25.0969 31.8848 25.0639C31.9557 25.0176 32.0271 24.9722 32.0986 24.9269C32.1392 24.9008 32.1797 24.8747 32.2215 24.8478C32.3301 24.8 32.3301 24.8 32.4294 24.8186C32.5057 24.8638 32.5057 24.8638 32.5535 24.9497C32.5767 25.0407 32.5767 25.0407 32.555 25.1441C32.4654 25.2139 32.4654 25.2139 32.3408 25.2956C32.3179 25.3107 32.295 25.3258 32.2714 25.3414C32.1938 25.3925 32.116 25.4432 32.0381 25.4939C31.9822 25.5306 31.9263 25.5673 31.8704 25.6041C31.7162 25.7054 31.5617 25.8064 31.4071 25.9073C31.2408 26.016 31.0746 26.125 30.9085 26.2341C30.5826 26.4477 30.2566 26.6611 29.9304 26.8743C29.6655 27.0475 29.4006 27.2208 29.1357 27.3942C28.3855 27.8852 27.6352 28.376 26.8847 28.8664C26.8442 28.8929 26.8037 28.9194 26.7619 28.9466C26.7214 28.9731 26.6808 28.9996 26.6391 29.0269C25.9816 29.4565 25.3246 29.8868 24.6677 30.3173C23.994 30.7589 23.32 31.2 22.6457 31.6406C22.2668 31.8882 21.8881 32.136 21.5096 32.3842C21.1875 32.5956 20.865 32.8065 20.5422 33.0169C20.3774 33.1243 20.2127 33.2319 20.0484 33.3401C19.8981 33.439 19.7475 33.5373 19.5966 33.6352C19.5419 33.6708 19.4873 33.7066 19.4329 33.7427C19.3592 33.7915 19.2851 33.8394 19.2108 33.8872C19.1696 33.9142 19.1284 33.9411 19.086 33.9688C18.9772 34.0177 18.9772 34.0177 18.8777 33.9993C18.7773 33.9394 18.759 33.8888 18.7306 33.777C18.7619 33.6277 18.8397 33.604 18.9654 33.52C18.9877 33.505 19.0101 33.4899 19.0332 33.4743C19.1074 33.4245 19.1819 33.3751 19.2563 33.3256C19.3078 33.2912 19.3592 33.2567 19.4106 33.2222C19.546 33.1314 19.6817 33.0409 19.8175 32.9506C19.9559 32.8583 20.0941 32.7657 20.2323 32.6731C20.5036 32.4915 20.7752 32.3103 21.0469 32.1293C21.0163 32.1448 21.0163 32.1448 20.9851 32.1607C20.7719 32.269 20.5583 32.3765 20.3444 32.4837C20.2648 32.5237 20.1852 32.564 20.1058 32.6044C19.9912 32.6626 19.8764 32.7201 19.7614 32.7775C19.7087 32.8046 19.7087 32.8046 19.6548 32.8322C19.3969 32.9599 19.1574 33.0475 18.8721 32.9646C18.7057 32.9001 18.6574 32.8542 18.5595 32.7076C18.5358 32.6721 18.5121 32.6367 18.4876 32.6001C18.462 32.5615 18.4364 32.5229 18.4101 32.4831C18.3839 32.4435 18.3576 32.4039 18.3306 32.3632C18.2751 32.2792 18.2197 32.1951 18.1644 32.111C18.0937 32.0036 18.0223 31.8967 17.9507 31.7898C17.8824 31.6875 17.815 31.5847 17.7474 31.4819C17.7217 31.4437 17.6959 31.4055 17.6694 31.3662C17.5112 31.1227 17.4561 30.9934 17.5085 30.7072C17.5913 30.4485 17.7173 30.3707 17.9475 30.24ZM19.9218 29.9957C19.9093 30.0572 19.9093 30.0572 19.8966 30.1199C19.8875 30.1641 19.8784 30.2083 19.8691 30.2538C19.8598 30.3004 19.8505 30.3469 19.8409 30.3949C19.8313 30.4415 19.8218 30.4882 19.812 30.5364C19.7884 30.6521 19.765 30.7679 19.7418 30.8837C19.8592 30.9618 19.9663 30.9911 20.104 31.0189C20.1455 31.0274 20.1871 31.036 20.2299 31.0448C20.2731 31.0534 20.3163 31.062 20.3608 31.0708C20.4264 31.0842 20.4264 31.0842 20.4934 31.0979C20.6013 31.1198 20.7093 31.1416 20.8173 31.1631C20.8892 30.9269 20.9466 30.6914 20.9956 30.4495C21.0024 30.4164 21.0092 30.3834 21.0162 30.3493C21.0327 30.2689 21.0491 30.1885 21.0654 30.108C20.8305 30.037 20.5958 29.9777 20.3557 29.9273C20.3232 29.9201 20.2906 29.913 20.2571 29.9056C20.2107 29.8958 20.2107 29.8958 20.1633 29.8858C20.1353 29.8798 20.1074 29.8739 20.0787 29.8677C19.9642 29.8547 19.9513 29.8878 19.9218 29.9957ZM28.3401 24.4982C28.3267 24.563 28.3267 24.563 28.3131 24.6292C28.3034 24.6758 28.2937 24.7224 28.2837 24.7705C28.2735 24.8201 28.2634 24.8698 28.2532 24.9195C28.2429 24.9692 28.2326 25.019 28.2223 25.0687C28.197 25.191 28.1718 25.3132 28.1467 25.4355C28.374 25.5053 28.6015 25.5613 28.8345 25.6083C28.8804 25.6177 28.8804 25.6177 28.9272 25.6273C29.0015 25.6426 29.0758 25.6577 29.1501 25.6727C29.2255 25.5584 29.2559 25.4558 29.2829 25.3219C29.2909 25.2827 29.299 25.2435 29.3072 25.2031C29.3194 25.142 29.3194 25.142 29.3317 25.0796C29.3401 25.0383 29.3486 24.9971 29.3572 24.9545C29.3779 24.8527 29.3984 24.7508 29.4186 24.6489C29.3046 24.574 29.2021 24.5429 29.0689 24.5154C29.0103 24.5032 29.0103 24.5032 28.9505 24.4908C28.9099 24.4826 28.8693 24.4744 28.8275 24.466C28.7659 24.4532 28.7659 24.4532 28.7031 24.44C28.4641 24.3553 28.4641 24.3553 28.3401 24.4982ZM24.297 27.5423C24.2883 27.5854 24.2795 27.6285 24.2705 27.673C24.2609 27.7195 24.2513 27.7661 24.2415 27.814C24.2315 27.8635 24.2216 27.913 24.2117 27.9625C24.2016 28.0122 24.1914 28.0618 24.1812 28.1115C24.1563 28.2334 24.1317 28.3553 24.1072 28.4773C24.3434 28.5491 24.579 28.6065 24.8209 28.6555C24.8539 28.6623 24.887 28.6691 24.921 28.6761C25.0014 28.6926 25.0819 28.7091 25.1623 28.7254C25.2342 28.4892 25.2916 28.2536 25.3405 28.0117C25.3473 27.9787 25.3541 27.9456 25.3611 27.9116C25.3777 27.8312 25.3941 27.7507 25.4104 27.6703C25.2968 27.5957 25.1943 27.5641 25.0618 27.5361C25.0228 27.5278 24.9839 27.5196 24.9438 27.5111C24.9033 27.5029 24.8629 27.4946 24.8212 27.4861C24.7804 27.4773 24.7397 27.4686 24.6977 27.4596C24.6588 27.4515 24.62 27.4434 24.58 27.4351C24.5444 27.4277 24.5088 27.4203 24.4721 27.4127C24.344 27.3963 24.3306 27.4185 24.297 27.5423Z" fill="#DE7E29"/>
<path d="M17.4219 29.0488C17.4451 29.0357 17.4684 29.0225 17.4924 29.0089C17.7206 28.8797 17.9487 28.7503 18.1767 28.6207C18.2937 28.5542 18.4108 28.4878 18.5279 28.4216C20.0423 27.5648 21.5183 26.6548 22.9731 25.7003C23.1194 25.6043 23.266 25.5086 23.4127 25.4132C24.9023 24.4433 26.3599 23.4353 27.7785 22.3641C27.8621 22.3012 27.9458 22.2384 28.0294 22.1756C28.2272 22.027 28.4247 21.8782 28.622 21.7292C28.6597 21.7975 28.6974 21.8658 28.735 21.9341C28.756 21.9722 28.777 22.0102 28.7986 22.0494C28.8618 22.166 28.9191 22.2827 28.9735 22.4036C28.9904 22.4407 29.0072 22.4778 29.0246 22.516C29.0598 22.6039 29.0598 22.6039 29.0489 22.6556C29.0036 22.6942 28.9567 22.731 28.9093 22.7669C28.8635 22.8018 28.8635 22.8018 28.8168 22.8373C28.7831 22.8628 28.7494 22.8882 28.7147 22.9144C28.6798 22.9409 28.6449 22.9673 28.6089 22.9946C28.4938 23.0818 28.3786 23.1687 28.2634 23.2555C28.2242 23.2852 28.1849 23.3148 28.1445 23.3453C27.6394 23.7267 27.1323 24.1051 26.6189 24.4753C26.5951 24.4925 26.5713 24.5097 26.5468 24.5274C26.399 24.634 26.2506 24.7397 26.1017 24.8448C26.0378 24.89 25.9738 24.9353 25.91 24.9807C25.1392 25.5271 24.3517 26.047 23.5606 26.5633C23.5279 26.5847 23.4953 26.606 23.4616 26.628C21.9038 27.6454 20.3189 28.6013 18.6941 29.5078C18.658 29.528 18.6218 29.5483 18.5845 29.5691C18.4253 29.6576 18.2681 29.7432 18.0991 29.8117C18.0303 29.7395 17.9616 29.6672 17.8931 29.5948C17.874 29.5748 17.8549 29.5548 17.8353 29.5342C17.7293 29.422 17.6287 29.3074 17.5323 29.1868C17.5115 29.1609 17.4907 29.1349 17.4692 29.1082C17.4536 29.0886 17.438 29.069 17.4219 29.0488Z" fill="#F9E342"/>
<path d="M13.9015 19.4687C14.0975 19.4846 14.2599 19.5143 14.4176 19.6393C14.5662 19.8332 14.6999 20.0107 14.6918 20.2638C14.6719 20.3828 14.6719 20.3828 14.6484 20.4707C14.8032 20.5964 14.9778 20.6551 15.1625 20.7235C15.2325 20.7499 15.3026 20.7764 15.3726 20.8028C15.4084 20.8162 15.4442 20.8296 15.4811 20.8434C15.7432 20.9418 16.0043 21.0427 16.2655 21.1435C16.366 21.1822 16.4667 21.2203 16.5674 21.2585C16.633 21.2837 16.6987 21.309 16.7643 21.3342C16.7947 21.3456 16.825 21.357 16.8563 21.3687C16.8845 21.3797 16.9127 21.3906 16.9418 21.4019C16.9664 21.4113 16.9911 21.4207 17.0165 21.4304C17.1098 21.4803 17.1565 21.5162 17.2192 21.6034C17.2516 21.7177 17.2663 21.8333 17.2813 21.951C17.286 21.985 17.2907 22.0189 17.2955 22.0539C17.3054 22.1256 17.3149 22.1974 17.3242 22.2692C17.3384 22.3789 17.3537 22.4885 17.3692 22.598C17.3786 22.6678 17.3879 22.7375 17.3972 22.8073C17.4018 22.84 17.4064 22.8728 17.4111 22.9065C17.4472 23.194 17.4472 23.194 17.3692 23.3359C17.296 23.4117 17.296 23.4117 17.1815 23.4586C17.0477 23.4562 16.9193 23.4284 16.7881 23.4031C16.713 23.3906 16.638 23.378 16.5628 23.3658C16.463 23.3495 16.3633 23.333 16.2639 23.3142C16.1879 23.3016 16.1879 23.3016 16.1118 23.3108C16.007 23.3143 15.9429 23.3022 15.8461 23.2598C15.6939 23.1004 15.5801 22.9179 15.4615 22.7329C15.4261 22.6794 15.3906 22.6259 15.355 22.5725C15.2618 22.4321 15.17 22.2909 15.0783 22.1495C14.9845 22.0052 14.8895 21.8617 14.7946 21.7181C14.6087 21.4366 14.4241 21.1542 14.2405 20.8712C14.1931 20.8935 14.1931 20.8935 14.1447 20.9162C13.9635 20.9911 13.8198 20.9773 13.6343 20.9214C13.4159 20.7984 13.2955 20.6247 13.2157 20.3911C13.1787 20.1965 13.2046 19.9947 13.3036 19.8227C13.4504 19.6473 13.669 19.4905 13.9015 19.4687Z" fill="#DE7E29"/>
<path d="M21.9528 14.1897C22.15 14.1954 22.3332 14.2589 22.4797 14.3931C22.6385 14.5805 22.7116 14.7596 22.7021 15.0067C22.6734 15.1756 22.6124 15.3193 22.5011 15.4506C22.4701 15.4709 22.4392 15.4911 22.4073 15.512C22.4363 15.5552 22.4363 15.5552 22.4658 15.5993C22.648 15.8712 22.8293 16.1435 23.0099 16.4164C23.1027 16.5567 23.1958 16.6967 23.2896 16.8364C23.3802 16.9712 23.4699 17.1065 23.5591 17.2421C23.5933 17.2938 23.6277 17.3452 23.6624 17.3965C23.7111 17.4684 23.7587 17.5409 23.8061 17.6136C23.8279 17.6451 23.8279 17.6451 23.8501 17.6773C23.9267 17.7973 23.9414 17.8526 23.9235 17.9959C23.9113 18.0359 23.8991 18.0758 23.8865 18.117C23.879 18.1545 23.8714 18.192 23.8636 18.2307C23.8191 18.4504 23.7702 18.667 23.7062 18.8819C23.6858 18.9514 23.6692 19.0219 23.6534 19.0926C23.5829 19.2449 23.5093 19.2849 23.3569 19.3561C23.174 19.3157 23.0287 19.2258 22.8749 19.123C22.8514 19.1076 22.8279 19.0921 22.8037 19.0763C22.7543 19.0438 22.7051 19.0112 22.6559 18.9785C22.581 18.9287 22.5059 18.8793 22.4307 18.83C22.3825 18.7982 22.3344 18.7665 22.2863 18.7347C22.264 18.72 22.2418 18.7054 22.2189 18.6903C22.1579 18.6497 22.0976 18.6082 22.0372 18.5666C22.0018 18.5426 21.9665 18.5186 21.93 18.4938C21.852 18.4198 21.852 18.4198 21.832 18.3352C21.8335 18.3043 21.835 18.2735 21.8366 18.2417C21.8384 18.1895 21.8384 18.1895 21.8403 18.1363C21.8426 18.0992 21.8448 18.0621 21.8472 18.0239C21.8488 17.9854 21.8504 17.9468 21.8521 17.9072C21.8572 17.7912 21.8635 17.6754 21.8702 17.5596C21.8734 17.4983 21.8765 17.437 21.8795 17.3758C21.8853 17.2637 21.8916 17.1517 21.8981 17.0397C21.9238 16.5886 21.9405 16.1358 21.9392 15.6839C21.9172 15.6783 21.8953 15.6727 21.8726 15.6669C21.6033 15.5941 21.4464 15.5116 21.2976 15.2701C21.2106 15.0881 21.2009 14.9036 21.2523 14.7097C21.3838 14.394 21.6128 14.214 21.9528 14.1897Z" fill="#DE7E29"/>
<path d="M32.9062 24.4114C32.9339 24.3932 32.9615 24.375 32.9901 24.3562C33.0339 24.3281 33.0339 24.3281 33.0785 24.2994C33.1074 24.2802 33.1363 24.261 33.1661 24.2412C33.2078 24.2141 33.2078 24.2141 33.2503 24.1865C33.2758 24.1699 33.3014 24.1533 33.3277 24.1362C33.3965 24.1028 33.3965 24.1028 33.5 24.1245C33.5794 24.2288 33.5794 24.2288 33.6431 24.3435C33.6171 24.4677 33.5963 24.4747 33.494 24.542C33.4548 24.5678 33.4548 24.5678 33.4148 24.5942C33.3872 24.6118 33.3597 24.6295 33.3313 24.6477C33.3042 24.6658 33.277 24.6838 33.2491 24.7025C33.2228 24.7195 33.1965 24.7366 33.1694 24.7542C33.1454 24.7698 33.1213 24.7854 33.0965 24.8015C33.027 24.8354 33.027 24.8354 32.8922 24.8342C32.8109 24.731 32.8109 24.731 32.7491 24.6152C32.7757 24.4884 32.8011 24.4804 32.9062 24.4114Z" fill="#E30808"/>
<path d="M17.9651 34.1682C17.9975 34.1472 17.9975 34.1472 18.0306 34.1257C18.0519 34.1111 18.0731 34.0965 18.095 34.0815C18.1577 34.0404 18.1577 34.0404 18.2717 33.9822C18.3956 34.0351 18.3956 34.0351 18.4619 34.1536C18.4769 34.1936 18.4919 34.2335 18.5074 34.2746C18.4449 34.3818 18.3531 34.4277 18.2501 34.4957C18.1915 34.535 18.1915 34.535 18.1317 34.575C18.0273 34.633 18.0273 34.633 17.9238 34.6113C17.8445 34.5069 17.8445 34.5069 17.7807 34.3923C17.8076 34.2639 17.8595 34.2388 17.9651 34.1682Z" fill="#E30808"/>
<path d="M45.228 28.6158L42.5724 10.6804H45.9978L47.0755 18.0701C47.1268 18.4165 47.1781 18.7821 47.2294 19.167C47.2807 19.5391 47.3192 19.9945 47.3449 20.5333C47.64 19.9945 47.9094 19.5391 48.1531 19.167C48.4097 18.7821 48.6535 18.4165 48.8844 18.0701L54.1765 10.1031L55.5428 18.0701C55.607 18.4165 55.6775 18.7821 55.7545 19.167C55.8315 19.5391 55.8828 19.9945 55.9085 20.5333C56.2035 19.9945 56.4665 19.5391 56.6975 19.167C56.9284 18.7821 57.1529 18.4165 57.371 18.0701L62.105 10.6804H65.8191L54.2342 28.6158L52.7909 20.0715C52.7396 19.7251 52.6819 19.3594 52.6177 18.9746C52.5536 18.5897 52.5087 18.1278 52.483 17.589C52.188 18.1278 51.9121 18.5897 51.6555 18.9746C51.4118 19.3466 51.1744 19.7058 50.9435 20.0522L45.228 28.6158ZM63.5796 28L67.9095 10.6804H71.4889L67.159 28H63.5796ZM84.4503 28.5773L76.7527 17.6852L74.1933 28H70.9603L75.4249 10.1031L83.1225 20.9759L85.6819 10.6804H88.9149L84.4503 28.5773ZM90.8008 13.7979L91.5706 10.6804H103.617L102.848 13.7979H98.6139L95.0538 28H91.4744L95.0345 13.7979H90.8008ZM102.042 28L106.334 10.6804H111.26C112.21 10.6804 113.063 10.8921 113.82 11.3155C114.577 11.726 115.173 12.2905 115.609 13.0089C116.058 13.7274 116.283 14.5356 116.283 15.4337C116.283 16.1393 116.142 16.8257 115.86 17.4928C115.577 18.1471 115.186 18.7436 114.686 19.2825C114.198 19.8085 113.634 20.2511 112.992 20.6103L115.609 28H112.049L109.836 21.4186H107.027L105.391 28H102.042ZM107.739 18.532H109.971C110.51 18.532 111.004 18.4101 111.453 18.1663C111.902 17.9226 112.254 17.5954 112.511 17.1849C112.78 16.7743 112.915 16.3253 112.915 15.8378C112.915 15.222 112.697 14.7281 112.261 14.356C111.825 13.984 111.247 13.7979 110.529 13.7979H108.912L107.739 18.532ZM126.244 28.3464C124.717 28.3464 123.338 27.9936 122.107 27.288C120.888 26.5824 119.919 25.6266 119.201 24.4206C118.495 23.2147 118.142 21.8676 118.142 20.3794C118.142 19.058 118.418 17.8007 118.97 16.6076C119.522 15.4016 120.272 14.3303 121.221 13.3938C122.171 12.4444 123.255 11.7003 124.474 11.1615C125.692 10.6098 126.975 10.334 128.322 10.334C129.862 10.334 131.241 10.6868 132.46 11.3924C133.679 12.098 134.641 13.0538 135.346 14.2598C136.065 15.4657 136.424 16.8192 136.424 18.3203C136.424 19.6289 136.148 20.8861 135.597 22.0921C135.058 23.298 134.307 24.3693 133.345 25.3058C132.396 26.2424 131.312 26.9865 130.093 27.5381C128.874 28.077 127.591 28.3464 126.244 28.3464ZM126.629 24.9979C127.437 24.9979 128.207 24.8247 128.938 24.4783C129.682 24.132 130.343 23.6573 130.92 23.0543C131.498 22.4513 131.947 21.7649 132.267 20.9952C132.601 20.2254 132.768 19.4236 132.768 18.5897C132.768 17.6531 132.556 16.8192 132.133 16.088C131.722 15.3439 131.151 14.7601 130.42 14.3368C129.702 13.9006 128.881 13.6825 127.957 13.6825C127.149 13.6825 126.372 13.8557 125.628 14.2021C124.884 14.5484 124.223 15.0231 123.646 15.6261C123.082 16.2163 122.633 16.8962 122.299 17.666C121.965 18.4229 121.799 19.2183 121.799 20.0522C121.799 20.9759 122.01 21.8163 122.434 22.5732C122.857 23.3173 123.434 23.9074 124.166 24.3436C124.897 24.7798 125.718 24.9979 126.629 24.9979ZM150.671 28.5773L142.973 17.6852L140.414 28H137.181L141.645 10.1031L149.343 20.9759L151.902 10.6804H155.135L150.671 28.5773Z" fill="url(#paint0_linear_1442_11)"/>
<path d="M44.3852 40.793V35.9768H45.5785C45.896 35.9768 46.1636 36.025 46.3812 36.1213C46.6024 36.2176 46.7808 36.3443 46.9164 36.5012C47.0519 36.6546 47.15 36.8223 47.2107 37.0043C47.2749 37.1862 47.307 37.3646 47.307 37.5394C47.307 37.7106 47.2767 37.8872 47.216 38.0692C47.1554 38.2511 47.0573 38.4206 46.9217 38.5775C46.7861 38.7345 46.6078 38.8612 46.3866 38.9575C46.1654 39.0538 45.896 39.102 45.5785 39.102H44.9952V40.793H44.3852ZM44.9952 38.5561H45.5464C45.8354 38.5561 46.0637 38.5062 46.2314 38.4063C46.3991 38.3028 46.5186 38.1744 46.5899 38.021C46.6613 37.864 46.697 37.7035 46.697 37.5394C46.697 37.3824 46.6613 37.2254 46.5899 37.0685C46.5221 36.9115 46.4044 36.7813 46.2367 36.6778C46.0726 36.5744 45.8425 36.5226 45.5464 36.5226H44.9952V38.5561ZM49.927 40.793V35.6557H50.5049V40.793H49.927ZM54.7545 40.8358C54.462 40.8358 54.1944 40.7626 53.9519 40.6164C53.7093 40.4665 53.5148 40.2668 53.3686 40.017C53.2259 39.7673 53.1545 39.4908 53.1545 39.1876C53.1545 38.8843 53.2259 38.6079 53.3686 38.3581C53.5148 38.1084 53.7093 37.9104 53.9519 37.7641C54.1944 37.6143 54.462 37.5394 54.7545 37.5394C54.9757 37.5394 55.1827 37.5804 55.3753 37.6625C55.5715 37.7445 55.741 37.8587 55.8837 38.0049V37.5822H56.4188V40.793H55.8837V40.3702C55.741 40.5129 55.5715 40.6271 55.3753 40.7127C55.1827 40.7948 54.9757 40.8358 54.7545 40.8358ZM54.8295 40.3114C55.0328 40.3114 55.2165 40.2614 55.3806 40.1615C55.5483 40.0581 55.6803 39.9225 55.7766 39.7548C55.8765 39.5836 55.9265 39.3945 55.9265 39.1876C55.9265 38.9807 55.8765 38.7934 55.7766 38.6257C55.6803 38.4545 55.5483 38.3189 55.3806 38.219C55.2165 38.1155 55.0328 38.0638 54.8295 38.0638C54.6261 38.0638 54.4406 38.1155 54.2729 38.219C54.1088 38.3189 53.9768 38.4545 53.8769 38.6257C53.7806 38.7934 53.7325 38.9807 53.7325 39.1876C53.7325 39.3945 53.7806 39.5836 53.8769 39.7548C53.9768 39.9225 54.1088 40.0581 54.2729 40.1615C54.4406 40.2614 54.6261 40.3114 54.8295 40.3114ZM59.1585 42.3984L60.202 40.3221L58.8428 37.5822H59.4957L60.1806 38.9735C60.2413 39.0984 60.3001 39.2215 60.3572 39.3428C60.4143 39.4641 60.4714 39.6103 60.5285 39.7816C60.5891 39.6103 60.6462 39.4641 60.6997 39.3428C60.7568 39.2179 60.8174 39.0948 60.8816 38.9735L61.5773 37.5822H62.1927L59.7846 42.3984H59.1585ZM70.3878 40.8893C70.0381 40.8893 69.7117 40.8251 69.4085 40.6966C69.1052 40.5646 68.8377 40.3845 68.6058 40.1562C68.3775 39.9243 68.1991 39.6585 68.0707 39.3588C67.9422 39.0556 67.878 38.7309 67.878 38.3849C67.878 38.0388 67.9422 37.716 68.0707 37.4163C68.2027 37.1131 68.3828 36.8473 68.6111 36.619C68.843 36.3871 69.1106 36.2069 69.4138 36.0785C69.7171 35.9465 70.0435 35.8805 70.3931 35.8805C70.7356 35.8805 71.0567 35.9447 71.3563 36.0731C71.656 36.198 71.92 36.371 72.1483 36.5922L71.9717 37.3307C71.8076 37.0667 71.5864 36.8562 71.3082 36.6992C71.0335 36.5387 70.7285 36.4584 70.3931 36.4584C70.0399 36.4584 69.7206 36.5458 69.4352 36.7206C69.1534 36.8919 68.9286 37.1238 68.761 37.4163C68.5933 37.7053 68.5095 38.0281 68.5095 38.3849C68.5095 38.7345 68.5915 39.0556 68.7556 39.3481C68.9233 39.6407 69.148 39.8743 69.4299 40.0491C69.7153 40.2239 70.0346 40.3114 70.3878 40.3114C70.5875 40.3114 70.7766 40.2882 70.955 40.2418C71.1369 40.1918 71.3028 40.1223 71.4527 40.0331V38.7702H70.1255V38.2244H72.0413V40.3435C71.8237 40.5254 71.5704 40.6628 71.2814 40.7555C70.996 40.8447 70.6981 40.8893 70.3878 40.8893ZM76.3222 40.8358C76.0297 40.8358 75.7621 40.7626 75.5195 40.6164C75.2769 40.4665 75.0825 40.2668 74.9362 40.017C74.7935 39.7673 74.7222 39.4908 74.7222 39.1876C74.7222 38.8843 74.7935 38.6079 74.9362 38.3581C75.0825 38.1084 75.2769 37.9104 75.5195 37.7641C75.7621 37.6143 76.0297 37.5394 76.3222 37.5394C76.5434 37.5394 76.7503 37.5804 76.9429 37.6625C77.1392 37.7445 77.3086 37.8587 77.4513 38.0049V37.5822H77.9864V40.793H77.4513V40.3702C77.3086 40.5129 77.1392 40.6271 76.9429 40.7127C76.7503 40.7948 76.5434 40.8358 76.3222 40.8358ZM76.3971 40.3114C76.6005 40.3114 76.7842 40.2614 76.9483 40.1615C77.116 40.0581 77.248 39.9225 77.3443 39.7548C77.4442 39.5836 77.4941 39.3945 77.4941 39.1876C77.4941 38.9807 77.4442 38.7934 77.3443 38.6257C77.248 38.4545 77.116 38.3189 76.9483 38.219C76.7842 38.1155 76.6005 38.0638 76.3971 38.0638C76.1938 38.0638 76.0083 38.1155 75.8406 38.219C75.6765 38.3189 75.5445 38.4545 75.4446 38.6257C75.3483 38.7934 75.3001 38.9807 75.3001 39.1876C75.3001 39.3945 75.3483 39.5836 75.4446 39.7548C75.5445 39.9225 75.6765 40.0581 75.8406 40.1615C76.0083 40.2614 76.1938 40.3114 76.3971 40.3114ZM80.86 40.793V37.5822H81.3951V38.0424C81.5128 37.8676 81.6609 37.7374 81.8392 37.6518C82.0212 37.5626 82.212 37.518 82.4118 37.518C82.6294 37.518 82.8292 37.5697 83.0112 37.6732C83.1931 37.7731 83.3394 37.914 83.45 38.0959C83.5748 37.9033 83.7354 37.7588 83.9316 37.6625C84.1314 37.5661 84.3419 37.518 84.563 37.518C84.8056 37.518 85.0268 37.5751 85.2266 37.6892C85.4299 37.8034 85.5905 37.9639 85.7082 38.1708C85.8295 38.3742 85.8902 38.615 85.8902 38.8933V40.793H85.3122V38.9628C85.3122 38.6703 85.2284 38.4491 85.0607 38.2993C84.8966 38.1459 84.7057 38.0692 84.4881 38.0692C84.3526 38.0692 84.2206 38.0995 84.0921 38.1601C83.9673 38.2208 83.8638 38.3153 83.7818 38.4438C83.7033 38.5722 83.664 38.7399 83.664 38.9468V40.793H83.0861V38.9628C83.0861 38.7595 83.0451 38.5918 82.963 38.4598C82.8845 38.3278 82.7811 38.2297 82.6526 38.1655C82.5278 38.0977 82.3976 38.0638 82.262 38.0638C82.13 38.0638 81.9998 38.0941 81.8713 38.1548C81.7465 38.2154 81.643 38.31 81.561 38.4384C81.4789 38.5668 81.4379 38.7363 81.4379 38.9468V40.793H80.86ZM90.2299 40.8572C89.8946 40.8572 89.5931 40.7823 89.3256 40.6324C89.0616 40.4826 88.8529 40.2792 88.6995 40.0224C88.5496 39.762 88.4747 39.473 88.4747 39.1555C88.4747 38.8522 88.5478 38.5775 88.6941 38.3314C88.8404 38.0817 89.0366 37.8837 89.2827 37.7374C89.5325 37.5911 89.8072 37.518 90.1068 37.518C90.4029 37.518 90.6741 37.5893 90.9202 37.732C91.1664 37.8712 91.3626 38.0602 91.5089 38.2993C91.6551 38.5383 91.7283 38.8094 91.7283 39.1127V39.3481H89.6306C89.5378 39.3481 89.4433 39.3446 89.347 39.3374C89.2506 39.3303 89.1561 39.3196 89.0633 39.3053C89.1026 39.5907 89.231 39.8297 89.4486 40.0224C89.6698 40.215 89.932 40.3114 90.2353 40.3114C90.4386 40.3114 90.6277 40.265 90.8025 40.1722C90.9773 40.0795 91.1182 39.9564 91.2253 39.803L91.3858 40.4612C91.2324 40.5861 91.0558 40.6842 90.856 40.7555C90.6598 40.8233 90.4511 40.8572 90.2299 40.8572ZM89.0473 38.9147C89.2399 38.8826 89.4344 38.8665 89.6306 38.8665H90.6955C90.774 38.8665 90.8507 38.8701 90.9256 38.8772C91.0041 38.8808 91.0826 38.8861 91.161 38.8933C91.1111 38.6435 90.9862 38.4384 90.7865 38.2779C90.5867 38.1138 90.3601 38.0317 90.1068 38.0317C89.8464 38.0317 89.6181 38.1191 89.4219 38.2939C89.2257 38.4652 89.1008 38.6721 89.0473 38.9147ZM95.1786 40.8572C95.0144 40.8572 94.8379 40.8269 94.6488 40.7662C94.4633 40.702 94.3027 40.5968 94.1672 40.4505L94.3277 39.819C94.4276 39.9867 94.556 40.1205 94.713 40.2204C94.87 40.3167 95.0376 40.3649 95.216 40.3649C95.3873 40.3649 95.5157 40.3238 95.6013 40.2418C95.6869 40.1562 95.7297 40.0527 95.7297 39.9314C95.7297 39.7923 95.6834 39.6906 95.5906 39.6264C95.5014 39.5622 95.4211 39.5176 95.3498 39.4926L94.9163 39.3267C94.8379 39.2946 94.7433 39.2482 94.6327 39.1876C94.5221 39.1234 94.4258 39.0324 94.3438 38.9147C94.2617 38.7969 94.2207 38.6435 94.2207 38.4545C94.2207 38.2832 94.2617 38.1262 94.3438 37.9835C94.4258 37.8408 94.5418 37.7285 94.6916 37.6464C94.8414 37.5608 95.018 37.518 95.2214 37.518C95.3819 37.518 95.5496 37.5465 95.7244 37.6036C95.8992 37.6607 96.0472 37.757 96.1685 37.8926L96.008 38.524C95.9224 38.3671 95.8064 38.2422 95.6602 38.1494C95.5139 38.0567 95.3623 38.0103 95.2053 38.0103C95.059 38.0103 94.9431 38.0513 94.8575 38.1334C94.7754 38.2154 94.7344 38.31 94.7344 38.417C94.7344 38.5026 94.7629 38.5793 94.82 38.6471C94.8771 38.7149 94.9627 38.7702 95.0769 38.813L95.5103 38.9789C95.5888 39.0074 95.6851 39.0538 95.7993 39.118C95.917 39.1822 96.0205 39.275 96.1097 39.3963C96.1989 39.5176 96.2435 39.6817 96.2435 39.8886C96.2435 40.1776 96.1418 40.4112 95.9384 40.5896C95.7387 40.768 95.4854 40.8572 95.1786 40.8572ZM102.543 40.793V35.9768H104.919V36.5226H103.153V37.5501H104.544V38.0959H103.153V40.2471H104.919V40.793H102.543ZM108.82 40.8358C108.528 40.8358 108.26 40.7626 108.018 40.6164C107.775 40.4665 107.581 40.2668 107.434 40.017C107.292 39.7673 107.22 39.4908 107.22 39.1876C107.22 38.8843 107.292 38.6079 107.434 38.3581C107.581 38.1084 107.775 37.9104 108.018 37.7641C108.26 37.6143 108.528 37.5394 108.82 37.5394C109.042 37.5394 109.249 37.5804 109.441 37.6625C109.637 37.7445 109.807 37.8587 109.95 38.0049V37.5822H110.485V40.793H109.95V40.3702C109.807 40.5129 109.637 40.6271 109.441 40.7127C109.249 40.7948 109.042 40.8358 108.82 40.8358ZM108.895 40.3114C109.099 40.3114 109.282 40.2614 109.447 40.1615C109.614 40.0581 109.746 39.9225 109.843 39.7548C109.942 39.5836 109.992 39.3945 109.992 39.1876C109.992 38.9807 109.942 38.7934 109.843 38.6257C109.746 38.4545 109.614 38.3189 109.447 38.219C109.282 38.1155 109.099 38.0638 108.895 38.0638C108.692 38.0638 108.506 38.1155 108.339 38.219C108.175 38.3189 108.043 38.4545 107.943 38.6257C107.846 38.7934 107.798 38.9807 107.798 39.1876C107.798 39.3945 107.846 39.5836 107.943 39.7548C108.043 39.9225 108.175 40.0581 108.339 40.1615C108.506 40.2614 108.692 40.3114 108.895 40.3114ZM113.358 40.793V37.5822H113.893V38.1708C114.007 37.9818 114.159 37.8319 114.348 37.7213C114.537 37.6072 114.762 37.5501 115.022 37.5501L115.167 38.128C115.099 38.1066 115.021 38.0959 114.931 38.0959C114.632 38.0959 114.391 38.1922 114.209 38.3849C114.027 38.574 113.936 38.8451 113.936 39.1983V40.793H113.358ZM117.616 40.793V37.5822H118.151V38.1013C118.269 37.9122 118.42 37.7677 118.606 37.6678C118.795 37.5679 118.998 37.518 119.216 37.518C119.444 37.518 119.654 37.5751 119.847 37.6892C120.043 37.7998 120.202 37.9621 120.323 38.1762C120.445 38.3867 120.505 38.6435 120.505 38.9468V40.793H119.927V39.027C119.927 38.7738 119.851 38.5508 119.697 38.3581C119.547 38.1619 119.335 38.0638 119.06 38.0638C118.836 38.0638 118.634 38.1459 118.456 38.31C118.281 38.4705 118.194 38.7042 118.194 39.011V40.793H117.616ZM129.093 40.8893C128.747 40.8893 128.42 40.8251 128.113 40.6966C127.81 40.5646 127.543 40.3845 127.311 40.1562C127.082 39.9278 126.902 39.6621 126.77 39.3588C126.642 39.0556 126.578 38.7309 126.578 38.3849C126.578 38.0388 126.642 37.7142 126.77 37.411C126.902 37.1077 127.082 36.8419 127.311 36.6136C127.543 36.3853 127.81 36.2069 128.113 36.0785C128.42 35.9465 128.747 35.8805 129.093 35.8805C129.435 35.8805 129.756 35.9447 130.056 36.0731C130.356 36.198 130.62 36.371 130.848 36.5922L130.671 37.3307C130.507 37.0667 130.286 36.8562 130.008 36.6992C129.733 36.5387 129.428 36.4584 129.093 36.4584C128.74 36.4584 128.42 36.5458 128.135 36.7206C127.853 36.8919 127.628 37.1238 127.461 37.4163C127.293 37.7053 127.209 38.0281 127.209 38.3849C127.209 38.7381 127.293 39.0609 127.461 39.3535C127.628 39.646 127.853 39.8797 128.135 40.0545C128.42 40.2257 128.74 40.3114 129.093 40.3114C129.432 40.3114 129.738 40.2311 130.013 40.0705C130.288 39.91 130.507 39.6995 130.671 39.4391L130.848 40.1776C130.62 40.3952 130.356 40.5682 130.056 40.6966C129.756 40.8251 129.435 40.8893 129.093 40.8893ZM133.436 40.793V37.5822H133.971V38.1708C134.085 37.9818 134.237 37.8319 134.426 37.7213C134.615 37.6072 134.84 37.5501 135.1 37.5501L135.245 38.128C135.177 38.1066 135.098 38.0959 135.009 38.0959C134.709 38.0959 134.469 38.1922 134.287 38.3849C134.105 38.574 134.014 38.8451 134.014 39.1983V40.793H133.436ZM137.56 42.3984L138.603 40.3221L137.244 37.5822H137.897L138.582 38.9735C138.642 39.0984 138.701 39.2215 138.758 39.3428C138.815 39.4641 138.872 39.6103 138.929 39.7816C138.99 39.6103 139.047 39.4641 139.101 39.3428C139.158 39.2179 139.218 39.0948 139.283 38.9735L139.978 37.5822H140.594L138.186 42.3984H137.56ZM143.019 42.3984V37.5822H143.554V38.0049C143.701 37.8587 143.87 37.7445 144.063 37.6625C144.256 37.5804 144.462 37.5394 144.684 37.5394C144.98 37.5394 145.247 37.6143 145.486 37.7641C145.729 37.9104 145.922 38.1084 146.064 38.3581C146.211 38.6079 146.284 38.8843 146.284 39.1876C146.284 39.4908 146.211 39.7673 146.064 40.017C145.922 40.2668 145.729 40.4665 145.486 40.6164C145.247 40.7626 144.98 40.8358 144.684 40.8358C144.473 40.8358 144.275 40.7983 144.09 40.7234C143.904 40.6485 143.74 40.545 143.597 40.413V42.3984H143.019ZM144.609 40.3114C144.812 40.3114 144.996 40.2614 145.16 40.1615C145.328 40.0581 145.46 39.9225 145.556 39.7548C145.656 39.5836 145.706 39.3945 145.706 39.1876C145.706 38.9807 145.656 38.7934 145.556 38.6257C145.46 38.4545 145.328 38.3189 145.16 38.219C144.996 38.1155 144.812 38.0638 144.609 38.0638C144.405 38.0638 144.22 38.1155 144.052 38.219C143.888 38.3189 143.756 38.4545 143.656 38.6257C143.56 38.7934 143.512 38.9807 143.512 39.1876C143.512 39.3945 143.56 39.5836 143.656 39.7548C143.756 39.9225 143.888 40.0581 144.052 40.1615C144.22 40.2614 144.405 40.3114 144.609 40.3114ZM149.149 40.793V38.0638H148.421V37.5822H149.165V36.5119H149.711V37.5822H150.508V38.0638H149.727V40.793H149.149ZM154.34 40.8572C154.03 40.8572 153.746 40.7823 153.489 40.6324C153.232 40.4826 153.027 40.281 152.874 40.0277C152.724 39.7744 152.649 39.4944 152.649 39.1876C152.649 38.8772 152.724 38.5972 152.874 38.3474C153.027 38.0941 153.232 37.8926 153.489 37.7427C153.746 37.5929 154.03 37.518 154.34 37.518C154.654 37.518 154.938 37.5929 155.191 37.7427C155.448 37.8926 155.651 38.0941 155.801 38.3474C155.954 38.5972 156.031 38.8772 156.031 39.1876C156.031 39.4944 155.954 39.7744 155.801 40.0277C155.651 40.281 155.448 40.4826 155.191 40.6324C154.938 40.7823 154.654 40.8572 154.34 40.8572ZM154.34 40.3114C154.547 40.3114 154.734 40.2614 154.902 40.1615C155.07 40.0581 155.203 39.9225 155.303 39.7548C155.403 39.5836 155.453 39.3945 155.453 39.1876C155.453 38.9807 155.403 38.7934 155.303 38.6257C155.203 38.4545 155.07 38.3189 154.902 38.219C154.734 38.1155 154.547 38.0638 154.34 38.0638C154.133 38.0638 153.946 38.1155 153.778 38.219C153.611 38.3189 153.477 38.4545 153.377 38.6257C153.277 38.7934 153.227 38.9807 153.227 39.1876C153.227 39.3945 153.277 39.5836 153.377 39.7548C153.477 39.9225 153.611 40.0581 153.778 40.1615C153.946 40.2614 154.133 40.3114 154.34 40.3114Z" fill="white"/>
<rect x="43.5781" y="29.0977" width="95.7427" height="3.1868" fill="#DE7E29"/>
<path d="M132.1 19.0908L124.628 22.9008L128.23 19.0815L124.647 15.2425L132.1 19.0908Z" fill="url(#paint1_linear_1442_11)"/>
<defs>
<linearGradient id="paint0_linear_1442_11" x1="97.972" y1="0" x2="98.0482" y2="27.7113" gradientUnits="userSpaceOnUse">
<stop offset="0.427885" stop-color="#CAA12D"/>
<stop offset="0.696789" stop-color="#FAE443"/>
<stop offset="0.918269" stop-color="#DE7E29"/>
</linearGradient>
<linearGradient id="paint1_linear_1442_11" x1="128.378" y1="15.2521" x2="128.359" y2="22.9104" gradientUnits="userSpaceOnUse">
<stop stop-color="#CAA12D"/>
<stop offset="0.466531" stop-color="#F9E243"/>
<stop offset="1" stop-color="#DD7D28"/>
</linearGradient>
</defs>
</svg>
