<svg width="259" height="76" viewBox="0 0 259 76" fill="none" xmlns="http://www.w3.org/2000/svg">
<rect x="226.898" y="44.4082" width="5.31682" height="7.8099" transform="rotate(13.342 226.898 44.4082)" fill="#DE7E29"/>
<circle cx="36.0375" cy="40.0629" r="30.3846" stroke="#F9E342" stroke-width="2.19648"/>
<circle cx="36.0285" cy="40.0637" r="27.456" stroke="black" stroke-width="3.6608" stroke-dasharray="7.32 7.32"/>
<circle cx="36.0215" cy="40.0591" r="27.456" transform="rotate(15.1988 36.0215 40.0591)" stroke="#E30808" stroke-width="3.6608" stroke-dasharray="7.32 7.32"/>
<path d="M36.0397 11.3213L35.9761 13.7584L35.681 13.7507L35.7365 11.623L35.7222 11.6226L35.1169 12.0022L35.1248 11.7023L35.7446 11.3136L36.0397 11.3213Z" fill="#FEFEFE"/>
<path d="M43.4106 12.2522C43.5058 12.2827 43.5956 12.3306 43.68 12.396C43.7643 12.4613 43.833 12.5476 43.8861 12.6547C43.9394 12.7611 43.9678 12.8926 43.9714 13.0492C43.975 13.2057 43.9435 13.3908 43.8769 13.6045C43.8125 13.8113 43.7355 13.9889 43.6461 14.1373C43.5576 14.2851 43.4595 14.4025 43.3518 14.4894C43.2448 14.5766 43.1302 14.6324 43.0079 14.6566C42.8864 14.6811 42.7601 14.6729 42.629 14.632C42.4987 14.5914 42.3904 14.5294 42.3042 14.446C42.219 14.3621 42.1582 14.2638 42.1218 14.151C42.0865 14.0378 42.0788 13.9169 42.0989 13.7885L42.3762 13.875C42.3679 13.9896 42.39 14.0933 42.4426 14.1862C42.4961 14.2785 42.5842 14.3438 42.7069 14.382C42.8865 14.438 43.0526 14.4037 43.2053 14.2792C43.3587 14.155 43.4801 13.9496 43.5693 13.6632L43.5512 13.6576C43.4889 13.708 43.4214 13.7472 43.3486 13.7753C43.2759 13.8033 43.2 13.8187 43.121 13.8215C43.042 13.8243 42.9623 13.8132 42.882 13.7882C42.7487 13.7466 42.6366 13.6756 42.5457 13.5749C42.4559 13.4738 42.3957 13.3549 42.3652 13.2182C42.3356 13.0809 42.3442 12.9373 42.391 12.7873C42.4353 12.6449 42.5078 12.5245 42.6083 12.4261C42.7097 12.3272 42.8294 12.2606 42.9673 12.2263C43.1059 12.1922 43.2537 12.2008 43.4106 12.2522ZM43.3327 12.5022C43.2372 12.4725 43.1438 12.4695 43.0524 12.4934C42.9619 12.5168 42.8819 12.5617 42.8122 12.628C42.7434 12.6939 42.6939 12.7753 42.6637 12.8723C42.6335 12.9693 42.6272 13.0642 42.6448 13.1569C42.6635 13.2492 42.7026 13.3304 42.7622 13.4005C42.8228 13.4701 42.9008 13.5198 42.9963 13.5495C43.0683 13.5719 43.1397 13.5788 43.2106 13.5701C43.2817 13.5607 43.348 13.5386 43.4096 13.5037C43.4721 13.4684 43.5265 13.4234 43.5726 13.3687C43.6189 13.3134 43.6529 13.2512 43.6743 13.1823C43.7027 13.0913 43.7073 12.9992 43.6881 12.906C43.6697 12.813 43.6299 12.7299 43.5688 12.6568C43.5083 12.584 43.4296 12.5324 43.3327 12.5022Z" fill="#FEFEFE"/>
<path d="M49.655 17.6395C49.5246 17.5519 49.4233 17.4514 49.3513 17.338C49.28 17.2251 49.2411 17.1086 49.2347 16.9886C49.2294 16.8684 49.2597 16.7535 49.3257 16.6439L49.5747 16.8112C49.5362 16.88 49.5207 16.9513 49.5284 17.0253C49.5365 17.0986 49.5639 17.1696 49.6105 17.2382C49.6572 17.3068 49.7194 17.3673 49.7971 17.4195C49.8841 17.4779 49.9713 17.5145 50.0589 17.5293C50.1464 17.5442 50.2274 17.5374 50.3019 17.5091C50.3764 17.4807 50.4376 17.431 50.4854 17.3598C50.5354 17.2854 50.5609 17.2074 50.5621 17.126C50.5637 17.0439 50.5398 16.9628 50.4903 16.8827C50.4409 16.8027 50.3647 16.7281 50.262 16.6591L50.0999 16.5502L50.246 16.3328L50.408 16.4417C50.4884 16.4957 50.5686 16.5285 50.6487 16.5403C50.7294 16.5524 50.8046 16.5437 50.8743 16.514C50.9446 16.4847 51.0036 16.4345 51.0514 16.3634C51.0975 16.2949 51.1224 16.2251 51.1261 16.154C51.1299 16.0829 51.1136 16.0146 51.0773 15.9491C51.0417 15.8841 50.9866 15.8265 50.9122 15.7765C50.8423 15.7296 50.7678 15.6982 50.6887 15.6823C50.6106 15.6662 50.536 15.6691 50.4648 15.6911C50.3941 15.7124 50.3345 15.7556 50.286 15.8206L50.0489 15.6613C50.1241 15.5579 50.2184 15.4864 50.3319 15.447C50.4459 15.4069 50.5663 15.397 50.6932 15.4172C50.8208 15.4379 50.9429 15.4874 51.0595 15.5657C51.1847 15.6498 51.275 15.7473 51.3305 15.8582C51.3865 15.9685 51.4109 16.0809 51.4036 16.1956C51.3964 16.3102 51.3607 16.4153 51.2966 16.5108C51.22 16.6248 51.1248 16.7018 51.0108 16.7419C50.8975 16.7825 50.7795 16.7839 50.6565 16.7463L50.6459 16.7621C50.7596 16.869 50.8229 16.9904 50.8358 17.1263C50.8492 17.2615 50.8128 17.3933 50.7265 17.5218C50.6526 17.6318 50.5562 17.7105 50.4374 17.7578C50.3197 17.8049 50.1927 17.819 50.0563 17.8001C49.9199 17.7811 49.7861 17.7276 49.655 17.6395Z" fill="#FEFEFE"/>
<path d="M54.4957 21.7448C54.3914 21.6189 54.3215 21.4892 54.2861 21.3557C54.2518 21.2223 54.2518 21.0961 54.2861 20.977C54.3209 20.8574 54.3893 20.7558 54.4913 20.6724C54.5702 20.606 54.6564 20.5608 54.75 20.5368C54.8441 20.5124 54.9366 20.5089 55.0274 20.5265C55.1193 20.5441 55.1997 20.5821 55.2687 20.6404L55.2797 20.6312C55.2285 20.5222 55.2196 20.4089 55.2532 20.2914C55.2873 20.1735 55.3544 20.0735 55.4546 19.9916C55.5494 19.912 55.6546 19.8655 55.7703 19.8521C55.886 19.8387 56.0009 19.8567 56.1152 19.9063C56.23 19.9565 56.333 20.0366 56.4241 20.1466C56.5142 20.2554 56.5731 20.3705 56.6006 20.492C56.6281 20.6135 56.6245 20.7299 56.5899 20.841C56.5557 20.9528 56.4913 21.0485 56.3965 21.1281C56.2963 21.21 56.1849 21.2565 56.0621 21.2676C55.9405 21.2787 55.8316 21.2499 55.7354 21.1812L55.7244 21.1903C55.7684 21.2683 55.79 21.3534 55.7893 21.4458C55.7891 21.5376 55.7686 21.6279 55.7276 21.7164C55.6872 21.8045 55.6276 21.8818 55.5486 21.9482C55.4467 22.0317 55.3335 22.0791 55.209 22.0906C55.0856 22.1021 54.9615 22.0787 54.8368 22.0202C54.7132 21.9619 54.5995 21.8701 54.4957 21.7448ZM54.6973 21.5777C54.7677 21.6626 54.8422 21.7246 54.9209 21.7635C54.9995 21.8024 55.0778 21.8179 55.1558 21.81C55.2337 21.8021 55.3066 21.7706 55.3743 21.7155C55.4447 21.6561 55.4921 21.5859 55.5166 21.5048C55.5411 21.4237 55.5431 21.339 55.5226 21.2509C55.5026 21.1633 55.4597 21.0798 55.3939 21.0004C55.3276 20.9204 55.2527 20.8618 55.1694 20.8247C55.0866 20.7882 55.0031 20.7744 54.9188 20.7834C54.835 20.7931 54.758 20.8276 54.6876 20.8869C54.6199 20.942 54.5746 21.0068 54.5519 21.0813C54.5296 21.1565 54.5306 21.2366 54.5547 21.3217C54.5789 21.4068 54.6264 21.4922 54.6973 21.5777ZM55.5882 20.8394C55.6439 20.9066 55.7067 20.955 55.7767 20.9847C55.8471 21.0149 55.9189 21.025 55.9919 21.015C56.065 21.0049 56.1342 20.9734 56.1995 20.9203C56.2625 20.867 56.3054 20.8062 56.3282 20.7379C56.3515 20.6691 56.3545 20.598 56.3371 20.5248C56.3204 20.4511 56.2834 20.3797 56.2261 20.3107C56.1679 20.2404 56.1039 20.1899 56.034 20.1591C55.9648 20.1278 55.8945 20.1176 55.823 20.1284C55.7522 20.1386 55.6852 20.1704 55.6222 20.2237C55.5569 20.2768 55.5123 20.338 55.4883 20.4073C55.4649 20.4773 55.4615 20.5496 55.4781 20.6245C55.4948 20.6993 55.5315 20.7709 55.5882 20.8394Z" fill="#FEFEFE"/>
<path d="M58.3582 26.9323L60.7705 27.0819L60.788 27.0744L60.2914 25.9195L60.532 25.8161L61.149 27.2509L60.8953 27.36L58.4805 27.2166L58.3582 26.9323Z" fill="#FEFEFE"/>
<path d="M61.0961 32.5463L61.3031 32.491L62.3616 33.0416C62.4856 33.1062 62.5923 33.1583 62.6817 33.1977C62.7718 33.2369 62.8532 33.262 62.926 33.273C62.9997 33.2845 63.0726 33.2807 63.1447 33.2614C63.2275 33.2394 63.2939 33.2003 63.3438 33.1443C63.394 33.089 63.4264 33.0228 63.4412 32.9458C63.456 32.8688 63.452 32.7877 63.4293 32.7026C63.4052 32.6121 63.3653 32.5381 63.3097 32.4807C63.2551 32.4238 63.1896 32.3858 63.1131 32.3668C63.0367 32.3486 62.9537 32.3514 62.864 32.3753L62.7916 32.1039C62.9296 32.0671 63.0593 32.0666 63.1805 32.1024C63.3018 32.1382 63.4062 32.2032 63.4937 32.2973C63.5814 32.3922 63.6436 32.5083 63.6802 32.6455C63.717 32.7835 63.7205 32.9136 63.6906 33.0357C63.6608 33.1579 63.6045 33.2624 63.5217 33.3494C63.439 33.4363 63.337 33.496 63.2159 33.5283C63.1292 33.5514 63.0403 33.5583 62.9491 33.5489C62.8589 33.5401 62.7529 33.5109 62.6312 33.4612C62.5105 33.4121 62.3597 33.3394 62.1788 33.2431L61.4718 32.8649L61.4534 32.8698L61.7454 33.9648L61.4924 34.0323L61.0961 32.5463Z" fill="#FEFEFE"/>
<path d="M62.2123 38.9492L62.4552 38.9475L64.1578 40.0069L64.1591 40.183L63.7829 40.1857L63.7821 40.0666L62.4955 39.2662L62.4765 39.2664L62.4867 40.7091L62.2248 40.7109L62.2123 38.9492ZM61.7205 40.1002L62.2942 40.0962L62.4073 40.0954L64.1584 40.083L64.1604 40.364L61.7225 40.3812L61.7205 40.1002Z" fill="#FEFEFE"/>
<path d="M63.4151 47.4487C63.3771 47.5412 63.3221 47.6269 63.2502 47.7058C63.1784 47.7847 63.0869 47.8463 62.9759 47.8906C62.8656 47.9353 62.7322 47.9531 62.5759 47.9442C62.4196 47.9353 62.2375 47.8891 62.0299 47.8057C61.8288 47.7249 61.6579 47.6341 61.5172 47.533C61.3769 47.4331 61.2677 47.3259 61.1896 47.2116C61.1113 47.098 61.0649 46.9793 61.0505 46.8555C61.0357 46.7324 61.054 46.6072 61.1052 46.4798C61.156 46.3531 61.2265 46.2501 61.3165 46.1708C61.4069 46.0926 61.5098 46.0398 61.6251 46.0126C61.7408 45.9864 61.8619 45.9884 61.9883 46.0186L61.88 46.2882C61.7664 46.2708 61.6612 46.2845 61.5645 46.3295C61.4682 46.3755 61.3961 46.4581 61.3482 46.5774C61.2781 46.7519 61.299 46.9203 61.4109 47.0824C61.5225 47.2452 61.7175 47.3826 61.9958 47.4944L62.0029 47.4767C61.9577 47.4106 61.9239 47.3402 61.9018 47.2655C61.8796 47.1907 61.8703 47.1139 61.8738 47.0349C61.8773 46.9559 61.8948 46.8774 61.9261 46.7993C61.9782 46.6697 62.058 46.5636 62.1655 46.4811C62.2735 46.3996 62.3969 46.3491 62.5356 46.3296C62.6747 46.3111 62.8172 46.3311 62.963 46.3897C63.1015 46.4453 63.2157 46.5271 63.3057 46.6351C63.3962 46.7441 63.4531 46.8687 63.4763 47.0089C63.4992 47.1498 63.4788 47.2964 63.4151 47.4487ZM63.1721 47.3511C63.2093 47.2583 63.2197 47.1654 63.2032 47.0724C63.1871 46.9804 63.1488 46.897 63.0882 46.8222C63.028 46.7484 62.9508 46.6926 62.8565 46.6548C62.7623 46.6169 62.6682 46.6031 62.5743 46.6132C62.4809 46.6245 62.3968 46.657 62.3222 46.7108C62.248 46.7657 62.1922 46.8395 62.1549 46.9323C62.1268 47.0022 62.1143 47.0729 62.1173 47.1442C62.121 47.2158 62.1378 47.2837 62.1676 47.3479C62.1979 47.413 62.2384 47.4708 62.2891 47.5211C62.3407 47.5718 62.3999 47.6105 62.4669 47.6374C62.5553 47.6729 62.6467 47.6849 62.7412 47.6732C62.8354 47.6623 62.9213 47.6293 62.9991 47.5741C63.0765 47.5197 63.1342 47.4454 63.1721 47.3511Z" fill="#FEFEFE"/>
<path d="M59.9957 54.0303L58.0409 52.5735L58.2174 52.3367L59.924 53.6086L59.9325 53.5972L59.9713 52.8838L60.2118 53.063L60.1722 53.7936L59.9957 54.0303Z" fill="#FEFEFE"/>
<path d="M49.5683 61.8588L50.1658 64.2007L50.1783 64.2151L51.1252 63.3882L51.2974 63.5855L50.121 64.6128L49.9394 64.4048L49.3351 62.0624L49.5683 61.8588Z" fill="#FEFEFE"/>
<path d="M54.7926 58.1009L55.6864 60.3465L55.7007 60.3591L56.5333 59.4173L56.7295 59.5908L55.695 60.7609L55.4881 60.578L54.5876 58.3327L54.7926 58.1009Z" fill="#FEFEFE"/>
<path d="M43.7732 65.2858L43.8392 65.5195L43.2689 67.4421L43.0994 67.49L42.9972 67.128L43.1117 67.0956L43.5425 65.6429L43.5374 65.6246L42.1489 66.0168L42.0777 65.7647L43.7732 65.2858ZM42.5329 65.1166L42.6889 65.6688L42.7196 65.7776L43.1956 67.4628L42.9253 67.5391L42.2626 65.193L42.5329 65.1166Z" fill="#FEFEFE"/>
<path d="M35.5823 65.893C35.7458 65.8955 35.8898 65.9266 36.0143 65.9864C36.138 66.0469 36.234 66.1289 36.3023 66.2323C36.3706 66.3365 36.4034 66.4545 36.4006 66.5862C36.3999 66.6894 36.3782 66.7843 36.3356 66.871C36.2931 66.9584 36.2356 67.031 36.1633 67.0886C36.0902 67.1471 36.0091 67.1836 35.92 67.1981L35.9198 67.2124C36.036 67.2443 36.1279 67.3111 36.1954 67.4129C36.2629 67.5155 36.2954 67.6315 36.2926 67.7608C36.2916 67.8846 36.2586 67.9949 36.1937 68.0915C36.1287 68.1882 36.0403 68.2639 35.9284 68.3185C35.8156 68.3732 35.6879 68.3995 35.545 68.3974C35.4038 68.3953 35.278 68.3652 35.1678 68.3072C35.0575 68.2492 34.9714 68.171 34.9094 68.0724C34.8465 67.9739 34.8156 67.8627 34.8167 67.7389C34.8194 67.6095 34.8564 67.4946 34.9278 67.3941C34.9983 67.2943 35.0909 67.2302 35.2057 67.2018L35.2059 67.1875C35.118 67.1703 35.0392 67.1314 34.9695 67.0709C34.8998 67.0111 34.8445 66.9369 34.8038 66.8482C34.763 66.7602 34.743 66.6647 34.7437 66.5615C34.7465 66.4298 34.7839 66.3129 34.8561 66.2108C34.9275 66.1095 35.0259 66.0304 35.1513 65.9735C35.276 65.9174 35.4196 65.8906 35.5823 65.893ZM35.5784 66.1549C35.4681 66.1533 35.3726 66.1697 35.2919 66.2042C35.2113 66.2387 35.1486 66.2882 35.104 66.3526C35.0594 66.417 35.036 66.4929 35.034 66.5801C35.0334 66.6722 35.056 66.7539 35.1017 66.8252C35.1475 66.8965 35.2106 66.953 35.2909 66.9947C35.3704 67.0364 35.4618 67.058 35.5649 67.0595C35.6689 67.061 35.762 67.0422 35.8444 67.0029C35.9259 66.9637 35.9906 66.9091 36.0385 66.8392C36.0856 66.7692 36.1094 66.6882 36.11 66.5962C36.1121 66.5089 36.0922 66.4324 36.0503 66.3667C36.0076 66.301 35.9461 66.2497 35.8657 66.2127C35.7852 66.1758 35.6895 66.1565 35.5784 66.1549ZM35.5612 67.3118C35.4739 67.3105 35.3963 67.3268 35.3283 67.3608C35.2595 67.3947 35.2052 67.4427 35.1654 67.5048C35.1256 67.5669 35.1047 67.64 35.1026 67.7241C35.1022 67.8066 35.1206 67.8787 35.1578 67.9404C35.1949 68.0028 35.247 68.0512 35.3139 68.0856C35.3809 68.1207 35.4592 68.1389 35.5489 68.1403C35.6401 68.1416 35.7201 68.1258 35.7889 68.0926C35.8576 68.0603 35.9111 68.0135 35.9493 67.9522C35.9875 67.8916 36.0068 67.8201 36.0073 67.7375C36.0093 67.6534 35.9917 67.5798 35.9546 67.5165C35.9166 67.4532 35.8638 67.4036 35.7961 67.3677C35.7284 67.3318 35.6501 67.3132 35.5612 67.3118Z" fill="#FEFEFE"/>
<path d="M29.1945 65.3139C29.3278 65.3556 29.4396 65.4196 29.5298 65.506C29.6201 65.5924 29.6829 65.6919 29.7184 65.8044C29.754 65.917 29.7563 66.0333 29.7254 66.1533L29.4527 66.0681C29.475 65.9595 29.4545 65.8575 29.3912 65.762C29.3269 65.6671 29.2353 65.6011 29.1164 65.5639C29.0209 65.5341 28.9291 65.5299 28.8409 65.5514C28.752 65.5727 28.6741 65.6157 28.6073 65.6805C28.5395 65.7457 28.4901 65.828 28.4591 65.9272C28.4274 66.0287 28.4214 66.1262 28.4413 66.2197C28.4601 66.3138 28.5009 66.3959 28.5638 66.4663C28.6266 66.5366 28.7075 66.5877 28.8065 66.6195C28.8775 66.6425 28.954 66.6543 29.0361 66.655C29.1179 66.6565 29.1885 66.6474 29.2479 66.6277L29.5016 66.7419L29.0028 67.8432L27.7938 67.4654L27.872 67.2154L28.8446 67.5193L29.1408 66.8586L29.1272 66.8544C29.0676 66.8773 28.998 66.8901 28.9182 66.8926C28.8384 66.8951 28.7595 66.8842 28.6815 66.8598C28.5391 66.8153 28.4229 66.7415 28.3328 66.6386C28.2418 66.5361 28.1828 66.4162 28.1559 66.279C28.1282 66.1414 28.1379 65.9973 28.185 65.8466C28.2314 65.6981 28.3061 65.5759 28.4092 65.4801C28.5114 65.3848 28.6309 65.3216 28.7679 65.2904C28.9046 65.2599 29.0468 65.2678 29.1945 65.3139Z" fill="#FEFEFE"/>
<path d="M20.9158 64.3984L22.2456 62.355L22.493 62.5161L21.332 64.3L21.344 64.3078L22.0584 64.3012L21.8948 64.5526L21.1632 64.5594L20.9158 64.3984Z" fill="#FEFEFE"/>
<path d="M16.9974 58.0978C17.0897 58.2026 17.152 58.3154 17.1842 58.4361C17.2164 58.5568 17.2185 58.6745 17.1904 58.7891C17.1623 58.9037 17.1039 59.0043 17.0151 59.0908L16.8264 58.8764C16.9018 58.7951 16.9373 58.6973 16.9328 58.5829C16.9272 58.4684 16.8832 58.3644 16.8009 58.2708C16.7348 58.1958 16.6585 58.1445 16.5719 58.1171C16.4849 58.089 16.396 58.0853 16.3053 58.106C16.2134 58.1266 16.1285 58.1712 16.0505 58.2399C15.9706 58.3102 15.9149 58.3904 15.8833 58.4806C15.8506 58.5707 15.8428 58.6622 15.8599 58.7549C15.8771 58.8477 15.9197 58.9333 15.9878 59.0119C16.0365 59.0684 16.0957 59.1183 16.1655 59.1615C16.2347 59.2053 16.2998 59.2342 16.3607 59.2482L16.5182 59.4775L15.5199 60.1595L14.6831 59.2088L14.8797 59.0357L15.5529 59.8006L16.1493 59.3899L16.1398 59.3792C16.077 59.3679 16.0109 59.3426 15.9414 59.3033C15.8719 59.264 15.8102 59.2137 15.7562 59.1523C15.6576 59.0403 15.5966 58.9169 15.5731 58.7822C15.5485 58.6473 15.5604 58.5143 15.6087 58.383C15.6564 58.2511 15.7396 58.1329 15.8581 58.0286C15.9749 57.9258 16.1022 57.8603 16.2401 57.8319C16.3768 57.8035 16.5118 57.8116 16.6451 57.856C16.7777 57.9011 16.8952 57.9816 16.9974 58.0978Z" fill="#FEFEFE"/>
<path d="M13.3127 52.6827C13.3944 52.7959 13.4454 52.9142 13.4658 53.0375C13.4862 53.1607 13.4768 53.278 13.4377 53.3894C13.3987 53.5007 13.3308 53.5952 13.234 53.6727L13.067 53.441C13.1499 53.3674 13.1947 53.2735 13.2013 53.1592C13.2068 53.0447 13.1731 52.9369 13.1003 52.8358C13.0418 52.7547 12.9708 52.6963 12.8874 52.6606C12.8034 52.6242 12.7153 52.6119 12.623 52.6237C12.5296 52.6353 12.4408 52.6715 12.3564 52.7323C12.2702 52.7944 12.2069 52.8689 12.1667 52.9556C12.1254 53.0421 12.1088 53.1324 12.1168 53.2264C12.1249 53.3203 12.159 53.4097 12.2192 53.4945C12.2622 53.5555 12.3163 53.6109 12.3816 53.6607C12.4462 53.711 12.5081 53.746 12.5674 53.7659L12.7019 54.0094L11.6423 54.5914L10.9015 53.564L11.114 53.4108L11.7099 54.2374L12.3432 53.8864L12.3349 53.8748C12.2735 53.8575 12.2101 53.8259 12.1447 53.7801C12.0794 53.7342 12.0228 53.6781 11.975 53.6118C11.8878 53.4908 11.839 53.3621 11.8287 53.2257C11.8173 53.0891 11.842 52.9578 11.9028 52.8318C11.9632 52.7052 12.0574 52.5956 12.1855 52.5033C12.3117 52.4123 12.4447 52.3594 12.5847 52.3446C12.7236 52.3296 12.8572 52.3507 12.9855 52.4079C13.1131 52.4655 13.2222 52.5571 13.3127 52.6827Z" fill="#FEFEFE"/>
<path d="M10.6116 46.6929C10.6777 46.8354 10.7121 46.9739 10.7149 47.1081C10.7174 47.2417 10.6902 47.3615 10.6335 47.4674C10.5757 47.5729 10.4902 47.6554 10.377 47.715L10.2508 47.4428C10.3194 47.404 10.3696 47.351 10.4014 47.2837C10.4325 47.2168 10.4459 47.142 10.4415 47.0591C10.4372 46.9762 10.4154 46.8923 10.376 46.8074C10.3319 46.7123 10.2763 46.6358 10.2091 46.5777C10.1419 46.5196 10.0692 46.4834 9.99075 46.469C9.91235 46.4547 9.83427 46.4655 9.75652 46.5016C9.67516 46.5393 9.61288 46.5927 9.56966 46.6617C9.52572 46.7311 9.50414 46.8128 9.50492 46.9069C9.50571 47.001 9.53214 47.1042 9.58423 47.2166L9.66636 47.3937L9.42878 47.5038L9.34664 47.3267C9.30591 47.2389 9.25434 47.1692 9.19195 47.1177C9.12922 47.0654 9.06038 47.0339 8.98542 47.0232C8.91013 47.0117 8.8336 47.024 8.75585 47.0601C8.68097 47.0948 8.6235 47.1416 8.58342 47.2004C8.54334 47.2593 8.52185 47.3261 8.51894 47.4009C8.51569 47.475 8.53293 47.5528 8.57066 47.6341C8.60606 47.7104 8.65348 47.7759 8.71295 47.8306C8.77136 47.8848 8.83669 47.921 8.90894 47.9391C8.98048 47.9576 9.0538 47.9516 9.1289 47.9211L9.2491 48.1803C9.13119 48.2297 9.01348 48.2419 8.89598 48.2168C8.77777 48.192 8.66964 48.138 8.5716 48.0549C8.47323 47.971 8.39449 47.8654 8.3354 47.738C8.27196 47.6012 8.24525 47.471 8.25528 47.3474C8.26459 47.2241 8.30205 47.1153 8.36767 47.021C8.43329 46.9267 8.5183 46.8553 8.62269 46.8069C8.74724 46.7492 8.86863 46.7327 8.98684 46.7575C9.10473 46.7815 9.20646 46.8415 9.29205 46.9374L9.30933 46.9294C9.2676 46.779 9.27641 46.6424 9.33577 46.5195C9.39441 46.397 9.49392 46.3032 9.63431 46.2381C9.75455 46.1823 9.87773 46.165 10.0039 46.1861C10.1289 46.2068 10.2449 46.2606 10.3517 46.3476C10.4585 46.4345 10.5451 46.5496 10.6116 46.6929Z" fill="#FEFEFE"/>
<path d="M9.72782 40.0307C9.75137 40.1925 9.74352 40.3396 9.70425 40.472C9.66409 40.6038 9.59839 40.7116 9.50714 40.7955C9.41511 40.8794 9.30386 40.9305 9.17338 40.9487C9.0714 40.9644 8.97425 40.958 8.88192 40.9298C8.7888 40.9016 8.70804 40.8565 8.63964 40.7942C8.57033 40.7314 8.52142 40.6571 8.49291 40.5714L8.47878 40.5735C8.46574 40.6932 8.41433 40.7946 8.32454 40.8774C8.23397 40.9604 8.12462 41.0108 7.9965 41.0286C7.8741 41.0472 7.76003 41.0322 7.65429 40.9834C7.54855 40.9346 7.45979 40.8594 7.38803 40.7575C7.31615 40.6549 7.26992 40.5329 7.24934 40.3916C7.22899 40.2518 7.23869 40.1229 7.27844 40.0048C7.31819 39.8867 7.38179 39.7893 7.46924 39.7124C7.55657 39.6347 7.66144 39.5865 7.78383 39.5679C7.91195 39.5501 8.03131 39.5684 8.14189 39.6229C8.25157 39.6767 8.32957 39.7579 8.37587 39.8667L8.39001 39.8646C8.39303 39.7752 8.41889 39.6912 8.46762 39.6127C8.51556 39.5344 8.58008 39.468 8.66119 39.4137C8.74152 39.3595 8.83267 39.3246 8.93465 39.3089C9.06513 39.2908 9.1865 39.3092 9.29877 39.3642C9.41013 39.4186 9.50385 39.5032 9.57992 39.618C9.65508 39.7322 9.70438 39.8697 9.72782 40.0307ZM9.46866 40.0685C9.45277 39.9593 9.42138 39.8676 9.37449 39.7935C9.32761 39.7193 9.26882 39.6653 9.19814 39.6315C9.12745 39.5977 9.04886 39.5866 8.96236 39.5984C8.87137 39.6125 8.79431 39.6478 8.73116 39.7043C8.66801 39.7608 8.62224 39.832 8.59386 39.9179C8.56535 40.0031 8.55853 40.0967 8.5734 40.1988C8.58837 40.3017 8.62178 40.3906 8.6736 40.4657C8.72532 40.54 8.78949 40.5952 8.86613 40.6313C8.94266 40.6667 9.02641 40.6774 9.1174 40.6633C9.2039 40.6515 9.27626 40.6198 9.33448 40.568C9.39259 40.5154 9.43348 40.4465 9.45716 40.3612C9.48084 40.276 9.48467 40.1784 9.46866 40.0685ZM8.32366 40.2352C8.31109 40.1488 8.28266 40.0747 8.23839 40.013C8.194 39.9505 8.13799 39.9045 8.07034 39.8751C8.0027 39.8456 7.9272 39.8366 7.84384 39.8479C7.76228 39.8606 7.69401 39.8902 7.63903 39.9367C7.58326 39.9833 7.54375 40.0424 7.52048 40.1139C7.49643 40.1856 7.49087 40.2658 7.50379 40.3545C7.51693 40.4448 7.54531 40.5213 7.58891 40.5839C7.63173 40.6467 7.68645 40.692 7.75308 40.72C7.81892 40.7481 7.89262 40.7558 7.97418 40.7432C8.05754 40.7318 8.1275 40.7028 8.18405 40.6561C8.24049 40.6086 8.28107 40.5485 8.30579 40.4759C8.33051 40.4034 8.33647 40.3231 8.32366 40.2352Z" fill="#FEFEFE"/>
<path d="M10.6304 33.896L10.4183 33.8655L9.66089 32.9436C9.57222 32.8354 9.49452 32.7456 9.42781 32.6743C9.36031 32.6029 9.29527 32.5478 9.23268 32.5092C9.16942 32.4696 9.10087 32.4445 9.02703 32.4339C8.94219 32.4217 8.86581 32.4315 8.79788 32.4635C8.73006 32.4946 8.67424 32.5427 8.6304 32.6078C8.58657 32.6728 8.55839 32.7489 8.54585 32.8361C8.53252 32.9288 8.54013 33.0125 8.56868 33.0872C8.59656 33.1609 8.64196 33.2216 8.70488 33.2691C8.76791 33.3158 8.84538 33.3458 8.93728 33.359L8.8973 33.6371C8.7559 33.6168 8.63648 33.5663 8.53902 33.4858C8.44157 33.4052 8.37107 33.3045 8.32752 33.1836C8.28409 33.0619 8.27248 32.9307 8.2927 32.7901C8.31303 32.6487 8.3609 32.5277 8.4363 32.4271C8.5117 32.3265 8.60453 32.2525 8.71478 32.205C8.82504 32.1575 8.94222 32.1427 9.06634 32.1605C9.1551 32.1733 9.23958 32.2019 9.31979 32.2463C9.39932 32.2898 9.48528 32.3583 9.57768 32.4517C9.6694 32.5443 9.77955 32.6704 9.90813 32.83L10.4099 33.4554L10.4288 33.4581L10.5901 32.3363L10.8493 32.3736L10.6304 33.896Z" fill="#FEFEFE"/>
<path d="M13.5545 26.9569C13.496 27.0838 13.4182 27.1864 13.3209 27.2648C13.2237 27.3432 13.117 27.3928 13.0008 27.4136C12.8846 27.4344 12.769 27.4218 12.6539 27.3757L12.7734 27.1162C12.8782 27.1523 12.9821 27.145 13.0848 27.0945C13.1872 27.0429 13.2645 26.9606 13.3166 26.8474C13.3584 26.7566 13.3743 26.666 13.3643 26.5758C13.3547 26.4849 13.322 26.4021 13.2663 26.3275C13.2103 26.2519 13.1351 26.1924 13.0406 26.1489C12.944 26.1044 12.8481 26.086 12.7528 26.0937C12.6572 26.1003 12.5704 26.1303 12.4926 26.1835C12.4148 26.2368 12.3537 26.3105 12.3095 26.4046C12.2776 26.472 12.256 26.5464 12.2448 26.6277C12.2328 26.7087 12.2328 26.7799 12.2447 26.8413L12.0989 27.0782L11.0708 26.4422L11.6005 25.2918L11.8384 25.4013L11.4122 26.3269L12.0294 26.7055L12.0354 26.6925C12.0203 26.6305 12.0166 26.5598 12.0243 26.4803C12.0321 26.4009 12.053 26.3241 12.0872 26.2498C12.1496 26.1143 12.2377 26.0085 12.3514 25.9324C12.4646 25.8553 12.5911 25.8121 12.7307 25.803C12.8707 25.7932 13.0123 25.8213 13.1558 25.8874C13.2971 25.9525 13.4086 26.0423 13.4904 26.1568C13.5718 26.2703 13.6192 26.397 13.6326 26.5368C13.6452 26.6763 13.6192 26.8164 13.5545 26.9569Z" fill="#FEFEFE"/>
<path d="M16.5164 21.886L16.3338 21.7259L15.7654 19.8028L15.8815 19.6704L16.1644 19.9183L16.0859 20.0078L16.5155 21.4609L16.5298 21.4734L17.4809 20.3885L17.6778 20.5612L16.5164 21.886ZM17.6489 21.3526L17.2174 20.9744L17.1324 20.8999L15.8156 19.7455L16.0008 19.5343L17.8341 21.1414L17.6489 21.3526Z" fill="#FEFEFE"/>
<path d="M22.2112 17.9935L22.097 17.8122L22.3082 16.638C22.3331 16.5003 22.3511 16.383 22.3622 16.286C22.3729 16.1883 22.3726 16.103 22.3615 16.0303C22.3507 15.9565 22.3253 15.888 22.2856 15.8249C22.2399 15.7524 22.1829 15.7006 22.1145 15.6696C22.0469 15.6381 21.9741 15.6268 21.8961 15.6355C21.8182 15.6443 21.7419 15.6722 21.6674 15.7191C21.5882 15.7691 21.5294 15.8291 21.491 15.8992C21.4529 15.9683 21.4361 16.0421 21.4407 16.1209C21.446 16.1991 21.4733 16.2776 21.5228 16.3561L21.2851 16.5059C21.209 16.385 21.17 16.2614 21.1682 16.135C21.1664 16.0085 21.1974 15.8896 21.2613 15.778C21.3258 15.6661 21.4182 15.5722 21.5384 15.4965C21.6592 15.4204 21.7824 15.3784 21.9079 15.3706C22.0334 15.3629 22.1499 15.3856 22.2575 15.4388C22.3652 15.492 22.4524 15.5716 22.5192 15.6777C22.567 15.7536 22.6 15.8364 22.6182 15.9263C22.6366 16.0151 22.6401 16.1249 22.6288 16.2558C22.6178 16.3857 22.5932 16.5513 22.5549 16.7526L22.4039 17.5401L22.414 17.5562L23.3728 16.9521L23.5124 17.1736L22.2112 17.9935Z" fill="#FEFEFE"/>
<path d="M27.1327 12.6451C27.2293 12.619 27.3307 12.6105 27.437 12.6196C27.5434 12.6286 27.6479 12.6638 27.7507 12.7249C27.8532 12.7853 27.9484 12.8803 28.0365 13.0098C28.1245 13.1393 28.1986 13.3118 28.2587 13.5274C28.3169 13.7361 28.3487 13.927 28.3541 14.1002C28.3601 14.2723 28.3415 14.4242 28.2983 14.5557C28.2558 14.687 28.1898 14.796 28.1003 14.8828C28.0116 14.9693 27.9011 15.031 27.7688 15.0679C27.6373 15.1046 27.5128 15.1113 27.3951 15.0881C27.2779 15.0639 27.1735 15.0144 27.0817 14.9394C26.9905 14.8635 26.9185 14.7662 26.8656 14.6475L27.1454 14.5695C27.2007 14.6702 27.2756 14.7453 27.3701 14.7948C27.4652 14.8432 27.5746 14.8502 27.6985 14.8156C27.8796 14.7651 28.0005 14.6461 28.0611 14.4587C28.1225 14.271 28.1129 14.0327 28.0323 13.7438L28.014 13.7489C27.9891 13.825 27.9537 13.8946 27.9078 13.9577C27.862 14.0207 27.8066 14.0749 27.7418 14.1202C27.677 14.1654 27.6041 14.1994 27.523 14.2219C27.3885 14.2595 27.2558 14.2606 27.1248 14.2255C26.9945 14.1893 26.8793 14.1222 26.7795 14.024C26.6801 13.9248 26.6093 13.7995 26.5671 13.6482C26.5271 13.5044 26.5225 13.364 26.5535 13.2268C26.585 13.0887 26.6493 12.9678 26.7464 12.8641C26.8443 12.7602 26.9731 12.6872 27.1327 12.6451ZM27.2031 12.8974C27.1068 12.9242 27.0267 12.9725 26.9629 13.0422C26.8997 13.1109 26.8568 13.1921 26.8343 13.2857C26.8124 13.3783 26.815 13.4736 26.8423 13.5714C26.8696 13.6693 26.9159 13.7523 26.9811 13.8207C27.0468 13.888 27.1237 13.9349 27.2119 13.9615C27.3005 13.987 27.393 13.9863 27.4894 13.9595C27.562 13.9392 27.6257 13.9062 27.6805 13.8604C27.7351 13.8139 27.7788 13.7593 27.8115 13.6966C27.8449 13.6329 27.866 13.5656 27.8751 13.4947C27.884 13.4231 27.8787 13.3524 27.8593 13.2829C27.8337 13.1911 27.7876 13.1113 27.7208 13.0434C27.6549 12.9753 27.5764 12.9272 27.4853 12.899C27.395 12.8706 27.3009 12.8701 27.2031 12.8974Z" fill="#FEFEFE"/>
<path d="M27.4625 24.0406C27.9483 24.0723 28.3385 24.2276 28.6908 24.5656C29.0105 24.9412 29.2104 25.3399 29.2272 25.8379C29.1945 26.1146 29.1563 26.3977 29.0144 26.6409C29.404 26.9723 29.8307 27.2339 30.2666 27.4986C30.4438 27.6062 30.6207 27.7145 30.7975 27.8228C30.8872 27.8776 30.9768 27.9325 31.0665 27.9873C31.4529 28.2236 31.8371 28.463 32.2206 28.704C32.3411 28.7797 32.4617 28.8553 32.5822 28.931C32.6418 28.9684 32.7014 29.0058 32.7627 29.0444C33.0911 29.2502 33.42 29.4551 33.7489 29.6599C33.8498 29.7227 33.8498 29.7227 33.9526 29.7868C34.0888 29.8716 34.225 29.9564 34.3611 30.0412C34.6316 30.2096 34.9021 30.3782 35.1725 30.5467C35.3063 30.6301 35.4401 30.7134 35.5739 30.7968C35.8879 30.9924 36.2019 31.1881 36.5156 31.3842C36.6627 31.4761 36.8099 31.568 36.9571 31.6598C37.0601 31.7241 37.163 31.7885 37.266 31.853C37.444 31.964 37.6223 32.0744 37.8009 32.1846C37.848 32.2142 37.8951 32.2438 37.9437 32.2744C38.2446 32.4588 38.4339 32.5107 38.7748 32.4333C39.1211 32.3213 39.3065 32.1351 39.4825 31.8232C39.5565 31.6153 39.6034 31.4046 39.6489 31.1889C39.6757 31.0706 39.7026 30.9522 39.7296 30.8339C39.7421 30.7773 39.7547 30.7207 39.7677 30.6623C39.8105 30.4737 39.8594 30.2871 39.9104 30.1006C40.001 29.7646 40.0845 29.4272 40.1669 29.0892C40.2651 28.6866 40.3673 28.2854 40.475 27.8852C40.5471 27.6095 40.6146 27.3328 40.6822 27.0559C40.8431 26.397 41.0123 25.7414 41.2054 25.0912C41.1619 25.0618 41.1183 25.0324 41.0735 25.0022C40.7759 24.7397 40.5601 24.448 40.501 24.0486C40.481 23.7182 40.5741 23.4404 40.7606 23.1689C41.038 22.9402 41.3092 22.7477 41.6683 22.6956C42.1478 22.7833 42.4674 22.8941 42.7751 23.2816C42.9578 23.6217 43.0379 23.9029 42.9361 24.2828C42.8251 24.6001 42.6833 24.7873 42.4238 24.9988C42.3848 25.0307 42.3458 25.0626 42.3055 25.0955C42.2757 25.1197 42.2459 25.1439 42.2151 25.1689C42.2519 25.2468 42.2519 25.2468 42.2893 25.3262C42.8845 26.5877 43.4793 27.8494 44.074 29.1111C44.3616 29.7213 44.6492 30.3314 44.937 30.9415C45.1878 31.473 45.4385 32.0046 45.6889 32.5363C45.8216 32.818 45.9544 33.0996 46.0874 33.3812C46.2124 33.646 46.3372 33.9108 46.4619 34.1758C46.5078 34.2732 46.5537 34.3706 46.5998 34.468C46.6624 34.6005 46.7248 34.7331 46.7871 34.8658C46.8148 34.9241 46.8148 34.9241 46.843 34.9836C46.9677 35.2499 46.9677 35.2499 46.9854 35.4027C46.8604 35.5649 46.7016 35.6797 46.5385 35.8017C46.4542 35.8649 46.4542 35.8649 46.3681 35.9295C46.3066 35.9753 46.2452 36.021 46.1819 36.0682C46.1175 36.1163 46.0531 36.1644 45.9868 36.214C45.1729 36.822 44.3555 37.4252 43.5361 38.0258C43.4751 38.0705 43.4141 38.1152 43.3513 38.1613C39.7855 40.7704 36.0397 43.2092 32.2164 45.4236C32.1801 45.4446 32.1438 45.4657 32.1063 45.4873C31.1954 46.0149 30.2822 46.5385 29.3665 47.0576C29.3001 47.0953 29.2338 47.1331 29.1655 47.172C29.1043 47.2065 29.0431 47.2411 28.98 47.2767C28.9269 47.3068 28.8738 47.3369 28.819 47.3679C28.6747 47.4438 28.5301 47.5058 28.3777 47.5635C27.9891 47.2006 27.6448 46.8011 27.2972 46.3998C27.2298 46.3224 27.1625 46.2449 27.0951 46.1675C26.9131 45.9582 26.7313 45.7487 26.5496 45.5392C26.3977 45.364 26.2456 45.189 26.0936 45.0139C25.7349 44.601 25.3765 44.188 25.0181 43.7748C24.6487 43.3489 24.2789 42.9231 23.9091 42.4975C23.5911 42.1316 23.2733 41.7655 22.9555 41.3994C22.766 41.1809 22.5763 40.9624 22.3866 40.7441C22.2083 40.539 22.0302 40.3337 21.8522 40.1283C21.7869 40.053 21.7216 39.9778 21.6562 39.9026C21.5668 39.7999 21.4777 39.697 21.3886 39.594C21.3387 39.5365 21.2888 39.479 21.2374 39.4197C21.114 39.2685 21.007 39.1145 20.9037 38.9491C20.8523 38.9891 20.8523 38.9891 20.7999 39.0299C20.5006 39.2465 20.2711 39.3782 19.896 39.3567C19.5631 39.3003 19.3276 39.2071 19.1027 38.9479C18.9034 38.6619 18.7507 38.4141 18.7711 38.0561C18.8611 37.6268 18.9726 37.3977 19.3435 37.1472C19.6468 36.9547 19.8616 36.8571 20.2245 36.9331C20.6165 37.0374 20.7828 37.1681 21.0068 37.5125C21.0644 37.6002 21.0644 37.6002 21.1232 37.6897C21.222 37.8559 21.222 37.8559 21.2554 37.992C21.2991 38.1144 21.2991 38.1144 21.459 38.152C21.5559 38.169 21.5559 38.169 21.6547 38.1863C21.7178 38.198 21.7809 38.2098 21.8459 38.2219C22.0248 38.2498 22.2035 38.2756 22.3829 38.3002C22.728 38.3482 23.0702 38.4086 23.4129 38.4711C23.9073 38.5602 24.4021 38.6459 24.898 38.7265C25.1516 38.7677 25.4049 38.8098 25.6583 38.8523C25.7246 38.8634 25.7246 38.8634 25.7922 38.8747C26.0377 38.916 26.2829 38.9586 26.5279 39.0027C27.7214 39.2971 27.7214 39.2971 28.837 39.0172C29.0609 38.8358 29.1347 38.639 29.1821 38.361C29.21 38.0879 29.178 37.8366 29.1345 37.5668C29.123 37.4907 29.123 37.4907 29.1113 37.413C29.0861 37.2464 29.06 37.0801 29.0338 36.9137C29.0159 36.7961 28.998 36.6786 28.9801 36.561C28.9432 36.3185 28.906 36.076 28.8685 35.8335C28.8171 35.5001 28.7671 35.1665 28.7176 34.8328C28.71 34.7815 28.7024 34.7302 28.6945 34.6773C28.6793 34.5746 28.6641 34.4719 28.6489 34.3693C28.5516 33.7139 28.4531 33.0588 28.3539 32.4038C28.3466 32.3557 28.3393 32.3077 28.3318 32.2582C28.2954 32.018 28.2589 31.7778 28.2223 31.5375C28.1407 31.0002 28.0612 30.4625 27.9836 29.9245C27.9661 29.8039 27.9486 29.6833 27.9311 29.5627C27.8975 29.331 27.8643 29.0991 27.8314 28.8673C27.8161 28.7613 27.8007 28.6554 27.7853 28.5494C27.7754 28.4778 27.7754 28.4778 27.7652 28.4048C27.7235 28.1207 27.659 27.8589 27.5671 27.5867C27.4929 27.5896 27.4187 27.5924 27.3422 27.5954C26.9295 27.5802 26.5552 27.3827 26.2354 27.1293C25.9157 26.7209 25.6945 26.3301 25.6652 25.8053C25.6941 25.5744 25.6941 25.5744 25.7548 25.378C25.7784 25.2849 25.7784 25.2849 25.8025 25.19C26.0801 24.5005 26.7219 24.0713 27.4625 24.0406ZM33.4069 36.974C33.3032 37.9608 33.8327 38.8818 34.4102 39.6378C34.791 40.076 35.2338 40.3803 35.7715 40.5922C35.8338 40.62 35.8961 40.6477 35.9602 40.6763C36.3531 40.7587 36.7127 40.7354 37.0619 40.528C37.4124 40.2675 37.5692 39.9697 37.6447 39.5432C37.7511 38.4932 37.3009 37.5697 36.6629 36.764C36.1357 36.1659 35.496 35.7405 34.6959 35.6542C33.878 35.6256 33.5389 36.2645 33.4069 36.974ZM28.2377 42.2702C28.2119 42.7771 28.3866 43.1322 28.6886 43.5245C29.1143 43.9745 29.715 44.4382 30.3537 44.4718C30.7857 44.4789 31.059 44.466 31.4057 44.183C31.5923 43.9009 31.6204 43.6227 31.5787 43.2908C31.293 42.541 30.7263 42.0553 30.0063 41.7287C29.603 41.5856 29.1923 41.5132 28.7745 41.6243C28.4592 41.7845 28.335 41.9292 28.2377 42.2702ZM41.0145 34.252C40.9454 34.9729 41.1104 35.7878 41.5647 36.3636C41.8501 36.6344 42.1295 36.8333 42.5342 36.8595C42.8438 36.7697 43.0693 36.6054 43.2454 36.3394C43.5541 35.7486 43.5053 35.0656 43.3403 34.4405C43.1838 33.9984 42.9176 33.5124 42.5072 33.2627C42.391 33.2075 42.391 33.2075 42.279 33.1675C42.223 33.1447 42.1671 33.122 42.1094 33.0985C41.4557 33.0885 41.1246 33.674 41.0145 34.252Z" fill="#E30808"/>
<path d="M29.5943 49.9628C29.6389 49.9372 29.6835 49.9116 29.7294 49.8853C30.2537 49.586 30.7849 49.2991 31.3158 49.0115C32.2375 48.5115 33.1554 48.0058 34.0609 47.4768C34.0992 47.4545 34.1374 47.4322 34.1768 47.4092C34.4143 47.2706 34.6508 47.1303 34.8868 46.9891C34.9867 46.9294 35.0868 46.8698 35.187 46.8103C36.4687 46.0482 37.717 45.236 38.9645 44.4197C39.0449 44.3671 39.0449 44.3671 39.1268 44.3135C42.2624 42.2629 45.328 40.108 48.2665 37.7815C49.0995 37.1253 49.0995 37.1253 49.5728 37.1042C49.8951 37.1574 50.1613 37.2342 50.3623 37.5063C50.3954 37.5562 50.4285 37.6061 50.4626 37.6576C50.5003 37.7142 50.538 37.7708 50.5769 37.8291C50.6376 37.9212 50.6376 37.9212 50.6994 38.0152C50.7411 38.0783 50.7828 38.1414 50.8257 38.2064C50.9138 38.3401 51.0017 38.4739 51.0895 38.6078C51.2239 38.8124 51.3594 39.0162 51.4949 39.22C51.5803 39.35 51.6657 39.48 51.751 39.61C51.7916 39.6709 51.8323 39.7317 51.8742 39.7943C52.1044 40.1488 52.235 40.4002 52.2002 40.8324C52.0925 41.2565 51.847 41.472 51.5191 41.7472C51.473 41.7875 51.4269 41.8279 51.3794 41.8694C50.7805 42.3888 50.1619 42.8861 49.5495 43.3894C49.5966 43.3589 49.6436 43.3284 49.6921 43.297C50.1353 43.0101 50.5791 42.7243 51.0236 42.4396C51.2521 42.2931 51.4804 42.1463 51.7081 41.9986C51.9278 41.8562 52.1481 41.7147 52.3689 41.5739C52.4531 41.52 52.5371 41.4657 52.6208 41.4111C52.738 41.3347 52.8559 41.2596 52.9741 41.1848C53.0411 41.1416 53.1081 41.0985 53.1771 41.0541C53.3565 40.9751 53.3565 40.9751 53.5206 41.0058C53.6467 41.0805 53.6467 41.0805 53.7257 41.2225C53.7639 41.3727 53.7639 41.3727 53.7281 41.5437C53.5801 41.659 53.5801 41.659 53.3742 41.794C53.3363 41.8189 53.2985 41.8439 53.2595 41.8697C53.1314 41.9541 53.0028 42.0378 52.8741 42.1215C52.7817 42.1822 52.6894 42.2429 52.5971 42.3036C52.3422 42.471 52.087 42.6378 51.8317 42.8045C51.5568 42.9841 51.2823 43.1643 51.0078 43.3444C50.4694 43.6975 49.9308 44.0499 49.3919 44.4022C48.9541 44.6883 48.5165 44.9747 48.0789 45.2611C46.8395 46.0724 45.5999 46.8832 44.3598 47.6935C44.2929 47.7372 44.226 47.781 44.1571 47.826C44.0901 47.8698 44.0231 47.9135 43.9541 47.9586C42.8679 48.6685 41.7823 49.3793 40.6971 50.0906C39.5841 50.8201 38.4705 51.5489 37.3564 52.2769C36.7304 52.6859 36.1047 53.0953 35.4795 53.5055C34.9472 53.8546 34.4145 54.2031 33.8812 54.5507C33.6089 54.7281 33.3368 54.906 33.0653 55.0847C32.817 55.2481 32.5682 55.4105 32.3188 55.5722C32.2284 55.631 32.1382 55.6902 32.0483 55.7498C31.9266 55.8304 31.8041 55.9097 31.6814 55.9887C31.6134 56.0331 31.5454 56.0776 31.4753 56.1234C31.2954 56.2042 31.2954 56.2042 31.1312 56.1738C30.9652 56.0749 30.9351 55.9913 30.8881 55.8065C30.9397 55.5598 31.0684 55.5207 31.2759 55.382C31.3129 55.3571 31.3499 55.3322 31.388 55.3065C31.5106 55.2241 31.6336 55.1424 31.7567 55.0608C31.8417 55.0039 31.9266 54.9469 32.0115 54.8899C32.2353 54.7399 32.4595 54.5904 32.6838 54.4411C32.9125 54.2887 33.1408 54.1357 33.3691 53.9828C33.8174 53.6827 34.2661 53.3832 34.715 53.0842C34.6645 53.1099 34.6645 53.1099 34.6129 53.1361C34.2606 53.315 33.9076 53.4928 33.5544 53.6698C33.4228 53.736 33.2914 53.8024 33.1601 53.8692C32.9708 53.9653 32.7811 54.0604 32.5912 54.1552C32.504 54.2 32.504 54.2 32.415 54.2456C31.9888 54.4566 31.5932 54.6014 31.1219 54.4642C30.847 54.3577 30.7672 54.2819 30.6055 54.0397C30.5662 53.9811 30.527 53.9225 30.4866 53.8622C30.4443 53.7984 30.4021 53.7345 30.3586 53.6688C30.3152 53.6034 30.2719 53.538 30.2273 53.4706C30.1356 53.3319 30.044 53.193 29.9526 53.0541C29.8358 52.8766 29.7178 52.6999 29.5995 52.5234C29.4867 52.3544 29.3753 52.1845 29.2637 52.0146C29.2212 51.9516 29.1787 51.8885 29.1349 51.8235C28.8734 51.4212 28.7825 51.2076 28.869 50.7348C29.0057 50.3073 29.214 50.1788 29.5943 49.9628ZM32.8561 49.5593C32.8355 49.6608 32.8355 49.6608 32.8145 49.7644C32.7995 49.8374 32.7845 49.9105 32.769 49.9857C32.7536 50.0626 32.7383 50.1395 32.7225 50.2187C32.7067 50.2958 32.6909 50.373 32.6747 50.4525C32.6357 50.6437 32.5971 50.835 32.5588 51.0264C32.7527 51.1554 32.9297 51.2038 33.1571 51.2497C33.2257 51.2638 33.2944 51.2779 33.3651 51.2924C33.4365 51.3066 33.5079 51.3209 33.5814 51.3355C33.6898 51.3576 33.6898 51.3576 33.8005 51.3802C33.9788 51.4165 34.1572 51.4524 34.3357 51.488C34.4544 51.0978 34.5493 50.7086 34.6301 50.3089C34.6414 50.2543 34.6526 50.1997 34.6642 50.1435C34.6915 50.0106 34.7186 49.8777 34.7456 49.7448C34.3574 49.6274 33.9697 49.5295 33.573 49.4462C33.5193 49.4344 33.4655 49.4225 33.4102 49.4104C33.3334 49.3942 33.3334 49.3942 33.255 49.3776C33.2089 49.3678 33.1628 49.3579 33.1153 49.3478C32.9261 49.3263 32.9049 49.381 32.8561 49.5593ZM46.7644 40.4765C46.7423 40.5836 46.7423 40.5836 46.7198 40.693C46.7038 40.77 46.6878 40.847 46.6713 40.9263C46.6545 41.0084 46.6377 41.0905 46.6208 41.1725C46.6038 41.2547 46.5868 41.3369 46.5698 41.4191C46.528 41.6211 46.4864 41.8231 46.445 42.0251C46.8205 42.1405 47.1963 42.2329 47.5813 42.3106C47.6571 42.3262 47.6571 42.3262 47.7344 42.3421C47.8571 42.3672 47.9799 42.3922 48.1027 42.417C48.2273 42.2281 48.2774 42.0586 48.322 41.8374C48.3353 41.7726 48.3486 41.7078 48.3623 41.6411C48.3823 41.5402 48.3823 41.5402 48.4028 41.4372C48.4167 41.3689 48.4306 41.3007 48.4449 41.2304C48.4791 41.0622 48.5129 40.8939 48.5463 40.7256C48.358 40.6017 48.1886 40.5504 47.9685 40.505C47.8717 40.4849 47.8717 40.4849 47.7729 40.4643C47.7058 40.4508 47.6387 40.4373 47.5696 40.4234C47.468 40.4021 47.468 40.4021 47.3642 40.3804C46.9693 40.2405 46.9693 40.2405 46.7644 40.4765ZM40.0847 45.5058C40.0702 45.5771 40.0557 45.6483 40.0408 45.7217C40.025 45.7986 40.0092 45.8755 39.9929 45.9548C39.9765 46.0366 39.9601 46.1183 39.9437 46.2001C39.927 46.2822 39.9102 46.3642 39.8934 46.4463C39.8522 46.6476 39.8115 46.8491 39.7711 47.0506C40.1613 47.1693 40.5505 47.2641 40.9501 47.345C41.0047 47.3563 41.0593 47.3675 41.1156 47.3791C41.2484 47.4064 41.3813 47.4335 41.5142 47.4604C41.6329 47.0702 41.7278 46.681 41.8087 46.2814C41.8199 46.2268 41.8312 46.1722 41.8427 46.1159C41.8701 45.9831 41.8972 45.8502 41.9241 45.7173C41.7365 45.5941 41.5671 45.5418 41.3481 45.4955C41.2838 45.4819 41.2195 45.4683 41.1532 45.4543C41.0864 45.4407 41.0195 45.427 40.9507 45.413C40.8833 45.3985 40.816 45.384 40.7466 45.3691C40.6824 45.3558 40.6183 45.3425 40.5522 45.3288C40.4934 45.3165 40.4346 45.3043 40.374 45.2917C40.1622 45.2647 40.1401 45.3013 40.0847 45.5058Z" fill="#DE7E29"/>
<path d="M28.7266 47.9941C28.765 47.9724 28.8034 47.9507 28.843 47.9282C29.2201 47.7148 29.597 47.501 29.9737 47.2869C30.167 47.177 30.3604 47.0672 30.5539 46.9578C33.0559 45.5422 35.4945 44.0388 37.898 42.4618C38.1398 42.3033 38.3819 42.1452 38.6243 41.9875C41.0854 40.3852 43.4936 38.7198 45.8373 36.95C45.9754 36.8461 46.1137 36.7423 46.2519 36.6384C46.5785 36.393 46.9048 36.1471 47.2309 35.9009C47.2932 36.0138 47.3554 36.1267 47.4176 36.2396C47.4523 36.3024 47.487 36.3653 47.5227 36.43C47.627 36.6226 47.7218 36.8155 47.8116 37.0152C47.8395 37.0765 47.8673 37.1377 47.896 37.2009C47.9541 37.3462 47.9541 37.3462 47.9362 37.4316C47.8614 37.4954 47.7839 37.5561 47.7056 37.6155C47.6299 37.6731 47.6299 37.6731 47.5527 37.7318C47.4971 37.7738 47.4414 37.8158 47.384 37.8591C47.3263 37.9028 47.2686 37.9466 47.2092 37.9917C47.0191 38.1356 46.8288 38.2792 46.6384 38.4227C46.5736 38.4717 46.5088 38.5206 46.442 38.5711C45.6075 39.2012 44.7696 39.8264 43.9215 40.438C43.8821 40.4665 43.8428 40.4949 43.8023 40.5241C43.5581 40.7002 43.3129 40.8748 43.067 41.0485C42.9613 41.1232 42.8557 41.198 42.7502 41.2729C41.4768 42.1756 40.1757 43.0347 38.8687 43.8877C38.8147 43.923 38.7607 43.9583 38.7051 43.9946C36.1313 45.6755 33.5129 47.2548 30.8285 48.7524C30.7687 48.7859 30.709 48.8193 30.6474 48.8538C30.3844 48.9999 30.1247 49.1413 29.8454 49.2546C29.7317 49.1353 29.6183 49.0158 29.5051 48.8961C29.4735 48.8631 29.442 48.8301 29.4095 48.796C29.2345 48.6106 29.0683 48.4213 28.909 48.2221C28.8746 48.1792 28.8402 48.1364 28.8048 48.0922C28.779 48.0598 28.7532 48.0275 28.7266 47.9941Z" fill="#F9E342"/>
<path d="M22.8998 32.1654C23.2236 32.1916 23.4918 32.2406 23.7524 32.4472C23.9979 32.7675 24.2187 33.0609 24.2054 33.4789C24.1726 33.6756 24.1726 33.6756 24.1338 33.8208C24.3895 34.0284 24.678 34.1255 24.9831 34.2385C25.0988 34.2822 25.2146 34.3258 25.3303 34.3695C25.3894 34.3916 25.4485 34.4138 25.5094 34.4366C25.9424 34.5992 26.3739 34.7659 26.8054 34.9324C26.9715 34.9963 27.1379 35.0593 27.3042 35.1224C27.4127 35.164 27.5211 35.2058 27.6295 35.2475C27.6797 35.2663 27.7299 35.2851 27.7816 35.3045C27.8281 35.3226 27.8747 35.3406 27.9227 35.3593C27.9634 35.3748 28.0042 35.3903 28.0462 35.4063C28.2004 35.4888 28.2774 35.5481 28.3811 35.6922C28.4345 35.8811 28.4588 36.0721 28.4837 36.2666C28.4914 36.3227 28.4992 36.3787 28.5072 36.4365C28.5234 36.555 28.5392 36.6735 28.5545 36.7921C28.578 36.9734 28.6033 37.1544 28.6288 37.3355C28.6444 37.4507 28.6598 37.566 28.6752 37.6812C28.6827 37.7353 28.6903 37.7894 28.6981 37.8451C28.7577 38.3201 28.7577 38.3201 28.629 38.5545C28.5079 38.6797 28.5079 38.6797 28.3188 38.7572C28.0977 38.7533 27.8856 38.7074 27.6689 38.6656C27.5448 38.6449 27.4208 38.6242 27.2967 38.604C27.1317 38.5771 26.9669 38.5498 26.8027 38.5188C26.6773 38.4979 26.6773 38.4979 26.5516 38.513C26.3784 38.5189 26.2725 38.4988 26.1125 38.4288C25.8611 38.1655 25.673 37.864 25.4771 37.5583C25.4186 37.4699 25.3599 37.3815 25.3011 37.2932C25.1472 37.0613 24.9954 36.828 24.8441 36.5944C24.6891 36.356 24.5321 36.1189 24.3752 35.8817C24.0681 35.4166 23.7632 34.9501 23.4598 34.4826C23.3814 34.5194 23.3814 34.5194 23.3015 34.5569C23.0022 34.6805 22.7648 34.6579 22.4582 34.5654C22.0974 34.3622 21.8986 34.0753 21.7667 33.6894C21.7055 33.3678 21.7483 33.0343 21.9119 32.7502C22.1545 32.4604 22.5156 32.2014 22.8998 32.1654Z" fill="#DE7E29"/>
<path d="M36.2273 23.449C36.5531 23.4585 36.8558 23.5634 37.0978 23.7851C37.3603 24.0947 37.481 24.3907 37.4653 24.7989C37.4179 25.078 37.3171 25.3153 37.1332 25.5323C37.0821 25.5658 37.0309 25.5992 36.9782 25.6337C37.0261 25.7051 37.0261 25.7051 37.075 25.778C37.3759 26.2271 37.6755 26.677 37.9738 27.1279C38.1272 27.3596 38.281 27.5911 38.436 27.8218C38.5856 28.0445 38.7338 28.268 38.8813 28.4921C38.9377 28.5774 38.9946 28.6625 39.0519 28.7472C39.1323 28.866 39.2109 28.9858 39.2893 29.1059C39.3253 29.158 39.3253 29.158 39.362 29.2111C39.4886 29.4094 39.5129 29.5008 39.4832 29.7375C39.463 29.8035 39.4429 29.8696 39.4221 29.9376C39.4097 29.9996 39.3972 30.0615 39.3843 30.1254C39.3107 30.4883 39.23 30.8463 39.1242 31.2013C39.0906 31.3161 39.063 31.4326 39.037 31.5493C38.9206 31.801 38.7989 31.8672 38.5471 31.9848C38.2449 31.918 38.0049 31.7694 37.7507 31.5996C37.7119 31.5741 37.6732 31.5486 37.6332 31.5224C37.5516 31.4688 37.4702 31.4149 37.3889 31.3609C37.2652 31.2786 37.1411 31.197 37.0169 31.1155C36.9373 31.0631 36.8578 31.0106 36.7783 30.9581C36.7416 30.9339 36.7048 30.9097 36.667 30.8847C36.5662 30.8177 36.4665 30.749 36.3668 30.6804C36.3084 30.6407 36.2499 30.601 36.1897 30.5601C36.0608 30.4378 36.0608 30.4378 36.0278 30.298C36.0303 30.247 36.0328 30.196 36.0353 30.1435C36.0383 30.0574 36.0383 30.0574 36.0414 29.9695C36.0452 29.9082 36.049 29.8469 36.0528 29.7837C36.0555 29.7201 36.0582 29.6564 36.0609 29.5909C36.0693 29.3993 36.0799 29.208 36.0909 29.0166C36.0961 28.9154 36.1012 28.8141 36.1063 28.7129C36.1158 28.5278 36.1262 28.3428 36.137 28.1577C36.1795 27.4124 36.207 26.6643 36.2049 25.9177C36.1686 25.9085 36.1323 25.8992 36.0949 25.8896C35.65 25.7694 35.3908 25.6331 35.1449 25.234C35.0011 24.9333 34.9851 24.6286 35.07 24.3082C35.2873 23.7867 35.6656 23.4892 36.2273 23.449Z" fill="#DE7E29"/>
<path d="M54.3249 40.3354C54.3707 40.3053 54.4164 40.2752 54.4636 40.2442C54.5359 40.1978 54.5359 40.1978 54.6097 40.1504C54.6574 40.1187 54.7051 40.0869 54.7543 40.0542C54.8232 40.0095 54.8232 40.0095 54.8935 39.9638C54.9357 39.9364 54.9779 39.909 55.0213 39.8808C55.1351 39.8256 55.1351 39.8256 55.306 39.8614C55.4371 40.0338 55.4371 40.0338 55.5424 40.2232C55.4994 40.4285 55.4652 40.4401 55.2961 40.5513C55.2313 40.5939 55.2313 40.5939 55.1653 40.6374C55.1197 40.6666 55.0742 40.6958 55.0273 40.7258C54.9825 40.7557 54.9376 40.7856 54.8915 40.8163C54.848 40.8445 54.8046 40.8727 54.7599 40.9018C54.7201 40.9276 54.6804 40.9534 54.6394 40.98C54.5246 41.0359 54.5246 41.0359 54.3019 41.0339C54.1676 40.8636 54.1676 40.8636 54.0655 40.6721C54.1093 40.4627 54.1514 40.4495 54.3249 40.3354Z" fill="#E30808"/>
<path d="M29.644 56.4524C29.6977 56.4177 29.6977 56.4177 29.7524 56.3823C29.7875 56.3582 29.8226 56.3341 29.8588 56.3092C29.9623 56.2414 29.9623 56.2414 30.1506 56.1451C30.3553 56.2326 30.3553 56.2326 30.4649 56.4284C30.4897 56.4944 30.5145 56.5603 30.5401 56.6282C30.4367 56.8053 30.2851 56.8812 30.115 56.9936C30.0182 57.0585 30.0182 57.0585 29.9194 57.1246C29.7469 57.2204 29.7469 57.2204 29.5759 57.1846C29.4448 57.0121 29.4448 57.0121 29.3395 56.8228C29.3839 56.6106 29.4696 56.5691 29.644 56.4524Z" fill="#E30808"/>
<path d="M74.6834 47.0174L70.2958 17.3854H75.9551L77.7356 29.5943C77.8204 30.1666 77.9052 30.7707 77.99 31.4065C78.0747 32.0212 78.1383 32.7737 78.1807 33.6639C78.6682 32.7737 79.1133 32.0212 79.5161 31.4065C79.94 30.7707 80.3427 30.1666 80.7242 29.5943L89.4676 16.4316L91.725 29.5943C91.831 30.1666 91.9475 30.7707 92.0747 31.4065C92.2019 32.0212 92.2867 32.7737 92.3291 33.6639C92.8166 32.7737 93.2511 32.0212 93.6326 31.4065C94.0141 30.7707 94.3851 30.1666 94.7454 29.5943L102.567 17.3854H108.703L89.563 47.0174L87.1784 32.9009C87.0936 32.3286 86.9983 31.7245 86.8923 31.0886C86.7863 30.4527 86.7121 29.6897 86.6697 28.7994C86.1822 29.6897 85.7265 30.4527 85.3026 31.0886C84.8999 31.7033 84.5077 32.2968 84.1262 32.8691L74.6834 47.0174ZM105.003 46L112.157 17.3854H118.07L110.917 46H105.003ZM139.485 46.9538L126.767 28.9584L122.538 46H117.197L124.573 16.4316L137.291 34.3952L141.519 17.3854H146.861L139.485 46.9538ZM149.977 22.536L151.248 17.3854H171.151L169.88 22.536H162.885L157.003 46H151.089L156.971 22.536H149.977ZM168.549 46L175.639 17.3854H183.779C185.347 17.3854 186.757 17.7351 188.007 18.4346C189.258 19.1129 190.243 20.0455 190.964 21.2325C191.706 22.4194 192.077 23.7548 192.077 25.2385C192.077 26.4043 191.844 27.5383 191.377 28.6405C190.911 29.7215 190.265 30.7071 189.438 31.5973C188.632 32.4663 187.7 33.1976 186.64 33.7911L190.964 46H185.082L181.426 35.1264H176.784L174.081 46H168.549ZM177.96 30.3573H181.648C182.539 30.3573 183.355 30.156 184.097 29.7533C184.838 29.3505 185.421 28.81 185.845 28.1318C186.29 27.4535 186.513 26.7116 186.513 25.9062C186.513 24.8888 186.153 24.0727 185.432 23.458C184.711 22.8434 183.757 22.536 182.57 22.536H179.9L177.96 30.3573ZM208.534 46.5723C206.012 46.5723 203.733 45.9894 201.699 44.8236C199.685 43.6578 198.085 42.0787 196.898 40.0863C195.732 38.0939 195.149 35.8683 195.149 33.4096C195.149 31.2264 195.605 29.1492 196.516 27.1779C197.428 25.1855 198.667 23.4156 200.236 21.8683C201.804 20.2998 203.596 19.0705 205.609 18.1802C207.623 17.2688 209.742 16.8131 211.968 16.8131C214.511 16.8131 216.79 17.396 218.804 18.5618C220.817 19.7275 222.407 21.3066 223.573 23.2991C224.76 25.2915 225.353 27.5277 225.353 30.0076C225.353 32.1696 224.898 34.2468 223.986 36.2392C223.096 38.2317 221.856 40.0015 220.266 41.5488C218.698 43.0961 216.907 44.3255 214.893 45.2369C212.879 46.1272 210.76 46.5723 208.534 46.5723ZM209.17 41.0401C210.505 41.0401 211.777 40.754 212.985 40.1817C214.215 39.6094 215.306 38.8251 216.26 37.8289C217.214 36.8327 217.956 35.6987 218.486 34.427C219.037 33.1552 219.312 31.8305 219.312 30.4527C219.312 28.9054 218.963 27.5277 218.263 26.3195C217.585 25.0901 216.642 24.1257 215.434 23.4262C214.247 22.7056 212.89 22.3452 211.364 22.3452C210.029 22.3452 208.746 22.6314 207.517 23.2037C206.287 23.776 205.196 24.5602 204.242 25.5564C203.309 26.5315 202.568 27.6548 202.016 28.9266C201.465 30.1772 201.19 31.4913 201.19 32.8691C201.19 34.3952 201.54 35.7835 202.239 37.0341C202.938 38.2635 203.892 39.2385 205.1 39.9591C206.309 40.6798 207.665 41.0401 209.17 41.0401ZM248.891 46.9538L236.173 28.9584L231.945 46H226.603L233.979 16.4316L246.697 34.3952L250.926 17.3854H256.267L248.891 46.9538Z" fill="url(#paint0_linear_1442_11)"/>
<path d="M73.3093 67.1797V59.2227H75.2809C75.8054 59.2227 76.2475 59.3022 76.607 59.4614C76.9725 59.6205 77.2672 59.8298 77.4912 60.0891C77.7151 60.3425 77.8772 60.6196 77.9774 60.9202C78.0835 61.2208 78.1366 61.5155 78.1366 61.8043C78.1366 62.0872 78.0865 62.3789 77.9863 62.6795C77.8861 62.9801 77.724 63.2601 77.5 63.5195C77.276 63.7788 76.9813 63.988 76.6159 64.1472C76.2504 64.3063 75.8054 64.3859 75.2809 64.3859H74.3172V67.1797H73.3093ZM74.3172 63.4841H75.2278C75.7052 63.4841 76.0825 63.4016 76.3595 63.2365C76.6365 63.0656 76.834 62.8534 76.9518 62.6C77.0697 62.3406 77.1287 62.0754 77.1287 61.8043C77.1287 61.5449 77.0697 61.2856 76.9518 61.0263C76.8399 60.7669 76.6454 60.5518 76.3683 60.3809C76.0972 60.2099 75.717 60.1245 75.2278 60.1245H74.3172V63.4841ZM82.4652 67.1797V58.6922H83.42V67.1797H82.4652ZM90.441 67.2504C89.9577 67.2504 89.5157 67.1296 89.1149 66.8879C88.7141 66.6404 88.3928 66.3103 88.1512 65.8977C87.9154 65.4851 87.7975 65.0283 87.7975 64.5273C87.7975 64.0263 87.9154 63.5696 88.1512 63.157C88.3928 62.7444 88.7141 62.4173 89.1149 62.1756C89.5157 61.9281 89.9577 61.8043 90.441 61.8043C90.8065 61.8043 91.1483 61.8721 91.4666 62.0076C91.7908 62.1432 92.0708 62.3318 92.3065 62.5735V61.875H93.1906V67.1797H92.3065V66.4812C92.0708 66.717 91.7908 66.9056 91.4666 67.0471C91.1483 67.1826 90.8065 67.2504 90.441 67.2504ZM90.5648 66.384C90.9008 66.384 91.2043 66.3015 91.4755 66.1364C91.7525 65.9655 91.9706 65.7415 92.1297 65.4645C92.2947 65.1816 92.3773 64.8692 92.3773 64.5273C92.3773 64.1855 92.2947 63.876 92.1297 63.599C91.9706 63.3161 91.7525 63.0921 91.4755 62.9271C91.2043 62.7562 90.9008 62.6707 90.5648 62.6707C90.2289 62.6707 89.9224 62.7562 89.6453 62.9271C89.3742 63.0921 89.1561 63.3161 88.9911 63.599C88.832 63.876 88.7524 64.1855 88.7524 64.5273C88.7524 64.8692 88.832 65.1816 88.9911 65.4645C89.1561 65.7415 89.3742 65.9655 89.6453 66.1364C89.9224 66.3015 90.2289 66.384 90.5648 66.384ZM97.7171 69.832L99.4411 66.4017L97.1955 61.875H98.2741L99.4057 64.1737C99.5059 64.38 99.6032 64.5833 99.6975 64.7837C99.7918 64.9841 99.8861 65.2258 99.9804 65.5087C100.081 65.2258 100.175 64.9841 100.263 64.7837C100.358 64.5774 100.458 64.3741 100.564 64.1737L101.713 61.875H102.73L98.7515 69.832H97.7171ZM116.269 67.3388C115.692 67.3388 115.153 67.2327 114.652 67.0205C114.151 66.8025 113.709 66.5048 113.325 66.1276C112.948 65.7445 112.653 65.3054 112.441 64.8103C112.229 64.3093 112.123 63.7729 112.123 63.2012C112.123 62.6294 112.229 62.096 112.441 61.6009C112.659 61.0999 112.957 60.6608 113.334 60.2836C113.717 59.9005 114.159 59.6028 114.66 59.3906C115.161 59.1726 115.701 59.0635 116.278 59.0635C116.844 59.0635 117.375 59.1696 117.87 59.3818C118.365 59.5881 118.801 59.874 119.178 60.2394L118.886 61.4595C118.615 61.0233 118.25 60.6756 117.79 60.4162C117.336 60.151 116.832 60.0184 116.278 60.0184C115.695 60.0184 115.167 60.1628 114.696 60.4516C114.23 60.7345 113.859 61.1176 113.582 61.6009C113.305 62.0784 113.166 62.6118 113.166 63.2012C113.166 63.7788 113.302 64.3093 113.573 64.7926C113.85 65.2759 114.221 65.662 114.687 65.9508C115.158 66.2396 115.686 66.384 116.269 66.384C116.6 66.384 116.912 66.3457 117.207 66.2691C117.507 66.1865 117.781 66.0716 118.029 65.9242V63.8377H115.836V62.9359H119.001V66.437C118.642 66.7376 118.223 66.9646 117.746 67.1178C117.274 67.2652 116.782 67.3388 116.269 67.3388ZM126.074 67.2504C125.591 67.2504 125.149 67.1296 124.748 66.8879C124.347 66.6404 124.026 66.3103 123.784 65.8977C123.548 65.4851 123.431 65.0283 123.431 64.5273C123.431 64.0263 123.548 63.5696 123.784 63.157C124.026 62.7444 124.347 62.4173 124.748 62.1756C125.149 61.9281 125.591 61.8043 126.074 61.8043C126.44 61.8043 126.781 61.8721 127.1 62.0076C127.424 62.1432 127.704 62.3318 127.94 62.5735V61.875H128.824V67.1797H127.94V66.4812C127.704 66.717 127.424 66.9056 127.1 67.0471C126.781 67.1826 126.44 67.2504 126.074 67.2504ZM126.198 66.384C126.534 66.384 126.837 66.3015 127.108 66.1364C127.386 65.9655 127.604 65.7415 127.763 65.4645C127.928 65.1816 128.01 64.8692 128.01 64.5273C128.01 64.1855 127.928 63.876 127.763 63.599C127.604 63.3161 127.386 63.0921 127.108 62.9271C126.837 62.7562 126.534 62.6707 126.198 62.6707C125.862 62.6707 125.555 62.7562 125.278 62.9271C125.007 63.0921 124.789 63.3161 124.624 63.599C124.465 63.876 124.385 64.1855 124.385 64.5273C124.385 64.8692 124.465 65.1816 124.624 65.4645C124.789 65.7415 125.007 65.9655 125.278 66.1364C125.555 66.3015 125.862 66.384 126.198 66.384ZM133.571 67.1797V61.875H134.455V62.6353C134.65 62.3465 134.894 62.1314 135.189 61.9899C135.49 61.8426 135.805 61.7689 136.135 61.7689C136.495 61.7689 136.825 61.8544 137.125 62.0253C137.426 62.1903 137.668 62.4232 137.85 62.7238C138.057 62.4055 138.322 62.1668 138.646 62.0076C138.976 61.8485 139.324 61.7689 139.689 61.7689C140.09 61.7689 140.455 61.8632 140.786 62.0518C141.121 62.2404 141.387 62.5057 141.581 62.8475C141.782 63.1835 141.882 63.5813 141.882 64.0411V67.1797H140.927V64.156C140.927 63.6727 140.788 63.3073 140.511 63.0597C140.24 62.8063 139.925 62.6795 139.565 62.6795C139.341 62.6795 139.123 62.7296 138.911 62.8298C138.705 62.93 138.534 63.0862 138.398 63.2984C138.269 63.5106 138.204 63.7876 138.204 64.1295V67.1797H137.249V64.156C137.249 63.8201 137.181 63.543 137.046 63.325C136.916 63.1069 136.745 62.9448 136.533 62.8387C136.327 62.7267 136.112 62.6707 135.888 62.6707C135.669 62.6707 135.454 62.7208 135.242 62.821C135.036 62.9212 134.865 63.0774 134.729 63.2896C134.594 63.5018 134.526 63.7817 134.526 64.1295V67.1797H133.571ZM149.052 67.2858C148.498 67.2858 148 67.162 147.558 66.9145C147.121 66.6669 146.777 66.3309 146.523 65.9066C146.276 65.4763 146.152 64.9989 146.152 64.4743C146.152 63.9733 146.273 63.5195 146.514 63.1128C146.756 62.7002 147.08 62.3731 147.487 62.1314C147.899 61.8897 148.353 61.7689 148.848 61.7689C149.338 61.7689 149.786 61.8868 150.192 62.1226C150.599 62.3524 150.923 62.6648 151.165 63.0597C151.406 63.4546 151.527 63.9026 151.527 64.4036V64.7926H148.062C147.908 64.7926 147.752 64.7867 147.593 64.7749C147.434 64.7631 147.278 64.7454 147.124 64.7219C147.189 65.1934 147.401 65.5883 147.761 65.9066C148.126 66.2248 148.56 66.384 149.061 66.384C149.397 66.384 149.709 66.3074 149.998 66.1541C150.287 66.0009 150.519 65.7975 150.696 65.5441L150.961 66.6315C150.708 66.8378 150.416 66.9999 150.086 67.1178C149.762 67.2298 149.417 67.2858 149.052 67.2858ZM147.098 64.0764C147.416 64.0234 147.737 63.9969 148.062 63.9969H149.821C149.951 63.9969 150.077 64.0028 150.201 64.0146C150.331 64.0205 150.46 64.0293 150.59 64.0411C150.508 63.6285 150.301 63.2896 149.971 63.0244C149.641 62.7532 149.267 62.6177 148.848 62.6177C148.418 62.6177 148.041 62.7621 147.717 63.0509C147.393 63.3338 147.186 63.6757 147.098 64.0764ZM157.228 67.2858C156.957 67.2858 156.665 67.2357 156.352 67.1355C156.046 67.0294 155.781 66.8555 155.557 66.6139L155.822 65.5706C155.987 65.8476 156.199 66.0687 156.458 66.2337C156.718 66.3928 156.995 66.4724 157.29 66.4724C157.572 66.4724 157.785 66.4046 157.926 66.2691C158.068 66.1276 158.138 65.9567 158.138 65.7563C158.138 65.5264 158.062 65.3584 157.908 65.2523C157.761 65.1462 157.628 65.0725 157.511 65.0313L156.794 64.7572C156.665 64.7042 156.509 64.6275 156.326 64.5273C156.143 64.4213 155.984 64.271 155.848 64.0764C155.713 63.8819 155.645 63.6285 155.645 63.3161C155.645 63.0332 155.713 62.7739 155.848 62.5381C155.984 62.3023 156.176 62.1167 156.423 61.9811C156.671 61.8396 156.962 61.7689 157.298 61.7689C157.564 61.7689 157.841 61.8161 158.129 61.9104C158.418 62.0047 158.663 62.1638 158.863 62.3878L158.598 63.431C158.457 63.1717 158.265 62.9654 158.023 62.8122C157.782 62.6589 157.531 62.5823 157.272 62.5823C157.03 62.5823 156.839 62.6501 156.697 62.7856C156.562 62.9212 156.494 63.0774 156.494 63.2542C156.494 63.3957 156.541 63.5224 156.635 63.6344C156.73 63.7464 156.871 63.8377 157.06 63.9085L157.776 64.1825C157.905 64.2297 158.065 64.3063 158.253 64.4124C158.448 64.5185 158.619 64.6718 158.766 64.8722C158.913 65.0725 158.987 65.3437 158.987 65.6855C158.987 66.163 158.819 66.549 158.483 66.8437C158.153 67.1384 157.735 67.2858 157.228 67.2858ZM169.395 67.1797V59.2227H173.32V60.1245H170.403V61.822H172.701V62.7238H170.403V66.2779H173.32V67.1797H169.395ZM179.766 67.2504C179.283 67.2504 178.841 67.1296 178.44 66.8879C178.039 66.6404 177.718 66.3103 177.476 65.8977C177.24 65.4851 177.123 65.0283 177.123 64.5273C177.123 64.0263 177.24 63.5696 177.476 63.157C177.718 62.7444 178.039 62.4173 178.44 62.1756C178.841 61.9281 179.283 61.8043 179.766 61.8043C180.132 61.8043 180.473 61.8721 180.792 62.0076C181.116 62.1432 181.396 62.3318 181.632 62.5735V61.875H182.516V67.1797H181.632V66.4812C181.396 66.717 181.116 66.9056 180.792 67.0471C180.473 67.1826 180.132 67.2504 179.766 67.2504ZM179.89 66.384C180.226 66.384 180.529 66.3015 180.801 66.1364C181.078 65.9655 181.296 65.7415 181.455 65.4645C181.62 65.1816 181.702 64.8692 181.702 64.5273C181.702 64.1855 181.62 63.876 181.455 63.599C181.296 63.3161 181.078 63.0921 180.801 62.9271C180.529 62.7562 180.226 62.6707 179.89 62.6707C179.554 62.6707 179.247 62.7562 178.97 62.9271C178.699 63.0921 178.481 63.3161 178.316 63.599C178.157 63.876 178.077 64.1855 178.077 64.5273C178.077 64.8692 178.157 65.1816 178.316 65.4645C178.481 65.7415 178.699 65.9655 178.97 66.1364C179.247 66.3015 179.554 66.384 179.89 66.384ZM187.263 67.1797V61.875H188.147V62.8475C188.336 62.5351 188.586 62.2876 188.899 62.1049C189.211 61.9163 189.582 61.822 190.013 61.822L190.251 62.7768C190.139 62.7414 190.01 62.7238 189.862 62.7238C189.367 62.7238 188.969 62.8829 188.669 63.2012C188.368 63.5136 188.218 63.9615 188.218 64.545V67.1797H187.263ZM194.297 67.1797V61.875H195.181V62.7326C195.376 62.4202 195.626 62.1815 195.933 62.0165C196.245 61.8514 196.581 61.7689 196.941 61.7689C197.318 61.7689 197.666 61.8632 197.984 62.0518C198.308 62.2345 198.57 62.5027 198.771 62.8564C198.971 63.2041 199.071 63.6285 199.071 64.1295V67.1797H198.117V64.2621C198.117 63.8436 197.99 63.4753 197.736 63.157C197.489 62.8328 197.138 62.6707 196.684 62.6707C196.313 62.6707 195.98 62.8063 195.685 63.0774C195.396 63.3426 195.252 63.7287 195.252 64.2356V67.1797H194.297ZM213.259 67.3388C212.687 67.3388 212.148 67.2327 211.641 67.0205C211.14 66.8025 210.698 66.5048 210.315 66.1276C209.938 65.7504 209.64 65.3113 209.422 64.8103C209.21 64.3093 209.104 63.7729 209.104 63.2012C209.104 62.6294 209.21 62.0931 209.422 61.5921C209.64 61.0911 209.938 60.652 210.315 60.2748C210.698 59.8975 211.14 59.6028 211.641 59.3906C212.148 59.1726 212.687 59.0635 213.259 59.0635C213.825 59.0635 214.355 59.1696 214.85 59.3818C215.346 59.5881 215.782 59.874 216.159 60.2394L215.867 61.4595C215.596 61.0233 215.231 60.6756 214.771 60.4162C214.317 60.151 213.813 60.0184 213.259 60.0184C212.676 60.0184 212.148 60.1628 211.676 60.4516C211.211 60.7345 210.84 61.1176 210.562 61.6009C210.285 62.0784 210.147 62.6118 210.147 63.2012C210.147 63.7847 210.285 64.3181 210.562 64.8014C210.84 65.2847 211.211 65.6708 211.676 65.9596C212.148 66.2425 212.676 66.384 213.259 66.384C213.819 66.384 214.326 66.2514 214.78 65.9861C215.234 65.7209 215.596 65.3731 215.867 64.9429L216.159 66.163C215.782 66.5225 215.346 66.8084 214.85 67.0205C214.355 67.2327 213.825 67.3388 213.259 67.3388ZM220.434 67.1797V61.875H221.319V62.8475C221.507 62.5351 221.758 62.2876 222.07 62.1049C222.382 61.9163 222.754 61.822 223.184 61.822L223.423 62.7768C223.311 62.7414 223.181 62.7238 223.034 62.7238C222.539 62.7238 222.141 62.8829 221.84 63.2012C221.54 63.5136 221.389 63.9615 221.389 64.545V67.1797H220.434ZM227.247 69.832L228.971 66.4017L226.726 61.875H227.804L228.936 64.1737C229.036 64.38 229.134 64.5833 229.228 64.7837C229.322 64.9841 229.416 65.2258 229.511 65.5087C229.611 65.2258 229.705 64.9841 229.794 64.7837C229.888 64.5774 229.988 64.3741 230.094 64.1737L231.244 61.875H232.26L228.282 69.832H227.247ZM236.268 69.832V61.875H237.152V62.5735C237.394 62.3318 237.674 62.1432 237.992 62.0076C238.31 61.8721 238.652 61.8043 239.018 61.8043C239.507 61.8043 239.949 61.9281 240.344 62.1756C240.745 62.4173 241.063 62.7444 241.299 63.157C241.54 63.5696 241.661 64.0263 241.661 64.5273C241.661 65.0283 241.54 65.4851 241.299 65.8977C241.063 66.3103 240.745 66.6404 240.344 66.8879C239.949 67.1296 239.507 67.2504 239.018 67.2504C238.67 67.2504 238.343 67.1885 238.036 67.0648C237.73 66.941 237.459 66.77 237.223 66.552V69.832H236.268ZM238.894 66.384C239.23 66.384 239.533 66.3015 239.804 66.1364C240.081 65.9655 240.3 65.7415 240.459 65.4645C240.624 65.1816 240.706 64.8692 240.706 64.5273C240.706 64.1855 240.624 63.876 240.459 63.599C240.3 63.3161 240.081 63.0921 239.804 62.9271C239.533 62.7562 239.23 62.6707 238.894 62.6707C238.558 62.6707 238.251 62.7562 237.974 62.9271C237.703 63.0921 237.485 63.3161 237.32 63.599C237.161 63.876 237.081 64.1855 237.081 64.5273C237.081 64.8692 237.161 65.1816 237.32 65.4645C237.485 65.7415 237.703 65.9655 237.974 66.1364C238.251 66.3015 238.558 66.384 238.894 66.384ZM246.395 67.1797V62.6707H245.193V61.875H246.422V60.1068H247.323V61.875H248.641V62.6707H247.35V67.1797H246.395ZM254.972 67.2858C254.459 67.2858 253.99 67.162 253.566 66.9145C253.141 66.6669 252.802 66.3339 252.549 65.9154C252.301 65.4969 252.178 65.0342 252.178 64.5273C252.178 64.0146 252.301 63.5519 252.549 63.1393C252.802 62.7208 253.141 62.3878 253.566 62.1402C253.99 61.8927 254.459 61.7689 254.972 61.7689C255.49 61.7689 255.959 61.8927 256.377 62.1402C256.802 62.3878 257.138 62.7208 257.385 63.1393C257.639 63.5519 257.765 64.0146 257.765 64.5273C257.765 65.0342 257.639 65.4969 257.385 65.9154C257.138 66.3339 256.802 66.6669 256.377 66.9145C255.959 67.162 255.49 67.2858 254.972 67.2858ZM254.972 66.384C255.313 66.384 255.623 66.3015 255.9 66.1364C256.177 65.9655 256.398 65.7415 256.563 65.4645C256.728 65.1816 256.81 64.8692 256.81 64.5273C256.81 64.1855 256.728 63.876 256.563 63.599C256.398 63.3161 256.177 63.0921 255.9 62.9271C255.623 62.7562 255.313 62.6707 254.972 62.6707C254.63 62.6707 254.32 62.7562 254.043 62.9271C253.766 63.0921 253.545 63.3161 253.38 63.599C253.215 63.876 253.133 64.1855 253.133 64.5273C253.133 64.8692 253.215 65.1816 253.38 65.4645C253.545 65.7415 253.766 65.9655 254.043 66.1364C254.32 66.3015 254.63 66.384 254.972 66.384Z" fill="white"/>
<rect x="71.9688" y="48.0762" width="158.182" height="5.26509" fill="#DE7E29"/>
<path d="M218.226 31.5431L205.881 37.8377L211.833 31.5276L205.914 25.1851L218.226 31.5431Z" fill="url(#paint1_linear_1442_11)"/>
<defs>
<linearGradient id="paint0_linear_1442_11" x1="161.824" y1="0" x2="161.95" y2="45.7833" gradientUnits="userSpaceOnUse">
<stop offset="0.427885" stop-color="#CAA12D"/>
<stop offset="0.696789" stop-color="#FAE443"/>
<stop offset="0.918269" stop-color="#DE7E29"/>
</linearGradient>
<linearGradient id="paint1_linear_1442_11" x1="212.078" y1="25.2009" x2="212.045" y2="37.8536" gradientUnits="userSpaceOnUse">
<stop stop-color="#CAA12D"/>
<stop offset="0.466531" stop-color="#F9E243"/>
<stop offset="1" stop-color="#DD7D28"/>
</linearGradient>
</defs>
</svg>
