<svg width="161" height="47" viewBox="0 0 161 47" fill="none" xmlns="http://www.w3.org/2000/svg">
<rect x="140.625" y="27.4629" width="3.28808" height="4.82987" transform="rotate(13.342 140.625 27.4629)" fill="#DE7E29"/>
<circle cx="22.5871" cy="24.7746" r="18.7907" stroke="#F9E342" stroke-width="1.35837"/>
<circle cx="22.5803" cy="24.7756" r="16.9796" stroke="black" stroke-width="2.26394" stroke-dasharray="4.53 4.53"/>
<circle cx="22.5813" cy="24.7732" r="16.9796" transform="rotate(15.1988 22.5813 24.7732)" stroke="#E30808" stroke-width="2.26394" stroke-dasharray="4.53 4.53"/>
<path d="M22.5871 7.1448L22.5478 8.65199L22.3653 8.64722L22.3996 7.33138L22.3908 7.33115L22.0164 7.56587L22.0213 7.38042L22.4046 7.14004L22.5871 7.1448Z" fill="#FEFEFE"/>
<path d="M27.1075 7.71574C27.1664 7.73461 27.222 7.76425 27.2741 7.80467C27.3263 7.84509 27.3688 7.89843 27.4016 7.96469C27.4346 8.03048 27.4522 8.11179 27.4544 8.20861C27.4566 8.30543 27.4371 8.41991 27.396 8.55204C27.3561 8.67996 27.3085 8.78979 27.2532 8.88153C27.1985 8.97295 27.1378 9.04555 27.0712 9.09933C27.005 9.15325 26.9341 9.18771 26.8585 9.2027C26.7834 9.21784 26.7053 9.21278 26.6242 9.18751C26.5436 9.1624 26.4767 9.12405 26.4233 9.07248C26.3706 9.02058 26.333 8.95977 26.3106 8.89005C26.2887 8.82001 26.284 8.74528 26.2964 8.66587L26.4679 8.71931C26.4627 8.79019 26.4764 8.85435 26.5089 8.91176C26.542 8.96886 26.5965 9.00923 26.6724 9.03289C26.7835 9.0675 26.8862 9.0463 26.9806 8.96932C27.0755 8.89247 27.1505 8.76549 27.2057 8.58838L27.1945 8.58487C27.156 8.61606 27.1142 8.64032 27.0693 8.65766C27.0243 8.67499 26.9773 8.68453 26.9285 8.68627C26.8796 8.68801 26.8303 8.68114 26.7807 8.66566C26.6982 8.63996 26.6289 8.59599 26.5727 8.53376C26.5172 8.47121 26.4799 8.39767 26.461 8.31313C26.4428 8.22826 26.4481 8.13945 26.477 8.04667C26.5044 7.95858 26.5492 7.88412 26.6114 7.82329C26.6741 7.76214 26.7481 7.72094 26.8334 7.69971C26.9191 7.67862 27.0105 7.68396 27.1075 7.71574ZM27.0594 7.87037C27.0003 7.85197 26.9425 7.85015 26.886 7.86493C26.8301 7.87937 26.7806 7.90713 26.7375 7.94818C26.695 7.98891 26.6644 8.03926 26.6457 8.09924C26.627 8.15921 26.6231 8.21789 26.634 8.27527C26.6455 8.33232 26.6697 8.38253 26.7066 8.42589C26.7441 8.46892 26.7923 8.49964 26.8514 8.51804C26.8959 8.53191 26.94 8.53617 26.9839 8.5308C27.0278 8.52497 27.0689 8.51128 27.1069 8.48973C27.1456 8.46786 27.1792 8.44003 27.2077 8.40625C27.2364 8.372 27.2574 8.33356 27.2707 8.29092C27.2882 8.23469 27.291 8.17775 27.2792 8.12008C27.2678 8.06256 27.2432 8.01119 27.2054 7.96599C27.168 7.92093 27.1193 7.88906 27.0594 7.87037Z" fill="#FEFEFE"/>
<path d="M30.9257 11.0269C30.8451 10.9727 30.7825 10.9106 30.7379 10.8405C30.6938 10.7706 30.6697 10.6986 30.6658 10.6244C30.6625 10.5501 30.6813 10.479 30.7221 10.4112L30.8761 10.5147C30.8522 10.5572 30.8427 10.6013 30.8474 10.6471C30.8524 10.6924 30.8694 10.7363 30.8982 10.7788C30.9271 10.8212 30.9655 10.8585 31.0136 10.8908C31.0674 10.927 31.1213 10.9496 31.1755 10.9588C31.2296 10.968 31.2797 10.9638 31.3258 10.9462C31.3719 10.9287 31.4097 10.8979 31.4392 10.8539C31.4702 10.8079 31.486 10.7597 31.4867 10.7093C31.4877 10.6586 31.4729 10.6084 31.4423 10.5589C31.4117 10.5094 31.3647 10.4633 31.3011 10.4206L31.2009 10.3533L31.2912 10.2188L31.3914 10.2862C31.4411 10.3195 31.4907 10.3399 31.5402 10.3471C31.5902 10.3546 31.6367 10.3492 31.6798 10.3309C31.7232 10.3128 31.7598 10.2817 31.7893 10.2377C31.8178 10.1954 31.8332 10.1522 31.8355 10.1082C31.8378 10.0643 31.8278 10.022 31.8053 9.98154C31.7833 9.9413 31.7492 9.90572 31.7032 9.8748C31.66 9.84579 31.6139 9.82637 31.565 9.81653C31.5167 9.80656 31.4705 9.80838 31.4265 9.82197C31.3828 9.83516 31.3459 9.86184 31.316 9.90203L31.1693 9.80351C31.2158 9.73956 31.2742 9.69539 31.3444 9.671C31.4148 9.6462 31.4893 9.64006 31.5678 9.65259C31.6467 9.66538 31.7222 9.696 31.7943 9.74444C31.8717 9.79644 31.9276 9.85673 31.9619 9.92532C31.9965 9.9935 32.0116 10.063 32.0071 10.1339C32.0027 10.2049 31.9806 10.2698 31.9409 10.3289C31.8936 10.3994 31.8347 10.447 31.7642 10.4718C31.6942 10.4969 31.6211 10.4978 31.5451 10.4745L31.5385 10.4843C31.6088 10.5504 31.648 10.6255 31.656 10.7095C31.6643 10.7931 31.6417 10.8747 31.5884 10.9541C31.5426 11.0221 31.4831 11.0708 31.4096 11.1001C31.3368 11.1292 31.2582 11.1379 31.1739 11.1262C31.0895 11.1145 31.0068 11.0814 30.9257 11.0269Z" fill="#FEFEFE"/>
<path d="M33.891 13.5411C33.8265 13.4633 33.7833 13.3831 33.7614 13.3005C33.7402 13.218 33.7402 13.1399 33.7614 13.0663C33.783 12.9923 33.8253 12.9295 33.8883 12.8779C33.9371 12.8368 33.9904 12.8089 34.0483 12.7941C34.1065 12.779 34.1637 12.7768 34.2199 12.7877C34.2767 12.7986 34.3264 12.822 34.3691 12.8581L34.3759 12.8525C34.3442 12.785 34.3387 12.715 34.3595 12.6423C34.3806 12.5694 34.4221 12.5075 34.484 12.4569C34.5427 12.4076 34.6078 12.3789 34.6793 12.3706C34.7508 12.3623 34.8219 12.3735 34.8926 12.4042C34.9636 12.4352 35.0273 12.4847 35.0836 12.5528C35.1394 12.62 35.1758 12.6912 35.1928 12.7664C35.2098 12.8415 35.2076 12.9134 35.1862 12.9822C35.165 13.0513 35.1252 13.1105 35.0665 13.1597C35.0046 13.2104 34.9357 13.2392 34.8598 13.246C34.7845 13.2529 34.7172 13.2351 34.6577 13.1926L34.6509 13.1982C34.6781 13.2464 34.6915 13.2991 34.691 13.3562C34.6909 13.413 34.6782 13.4688 34.6529 13.5236C34.6279 13.5781 34.591 13.6258 34.5422 13.6669C34.4792 13.7185 34.4091 13.7479 34.3321 13.755C34.2558 13.7621 34.1791 13.7476 34.102 13.7115C34.0255 13.6754 33.9552 13.6186 33.891 13.5411ZM34.0157 13.4378C34.0593 13.4903 34.1053 13.5286 34.154 13.5527C34.2026 13.5767 34.251 13.5863 34.2992 13.5814C34.3475 13.5765 34.3925 13.5571 34.4344 13.523C34.4779 13.4863 34.5072 13.4428 34.5224 13.3927C34.5376 13.3425 34.5388 13.2902 34.5261 13.2357C34.5138 13.1815 34.4872 13.1299 34.4465 13.0808C34.4055 13.0313 34.3592 12.995 34.3077 12.9721C34.2565 12.9495 34.2048 12.941 34.1527 12.9466C34.1009 12.9525 34.0532 12.9739 34.0097 13.0106C33.9678 13.0446 33.9399 13.0847 33.9258 13.1308C33.912 13.1773 33.9126 13.2268 33.9276 13.2795C33.9425 13.3321 33.9719 13.3849 34.0157 13.4378ZM34.5667 12.9812C34.6011 13.0227 34.64 13.0527 34.6832 13.071C34.7268 13.0898 34.7712 13.096 34.8164 13.0898C34.8616 13.0836 34.9043 13.064 34.9447 13.0312C34.9837 12.9983 35.0102 12.9607 35.0243 12.9184C35.0387 12.8758 35.0406 12.8319 35.0298 12.7867C35.0195 12.7411 34.9966 12.6969 34.9612 12.6542C34.9252 12.6108 34.8856 12.5795 34.8424 12.5605C34.7996 12.5411 34.7561 12.5348 34.7119 12.5415C34.6681 12.5478 34.6267 12.5675 34.5877 12.6004C34.5473 12.6332 34.5197 12.6711 34.5049 12.714C34.4904 12.7572 34.4883 12.802 34.4986 12.8483C34.5089 12.8945 34.5316 12.9388 34.5667 12.9812Z" fill="#FEFEFE"/>
<path d="M36.2586 16.7131L37.7504 16.8056L37.7612 16.8009L37.4541 16.0868L37.6029 16.0228L37.9845 16.9101L37.8276 16.9776L36.3342 16.8889L36.2586 16.7131Z" fill="#FEFEFE"/>
<path d="M37.9437 20.1643L38.0717 20.1301L38.7264 20.4706C38.8031 20.5106 38.869 20.5427 38.9243 20.5671C38.98 20.5914 39.0304 20.6069 39.0754 20.6137C39.121 20.6208 39.1661 20.6184 39.2106 20.6065C39.2619 20.5929 39.3029 20.5687 39.3338 20.5341C39.3648 20.4999 39.3849 20.459 39.394 20.4114C39.4031 20.3637 39.4007 20.3136 39.3867 20.2609C39.3717 20.205 39.3471 20.1592 39.3127 20.1237C39.279 20.0885 39.2384 20.065 39.1911 20.0533C39.1439 20.042 39.0925 20.0438 39.0371 20.0586L38.9923 19.8907C39.0776 19.8679 39.1578 19.8676 39.2328 19.8898C39.3078 19.9119 39.3724 19.9521 39.4265 20.0103C39.4807 20.069 39.5192 20.1408 39.5418 20.2256C39.5646 20.311 39.5667 20.3914 39.5483 20.467C39.5298 20.5425 39.495 20.6072 39.4438 20.6609C39.3926 20.7147 39.3296 20.7516 39.2547 20.7716C39.2011 20.7859 39.1461 20.7901 39.0897 20.7843C39.0339 20.7789 38.9684 20.7608 38.8931 20.7301C38.8185 20.6997 38.7252 20.6547 38.6133 20.5952L38.1761 20.3613L38.1647 20.3644L38.3453 21.0415L38.1888 21.0833L37.9437 20.1643Z" fill="#FEFEFE"/>
<path d="M38.6304 24.0877L38.7806 24.0867L39.8336 24.7418L39.8343 24.8508L39.6017 24.8524L39.6012 24.7788L38.8055 24.2838L38.7938 24.2839L38.8 25.1761L38.6381 25.1773L38.6304 24.0877ZM38.3262 24.7996L38.6811 24.7971L38.751 24.7966L39.8339 24.7889L39.8351 24.9627L38.3274 24.9733L38.3262 24.7996Z" fill="#FEFEFE"/>
<path d="M39.3799 29.2894C39.3564 29.3466 39.3224 29.3996 39.278 29.4484C39.2335 29.4972 39.1769 29.5353 39.1083 29.5627C39.0401 29.5903 38.9576 29.6013 38.8609 29.5958C38.7642 29.5903 38.6517 29.5618 38.5233 29.5102C38.3989 29.4602 38.2932 29.404 38.2062 29.3416C38.1194 29.2797 38.0519 29.2135 38.0036 29.1428C37.9552 29.0725 37.9265 28.9991 37.9176 28.9225C37.9085 28.8464 37.9197 28.769 37.9514 28.6902C37.9829 28.6119 38.0264 28.5482 38.0821 28.4991C38.138 28.4507 38.2016 28.4181 38.2729 28.4013C38.3445 28.385 38.4194 28.3863 38.4975 28.405L38.4306 28.5717C38.3603 28.5609 38.2953 28.5694 38.2355 28.5972C38.1759 28.6257 38.1313 28.6768 38.1017 28.7506C38.0583 28.8585 38.0712 28.9626 38.1405 29.0629C38.2095 29.1636 38.3301 29.2485 38.5022 29.3177L38.5066 29.3067C38.4786 29.2659 38.4577 29.2223 38.444 29.1761C38.4304 29.1299 38.4246 29.0823 38.4268 29.0335C38.4289 28.9846 38.4397 28.9361 38.4591 28.8878C38.4913 28.8076 38.5406 28.742 38.6072 28.691C38.6739 28.6406 38.7502 28.6094 38.836 28.5973C38.9221 28.5858 39.0102 28.5982 39.1003 28.6344C39.186 28.6688 39.2566 28.7194 39.3123 28.7862C39.3682 28.8537 39.4034 28.9307 39.4178 29.0174C39.4319 29.1046 39.4193 29.1952 39.3799 29.2894ZM39.2296 29.229C39.2527 29.1717 39.2591 29.1142 39.2489 29.0567C39.2389 28.9998 39.2152 28.9482 39.1777 28.902C39.1405 28.8563 39.0928 28.8218 39.0345 28.7984C38.9762 28.775 38.918 28.7664 38.8599 28.7727C38.8022 28.7797 38.7502 28.7998 38.704 28.8331C38.6581 28.867 38.6237 28.9126 38.6006 28.97C38.5832 29.0133 38.5755 29.057 38.5773 29.1011C38.5796 29.1454 38.59 29.1874 38.6084 29.227C38.6271 29.2673 38.6522 29.3031 38.6836 29.3342C38.7154 29.3655 38.7521 29.3895 38.7935 29.4061C38.8482 29.4281 38.9047 29.4354 38.9632 29.4282C39.0214 29.4215 39.0746 29.4011 39.1226 29.367C39.1705 29.3333 39.2062 29.2873 39.2296 29.229Z" fill="#FEFEFE"/>
<path d="M37.289 33.3282L36.0801 32.4273L36.1892 32.2809L37.2446 33.0675L37.2499 33.0604L37.2739 32.6192L37.4226 32.73L37.3981 33.1818L37.289 33.3282Z" fill="#FEFEFE"/>
<path d="M30.8595 38.1467L31.2291 39.5951L31.2368 39.6039L31.8224 39.0926L31.9289 39.2146L31.2014 39.8499L31.089 39.7213L30.7154 38.2727L30.8595 38.1467Z" fill="#FEFEFE"/>
<path d="M34.078 35.8353L34.6307 37.2241L34.6395 37.2319L35.1545 36.6495L35.2758 36.7567L34.636 37.4804L34.5081 37.3672L33.9512 35.9787L34.078 35.8353Z" fill="#FEFEFE"/>
<path d="M27.3305 40.2358L27.3713 40.3803L27.0186 41.5692L26.9138 41.5988L26.8505 41.375L26.9214 41.355L27.1878 40.4566L27.1846 40.4452L26.326 40.6878L26.2819 40.5319L27.3305 40.2358ZM26.5635 40.1311L26.6599 40.4726L26.6789 40.5399L26.9733 41.582L26.8061 41.6293L26.3963 40.1783L26.5635 40.1311Z" fill="#FEFEFE"/>
<path d="M22.3052 40.6049C22.4063 40.6064 22.4953 40.6256 22.5723 40.6626C22.6488 40.7001 22.7082 40.7508 22.7505 40.8147C22.7927 40.8791 22.813 40.9521 22.8113 41.0335C22.8108 41.0973 22.7974 41.156 22.7711 41.2096C22.7448 41.2637 22.7092 41.3086 22.6645 41.3443C22.6193 41.3804 22.5692 41.403 22.5141 41.412L22.5139 41.4208C22.5858 41.4405 22.6426 41.4819 22.6844 41.5448C22.7261 41.6083 22.7462 41.68 22.7445 41.76C22.7438 41.8365 22.7234 41.9047 22.6833 41.9645C22.6431 42.0243 22.5884 42.0711 22.5192 42.1049C22.4495 42.1387 22.3705 42.1549 22.2821 42.1536C22.1948 42.1523 22.117 42.1337 22.0488 42.0979C21.9807 42.062 21.9274 42.0136 21.889 41.9527C21.8502 41.8917 21.8311 41.8229 21.8317 41.7464C21.8334 41.6664 21.8563 41.5953 21.9004 41.5332C21.944 41.4715 22.0013 41.4318 22.0723 41.4142L22.0724 41.4054C22.0181 41.3948 21.9694 41.3707 21.9262 41.3333C21.8831 41.2963 21.8489 41.2504 21.8237 41.1955C21.7985 41.1412 21.7862 41.0821 21.7866 41.0183C21.7883 40.9368 21.8115 40.8645 21.8561 40.8014C21.9002 40.7387 21.9611 40.6898 22.0387 40.6546C22.1158 40.62 22.2046 40.6034 22.3052 40.6049ZM22.3028 40.7668C22.2346 40.7658 22.1755 40.776 22.1256 40.7973C22.0757 40.8186 22.037 40.8492 22.0094 40.8891C21.9818 40.9289 21.9674 40.9758 21.9661 41.0298C21.9657 41.0867 21.9797 41.1372 22.008 41.1814C22.0363 41.2255 22.0753 41.2604 22.125 41.2862C22.1742 41.3119 22.2307 41.3253 22.2945 41.3262C22.3587 41.3272 22.4164 41.3155 22.4673 41.2913C22.5177 41.267 22.5577 41.2332 22.5873 41.19C22.6164 41.1467 22.6312 41.0966 22.6315 41.0397C22.6328 40.9857 22.6205 40.9384 22.5946 40.8978C22.5682 40.8571 22.5302 40.8254 22.4804 40.8026C22.4307 40.7798 22.3715 40.7678 22.3028 40.7668ZM22.2921 41.4823C22.2382 41.4815 22.1902 41.4916 22.1481 41.5125C22.1056 41.5335 22.072 41.5632 22.0474 41.6016C22.0228 41.64 22.0098 41.6852 22.0086 41.7372C22.0083 41.7883 22.0197 41.8329 22.0427 41.871C22.0656 41.9096 22.0978 41.9396 22.1392 41.9608C22.1806 41.9825 22.2291 41.9938 22.2845 41.9946C22.3409 41.9955 22.3904 41.9856 22.4329 41.9652C22.4755 41.9452 22.5085 41.9162 22.5322 41.8783C22.5558 41.8409 22.5677 41.7966 22.568 41.7456C22.5693 41.6936 22.5584 41.648 22.5354 41.6089C22.512 41.5697 22.4793 41.5391 22.4374 41.5169C22.3955 41.4946 22.3471 41.4831 22.2921 41.4823Z" fill="#FEFEFE"/>
<path d="M18.3946 40.2534C18.4771 40.2792 18.5462 40.3188 18.602 40.3722C18.6578 40.4256 18.6967 40.4872 18.7187 40.5568C18.7406 40.6263 18.742 40.6983 18.723 40.7725L18.5543 40.7198C18.5681 40.6527 18.5554 40.5896 18.5163 40.5305C18.4765 40.4718 18.4199 40.431 18.3463 40.408C18.2873 40.3896 18.2305 40.387 18.176 40.4003C18.121 40.4134 18.0728 40.44 18.0315 40.4801C17.9896 40.5205 17.959 40.5713 17.9398 40.6327C17.9202 40.6955 17.9165 40.7558 17.9288 40.8136C17.9405 40.8717 17.9657 40.9226 18.0046 40.9661C18.0434 41.0096 18.0935 41.0411 18.1547 41.0608C18.1986 41.075 18.2459 41.0824 18.2967 41.0828C18.3473 41.0837 18.391 41.0781 18.4277 41.0659L18.5845 41.1365L18.2761 41.8176L17.5284 41.5839L17.5767 41.4293L18.1782 41.6173L18.3614 41.2087L18.353 41.2061C18.3162 41.2203 18.2731 41.2281 18.2238 41.2297C18.1744 41.2312 18.1256 41.2245 18.0774 41.2094C17.9893 41.1819 17.9174 41.1363 17.8618 41.0726C17.8055 41.0092 17.769 40.9351 17.7523 40.8502C17.7352 40.7652 17.7412 40.676 17.7703 40.5828C17.799 40.491 17.8452 40.4154 17.909 40.3562C17.9722 40.2973 18.0461 40.2581 18.1308 40.2388C18.2153 40.22 18.3033 40.2249 18.3946 40.2534Z" fill="#FEFEFE"/>
<path d="M13.3107 39.7034L14.1331 38.4397L14.2861 38.5393L13.5681 39.6425L13.5755 39.6473L14.0173 39.6433L13.9161 39.7988L13.4637 39.803L13.3107 39.7034Z" fill="#FEFEFE"/>
<path d="M10.9304 35.8328C10.9875 35.8976 11.026 35.9674 11.046 36.042C11.0659 36.1167 11.0672 36.1894 11.0498 36.2603C11.0324 36.3312 10.9963 36.3934 10.9414 36.4469L10.8247 36.3143C10.8713 36.2641 10.8933 36.2036 10.8905 36.1328C10.887 36.062 10.8598 35.9976 10.8089 35.9398C10.768 35.8934 10.7208 35.8617 10.6673 35.8447C10.6135 35.8274 10.5585 35.8251 10.5024 35.8379C10.4456 35.8506 10.3931 35.8782 10.3448 35.9207C10.2954 35.9641 10.261 36.0137 10.2414 36.0695C10.2212 36.1253 10.2164 36.1818 10.227 36.2392C10.2376 36.2965 10.2639 36.3495 10.3061 36.3981C10.3362 36.433 10.3728 36.4639 10.416 36.4906C10.4587 36.5177 10.499 36.5356 10.5367 36.5442L10.6341 36.6861L10.0167 37.1078L9.49918 36.5199L9.62076 36.4129L10.0371 36.8859L10.4059 36.6319L10.4001 36.6252C10.3612 36.6183 10.3203 36.6026 10.2774 36.5783C10.2344 36.554 10.1962 36.5229 10.1628 36.4849C10.1019 36.4157 10.0641 36.3394 10.0496 36.256C10.0344 36.1727 10.0417 36.0904 10.0716 36.0092C10.1011 35.9276 10.1526 35.8545 10.2259 35.79C10.2981 35.7264 10.3768 35.6859 10.4621 35.6684C10.5467 35.6508 10.6301 35.6558 10.7125 35.6833C10.7946 35.7111 10.8672 35.761 10.9304 35.8328Z" fill="#FEFEFE"/>
<path d="M8.64724 32.4951C8.69776 32.5651 8.72931 32.6383 8.74192 32.7145C8.75452 32.7907 8.74873 32.8633 8.72456 32.9321C8.70039 33.001 8.6584 33.0594 8.59859 33.1074L8.49526 32.964C8.54658 32.9186 8.57428 32.8605 8.57836 32.7898C8.58176 32.719 8.56093 32.6523 8.51586 32.5898C8.4797 32.5396 8.43581 32.5035 8.38419 32.4814C8.33229 32.4589 8.2778 32.4513 8.22072 32.4586C8.16296 32.4658 8.108 32.4882 8.05585 32.5257C8.0025 32.5642 7.96339 32.6103 7.93852 32.6639C7.91297 32.7174 7.90269 32.7732 7.90768 32.8313C7.91267 32.8894 7.93377 32.9447 7.97097 32.9972C7.99755 33.0349 8.03102 33.0691 8.07138 33.0999C8.11134 33.131 8.14966 33.1527 8.18635 33.165L8.26951 33.3156L7.61418 33.6755L7.1561 33.0401L7.28747 32.9454L7.65601 33.4566L8.04769 33.2395L8.04253 33.2324C8.00454 33.2216 7.96534 33.2021 7.92494 33.1737C7.88453 33.1454 7.84955 33.1107 7.81999 33.0697C7.76603 32.9949 7.73587 32.9153 7.7295 32.8309C7.72246 32.7464 7.73773 32.6652 7.77533 32.5873C7.81264 32.509 7.87091 32.4413 7.95013 32.3842C8.02816 32.3279 8.11046 32.2952 8.19702 32.286C8.2829 32.2767 8.36552 32.2898 8.44486 32.3251C8.52381 32.3608 8.59127 32.4174 8.64724 32.4951Z" fill="#FEFEFE"/>
<path d="M6.9984 28.8176C7.03928 28.9058 7.06059 28.9914 7.06232 29.0744C7.06384 29.1571 7.04706 29.2311 7.01198 29.2966C6.97624 29.3619 6.92336 29.4129 6.85333 29.4497L6.77528 29.2814C6.8177 29.2574 6.84875 29.2246 6.86842 29.183C6.88764 29.1417 6.89592 29.0954 6.89326 29.0441C6.89059 28.9929 6.87708 28.941 6.85271 28.8884C6.82546 28.8297 6.79106 28.7823 6.74951 28.7464C6.70797 28.7105 6.66296 28.6881 6.61447 28.6792C6.56599 28.6703 6.5177 28.677 6.46962 28.6993C6.4193 28.7226 6.38078 28.7557 6.35406 28.7983C6.32688 28.8412 6.31354 28.8918 6.31402 28.95C6.31451 29.0082 6.33085 29.072 6.36307 29.1415L6.41386 29.251L6.26693 29.3192L6.21614 29.2096C6.19095 29.1553 6.15906 29.1122 6.12047 29.0803C6.08168 29.048 6.0391 29.0285 5.99275 29.0219C5.94618 29.0148 5.89886 29.0224 5.85077 29.0447C5.80447 29.0662 5.76892 29.0951 5.74414 29.1315C5.71935 29.1679 5.70606 29.2092 5.70426 29.2555C5.70225 29.3013 5.71292 29.3494 5.73625 29.3997C5.75814 29.4469 5.78747 29.4874 5.82424 29.5212C5.86036 29.5548 5.90077 29.5772 5.94545 29.5883C5.98969 29.5997 6.03503 29.596 6.08148 29.5772L6.15582 29.7375C6.08289 29.7681 6.0101 29.7756 5.93744 29.76C5.86433 29.7447 5.79746 29.7114 5.73683 29.6599C5.67599 29.6081 5.6273 29.5428 5.59075 29.464C5.55152 29.3794 5.53501 29.2988 5.54121 29.2224C5.54696 29.1461 5.57013 29.0789 5.61071 29.0205C5.6513 28.9622 5.70387 28.9181 5.76843 28.8882C5.84545 28.8524 5.92052 28.8422 5.99363 28.8576C6.06653 28.8725 6.12945 28.9095 6.18238 28.9689L6.19306 28.9639C6.16725 28.8709 6.1727 28.7864 6.20941 28.7104C6.24568 28.6346 6.30722 28.5766 6.39404 28.5364C6.4684 28.5019 6.54458 28.4912 6.62258 28.5042C6.69994 28.517 6.77164 28.5503 6.83769 28.6041C6.90374 28.6578 6.95731 28.729 6.9984 28.8176Z" fill="#FEFEFE"/>
<path d="M6.45435 24.7348C6.46891 24.8348 6.46405 24.9258 6.43977 25.0077C6.41493 25.0892 6.3743 25.1558 6.31787 25.2077C6.26096 25.2596 6.19215 25.2912 6.11146 25.3025C6.0484 25.3121 5.98831 25.3082 5.93121 25.2908C5.87363 25.2734 5.82368 25.2454 5.78138 25.2069C5.73852 25.168 5.70827 25.1221 5.69064 25.0691L5.6819 25.0704C5.67384 25.1445 5.64204 25.2071 5.58652 25.2584C5.5305 25.3097 5.46288 25.3408 5.38364 25.3519C5.30795 25.3634 5.23741 25.3541 5.17201 25.3239C5.10662 25.2938 5.05173 25.2472 5.00735 25.1842C4.9629 25.1208 4.93431 25.0453 4.92158 24.9579C4.90899 24.8715 4.91499 24.7917 4.93958 24.7187C4.96416 24.6457 5.00349 24.5854 5.05757 24.5379C5.11158 24.4898 5.17643 24.4601 5.25213 24.4485C5.33136 24.4375 5.40517 24.4488 5.47356 24.4825C5.54139 24.5158 5.58962 24.566 5.61826 24.6333L5.627 24.632C5.62887 24.5767 5.64487 24.5248 5.675 24.4762C5.70465 24.4278 5.74455 24.3868 5.79471 24.3532C5.84439 24.3197 5.90076 24.2981 5.96382 24.2884C6.04451 24.2771 6.11958 24.2885 6.18901 24.3226C6.25788 24.3562 6.31584 24.4085 6.36288 24.4795C6.40936 24.5501 6.43985 24.6352 6.45435 24.7348ZM6.29408 24.7581C6.28425 24.6906 6.26483 24.6339 6.23584 24.588C6.20684 24.5421 6.17049 24.5088 6.12677 24.4878C6.08306 24.4669 6.03445 24.4601 5.98096 24.4674C5.92469 24.4761 5.87703 24.4979 5.83798 24.5329C5.79893 24.5678 5.77062 24.6119 5.75307 24.665C5.73544 24.7177 5.73122 24.7756 5.74041 24.8387C5.74968 24.9023 5.77034 24.9573 5.80239 25.0038C5.83437 25.0497 5.87406 25.0838 5.92145 25.1062C5.96878 25.1281 6.02057 25.1347 6.07684 25.126C6.13034 25.1187 6.17509 25.099 6.21109 25.067C6.24703 25.0345 6.27232 24.9919 6.28696 24.9392C6.3016 24.8864 6.30397 24.8261 6.29408 24.7581ZM5.58597 24.8612C5.57819 24.8078 5.56062 24.762 5.53324 24.7238C5.50579 24.6851 5.47114 24.6567 5.42931 24.6385C5.38748 24.6203 5.34079 24.6147 5.28924 24.6217C5.2388 24.6295 5.19658 24.6478 5.16258 24.6766C5.12809 24.7054 5.10365 24.7419 5.08926 24.7862C5.07439 24.8305 5.07095 24.8801 5.07894 24.935C5.08707 24.9909 5.10462 25.0381 5.13158 25.0769C5.15806 25.1157 5.1919 25.1437 5.23311 25.161C5.27383 25.1784 5.31941 25.1832 5.36984 25.1753C5.4214 25.1683 5.46466 25.1504 5.49963 25.1215C5.53453 25.0921 5.55963 25.055 5.57492 25.0101C5.59021 24.9652 5.59389 24.9156 5.58597 24.8612Z" fill="#FEFEFE"/>
<path d="M7.01748 20.9818L6.88631 20.9629L6.41792 20.3928C6.36308 20.3259 6.31503 20.2704 6.27377 20.2263C6.23203 20.1821 6.19181 20.148 6.1531 20.1241C6.11398 20.0996 6.07158 20.0841 6.02592 20.0776C5.97345 20.07 5.92621 20.0761 5.8842 20.0959C5.84226 20.1151 5.80774 20.1449 5.78064 20.1851C5.75353 20.2253 5.7361 20.2724 5.72835 20.3263C5.7201 20.3836 5.72481 20.4354 5.74247 20.4816C5.75971 20.5272 5.78778 20.5647 5.82669 20.5941C5.86567 20.623 5.91358 20.6415 5.97042 20.6497L5.94569 20.8217C5.85825 20.8091 5.78439 20.7779 5.72412 20.7281C5.66385 20.6783 5.62025 20.616 5.59332 20.5412C5.56646 20.4659 5.55928 20.3848 5.57179 20.2979C5.58436 20.2104 5.61396 20.1356 5.66059 20.0734C5.70722 20.0112 5.76463 19.9654 5.83282 19.936C5.901 19.9066 5.97347 19.8975 6.05023 19.9085C6.10512 19.9164 6.15737 19.9341 6.20697 19.9615C6.25616 19.9884 6.30932 20.0308 6.36646 20.0886C6.42318 20.1458 6.4913 20.2238 6.57082 20.3225L6.88113 20.7093L6.89279 20.7109L6.99255 20.0172L7.15286 20.0403L7.01748 20.9818Z" fill="#FEFEFE"/>
<path d="M8.81646 16.7325C8.78033 16.811 8.73219 16.8744 8.67204 16.9229C8.61189 16.9714 8.5459 17.0021 8.47406 17.0149C8.40223 17.0278 8.33072 17.02 8.25953 16.9915L8.33343 16.831C8.39827 16.8533 8.46247 16.8488 8.52603 16.8176C8.58935 16.7857 8.63712 16.7347 8.66935 16.6648C8.69522 16.6086 8.70506 16.5526 8.69888 16.4968C8.6929 16.4406 8.6727 16.3894 8.63828 16.3433C8.60362 16.2965 8.55709 16.2597 8.49869 16.2328C8.43896 16.2053 8.37963 16.1939 8.32071 16.1986C8.26155 16.2027 8.2079 16.2213 8.15977 16.2542C8.11164 16.2872 8.0739 16.3327 8.04656 16.3909C8.02682 16.4326 8.01347 16.4786 8.00652 16.5289C7.99913 16.579 7.99911 16.623 8.00648 16.661L7.91632 16.8075L7.28047 16.4142L7.60811 15.7027L7.75522 15.7705L7.49163 16.3429L7.87334 16.577L7.87704 16.569C7.86768 16.5306 7.8654 16.4869 7.87019 16.4378C7.87498 16.3886 7.88795 16.3411 7.90909 16.2952C7.94769 16.2114 8.00213 16.146 8.07243 16.0989C8.14249 16.0512 8.22069 16.0245 8.30703 16.0189C8.39358 16.0128 8.48121 16.0302 8.56992 16.0711C8.6573 16.1113 8.72628 16.1669 8.77686 16.2377C8.82721 16.3079 8.85651 16.3862 8.86478 16.4727C8.8726 16.559 8.8565 16.6456 8.81646 16.7325Z" fill="#FEFEFE"/>
<path d="M10.6245 13.6293L10.5115 13.5303L10.16 12.341L10.2318 12.259L10.4067 12.4124L10.3582 12.4678L10.6239 13.3664L10.6327 13.3741L11.2209 12.7032L11.3427 12.81L10.6245 13.6293ZM11.3248 13.2994L11.058 13.0655L11.0054 13.0194L10.191 12.3056L10.3056 12.1749L11.4393 13.1688L11.3248 13.2994Z" fill="#FEFEFE"/>
<path d="M14.1123 11.2496L14.0416 11.1374L14.1723 10.4112C14.1877 10.3261 14.1988 10.2536 14.2057 10.1936C14.2123 10.1331 14.2121 10.0804 14.2052 10.0355C14.1985 9.98981 14.1829 9.94747 14.1583 9.90843C14.13 9.86359 14.0948 9.83156 14.0525 9.81237C14.0106 9.7929 13.9656 9.78589 13.9174 9.79132C13.8692 9.79675 13.8221 9.81398 13.776 9.84302C13.727 9.8739 13.6906 9.91102 13.6669 9.95439C13.6433 9.99708 13.633 10.0428 13.6358 10.0915C13.639 10.1399 13.656 10.1884 13.6866 10.237L13.5396 10.3296C13.4925 10.2548 13.4684 10.1784 13.4673 10.1002C13.4661 10.022 13.4853 9.94841 13.5248 9.87944C13.5647 9.81021 13.6219 9.75218 13.6962 9.70535C13.7709 9.65825 13.8471 9.6323 13.9247 9.62749C14.0023 9.62269 14.0744 9.63673 14.1409 9.66963C14.2075 9.70253 14.2614 9.75178 14.3028 9.81739C14.3323 9.86431 14.3527 9.91556 14.364 9.97113C14.3753 10.026 14.3775 10.094 14.3706 10.1749C14.3637 10.2552 14.3485 10.3576 14.3249 10.4822L14.2314 10.9691L14.2377 10.9791L14.8307 10.6055L14.917 10.7425L14.1123 11.2496Z" fill="#FEFEFE"/>
<path d="M17.1222 7.95928C17.1819 7.94314 17.2446 7.93787 17.3104 7.94348C17.3762 7.94909 17.4408 7.9708 17.5043 8.00862C17.5677 8.04597 17.6267 8.10469 17.6811 8.18479C17.7355 8.26489 17.7813 8.37159 17.8185 8.50491C17.8545 8.63397 17.8742 8.75204 17.8776 8.85912C17.8813 8.96559 17.8697 9.0595 17.843 9.14083C17.8167 9.22204 17.7759 9.28947 17.7206 9.34311C17.6657 9.39663 17.5974 9.43479 17.5156 9.4576C17.4343 9.48028 17.3572 9.48444 17.2844 9.47009C17.212 9.45514 17.1474 9.42449 17.0907 9.37815C17.0343 9.33121 16.9897 9.27103 16.957 9.19761L17.13 9.14936C17.1642 9.21166 17.2105 9.2581 17.269 9.28868C17.3278 9.31865 17.3955 9.32295 17.4721 9.30159C17.5841 9.27035 17.6589 9.19677 17.6963 9.08085C17.7343 8.96479 17.7284 8.81742 17.6785 8.63872L17.6672 8.64188C17.6518 8.68898 17.6299 8.73202 17.6015 8.77101C17.5732 8.81 17.539 8.84349 17.4989 8.87148C17.4588 8.89947 17.4137 8.92046 17.3636 8.93443C17.2804 8.95763 17.1983 8.95836 17.1173 8.93661C17.0367 8.91426 16.9655 8.87272 16.9037 8.81199C16.8423 8.75065 16.7985 8.67318 16.7724 8.57958C16.7476 8.4907 16.7448 8.40385 16.764 8.31903C16.7834 8.2336 16.8232 8.15882 16.8833 8.09468C16.9438 8.03042 17.0235 7.98528 17.1222 7.95928ZM17.1657 8.11528C17.1061 8.13189 17.0566 8.16175 17.0172 8.20485C16.9781 8.24734 16.9516 8.29753 16.9377 8.35542C16.9241 8.41271 16.9257 8.47161 16.9426 8.53212C16.9595 8.59263 16.9881 8.64401 17.0284 8.68627C17.0691 8.72792 17.1166 8.75694 17.1711 8.77333C17.226 8.78912 17.2832 8.78871 17.3428 8.7721C17.3877 8.75957 17.4271 8.73916 17.461 8.71086C17.4947 8.68208 17.5217 8.64831 17.542 8.60954C17.5626 8.57016 17.5757 8.52855 17.5813 8.4847C17.5868 8.44037 17.5835 8.3967 17.5715 8.35368C17.5557 8.29695 17.5272 8.24759 17.4859 8.2056C17.4451 8.16347 17.3966 8.1337 17.3402 8.11629C17.2844 8.09874 17.2262 8.09841 17.1657 8.11528Z" fill="#FEFEFE"/>
<path d="M17.2828 14.8684C17.5833 14.888 17.8246 14.984 18.0425 15.1931C18.2402 15.4254 18.3638 15.6719 18.3742 15.9799C18.354 16.151 18.3303 16.3261 18.2426 16.4765C18.4835 16.6814 18.7474 16.8432 19.017 17.0069C19.1266 17.0735 19.2359 17.1404 19.3453 17.2074C19.4008 17.2413 19.4562 17.2752 19.5117 17.3091C19.7506 17.4552 19.9882 17.6033 20.2254 17.7524C20.2999 17.7992 20.3745 17.846 20.449 17.8928C20.4859 17.9159 20.5227 17.939 20.5607 17.9629C20.7637 18.0902 20.9671 18.2168 21.1706 18.3435C21.2329 18.3824 21.2329 18.3824 21.2965 18.422C21.3807 18.4744 21.465 18.5269 21.5492 18.5793C21.7164 18.6835 21.8837 18.7877 22.0509 18.8919C22.1337 18.9435 22.2164 18.9951 22.2991 19.0466C22.4933 19.1676 22.6875 19.2886 22.8816 19.4099C22.9725 19.4667 23.0636 19.5235 23.1546 19.5803C23.2183 19.6201 23.2819 19.6599 23.3456 19.6998C23.4557 19.7685 23.566 19.8367 23.6764 19.9049C23.7055 19.9232 23.7347 19.9415 23.7647 19.9604C23.9508 20.0744 24.0679 20.1065 24.2787 20.0587C24.4928 19.9894 24.6075 19.8742 24.7164 19.6814C24.7621 19.5528 24.7911 19.4225 24.8193 19.2891C24.8359 19.2159 24.8525 19.1427 24.8691 19.0696C24.8769 19.0345 24.8847 18.9995 24.8927 18.9634C24.9192 18.8468 24.9494 18.7314 24.981 18.616C25.037 18.4083 25.0886 18.1996 25.1396 17.9906C25.2004 17.7416 25.2635 17.4935 25.3301 17.246C25.3747 17.0755 25.4165 16.9043 25.4583 16.7331C25.5578 16.3257 25.6624 15.9202 25.7818 15.5181C25.7549 15.4999 25.728 15.4818 25.7003 15.4631C25.5162 15.3007 25.3828 15.1203 25.3462 14.8733C25.3339 14.669 25.3914 14.4972 25.5067 14.3293C25.6783 14.1878 25.846 14.0688 26.0681 14.0366C26.3647 14.0908 26.5623 14.1593 26.7526 14.399C26.8656 14.6093 26.9151 14.7832 26.8522 15.0182C26.7835 15.2144 26.6958 15.3302 26.5353 15.461C26.5112 15.4807 26.4871 15.5004 26.4622 15.5207C26.4438 15.5357 26.4253 15.5507 26.4063 15.5662C26.429 15.6143 26.429 15.6143 26.4522 15.6634C26.8202 16.4436 27.1881 17.2238 27.5559 18.0041C27.7337 18.3815 27.9116 18.7588 28.0896 19.1361C28.2447 19.4648 28.3997 19.7936 28.5546 20.1224C28.6367 20.2966 28.7188 20.4708 28.801 20.6449C28.8783 20.8086 28.9555 20.9724 29.0326 21.1363C29.061 21.1965 29.0894 21.2568 29.1179 21.317C29.1566 21.3989 29.1952 21.4809 29.2338 21.563C29.2509 21.5991 29.2509 21.5991 29.2683 21.6359C29.3454 21.8006 29.3454 21.8006 29.3564 21.8951C29.2791 21.9953 29.1809 22.0663 29.08 22.1418C29.0278 22.1809 29.0278 22.1809 28.9746 22.2208C28.9366 22.2491 28.8986 22.2774 28.8594 22.3066C28.8196 22.3364 28.7798 22.3661 28.7388 22.3968C28.2355 22.7728 27.7299 23.1458 27.2232 23.5172C27.1855 23.5449 27.1478 23.5725 27.1089 23.6011C24.9037 25.2146 22.5872 26.7228 20.2228 28.0922C20.2003 28.1052 20.1779 28.1183 20.1547 28.1317C19.5914 28.4579 19.0266 28.7818 18.4603 29.1028C18.4193 29.1261 18.3783 29.1495 18.336 29.1735C18.2982 29.1949 18.2603 29.2163 18.2213 29.2383C18.1885 29.2569 18.1556 29.2755 18.1218 29.2947C18.0325 29.3416 17.9431 29.3799 17.8488 29.4156C17.6085 29.1912 17.3956 28.9442 17.1806 28.696C17.1389 28.6481 17.0973 28.6002 17.0556 28.5523C16.9431 28.4229 16.8307 28.2933 16.7183 28.1637C16.6243 28.0554 16.5303 27.9472 16.4363 27.8389C16.2145 27.5835 15.9928 27.3281 15.7712 27.0726C15.5427 26.8092 15.314 26.5459 15.0853 26.2827C14.8886 26.0564 14.6921 25.83 14.4956 25.6035C14.3784 25.4684 14.2611 25.3333 14.1437 25.1983C14.0335 25.0715 13.9233 24.9445 13.8133 24.8175C13.7729 24.7709 13.7325 24.7244 13.6921 24.6779C13.6368 24.6144 13.5817 24.5507 13.5266 24.487C13.4957 24.4515 13.4649 24.4159 13.4331 24.3793C13.3568 24.2858 13.2906 24.1905 13.2267 24.0882C13.1949 24.113 13.1949 24.113 13.1625 24.1382C12.9774 24.2721 12.8355 24.3536 12.6035 24.3403C12.3976 24.3054 12.252 24.2478 12.1129 24.0875C11.9896 23.9106 11.8952 23.7574 11.9078 23.536C11.9635 23.2705 12.0324 23.1288 12.2618 22.9739C12.4494 22.8548 12.5822 22.7945 12.8066 22.8415C13.0491 22.906 13.1519 22.9868 13.2904 23.1998C13.3261 23.254 13.3261 23.254 13.3624 23.3094C13.4235 23.4122 13.4235 23.4122 13.4442 23.4963C13.4712 23.572 13.4712 23.572 13.5701 23.5953C13.63 23.6058 13.63 23.6058 13.6911 23.6165C13.7301 23.6238 13.7691 23.631 13.8093 23.6385C13.92 23.6558 14.0305 23.6717 14.1415 23.687C14.3549 23.7166 14.5665 23.7539 14.7784 23.7926C15.0842 23.8477 15.3902 23.9007 15.6969 23.9506C15.8537 23.9761 16.0104 24.0021 16.1671 24.0284C16.2081 24.0353 16.2081 24.0353 16.2499 24.0422C16.4017 24.0678 16.5533 24.0941 16.7048 24.1214C17.4429 24.3034 17.4429 24.3034 18.1329 24.1304C18.2714 24.0181 18.317 23.8965 18.3463 23.7245C18.3635 23.5556 18.3437 23.4003 18.3169 23.2334C18.3098 23.1863 18.3098 23.1863 18.3025 23.1382C18.2869 23.0353 18.2708 22.9324 18.2546 22.8295C18.2435 22.7568 18.2324 22.6841 18.2214 22.6114C18.1986 22.4614 18.1755 22.3114 18.1524 22.1615C18.1206 21.9553 18.0896 21.749 18.059 21.5426C18.0543 21.5109 18.0496 21.4791 18.0448 21.4464C18.0353 21.3829 18.0259 21.3194 18.0165 21.2559C17.9564 20.8507 17.8955 20.4455 17.8341 20.0404C17.8296 20.0107 17.8251 19.981 17.8204 19.9504C17.7979 19.8018 17.7754 19.6533 17.7527 19.5047C17.7023 19.1724 17.6531 18.8399 17.6051 18.5072C17.5943 18.4326 17.5835 18.358 17.5726 18.2834C17.5519 18.1401 17.5313 17.9967 17.511 17.8533C17.5015 17.7878 17.492 17.7223 17.4825 17.6568C17.4763 17.6125 17.4763 17.6125 17.47 17.5673C17.4442 17.3916 17.4043 17.2297 17.3475 17.0614C17.3016 17.0632 17.2557 17.0649 17.2085 17.0668C16.9532 17.0574 16.7217 16.9352 16.524 16.7785C16.3262 16.5259 16.1894 16.2843 16.1714 15.9597C16.1892 15.8169 16.1892 15.8169 16.2267 15.6955C16.2413 15.6379 16.2413 15.6379 16.2563 15.5792C16.4279 15.1528 16.8248 14.8874 17.2828 14.8684ZM20.9591 22.8668C20.8949 23.477 21.2223 24.0466 21.5795 24.5141C21.815 24.7851 22.0888 24.9733 22.4214 25.1044C22.4599 25.1215 22.4984 25.1387 22.5381 25.1564C22.781 25.2073 23.0034 25.1929 23.2194 25.0647C23.4362 24.9036 23.5331 24.7194 23.5798 24.4557C23.6456 23.8063 23.3672 23.2352 22.9726 22.7369C22.6466 22.367 22.251 22.1039 21.7562 22.0506C21.2504 22.0329 21.0407 22.428 20.9591 22.8668ZM17.7622 26.1421C17.7463 26.4556 17.8543 26.6752 18.0411 26.9178C18.3043 27.1961 18.6759 27.4829 19.0708 27.5036C19.338 27.508 19.507 27.5 19.7214 27.3251C19.8368 27.1506 19.8542 26.9785 19.8284 26.7733C19.6517 26.3096 19.3013 26.0092 18.856 25.8072C18.6066 25.7187 18.3526 25.6739 18.0942 25.7426C17.8992 25.8418 17.8224 25.9312 17.7622 26.1421ZM25.6638 21.1834C25.621 21.6292 25.7231 22.1332 26.004 22.4893C26.1805 22.6568 26.3533 22.7798 26.6036 22.796C26.7951 22.7404 26.9345 22.6388 27.0435 22.4743C27.2344 22.109 27.2042 21.6866 27.1021 21.3C27.0054 21.0266 26.8407 20.726 26.5869 20.5716C26.515 20.5374 26.515 20.5374 26.4458 20.5127C26.4112 20.4986 26.3766 20.4846 26.3409 20.4701C25.9367 20.4639 25.7319 20.826 25.6638 21.1834Z" fill="#E30808"/>
<path d="M18.6045 30.8986C18.632 30.8828 18.6596 30.867 18.688 30.8507C19.0123 30.6656 19.3408 30.4882 19.6691 30.3103C20.2391 30.0011 20.8068 29.6884 21.3668 29.3612C21.3904 29.3474 21.4141 29.3336 21.4384 29.3194C21.5853 29.2337 21.7316 29.1469 21.8775 29.0596C21.9393 29.0227 22.0012 28.9858 22.0632 28.949C22.8558 28.4777 23.6278 27.9754 24.3993 27.4706C24.449 27.4381 24.449 27.4381 24.4997 27.405C26.4388 26.1368 28.3347 24.8042 30.152 23.3653C30.6671 22.9595 30.6671 22.9595 30.9598 22.9465C31.1591 22.9794 31.3237 23.0269 31.448 23.1952C31.4685 23.226 31.489 23.2569 31.5101 23.2887C31.5334 23.3237 31.5567 23.3587 31.5807 23.3948C31.6183 23.4518 31.6183 23.4518 31.6565 23.5099C31.6823 23.5489 31.7081 23.5879 31.7346 23.6281C31.7891 23.7108 31.8435 23.7936 31.8978 23.8764C31.9809 24.0029 32.0647 24.1289 32.1485 24.255C32.2013 24.3353 32.2541 24.4157 32.3068 24.4962C32.332 24.5338 32.3571 24.5714 32.383 24.6101C32.5254 24.8293 32.6062 24.9849 32.5847 25.2521C32.518 25.5144 32.3662 25.6477 32.1634 25.8178C32.1349 25.8428 32.1064 25.8677 32.077 25.8935C31.7066 26.2146 31.3241 26.5222 30.9454 26.8334C30.9745 26.8146 31.0036 26.7957 31.0335 26.7763C31.3076 26.5989 31.5821 26.4221 31.857 26.246C31.9983 26.1555 32.1395 26.0647 32.2803 25.9734C32.4162 25.8852 32.5524 25.7978 32.689 25.7107C32.7411 25.6774 32.793 25.6438 32.8448 25.61C32.9172 25.5627 32.9902 25.5163 33.0632 25.47C33.1047 25.4434 33.1461 25.4167 33.1888 25.3892C33.2997 25.3404 33.2997 25.3404 33.4012 25.3594C33.4792 25.4056 33.4792 25.4056 33.528 25.4934C33.5517 25.5863 33.5517 25.5863 33.5295 25.692C33.438 25.7633 33.438 25.7633 33.3107 25.8468C33.2873 25.8622 33.2639 25.8777 33.2398 25.8936C33.1605 25.9458 33.081 25.9976 33.0014 26.0493C32.9443 26.0869 32.8872 26.1244 32.8301 26.1619C32.6725 26.2655 32.5146 26.3686 32.3567 26.4717C32.1867 26.5828 32.017 26.6942 31.8472 26.8056C31.5143 27.024 31.1812 27.2419 30.8479 27.4598C30.5772 27.6367 30.3065 27.8138 30.0359 27.991C29.2694 28.4927 28.5028 28.9941 27.7359 29.4952C27.6945 29.5223 27.6532 29.5493 27.6105 29.5772C27.5691 29.6042 27.5277 29.6313 27.485 29.6592C26.8133 30.0982 26.1419 30.5378 25.4708 30.9777C24.7824 31.4288 24.0938 31.8795 23.4048 32.3297C23.0177 32.5827 22.6307 32.8358 22.2441 33.0895C21.9149 33.3055 21.5855 33.521 21.2556 33.7359C21.0872 33.8457 20.919 33.9556 20.7511 34.0661C20.5975 34.1672 20.4436 34.2676 20.2894 34.3676C20.2335 34.404 20.1777 34.4406 20.1221 34.4775C20.0469 34.5273 19.9711 34.5763 19.8952 34.6252C19.8531 34.6527 19.8111 34.6802 19.7677 34.7086C19.6565 34.7585 19.6565 34.7585 19.5549 34.7397C19.4523 34.6785 19.4337 34.6268 19.4046 34.5126C19.4365 34.36 19.5161 34.3358 19.6445 34.25C19.6673 34.2346 19.6902 34.2192 19.7138 34.2033C19.7896 34.1524 19.8657 34.1019 19.9418 34.0514C19.9943 34.0162 20.0469 33.9809 20.0994 33.9457C20.2378 33.8529 20.3764 33.7605 20.5151 33.6682C20.6565 33.5739 20.7977 33.4793 20.939 33.3847C21.2162 33.1991 21.4936 33.0139 21.7713 32.829C21.74 32.8449 21.74 32.8449 21.7081 32.8611C21.4902 32.9717 21.272 33.0817 21.0535 33.1912C20.9721 33.2321 20.8909 33.2732 20.8097 33.3144C20.6926 33.3739 20.5753 33.4327 20.4578 33.4914C20.4039 33.519 20.4039 33.519 20.3489 33.5473C20.0853 33.6777 19.8407 33.7672 19.5492 33.6825C19.3792 33.6166 19.3298 33.5697 19.2298 33.4199C19.2056 33.3837 19.1813 33.3474 19.1563 33.3101C19.1302 33.2706 19.1041 33.2312 19.0771 33.1905C19.0503 33.1501 19.0235 33.1096 18.9959 33.068C18.9392 32.9822 18.8826 32.8963 18.8261 32.8104C18.7539 32.7006 18.6809 32.5913 18.6077 32.4822C18.5379 32.3777 18.4691 32.2726 18.4 32.1675C18.3737 32.1285 18.3475 32.0895 18.3204 32.0494C18.1587 31.8006 18.1024 31.6685 18.1559 31.376C18.2405 31.1117 18.3693 31.0322 18.6045 30.8986ZM20.6217 30.6491C20.6089 30.7119 20.6089 30.7119 20.596 30.7759C20.5867 30.8211 20.5774 30.8663 20.5678 30.9128C20.5583 30.9603 20.5488 31.0079 20.539 31.0569C20.5293 31.1046 20.5195 31.1523 20.5095 31.2015C20.4854 31.3197 20.4615 31.438 20.4378 31.5564C20.5577 31.6362 20.6672 31.6661 20.8078 31.6945C20.8503 31.7032 20.8927 31.7119 20.9365 31.7209C20.9806 31.7297 21.0247 31.7385 21.0702 31.7475C21.1373 31.7612 21.1373 31.7612 21.2057 31.7752C21.316 31.7976 21.4263 31.8198 21.5367 31.8418C21.6101 31.6005 21.6688 31.3598 21.7188 31.1127C21.7258 31.0789 21.7327 31.0452 21.7399 31.0104C21.7568 30.9282 21.7735 30.846 21.7902 30.7638C21.5502 30.6912 21.3104 30.6307 21.065 30.5791C21.0318 30.5718 20.9986 30.5645 20.9643 30.557C20.9168 30.547 20.9168 30.547 20.8684 30.5367C20.8399 30.5307 20.8114 30.5246 20.782 30.5183C20.665 30.505 20.6519 30.5388 20.6217 30.6491ZM29.223 25.032C29.2093 25.0983 29.2093 25.0983 29.1954 25.1659C29.1855 25.2135 29.1756 25.2611 29.1654 25.3102C29.155 25.361 29.1446 25.4117 29.1342 25.4625C29.1237 25.5133 29.1132 25.5641 29.1026 25.615C29.0768 25.7399 29.0511 25.8648 29.0254 25.9897C29.2577 26.0611 29.4901 26.1182 29.7282 26.1663C29.775 26.1759 29.775 26.1759 29.8229 26.1857C29.8987 26.2013 29.9747 26.2167 30.0506 26.2321C30.1277 26.1153 30.1587 26.0104 30.1863 25.8737C30.1945 25.8336 30.2027 25.7935 30.2112 25.7522C30.2236 25.6898 30.2236 25.6898 30.2362 25.6261C30.2448 25.5839 30.2534 25.5417 30.2622 25.4983C30.2834 25.3942 30.3043 25.2902 30.325 25.1861C30.2085 25.1094 30.1037 25.0778 29.9676 25.0497C29.9077 25.0372 29.9077 25.0372 29.8467 25.0245C29.8052 25.0161 29.7637 25.0078 29.721 24.9992C29.6581 24.986 29.6581 24.986 29.5939 24.9726C29.3497 24.8861 29.3497 24.8861 29.223 25.032ZM25.092 28.1423C25.0831 28.1864 25.0741 28.2304 25.0649 28.2758C25.0551 28.3234 25.0454 28.3709 25.0353 28.42C25.0251 28.4705 25.015 28.5211 25.0049 28.5717C24.9945 28.6224 24.9841 28.6732 24.9737 28.7239C24.9483 28.8484 24.9231 28.973 24.8981 29.0976C25.1394 29.171 25.3801 29.2297 25.6273 29.2797C25.661 29.2867 25.6948 29.2936 25.7296 29.3008C25.8118 29.3177 25.8939 29.3344 25.9761 29.3511C26.0495 29.1098 26.1082 28.8691 26.1582 28.6219C26.1652 28.5882 26.1721 28.5544 26.1793 28.5196C26.1962 28.4375 26.213 28.3553 26.2296 28.2731C26.1136 28.1969 26.0088 28.1645 25.8734 28.1359C25.8336 28.1275 25.7938 28.1191 25.7529 28.1105C25.7115 28.102 25.6702 28.0936 25.6276 28.0849C25.586 28.0759 25.5443 28.067 25.5014 28.0578C25.4617 28.0495 25.422 28.0413 25.3812 28.0328C25.3448 28.0252 25.3084 28.0177 25.271 28.0099C25.14 27.9932 25.1263 28.0158 25.092 28.1423Z" fill="#DE7E29"/>
<path d="M18.0625 29.6816C18.0863 29.6682 18.11 29.6547 18.1345 29.6409C18.3677 29.5089 18.6008 29.3767 18.8338 29.2442C18.9533 29.1763 19.0729 29.1084 19.1926 29.0407C20.7399 28.1653 22.248 27.2355 23.7344 26.2603C23.8839 26.1622 24.0337 26.0645 24.1835 25.9669C25.7056 24.976 27.1949 23.9461 28.6443 22.8516C28.7297 22.7874 28.8152 22.7232 28.9007 22.6589C29.1027 22.5072 29.3045 22.3551 29.5061 22.2028C29.5447 22.2726 29.5832 22.3424 29.6216 22.4123C29.643 22.4511 29.6645 22.49 29.6866 22.5301C29.7511 22.6492 29.8097 22.7684 29.8652 22.8919C29.8825 22.9298 29.8997 22.9677 29.9175 23.0068C29.9534 23.0966 29.9534 23.0966 29.9423 23.1495C29.896 23.1889 29.8481 23.2264 29.7997 23.2632C29.7529 23.2988 29.7529 23.2988 29.7052 23.3351C29.6707 23.3611 29.6363 23.3871 29.6008 23.4138C29.5651 23.4409 29.5295 23.4679 29.4927 23.4958C29.3752 23.5848 29.2575 23.6736 29.1397 23.7624C29.0996 23.7927 29.0595 23.8229 29.0182 23.8541C28.5022 24.2438 27.984 24.6305 27.4595 25.0087C27.4352 25.0263 27.4108 25.0439 27.3858 25.062C27.2347 25.1708 27.0831 25.2788 26.9311 25.3863C26.8657 25.4324 26.8004 25.4787 26.7351 25.5251C25.9476 26.0833 25.143 26.6146 24.3347 27.1421C24.3013 27.1639 24.2679 27.1857 24.2335 27.2082C22.6418 28.2477 21.0225 29.2244 19.3624 30.1506C19.3254 30.1713 19.2885 30.192 19.2504 30.2133C19.0878 30.3036 18.9271 30.3911 18.7544 30.4611C18.6841 30.3874 18.614 30.3135 18.5439 30.2394C18.5244 30.219 18.505 30.1986 18.4849 30.1776C18.3766 30.0629 18.2738 29.9458 18.1753 29.8226C18.154 29.7961 18.1328 29.7696 18.1109 29.7423C18.0949 29.7223 18.079 29.7023 18.0625 29.6816Z" fill="#F9E342"/>
<path d="M14.4697 19.8925C14.67 19.9087 14.8358 19.939 14.997 20.0667C15.1488 20.2648 15.2854 20.4463 15.2771 20.7048C15.2568 20.8264 15.2568 20.8264 15.2328 20.9162C15.391 21.0446 15.5694 21.1047 15.7581 21.1746C15.8296 21.2015 15.9012 21.2285 15.9728 21.2555C16.0094 21.2692 16.0459 21.2829 16.0836 21.297C16.3514 21.3976 16.6182 21.5007 16.8851 21.6037C16.9878 21.6432 17.0907 21.6821 17.1935 21.7211C17.2606 21.7469 17.3277 21.7727 17.3947 21.7985C17.4257 21.8102 17.4568 21.8218 17.4887 21.8338C17.5175 21.8449 17.5463 21.8561 17.576 21.8677C17.6012 21.8773 17.6264 21.8869 17.6524 21.8968C17.7477 21.9478 17.7954 21.9844 17.8595 22.0735C17.8926 22.1904 17.9076 22.3085 17.9229 22.4288C17.9277 22.4634 17.9326 22.4981 17.9375 22.5339C17.9475 22.6071 17.9573 22.6804 17.9667 22.7538C17.9813 22.8659 17.9969 22.9778 18.0127 23.0898C18.0223 23.1611 18.0319 23.2323 18.0414 23.3036C18.046 23.3371 18.0507 23.3705 18.0556 23.4049C18.0924 23.6987 18.0924 23.6987 18.0128 23.8437C17.9379 23.9211 17.9379 23.9211 17.821 23.969C17.6842 23.9666 17.5531 23.9382 17.419 23.9124C17.3423 23.8996 17.2656 23.8868 17.1889 23.8743C17.0869 23.8576 16.9849 23.8408 16.8834 23.8216C16.8058 23.8087 16.8058 23.8087 16.7281 23.818C16.6209 23.8217 16.5555 23.8093 16.4566 23.7659C16.3011 23.6031 16.1847 23.4167 16.0636 23.2276C16.0274 23.1729 15.9911 23.1183 15.9548 23.0637C15.8596 22.9202 15.7657 22.776 15.6721 22.6315C15.5763 22.484 15.4791 22.3374 15.3821 22.1907C15.1922 21.9031 15.0037 21.6146 14.816 21.3255C14.7676 21.3482 14.7676 21.3482 14.7181 21.3714C14.533 21.4479 14.3862 21.4339 14.1966 21.3767C13.9735 21.251 13.8505 21.0736 13.7689 20.8349C13.7311 20.6361 13.7576 20.4298 13.8587 20.2541C14.0088 20.0749 14.2321 19.9147 14.4697 19.8925Z" fill="#DE7E29"/>
<path d="M22.7085 14.5011C22.91 14.507 23.0972 14.5719 23.2469 14.709C23.4092 14.9004 23.4839 15.0835 23.4742 15.3359C23.4449 15.5085 23.3825 15.6553 23.2688 15.7895C23.2372 15.8102 23.2055 15.8309 23.1729 15.8522C23.2025 15.8963 23.2025 15.8963 23.2328 15.9414C23.4188 16.2191 23.6042 16.4974 23.7886 16.7762C23.8835 16.9196 23.9786 17.0627 24.0745 17.2054C24.167 17.3431 24.2587 17.4813 24.3498 17.6199C24.3847 17.6727 24.4199 17.7253 24.4554 17.7776C24.5051 17.8511 24.5537 17.9252 24.6022 17.9995C24.6244 18.0317 24.6244 18.0317 24.6472 18.0646C24.7254 18.1872 24.7404 18.2437 24.7221 18.3901C24.7096 18.4309 24.6971 18.4718 24.6843 18.5139C24.6766 18.5522 24.6689 18.5905 24.661 18.63C24.6154 18.8544 24.5655 19.0758 24.5001 19.2954C24.4793 19.3663 24.4622 19.4384 24.4462 19.5106C24.3741 19.6662 24.2989 19.7072 24.1432 19.7799C23.9563 19.7386 23.8079 19.6467 23.6507 19.5417C23.6267 19.5259 23.6027 19.5102 23.578 19.4939C23.5275 19.4608 23.4772 19.4275 23.4269 19.394C23.3504 19.3432 23.2736 19.2927 23.1968 19.2423C23.1476 19.2099 23.0984 19.1774 23.0493 19.1449C23.0266 19.13 23.0039 19.115 22.9805 19.0996C22.9182 19.0581 22.8565 19.0157 22.7948 18.9732C22.7587 18.9486 22.7225 18.9241 22.6853 18.8988C22.6056 18.8232 22.6056 18.8232 22.5852 18.7367C22.5867 18.7052 22.5882 18.6737 22.5898 18.6412C22.5917 18.5879 22.5917 18.5879 22.5936 18.5336C22.5959 18.4956 22.5983 18.4577 22.6007 18.4187C22.6023 18.3793 22.604 18.34 22.6057 18.2994C22.6109 18.181 22.6174 18.0626 22.6242 17.9443C22.6274 17.8817 22.6306 17.8191 22.6337 17.7565C22.6396 17.642 22.646 17.5276 22.6527 17.4131C22.679 16.9522 22.696 16.4896 22.6947 16.0278C22.6722 16.0221 22.6498 16.0164 22.6267 16.0105C22.3515 15.9361 22.1912 15.8518 22.0391 15.605C21.9502 15.4191 21.9403 15.2306 21.9928 15.0324C22.1272 14.7099 22.3612 14.526 22.7085 14.5011Z" fill="#DE7E29"/>
<path d="M33.8951 24.9455C33.9234 24.9269 33.9517 24.9083 33.9809 24.8891C34.0256 24.8604 34.0256 24.8604 34.0713 24.8311C34.1008 24.8115 34.1303 24.7918 34.1607 24.7716C34.2033 24.7439 34.2033 24.7439 34.2467 24.7157C34.2728 24.6988 34.2989 24.6818 34.3258 24.6644C34.3961 24.6302 34.3961 24.6302 34.5018 24.6523C34.583 24.759 34.583 24.759 34.6481 24.8761C34.6215 25.003 34.6003 25.0102 34.4957 25.079C34.4557 25.1054 34.4557 25.1054 34.4148 25.1323C34.3867 25.1503 34.3585 25.1684 34.3295 25.187C34.3018 25.2054 34.274 25.2239 34.2455 25.2429C34.2186 25.2603 34.1918 25.2778 34.1641 25.2957C34.1395 25.3117 34.1149 25.3277 34.0896 25.3441C34.0186 25.3787 34.0186 25.3787 33.8809 25.3775C33.7978 25.2721 33.7978 25.2721 33.7347 25.1537C33.7618 25.0242 33.7878 25.0161 33.8951 24.9455Z" fill="#E30808"/>
<path d="M18.6343 34.9109C18.6675 34.8894 18.6675 34.8894 18.7013 34.8676C18.723 34.8526 18.7447 34.8377 18.7671 34.8223C18.8311 34.7804 18.8311 34.7804 18.9476 34.7209C19.0742 34.775 19.0742 34.775 19.1419 34.8961C19.1573 34.9368 19.1726 34.9776 19.1885 35.0196C19.1245 35.1292 19.0308 35.1761 18.9256 35.2456C18.8657 35.2857 18.8657 35.2857 18.8046 35.3266C18.6979 35.3858 18.6979 35.3858 18.5922 35.3637C18.5111 35.257 18.5111 35.257 18.446 35.1399C18.4735 35.0087 18.5264 34.9831 18.6343 34.9109Z" fill="#E30808"/>
<path d="M46.4839 28.6292L43.7705 10.3039H47.2704L48.3714 17.8542C48.4239 18.2081 48.4763 18.5817 48.5287 18.975C48.5812 19.3551 48.6205 19.8205 48.6467 20.371C48.9482 19.8205 49.2235 19.3551 49.4725 18.975C49.7347 18.5817 49.9838 18.2081 50.2197 17.8542L55.6269 9.71401L57.0229 17.8542C57.0884 18.2081 57.1605 18.5817 57.2392 18.975C57.3178 19.3551 57.3702 19.8205 57.3965 20.371C57.698 19.8205 57.9667 19.3551 58.2026 18.975C58.4386 18.5817 58.668 18.2081 58.8908 17.8542L63.7277 10.3039H67.5226L55.6858 28.6292L54.2112 19.8991C54.1587 19.5452 54.0997 19.1716 54.0342 18.7784C53.9687 18.3851 53.9228 17.9132 53.8966 17.3627C53.5951 17.9132 53.3133 18.3851 53.0511 18.7784C52.802 19.1585 52.5595 19.5255 52.3236 19.8794L46.4839 28.6292ZM65.2344 28L69.6584 10.3039H73.3156L68.8916 28H65.2344ZM86.5588 28.5899L78.6939 17.461L76.0788 28H72.7755L77.3372 9.71401L85.2021 20.8232L87.8172 10.3039H91.1205L86.5588 28.5899ZM93.0474 13.4892L93.8339 10.3039H106.143L105.356 13.4892H101.03L97.3928 28H93.7356L97.3731 13.4892H93.0474ZM104.533 28L108.918 10.3039H113.952C114.922 10.3039 115.793 10.5202 116.567 10.9527C117.34 11.3722 117.95 11.949 118.395 12.683C118.854 13.4171 119.083 14.2429 119.083 15.1605C119.083 15.8814 118.939 16.5827 118.651 17.2644C118.362 17.9329 117.963 18.5424 117.451 19.093C116.953 19.6304 116.377 20.0826 115.721 20.4497L118.395 28H114.758L112.497 21.2755H109.626L107.955 28H104.533ZM110.353 18.3261H112.634C113.185 18.3261 113.689 18.2016 114.148 17.9525C114.607 17.7035 114.967 17.3692 115.23 16.9498C115.505 16.5303 115.643 16.0715 115.643 15.5734C115.643 14.9442 115.42 14.4395 114.974 14.0594C114.528 13.6792 113.938 13.4892 113.204 13.4892H111.553L110.353 18.3261ZM129.261 28.3539C127.701 28.3539 126.292 27.9934 125.034 27.2725C123.788 26.5515 122.799 25.575 122.065 24.3428C121.344 23.1106 120.983 21.7343 120.983 20.2137C120.983 18.8636 121.265 17.579 121.829 16.3599C122.392 15.1277 123.159 14.0332 124.129 13.0763C125.099 12.1063 126.207 11.346 127.452 10.7954C128.698 10.2318 130.008 9.94996 131.385 9.94996C132.958 9.94996 134.367 10.3104 135.612 11.0314C136.857 11.7523 137.841 12.7289 138.561 13.9611C139.296 15.1933 139.663 16.5762 139.663 18.1098C139.663 19.4469 139.381 20.7315 138.817 21.9637C138.267 23.1958 137.5 24.2904 136.517 25.2473C135.547 26.2042 134.439 26.9644 133.194 27.5281C131.948 28.0786 130.638 28.3539 129.261 28.3539ZM129.654 24.9327C130.48 24.9327 131.267 24.7557 132.014 24.4018C132.774 24.0479 133.449 23.5629 134.039 22.9468C134.629 22.3307 135.088 21.6294 135.415 20.8429C135.756 20.0564 135.927 19.2371 135.927 18.3851C135.927 17.4282 135.71 16.5762 135.278 15.829C134.858 15.0687 134.275 14.4723 133.528 14.0397C132.794 13.594 131.955 13.3712 131.011 13.3712C130.185 13.3712 129.392 13.5482 128.632 13.9021C127.872 14.256 127.197 14.741 126.607 15.3571C126.03 15.9601 125.571 16.6548 125.23 17.4413C124.89 18.2147 124.719 19.0274 124.719 19.8794C124.719 20.8232 124.935 21.6818 125.368 22.4552C125.801 23.2155 126.39 23.8185 127.138 24.2642C127.885 24.7098 128.724 24.9327 129.654 24.9327ZM154.219 28.5899L146.354 17.461L143.739 28H140.436L144.997 9.71401L152.862 20.8232L155.477 10.3039H158.781L154.219 28.5899Z" fill="url(#paint0_linear_1442_11)"/>
<path d="M45.6342 41.5059V36.585H46.8535C47.1779 36.585 47.4513 36.6342 47.6737 36.7326C47.8996 36.831 48.0819 36.9604 48.2204 37.1208C48.3589 37.2776 48.4592 37.4489 48.5211 37.6348C48.5867 37.8207 48.6196 38.0029 48.6196 38.1815C48.6196 38.3565 48.5886 38.5369 48.5266 38.7228C48.4646 38.9087 48.3644 39.0819 48.2259 39.2423C48.0874 39.4026 47.9051 39.532 47.6791 39.6305C47.4531 39.7289 47.1779 39.7781 46.8535 39.7781H46.2575V41.5059H45.6342ZM46.2575 39.2204H46.8207C47.116 39.2204 47.3492 39.1694 47.5206 39.0673C47.6919 38.9616 47.814 38.8304 47.8869 38.6736C47.9598 38.5132 47.9962 38.3492 47.9962 38.1815C47.9962 38.0212 47.9598 37.8608 47.8869 37.7004C47.8176 37.54 47.6973 37.407 47.526 37.3013C47.3584 37.1956 47.1232 37.1427 46.8207 37.1427H46.2575V39.2204ZM51.2965 41.5059V36.2569H51.887V41.5059H51.2965ZM56.229 41.5496C55.9301 41.5496 55.6567 41.4749 55.4089 41.3254C55.161 41.1723 54.9623 40.9682 54.8129 40.7131C54.6671 40.4579 54.5942 40.1754 54.5942 39.8656C54.5942 39.5557 54.6671 39.2732 54.8129 39.0181C54.9623 38.7629 55.161 38.5606 55.4089 38.4112C55.6567 38.2581 55.9301 38.1815 56.229 38.1815C56.455 38.1815 56.6664 38.2235 56.8633 38.3073C57.0637 38.3911 57.2369 38.5078 57.3827 38.6572V38.2253H57.9294V41.5059H57.3827V41.0739C57.2369 41.2197 57.0637 41.3364 56.8633 41.4238C56.6664 41.5077 56.455 41.5496 56.229 41.5496ZM56.3056 41.0138C56.5133 41.0138 56.701 40.9627 56.8687 40.8607C57.04 40.755 57.1749 40.6165 57.2733 40.4451C57.3754 40.2702 57.4264 40.077 57.4264 39.8656C57.4264 39.6542 57.3754 39.4628 57.2733 39.2915C57.1749 39.1165 57.04 38.978 56.8687 38.8759C56.701 38.7702 56.5133 38.7174 56.3056 38.7174C56.0978 38.7174 55.9082 38.7702 55.7369 38.8759C55.5692 38.978 55.4344 39.1165 55.3323 39.2915C55.2339 39.4628 55.1847 39.6542 55.1847 39.8656C55.1847 40.077 55.2339 40.2702 55.3323 40.4451C55.4344 40.6165 55.5692 40.755 55.7369 40.8607C55.9082 40.9627 56.0978 41.0138 56.3056 41.0138ZM60.7287 43.1461L61.7949 41.0247L60.4061 38.2253H61.0732L61.773 39.6469C61.835 39.7744 61.8951 39.9002 61.9535 40.0241C62.0118 40.1481 62.0701 40.2975 62.1284 40.4725C62.1904 40.2975 62.2487 40.1481 62.3034 40.0241C62.3617 39.8966 62.4237 39.7708 62.4893 39.6469L63.2001 38.2253H63.8289L61.3684 43.1461H60.7287ZM72.2021 41.6043C71.8449 41.6043 71.5113 41.5387 71.2015 41.4074C70.8917 41.2726 70.6183 41.0885 70.3814 40.8552C70.1481 40.6183 69.9658 40.3467 69.8346 40.0405C69.7034 39.7307 69.6378 39.399 69.6378 39.0454C69.6378 38.6919 69.7034 38.362 69.8346 38.0558C69.9695 37.746 70.1535 37.4744 70.3868 37.2411C70.6238 37.0042 70.8971 36.8201 71.207 36.6889C71.5168 36.554 71.8503 36.4866 72.2075 36.4866C72.5575 36.4866 72.8855 36.5522 73.1917 36.6834C73.4979 36.811 73.7676 36.9878 74.0009 37.2138L73.8205 37.9683C73.6528 37.6986 73.4268 37.4835 73.1425 37.3231C72.8618 37.1591 72.5502 37.0771 72.2075 37.0771C71.8467 37.0771 71.5204 37.1664 71.2288 37.345C70.9409 37.52 70.7112 37.7569 70.5399 38.0558C70.3686 38.351 70.2829 38.6809 70.2829 39.0454C70.2829 39.4026 70.3668 39.7307 70.5345 40.0296C70.7058 40.3285 70.9354 40.5673 71.2234 40.7459C71.515 40.9245 71.8412 41.0138 72.2021 41.0138C72.4062 41.0138 72.5994 40.9901 72.7816 40.9427C72.9675 40.8917 73.137 40.8206 73.2901 40.7295V39.4391H71.9342V38.8814H73.8916V41.0466C73.6692 41.2325 73.4104 41.3728 73.1152 41.4676C72.8236 41.5587 72.5192 41.6043 72.2021 41.6043ZM78.2655 41.5496C77.9666 41.5496 77.6933 41.4749 77.4454 41.3254C77.1975 41.1723 76.9989 40.9682 76.8494 40.7131C76.7036 40.4579 76.6307 40.1754 76.6307 39.8656C76.6307 39.5557 76.7036 39.2732 76.8494 39.0181C76.9989 38.7629 77.1975 38.5606 77.4454 38.4112C77.6933 38.2581 77.9666 38.1815 78.2655 38.1815C78.4915 38.1815 78.7029 38.2235 78.8998 38.3073C79.1003 38.3911 79.2734 38.5078 79.4192 38.6572V38.2253H79.966V41.5059H79.4192V41.0739C79.2734 41.2197 79.1003 41.3364 78.8998 41.4238C78.7029 41.5077 78.4915 41.5496 78.2655 41.5496ZM78.3421 41.0138C78.5498 41.0138 78.7376 40.9627 78.9052 40.8607C79.0766 40.755 79.2114 40.6165 79.3098 40.4451C79.4119 40.2702 79.4629 40.077 79.4629 39.8656C79.4629 39.6542 79.4119 39.4628 79.3098 39.2915C79.2114 39.1165 79.0766 38.978 78.9052 38.8759C78.7376 38.7702 78.5498 38.7174 78.3421 38.7174C78.1343 38.7174 77.9448 38.7702 77.7734 38.8759C77.6058 38.978 77.4709 39.1165 77.3688 39.2915C77.2704 39.4628 77.2212 39.6542 77.2212 39.8656C77.2212 40.077 77.2704 40.2702 77.3688 40.4451C77.4709 40.6165 77.6058 40.755 77.7734 40.8607C77.9448 40.9627 78.1343 41.0138 78.3421 41.0138ZM82.9019 41.5059V38.2253H83.4487V38.6955C83.569 38.5169 83.7203 38.3838 83.9025 38.2964C84.0884 38.2052 84.2834 38.1597 84.4875 38.1597C84.7099 38.1597 84.914 38.2125 85.0999 38.3182C85.2858 38.4203 85.4353 38.5643 85.5483 38.7502C85.6758 38.5533 85.8399 38.4057 86.0403 38.3073C86.2445 38.2089 86.4595 38.1597 86.6855 38.1597C86.9334 38.1597 87.1594 38.218 87.3635 38.3346C87.5713 38.4513 87.7353 38.6153 87.8556 38.8267C87.9795 39.0345 88.0415 39.2805 88.0415 39.5649V41.5059H87.451V39.6359C87.451 39.337 87.3653 39.111 87.194 38.9579C87.0263 38.8012 86.8313 38.7228 86.609 38.7228C86.4705 38.7228 86.3356 38.7538 86.2044 38.8158C86.0768 38.8778 85.9711 38.9744 85.8873 39.1056C85.8071 39.2368 85.767 39.4081 85.767 39.6195V41.5059H85.1765V39.6359C85.1765 39.4282 85.1345 39.2568 85.0507 39.122C84.9705 38.9871 84.8648 38.8869 84.7336 38.8213C84.606 38.752 84.473 38.7174 84.3345 38.7174C84.1996 38.7174 84.0665 38.7484 83.9353 38.8103C83.8077 38.8723 83.702 38.9689 83.6182 39.1001C83.5344 39.2313 83.4924 39.4045 83.4924 39.6195V41.5059H82.9019ZM92.4756 41.5715C92.133 41.5715 91.825 41.4949 91.5516 41.3418C91.2818 41.1887 91.0686 40.981 90.9119 40.7185C90.7588 40.4524 90.6822 40.1572 90.6822 39.8328C90.6822 39.5229 90.7569 39.2423 90.9064 38.9908C91.0558 38.7356 91.2563 38.5333 91.5078 38.3838C91.763 38.2344 92.0437 38.1597 92.3498 38.1597C92.6524 38.1597 92.9294 38.2326 93.1809 38.3784C93.4324 38.5205 93.6329 38.7137 93.7824 38.9579C93.9318 39.2022 94.0065 39.4792 94.0065 39.789V40.0296H91.8632C91.7685 40.0296 91.6719 40.026 91.5734 40.0187C91.475 40.0114 91.3784 40.0004 91.2837 39.9859C91.3238 40.2775 91.455 40.5217 91.6773 40.7185C91.9033 40.9154 92.1712 41.0138 92.4811 41.0138C92.6888 41.0138 92.882 40.9664 93.0606 40.8716C93.2392 40.7768 93.3832 40.6511 93.4926 40.4943L93.6566 41.1669C93.4999 41.2944 93.3194 41.3947 93.1153 41.4676C92.9148 41.5368 92.7016 41.5715 92.4756 41.5715ZM91.2673 39.5867C91.4641 39.5539 91.6627 39.5375 91.8632 39.5375H92.9513C93.0315 39.5375 93.1098 39.5412 93.1864 39.5485C93.2666 39.5521 93.3468 39.5576 93.427 39.5649C93.3759 39.3097 93.2484 39.1001 93.0442 38.9361C92.8401 38.7684 92.6086 38.6846 92.3498 38.6846C92.0838 38.6846 91.8505 38.7739 91.65 38.9525C91.4495 39.1274 91.3219 39.3389 91.2673 39.5867ZM97.5318 41.5715C97.3641 41.5715 97.1837 41.5405 96.9905 41.4785C96.801 41.4129 96.637 41.3054 96.4984 41.1559L96.6625 40.5108C96.7645 40.6821 96.8958 40.8188 97.0561 40.9208C97.2165 41.0192 97.3878 41.0684 97.5701 41.0684C97.7451 41.0684 97.8763 41.0265 97.9638 40.9427C98.0512 40.8552 98.095 40.7495 98.095 40.6256C98.095 40.4834 98.0476 40.3795 97.9528 40.3139C97.8617 40.2483 97.7797 40.2027 97.7068 40.1772L97.2639 40.0077C97.1837 39.9749 97.0871 39.9275 96.9741 39.8656C96.8611 39.8 96.7627 39.707 96.6789 39.5867C96.595 39.4664 96.5531 39.3097 96.5531 39.1165C96.5531 38.9415 96.595 38.7812 96.6789 38.6354C96.7627 38.4896 96.8812 38.3747 97.0343 38.2909C97.1874 38.2034 97.3678 38.1597 97.5756 38.1597C97.7396 38.1597 97.9109 38.1888 98.0895 38.2472C98.2681 38.3055 98.4194 38.4039 98.5433 38.5424L98.3793 39.1876C98.2918 39.0272 98.1734 38.8996 98.0239 38.8049C97.8745 38.7101 97.7195 38.6627 97.5592 38.6627C97.4097 38.6627 97.2912 38.7046 97.2038 38.7885C97.1199 38.8723 97.078 38.9689 97.078 39.0782C97.078 39.1657 97.1072 39.2441 97.1655 39.3133C97.2238 39.3826 97.3113 39.4391 97.4279 39.4828L97.8708 39.6523C97.951 39.6815 98.0494 39.7289 98.1661 39.7945C98.2864 39.8601 98.3921 39.9549 98.4832 40.0788C98.5743 40.2027 98.6199 40.3704 98.6199 40.5818C98.6199 40.8771 98.516 41.1158 98.3082 41.2981C98.1041 41.4803 97.8453 41.5715 97.5318 41.5715ZM105.056 41.5059V36.585H107.484V37.1427H105.68V38.1925H107.101V38.7502H105.68V40.9482H107.484V41.5059H105.056ZM111.47 41.5496C111.171 41.5496 110.898 41.4749 110.65 41.3254C110.402 41.1723 110.204 40.9682 110.054 40.7131C109.908 40.4579 109.835 40.1754 109.835 39.8656C109.835 39.5557 109.908 39.2732 110.054 39.0181C110.204 38.7629 110.402 38.5606 110.65 38.4112C110.898 38.2581 111.171 38.1815 111.47 38.1815C111.696 38.1815 111.908 38.2235 112.104 38.3073C112.305 38.3911 112.478 38.5078 112.624 38.6572V38.2253H113.171V41.5059H112.624V41.0739C112.478 41.2197 112.305 41.3364 112.104 41.4238C111.908 41.5077 111.696 41.5496 111.47 41.5496ZM111.547 41.0138C111.755 41.0138 111.942 40.9627 112.11 40.8607C112.281 40.755 112.416 40.6165 112.515 40.4451C112.617 40.2702 112.668 40.077 112.668 39.8656C112.668 39.6542 112.617 39.4628 112.515 39.2915C112.416 39.1165 112.281 38.978 112.11 38.8759C111.942 38.7702 111.755 38.7174 111.547 38.7174C111.339 38.7174 111.149 38.7702 110.978 38.8759C110.81 38.978 110.676 39.1165 110.574 39.2915C110.475 39.4628 110.426 39.6542 110.426 39.8656C110.426 40.077 110.475 40.2702 110.574 40.4451C110.676 40.6165 110.81 40.755 110.978 40.8607C111.149 40.9627 111.339 41.0138 111.547 41.0138ZM116.107 41.5059V38.2253H116.653V38.8267C116.77 38.6335 116.925 38.4804 117.118 38.3674C117.311 38.2508 117.541 38.1925 117.807 38.1925L117.955 38.783C117.885 38.7611 117.805 38.7502 117.714 38.7502C117.408 38.7502 117.162 38.8486 116.976 39.0454C116.79 39.2386 116.697 39.5156 116.697 39.8765V41.5059H116.107ZM120.457 41.5059V38.2253H121.003V38.7556C121.124 38.5625 121.279 38.4148 121.468 38.3128C121.661 38.2107 121.869 38.1597 122.092 38.1597C122.325 38.1597 122.54 38.218 122.737 38.3346C122.937 38.4476 123.099 38.6135 123.223 38.8322C123.347 39.0473 123.409 39.3097 123.409 39.6195V41.5059H122.819V39.7015C122.819 39.4427 122.74 39.2149 122.584 39.0181C122.431 38.8176 122.214 38.7174 121.933 38.7174C121.703 38.7174 121.497 38.8012 121.315 38.9689C121.136 39.1329 121.047 39.3717 121.047 39.6851V41.5059H120.457ZM132.183 41.6043C131.83 41.6043 131.496 41.5387 131.183 41.4074C130.873 41.2726 130.599 41.0885 130.363 40.8552C130.129 40.6219 129.945 40.3504 129.81 40.0405C129.679 39.7307 129.613 39.399 129.613 39.0454C129.613 38.6919 129.679 38.3602 129.81 38.0503C129.945 37.7405 130.129 37.4689 130.363 37.2356C130.599 37.0024 130.873 36.8201 131.183 36.6889C131.496 36.554 131.83 36.4866 132.183 36.4866C132.533 36.4866 132.861 36.5522 133.167 36.6834C133.474 36.811 133.743 36.9878 133.977 37.2138L133.796 37.9683C133.629 37.6986 133.403 37.4835 133.118 37.3231C132.838 37.1591 132.526 37.0771 132.183 37.0771C131.822 37.0771 131.496 37.1664 131.205 37.345C130.917 37.52 130.687 37.7569 130.516 38.0558C130.344 38.351 130.259 38.6809 130.259 39.0454C130.259 39.4063 130.344 39.7362 130.516 40.0351C130.687 40.334 130.917 40.5727 131.205 40.7513C131.496 40.9263 131.822 41.0138 132.183 41.0138C132.53 41.0138 132.843 40.9318 133.124 40.7677C133.404 40.6037 133.629 40.3886 133.796 40.1226L133.977 40.8771C133.743 41.0994 133.474 41.2762 133.167 41.4074C132.861 41.5387 132.533 41.6043 132.183 41.6043ZM136.621 41.5059V38.2253H137.168V38.8267C137.284 38.6335 137.439 38.4804 137.632 38.3674C137.825 38.2508 138.055 38.1925 138.321 38.1925L138.469 38.783C138.4 38.7611 138.319 38.7502 138.228 38.7502C137.922 38.7502 137.676 38.8486 137.49 39.0454C137.304 39.2386 137.211 39.5156 137.211 39.8765V41.5059H136.621ZM140.834 43.1461L141.9 41.0247L140.512 38.2253H141.179L141.878 39.6469C141.94 39.7744 142.001 39.9002 142.059 40.0241C142.117 40.1481 142.176 40.2975 142.234 40.4725C142.296 40.2975 142.354 40.1481 142.409 40.0241C142.467 39.8966 142.529 39.7708 142.595 39.6469L143.305 38.2253H143.934L141.474 43.1461H140.834ZM146.413 43.1461V38.2253H146.959V38.6572C147.109 38.5078 147.282 38.3911 147.479 38.3073C147.676 38.2235 147.887 38.1815 148.113 38.1815C148.416 38.1815 148.689 38.2581 148.933 38.4112C149.181 38.5606 149.378 38.7629 149.524 39.0181C149.673 39.2732 149.748 39.5557 149.748 39.8656C149.748 40.1754 149.673 40.4579 149.524 40.7131C149.378 40.9682 149.181 41.1723 148.933 41.3254C148.689 41.4749 148.416 41.5496 148.113 41.5496C147.898 41.5496 147.696 41.5113 147.506 41.4348C147.317 41.3582 147.149 41.2525 147.003 41.1177V43.1461H146.413ZM148.037 41.0138C148.244 41.0138 148.432 40.9627 148.6 40.8607C148.771 40.755 148.906 40.6165 149.004 40.4451C149.106 40.2702 149.157 40.077 149.157 39.8656C149.157 39.6542 149.106 39.4628 149.004 39.2915C148.906 39.1165 148.771 38.978 148.6 38.8759C148.432 38.7702 148.244 38.7174 148.037 38.7174C147.829 38.7174 147.639 38.7702 147.468 38.8759C147.3 38.978 147.165 39.1165 147.063 39.2915C146.965 39.4628 146.916 39.6542 146.916 39.8656C146.916 40.077 146.965 40.2702 147.063 40.4451C147.165 40.6165 147.3 40.755 147.468 40.8607C147.639 40.9627 147.829 41.0138 148.037 41.0138ZM152.676 41.5059V38.7174H151.932V38.2253H152.692V37.1318H153.25V38.2253H154.064V38.7174H153.266V41.5059H152.676ZM157.979 41.5715C157.662 41.5715 157.373 41.4949 157.11 41.3418C156.848 41.1887 156.638 40.9828 156.481 40.724C156.328 40.4652 156.252 40.1791 156.252 39.8656C156.252 39.5485 156.328 39.2623 156.481 39.0072C156.638 38.7484 156.848 38.5424 157.11 38.3893C157.373 38.2362 157.662 38.1597 157.979 38.1597C158.3 38.1597 158.59 38.2362 158.849 38.3893C159.111 38.5424 159.319 38.7484 159.472 39.0072C159.629 39.2623 159.707 39.5485 159.707 39.8656C159.707 40.1791 159.629 40.4652 159.472 40.724C159.319 40.9828 159.111 41.1887 158.849 41.3418C158.59 41.4949 158.3 41.5715 157.979 41.5715ZM157.979 41.0138C158.191 41.0138 158.382 40.9627 158.554 40.8607C158.725 40.755 158.862 40.6165 158.964 40.4451C159.066 40.2702 159.117 40.077 159.117 39.8656C159.117 39.6542 159.066 39.4628 158.964 39.2915C158.862 39.1165 158.725 38.978 158.554 38.8759C158.382 38.7702 158.191 38.7174 157.979 38.7174C157.768 38.7174 157.577 38.7702 157.405 38.8759C157.234 38.978 157.097 39.1165 156.995 39.2915C156.893 39.4628 156.842 39.6542 156.842 39.8656C156.842 40.077 156.893 40.2702 156.995 40.4451C157.097 40.6165 157.234 40.755 157.405 40.8607C157.577 40.9627 157.768 41.0138 157.979 41.0138Z" fill="white"/>
<rect x="44.8125" y="29.7305" width="97.8241" height="3.25608" fill="#DE7E29"/>
<path d="M135.256 19.5061L127.621 23.3989L131.302 19.4965L127.641 15.5741L135.256 19.5061Z" fill="url(#paint1_linear_1442_11)"/>
<defs>
<linearGradient id="paint0_linear_1442_11" x1="100.374" y1="0" x2="100.452" y2="28.3137" gradientUnits="userSpaceOnUse">
<stop offset="0.427885" stop-color="#CAA12D"/>
<stop offset="0.696789" stop-color="#FAE443"/>
<stop offset="0.918269" stop-color="#DE7E29"/>
</linearGradient>
<linearGradient id="paint1_linear_1442_11" x1="131.454" y1="15.5839" x2="131.433" y2="23.4087" gradientUnits="userSpaceOnUse">
<stop stop-color="#CAA12D"/>
<stop offset="0.466531" stop-color="#F9E243"/>
<stop offset="1" stop-color="#DD7D28"/>
</linearGradient>
</defs>
</svg>
