<svg width="144" height="42" viewBox="0 0 144 42" fill="none" xmlns="http://www.w3.org/2000/svg">
<rect x="126.227" y="24.541" width="2.93818" height="4.3159" transform="rotate(13.342 126.227 24.541)" fill="#DE7E29"/>
<circle cx="20.734" cy="22.1383" r="16.7911" stroke="#F9E342" stroke-width="1.21382"/>
<circle cx="20.7311" cy="22.1393" r="15.1727" stroke="black" stroke-width="2.02303" stroke-dasharray="4.05 4.05"/>
<circle cx="20.7267" cy="22.1385" r="15.1727" transform="rotate(15.1988 20.7267 22.1385)" stroke="#E30808" stroke-width="2.02303" stroke-dasharray="4.05 4.05"/>
<path d="M20.7287 6.59821L20.6935 7.945L20.5304 7.94075L20.5611 6.76493L20.5532 6.76472L20.2187 6.97447L20.2231 6.80875L20.5656 6.59395L20.7287 6.59821Z" fill="#FEFEFE"/>
<path d="M24.7133 7.09697C24.7659 7.11382 24.8155 7.14031 24.8622 7.17643C24.9088 7.21255 24.9468 7.26022 24.9761 7.31942C25.0055 7.37821 25.0213 7.45087 25.0232 7.53738C25.0252 7.6239 25.0078 7.7262 24.971 7.84427C24.9354 7.95858 24.8929 8.05672 24.8434 8.1387C24.7945 8.22039 24.7403 8.28526 24.6808 8.33332C24.6217 8.3815 24.5583 8.41229 24.4908 8.42569C24.4236 8.43922 24.3538 8.43469 24.2814 8.41212C24.2094 8.38968 24.1495 8.35542 24.1019 8.30933C24.0548 8.26295 24.0212 8.20862 24.0011 8.14631C23.9816 8.08372 23.9773 8.01695 23.9884 7.94598L24.1417 7.99374C24.1371 8.05708 24.1493 8.11441 24.1783 8.16572C24.2079 8.21673 24.2566 8.25281 24.3245 8.27395C24.4237 8.30487 24.5155 8.28594 24.5999 8.21714C24.6847 8.14848 24.7517 8.03501 24.801 7.87674L24.791 7.87361C24.7566 7.90148 24.7193 7.92315 24.6791 7.93865C24.6389 7.95414 24.5969 7.96266 24.5533 7.96422C24.5096 7.96577 24.4656 7.95963 24.4212 7.9458C24.3475 7.92283 24.2856 7.88355 24.2354 7.82794C24.1857 7.77205 24.1525 7.70633 24.1356 7.63078C24.1192 7.55495 24.124 7.47558 24.1498 7.39268C24.1744 7.31396 24.2144 7.24743 24.2699 7.19307C24.326 7.13843 24.3921 7.10162 24.4683 7.08264C24.5449 7.06379 24.6266 7.06857 24.7133 7.09697ZM24.6702 7.23514C24.6175 7.2187 24.5658 7.21708 24.5153 7.23028C24.4654 7.24319 24.4211 7.26799 24.3826 7.30467C24.3446 7.34106 24.3173 7.38606 24.3006 7.43965C24.2839 7.49325 24.2804 7.54568 24.2901 7.59695C24.3004 7.64793 24.322 7.6928 24.355 7.73154C24.3885 7.77 24.4316 7.79745 24.4844 7.81389C24.5241 7.82629 24.5636 7.83009 24.6028 7.82529C24.6421 7.82008 24.6787 7.80785 24.7127 7.78859C24.7473 7.76905 24.7773 7.74418 24.8028 7.714C24.8284 7.68339 24.8472 7.64904 24.8591 7.61094C24.8747 7.5607 24.8772 7.50981 24.8667 7.45828C24.8565 7.40688 24.8345 7.36098 24.8007 7.32058C24.7673 7.28032 24.7238 7.25184 24.6702 7.23514Z" fill="#FEFEFE"/>
<path d="M28.0713 10.0305C27.9992 9.98212 27.9433 9.92658 27.9035 9.86392C27.864 9.8015 27.8426 9.73715 27.839 9.67084C27.8361 9.60442 27.8528 9.54092 27.8893 9.48035L28.0269 9.57279C28.0056 9.61079 27.9971 9.65023 28.0013 9.69111C28.0058 9.73163 28.0209 9.77085 28.0467 9.80877C28.0725 9.84669 28.1069 9.88008 28.1498 9.90894C28.1979 9.94122 28.2461 9.96145 28.2945 9.96965C28.3428 9.97785 28.3876 9.97411 28.4288 9.95844C28.47 9.94278 28.5037 9.91528 28.5302 9.87596C28.5578 9.83483 28.5719 9.79176 28.5726 9.74675C28.5735 9.70139 28.5602 9.65658 28.5329 9.61233C28.5056 9.56808 28.4635 9.52688 28.4067 9.48873L28.3172 9.42857L28.3979 9.30844L28.4874 9.3686C28.5318 9.39843 28.5762 9.41659 28.6204 9.42307C28.665 9.42979 28.7066 9.42495 28.7451 9.40854C28.7839 9.39238 28.8166 9.36464 28.843 9.32532C28.8684 9.28746 28.8822 9.24889 28.8843 9.20961C28.8863 9.17033 28.8773 9.13259 28.8573 9.09639C28.8376 9.06044 28.8072 9.02865 28.766 9.00101C28.7274 8.97509 28.6863 8.95774 28.6425 8.94895C28.5994 8.94004 28.5581 8.94166 28.5188 8.95381C28.4797 8.96559 28.4468 8.98944 28.42 9.02535L28.289 8.93731C28.3305 8.88017 28.3826 8.8407 28.4454 8.8189C28.5083 8.79674 28.5749 8.79125 28.645 8.80245C28.7155 8.81388 28.783 8.84124 28.8474 8.88453C28.9166 8.93099 28.9665 8.98487 28.9972 9.04616C29.0281 9.10709 29.0416 9.16923 29.0376 9.23259C29.0336 9.29594 29.0139 9.35402 28.9784 9.4068C28.9361 9.46978 28.8835 9.51236 28.8205 9.53452C28.7579 9.55692 28.6927 9.55773 28.6248 9.53693L28.6189 9.54567C28.6817 9.60476 28.7167 9.67184 28.7238 9.74692C28.7312 9.82163 28.7111 9.89448 28.6634 9.96547C28.6226 10.0263 28.5693 10.0697 28.5037 10.0959C28.4386 10.122 28.3684 10.1297 28.293 10.1193C28.2177 10.1088 28.1437 10.0792 28.0713 10.0305Z" fill="#FEFEFE"/>
<path d="M30.6775 12.2354C30.6198 12.1659 30.5812 12.0942 30.5616 12.0204C30.5427 11.9467 30.5427 11.8769 30.5616 11.8111C30.5809 11.745 30.6187 11.6889 30.675 11.6428C30.7186 11.6061 30.7663 11.5811 30.818 11.5679C30.87 11.5544 30.9211 11.5524 30.9713 11.5621C31.0221 11.5719 31.0665 11.5929 31.1046 11.6251L31.1107 11.62C31.0824 11.5598 31.0775 11.4972 31.0961 11.4323C31.1149 11.3671 31.152 11.3118 31.2073 11.2665C31.2597 11.2225 31.3179 11.1968 31.3818 11.1894C31.4457 11.182 31.5093 11.192 31.5724 11.2194C31.6359 11.2472 31.6928 11.2914 31.7431 11.3522C31.793 11.4123 31.8255 11.476 31.8407 11.5431C31.8559 11.6102 31.8539 11.6745 31.8348 11.736C31.8159 11.7977 31.7803 11.8506 31.7279 11.8946C31.6725 11.9399 31.611 11.9656 31.5431 11.9717C31.4759 11.9778 31.4157 11.9619 31.3626 11.9239L31.3565 11.929C31.3808 11.9721 31.3927 12.0191 31.3923 12.0702C31.3922 12.1209 31.3809 12.1708 31.3582 12.2197C31.3359 12.2684 31.3029 12.3111 31.2593 12.3478C31.203 12.3939 31.1404 12.4202 31.0716 12.4265C31.0034 12.4329 30.9349 12.4199 30.866 12.3876C30.7977 12.3554 30.7348 12.3046 30.6775 12.2354ZM30.7889 12.1431C30.8278 12.19 30.869 12.2242 30.9124 12.2457C30.9559 12.2672 30.9992 12.2758 31.0422 12.2714C31.0853 12.2671 31.1256 12.2497 31.163 12.2192C31.2019 12.1864 31.2281 12.1476 31.2416 12.1028C31.2552 12.0579 31.2563 12.0112 31.245 11.9625C31.2339 11.9141 31.2102 11.8679 31.1738 11.824C31.1372 11.7798 31.0958 11.7474 31.0498 11.7269C31.004 11.7068 30.9578 11.6992 30.9113 11.7041C30.865 11.7095 30.8224 11.7285 30.7835 11.7613C30.7461 11.7918 30.7211 11.8276 30.7085 11.8688C30.6962 11.9103 30.6967 11.9546 30.7101 12.0016C30.7234 12.0486 30.7497 12.0958 30.7889 12.1431ZM31.2812 11.735C31.312 11.7722 31.3467 11.799 31.3854 11.8153C31.4243 11.8321 31.4639 11.8377 31.5043 11.8321C31.5447 11.8265 31.5829 11.8091 31.619 11.7798C31.6538 11.7503 31.6776 11.7167 31.6901 11.679C31.703 11.6409 31.7047 11.6017 31.6951 11.5612C31.6858 11.5205 31.6654 11.481 31.6337 11.4429C31.6016 11.4041 31.5662 11.3761 31.5276 11.3591C31.4893 11.3418 31.4505 11.3362 31.411 11.3421C31.3718 11.3478 31.3348 11.3654 31.3 11.3948C31.2639 11.4241 31.2393 11.458 31.226 11.4963C31.2131 11.5349 31.2112 11.5749 31.2204 11.6163C31.2296 11.6576 31.2499 11.6972 31.2812 11.735Z" fill="#FEFEFE"/>
<path d="M32.7657 15.0194L34.0988 15.1021L34.1084 15.0979L33.834 14.4597L33.9669 14.4026L34.3079 15.1954L34.1677 15.2557L32.8332 15.1765L32.7657 15.0194Z" fill="#FEFEFE"/>
<path d="M34.2519 18.074L34.3663 18.0435L34.9513 18.3477C35.0198 18.3834 35.0788 18.4122 35.1282 18.434C35.178 18.4556 35.223 18.4695 35.2632 18.4756C35.3039 18.482 35.3442 18.4798 35.384 18.4692C35.4298 18.457 35.4665 18.4354 35.4941 18.4045C35.5218 18.3739 35.5397 18.3374 35.5479 18.2948C35.5561 18.2522 35.5539 18.2074 35.5413 18.1604C35.528 18.1104 35.506 18.0695 35.4753 18.0377C35.4451 18.0063 35.4089 17.9853 35.3666 17.9748C35.3244 17.9647 35.2785 17.9663 35.2289 17.9795L35.1889 17.8295C35.2652 17.8092 35.3368 17.8089 35.4038 17.8287C35.4709 17.8485 35.5285 17.8844 35.5769 17.9364C35.6254 17.9889 35.6597 18.053 35.68 18.1288C35.7003 18.2051 35.7022 18.277 35.6857 18.3445C35.6693 18.412 35.6381 18.4698 35.5924 18.5178C35.5467 18.5659 35.4903 18.5988 35.4234 18.6167C35.3755 18.6295 35.3263 18.6333 35.276 18.6281C35.2261 18.6232 35.1675 18.6071 35.1003 18.5796C35.0336 18.5525 34.9503 18.5123 34.8503 18.4591L34.4596 18.2501L34.4494 18.2528L34.6108 18.8579L34.471 18.8952L34.2519 18.074Z" fill="#FEFEFE"/>
<path d="M34.8552 21.5263L34.9894 21.5253L35.9303 22.1108L35.931 22.2081L35.7232 22.2096L35.7227 22.1438L35.0117 21.7015L35.0012 21.7016L35.0068 22.4989L34.8621 22.4999L34.8552 21.5263ZM34.5834 22.1624L34.9005 22.1602L34.963 22.1597L35.9306 22.1529L35.9317 22.3081L34.5845 22.3176L34.5834 22.1624Z" fill="#FEFEFE"/>
<path d="M35.5511 26.0918C35.5301 26.1429 35.4997 26.1902 35.46 26.2338C35.4203 26.2774 35.3697 26.3115 35.3084 26.336C35.2474 26.3606 35.1737 26.3705 35.0873 26.3656C35.001 26.3606 34.9004 26.3351 34.7856 26.289C34.6745 26.2444 34.5801 26.1942 34.5023 26.1384C34.4248 26.0831 34.3644 26.0239 34.3213 25.9607C34.278 25.8979 34.2523 25.8324 34.2444 25.7639C34.2362 25.6959 34.2463 25.6267 34.2746 25.5563C34.3027 25.4863 34.3416 25.4294 34.3914 25.3856C34.4414 25.3423 34.4982 25.3132 34.5619 25.2981C34.6259 25.2836 34.6928 25.2847 34.7626 25.3015L34.7028 25.4504C34.64 25.4408 34.5819 25.4484 34.5284 25.4732C34.4752 25.4987 34.4354 25.5443 34.4089 25.6103C34.3701 25.7067 34.3817 25.7997 34.4435 25.8893C34.5052 25.9793 34.613 26.0552 34.7668 26.117L34.7707 26.1072C34.7457 26.0707 34.7271 26.0318 34.7148 25.9905C34.7026 25.9492 34.6974 25.9067 34.6994 25.8631C34.7013 25.8194 34.7109 25.776 34.7283 25.7329C34.757 25.6613 34.8011 25.6026 34.8606 25.557C34.9203 25.512 34.9884 25.4841 35.0651 25.4733C35.142 25.4631 35.2207 25.4741 35.3013 25.5065C35.3778 25.5372 35.4409 25.5824 35.4907 25.6421C35.5407 25.7024 35.5721 25.7712 35.5849 25.8487C35.5976 25.9266 35.5863 26.0076 35.5511 26.0918ZM35.4168 26.0378C35.4374 25.9865 35.4431 25.9352 35.434 25.8838C35.4251 25.833 35.4039 25.7869 35.3704 25.7455C35.3372 25.7048 35.2945 25.6739 35.2424 25.653C35.1903 25.6321 35.1384 25.6244 35.0865 25.6301C35.0348 25.6362 34.9884 25.6542 34.9471 25.684C34.9061 25.7143 34.8753 25.7551 34.8547 25.8064C34.8392 25.845 34.8323 25.8841 34.8339 25.9235C34.836 25.9631 34.8452 26.0006 34.8617 26.036C34.8784 26.072 34.9008 26.104 34.9289 26.1318C34.9573 26.1597 34.9901 26.1812 35.0271 26.196C35.076 26.2157 35.1265 26.2223 35.1787 26.2158C35.2307 26.2098 35.2783 26.1915 35.3212 26.161C35.364 26.131 35.3959 26.0899 35.4168 26.0378Z" fill="#FEFEFE"/>
<path d="M33.6962 29.6562L32.6159 28.8512L32.7134 28.7204L33.6565 29.4232L33.6612 29.4169L33.6827 29.0226L33.8156 29.1217L33.7937 29.5254L33.6962 29.6562Z" fill="#FEFEFE"/>
<path d="M27.993 33.9255L28.3232 35.2197L28.3301 35.2276L28.8534 34.7707L28.9486 34.8797L28.2985 35.4474L28.1981 35.3325L27.8642 34.038L27.993 33.9255Z" fill="#FEFEFE"/>
<path d="M30.8501 31.8816L31.344 33.1226L31.3519 33.1296L31.812 32.6091L31.9205 32.705L31.3488 33.3516L31.2345 33.2505L30.7368 32.0098L30.8501 31.8816Z" fill="#FEFEFE"/>
<path d="M24.9276 35.7494L24.9641 35.8786L24.649 36.941L24.5553 36.9675L24.4988 36.7674L24.5621 36.7495L24.8002 35.9468L24.7973 35.9366L24.03 36.1533L23.9907 36.0141L24.9276 35.7494ZM24.2423 35.6559L24.3284 35.9611L24.3454 36.0212L24.6085 36.9524L24.4591 36.9946L24.0928 35.6981L24.2423 35.6559Z" fill="#FEFEFE"/>
<path d="M20.4982 36.071C20.5885 36.0723 20.6681 36.0895 20.7369 36.1225C20.8052 36.156 20.8583 36.2013 20.896 36.2585C20.9338 36.316 20.9519 36.3812 20.9504 36.454C20.95 36.511 20.938 36.5635 20.9145 36.6114C20.8909 36.6597 20.8592 36.6998 20.8193 36.7317C20.7789 36.764 20.734 36.7841 20.6848 36.7922L20.6847 36.8001C20.7489 36.8177 20.7997 36.8546 20.837 36.9109C20.8743 36.9676 20.8922 37.0317 20.8907 37.1031C20.8901 37.1716 20.8719 37.2325 20.836 37.2859C20.8001 37.3393 20.7513 37.3811 20.6894 37.4113C20.6271 37.4416 20.5565 37.4561 20.4776 37.4549C20.3995 37.4537 20.33 37.4371 20.2691 37.4051C20.2082 37.373 20.1606 37.3298 20.1263 37.2753C20.0916 37.2209 20.0745 37.1594 20.0751 37.091C20.0766 37.0195 20.097 36.956 20.1365 36.9005C20.1754 36.8453 20.2266 36.8099 20.29 36.7942L20.2901 36.7863C20.2416 36.7768 20.1981 36.7553 20.1595 36.7219C20.121 36.6888 20.0904 36.6478 20.0679 36.5988C20.0454 36.5502 20.0343 36.4974 20.0348 36.4404C20.0363 36.3676 20.057 36.303 20.0969 36.2466C20.1363 36.1906 20.1907 36.1469 20.26 36.1154C20.3289 36.0845 20.4083 36.0696 20.4982 36.071ZM20.496 36.2157C20.4351 36.2148 20.3823 36.2238 20.3377 36.2429C20.2931 36.262 20.2585 36.2893 20.2338 36.3249C20.2092 36.3605 20.1963 36.4024 20.1951 36.4507C20.1948 36.5015 20.2073 36.5467 20.2326 36.5861C20.2579 36.6255 20.2927 36.6567 20.3371 36.6798C20.3811 36.7028 20.4316 36.7147 20.4886 36.7156C20.546 36.7164 20.5975 36.706 20.643 36.6843C20.688 36.6626 20.7238 36.6325 20.7503 36.5938C20.7763 36.5552 20.7894 36.5104 20.7898 36.4595C20.7909 36.4113 20.7799 36.369 20.7568 36.3327C20.7332 36.2964 20.6992 36.268 20.6547 36.2476C20.6103 36.2272 20.5574 36.2166 20.496 36.2157ZM20.4865 36.855C20.4383 36.8543 20.3954 36.8633 20.3578 36.8821C20.3198 36.9008 20.2898 36.9273 20.2678 36.9616C20.2458 36.996 20.2342 37.0364 20.2331 37.0828C20.2329 37.1284 20.243 37.1683 20.2636 37.2024C20.2841 37.2369 20.3129 37.2636 20.3499 37.2826C20.3869 37.302 20.4301 37.3121 20.4797 37.3128C20.5301 37.3136 20.5743 37.3048 20.6123 37.2865C20.6503 37.2687 20.6798 37.2428 20.701 37.2089C20.7221 37.1754 20.7328 37.1359 20.733 37.0903C20.7341 37.0438 20.7244 37.0031 20.7039 36.9681C20.6829 36.9332 20.6537 36.9058 20.6163 36.8859C20.5789 36.866 20.5356 36.8558 20.4865 36.855Z" fill="#FEFEFE"/>
<path d="M17.0593 35.7676C17.1329 35.7906 17.1947 35.826 17.2446 35.8738C17.2944 35.9215 17.3292 35.9765 17.3488 36.0387C17.3684 36.1008 17.3697 36.1651 17.3526 36.2315L17.2019 36.1844C17.2143 36.1244 17.2029 36.068 17.168 36.0152C17.1324 35.9628 17.0818 35.9263 17.0161 35.9057C16.9633 35.8893 16.9126 35.887 16.8639 35.8988C16.8147 35.9106 16.7717 35.9344 16.7347 35.9701C16.6973 36.0062 16.67 36.0517 16.6528 36.1065C16.6353 36.1626 16.632 36.2165 16.643 36.2682C16.6534 36.3201 16.676 36.3655 16.7107 36.4044C16.7454 36.4433 16.7901 36.4715 16.8448 36.4891C16.884 36.5018 16.9263 36.5083 16.9717 36.5087C17.0169 36.5095 17.056 36.5045 17.0888 36.4936L17.2289 36.5567L16.9533 37.1653L16.2852 36.9565L16.3284 36.8184L16.8659 36.9864L17.0296 36.6212L17.0221 36.6189C16.9891 36.6316 16.9506 36.6386 16.9066 36.64C16.8625 36.6414 16.8189 36.6353 16.7758 36.6219C16.6971 36.5973 16.6328 36.5565 16.5831 36.4996C16.5328 36.443 16.5002 36.3768 16.4853 36.3009C16.47 36.2249 16.4753 36.1452 16.5014 36.0619C16.527 35.9799 16.5683 35.9124 16.6253 35.8594C16.6817 35.8068 16.7478 35.7718 16.8235 35.7546C16.899 35.7378 16.9776 35.7421 17.0593 35.7676Z" fill="#FEFEFE"/>
<path d="M12.5687 35.3021L13.3036 34.1729L13.4404 34.2619L12.7988 35.2477L12.8054 35.252L13.2002 35.2484L13.1098 35.3873L12.7055 35.3911L12.5687 35.3021Z" fill="#FEFEFE"/>
<path d="M10.4729 31.8804C10.5239 31.9384 10.5583 32.0007 10.5761 32.0674C10.5939 32.1341 10.5951 32.1991 10.5795 32.2625C10.564 32.3258 10.5317 32.3814 10.4827 32.4292L10.3784 32.3107C10.4201 32.2658 10.4397 32.2117 10.4372 32.1485C10.4341 32.0852 10.4098 32.0278 10.3643 31.9761C10.3278 31.9346 10.2856 31.9063 10.2378 31.8911C10.1897 31.8756 10.1405 31.8736 10.0904 31.885C10.0397 31.8963 9.99271 31.921 9.94959 31.959C9.90548 31.9978 9.87469 32.0421 9.85722 32.092C9.83913 32.1418 9.83482 32.1923 9.84429 32.2436C9.85377 32.2948 9.87732 32.3422 9.91495 32.3856C9.94186 32.4168 9.9746 32.4444 10.0132 32.4683C10.0514 32.4925 10.0874 32.5084 10.121 32.5162L10.2081 32.6429L9.65641 33.0198L9.19394 32.4944L9.30258 32.3988L9.67464 32.8215L10.0042 32.5945L9.99897 32.5886C9.96425 32.5823 9.9277 32.5683 9.88931 32.5466C9.85092 32.5249 9.8168 32.4971 9.78696 32.4632C9.73248 32.4013 9.69876 32.3331 9.68579 32.2586C9.6722 32.1841 9.67875 32.1106 9.70544 32.038C9.73183 31.9651 9.77779 31.8999 9.8433 31.8422C9.90782 31.7854 9.97818 31.7492 10.0544 31.7335C10.13 31.7178 10.2046 31.7223 10.2782 31.7469C10.3515 31.7717 10.4164 31.8163 10.4729 31.8804Z" fill="#FEFEFE"/>
<path d="M8.45793 28.9138C8.50307 28.9764 8.53127 29.0418 8.54253 29.1099C8.55379 29.178 8.54863 29.2428 8.52703 29.3043C8.50542 29.3659 8.4679 29.4181 8.41446 29.4609L8.32213 29.3328C8.36798 29.2922 8.39274 29.2403 8.39638 29.1771C8.39942 29.1138 8.3808 29.0543 8.34054 28.9984C8.30822 28.9536 8.269 28.9213 8.22288 28.9016C8.1765 28.8815 8.1278 28.8747 8.0768 28.8812C8.02518 28.8876 7.97607 28.9076 7.92947 28.9412C7.8818 28.9756 7.84686 29.0167 7.82463 29.0646C7.8018 29.1124 7.79261 29.1623 7.79707 29.2142C7.80153 29.2662 7.82039 29.3156 7.85363 29.3624C7.87738 29.3961 7.90729 29.4267 7.94335 29.4543C7.97906 29.482 8.01331 29.5014 8.04608 29.5124L8.1204 29.647L7.53481 29.9686L7.12547 29.4008L7.24286 29.3162L7.57218 29.773L7.92219 29.579L7.91757 29.5726C7.88362 29.563 7.8486 29.5456 7.81249 29.5202C7.77639 29.4949 7.74513 29.4639 7.71871 29.4273C7.67049 29.3604 7.64354 29.2893 7.63786 29.2139C7.63156 29.1384 7.64521 29.0658 7.6788 28.9962C7.71214 28.9262 7.76421 28.8657 7.835 28.8147C7.90473 28.7644 7.97827 28.7352 8.05563 28.727C8.13237 28.7187 8.20619 28.7303 8.27709 28.7619C8.34764 28.7938 8.40792 28.8444 8.45793 28.9138Z" fill="#FEFEFE"/>
<path d="M6.99496 25.6601C7.03149 25.7389 7.05053 25.8154 7.05207 25.8896C7.05343 25.9634 7.03844 26.0296 7.00709 26.0882C6.97516 26.1465 6.9279 26.1921 6.86532 26.225L6.79558 26.0746C6.83349 26.0531 6.86123 26.0238 6.87881 25.9867C6.89598 25.9497 6.90338 25.9083 6.901 25.8625C6.89862 25.8167 6.88654 25.7704 6.86477 25.7234C6.84042 25.6709 6.80968 25.6286 6.77255 25.5965C6.73543 25.5644 6.69521 25.5444 6.65188 25.5364C6.60856 25.5285 6.56541 25.5345 6.52244 25.5544C6.47748 25.5753 6.44306 25.6048 6.41918 25.6429C6.3949 25.6812 6.38297 25.7264 6.38341 25.7784C6.38384 25.8304 6.39845 25.8875 6.42723 25.9495L6.47262 26.0474L6.34133 26.1083L6.29594 26.0104C6.27343 25.9619 6.24493 25.9234 6.21045 25.8949C6.17579 25.866 6.13774 25.8486 6.09632 25.8427C6.05471 25.8364 6.01242 25.8432 5.96945 25.8631C5.92808 25.8823 5.89631 25.9081 5.87417 25.9406C5.85202 25.9731 5.84014 26.0101 5.83853 26.0514C5.83674 26.0924 5.84627 26.1353 5.86712 26.1803C5.88667 26.2225 5.91288 26.2587 5.94574 26.2889C5.97802 26.3188 6.01413 26.3388 6.05406 26.3488C6.09359 26.359 6.13411 26.3557 6.17561 26.3389L6.24203 26.4821C6.17687 26.5094 6.11183 26.5162 6.04689 26.5023C5.98157 26.4886 5.92181 26.4588 5.86763 26.4128C5.81327 26.3665 5.76976 26.3081 5.7371 26.2377C5.70205 26.1621 5.68729 26.0901 5.69283 26.0218C5.69797 25.9537 5.71868 25.8936 5.75494 25.8415C5.7912 25.7894 5.83818 25.7499 5.89587 25.7232C5.9647 25.6913 6.03178 25.6821 6.09711 25.6958C6.16225 25.7091 6.21847 25.7423 6.26577 25.7953L6.27532 25.7908C6.25226 25.7078 6.25713 25.6323 6.28993 25.5644C6.32233 25.4966 6.37733 25.4448 6.45491 25.4088C6.52135 25.378 6.58943 25.3684 6.65913 25.3801C6.72826 25.3915 6.79233 25.4213 6.85135 25.4693C6.91037 25.5174 6.95824 25.581 6.99496 25.6601Z" fill="#FEFEFE"/>
<path d="M6.54791 22.0699C6.56092 22.1593 6.55658 22.2406 6.53489 22.3138C6.51269 22.3866 6.47638 22.4462 6.42596 22.4925C6.3751 22.5389 6.31362 22.5672 6.24151 22.5772C6.18516 22.5859 6.13147 22.5824 6.08045 22.5668C6.02899 22.5512 5.98436 22.5263 5.94656 22.4919C5.90826 22.4571 5.88123 22.4161 5.86547 22.3687L5.85766 22.3699C5.85046 22.4361 5.82205 22.492 5.77243 22.5378C5.72238 22.5837 5.66195 22.6115 5.59115 22.6214C5.52351 22.6317 5.46047 22.6234 5.40204 22.5964C5.3436 22.5695 5.29455 22.5279 5.2549 22.4716C5.21517 22.4149 5.18963 22.3475 5.17825 22.2693C5.16701 22.1921 5.17237 22.1208 5.19433 22.0556C5.2163 21.9904 5.25145 21.9365 5.29977 21.894C5.34803 21.8511 5.40598 21.8245 5.47362 21.8142C5.54443 21.8043 5.61038 21.8144 5.67149 21.8445C5.73211 21.8743 5.77521 21.9192 5.8008 21.9793L5.80861 21.9781C5.81028 21.9287 5.82457 21.8823 5.8515 21.8389C5.87799 21.7956 5.91365 21.759 5.95847 21.729C6.00286 21.699 6.05323 21.6797 6.10959 21.6711C6.18169 21.661 6.24876 21.6712 6.3108 21.7016C6.37235 21.7316 6.42414 21.7784 6.46617 21.8419C6.50771 21.9049 6.53496 21.981 6.54791 22.0699ZM6.40469 22.0908C6.39591 22.0305 6.37856 21.9798 6.35265 21.9388C6.32674 21.8978 6.29426 21.868 6.25519 21.8493C6.21613 21.8306 6.1727 21.8245 6.1249 21.831C6.07462 21.8388 6.03203 21.8583 5.99714 21.8895C5.96224 21.9208 5.93695 21.9601 5.92126 22.0076C5.90551 22.0547 5.90174 22.1064 5.90995 22.1628C5.91823 22.2197 5.93669 22.2688 5.96533 22.3103C5.99391 22.3514 6.02937 22.3819 6.07172 22.4019C6.11401 22.4214 6.1603 22.4273 6.21058 22.4195C6.25838 22.413 6.29837 22.3954 6.33054 22.3668C6.36265 22.3378 6.38525 22.2997 6.39834 22.2526C6.41142 22.2055 6.41354 22.1515 6.40469 22.0908ZM5.77194 22.1829C5.76499 22.1352 5.74929 22.0942 5.72482 22.0601C5.70029 22.0256 5.66934 22.0002 5.63195 21.9839C5.59457 21.9676 5.55285 21.9626 5.50679 21.9689C5.46171 21.9759 5.42399 21.9923 5.3936 22.018C5.36278 22.0437 5.34095 22.0764 5.32809 22.1159C5.3148 22.1555 5.31172 22.1998 5.31886 22.2489C5.32613 22.2988 5.34181 22.341 5.36591 22.3756C5.38957 22.4103 5.41981 22.4354 5.45663 22.4509C5.49301 22.4664 5.53374 22.4706 5.57881 22.4636C5.62488 22.4574 5.66354 22.4413 5.69479 22.4155C5.72598 22.3893 5.74841 22.3561 5.76207 22.316C5.77573 22.2759 5.77902 22.2315 5.77194 22.1829Z" fill="#FEFEFE"/>
<path d="M7.03074 18.7814L6.91353 18.7645L6.49498 18.2551C6.44598 18.1953 6.40304 18.1457 6.36618 18.1063C6.32888 18.0668 6.29293 18.0364 6.25834 18.015C6.22338 17.9932 6.1855 17.9793 6.1447 17.9734C6.09781 17.9667 6.0556 17.9721 6.01806 17.9898C5.98059 18.007 5.94974 18.0336 5.92551 18.0695C5.90129 18.1055 5.88572 18.1475 5.87879 18.1957C5.87142 18.2469 5.87563 18.2932 5.89141 18.3344C5.90681 18.3752 5.9319 18.4087 5.96667 18.435C6.0015 18.4608 6.04431 18.4774 6.0951 18.4847L6.073 18.6384C5.99487 18.6271 5.92887 18.5992 5.87502 18.5547C5.82116 18.5102 5.7822 18.4545 5.75813 18.3877C5.73413 18.3205 5.72772 18.248 5.73889 18.1703C5.75013 18.0921 5.77658 18.0253 5.81825 17.9697C5.85991 17.9141 5.91121 17.8732 5.97214 17.8469C6.03307 17.8207 6.09783 17.8125 6.16642 17.8224C6.21547 17.8294 6.26216 17.8452 6.30648 17.8697C6.35043 17.8938 6.39794 17.9316 6.449 17.9833C6.49968 18.0344 6.56055 18.1041 6.63161 18.1923L6.9089 18.5379L6.91932 18.5394L7.00846 17.9195L7.15171 17.9401L7.03074 18.7814Z" fill="#FEFEFE"/>
<path d="M8.6303 15.0422C8.59802 15.1123 8.555 15.169 8.50125 15.2124C8.4475 15.2557 8.38853 15.2831 8.32434 15.2946C8.26015 15.3061 8.19625 15.2991 8.13263 15.2736L8.19867 15.1302C8.25661 15.1502 8.31398 15.1462 8.37078 15.1182C8.42736 15.0897 8.47005 15.0442 8.49885 14.9817C8.52196 14.9315 8.53076 14.8815 8.52523 14.8316C8.51989 14.7813 8.50184 14.7356 8.47108 14.6944C8.44011 14.6526 8.39853 14.6197 8.34635 14.5957C8.29297 14.5711 8.23995 14.5609 8.1873 14.5652C8.13444 14.5688 8.0865 14.5854 8.04349 14.6148C8.00048 14.6443 7.96676 14.685 7.94233 14.737C7.92469 14.7742 7.91276 14.8153 7.90655 14.8603C7.89994 14.905 7.89993 14.9444 7.90651 14.9783L7.82595 15.1092L7.25776 14.7578L7.55053 14.122L7.68199 14.1825L7.44645 14.694L7.78754 14.9033L7.79085 14.8961C7.78248 14.8618 7.78044 14.8227 7.78473 14.7788C7.78901 14.7349 7.8006 14.6925 7.81949 14.6514C7.85398 14.5766 7.90263 14.5181 7.96545 14.476C8.02805 14.4334 8.09793 14.4096 8.17508 14.4046C8.25242 14.3991 8.33072 14.4147 8.41 14.4512C8.48807 14.4871 8.54971 14.5368 8.59492 14.6001C8.6399 14.6628 8.66609 14.7328 8.67348 14.8101C8.68047 14.8871 8.66607 14.9645 8.6303 15.0422Z" fill="#FEFEFE"/>
<path d="M10.211 12.3208L10.1101 12.2323L9.79599 11.1696L9.86017 11.0964L10.0165 11.2334L9.97313 11.2829L10.2105 12.0859L10.2184 12.0928L10.744 11.4932L10.8528 11.5886L10.211 12.3208ZM10.8368 12.026L10.5984 11.817L10.5514 11.7758L9.82375 11.1379L9.92609 11.0212L10.9392 11.9093L10.8368 12.026Z" fill="#FEFEFE"/>
<path d="M13.2779 10.235L13.2148 10.1348L13.3315 9.48587C13.3453 9.40981 13.3552 9.34497 13.3614 9.29135C13.3672 9.23736 13.3671 9.19026 13.361 9.15007C13.355 9.10928 13.341 9.07144 13.319 9.03656C13.2938 8.99649 13.2623 8.96788 13.2245 8.95072C13.1871 8.93333 13.1469 8.92706 13.1038 8.93191C13.0607 8.93676 13.0186 8.95217 12.9774 8.97812C12.9336 9.0057 12.9011 9.03887 12.8799 9.07763C12.8589 9.11578 12.8496 9.1566 12.8521 9.20011C12.855 9.24338 12.8701 9.28672 12.8975 9.33013L12.7661 9.41289C12.7241 9.3461 12.7025 9.27777 12.7015 9.20791C12.7005 9.13804 12.7177 9.07229 12.753 9.01066C12.7886 8.94879 12.8397 8.89694 12.9061 8.85509C12.9729 8.81301 13.041 8.78982 13.1103 8.78552C13.1796 8.78123 13.244 8.79378 13.3035 8.82317C13.363 8.85257 13.4112 8.89658 13.4481 8.95521C13.4746 8.99714 13.4928 9.04293 13.5028 9.09259C13.513 9.14164 13.515 9.20235 13.5087 9.27471C13.5026 9.34646 13.489 9.43797 13.4679 9.54925L13.3844 9.9844L13.39 9.9933L13.9198 9.65945L13.997 9.7819L13.2779 10.235Z" fill="#FEFEFE"/>
<path d="M15.9054 7.31771C15.9587 7.30329 16.0148 7.29858 16.0735 7.30359C16.1323 7.30861 16.1901 7.32801 16.2468 7.3618C16.3035 7.39518 16.3562 7.44765 16.4048 7.51922C16.4534 7.5908 16.4944 7.68615 16.5276 7.80528C16.5598 7.92061 16.5773 8.02611 16.5803 8.12179C16.5837 8.21694 16.5734 8.30085 16.5495 8.37353C16.526 8.44609 16.4895 8.50635 16.4401 8.55429C16.391 8.60211 16.33 8.63621 16.2569 8.65659C16.1842 8.67685 16.1154 8.68057 16.0503 8.66775C15.9856 8.65439 15.9279 8.627 15.8772 8.5856C15.8268 8.54365 15.787 8.48987 15.7578 8.42426L15.9124 8.38115C15.9429 8.43682 15.9843 8.47832 16.0365 8.50564C16.0891 8.53242 16.1496 8.53627 16.218 8.51718C16.3181 8.48927 16.3849 8.42351 16.4184 8.31993C16.4523 8.21623 16.447 8.08453 16.4025 7.92485L16.3924 7.92768C16.3786 7.96976 16.359 8.00822 16.3337 8.04306C16.3084 8.0779 16.2778 8.10783 16.242 8.13284C16.2061 8.15786 16.1658 8.17661 16.1211 8.18909C16.0467 8.20983 15.9734 8.21048 15.901 8.19104C15.829 8.17107 15.7653 8.13395 15.7101 8.07968C15.6553 8.02487 15.6161 7.95565 15.5928 7.872C15.5707 7.79258 15.5682 7.71498 15.5853 7.63918C15.6027 7.56284 15.6382 7.49602 15.6919 7.43871C15.746 7.38128 15.8172 7.34095 15.9054 7.31771ZM15.9443 7.45712C15.891 7.47196 15.8468 7.49864 15.8115 7.53715C15.7766 7.57512 15.7529 7.61997 15.7405 7.6717C15.7283 7.72289 15.7298 7.77552 15.7449 7.82959C15.76 7.88367 15.7855 7.92958 15.8216 7.96734C15.8579 8.00456 15.9004 8.03049 15.9491 8.04514C15.9981 8.05925 16.0492 8.05888 16.1025 8.04403C16.1426 8.03284 16.1778 8.0146 16.2081 7.98931C16.2382 7.9636 16.2624 7.93342 16.2805 7.89877C16.2989 7.86359 16.3106 7.8264 16.3156 7.78722C16.3205 7.74761 16.3176 7.70858 16.3069 7.67014C16.2927 7.61945 16.2672 7.57534 16.2304 7.53782C16.1939 7.50018 16.1505 7.47357 16.1002 7.45801C16.0503 7.44234 15.9983 7.44204 15.9443 7.45712Z" fill="#FEFEFE"/>
<path d="M16.0161 13.2817C16.2846 13.2992 16.5002 13.385 16.6949 13.5718C16.8716 13.7794 16.982 13.9997 16.9913 14.2749C16.9733 14.4278 16.9522 14.5843 16.8737 14.7187C17.0891 14.9018 17.3248 15.0463 17.5657 15.1926C17.6637 15.2521 17.7614 15.312 17.8591 15.3718C17.9087 15.4021 17.9582 15.4324 18.0078 15.4627C18.2213 15.5933 18.4336 15.7256 18.6455 15.8588C18.7121 15.9006 18.7788 15.9424 18.8454 15.9842C18.8783 16.0049 18.9112 16.0256 18.9451 16.0469C19.1266 16.1606 19.3084 16.2738 19.4901 16.387C19.5459 16.4217 19.5459 16.4217 19.6027 16.4571C19.678 16.504 19.7532 16.5509 19.8285 16.5977C19.9779 16.6908 20.1274 16.7839 20.2768 16.8771C20.3508 16.9232 20.4247 16.9692 20.4986 17.0153C20.6722 17.1234 20.8457 17.2316 21.0191 17.3399C21.1004 17.3907 21.1817 17.4414 21.263 17.4922C21.3199 17.5278 21.3768 17.5634 21.4337 17.5989C21.5321 17.6603 21.6306 17.7213 21.7293 17.7822C21.7553 17.7986 21.7814 17.815 21.8082 17.8318C21.9745 17.9337 22.0791 17.9624 22.2675 17.9196C22.4589 17.8578 22.5614 17.7548 22.6586 17.5825C22.6995 17.4676 22.7254 17.3512 22.7506 17.232C22.7654 17.1666 22.7803 17.1012 22.7951 17.0358C22.8021 17.0045 22.8091 16.9732 22.8162 16.941C22.8399 16.8367 22.8669 16.7336 22.8951 16.6305C22.9452 16.4449 22.9913 16.2584 23.0368 16.0717C23.0911 15.8491 23.1476 15.6275 23.2071 15.4063C23.2469 15.2539 23.2843 15.101 23.3216 14.948C23.4105 14.5839 23.504 14.2216 23.6107 13.8622C23.5867 13.846 23.5626 13.8298 23.5378 13.8131C23.3734 13.668 23.2541 13.5068 23.2214 13.2861C23.2104 13.1035 23.2618 12.95 23.3649 12.8C23.5182 12.6736 23.6681 12.5672 23.8665 12.5384C24.1315 12.5869 24.3081 12.6481 24.4782 12.8622C24.5791 13.0502 24.6234 13.2056 24.5672 13.4155C24.5058 13.5908 24.4274 13.6943 24.284 13.8112C24.2625 13.8288 24.2409 13.8465 24.2187 13.8646C24.2022 13.878 24.1857 13.8914 24.1687 13.9052C24.189 13.9482 24.189 13.9482 24.2097 13.9921C24.5386 14.6893 24.8673 15.3865 25.196 16.0838C25.3549 16.4209 25.5138 16.7581 25.6729 17.0952C25.8115 17.389 25.95 17.6828 26.0884 17.9766C26.1617 18.1322 26.2351 18.2879 26.3086 18.4435C26.3777 18.5898 26.4466 18.7362 26.5155 18.8826C26.5409 18.9364 26.5663 18.9902 26.5918 19.0441C26.6264 19.1173 26.6608 19.1906 26.6953 19.2639C26.7106 19.2961 26.7106 19.2961 26.7262 19.329C26.7951 19.4762 26.7951 19.4762 26.8049 19.5606C26.7358 19.6502 26.648 19.7137 26.5579 19.7811C26.5113 19.816 26.5113 19.816 26.4637 19.8517C26.4298 19.877 26.3958 19.9023 26.3608 19.9284C26.3252 19.955 26.2897 19.9816 26.253 20.009C25.8032 20.3449 25.3515 20.6783 24.8987 21.0102C24.865 21.0349 24.8313 21.0596 24.7966 21.0851C22.826 22.5269 20.756 23.8746 18.6432 25.0983C18.6232 25.11 18.6031 25.1216 18.5824 25.1336C18.079 25.4251 17.5744 25.7145 17.0683 26.0013C17.0316 26.0222 16.995 26.043 16.9572 26.0645C16.9234 26.0836 16.8896 26.1027 16.8547 26.1224C16.8254 26.1391 16.796 26.1557 16.7658 26.1728C16.686 26.2147 16.6061 26.249 16.5219 26.2809C16.3071 26.0804 16.1169 25.8596 15.9248 25.6378C15.8875 25.595 15.8503 25.5522 15.8131 25.5094C15.7125 25.3938 15.6121 25.278 15.5117 25.1622C15.4277 25.0654 15.3437 24.9687 15.2596 24.8719C15.0614 24.6438 14.8633 24.4155 14.6653 24.1872C14.4611 23.9518 14.2568 23.7165 14.0524 23.4813C13.8767 23.2791 13.7011 23.0768 13.5255 22.8745C13.4207 22.7537 13.3159 22.633 13.2111 22.5124C13.1125 22.399 13.0141 22.2856 12.9158 22.172C12.8797 22.1304 12.8436 22.0889 12.8075 22.0473C12.7581 21.9906 12.7088 21.9337 12.6596 21.8768C12.632 21.845 12.6044 21.8132 12.576 21.7805C12.5078 21.6969 12.4487 21.6118 12.3916 21.5204C12.3632 21.5425 12.3632 21.5425 12.3342 21.5651C12.1688 21.6847 12.042 21.7576 11.8347 21.7457C11.6508 21.7145 11.5206 21.663 11.3963 21.5198C11.2862 21.3617 11.2018 21.2247 11.2131 21.0269C11.2628 20.7897 11.3244 20.6631 11.5294 20.5247C11.697 20.4183 11.8157 20.3643 12.0163 20.4063C12.2329 20.464 12.3248 20.5362 12.4486 20.7265C12.4804 20.775 12.4804 20.775 12.5129 20.8244C12.5675 20.9163 12.5675 20.9163 12.5859 20.9915C12.6101 21.0591 12.6101 21.0591 12.6985 21.0799C12.752 21.0893 12.752 21.0893 12.8066 21.0989C12.8415 21.1054 12.8763 21.1118 12.9123 21.1185C13.0111 21.134 13.1099 21.1482 13.209 21.1618C13.3997 21.1883 13.5888 21.2217 13.7782 21.2562C14.0515 21.3055 14.3249 21.3529 14.599 21.3974C14.7391 21.4202 14.8791 21.4434 15.0191 21.4669C15.0557 21.4731 15.0557 21.4731 15.0931 21.4793C15.2288 21.5021 15.3643 21.5256 15.4996 21.55C16.1592 21.7127 16.1592 21.7127 16.7757 21.5581C16.8995 21.4578 16.9402 21.3491 16.9664 21.1954C16.9818 21.0445 16.9641 20.9056 16.9401 20.7565C16.9338 20.7144 16.9338 20.7144 16.9273 20.6715C16.9133 20.5795 16.8989 20.4875 16.8845 20.3956C16.8746 20.3306 16.8647 20.2657 16.8548 20.2007C16.8344 20.0667 16.8138 19.9327 16.7931 19.7987C16.7647 19.6144 16.7371 19.4301 16.7097 19.2457C16.7055 19.2173 16.7013 19.1889 16.697 19.1597C16.6886 19.103 16.6801 19.0462 16.6717 18.9895C16.618 18.6274 16.5636 18.2653 16.5087 17.9033C16.5047 17.8768 16.5007 17.8502 16.4965 17.8229C16.4764 17.6901 16.4562 17.5574 16.436 17.4246C16.3909 17.1277 16.347 16.8306 16.3041 16.5333C16.2944 16.4666 16.2848 16.4 16.2751 16.3333C16.2565 16.2052 16.2382 16.0771 16.22 15.949C16.2115 15.8904 16.203 15.8319 16.1945 15.7733C16.189 15.7338 16.189 15.7338 16.1834 15.6934C16.1604 15.5364 16.1247 15.3918 16.0739 15.2413C16.0329 15.2429 15.9919 15.2445 15.9497 15.2461C15.7216 15.2377 15.5147 15.1286 15.338 14.9885C15.1613 14.7628 15.0391 14.5469 15.0229 14.2569C15.0389 14.1293 15.0389 14.1293 15.0724 14.0207C15.0855 13.9693 15.0855 13.9693 15.0988 13.9169C15.2522 13.5358 15.6068 13.2987 16.0161 13.2817ZM19.3011 20.4289C19.2438 20.9742 19.5364 21.4832 19.8555 21.901C20.066 22.1431 20.3107 22.3113 20.6079 22.4284C20.6423 22.4438 20.6767 22.4591 20.7121 22.4749C20.9292 22.5204 21.1279 22.5075 21.321 22.3929C21.5147 22.249 21.6013 22.0844 21.643 21.8487C21.7018 21.2685 21.453 20.7581 21.1004 20.3129C20.8091 19.9824 20.4556 19.7473 20.0135 19.6996C19.5615 19.6838 19.3741 20.0369 19.3011 20.4289ZM16.4445 23.3557C16.4303 23.6359 16.5268 23.8321 16.6937 24.0489C16.9289 24.2976 17.2609 24.5538 17.6138 24.5724C17.8526 24.5763 18.0036 24.5692 18.1952 24.4128C18.2983 24.2569 18.3139 24.1031 18.2908 23.9197C18.1329 23.5054 17.8198 23.2369 17.4219 23.0565C17.199 22.9774 16.972 22.9374 16.7412 22.9988C16.5669 23.0873 16.4983 23.1673 16.4445 23.3557ZM23.5052 18.9247C23.467 19.3231 23.5582 19.7734 23.8093 20.0916C23.967 20.2413 24.1214 20.3512 24.345 20.3657C24.5161 20.316 24.6407 20.2252 24.7381 20.0782C24.9087 19.7518 24.8817 19.3743 24.7905 19.0289C24.704 18.7846 24.5569 18.516 24.3301 18.378C24.2659 18.3475 24.2659 18.3475 24.204 18.3254C24.1731 18.3128 24.1422 18.3002 24.1103 18.2873C23.7491 18.2817 23.5661 18.6053 23.5052 18.9247Z" fill="#E30808"/>
<path d="M17.1946 27.6073C17.2192 27.5932 17.2438 27.579 17.2692 27.5644C17.559 27.399 17.8525 27.2405 18.1459 27.0816C18.6553 26.8052 19.1625 26.5258 19.6629 26.2335C19.684 26.2212 19.7052 26.2088 19.727 26.1961C19.8582 26.1195 19.9889 26.042 20.1193 25.964C20.1745 25.9309 20.2298 25.898 20.2852 25.8652C20.9935 25.444 21.6833 24.9952 22.3727 24.544C22.4171 24.515 22.4171 24.515 22.4624 24.4854C24.1952 23.3522 25.8893 22.1613 27.5132 20.8757C27.9735 20.513 27.9735 20.513 28.235 20.5014C28.4132 20.5308 28.5603 20.5732 28.6713 20.7236C28.6897 20.7512 28.708 20.7787 28.7268 20.8072C28.7477 20.8385 28.7685 20.8697 28.79 20.902C28.8235 20.9529 28.8235 20.9529 28.8577 21.0048C28.8807 21.0397 28.9037 21.0745 28.9274 21.1105C28.9761 21.1844 29.0247 21.2583 29.0732 21.3323C29.1475 21.4453 29.2224 21.558 29.2973 21.6706C29.3445 21.7424 29.3916 21.8143 29.4388 21.8861C29.4612 21.9198 29.4837 21.9534 29.5068 21.988C29.6341 22.1839 29.7063 22.3228 29.6871 22.5617C29.6275 22.796 29.4918 22.9151 29.3106 23.0672C29.2852 23.0895 29.2597 23.1118 29.2334 23.1347C28.9024 23.4217 28.5606 23.6965 28.2222 23.9747C28.2482 23.9578 28.2742 23.941 28.301 23.9236C28.5459 23.7651 28.7912 23.6071 29.0368 23.4498C29.1631 23.3689 29.2892 23.2877 29.4151 23.2061C29.5365 23.1274 29.6583 23.0492 29.7803 22.9714C29.8268 22.9416 29.8732 22.9116 29.9195 22.8814C29.9842 22.8392 30.0494 22.7977 30.1147 22.7564C30.1517 22.7325 30.1887 22.7087 30.2269 22.6842C30.326 22.6405 30.326 22.6405 30.4167 22.6575C30.4864 22.6988 30.4864 22.6988 30.53 22.7772C30.5512 22.8602 30.5512 22.8602 30.5314 22.9547C30.4496 23.0185 30.4496 23.0185 30.3358 23.093C30.3149 23.1068 30.294 23.1206 30.2724 23.1349C30.2016 23.1815 30.1305 23.2278 30.0594 23.274C30.0084 23.3076 29.9574 23.3411 29.9063 23.3747C29.7655 23.4672 29.6245 23.5594 29.4834 23.6515C29.3315 23.7507 29.1798 23.8503 29.0281 23.9498C28.7306 24.1449 28.4329 24.3397 28.1351 24.5344C27.8932 24.6925 27.6513 24.8507 27.4095 25.009C26.7246 25.4574 26.0395 25.9054 25.3543 26.3532C25.3173 26.3774 25.2803 26.4016 25.2422 26.4264C25.2052 26.4506 25.1682 26.4748 25.1301 26.4998C24.5298 26.892 23.9299 27.2848 23.3302 27.6779C22.7151 28.0811 22.0997 28.4838 21.4841 28.8861C21.1381 29.1121 20.7923 29.3384 20.4468 29.565C20.1527 29.758 19.8583 29.9506 19.5636 30.1426C19.4131 30.2407 19.2627 30.339 19.1127 30.4377C18.9755 30.528 18.838 30.6178 18.7002 30.7071C18.6502 30.7397 18.6004 30.7724 18.5507 30.8053C18.4834 30.8498 18.4158 30.8936 18.3479 30.9373C18.3103 30.9619 18.2728 30.9864 18.234 31.0118C18.1347 31.0564 18.1347 31.0564 18.0439 31.0396C17.9522 30.9849 17.9355 30.9387 17.9095 30.8366C17.9381 30.7003 18.0092 30.6787 18.1239 30.602C18.1443 30.5883 18.1648 30.5745 18.1858 30.5603C18.2535 30.5148 18.3215 30.4697 18.3895 30.4245C18.4365 30.3931 18.4834 30.3616 18.5304 30.3301C18.654 30.2472 18.7779 30.1646 18.9019 30.0821C19.0282 29.9979 19.1544 29.9133 19.2806 29.8288C19.5283 29.663 19.7763 29.4975 20.0244 29.3322C19.9964 29.3464 19.9964 29.3464 19.9679 29.3609C19.7732 29.4598 19.5782 29.558 19.383 29.6559C19.3103 29.6924 19.2376 29.7291 19.1651 29.766C19.0605 29.8191 18.9556 29.8717 18.8507 29.9241C18.8025 29.9488 18.8025 29.9488 18.7533 29.9741C18.5178 30.0906 18.2992 30.1706 18.0387 30.0949C17.8868 30.036 17.8427 29.9941 17.7534 29.8602C17.7317 29.8279 17.71 29.7955 17.6877 29.7622C17.6643 29.7269 17.641 29.6916 17.6169 29.6553C17.593 29.6191 17.569 29.583 17.5444 29.5458C17.4937 29.4691 17.4431 29.3924 17.3926 29.3156C17.328 29.2175 17.2628 29.1199 17.1975 29.0223C17.1351 28.9289 17.0735 28.835 17.0119 28.7412C16.9884 28.7063 16.9649 28.6715 16.9407 28.6356C16.7962 28.4132 16.7459 28.2952 16.7937 28.0339C16.8693 27.7977 16.9844 27.7266 17.1946 27.6073ZM18.9971 27.3843C18.9857 27.4404 18.9857 27.4404 18.9741 27.4976C18.9658 27.538 18.9575 27.5784 18.949 27.6199C18.9405 27.6624 18.932 27.7049 18.9232 27.7487C18.9145 27.7913 18.9058 27.834 18.8968 27.8779C18.8753 27.9836 18.8539 28.0893 18.8328 28.1951C18.94 28.2663 19.0378 28.2931 19.1634 28.3185C19.2014 28.3263 19.2393 28.334 19.2784 28.3421C19.3178 28.3499 19.3573 28.3578 19.3979 28.3659C19.4578 28.3781 19.4578 28.3781 19.519 28.3906C19.6175 28.4106 19.7161 28.4305 19.8148 28.4501C19.8804 28.2345 19.9328 28.0194 19.9775 27.7986C19.9837 27.7684 19.9899 27.7382 19.9963 27.7071C20.0114 27.6337 20.0264 27.5603 20.0413 27.4868C19.8268 27.4219 19.6125 27.3678 19.3933 27.3218C19.3636 27.3153 19.3339 27.3087 19.3033 27.302C19.2609 27.293 19.2609 27.293 19.2176 27.2839C19.1921 27.2785 19.1666 27.273 19.1404 27.2674C19.0358 27.2555 19.0241 27.2858 18.9971 27.3843ZM26.6831 22.365C26.6709 22.4242 26.6709 22.4242 26.6584 22.4846C26.6496 22.5271 26.6408 22.5697 26.6316 22.6136C26.6223 22.6589 26.6131 22.7043 26.6038 22.7496C26.5944 22.795 26.585 22.8405 26.5755 22.8859C26.5525 22.9975 26.5295 23.1091 26.5066 23.2208C26.7141 23.2845 26.9218 23.3356 27.1345 23.3785C27.1764 23.3871 27.1764 23.3871 27.2191 23.3959C27.2869 23.4098 27.3548 23.4236 27.4226 23.4373C27.4915 23.3329 27.5192 23.2393 27.5439 23.117C27.5512 23.0812 27.5586 23.0454 27.5661 23.0086C27.5772 22.9528 27.5772 22.9528 27.5885 22.8958C27.5962 22.8581 27.6038 22.8204 27.6118 22.7816C27.6307 22.6886 27.6493 22.5957 27.6678 22.5026C27.5638 22.4342 27.4701 22.4058 27.3485 22.3807C27.295 22.3696 27.295 22.3696 27.2404 22.3582C27.2033 22.3508 27.1663 22.3433 27.1281 22.3356C27.0719 22.3239 27.0719 22.3239 27.0146 22.3119C26.7963 22.2346 26.7963 22.2346 26.6831 22.365ZM22.9917 25.1443C22.9837 25.1836 22.9758 25.223 22.9675 25.2636C22.9588 25.3061 22.95 25.3486 22.941 25.3924C22.932 25.4376 22.9229 25.4828 22.9139 25.528C22.9046 25.5733 22.8953 25.6186 22.886 25.664C22.8633 25.7753 22.8408 25.8866 22.8185 25.9979C23.0341 26.0635 23.2492 26.1159 23.47 26.1606C23.5002 26.1669 23.5304 26.1731 23.5615 26.1795C23.6349 26.1946 23.7083 26.2095 23.7818 26.2244C23.8474 26.0088 23.8998 25.7937 23.9445 25.5729C23.9507 25.5427 23.9569 25.5125 23.9633 25.4814C23.9784 25.408 23.9934 25.3346 24.0083 25.2611C23.9046 25.1931 23.811 25.1641 23.69 25.1386C23.6544 25.1311 23.6189 25.1236 23.5822 25.1158C23.5453 25.1083 23.5084 25.1007 23.4703 25.093C23.4331 25.085 23.3959 25.077 23.3575 25.0687C23.3221 25.0614 23.2866 25.054 23.2501 25.0464C23.2176 25.0397 23.1851 25.0329 23.1516 25.026C23.0346 25.011 23.0224 25.0312 22.9917 25.1443Z" fill="#DE7E29"/>
<path d="M16.7188 26.5195C16.74 26.5075 16.7612 26.4955 16.7831 26.4831C16.9915 26.3652 17.1998 26.247 17.4079 26.1287C17.5148 26.068 17.6216 26.0073 17.7286 25.9468C19.1113 25.1646 20.4588 24.3337 21.7871 23.4623C21.9207 23.3746 22.0545 23.2873 22.1884 23.2001C23.5485 22.3147 24.8793 21.3944 26.1745 20.4163C26.2508 20.3589 26.3272 20.3015 26.4036 20.2442C26.5841 20.1085 26.7644 19.9727 26.9446 19.8366C26.979 19.8989 27.0134 19.9613 27.0478 20.0237C27.067 20.0585 27.0861 20.0932 27.1058 20.129C27.1635 20.2354 27.2159 20.342 27.2655 20.4523C27.2809 20.4862 27.2963 20.5201 27.3122 20.555C27.3443 20.6353 27.3443 20.6353 27.3344 20.6825C27.293 20.7177 27.2502 20.7513 27.2069 20.7841C27.1651 20.8159 27.1651 20.8159 27.1225 20.8484C27.0917 20.8716 27.0609 20.8948 27.0292 20.9187C26.9973 20.9429 26.9655 20.9671 26.9326 20.992C26.8276 21.0715 26.7224 21.1509 26.6172 21.2302C26.5814 21.2572 26.5455 21.2843 26.5086 21.3122C26.0475 21.6604 25.5845 22.0059 25.1158 22.3439C25.094 22.3596 25.0723 22.3753 25.0499 22.3915C24.9149 22.4887 24.7794 22.5852 24.6436 22.6812C24.5852 22.7225 24.5268 22.7639 24.4685 22.8053C23.7648 23.3041 23.0458 23.7788 22.3235 24.2503C22.2937 24.2697 22.2638 24.2892 22.2331 24.3093C20.8108 25.2382 19.3638 26.111 17.8803 26.9386C17.8473 26.9571 17.8143 26.9755 17.7803 26.9946C17.6349 27.0753 17.4914 27.1535 17.337 27.2161C17.2742 27.1502 17.2115 27.0841 17.149 27.018C17.1315 26.9997 17.1141 26.9815 17.0962 26.9627C16.9994 26.8602 16.9076 26.7556 16.8195 26.6455C16.8006 26.6218 16.7816 26.5981 16.762 26.5737C16.7477 26.5558 16.7335 26.538 16.7188 26.5195Z" fill="#F9E342"/>
<path d="M13.496 17.7718C13.675 17.7863 13.8232 17.8134 13.9672 17.9275C14.1028 18.1046 14.2249 18.2667 14.2175 18.4977C14.1994 18.6064 14.1994 18.6064 14.1779 18.6866C14.3192 18.8014 14.4787 18.855 14.6473 18.9175C14.7112 18.9416 14.7752 18.9657 14.8391 18.9898C14.8718 19.0021 14.9045 19.0143 14.9381 19.0269C15.1774 19.1168 15.4159 19.2089 15.6543 19.3009C15.7461 19.3362 15.838 19.3711 15.93 19.4059C15.9899 19.4289 16.0498 19.452 16.1097 19.4751C16.1375 19.4854 16.1652 19.4958 16.1938 19.5065C16.2195 19.5165 16.2452 19.5265 16.2718 19.5368C16.2943 19.5454 16.3168 19.554 16.34 19.5628C16.4252 19.6084 16.4678 19.6412 16.5251 19.7208C16.5546 19.8252 16.568 19.9307 16.5818 20.0382C16.586 20.0692 16.5903 20.1002 16.5948 20.1321C16.6037 20.1976 16.6124 20.2631 16.6209 20.3286C16.6339 20.4288 16.6479 20.5289 16.662 20.6289C16.6706 20.6926 16.6791 20.7563 16.6876 20.82C16.6918 20.8499 16.696 20.8797 16.7003 20.9105C16.7332 21.173 16.7332 21.173 16.6621 21.3026C16.5952 21.3718 16.5952 21.3718 16.4907 21.4146C16.3685 21.4124 16.2512 21.3871 16.1315 21.364C16.0629 21.3525 15.9944 21.3411 15.9258 21.3299C15.8347 21.315 15.7436 21.3 15.6528 21.2828C15.5835 21.2713 15.5835 21.2713 15.514 21.2797C15.4183 21.2829 15.3598 21.2718 15.2714 21.2331C15.1325 21.0876 15.0285 20.921 14.9203 20.7521C14.888 20.7032 14.8555 20.6543 14.823 20.6056C14.738 20.4774 14.6541 20.3485 14.5704 20.2194C14.4848 20.0876 14.398 19.9566 14.3113 19.8255C14.1416 19.5685 13.9732 19.3107 13.8055 19.0523C13.7622 19.0727 13.7622 19.0727 13.718 19.0934C13.5526 19.1617 13.4214 19.1492 13.252 19.0981C13.0526 18.9858 12.9427 18.8273 12.8698 18.614C12.836 18.4363 12.8597 18.252 12.9501 18.095C13.0841 17.9349 13.2837 17.7917 13.496 17.7718Z" fill="#DE7E29"/>
<path d="M20.8593 12.9537C21.0394 12.9589 21.2066 13.0169 21.3404 13.1394C21.4854 13.3105 21.5521 13.4741 21.5435 13.6997C21.5173 13.8539 21.4616 13.9851 21.36 14.105C21.3317 14.1235 21.3034 14.1419 21.2743 14.161C21.3008 14.2005 21.3008 14.2005 21.3278 14.2407C21.494 14.4889 21.6596 14.7375 21.8245 14.9867C21.9092 15.1148 21.9943 15.2427 22.0799 15.3702C22.1625 15.4932 22.2445 15.6168 22.326 15.7406C22.3571 15.7878 22.3886 15.8348 22.4203 15.8816C22.4647 15.9472 22.5081 16.0134 22.5514 16.0798C22.5713 16.1086 22.5713 16.1086 22.5916 16.1379C22.6616 16.2475 22.675 16.298 22.6586 16.4288C22.6474 16.4653 22.6363 16.5018 22.6249 16.5394C22.618 16.5737 22.6111 16.6079 22.604 16.6432C22.5633 16.8438 22.5187 17.0416 22.4602 17.2378C22.4416 17.3012 22.4264 17.3656 22.412 17.4301C22.3477 17.5692 22.2804 17.6057 22.1413 17.6707C21.9743 17.6338 21.8417 17.5517 21.7012 17.4579C21.6798 17.4438 21.6583 17.4297 21.6362 17.4152C21.5912 17.3856 21.5462 17.3558 21.5012 17.3259C21.4329 17.2805 21.3643 17.2354 21.2957 17.1904C21.2517 17.1614 21.2077 17.1324 21.1638 17.1034C21.1435 17.09 21.1232 17.0766 21.1023 17.0628C21.0466 17.0258 20.9915 16.9878 20.9364 16.9499C20.9041 16.928 20.8718 16.906 20.8385 16.8834C20.7673 16.8158 20.7673 16.8158 20.7491 16.7386C20.7505 16.7104 20.7518 16.6822 20.7532 16.6532C20.7549 16.6056 20.7549 16.6056 20.7566 16.557C20.7587 16.5232 20.7608 16.4893 20.7629 16.4544C20.7644 16.4192 20.7659 16.384 20.7674 16.3478C20.772 16.242 20.7779 16.1362 20.784 16.0304C20.7868 15.9745 20.7897 15.9186 20.7924 15.8626C20.7977 15.7603 20.8034 15.6581 20.8094 15.5558C20.8329 15.1439 20.8481 14.7305 20.8469 14.318C20.8269 14.3128 20.8068 14.3077 20.7862 14.3024C20.5403 14.236 20.397 14.1607 20.2612 13.9401C20.1817 13.774 20.1728 13.6056 20.2198 13.4285C20.3399 13.1403 20.5489 12.9759 20.8593 12.9537Z" fill="#DE7E29"/>
<path d="M30.8566 22.2847C30.8819 22.268 30.9071 22.2514 30.9332 22.2343C30.9732 22.2086 30.9732 22.2086 31.014 22.1824C31.0403 22.1649 31.0667 22.1473 31.0939 22.1293C31.1319 22.1045 31.1319 22.1045 31.1708 22.0793C31.1941 22.0642 31.2174 22.049 31.2414 22.0334C31.3043 22.0029 31.3043 22.0029 31.3987 22.0227C31.4712 22.118 31.4712 22.118 31.5294 22.2226C31.5056 22.3361 31.4867 22.3425 31.3933 22.404C31.3575 22.4275 31.3575 22.4275 31.321 22.4515C31.2958 22.4677 31.2706 22.4838 31.2447 22.5004C31.2199 22.5169 31.1952 22.5334 31.1697 22.5504C31.1457 22.566 31.1217 22.5816 31.0969 22.5976C31.075 22.6119 31.053 22.6262 31.0304 22.6409C30.9669 22.6718 30.9669 22.6718 30.8439 22.6707C30.7696 22.5765 30.7696 22.5765 30.7132 22.4707C30.7374 22.355 30.7607 22.3477 30.8566 22.2847Z" fill="#E30808"/>
<path d="M17.2178 31.1933C17.2474 31.1741 17.2474 31.1741 17.2776 31.1545C17.297 31.1412 17.3164 31.1279 17.3364 31.1141C17.3936 31.0767 17.3936 31.0767 17.4977 31.0235C17.6108 31.0718 17.6108 31.0718 17.6713 31.18C17.6851 31.2165 17.6988 31.2529 17.7129 31.2904C17.6558 31.3883 17.572 31.4302 17.478 31.4924C17.4245 31.5282 17.4245 31.5282 17.3699 31.5648C17.2746 31.6177 17.2746 31.6177 17.1801 31.5979C17.1076 31.5026 17.1076 31.5026 17.0494 31.3979C17.074 31.2807 17.1214 31.2578 17.2178 31.1933Z" fill="#E30808"/>
<path d="M42.1187 25.5622L39.694 9.18701H42.8215L43.8054 15.9339C43.8523 16.2501 43.8991 16.584 43.946 16.9354C43.9928 17.2751 44.028 17.6909 44.0514 18.1828C44.3208 17.6909 44.5668 17.2751 44.7893 16.9354C45.0236 16.584 45.2462 16.2501 45.457 15.9339L50.2887 8.65991L51.5362 15.9339C51.5948 16.2501 51.6592 16.584 51.7295 16.9354C51.7998 17.2751 51.8466 17.6909 51.87 18.1828C52.1395 17.6909 52.3796 17.2751 52.5904 16.9354C52.8013 16.584 53.0062 16.2501 53.2054 15.9339L57.5276 9.18701H60.9186L50.3415 25.5622L49.0237 17.7612C48.9769 17.4449 48.9241 17.1111 48.8656 16.7597C48.807 16.4083 48.766 15.9866 48.7426 15.4946C48.4732 15.9866 48.2213 16.4083 47.9871 16.7597C47.7645 17.0994 47.5478 17.4273 47.337 17.7436L42.1187 25.5622ZM58.8739 25L62.8271 9.18701H66.0952L62.1419 25H58.8739ZM77.9291 25.5271L70.9011 15.5825L68.5643 25H65.6125L69.6888 8.65991L76.7168 18.587L79.0536 9.18701H82.0053L77.9291 25.5271ZM83.7272 12.0333L84.43 9.18701H95.4288L94.726 12.0333H90.8606L87.6102 25H84.3421L87.5926 12.0333H83.7272ZM93.9908 25L97.9089 9.18701H102.407C103.274 9.18701 104.053 9.38028 104.744 9.76682C105.435 10.1416 105.979 10.657 106.378 11.313C106.788 11.9689 106.993 12.7069 106.993 13.5268C106.993 14.171 106.864 14.7977 106.606 15.4068C106.348 16.0042 105.991 16.5488 105.534 17.0408C105.089 17.521 104.574 17.9251 103.988 18.2531L106.378 25H103.127L101.107 18.9911H98.5414L97.048 25H93.9908ZM99.1915 16.3556H101.23C101.722 16.3556 102.173 16.2443 102.583 16.0217C102.993 15.7992 103.315 15.5005 103.549 15.1257C103.795 14.7508 103.918 14.3409 103.918 13.8958C103.918 13.3335 103.719 12.8826 103.32 12.5429C102.922 12.2032 102.395 12.0333 101.739 12.0333H100.263L99.1915 16.3556ZM116.087 25.3163C114.693 25.3163 113.434 24.9941 112.31 24.3499C111.197 23.7057 110.313 22.833 109.657 21.732C109.012 20.6309 108.69 19.401 108.69 18.0423C108.69 16.8358 108.942 15.6879 109.446 14.5986C109.949 13.4975 110.635 12.5194 111.502 11.6644C112.368 10.7976 113.358 10.1182 114.471 9.62626C115.584 9.12258 116.755 8.87075 117.985 8.87075C119.39 8.87075 120.65 9.19286 121.762 9.8371C122.875 10.4813 123.754 11.354 124.398 12.455C125.054 13.5561 125.382 14.7918 125.382 16.1623C125.382 17.3571 125.13 18.505 124.626 19.606C124.134 20.7071 123.449 21.6851 122.571 22.5402C121.704 23.3953 120.714 24.0746 119.601 24.5783C118.489 25.0703 117.317 25.3163 116.087 25.3163ZM116.439 22.2591C117.177 22.2591 117.879 22.101 118.547 21.7847C119.226 21.4684 119.83 21.035 120.357 20.4845C120.884 19.934 121.294 19.3073 121.587 18.6045C121.891 17.9017 122.044 17.1696 122.044 16.4083C122.044 15.5532 121.85 14.7918 121.464 14.1242C121.089 13.4448 120.568 12.9118 119.9 12.5253C119.244 12.1271 118.494 11.9279 117.651 11.9279C116.913 11.9279 116.204 12.0861 115.525 12.4023C114.846 12.7186 114.242 13.152 113.715 13.7025C113.2 14.2413 112.79 14.8621 112.485 15.5649C112.181 16.256 112.029 16.9822 112.029 17.7436C112.029 18.587 112.222 19.3542 112.608 20.0453C112.995 20.7246 113.522 21.2634 114.19 21.6617C114.857 22.06 115.607 22.2591 116.439 22.2591ZM138.389 25.5271L131.361 15.5825L129.024 25H126.073L130.149 8.65991L137.177 18.587L139.514 9.18701H142.465L138.389 25.5271Z" fill="url(#paint0_linear_1442_11)"/>
<path d="M41.35 36.9414V32.5442H42.4395C42.7294 32.5442 42.9737 32.5882 43.1724 32.6761C43.3743 32.7641 43.5372 32.8797 43.661 33.023C43.7847 33.1631 43.8743 33.3162 43.9297 33.4823C43.9883 33.6484 44.0176 33.8112 44.0176 33.9708C44.0176 34.1272 43.9899 34.2884 43.9346 34.4545C43.8792 34.6207 43.7896 34.7754 43.6658 34.9187C43.5421 35.062 43.3792 35.1776 43.1773 35.2656C42.9753 35.3535 42.7294 35.3975 42.4395 35.3975H41.907V36.9414H41.35ZM41.907 34.8991H42.4102C42.674 34.8991 42.8825 34.8535 43.0356 34.7623C43.1887 34.6679 43.2978 34.5506 43.3629 34.4106C43.4281 34.2673 43.4606 34.1207 43.4606 33.9708C43.4606 33.8275 43.4281 33.6842 43.3629 33.5409C43.301 33.3976 43.1936 33.2787 43.0405 33.1842C42.8906 33.0898 42.6805 33.0426 42.4102 33.0426H41.907V34.8991ZM46.4097 36.9414V32.2511H46.9374V36.9414H46.4097ZM50.8173 36.9805C50.5502 36.9805 50.3059 36.9137 50.0845 36.7802C49.863 36.6434 49.6854 36.461 49.5519 36.233C49.4216 36.005 49.3565 35.7525 49.3565 35.4757C49.3565 35.1988 49.4216 34.9464 49.5519 34.7184C49.6854 34.4904 49.863 34.3096 50.0845 34.1761C50.3059 34.0393 50.5502 33.9708 50.8173 33.9708C51.0193 33.9708 51.2082 34.0083 51.3841 34.0832C51.5632 34.1581 51.7179 34.2624 51.8482 34.3959V34.0099H52.3368V36.9414H51.8482V36.5554C51.7179 36.6857 51.5632 36.7899 51.3841 36.8681C51.2082 36.943 51.0193 36.9805 50.8173 36.9805ZM50.8857 36.5017C51.0714 36.5017 51.2391 36.4561 51.389 36.3649C51.542 36.2704 51.6626 36.1467 51.7505 35.9936C51.8417 35.8372 51.8873 35.6646 51.8873 35.4757C51.8873 35.2868 51.8417 35.1158 51.7505 34.9627C51.6626 34.8063 51.542 34.6825 51.389 34.5913C51.2391 34.4969 51.0714 34.4497 50.8857 34.4497C50.7001 34.4497 50.5307 34.4969 50.3776 34.5913C50.2278 34.6825 50.1073 34.8063 50.0161 34.9627C49.9281 35.1158 49.8841 35.2868 49.8841 35.4757C49.8841 35.6646 49.9281 35.8372 50.0161 35.9936C50.1073 36.1467 50.2278 36.2704 50.3776 36.3649C50.5307 36.4561 50.7001 36.5017 50.8857 36.5017ZM54.8382 38.4071L55.7909 36.5115L54.5499 34.0099H55.146L55.7714 35.2802C55.8268 35.3942 55.8805 35.5066 55.9326 35.6174C55.9847 35.7281 56.0368 35.8616 56.089 36.018C56.1443 35.8616 56.1964 35.7281 56.2453 35.6174C56.2974 35.5034 56.3528 35.391 56.4114 35.2802L57.0466 34.0099H57.6084L55.4098 38.4071H54.8382ZM65.0906 37.0294C64.7714 37.0294 64.4734 36.9707 64.1965 36.8535C63.9197 36.7329 63.6754 36.5685 63.4637 36.36C63.2552 36.1483 63.0923 35.9056 62.9751 35.632C62.8578 35.3552 62.7992 35.0588 62.7992 34.7428C62.7992 34.4269 62.8578 34.1321 62.9751 33.8585C63.0956 33.5816 63.2601 33.339 63.4685 33.1305C63.6803 32.9188 63.9245 32.7543 64.2014 32.637C64.4783 32.5165 64.7763 32.4563 65.0955 32.4563C65.4082 32.4563 65.7013 32.5149 65.9749 32.6321C66.2486 32.7461 66.4896 32.9041 66.698 33.1061L66.5368 33.7803C66.387 33.5393 66.185 33.3471 65.931 33.2038C65.6802 33.0572 65.4017 32.9839 65.0955 32.9839C64.773 32.9839 64.4815 33.0637 64.221 33.2233C63.9636 33.3797 63.7584 33.5914 63.6053 33.8585C63.4523 34.1223 63.3757 34.4171 63.3757 34.7428C63.3757 35.062 63.4506 35.3552 63.6005 35.6222C63.7535 35.8893 63.9587 36.1027 64.2161 36.2623C64.4766 36.4219 64.7682 36.5017 65.0906 36.5017C65.273 36.5017 65.4457 36.4805 65.6085 36.4382C65.7746 36.3926 65.9261 36.3291 66.0629 36.2476V35.0946H64.8512V34.5962H66.6003V36.531C66.4016 36.6971 66.1704 36.8225 65.9065 36.9072C65.646 36.9886 65.374 37.0294 65.0906 37.0294ZM70.5088 36.9805C70.2417 36.9805 69.9975 36.9137 69.776 36.7802C69.5545 36.6434 69.377 36.461 69.2434 36.233C69.1131 36.005 69.048 35.7525 69.048 35.4757C69.048 35.1988 69.1131 34.9464 69.2434 34.7184C69.377 34.4904 69.5545 34.3096 69.776 34.1761C69.9975 34.0393 70.2417 33.9708 70.5088 33.9708C70.7108 33.9708 70.8997 34.0083 71.0756 34.0832C71.2547 34.1581 71.4094 34.2624 71.5397 34.3959V34.0099H72.0283V36.9414H71.5397V36.5554C71.4094 36.6857 71.2547 36.7899 71.0756 36.8681C70.8997 36.943 70.7108 36.9805 70.5088 36.9805ZM70.5772 36.5017C70.7629 36.5017 70.9306 36.4561 71.0805 36.3649C71.2336 36.2704 71.3541 36.1467 71.442 35.9936C71.5332 35.8372 71.5788 35.6646 71.5788 35.4757C71.5788 35.2868 71.5332 35.1158 71.442 34.9627C71.3541 34.8063 71.2336 34.6825 71.0805 34.5913C70.9306 34.4969 70.7629 34.4497 70.5772 34.4497C70.3916 34.4497 70.2222 34.4969 70.0691 34.5913C69.9193 34.6825 69.7988 34.8063 69.7076 34.9627C69.6196 35.1158 69.5757 35.2868 69.5757 35.4757C69.5757 35.6646 69.6196 35.8372 69.7076 35.9936C69.7988 36.1467 69.9193 36.2704 70.0691 36.3649C70.2222 36.4561 70.3916 36.5017 70.5772 36.5017ZM74.6519 36.9414V34.0099H75.1404V34.4301C75.2479 34.2705 75.3831 34.1516 75.546 34.0735C75.7121 33.992 75.8863 33.9513 76.0687 33.9513C76.2674 33.9513 76.4498 33.9985 76.6159 34.093C76.7821 34.1842 76.9156 34.3129 77.0166 34.479C77.1306 34.3031 77.2772 34.1712 77.4563 34.0832C77.6387 33.9953 77.8309 33.9513 78.0328 33.9513C78.2543 33.9513 78.4563 34.0034 78.6387 34.1077C78.8243 34.2119 78.9709 34.3585 79.0784 34.5474C79.1891 34.733 79.2445 34.9529 79.2445 35.207V36.9414H78.7168V35.2705C78.7168 35.0034 78.6403 34.8014 78.4872 34.6646C78.3374 34.5246 78.1631 34.4545 77.9644 34.4545C77.8406 34.4545 77.7201 34.4822 77.6029 34.5376C77.4889 34.593 77.3944 34.6793 77.3195 34.7965C77.2478 34.9138 77.212 35.0669 77.212 35.2558V36.9414H76.6843V35.2705C76.6843 35.0848 76.6469 34.9317 76.572 34.8112C76.5003 34.6907 76.4059 34.6011 76.2886 34.5425C76.1746 34.4806 76.0557 34.4497 75.9319 34.4497C75.8114 34.4497 75.6925 34.4773 75.5753 34.5327C75.4613 34.5881 75.3668 34.6744 75.2919 34.7917C75.217 34.9089 75.1795 35.0636 75.1795 35.2558V36.9414H74.6519ZM83.2067 37C82.9006 37 82.6253 36.9316 82.381 36.7948C82.14 36.658 81.9495 36.4724 81.8094 36.2379C81.6726 36.0001 81.6042 35.7362 81.6042 35.4464C81.6042 35.1695 81.671 34.9187 81.8045 34.6939C81.9381 34.4659 82.1172 34.2852 82.342 34.1516C82.57 34.0181 82.8208 33.9513 83.0944 33.9513C83.3647 33.9513 83.6123 34.0164 83.837 34.1467C84.0618 34.2738 84.2409 34.4464 84.3744 34.6646C84.508 34.8829 84.5748 35.1304 84.5748 35.4073V35.6222H82.6595C82.5748 35.6222 82.4885 35.619 82.4006 35.6125C82.3126 35.606 82.2263 35.5962 82.1416 35.5832C82.1775 35.8437 82.2947 36.062 82.4934 36.2379C82.6954 36.4137 82.9348 36.5017 83.2116 36.5017C83.3973 36.5017 83.5699 36.4593 83.7295 36.3747C83.8891 36.29 84.0178 36.1776 84.1155 36.0375L84.2621 36.6385C84.122 36.7525 83.9608 36.8421 83.7784 36.9072C83.5992 36.9691 83.4087 37 83.2067 37ZM82.127 35.2265C82.3029 35.1972 82.4804 35.1825 82.6595 35.1825H83.6318C83.7035 35.1825 83.7735 35.1858 83.8419 35.1923C83.9136 35.1956 83.9852 35.2004 84.0569 35.207C84.0113 34.9789 83.8973 34.7917 83.7149 34.6451C83.5325 34.4953 83.3256 34.4203 83.0944 34.4203C82.8566 34.4203 82.6481 34.5001 82.469 34.6597C82.2898 34.8161 82.1758 35.005 82.127 35.2265ZM87.7249 37C87.5751 37 87.4138 36.9723 87.2412 36.917C87.0718 36.8583 86.9253 36.7623 86.8015 36.6287L86.9481 36.0522C87.0393 36.2053 87.1565 36.3274 87.2998 36.4186C87.4432 36.5066 87.5962 36.5505 87.7591 36.5505C87.9155 36.5505 88.0327 36.5131 88.1109 36.4382C88.1891 36.36 88.2281 36.2655 88.2281 36.1548C88.2281 36.0278 88.1858 35.9349 88.1011 35.8763C88.0197 35.8177 87.9464 35.777 87.8813 35.7542L87.4855 35.6027C87.4138 35.5734 87.3275 35.531 87.2266 35.4757C87.1256 35.417 87.0376 35.334 86.9627 35.2265C86.8878 35.119 86.8503 34.9789 86.8503 34.8063C86.8503 34.65 86.8878 34.5067 86.9627 34.3764C87.0376 34.2461 87.1435 34.1435 87.2803 34.0686C87.4171 33.9904 87.5783 33.9513 87.764 33.9513C87.9106 33.9513 88.0637 33.9774 88.2233 34.0295C88.3829 34.0816 88.518 34.1695 88.6288 34.2933L88.4822 34.8698C88.404 34.7265 88.2982 34.6125 88.1646 34.5278C88.0311 34.4431 87.8927 34.4008 87.7493 34.4008C87.6158 34.4008 87.5099 34.4383 87.4318 34.5132C87.3568 34.5881 87.3194 34.6744 87.3194 34.7721C87.3194 34.8503 87.3454 34.9203 87.3976 34.9822C87.4497 35.0441 87.5278 35.0946 87.6321 35.1337L88.0278 35.2851C88.0995 35.3112 88.1874 35.3535 88.2917 35.4122C88.3991 35.4708 88.4936 35.5555 88.575 35.6662C88.6565 35.777 88.6972 35.9268 88.6972 36.1157C88.6972 36.3795 88.6043 36.5929 88.4187 36.7557C88.2363 36.9186 88.005 37 87.7249 37ZM94.4487 36.9414V32.5442H96.618V33.0426H95.0057V33.9806H96.276V34.479H95.0057V36.4431H96.618V36.9414H94.4487ZM100.18 36.9805C99.913 36.9805 99.6687 36.9137 99.4472 36.7802C99.2257 36.6434 99.0482 36.461 98.9147 36.233C98.7844 36.005 98.7192 35.7525 98.7192 35.4757C98.7192 35.1988 98.7844 34.9464 98.9147 34.7184C99.0482 34.4904 99.2257 34.3096 99.4472 34.1761C99.6687 34.0393 99.913 33.9708 100.18 33.9708C100.382 33.9708 100.571 34.0083 100.747 34.0832C100.926 34.1581 101.081 34.2624 101.211 34.3959V34.0099H101.7V36.9414H101.211V36.5554C101.081 36.6857 100.926 36.7899 100.747 36.8681C100.571 36.943 100.382 36.9805 100.18 36.9805ZM100.248 36.5017C100.434 36.5017 100.602 36.4561 100.752 36.3649C100.905 36.2704 101.025 36.1467 101.113 35.9936C101.204 35.8372 101.25 35.6646 101.25 35.4757C101.25 35.2868 101.204 35.1158 101.113 34.9627C101.025 34.8063 100.905 34.6825 100.752 34.5913C100.602 34.4969 100.434 34.4497 100.248 34.4497C100.063 34.4497 99.8934 34.4969 99.7404 34.5913C99.5905 34.6825 99.47 34.8063 99.3788 34.9627C99.2909 35.1158 99.2469 35.2868 99.2469 35.4757C99.2469 35.6646 99.2909 35.8372 99.3788 35.9936C99.47 36.1467 99.5905 36.2704 99.7404 36.3649C99.8934 36.4561 100.063 36.5017 100.248 36.5017ZM104.323 36.9414V34.0099H104.812V34.5474C104.916 34.3747 105.054 34.2379 105.227 34.137C105.4 34.0327 105.605 33.9806 105.843 33.9806L105.974 34.5083C105.913 34.4887 105.841 34.479 105.76 34.479C105.486 34.479 105.266 34.5669 105.1 34.7428C104.934 34.9154 104.851 35.163 104.851 35.4854V36.9414H104.323ZM108.21 36.9414V34.0099H108.699V34.4839C108.806 34.3112 108.945 34.1793 109.114 34.0881C109.287 33.9969 109.472 33.9513 109.671 33.9513C109.88 33.9513 110.072 34.0034 110.248 34.1077C110.427 34.2086 110.572 34.3568 110.682 34.5523C110.793 34.7444 110.849 34.9789 110.849 35.2558V36.9414H110.321V35.3291C110.321 35.0978 110.251 34.8943 110.111 34.7184C109.974 34.5392 109.78 34.4497 109.529 34.4497C109.324 34.4497 109.14 34.5246 108.977 34.6744C108.818 34.821 108.738 35.0343 108.738 35.3144V36.9414H108.21ZM118.689 37.0294C118.373 37.0294 118.075 36.9707 117.795 36.8535C117.518 36.7329 117.274 36.5685 117.062 36.36C116.854 36.1515 116.689 35.9089 116.568 35.632C116.451 35.3552 116.393 35.0588 116.393 34.7428C116.393 34.4269 116.451 34.1305 116.568 33.8536C116.689 33.5767 116.854 33.3341 117.062 33.1256C117.274 32.9171 117.518 32.7543 117.795 32.637C118.075 32.5165 118.373 32.4563 118.689 32.4563C119.002 32.4563 119.295 32.5149 119.568 32.6321C119.842 32.7461 120.083 32.9041 120.291 33.1061L120.13 33.7803C119.98 33.5393 119.778 33.3471 119.524 33.2038C119.274 33.0572 118.995 32.9839 118.689 32.9839C118.366 32.9839 118.075 33.0637 117.814 33.2233C117.557 33.3797 117.352 33.5914 117.199 33.8585C117.046 34.1223 116.969 34.4171 116.969 34.7428C116.969 35.0653 117.046 35.36 117.199 35.6271C117.352 35.8942 117.557 36.1076 117.814 36.2672C118.075 36.4235 118.366 36.5017 118.689 36.5017C118.998 36.5017 119.278 36.4284 119.529 36.2818C119.78 36.1353 119.98 35.9431 120.13 35.7053L120.291 36.3795C120.083 36.5782 119.842 36.7362 119.568 36.8535C119.295 36.9707 119.002 37.0294 118.689 37.0294ZM122.654 36.9414V34.0099H123.143V34.5474C123.247 34.3747 123.385 34.2379 123.558 34.137C123.731 34.0327 123.936 33.9806 124.174 33.9806L124.306 34.5083C124.244 34.4887 124.172 34.479 124.091 34.479C123.817 34.479 123.597 34.5669 123.431 34.7428C123.265 34.9154 123.182 35.163 123.182 35.4854V36.9414H122.654ZM126.419 38.4071L127.372 36.5115L126.131 34.0099H126.727L127.352 35.2802C127.408 35.3942 127.462 35.5066 127.514 35.6174C127.566 35.7281 127.618 35.8616 127.67 36.018C127.725 35.8616 127.777 35.7281 127.826 35.6174C127.878 35.5034 127.934 35.391 127.992 35.2802L128.628 34.0099H129.189L126.991 38.4071H126.419ZM131.404 38.4071V34.0099H131.893V34.3959C132.026 34.2624 132.181 34.1581 132.357 34.0832C132.533 34.0083 132.722 33.9708 132.924 33.9708C133.194 33.9708 133.438 34.0393 133.656 34.1761C133.878 34.3096 134.054 34.4904 134.184 34.7184C134.318 34.9464 134.384 35.1988 134.384 35.4757C134.384 35.7525 134.318 36.005 134.184 36.233C134.054 36.461 133.878 36.6434 133.656 36.7802C133.438 36.9137 133.194 36.9805 132.924 36.9805C132.731 36.9805 132.551 36.9463 132.381 36.8779C132.212 36.8095 132.062 36.715 131.932 36.5945V38.4071H131.404ZM132.855 36.5017C133.041 36.5017 133.209 36.4561 133.358 36.3649C133.512 36.2704 133.632 36.1467 133.72 35.9936C133.811 35.8372 133.857 35.6646 133.857 35.4757C133.857 35.2868 133.811 35.1158 133.72 34.9627C133.632 34.8063 133.512 34.6825 133.358 34.5913C133.209 34.4969 133.041 34.4497 132.855 34.4497C132.67 34.4497 132.5 34.4969 132.347 34.5913C132.197 34.6825 132.077 34.8063 131.986 34.9627C131.898 35.1158 131.854 35.2868 131.854 35.4757C131.854 35.6646 131.898 35.8372 131.986 35.9936C132.077 36.1467 132.197 36.2704 132.347 36.3649C132.5 36.4561 132.67 36.5017 132.855 36.5017ZM137.001 36.9414V34.4497H136.336V34.0099H137.015V33.0328H137.514V34.0099H138.242V34.4497H137.528V36.9414H137.001ZM141.74 37C141.457 37 141.198 36.9316 140.963 36.7948C140.729 36.658 140.541 36.474 140.401 36.2427C140.265 36.0115 140.196 35.7558 140.196 35.4757C140.196 35.1923 140.265 34.9366 140.401 34.7086C140.541 34.4773 140.729 34.2933 140.963 34.1565C141.198 34.0197 141.457 33.9513 141.74 33.9513C142.027 33.9513 142.286 34.0197 142.517 34.1565C142.751 34.2933 142.937 34.4773 143.074 34.7086C143.214 34.9366 143.284 35.1923 143.284 35.4757C143.284 35.7558 143.214 36.0115 143.074 36.2427C142.937 36.474 142.751 36.658 142.517 36.7948C142.286 36.9316 142.027 37 141.74 37ZM141.74 36.5017C141.929 36.5017 142.1 36.4561 142.253 36.3649C142.406 36.2704 142.528 36.1467 142.62 35.9936C142.711 35.8372 142.756 35.6646 142.756 35.4757C142.756 35.2868 142.711 35.1158 142.62 34.9627C142.528 34.8063 142.406 34.6825 142.253 34.5913C142.1 34.4969 141.929 34.4497 141.74 34.4497C141.551 34.4497 141.38 34.4969 141.227 34.5913C141.074 34.6825 140.952 34.8063 140.861 34.9627C140.769 35.1158 140.724 35.2868 140.724 35.4757C140.724 35.6646 140.769 35.8372 140.861 35.9936C140.952 36.1467 141.074 36.2704 141.227 36.3649C141.38 36.4561 141.551 36.5017 141.74 36.5017Z" fill="white"/>
<rect x="40.6172" y="26.5664" width="87.4142" height="2.90959" fill="#DE7E29"/>
<path d="M121.436 17.4296L114.614 20.9081L117.904 17.4211L114.632 13.9161L121.436 17.4296Z" fill="url(#paint1_linear_1442_11)"/>
<defs>
<linearGradient id="paint0_linear_1442_11" x1="90.2745" y1="0" x2="90.3441" y2="25.3008" gradientUnits="userSpaceOnUse">
<stop offset="0.427885" stop-color="#CAA12D"/>
<stop offset="0.696789" stop-color="#FAE443"/>
<stop offset="0.918269" stop-color="#DE7E29"/>
</linearGradient>
<linearGradient id="paint1_linear_1442_11" x1="118.039" y1="13.9248" x2="118.021" y2="20.9169" gradientUnits="userSpaceOnUse">
<stop stop-color="#CAA12D"/>
<stop offset="0.466531" stop-color="#F9E243"/>
<stop offset="1" stop-color="#DD7D28"/>
</linearGradient>
</defs>
</svg>
