<svg width="77" height="76" viewBox="0 0 77 76" fill="none" xmlns="http://www.w3.org/2000/svg">
<circle cx="38.4981" cy="38.4552" r="31.7415" stroke="#F9E342" stroke-width="2.29457"/>
<circle cx="38.4926" cy="38.4516" r="28.6821" stroke="black" stroke-width="3.82428" stroke-dasharray="7.65 7.65"/>
<circle cx="38.4954" cy="38.4551" r="28.6821" transform="rotate(15.1988 38.4954 38.4551)" stroke="#E30808" stroke-width="3.82428" stroke-dasharray="7.65 7.65"/>
<path d="M38.5218 8.29577L38.4553 10.8417L38.147 10.8337L38.205 8.61094L38.1901 8.61055L37.5578 9.00705L37.566 8.69378L38.2135 8.28772L38.5218 8.29577Z" fill="#FEFEFE"/>
<path d="M46.2685 9.27182C46.368 9.30369 46.4618 9.35376 46.5499 9.42204C46.6381 9.49032 46.7098 9.58042 46.7653 9.69235C46.821 9.80348 46.8507 9.94082 46.8544 10.1044C46.8581 10.2679 46.8252 10.4613 46.7557 10.6845C46.6883 10.9006 46.608 11.0861 46.5145 11.2411C46.4221 11.3955 46.3196 11.5181 46.2071 11.609C46.0953 11.7001 45.9756 11.7583 45.8479 11.7836C45.7209 11.8092 45.589 11.8006 45.4521 11.758C45.3159 11.7155 45.2028 11.6508 45.1127 11.5636C45.0237 11.476 44.9602 11.3732 44.9222 11.2555C44.8853 11.1372 44.8773 11.0109 44.8982 10.8768L45.1879 10.9671C45.1793 11.0868 45.2024 11.1952 45.2573 11.2922C45.3132 11.3886 45.4052 11.4568 45.5335 11.4968C45.721 11.5552 45.8946 11.5194 46.0541 11.3894C46.2144 11.2596 46.3411 11.0451 46.4344 10.7459L46.4154 10.74C46.3503 10.7926 46.2798 10.8336 46.2038 10.8629C46.1278 10.8922 46.0486 10.9083 45.966 10.9112C45.8835 10.9142 45.8003 10.9026 45.7164 10.8764C45.5771 10.833 45.46 10.7587 45.3651 10.6536C45.2712 10.548 45.2083 10.4237 45.1764 10.2809C45.1455 10.1376 45.1545 9.98754 45.2034 9.83083C45.2497 9.68202 45.3254 9.55625 45.4304 9.45349C45.5364 9.35019 45.6614 9.28061 45.8054 9.24473C45.9502 9.20911 46.1046 9.21814 46.2685 9.27182ZM46.1871 9.53301C46.0874 9.50193 45.9898 9.49887 45.8943 9.52382C45.7998 9.54823 45.7162 9.59511 45.6434 9.66445C45.5716 9.73325 45.5199 9.81831 45.4883 9.91962C45.4567 10.0209 45.4501 10.1201 45.4686 10.217C45.488 10.3133 45.5289 10.3982 45.5912 10.4714C45.6545 10.5441 45.736 10.596 45.8357 10.6271C45.9109 10.6505 45.9855 10.6577 46.0596 10.6486C46.1339 10.6388 46.2031 10.6157 46.2675 10.5792C46.3328 10.5423 46.3896 10.4953 46.4378 10.4382C46.4862 10.3804 46.5216 10.3154 46.5441 10.2434C46.5737 10.1484 46.5784 10.0522 46.5584 9.95483C46.5392 9.85766 46.4977 9.7709 46.4338 9.69454C46.3706 9.61842 46.2884 9.56458 46.1871 9.53301Z" fill="#FEFEFE"/>
<path d="M52.8113 14.9195C52.675 14.828 52.5693 14.723 52.494 14.6045C52.4195 14.4865 52.3789 14.3649 52.3722 14.2395C52.3666 14.114 52.3983 13.9939 52.4672 13.8795L52.7274 14.0542C52.6871 14.126 52.671 14.2006 52.679 14.2779C52.6875 14.3545 52.7161 14.4286 52.7648 14.5003C52.8135 14.572 52.8785 14.6351 52.9597 14.6896C53.0505 14.7507 53.1417 14.7889 53.2331 14.8044C53.3246 14.8199 53.4092 14.8128 53.4871 14.7832C53.5649 14.7536 53.6288 14.7016 53.6787 14.6273C53.7309 14.5495 53.7577 14.4681 53.7589 14.383C53.7605 14.2973 53.7356 14.2126 53.6839 14.1289C53.6322 14.0453 53.5527 13.9674 53.4453 13.8953L53.276 13.7816L53.4286 13.5545L53.5979 13.6682C53.6818 13.7246 53.7657 13.7589 53.8493 13.7712C53.9336 13.7839 54.0122 13.7747 54.085 13.7437C54.1584 13.7131 54.2201 13.6607 54.27 13.5864C54.3181 13.5148 54.3441 13.4419 54.3481 13.3676C54.352 13.2934 54.335 13.222 54.2971 13.1536C54.2598 13.0857 54.2023 13.0256 54.1246 12.9733C54.0516 12.9243 53.9738 12.8915 53.8911 12.8749C53.8095 12.8581 53.7315 12.8611 53.6572 12.8841C53.5833 12.9064 53.5211 12.9514 53.4705 13.0193L53.2227 12.8529C53.3013 12.7449 53.3998 12.6703 53.5184 12.6291C53.6374 12.5872 53.7632 12.5768 53.8958 12.598C54.0291 12.6196 54.1567 12.6713 54.2785 12.7531C54.4092 12.841 54.5036 12.9428 54.5616 13.0587C54.6201 13.1738 54.6455 13.2913 54.638 13.4111C54.6304 13.5308 54.5931 13.6406 54.5261 13.7404C54.4461 13.8595 54.3466 13.9399 54.2276 13.9818C54.1093 14.0242 53.9859 14.0257 53.8575 13.9864L53.8464 14.0029C53.9651 14.1146 54.0313 14.2414 54.0448 14.3834C54.0588 14.5246 54.0207 14.6623 53.9306 14.7965C53.8534 14.9114 53.7527 14.9936 53.6286 15.0431C53.5056 15.0923 53.3729 15.107 53.2304 15.0872C53.0879 15.0674 52.9482 15.0115 52.8113 14.9195Z" fill="#FEFEFE"/>
<path d="M57.8912 19.2344C57.7822 19.1029 57.7092 18.9674 57.6722 18.828C57.6364 18.6886 57.6364 18.5567 57.6722 18.4323C57.7086 18.3073 57.7801 18.2013 57.8866 18.1141C57.969 18.0447 58.0591 17.9975 58.1568 17.9725C58.2552 17.947 58.3518 17.9434 58.4466 17.9617C58.5427 17.9801 58.6267 18.0197 58.6987 18.0806L58.7102 18.0711C58.6567 17.9572 58.6474 17.8389 58.6825 17.7161C58.7182 17.5929 58.7883 17.4885 58.8929 17.4029C58.9919 17.3197 59.1019 17.2711 59.2227 17.2571C59.3435 17.2431 59.4636 17.262 59.583 17.3138C59.7029 17.3663 59.8105 17.45 59.9057 17.5649C59.9999 17.6785 60.0613 17.7987 60.0901 17.9257C60.1188 18.0526 60.1151 18.1741 60.0789 18.2903C60.0432 18.407 59.9759 18.507 59.8768 18.5902C59.7722 18.6758 59.6558 18.7243 59.5276 18.7359C59.4005 18.7475 59.2867 18.7174 59.1863 18.6456L59.1748 18.6551C59.2207 18.7366 59.2433 18.8255 59.2425 18.922C59.2424 19.018 59.2209 19.1122 59.1781 19.2048C59.1359 19.2968 59.0736 19.3775 58.9911 19.4469C58.8846 19.5341 58.7664 19.5837 58.6363 19.5956C58.5074 19.6077 58.3778 19.5832 58.2475 19.5221C58.1184 19.4612 57.9996 19.3653 57.8912 19.2344ZM58.1018 19.0598C58.1753 19.1486 58.2532 19.2133 58.3353 19.2539C58.4175 19.2946 58.4993 19.3108 58.5807 19.3025C58.6622 19.2942 58.7383 19.2613 58.809 19.2038C58.8825 19.1418 58.9321 19.0684 58.9577 18.9837C58.9833 18.8989 58.9854 18.8105 58.964 18.7184C58.9431 18.627 58.8983 18.5397 58.8295 18.4568C58.7602 18.3731 58.682 18.3119 58.595 18.2732C58.5085 18.2351 58.4212 18.2207 58.3332 18.2301C58.2457 18.2402 58.1652 18.2762 58.0917 18.3382C58.0209 18.3958 57.9737 18.4635 57.9499 18.5413C57.9266 18.6198 57.9276 18.7035 57.9529 18.7924C57.9781 18.8813 58.0277 18.9705 58.1018 19.0598ZM59.0325 18.2885C59.0907 18.3588 59.1563 18.4094 59.2294 18.4403C59.3029 18.472 59.3779 18.4825 59.4542 18.472C59.5306 18.4615 59.6029 18.4285 59.6711 18.3731C59.7369 18.3174 59.7817 18.2539 59.8055 18.1825C59.8299 18.1106 59.833 18.0364 59.8148 17.96C59.7973 17.883 59.7587 17.8084 59.6989 17.7363C59.6381 17.6628 59.5712 17.6101 59.4982 17.5779C59.4259 17.5452 59.3524 17.5345 59.2778 17.5458C59.2038 17.5565 59.1338 17.5897 59.068 17.6454C58.9998 17.7008 58.9532 17.7647 58.9281 17.8372C58.9036 17.9102 58.9001 17.9859 58.9175 18.064C58.9349 18.1422 58.9732 18.217 59.0325 18.2885Z" fill="#FEFEFE"/>
<path d="M61.9499 24.686L64.47 24.8423L64.4882 24.8344L63.9695 23.628L64.2208 23.5199L64.8653 25.0188L64.6003 25.1328L62.0776 24.983L61.9499 24.686Z" fill="#FEFEFE"/>
<path d="M64.7943 30.561L65.0105 30.5034L66.1163 31.0785C66.2459 31.146 66.3574 31.2004 66.4507 31.2415C66.5449 31.2825 66.6299 31.3087 66.7059 31.3202C66.7829 31.3323 66.8591 31.3283 66.9344 31.3082C67.0209 31.2851 67.0902 31.2443 67.1424 31.1858C67.1948 31.128 67.2287 31.0589 67.2441 30.9784C67.2596 30.898 67.2554 30.8133 67.2317 30.7244C67.2065 30.6298 67.1649 30.5526 67.1068 30.4925C67.0498 30.4331 66.9813 30.3935 66.9013 30.3736C66.8216 30.3545 66.7349 30.3575 66.6412 30.3825L66.5655 30.0989C66.7097 30.0605 66.8451 30.06 66.9718 30.0974C67.0985 30.1348 67.2075 30.2027 67.299 30.301C67.3906 30.4001 67.4556 30.5214 67.4938 30.6647C67.5323 30.8089 67.5359 30.9448 67.5047 31.0724C67.4735 31.2 67.4147 31.3092 67.3283 31.4C67.2418 31.4909 67.1353 31.5532 67.0087 31.5869C66.9182 31.6111 66.8253 31.6183 66.7301 31.6085C66.6358 31.5993 66.5251 31.5688 66.398 31.5169C66.2719 31.4656 66.1144 31.3896 65.9254 31.289L65.1868 30.8939L65.1676 30.8991L65.4727 32.043L65.2083 32.1135L64.7943 30.561Z" fill="#FEFEFE"/>
<path d="M65.9691 37.2859L66.2228 37.2841L68.0015 38.3908L68.0028 38.5748L67.6098 38.5776L67.6089 38.4532L66.2649 37.6171L66.245 37.6172L66.2557 39.1244L65.9821 39.1263L65.9691 37.2859ZM65.4553 38.4883L66.0547 38.4841L66.1728 38.4833L68.002 38.4704L68.0041 38.7638L65.4574 38.7818L65.4553 38.4883Z" fill="#FEFEFE"/>
<path d="M67.2113 46.218C67.1716 46.3146 67.1142 46.4042 67.0391 46.4866C66.964 46.569 66.8685 46.6333 66.7525 46.6797C66.6372 46.7263 66.498 46.745 66.3346 46.7356C66.1713 46.7263 65.9812 46.6781 65.7642 46.5909C65.5542 46.5066 65.3757 46.4116 65.2287 46.3061C65.0821 46.2017 64.9681 46.0897 64.8865 45.9703C64.8046 45.8517 64.7561 45.7277 64.7411 45.5983C64.7257 45.4697 64.7448 45.3389 64.7982 45.2058C64.8514 45.0735 64.925 44.9659 65.019 44.8831C65.1135 44.8013 65.221 44.7462 65.3414 44.7178C65.4623 44.6904 65.5887 44.6925 65.7208 44.7241L65.6077 45.0056C65.489 44.9875 65.3791 45.0018 65.2781 45.0488C65.1775 45.0968 65.1022 45.1832 65.0521 45.3078C64.9789 45.4901 65.0007 45.666 65.1176 45.8353C65.2342 46.0055 65.4379 46.1489 65.7287 46.2657L65.7361 46.2473C65.6888 46.1782 65.6536 46.1047 65.6304 46.0266C65.6073 45.9485 65.5976 45.8682 65.6012 45.7857C65.6049 45.7032 65.6231 45.6212 65.6559 45.5396C65.7102 45.4042 65.7936 45.2934 65.906 45.2072C66.0188 45.1221 66.1476 45.0693 66.2925 45.0489C66.4379 45.0296 66.5867 45.0505 66.7391 45.1117C66.8837 45.1698 67.003 45.2552 67.0971 45.3681C67.1916 45.482 67.251 45.6121 67.2752 45.7586C67.2992 45.9058 67.2779 46.0589 67.2113 46.218ZM66.9574 46.116C66.9964 46.0191 67.0072 45.9221 66.99 45.8249C66.9732 45.7288 66.9331 45.6417 66.8698 45.5635C66.8069 45.4865 66.7263 45.4282 66.6278 45.3886C66.5293 45.3491 66.4311 45.3346 66.333 45.3452C66.2354 45.3569 66.1476 45.3909 66.0696 45.4471C65.9921 45.5045 65.9338 45.5816 65.8949 45.6785C65.8655 45.7516 65.8524 45.8254 65.8555 45.8999C65.8594 45.9747 65.877 46.0457 65.9081 46.1127C65.9397 46.1808 65.9821 46.2411 66.0351 46.2937C66.0889 46.3465 66.1508 46.3871 66.2208 46.4152C66.3131 46.4523 66.4086 46.4647 66.5073 46.4525C66.6057 46.4411 66.6955 46.4066 66.7767 46.349C66.8576 46.2922 66.9179 46.2145 66.9574 46.116Z" fill="#FEFEFE"/>
<path d="M63.6472 53.1292L61.6051 51.6073L61.7894 51.36L63.5722 52.6887L63.5811 52.6768L63.6216 51.9315L63.8729 52.1187L63.8315 52.8819L63.6472 53.1292Z" fill="#FEFEFE"/>
<path d="M52.7447 61.3294L53.3689 63.7759L53.382 63.7909L54.3711 62.9271L54.5511 63.1332L53.3222 64.2064L53.1324 63.9891L52.5012 61.5421L52.7447 61.3294Z" fill="#FEFEFE"/>
<path d="M58.1892 57.3853L59.1228 59.7312L59.1377 59.7444L60.0076 58.7606L60.2125 58.9418L59.1318 60.1641L58.9157 59.973L57.975 57.6275L58.1892 57.3853Z" fill="#FEFEFE"/>
<path d="M46.6224 64.9425L46.6914 65.1866L46.0957 67.195L45.9186 67.2451L45.8117 66.8669L45.9314 66.8331L46.3815 65.3155L46.3761 65.2964L44.9256 65.7061L44.8513 65.4428L46.6224 64.9425ZM45.3268 64.7657L45.4897 65.3426L45.5218 65.4563L46.0191 67.2167L45.7366 67.2964L45.0444 64.8455L45.3268 64.7657Z" fill="#FEFEFE"/>
<path d="M38.0127 65.5705C38.1835 65.5731 38.3339 65.6056 38.464 65.6681C38.5932 65.7313 38.6935 65.817 38.7649 65.925C38.8362 66.0339 38.8705 66.1571 38.8676 66.2947C38.8668 66.4024 38.8442 66.5016 38.7997 66.5921C38.7553 66.6835 38.6953 66.7593 38.6197 66.8196C38.5434 66.8806 38.4587 66.9187 38.3656 66.9339L38.3653 66.9488C38.4867 66.9822 38.5827 67.052 38.6533 67.1583C38.7238 67.2655 38.7576 67.3867 38.7548 67.5218C38.7537 67.6511 38.7192 67.7662 38.6514 67.8672C38.5836 67.9682 38.4912 68.0472 38.3743 68.1044C38.2565 68.1615 38.123 68.1889 37.9738 68.1867C37.8263 68.1845 37.6949 68.1531 37.5797 68.0925C37.4645 68.032 37.3745 67.9502 37.3097 67.8472C37.2441 67.7443 37.2119 67.6281 37.213 67.4988C37.2158 67.3637 37.2545 67.2436 37.329 67.1386C37.4027 67.0344 37.4995 66.9675 37.6193 66.9377L37.6195 66.9228C37.5277 66.9049 37.4454 66.8643 37.3726 66.801C37.2997 66.7385 37.242 66.661 37.1994 66.5683C37.1569 66.4765 37.136 66.3767 37.1367 66.2689C37.1396 66.1313 37.1787 66.0092 37.2541 65.9025C37.3287 65.7967 37.4315 65.714 37.5625 65.6546C37.6927 65.596 37.8428 65.568 38.0127 65.5705ZM38.0087 65.8441C37.8935 65.8424 37.7937 65.8596 37.7094 65.8956C37.6251 65.9317 37.5597 65.9833 37.5131 66.0506C37.4665 66.1179 37.4421 66.1972 37.4399 66.2883C37.4393 66.3845 37.4629 66.4698 37.5107 66.5444C37.5585 66.6189 37.6244 66.6779 37.7083 66.7214C37.7914 66.7649 37.8868 66.7875 37.9946 66.7891C38.1032 66.7907 38.2005 66.771 38.2865 66.73C38.3717 66.689 38.4393 66.632 38.4893 66.5589C38.5385 66.4859 38.5634 66.4012 38.564 66.3051C38.5662 66.2139 38.5454 66.134 38.5016 66.0654C38.457 65.9967 38.3928 65.9431 38.3088 65.9045C38.2248 65.866 38.1247 65.8458 38.0087 65.8441ZM37.9907 67.0527C37.8995 67.0514 37.8184 67.0684 37.7474 67.1038C37.6756 67.1392 37.6189 67.1894 37.5773 67.2543C37.5357 67.3191 37.5138 67.3955 37.5117 67.4834C37.5112 67.5696 37.5304 67.6449 37.5692 67.7093C37.6081 67.7746 37.6625 67.8251 37.7324 67.861C37.8023 67.8977 37.8841 67.9167 37.9778 67.9181C38.0731 67.9196 38.1567 67.903 38.2285 67.8684C38.3003 67.8346 38.3562 67.7857 38.3961 67.7216C38.436 67.6584 38.4562 67.5837 38.4567 67.4974C38.4588 67.4096 38.4405 67.3326 38.4017 67.2665C38.362 67.2004 38.3068 67.1486 38.2361 67.1111C38.1653 67.0735 38.0835 67.0541 37.9907 67.0527Z" fill="#FEFEFE"/>
<path d="M31.3236 64.9631C31.4629 65.0066 31.5796 65.0735 31.6739 65.1637C31.7682 65.254 31.8338 65.3579 31.8709 65.4755C31.908 65.593 31.9104 65.7145 31.8782 65.8399L31.5933 65.7509C31.6166 65.6375 31.5952 65.5309 31.5291 65.4312C31.4619 65.332 31.3662 65.263 31.242 65.2242C31.1423 65.1931 31.0464 65.1887 30.9542 65.2112C30.8613 65.2334 30.7799 65.2783 30.7102 65.346C30.6393 65.4142 30.5877 65.5001 30.5553 65.6037C30.5222 65.7098 30.516 65.8116 30.5367 65.9093C30.5564 66.0075 30.5991 66.0934 30.6647 66.1669C30.7303 66.2404 30.8148 66.2937 30.9183 66.3269C30.9924 66.3509 31.0723 66.3633 31.1581 66.3641C31.2436 66.3656 31.3174 66.3561 31.3794 66.3355L31.6444 66.4548L31.1233 67.6052L29.8604 67.2106L29.942 66.9495L30.958 67.267L31.2675 66.5767L31.2533 66.5723C31.1911 66.5963 31.1183 66.6096 31.0349 66.6122C30.9516 66.6148 30.8692 66.6034 30.7877 66.5779C30.6389 66.5314 30.5175 66.4544 30.4234 66.3469C30.3283 66.2398 30.2667 66.1146 30.2386 65.9712C30.2096 65.8275 30.2198 65.6769 30.269 65.5195C30.3175 65.3644 30.3955 65.2368 30.5033 65.1367C30.6099 65.0371 30.7348 64.971 30.8779 64.9385C31.0207 64.9067 31.1693 64.9149 31.3236 64.9631Z" fill="#FEFEFE"/>
<path d="M22.643 63.986L24.0322 61.8515L24.2907 62.0197L23.0778 63.8833L23.0903 63.8914L23.8367 63.8845L23.6657 64.1472L22.9015 64.1542L22.643 63.986Z" fill="#FEFEFE"/>
<path d="M18.5468 57.3851C18.6432 57.4946 18.7082 57.6124 18.7419 57.7385C18.7755 57.8646 18.7777 57.9875 18.7483 58.1072C18.719 58.2269 18.6579 58.332 18.5652 58.4224L18.3681 58.1984C18.4469 58.1136 18.4839 58.0114 18.4792 57.8918C18.4733 57.7722 18.4274 57.6635 18.3414 57.5658C18.2724 57.4874 18.1927 57.4339 18.1023 57.4052C18.0113 57.3759 17.9185 57.3721 17.8237 57.3936C17.7277 57.4151 17.639 57.4618 17.5575 57.5335C17.4741 57.6069 17.4159 57.6907 17.3829 57.785C17.3487 57.8791 17.3405 57.9746 17.3584 58.0715C17.3764 58.1684 17.4209 58.2579 17.492 58.34C17.5429 58.399 17.6048 58.4511 17.6777 58.4963C17.7499 58.542 17.8179 58.5722 17.8816 58.5868L18.0461 58.8264L17.0033 59.5389L16.129 58.5457L16.3344 58.3649L17.0377 59.164L17.6607 58.7349L17.6508 58.7237C17.5852 58.7119 17.5161 58.6854 17.4435 58.6444C17.371 58.6034 17.3065 58.5508 17.2501 58.4867C17.1471 58.3697 17.0833 58.2408 17.0588 58.1C17.0331 57.9592 17.0455 57.8202 17.096 57.683C17.1459 57.5452 17.2327 57.4218 17.3566 57.3128C17.4785 57.2054 17.6115 57.1369 17.7556 57.1073C17.8984 57.0777 18.0395 57.0861 18.1787 57.1325C18.3172 57.1795 18.4399 57.2637 18.5468 57.3851Z" fill="#FEFEFE"/>
<path d="M14.6546 51.7154C14.74 51.8337 14.7933 51.9573 14.8145 52.086C14.8358 52.2148 14.8261 52.3373 14.7852 52.4536C14.7444 52.57 14.6735 52.6686 14.5724 52.7496L14.3979 52.5075C14.4846 52.4307 14.5314 52.3326 14.5383 52.2132C14.544 52.0935 14.5088 51.9809 14.4327 51.8753C14.3716 51.7906 14.2975 51.7296 14.2103 51.6923C14.1226 51.6543 14.0306 51.6415 13.9341 51.6538C13.8366 51.6659 13.7437 51.7037 13.6556 51.7672C13.5655 51.8321 13.4995 51.9099 13.4574 52.0005C13.4143 52.0909 13.3969 52.1852 13.4054 52.2833C13.4138 52.3815 13.4494 52.4749 13.5123 52.5635C13.5572 52.6272 13.6137 52.685 13.6819 52.7371C13.7494 52.7896 13.8141 52.8262 13.8761 52.847L14.0166 53.1013L12.9096 53.7093L12.1358 52.636L12.3577 52.476L12.9802 53.3395L13.6419 52.9729L13.6331 52.9608C13.569 52.9427 13.5028 52.9096 13.4345 52.8618C13.3662 52.8139 13.3072 52.7553 13.2572 52.686C13.1661 52.5596 13.1151 52.4251 13.1044 52.2827C13.0925 52.14 13.1183 52.0028 13.1818 51.8712C13.2448 51.7389 13.3432 51.6245 13.4771 51.528C13.6089 51.433 13.7479 51.3777 13.8941 51.3622C14.0392 51.3465 14.1787 51.3686 14.3128 51.4283C14.4461 51.4885 14.5601 51.5842 14.6546 51.7154Z" fill="#FEFEFE"/>
<path d="M11.8271 45.4436C11.8961 45.5925 11.9321 45.7371 11.935 45.8774C11.9376 46.0169 11.9093 46.142 11.85 46.2527C11.7896 46.3629 11.7003 46.4491 11.582 46.5113L11.4502 46.227C11.5218 46.1865 11.5743 46.1311 11.6075 46.0608C11.64 45.9909 11.654 45.9127 11.6495 45.8261C11.645 45.7396 11.6221 45.6519 11.581 45.5632C11.5349 45.4639 11.4768 45.3839 11.4066 45.3233C11.3365 45.2626 11.2604 45.2248 11.1785 45.2097C11.0966 45.1947 11.0151 45.206 10.9338 45.2437C10.8489 45.2831 10.7838 45.3389 10.7386 45.411C10.6927 45.4835 10.6702 45.5689 10.671 45.6672C10.6718 45.7655 10.6994 45.8733 10.7539 45.9906L10.8397 46.1757L10.5915 46.2908L10.5057 46.1057C10.4631 46.014 10.4092 45.9412 10.3441 45.8873C10.2785 45.8327 10.2066 45.7998 10.1283 45.7886C10.0497 45.7767 9.96971 45.7895 9.88849 45.8272C9.81027 45.8635 9.75022 45.9123 9.70836 45.9738C9.66649 46.0352 9.64404 46.1051 9.641 46.1832C9.6376 46.2607 9.65562 46.3419 9.69503 46.4269C9.732 46.5066 9.78155 46.575 9.84367 46.6321C9.90468 46.6888 9.97293 46.7266 10.0484 46.7455C10.1231 46.7647 10.1997 46.7585 10.2782 46.7266L10.4038 46.9974C10.2806 47.049 10.1576 47.0618 10.0349 47.0355C9.91138 47.0096 9.79842 46.9533 9.69601 46.8664C9.59324 46.7788 9.51099 46.6685 9.44926 46.5353C9.38299 46.3925 9.35509 46.2564 9.36556 46.1273C9.37529 45.9985 9.41442 45.8848 9.48297 45.7863C9.55153 45.6878 9.64033 45.6133 9.74938 45.5627C9.8795 45.5024 10.0063 45.4852 10.1298 45.511C10.2529 45.5362 10.3592 45.5988 10.4486 45.699L10.4667 45.6907C10.4231 45.5336 10.4323 45.3909 10.4943 45.2625C10.5556 45.1345 10.6595 45.0365 10.8062 44.9684C10.9318 44.9102 11.0605 44.8921 11.1922 44.9141C11.3229 44.9358 11.444 44.992 11.5556 45.0828C11.6672 45.1737 11.7577 45.2939 11.8271 45.4436Z" fill="#FEFEFE"/>
<path d="M10.8945 38.4399C10.9191 38.6089 10.9109 38.7626 10.8699 38.9009C10.8279 39.0386 10.7593 39.1512 10.664 39.2388C10.5678 39.3265 10.4516 39.3799 10.3153 39.3989C10.2088 39.4152 10.1073 39.4087 10.0108 39.3791C9.91357 39.3497 9.8292 39.3025 9.75774 39.2375C9.68534 39.1718 9.63425 39.0942 9.60447 39.0048L9.5897 39.0069C9.57608 39.132 9.52237 39.2379 9.42857 39.3244C9.33396 39.4111 9.21972 39.4637 9.08588 39.4824C8.95802 39.5018 8.83886 39.4861 8.72839 39.4352C8.61793 39.3842 8.52521 39.3056 8.45024 39.1992C8.37515 39.092 8.32686 38.9646 8.30536 38.8169C8.2841 38.6709 8.29423 38.5362 8.33576 38.4128C8.37728 38.2895 8.44372 38.1877 8.53508 38.1074C8.62631 38.0262 8.73586 37.9759 8.86372 37.9565C8.99756 37.9378 9.12225 37.9569 9.23777 38.0138C9.35235 38.07 9.43383 38.1549 9.4822 38.2685L9.49697 38.2664C9.50012 38.1729 9.52714 38.0852 9.57804 38.0033C9.62812 37.9214 9.69553 37.8521 9.78026 37.7954C9.86417 37.7388 9.95939 37.7023 10.0659 37.6859C10.2022 37.6669 10.329 37.6862 10.4463 37.7436C10.5626 37.8004 10.6605 37.8888 10.74 38.0088C10.8185 38.128 10.87 38.2717 10.8945 38.4399ZM10.6238 38.4793C10.6072 38.3653 10.5744 38.2696 10.5254 38.1921C10.4764 38.1146 10.415 38.0582 10.3412 38.0228C10.2673 37.9875 10.1852 37.976 10.0949 37.9883C9.99983 38.003 9.91932 38.0399 9.85335 38.0989C9.78739 38.1579 9.73957 38.2323 9.70992 38.3221C9.68014 38.4111 9.67302 38.5089 9.68854 38.6155C9.70419 38.723 9.73908 38.8159 9.79323 38.8943C9.84725 38.9719 9.91429 39.0296 9.99435 39.0674C10.0743 39.1043 10.1618 39.1155 10.2568 39.1008C10.3472 39.0885 10.4228 39.0553 10.4836 39.0012C10.5443 38.9463 10.587 38.8743 10.6118 38.7852C10.6365 38.6962 10.6405 38.5942 10.6238 38.4793ZM9.42766 38.6535C9.41452 38.5632 9.38482 38.4859 9.33857 38.4214C9.29221 38.3561 9.23369 38.3081 9.16303 38.2773C9.09236 38.2466 9.01349 38.2371 8.92641 38.2489C8.84121 38.2622 8.76989 38.2931 8.71245 38.3417C8.65419 38.3904 8.61291 38.4521 8.58861 38.5268C8.56348 38.6017 8.55767 38.6855 8.57117 38.7782C8.5849 38.8725 8.61454 38.9524 8.66009 39.0178C8.70482 39.0834 8.76199 39.1308 8.83159 39.16C8.90038 39.1894 8.97737 39.1974 9.06257 39.1842C9.14965 39.1723 9.22273 39.142 9.28181 39.0932C9.34077 39.0436 9.38316 38.9808 9.40899 38.905C9.43481 38.8292 9.44103 38.7454 9.42766 38.6535Z" fill="#FEFEFE"/>
<path d="M11.8351 31.9883L11.6135 31.9565L10.8223 30.9934C10.7297 30.8804 10.6485 30.7866 10.5788 30.7121C10.5083 30.6375 10.4404 30.58 10.375 30.5396C10.3089 30.4983 10.2373 30.472 10.1602 30.461C10.0715 30.4482 9.99174 30.4585 9.92077 30.4919C9.84993 30.5244 9.79161 30.5746 9.74582 30.6426C9.70003 30.7106 9.67059 30.7901 9.65749 30.8812C9.64357 30.978 9.65152 31.0654 9.68134 31.1434C9.71047 31.2205 9.75789 31.2838 9.82362 31.3335C9.88947 31.3823 9.97039 31.4136 10.0664 31.4274L10.0246 31.7179C9.87692 31.6967 9.75217 31.644 9.65036 31.5598C9.54855 31.4757 9.4749 31.3704 9.42941 31.2441C9.38404 31.117 9.37191 30.98 9.39303 30.8331C9.41427 30.6854 9.46428 30.559 9.54305 30.4539C9.62181 30.3488 9.71879 30.2714 9.83397 30.2218C9.94915 30.1722 10.0716 30.1567 10.2012 30.1754C10.2939 30.1887 10.3822 30.2186 10.466 30.265C10.5491 30.3104 10.6389 30.382 10.7354 30.4796C10.8312 30.5763 10.9463 30.708 11.0806 30.8747L11.6048 31.528L11.6245 31.5309L11.793 30.3591L12.0638 30.398L11.8351 31.9883Z" fill="#FEFEFE"/>
<path d="M14.9029 24.7074C14.8418 24.84 14.7605 24.9472 14.6589 25.0291C14.5573 25.111 14.4458 25.1628 14.3245 25.1845C14.2031 25.2062 14.0823 25.193 13.9621 25.1449L14.0869 24.8738C14.1965 24.9115 14.3049 24.9039 14.4123 24.8512C14.5192 24.7973 14.5999 24.7112 14.6544 24.593C14.6981 24.4981 14.7147 24.4035 14.7043 24.3093C14.6942 24.2143 14.66 24.1278 14.6019 24.0499C14.5433 23.971 14.4647 23.9087 14.3661 23.8633C14.2652 23.8168 14.165 23.7976 14.0654 23.8056C13.9655 23.8126 13.8749 23.8438 13.7936 23.8995C13.7123 23.9552 13.6485 24.0321 13.6024 24.1304C13.569 24.2009 13.5465 24.2786 13.5347 24.3635C13.5222 24.4481 13.5222 24.5225 13.5346 24.5867L13.3823 24.8341L12.3083 24.1698L12.8617 22.9679L13.1102 23.0824L12.665 24.0492L13.3097 24.4448L13.316 24.4312C13.3002 24.3664 13.2963 24.2925 13.3044 24.2096C13.3125 24.1266 13.3344 24.0463 13.3701 23.9687C13.4353 23.8272 13.5273 23.7166 13.6461 23.6372C13.7644 23.5566 13.8965 23.5115 14.0423 23.502C14.1885 23.4918 14.3366 23.5211 14.4864 23.5901C14.634 23.6581 14.7505 23.7519 14.836 23.8716C14.921 23.9902 14.9705 24.1225 14.9845 24.2686C14.9977 24.4143 14.9705 24.5606 14.9029 24.7074Z" fill="#FEFEFE"/>
<path d="M18.0132 19.3764L17.8225 19.2092L17.2286 17.2003L17.3499 17.0619L17.6454 17.3209L17.5635 17.4144L18.0122 18.9324L18.0272 18.9455L19.0207 17.8121L19.2265 17.9924L18.0132 19.3764ZM19.1962 18.8193L18.7455 18.4241L18.6567 18.3463L17.2811 17.1404L17.4746 16.9197L19.3897 18.5986L19.1962 18.8193Z" fill="#FEFEFE"/>
<path d="M23.9942 15.2844L23.8748 15.095L24.0955 13.8683C24.1215 13.7245 24.1403 13.6019 24.1519 13.5006C24.1631 13.3985 24.1628 13.3095 24.1512 13.2335C24.1399 13.1564 24.1134 13.0849 24.0719 13.0189C24.0241 12.9432 23.9646 12.8891 23.8932 12.8567C23.8225 12.8238 23.7465 12.8119 23.665 12.8211C23.5836 12.8303 23.5039 12.8594 23.4261 12.9084C23.3433 12.9606 23.2819 13.0233 23.2418 13.0966C23.202 13.1687 23.1845 13.2459 23.1893 13.3281C23.1948 13.4099 23.2234 13.4918 23.2751 13.5739L23.0268 13.7303C22.9472 13.6041 22.9065 13.4749 22.9046 13.3428C22.9027 13.2108 22.9351 13.0865 23.0019 12.97C23.0693 12.853 23.1658 12.755 23.2913 12.6759C23.4176 12.5963 23.5462 12.5525 23.6773 12.5444C23.8084 12.5362 23.9302 12.56 24.0426 12.6155C24.155 12.6711 24.2461 12.7543 24.316 12.8651C24.3659 12.9444 24.4004 13.031 24.4193 13.1248C24.4386 13.2176 24.4423 13.3323 24.4305 13.4691C24.4189 13.6047 24.3932 13.7777 24.3533 13.9881L24.1954 14.8107L24.206 14.8275L25.2077 14.1964L25.3535 14.4279L23.9942 15.2844Z" fill="#FEFEFE"/>
<path d="M29.1864 9.69054C29.2872 9.66328 29.3932 9.65439 29.5043 9.66386C29.6154 9.67334 29.7246 9.71001 29.8319 9.7739C29.939 9.83698 30.0385 9.93618 30.1305 10.0715C30.2224 10.2068 30.2998 10.387 30.3626 10.6122C30.4234 10.8302 30.4567 11.0297 30.4623 11.2106C30.4686 11.3904 30.4492 11.549 30.404 11.6864C30.3596 11.8236 30.2907 11.9375 30.1972 12.0281C30.1045 12.1185 29.989 12.183 29.8509 12.2215C29.7135 12.2598 29.5834 12.2669 29.4604 12.2426C29.3381 12.2174 29.2289 12.1656 29.1331 12.0873C29.0378 12.008 28.9626 11.9064 28.9073 11.7823L29.1996 11.7008C29.2574 11.8061 29.3356 11.8845 29.4344 11.9362C29.5337 11.9868 29.648 11.9941 29.7774 11.958C29.9667 11.9052 30.0929 11.7809 30.1563 11.5851C30.2204 11.3891 30.2103 11.1401 30.1261 10.8383L30.107 10.8436C30.081 10.9232 30.044 10.9959 29.9961 11.0617C29.9482 11.1276 29.8904 11.1842 29.8227 11.2314C29.7549 11.2787 29.6788 11.3142 29.5941 11.3378C29.4536 11.377 29.3149 11.3782 29.1781 11.3415C29.042 11.3037 28.9217 11.2335 28.8173 11.1309C28.7136 11.0273 28.6396 10.8965 28.5955 10.7384C28.5537 10.5882 28.5489 10.4415 28.5813 10.2982C28.6142 10.1539 28.6814 10.0276 28.7828 9.91927C28.8851 9.81071 29.0196 9.73447 29.1864 9.69054ZM29.2599 9.95407C29.1593 9.98213 29.0756 10.0326 29.009 10.1054C28.943 10.1771 28.8982 10.2619 28.8747 10.3597C28.8517 10.4565 28.8545 10.556 28.883 10.6582C28.9115 10.7604 28.9598 10.8472 29.0279 10.9186C29.0966 10.9889 29.177 11.038 29.2691 11.0657C29.3617 11.0923 29.4583 11.0916 29.559 11.0636C29.6348 11.0424 29.7014 11.0079 29.7586 10.9601C29.8156 10.9115 29.8613 10.8545 29.8955 10.789C29.9303 10.7225 29.9525 10.6522 29.9619 10.5781C29.9712 10.5032 29.9657 10.4294 29.9454 10.3568C29.9187 10.2609 29.8705 10.1776 29.8008 10.1066C29.7319 10.0355 29.6498 9.98519 29.5547 9.95577C29.4604 9.92613 29.3621 9.92557 29.2599 9.95407Z" fill="#FEFEFE"/>
<path d="M29.5274 21.7201C30.0348 21.7532 30.4424 21.9154 30.8105 22.2685C31.1444 22.6609 31.3532 23.0774 31.3708 23.5976C31.3366 23.8866 31.2967 24.1823 31.1484 24.4364C31.5555 24.7825 32.0012 25.0558 32.4565 25.3323C32.6417 25.4447 32.8264 25.5579 33.0112 25.671C33.1048 25.7283 33.1984 25.7856 33.2921 25.8428C33.6957 26.0896 34.0971 26.3398 34.4977 26.5915C34.6236 26.6705 34.7495 26.7496 34.8754 26.8286C34.9377 26.8677 34.9999 26.9068 35.064 26.9471C35.407 27.1621 35.7506 27.3761 36.0942 27.5901C36.1996 27.6557 36.1996 27.6557 36.307 27.7226C36.4493 27.8112 36.5915 27.8998 36.7337 27.9883C37.0163 28.1643 37.2988 28.3404 37.5813 28.5164C37.721 28.6035 37.8608 28.6906 38.0006 28.7776C38.3286 28.982 38.6566 29.1865 38.9843 29.3912C39.138 29.4873 39.2917 29.5832 39.4455 29.6792C39.5531 29.7464 39.6606 29.8137 39.7682 29.8809C39.9541 29.997 40.1404 30.1123 40.3269 30.2274C40.3761 30.2583 40.4254 30.2893 40.4761 30.3211C40.7904 30.5138 40.9882 30.568 41.3443 30.4871C41.706 30.3702 41.8997 30.1756 42.0836 29.8498C42.1609 29.6327 42.2098 29.4125 42.2574 29.1872C42.2854 29.0636 42.3135 28.94 42.3416 28.8164C42.3548 28.7573 42.3679 28.6981 42.3815 28.6372C42.4262 28.4401 42.4773 28.2452 42.5305 28.0504C42.6252 27.6995 42.7124 27.347 42.7985 26.9939C42.9011 26.5733 43.0078 26.1543 43.1203 25.7362C43.1956 25.4482 43.2662 25.1591 43.3367 24.8699C43.5048 24.1816 43.6815 23.4968 43.8833 22.8175C43.8378 22.7868 43.7923 22.7562 43.7455 22.7246C43.4346 22.4504 43.2092 22.1456 43.1474 21.7284C43.1266 21.3833 43.2238 21.0931 43.4186 20.8095C43.7085 20.5705 43.9917 20.3695 44.3669 20.315C44.8677 20.4067 45.2015 20.5224 45.523 20.9272C45.7139 21.2825 45.7975 21.5762 45.6912 21.9731C45.5753 22.3045 45.4271 22.5001 45.1561 22.721C45.1153 22.7543 45.0745 22.7877 45.0325 22.822C45.0014 22.8473 44.9702 22.8726 44.9381 22.8987C44.9764 22.98 44.9764 22.98 45.0156 23.063C45.6373 24.3808 46.2587 25.6988 46.8799 27.0168C47.1803 27.6542 47.4807 28.2915 47.7814 28.9288C48.0434 29.484 48.3052 30.0394 48.5669 30.5948C48.7055 30.889 48.8442 31.1832 48.983 31.4774C49.1136 31.7539 49.244 32.0306 49.3742 32.3074C49.4222 32.4091 49.4702 32.5109 49.5183 32.6126C49.5837 32.751 49.6489 32.8896 49.714 33.0281C49.7429 33.0891 49.7429 33.0891 49.7724 33.1512C49.9027 33.4294 49.9027 33.4294 49.9211 33.5891C49.7906 33.7584 49.6247 33.8783 49.4543 34.0058C49.3662 34.0719 49.3662 34.0719 49.2763 34.1393C49.2121 34.1871 49.1479 34.2349 49.0818 34.2842C49.0145 34.3345 48.9473 34.3847 48.878 34.4365C48.0278 35.0716 47.1739 35.7017 46.318 36.3291C46.2543 36.3758 46.1905 36.4226 46.1249 36.4707C42.4 39.1962 38.4871 41.7438 34.4933 44.0569C34.4554 44.0789 34.4174 44.1009 34.3783 44.1235C33.4268 44.6746 32.4729 45.2216 31.5163 45.7638C31.447 45.8033 31.3777 45.8427 31.3063 45.8833C31.2424 45.9194 31.1784 45.9555 31.1125 45.9928C31.0571 46.0242 31.0016 46.0556 30.9444 46.088C30.7936 46.1672 30.6425 46.232 30.4834 46.2923C30.0775 45.9132 29.7178 45.4959 29.3546 45.0767C29.2843 44.9958 29.2139 44.9149 29.1436 44.834C28.9535 44.6154 28.7636 44.3965 28.5738 44.1777C28.415 43.9947 28.2562 43.8118 28.0974 43.629C27.7227 43.1977 27.3483 42.7662 26.9739 42.3346C26.588 41.8896 26.2018 41.4449 25.8154 41.0003C25.4832 40.6181 25.1512 40.2357 24.8193 39.8532C24.6213 39.625 24.4232 39.3968 24.225 39.1687C24.0387 38.9544 23.8527 38.74 23.6668 38.5254C23.5986 38.4468 23.5304 38.3682 23.462 38.2897C23.3687 38.1824 23.2756 38.0748 23.1825 37.9673C23.1304 37.9072 23.0783 37.8471 23.0246 37.7852C22.8957 37.6273 22.7839 37.4664 22.676 37.2936C22.6223 37.3354 22.6223 37.3354 22.5675 37.3781C22.2549 37.6043 22.0152 37.7419 21.6233 37.7194C21.2755 37.6605 21.0295 37.5631 20.7946 37.2924C20.5864 36.9936 20.4269 36.7347 20.4483 36.3608C20.5422 35.9123 20.6587 35.673 21.0462 35.4114C21.363 35.2103 21.5873 35.1083 21.9665 35.1877C22.376 35.2966 22.5497 35.4331 22.7837 35.7929C22.8439 35.8845 22.8439 35.8845 22.9053 35.978C23.0085 36.1516 23.0085 36.1516 23.0433 36.2938C23.089 36.4217 23.089 36.4217 23.2561 36.4609C23.3572 36.4787 23.3572 36.4787 23.4604 36.4968C23.5263 36.5091 23.5923 36.5213 23.6602 36.5339C23.847 36.5631 24.0338 36.5901 24.2211 36.6158C24.5816 36.6659 24.9391 36.729 25.2971 36.7943C25.8136 36.8874 26.3304 36.9769 26.8485 37.0611C27.1133 37.1042 27.378 37.1481 27.6426 37.1925C27.7119 37.2041 27.7119 37.2041 27.7826 37.2159C28.039 37.259 28.2951 37.3035 28.551 37.3496C29.7978 37.6571 29.7978 37.6571 30.9632 37.3648C31.1971 37.1752 31.2742 36.9697 31.3236 36.6793C31.3528 36.394 31.3193 36.1315 31.2739 35.8497C31.2619 35.7701 31.2619 35.7701 31.2497 35.6889C31.2233 35.515 31.1961 35.3412 31.1688 35.1674C31.15 35.0446 31.1313 34.9218 31.1127 34.799C31.0741 34.5457 31.0352 34.2923 30.9961 34.0391C30.9424 33.6908 30.8901 33.3423 30.8384 32.9937C30.8305 32.9401 30.8225 32.8865 30.8143 32.8312C30.7984 32.724 30.7825 32.6167 30.7666 32.5095C30.665 31.8249 30.5622 31.1406 30.4585 30.4563C30.4509 30.4061 30.4433 30.356 30.4354 30.3043C30.3974 30.0533 30.3593 29.8024 30.3211 29.5515C30.2358 28.9901 30.1527 28.4285 30.0717 27.8665C30.0534 27.7405 30.0351 27.6145 30.0169 27.4886C29.9818 27.2464 29.9471 27.0043 29.9127 26.7621C29.8967 26.6514 29.8807 26.5407 29.8646 26.43C29.8542 26.3553 29.8542 26.3553 29.8435 26.279C29.8 25.9822 29.7326 25.7087 29.6366 25.4244C29.5591 25.4274 29.4816 25.4304 29.4017 25.4334C28.9705 25.4176 28.5796 25.2113 28.2455 24.9465C27.9115 24.5199 27.6805 24.1117 27.6499 23.5635C27.6801 23.3223 27.6801 23.3223 27.7434 23.1171C27.7681 23.0199 27.7681 23.0199 27.7933 22.9208C28.0833 22.2005 28.7537 21.7522 29.5274 21.7201ZM35.737 35.2304C35.6286 36.2612 36.1817 37.2234 36.7849 38.013C37.1827 38.4708 37.6453 38.7887 38.207 39.01C38.2721 39.039 38.3371 39.068 38.4041 39.0979C38.8145 39.1839 39.1901 39.1596 39.555 38.943C39.9211 38.6709 40.0849 38.3598 40.1638 37.9142C40.275 36.8174 39.8047 35.8527 39.1381 35.0111C38.5875 34.3863 37.9193 33.9418 37.0835 33.8517C36.229 33.8219 35.8748 34.4893 35.737 35.2304ZM30.3371 40.7628C30.3102 41.2924 30.4927 41.6633 30.8082 42.0731C31.2528 42.5432 31.8803 43.0276 32.5475 43.0627C32.9988 43.0701 33.2843 43.0566 33.6465 42.7611C33.8414 42.4663 33.8707 42.1757 33.8272 41.8291C33.5287 41.0457 32.9367 40.5384 32.1846 40.1972C31.7634 40.0477 31.3343 39.9721 30.8979 40.0881C30.5685 40.2555 30.4387 40.4067 30.3371 40.7628ZM43.6839 32.387C43.6117 33.14 43.7841 33.9913 44.2586 34.5928C44.5567 34.8757 44.8486 35.0834 45.2714 35.1108C45.5948 35.017 45.8303 34.8454 46.0143 34.5675C46.3368 33.9504 46.2858 33.2369 46.1134 32.5839C45.95 32.1221 45.6718 31.6144 45.2431 31.3536C45.1218 31.2959 45.1218 31.2959 45.0048 31.2541C44.9463 31.2303 44.8879 31.2066 44.8276 31.1821C44.1448 31.1716 43.7989 31.7832 43.6839 32.387Z" fill="#E30808"/>
<path d="M31.7621 48.7981C31.8087 48.7714 31.8553 48.7447 31.9033 48.7171C32.451 48.4045 33.0059 48.1048 33.5604 47.8043C34.5233 47.282 35.4821 46.7538 36.428 46.2012C36.468 46.1779 36.5079 46.1546 36.5491 46.1306C36.7971 45.9858 37.0442 45.8393 37.2907 45.6918C37.3951 45.6294 37.4997 45.5671 37.6043 45.505C38.9432 44.7089 40.2472 43.8605 41.5504 43.0077C41.6343 42.9528 41.6343 42.9528 41.7199 42.8968C44.9953 40.7547 48.1977 38.5037 51.2673 36.0734C52.1375 35.3879 52.1375 35.3879 52.6318 35.3659C52.9685 35.4215 53.2466 35.5017 53.4565 35.786C53.4911 35.8381 53.5257 35.8902 53.5614 35.944C53.6008 36.0031 53.6402 36.0622 53.6808 36.1232C53.7441 36.2194 53.7441 36.2194 53.8088 36.3175C53.8523 36.3834 53.8958 36.4493 53.9406 36.5173C54.0327 36.6569 54.1245 36.7967 54.2162 36.9366C54.3566 37.1503 54.4981 37.3632 54.6397 37.5761C54.7289 37.7118 54.8181 37.8477 54.9072 37.9835C54.9497 38.0471 54.9921 38.1106 55.0359 38.176C55.2764 38.5463 55.4128 38.809 55.3765 39.2605C55.264 39.7034 55.0075 39.9286 54.665 40.216C54.6168 40.2582 54.5687 40.3003 54.5191 40.3437C53.8934 40.8862 53.2473 41.4057 52.6075 41.9314C52.6567 41.8996 52.7058 41.8678 52.7565 41.8349C53.2194 41.5353 53.683 41.2367 54.1474 40.9393C54.3861 40.7863 54.6245 40.6329 54.8624 40.4787C55.0919 40.3298 55.3221 40.1821 55.5527 40.035C55.6407 39.9787 55.7284 39.922 55.8158 39.8649C55.9382 39.7851 56.0614 39.7067 56.1849 39.6285C56.2549 39.5835 56.3249 39.5384 56.3969 39.492C56.5844 39.4095 56.5844 39.4095 56.7557 39.4416C56.8875 39.5196 56.8875 39.5196 56.97 39.668C57.0099 39.8249 57.0099 39.8249 56.9725 40.0034C56.818 40.1239 56.818 40.1239 56.6028 40.2649C56.5633 40.291 56.5238 40.3171 56.4831 40.344C56.3492 40.4322 56.2148 40.5196 56.0805 40.607C55.9839 40.6704 55.8875 40.7338 55.791 40.7972C55.5248 40.9721 55.2582 41.1464 54.9915 41.3205C54.7044 41.5081 54.4176 41.6964 54.1308 41.8845C53.5685 42.2533 53.0058 42.6215 52.4429 42.9894C51.9856 43.2884 51.5284 43.5875 51.0713 43.8867C49.7767 44.7341 48.4817 45.5812 47.1864 46.4276C47.1165 46.4733 47.0466 46.5189 46.9746 46.566C46.9046 46.6117 46.8346 46.6574 46.7625 46.7046C45.6278 47.446 44.4939 48.1886 43.3602 48.9316C42.1975 49.6937 41.0343 50.455 39.8705 51.2154C39.2166 51.6427 38.563 52.0703 37.9099 52.4988C37.3539 52.8636 36.7974 53.2276 36.2403 53.5906C35.9558 53.776 35.6716 53.9618 35.388 54.1485C35.1287 54.3191 34.8687 54.4888 34.6082 54.6577C34.5138 54.7192 34.4196 54.781 34.3256 54.8433C34.1985 54.9274 34.0706 55.0103 33.9424 55.0928C33.8713 55.1392 33.8003 55.1857 33.7271 55.2336C33.5392 55.3179 33.5392 55.3179 33.3676 55.2862C33.1942 55.1828 33.1627 55.0955 33.1136 54.9025C33.1676 54.6448 33.302 54.6039 33.5188 54.459C33.5575 54.433 33.5961 54.407 33.6359 54.3802C33.7639 54.2941 33.8925 54.2088 34.021 54.1235C34.1098 54.064 34.1985 54.0045 34.2872 53.945C34.521 53.7883 34.7552 53.6322 34.9894 53.4762C35.2283 53.317 35.4668 53.1572 35.7054 52.9974C36.1736 52.6839 36.6423 52.3711 37.1113 52.0587C37.0585 52.0856 37.0585 52.0856 37.0046 52.113C36.6366 52.2999 36.2679 52.4855 35.8989 52.6705C35.7614 52.7396 35.6241 52.809 35.487 52.8787C35.2893 52.9792 35.0911 53.0785 34.8927 53.1776C34.8016 53.2243 34.8016 53.2243 34.7087 53.272C34.2635 53.4924 33.8502 53.6436 33.3579 53.5004C33.0708 53.3891 32.9873 53.3099 32.8184 53.0569C32.7775 52.9957 32.7365 52.9345 32.6943 52.8714C32.6501 52.8048 32.606 52.7381 32.5605 52.6694C32.5153 52.6011 32.47 52.5328 32.4234 52.4624C32.3276 52.3175 32.2319 52.1724 32.1365 52.0273C32.0145 51.8419 31.8912 51.6573 31.7676 51.4729C31.6498 51.2964 31.5334 51.1189 31.4168 50.9415C31.3724 50.8756 31.328 50.8097 31.2823 50.7419C31.0091 50.3216 30.9141 50.0985 31.0045 49.6045C31.1473 49.158 31.3649 49.0237 31.7621 48.7981ZM35.1694 48.3766C35.1479 48.4826 35.1479 48.4826 35.126 48.5908C35.1103 48.6671 35.0946 48.7434 35.0785 48.822C35.0624 48.9024 35.0464 48.9827 35.0299 49.0654C35.0134 49.146 34.9969 49.2266 34.98 49.3096C34.9392 49.5094 34.8989 49.7093 34.8589 49.9092C35.0615 50.0439 35.2463 50.0944 35.4839 50.1424C35.5556 50.1572 35.6273 50.1719 35.7012 50.1871C35.7757 50.2019 35.8503 50.2167 35.9271 50.232C36.0404 50.2551 36.0404 50.2551 36.156 50.2787C36.3423 50.3167 36.5286 50.3542 36.7151 50.3913C36.8391 49.9837 36.9382 49.5771 37.0226 49.1597C37.0344 49.1027 37.0461 49.0456 37.0582 48.9868C37.0868 48.8481 37.1151 48.7093 37.1432 48.5704C36.7378 48.4478 36.3328 48.3455 35.9183 48.2584C35.8622 48.2461 35.8061 48.2338 35.7482 48.2211C35.668 48.2041 35.668 48.2041 35.5862 48.1868C35.538 48.1765 35.4899 48.1663 35.4402 48.1557C35.2426 48.1332 35.2205 48.1904 35.1694 48.3766ZM49.6982 38.8886C49.6751 39.0006 49.6751 39.0006 49.6516 39.1148C49.6348 39.1952 49.6181 39.2757 49.6009 39.3585C49.5834 39.4443 49.5658 39.53 49.5482 39.6157C49.5305 39.7016 49.5127 39.7875 49.4949 39.8733C49.4512 40.0843 49.4078 40.2953 49.3645 40.5063C49.7568 40.6269 50.1494 40.7234 50.5515 40.8045C50.6307 40.8208 50.6307 40.8208 50.7115 40.8374C50.8396 40.8637 50.9679 40.8898 51.0961 40.9157C51.2263 40.7184 51.2787 40.5413 51.3253 40.3103C51.3392 40.2426 51.3531 40.1749 51.3674 40.1052C51.3883 39.9997 51.3883 39.9997 51.4096 39.8922C51.4242 39.8209 51.4387 39.7496 51.4536 39.6762C51.4893 39.5005 51.5246 39.3247 51.5596 39.1488C51.3629 39.0194 51.1859 38.9659 50.956 38.9184C50.8548 38.8974 50.8548 38.8974 50.7517 38.8759C50.6816 38.8618 50.6115 38.8477 50.5394 38.8331C50.4331 38.8109 50.4331 38.8109 50.3248 38.7883C49.9122 38.6421 49.9122 38.6421 49.6982 38.8886ZM42.7205 44.1423C42.7054 44.2167 42.6903 44.2912 42.6747 44.3679C42.6582 44.4482 42.6416 44.5285 42.6246 44.6113C42.6075 44.6967 42.5904 44.7822 42.5733 44.8676C42.5558 44.9533 42.5382 45.039 42.5207 45.1247C42.4777 45.335 42.4351 45.5455 42.3929 45.756C42.8005 45.88 43.2071 45.9791 43.6246 46.0636C43.6816 46.0753 43.7386 46.087 43.7974 46.0991C43.9362 46.1277 44.075 46.156 44.2138 46.1841C44.3378 45.7765 44.4369 45.3699 44.5214 44.9525C44.5332 44.8955 44.5449 44.8384 44.557 44.7796C44.5855 44.6409 44.6139 44.5021 44.642 44.3632C44.446 44.2345 44.269 44.1799 44.0403 44.1316C43.9731 44.1174 43.9059 44.1032 43.8367 44.0885C43.7669 44.0743 43.6971 44.06 43.6251 44.0453C43.5548 44.0302 43.4844 44.0151 43.4119 43.9995C43.3449 43.9856 43.2779 43.9717 43.2089 43.9574C43.1474 43.9446 43.086 43.9318 43.0227 43.9187C42.8015 43.8904 42.7784 43.9286 42.7205 44.1423Z" fill="#DE7E29"/>
<path d="M30.8594 46.7422C30.8995 46.7195 30.9397 46.6968 30.981 46.6734C31.3749 46.4504 31.7686 46.227 32.1622 46.0034C32.3641 45.8886 32.5661 45.7739 32.7682 45.6596C35.3819 44.1809 37.9292 42.6104 40.44 40.9631C40.6925 40.7974 40.9455 40.6324 41.1986 40.4676C43.7695 38.7938 46.2851 37.0542 48.7334 35.2054C48.8777 35.0968 49.0221 34.9884 49.1665 34.8799C49.5077 34.6235 49.8486 34.3667 50.1892 34.1095C50.2543 34.2274 50.3193 34.3453 50.3842 34.4633C50.4204 34.5289 50.4567 34.5946 50.494 34.6622C50.6029 34.8634 50.702 35.0649 50.7957 35.2735C50.8249 35.3375 50.854 35.4015 50.884 35.4674C50.9447 35.6192 50.9447 35.6192 50.9259 35.7085C50.8478 35.7751 50.7669 35.8385 50.685 35.9005C50.606 35.9607 50.606 35.9607 50.5254 36.0221C50.4672 36.066 50.409 36.1098 50.3491 36.155C50.2888 36.2007 50.2286 36.2464 50.1665 36.2935C49.968 36.4439 49.7691 36.5939 49.5702 36.7438C49.5025 36.7949 49.4348 36.8461 49.365 36.8988C48.4933 37.557 47.6181 38.2101 46.7321 38.849C46.691 38.8787 46.6499 38.9084 46.6076 38.9389C46.3525 39.1228 46.0964 39.3052 45.8395 39.4867C45.7291 39.5647 45.6188 39.6429 45.5086 39.7212C44.1784 40.6641 42.8192 41.5615 41.4539 42.4526C41.3975 42.4894 41.3411 42.5263 41.283 42.5642C38.5944 44.3201 35.8592 45.9699 33.0551 47.5343C32.9927 47.5692 32.9302 47.6042 32.8659 47.6402C32.5912 47.7928 32.3199 47.9405 32.0281 48.0589C31.9094 47.9343 31.7909 47.8094 31.6726 47.6844C31.6397 47.6499 31.6067 47.6154 31.5728 47.5798C31.3899 47.3862 31.2163 47.1884 31.0499 46.9803C31.014 46.9355 30.9781 46.8908 30.9411 46.8446C30.9141 46.8108 30.8872 46.777 30.8594 46.7422Z" fill="#F9E342"/>
<path d="M24.7611 30.2073C25.0995 30.2347 25.3796 30.2859 25.6519 30.5017C25.9083 30.8364 26.139 31.1428 26.1251 31.5795C26.0908 31.785 26.0908 31.785 26.0503 31.9367C26.3174 32.1536 26.6187 32.255 26.9375 32.3731C27.0584 32.4187 27.1793 32.4643 27.3002 32.5099C27.362 32.533 27.4237 32.5562 27.4873 32.58C27.9397 32.7499 28.3904 32.924 28.8412 33.098C29.0147 33.1647 29.1885 33.2305 29.3623 33.2964C29.4756 33.3399 29.5889 33.3835 29.7021 33.4271C29.7545 33.4468 29.807 33.4664 29.861 33.4866C29.9096 33.5055 29.9583 33.5244 30.0084 33.5439C30.051 33.5601 30.0935 33.5764 30.1374 33.5931C30.2985 33.6792 30.379 33.7412 30.4873 33.8917C30.5431 34.089 30.5685 34.2886 30.5944 34.4917C30.6025 34.5503 30.6107 34.6089 30.619 34.6693C30.636 34.793 30.6524 34.9169 30.6684 35.0407C30.693 35.2302 30.7194 35.4192 30.7461 35.6084C30.7623 35.7288 30.7785 35.8492 30.7945 35.9696C30.8024 36.026 30.8103 36.0825 30.8185 36.1407C30.8807 36.637 30.8807 36.637 30.7462 36.8819C30.6198 37.0127 30.6198 37.0127 30.4222 37.0936C30.1912 37.0895 29.9696 37.0416 29.7432 36.9979C29.6137 36.9763 29.4841 36.9546 29.3544 36.9335C29.1821 36.9054 29.0099 36.8769 28.8384 36.8445C28.7074 36.8227 28.7074 36.8227 28.576 36.8385C28.3951 36.8446 28.2845 36.8237 28.1174 36.7505C27.8547 36.4755 27.6582 36.1605 27.4536 35.8412C27.3925 35.7487 27.3312 35.6564 27.2697 35.5642C27.1089 35.3219 26.9504 35.0782 26.7923 34.8342C26.6304 34.5851 26.4663 34.3374 26.3025 34.0897C25.9816 33.6038 25.6632 33.1164 25.3462 32.628C25.2643 32.6665 25.2643 32.6665 25.1808 32.7057C24.8681 32.8348 24.6202 32.8111 24.2999 32.7146C23.9229 32.5023 23.7152 32.2026 23.5774 31.7994C23.5135 31.4635 23.5582 31.1151 23.7291 30.8183C23.9826 30.5156 24.3598 30.245 24.7611 30.2073Z" fill="#DE7E29"/>
<path d="M38.6998 21.1034C39.0401 21.1133 39.3564 21.2229 39.6092 21.4545C39.8834 21.7779 40.0095 22.0871 39.9931 22.5136C39.9436 22.8051 39.8383 23.053 39.6462 23.2797C39.5927 23.3147 39.5393 23.3496 39.4842 23.3856C39.5342 23.4602 39.5342 23.4602 39.5853 23.5363C39.8996 24.0055 40.2127 24.4755 40.5243 24.9465C40.6845 25.1887 40.8452 25.4304 41.0071 25.6714C41.1634 25.9041 41.3183 26.1376 41.4723 26.3717C41.5312 26.4609 41.5907 26.5497 41.6506 26.6382C41.7345 26.7623 41.8167 26.8874 41.8985 27.0129C41.9361 27.0673 41.9361 27.0673 41.9745 27.1228C42.1067 27.3299 42.1321 27.4254 42.1011 27.6727C42.08 27.7417 42.059 27.8107 42.0373 27.8818C42.0243 27.9465 42.0113 28.0113 41.9978 28.078C41.9209 28.4571 41.8366 28.831 41.7261 29.2019C41.691 29.3218 41.6622 29.4435 41.635 29.5655C41.5134 29.8284 41.3862 29.8975 41.1232 30.0204C40.8075 29.9506 40.5568 29.7954 40.2913 29.618C40.2507 29.5914 40.2102 29.5648 40.1685 29.5374C40.0833 29.4813 39.9982 29.4251 39.9133 29.3686C39.784 29.2827 39.6544 29.1974 39.5246 29.1123C39.4415 29.0575 39.3584 29.0027 39.2754 28.9478C39.237 28.9225 39.1987 28.8973 39.1591 28.8712C39.0539 28.8011 38.9497 28.7295 38.8456 28.6577C38.7845 28.6162 38.7234 28.5748 38.6605 28.5321C38.5258 28.4043 38.5258 28.4043 38.4914 28.2583C38.494 28.205 38.4966 28.1518 38.4992 28.0969C38.5024 28.0069 38.5024 28.0069 38.5056 27.9151C38.5096 27.851 38.5135 27.787 38.5175 27.721C38.5203 27.6545 38.5231 27.588 38.526 27.5196C38.5348 27.3194 38.5458 27.1196 38.5573 26.9196C38.5627 26.8139 38.5681 26.7081 38.5733 26.6024C38.5833 26.409 38.5941 26.2157 38.6055 26.0224C38.6499 25.2438 38.6785 24.4623 38.6764 23.6824C38.6384 23.6727 38.6005 23.663 38.5615 23.653C38.0967 23.5274 37.8259 23.385 37.569 22.9681C37.4188 22.654 37.4021 22.3356 37.4908 22.0009C37.7178 21.4561 38.113 21.1453 38.6998 21.1034Z" fill="#DE7E29"/>
<path d="M57.5748 38.7432C57.6226 38.7118 57.6704 38.6804 57.7197 38.648C57.7953 38.5995 57.7953 38.5995 57.8724 38.55C57.9222 38.5168 57.9721 38.4837 58.0234 38.4495C58.0954 38.4027 58.0954 38.4027 58.1688 38.3551C58.2129 38.3264 58.257 38.2978 58.3024 38.2683C58.4212 38.2106 58.4212 38.2106 58.5997 38.248C58.7368 38.4282 58.7368 38.4282 58.8468 38.626C58.8018 38.8405 58.766 38.8526 58.5894 38.9688C58.5218 39.0133 58.5218 39.0133 58.4527 39.0587C58.4052 39.0892 58.3576 39.1197 58.3086 39.1511C58.2618 39.1823 58.2149 39.2135 58.1667 39.2456C58.1213 39.2751 58.076 39.3045 58.0292 39.3349C57.9877 39.3618 57.9462 39.3888 57.9034 39.4166C57.7834 39.4751 57.7834 39.4751 57.5508 39.4729C57.4105 39.295 57.4105 39.295 57.3038 39.095C57.3497 38.8762 57.3936 38.8624 57.5748 38.7432Z" fill="#E30808"/>
<path d="M31.8101 55.5758C31.8661 55.5396 31.8661 55.5396 31.9233 55.5026C31.9599 55.4774 31.9966 55.4522 32.0344 55.4262C32.1425 55.3554 32.1425 55.3554 32.3393 55.2548C32.5531 55.3462 32.5531 55.3462 32.6675 55.5508C32.6935 55.6196 32.7194 55.6885 32.7462 55.7595C32.6382 55.9445 32.4798 56.0237 32.3021 56.1412C32.2009 56.2089 32.2009 56.2089 32.0977 56.2781C31.9175 56.3781 31.9175 56.3781 31.7389 56.3407C31.6019 56.1605 31.6019 56.1605 31.4919 55.9627C31.5383 55.741 31.6279 55.6977 31.8101 55.5758Z" fill="#E30808"/>
</svg>
