<svg width="256" height="75" viewBox="0 0 256 75" fill="none" xmlns="http://www.w3.org/2000/svg">
<rect x="224.648" y="43.8242" width="5.24676" height="7.70699" transform="rotate(13.342 224.648 43.8242)" fill="#DE7E29"/>
<circle cx="36.2711" cy="39.5328" r="29.9842" stroke="#F9E342" stroke-width="2.16753"/>
<circle cx="36.2598" cy="39.5352" r="27.0942" stroke="black" stroke-width="3.61256" stroke-dasharray="7.23 7.23"/>
<circle cx="36.2503" cy="39.5328" r="27.0942" transform="rotate(15.1988 36.2503 39.5328)" stroke="#E30808" stroke-width="3.61256" stroke-dasharray="7.23 7.23"/>
<path d="M36.2743 11.2104L36.2115 13.6154L35.9203 13.6078L35.9751 11.5082L35.961 11.5078L35.3636 11.8823L35.3714 11.5864L35.983 11.2028L36.2743 11.2104Z" fill="#FEFEFE"/>
<path d="M43.5442 12.1289C43.6382 12.159 43.7268 12.2063 43.81 12.2708C43.8933 12.3353 43.9611 12.4204 44.0135 12.5261C44.0661 12.6311 44.0941 12.7608 44.0977 12.9153C44.1012 13.0698 44.0701 13.2525 44.0044 13.4633C43.9408 13.6674 43.8648 13.8427 43.7766 13.9891C43.6893 14.135 43.5925 14.2508 43.4862 14.3366C43.3806 14.4227 43.2675 14.4777 43.1468 14.5016C43.0269 14.5257 42.9023 14.5177 42.773 14.4774C42.6444 14.4373 42.5375 14.3761 42.4524 14.2938C42.3683 14.211 42.3083 14.1139 42.2724 14.0027C42.2375 13.8909 42.23 13.7717 42.2498 13.645L42.5234 13.7302C42.5153 13.8434 42.5371 13.9457 42.5889 14.0373C42.6417 14.1284 42.7287 14.1929 42.8498 14.2306C43.027 14.2858 43.191 14.252 43.3416 14.1292C43.4931 14.0066 43.6128 13.8039 43.7009 13.5213L43.6829 13.5157C43.6215 13.5655 43.5549 13.6042 43.4831 13.6319C43.4113 13.6595 43.3364 13.6747 43.2584 13.6775C43.1805 13.6803 43.1019 13.6693 43.0226 13.6446C42.891 13.6036 42.7804 13.5335 42.6908 13.4342C42.6021 13.3344 42.5427 13.217 42.5126 13.0821C42.4834 12.9467 42.4919 12.805 42.538 12.6569C42.5818 12.5164 42.6533 12.3975 42.7524 12.3005C42.8526 12.2029 42.9707 12.1372 43.1067 12.1033C43.2436 12.0696 43.3894 12.0781 43.5442 12.1289ZM43.4673 12.3756C43.3731 12.3462 43.2809 12.3433 43.1907 12.3669C43.1015 12.39 43.0225 12.4342 42.9537 12.4998C42.8858 12.5647 42.837 12.6451 42.8072 12.7408C42.7774 12.8365 42.7711 12.9301 42.7885 13.0217C42.8069 13.1127 42.8455 13.1928 42.9044 13.262C42.9642 13.3307 43.0412 13.3797 43.1354 13.4091C43.2064 13.4312 43.2769 13.438 43.3468 13.4294C43.417 13.4201 43.4825 13.3983 43.5432 13.3639C43.6049 13.329 43.6586 13.2846 43.7041 13.2307C43.7498 13.176 43.7833 13.1147 43.8045 13.0467C43.8324 12.9569 43.837 12.8661 43.8181 12.7741C43.7999 12.6823 43.7607 12.6003 43.7003 12.5282C43.6407 12.4563 43.563 12.4054 43.4673 12.3756Z" fill="#FEFEFE"/>
<path d="M49.6826 17.4379C49.5538 17.3514 49.4539 17.2522 49.3829 17.1404C49.3124 17.0289 49.2741 16.914 49.2678 16.7956C49.2625 16.677 49.2925 16.5636 49.3576 16.4554L49.6033 16.6205C49.5653 16.6883 49.55 16.7588 49.5576 16.8318C49.5656 16.9041 49.5926 16.9742 49.6386 17.0419C49.6847 17.1096 49.746 17.1692 49.8228 17.2207C49.9086 17.2784 49.9947 17.3145 50.0811 17.3292C50.1675 17.3438 50.2474 17.3371 50.3209 17.3091C50.3945 17.2812 50.4548 17.2321 50.502 17.1619C50.5513 17.0884 50.5765 17.0115 50.5777 16.9311C50.5793 16.8501 50.5557 16.7701 50.5069 16.6911C50.458 16.6121 50.3829 16.5385 50.2815 16.4704L50.1216 16.363L50.2657 16.1484L50.4256 16.2558C50.5049 16.3091 50.5841 16.3415 50.6631 16.3531C50.7428 16.3651 50.817 16.3565 50.8857 16.3272C50.9551 16.2983 51.0134 16.2488 51.0606 16.1786C51.106 16.111 51.1306 16.0421 51.1343 15.9719C51.138 15.9018 51.1219 15.8344 51.0861 15.7698C51.0509 15.7056 50.9966 15.6488 50.9231 15.5995C50.8542 15.5532 50.7807 15.5222 50.7026 15.5065C50.6255 15.4906 50.5519 15.4935 50.4816 15.5152C50.4118 15.5362 50.3531 15.5788 50.3053 15.6429L50.0712 15.4857C50.1454 15.3837 50.2385 15.3132 50.3505 15.2742C50.463 15.2347 50.5818 15.2249 50.7071 15.2449C50.833 15.2653 50.9535 15.3141 51.0685 15.3914C51.1921 15.4744 51.2812 15.5706 51.336 15.6801C51.3912 15.7889 51.4153 15.8998 51.4081 16.013C51.401 16.1261 51.3658 16.2298 51.3025 16.3241C51.2269 16.4365 51.1329 16.5126 51.0205 16.5521C50.9087 16.5921 50.7922 16.5936 50.6709 16.5564L50.6604 16.5721C50.7725 16.6776 50.835 16.7974 50.8478 16.9314C50.861 17.0648 50.825 17.1949 50.7399 17.3217C50.667 17.4303 50.5719 17.5079 50.4546 17.5546C50.3385 17.6011 50.2131 17.615 50.0785 17.5963C49.9439 17.5776 49.8119 17.5248 49.6826 17.4379Z" fill="#FEFEFE"/>
<path d="M54.4717 21.486C54.3688 21.3618 54.2998 21.2338 54.2649 21.102C54.231 20.9704 54.231 20.8458 54.2648 20.7283C54.2993 20.6103 54.3668 20.5101 54.4674 20.4277C54.5452 20.3621 54.6303 20.3176 54.7227 20.2939C54.8156 20.2698 54.9068 20.2664 54.9964 20.2837C55.0871 20.3011 55.1665 20.3386 55.2345 20.3961L55.2454 20.3871C55.1948 20.2795 55.1861 20.1677 55.2192 20.0518C55.2529 19.9354 55.3192 19.8367 55.4179 19.7559C55.5115 19.6773 55.6154 19.6314 55.7295 19.6182C55.8437 19.605 55.9571 19.6228 56.0699 19.6718C56.1832 19.7213 56.2848 19.8003 56.3747 19.9089C56.4637 20.0162 56.5217 20.1298 56.5489 20.2497C56.576 20.3696 56.5725 20.4844 56.5383 20.5941C56.5046 20.7044 56.441 20.7989 56.3474 20.8774C56.2486 20.9583 56.1387 21.0041 56.0175 21.0151C55.8975 21.0261 55.79 20.9976 55.6951 20.9298L55.6843 20.9388C55.7277 21.0157 55.749 21.0998 55.7483 21.1909C55.7481 21.2815 55.7278 21.3706 55.6874 21.458C55.6475 21.5449 55.5887 21.6212 55.5108 21.6868C55.4102 21.7691 55.2984 21.8159 55.1756 21.8272C55.0538 21.8386 54.9314 21.8155 54.8083 21.7578C54.6864 21.7002 54.5741 21.6096 54.4717 21.486ZM54.6707 21.3211C54.7401 21.4049 54.8137 21.466 54.8913 21.5044C54.9689 21.5428 55.0462 21.5581 55.1231 21.5503C55.2 21.5425 55.2719 21.5114 55.3387 21.4571C55.4082 21.3985 55.455 21.3292 55.4792 21.2491C55.5034 21.1691 55.5053 21.0856 55.4851 20.9986C55.4654 20.9122 55.4231 20.8298 55.3581 20.7514C55.2926 20.6724 55.2188 20.6146 55.1366 20.578C55.0548 20.542 54.9724 20.5284 54.8892 20.5373C54.8066 20.5468 54.7305 20.5808 54.6611 20.6394C54.5943 20.6938 54.5496 20.7577 54.5272 20.8313C54.5052 20.9054 54.5061 20.9845 54.53 21.0685C54.5538 21.1525 54.6007 21.2367 54.6707 21.3211ZM55.5498 20.5925C55.6048 20.6588 55.6668 20.7066 55.7358 20.7359C55.8053 20.7658 55.8761 20.7757 55.9482 20.7658C56.0204 20.7559 56.0886 20.7247 56.1531 20.6723C56.2153 20.6198 56.2576 20.5598 56.28 20.4923C56.3031 20.4244 56.306 20.3543 56.2889 20.2821C56.2723 20.2094 56.2358 20.1389 56.1794 20.0708C56.1219 20.0014 56.0587 19.9516 55.9898 19.9212C55.9215 19.8903 55.8521 19.8802 55.7816 19.8909C55.7116 19.901 55.6456 19.9324 55.5834 19.9849C55.519 20.0373 55.4749 20.0977 55.4513 20.1661C55.4281 20.2351 55.4248 20.3066 55.4412 20.3804C55.4577 20.4543 55.4939 20.525 55.5498 20.5925Z" fill="#FEFEFE"/>
<path d="M58.2783 26.5943L60.6589 26.7419L60.6762 26.7345L60.1861 25.5949L60.4235 25.4928L61.0324 26.9087L60.782 27.0164L58.399 26.8749L58.2783 26.5943Z" fill="#FEFEFE"/>
<path d="M60.9546 32.127L61.1589 32.0725L62.2035 32.6158C62.3258 32.6796 62.4311 32.731 62.5193 32.7698C62.6082 32.8085 62.6886 32.8333 62.7604 32.8441C62.8331 32.8555 62.9051 32.8518 62.9762 32.8328C63.0579 32.811 63.1234 32.7724 63.1727 32.7172C63.2222 32.6626 63.2542 32.5973 63.2688 32.5213C63.2834 32.4453 63.2795 32.3653 63.2571 32.2813C63.2333 32.192 63.1939 32.119 63.1391 32.0623C63.0852 32.0062 63.0205 31.9687 62.945 31.9499C62.8697 31.9319 62.7877 31.9347 62.6992 31.9584L62.6278 31.6905C62.764 31.6542 62.8919 31.6537 63.0116 31.689C63.1312 31.7244 63.2342 31.7885 63.3206 31.8814C63.4072 31.975 63.4685 32.0895 63.5047 32.225C63.541 32.3612 63.5444 32.4895 63.515 32.6101C63.4855 32.7306 63.4299 32.8338 63.3483 32.9196C63.2666 33.0054 63.166 33.0642 63.0464 33.0961C62.9609 33.1189 62.8732 33.1257 62.7832 33.1165C62.6941 33.1078 62.5896 33.079 62.4695 33.0299C62.3504 32.9815 62.2016 32.9097 62.0231 32.8147L61.3254 32.4415L61.3072 32.4463L61.5954 33.5269L61.3457 33.5935L60.9546 32.127Z" fill="#FEFEFE"/>
<path d="M62.0573 38.4369L62.2969 38.4352L63.9772 39.4806L63.9784 39.6545L63.6072 39.6571L63.6064 39.5396L62.3368 38.7498L62.318 38.7499L62.328 40.1736L62.0696 40.1754L62.0573 38.4369ZM61.5719 39.5728L62.1381 39.5688L62.2497 39.568L63.9777 39.5558L63.9796 39.833L61.5739 39.85L61.5719 39.5728Z" fill="#FEFEFE"/>
<path d="M63.2493 46.8068C63.2118 46.8981 63.1576 46.9826 63.0866 47.0605C63.0157 47.1383 62.9254 47.1991 62.8159 47.2429C62.707 47.2869 62.5754 47.3046 62.4212 47.2958C62.2669 47.287 62.0873 47.2414 61.8823 47.1591C61.6839 47.0794 61.5153 46.9897 61.3764 46.89C61.238 46.7914 61.1302 46.6856 61.0532 46.5728C60.9758 46.4607 60.93 46.3436 60.9158 46.2214C60.9013 46.1 60.9193 45.9764 60.9698 45.8507C61.02 45.7257 61.0895 45.624 61.1784 45.5458C61.2676 45.4685 61.3691 45.4165 61.4829 45.3896C61.5971 45.3637 61.7166 45.3657 61.8413 45.3956L61.7344 45.6616C61.6223 45.6444 61.5186 45.658 61.4231 45.7023C61.3281 45.7477 61.2569 45.8293 61.2096 45.947C61.1404 46.1192 61.1611 46.2853 61.2715 46.4453C61.3816 46.606 61.5741 46.7415 61.8488 46.8519L61.8558 46.8345C61.8111 46.7692 61.7778 46.6997 61.7559 46.626C61.7341 46.5522 61.7249 46.4764 61.7284 46.3984C61.7318 46.3205 61.749 46.243 61.78 46.166C61.8313 46.0381 61.9101 45.9334 62.0162 45.852C62.1228 45.7716 62.2445 45.7217 62.3814 45.7024C62.5187 45.6841 62.6593 45.7039 62.8032 45.7617C62.9398 45.8166 63.0525 45.8973 63.1414 46.0039C63.2307 46.1115 63.2868 46.2345 63.3097 46.3728C63.3323 46.5119 63.3122 46.6565 63.2493 46.8068ZM63.0095 46.7105C63.0462 46.6189 63.0565 46.5272 63.0402 46.4355C63.0243 46.3447 62.9865 46.2624 62.9267 46.1886C62.8673 46.1158 62.7911 46.0607 62.6981 46.0233C62.6051 45.986 62.5122 45.9723 62.4196 45.9823C62.3274 45.9934 62.2444 46.0255 62.1708 46.0786C62.0975 46.1328 62.0425 46.2056 62.0058 46.2972C61.978 46.3662 61.9656 46.4359 61.9686 46.5063C61.9723 46.577 61.9888 46.644 62.0182 46.7073C62.0481 46.7716 62.0881 46.8286 62.1382 46.8783C62.189 46.9282 62.2475 46.9665 62.3136 46.9931C62.4008 47.0281 62.4911 47.0398 62.5843 47.0283C62.6772 47.0176 62.7621 46.985 62.8388 46.9306C62.9152 46.8769 62.9721 46.8035 63.0095 46.7105Z" fill="#FEFEFE"/>
<path d="M59.8772 53.3001L57.9481 51.8625L58.1222 51.6289L59.8063 52.884L59.8148 52.8727L59.853 52.1687L60.0904 52.3456L60.0512 53.0666L59.8772 53.3001Z" fill="#FEFEFE"/>
<path d="M49.6028 61.0122L50.1924 63.3233L50.2048 63.3374L51.1391 62.5215L51.3091 62.7161L50.1483 63.7299L49.969 63.5246L49.3727 61.2131L49.6028 61.0122Z" fill="#FEFEFE"/>
<path d="M54.7564 57.3105L55.6384 59.5266L55.6525 59.539L56.4742 58.6096L56.6678 58.7808L55.6469 59.9355L55.4428 59.755L54.5541 57.5393L54.7564 57.3105Z" fill="#FEFEFE"/>
<path d="M43.9145 64.3901L43.9796 64.6207L43.4169 66.5179L43.2496 66.5652L43.1487 66.208L43.2617 66.176L43.6869 64.7425L43.6818 64.7244L42.3116 65.1114L42.2414 64.8627L43.9145 64.3901ZM42.6906 64.2231L42.8445 64.768L42.8748 64.8754L43.3446 66.5384L43.0778 66.6137L42.4238 64.2985L42.6906 64.2231Z" fill="#FEFEFE"/>
<path d="M35.8459 64.9855C36.0072 64.9879 36.1493 65.0186 36.2722 65.0776C36.3943 65.1374 36.489 65.2183 36.5564 65.3203C36.6238 65.4231 36.6561 65.5395 36.6534 65.6695C36.6527 65.7713 36.6313 65.865 36.5893 65.9505C36.5473 66.0368 36.4906 66.1084 36.4193 66.1653C36.3472 66.223 36.2671 66.259 36.1792 66.2734L36.179 66.2875C36.2937 66.3189 36.3843 66.3849 36.451 66.4854C36.5176 66.5866 36.5496 66.701 36.5469 66.8287C36.5458 66.9508 36.5133 67.0596 36.4492 67.155C36.3851 67.2504 36.2979 67.3251 36.1874 67.379C36.0762 67.433 35.9501 67.4589 35.8091 67.4568C35.6697 67.4547 35.5456 67.4251 35.4368 67.3678C35.328 67.3106 35.243 67.2334 35.1818 67.1361C35.1198 67.0389 35.0894 66.9292 35.0904 66.807C35.0931 66.6794 35.1296 66.5659 35.2 66.4667C35.2696 66.3683 35.361 66.305 35.4742 66.277L35.4744 66.2629C35.3878 66.2459 35.31 66.2076 35.2412 66.1478C35.1724 66.0888 35.1178 66.0155 35.0776 65.928C35.0374 65.8413 35.0177 65.747 35.0184 65.6452C35.0211 65.5152 35.0581 65.3998 35.1293 65.2991C35.1997 65.1991 35.2968 65.121 35.4206 65.0649C35.5436 65.0096 35.6854 64.9831 35.8459 64.9855ZM35.8421 65.2439C35.7332 65.2423 35.639 65.2585 35.5594 65.2925C35.4798 65.3266 35.4179 65.3754 35.3739 65.439C35.3299 65.5026 35.3069 65.5774 35.3048 65.6635C35.3042 65.7544 35.3265 65.835 35.3717 65.9054C35.4168 65.9757 35.4791 66.0315 35.5583 66.0726C35.6368 66.1137 35.727 66.1351 35.8288 66.1366C35.9314 66.1381 36.0233 66.1195 36.1045 66.0808C36.185 66.042 36.2488 65.9881 36.2961 65.9191C36.3425 65.8501 36.366 65.7702 36.3666 65.6793C36.3687 65.5932 36.349 65.5177 36.3077 65.4529C36.2656 65.388 36.2049 65.3374 36.1255 65.301C36.0462 65.2645 35.9517 65.2455 35.8421 65.2439ZM35.8251 66.3856C35.7389 66.3843 35.6623 66.4004 35.5953 66.4339C35.5274 66.4673 35.4738 66.5147 35.4345 66.576C35.3952 66.6373 35.3746 66.7094 35.3726 66.7924C35.3721 66.8738 35.3903 66.945 35.427 67.0058C35.4636 67.0675 35.515 67.1152 35.5811 67.1491C35.6471 67.1838 35.7244 67.2018 35.8129 67.2031C35.903 67.2044 35.9819 67.1888 36.0497 67.1561C36.1176 67.1242 36.1704 67.078 36.2081 67.0175C36.2458 66.9577 36.2648 66.8871 36.2653 66.8057C36.2673 66.7227 36.25 66.65 36.2133 66.5876C36.1758 66.5251 36.1237 66.4762 36.0569 66.4407C35.99 66.4053 35.9128 66.3869 35.8251 66.3856Z" fill="#FEFEFE"/>
<path d="M29.5274 64.4141C29.659 64.4552 29.7693 64.5184 29.8583 64.6036C29.9474 64.6889 30.0094 64.787 30.0445 64.8981C30.0795 65.0091 30.0818 65.1239 30.0513 65.2424L29.7822 65.1583C29.8043 65.0511 29.784 64.9504 29.7216 64.8562C29.6581 64.7626 29.5677 64.6974 29.4504 64.6607C29.3562 64.6313 29.2656 64.6272 29.1785 64.6484C29.0907 64.6694 29.0139 64.7118 28.948 64.7757C28.8811 64.8402 28.8323 64.9213 28.8017 65.0193C28.7704 65.1194 28.7646 65.2156 28.7841 65.3079C28.8027 65.4007 28.843 65.4818 28.905 65.5512C28.967 65.6206 29.0469 65.671 29.1445 65.7024C29.2146 65.7251 29.2901 65.7368 29.3711 65.7375C29.4519 65.7389 29.5216 65.7299 29.5801 65.7105L29.8305 65.8232L29.3382 66.9099L28.1452 66.5371L28.2223 66.2905L29.1821 66.5904L29.4745 65.9384L29.461 65.9342C29.4022 65.9568 29.3335 65.9694 29.2548 65.9719C29.1761 65.9744 29.0982 65.9636 29.0212 65.9395C28.8807 65.8956 28.766 65.8228 28.6771 65.7212C28.5873 65.6201 28.5291 65.5018 28.5025 65.3663C28.4752 65.2306 28.4847 65.0884 28.5312 64.9396C28.577 64.7931 28.6508 64.6726 28.7525 64.578C28.8533 64.484 28.9713 64.4216 29.1064 64.3908C29.2413 64.3608 29.3817 64.3685 29.5274 64.4141Z" fill="#FEFEFE"/>
<path d="M21.3674 63.5181L22.6797 61.5017L22.9239 61.6606L21.7782 63.421L21.79 63.4287L22.495 63.4222L22.3336 63.6703L21.6116 63.677L21.3674 63.5181Z" fill="#FEFEFE"/>
<path d="M17.5137 57.3093C17.6048 57.4128 17.6663 57.524 17.6981 57.6431C17.7299 57.7623 17.7319 57.8784 17.7042 57.9915C17.6764 58.1045 17.6188 58.2038 17.5312 58.2892L17.3449 58.0776C17.4194 57.9974 17.4544 57.9009 17.45 57.788C17.4444 57.675 17.401 57.5723 17.3198 57.48C17.2546 57.406 17.1793 57.3554 17.0939 57.3283C17.008 57.3006 16.9202 57.297 16.8307 57.3174C16.7401 57.3377 16.6563 57.3817 16.5793 57.4495C16.5005 57.5188 16.4455 57.598 16.4143 57.687C16.382 57.776 16.3743 57.8662 16.3912 57.9577C16.4082 58.0493 16.4502 58.1338 16.5174 58.2113C16.5655 58.2671 16.6239 58.3163 16.6928 58.359C16.761 58.4022 16.8253 58.4307 16.8854 58.4445L17.0408 58.6708L16.0557 59.3438L15.2299 58.4056L15.4239 58.2349L16.0883 58.9897L16.6768 58.5844L16.6674 58.5738C16.6054 58.5626 16.5402 58.5377 16.4716 58.4989C16.4031 58.4601 16.3421 58.4105 16.2888 58.3499C16.1916 58.2394 16.1313 58.1176 16.1082 57.9847C16.0839 57.8516 16.0956 57.7203 16.1433 57.5907C16.1904 57.4605 16.2725 57.344 16.3895 57.241C16.5047 57.1396 16.6303 57.0749 16.7664 57.0469C16.9013 57.0189 17.0346 57.0268 17.166 57.0707C17.2969 57.1151 17.4128 57.1947 17.5137 57.3093Z" fill="#FEFEFE"/>
<path d="M13.8827 51.9652C13.9633 52.077 14.0136 52.1938 14.0337 52.3154C14.0539 52.437 14.0446 52.5528 14.0061 52.6626C13.9675 52.7725 13.9005 52.8657 13.805 52.9422L13.6402 52.7136C13.722 52.641 13.7663 52.5483 13.7728 52.4355C13.7782 52.3225 13.7449 52.2161 13.673 52.1164C13.6153 52.0363 13.5453 51.9787 13.4629 51.9435C13.3801 51.9076 13.2932 51.8955 13.2021 51.9071C13.1099 51.9185 13.0222 51.9542 12.939 52.0142C12.8539 52.0756 12.7915 52.149 12.7518 52.2346C12.711 52.32 12.6946 52.409 12.7026 52.5018C12.7105 52.5945 12.7442 52.6827 12.8036 52.7664C12.846 52.8266 12.8994 52.8812 12.9638 52.9304C13.0275 52.98 13.0887 53.0146 13.1472 53.0342L13.2799 53.2745L12.2342 53.8488L11.5033 52.8349L11.7129 52.6838L12.301 53.4995L12.926 53.1531L12.9177 53.1417C12.8571 53.1246 12.7946 53.0934 12.7301 53.0482C12.6656 53.0029 12.6098 52.9476 12.5626 52.8822C12.4765 52.7627 12.4284 52.6357 12.4182 52.5011C12.407 52.3663 12.4314 52.2368 12.4914 52.1124C12.5509 51.9874 12.6439 51.8794 12.7703 51.7882C12.8948 51.6985 13.0261 51.6463 13.1643 51.6316C13.3013 51.6168 13.4331 51.6377 13.5597 51.6941C13.6857 51.751 13.7934 51.8414 13.8827 51.9652Z" fill="#FEFEFE"/>
<path d="M11.2109 46.0614C11.2761 46.2021 11.3101 46.3387 11.3129 46.4712C11.3153 46.603 11.2885 46.7212 11.2325 46.8257C11.1755 46.9298 11.0911 47.0113 10.9794 47.07L10.8548 46.8014C10.9225 46.7631 10.9721 46.7108 11.0035 46.6445C11.0341 46.5784 11.0474 46.5046 11.0431 46.4228C11.0388 46.341 11.0173 46.2582 10.9784 46.1744C10.9349 46.0806 10.88 46.0051 10.8137 45.9478C10.7474 45.8904 10.6756 45.8547 10.5982 45.8405C10.5209 45.8263 10.4438 45.837 10.3671 45.8726C10.2868 45.9098 10.2254 45.9625 10.1827 46.0306C10.1393 46.0991 10.1181 46.1797 10.1188 46.2726C10.1196 46.3655 10.1457 46.4673 10.1971 46.5782L10.2781 46.7529L10.0437 46.8617L9.96263 46.6869C9.92243 46.6002 9.87155 46.5315 9.80997 46.4806C9.74807 46.429 9.68014 46.3979 9.60617 46.3874C9.53187 46.3761 9.45635 46.3882 9.37962 46.4238C9.30573 46.458 9.24901 46.5042 9.20947 46.5623C9.16992 46.6203 9.14871 46.6863 9.14583 46.7601C9.14263 46.8332 9.15964 46.91 9.19688 46.9902C9.2318 47.0655 9.2786 47.1302 9.33728 47.1841C9.39492 47.2377 9.45939 47.2734 9.5307 47.2912C9.60129 47.3094 9.67364 47.3035 9.74776 47.2734L9.86637 47.5292C9.75001 47.578 9.63386 47.59 9.51791 47.5652C9.40125 47.5407 9.29455 47.4875 9.1978 47.4055C9.10073 47.3227 9.02303 47.2185 8.96471 47.0927C8.90211 46.9577 8.87575 46.8292 8.88565 46.7073C8.89483 46.5856 8.9318 46.4782 8.99656 46.3852C9.06132 46.2921 9.1452 46.2217 9.24822 46.1739C9.37113 46.1169 9.49091 46.1007 9.60757 46.1251C9.7239 46.1489 9.8243 46.2081 9.90876 46.3027L9.92581 46.2948C9.88463 46.1464 9.89332 46.0116 9.9519 45.8903C10.0098 45.7694 10.108 45.6768 10.2465 45.6126C10.3652 45.5575 10.4867 45.5404 10.6112 45.5613C10.7346 45.5817 10.849 45.6348 10.9544 45.7206C11.0598 45.8064 11.1453 45.92 11.2109 46.0614Z" fill="#FEFEFE"/>
<path d="M10.37 39.4935C10.3932 39.6531 10.3855 39.7983 10.3467 39.929C10.3071 40.059 10.2422 40.1654 10.1522 40.2481C10.0614 40.331 9.9516 40.3814 9.82284 40.3994C9.7222 40.4148 9.62633 40.4086 9.53522 40.3807C9.44333 40.3529 9.36363 40.3083 9.29613 40.2469C9.22774 40.1849 9.17947 40.1116 9.15134 40.027L9.13739 40.0291C9.12452 40.1473 9.07379 40.2473 8.98518 40.329C8.8958 40.4109 8.7879 40.4606 8.66146 40.4782C8.54068 40.4966 8.42811 40.4817 8.32377 40.4336C8.21942 40.3855 8.13183 40.3112 8.06102 40.2107C7.99008 40.1094 7.94446 39.9891 7.92415 39.8496C7.90407 39.7116 7.91364 39.5844 7.95287 39.4679C7.9921 39.3514 8.05486 39.2552 8.14115 39.1793C8.22734 39.1027 8.33082 39.0552 8.4516 39.0368C8.57804 39.0192 8.69582 39.0372 8.80494 39.091C8.91318 39.1441 8.99015 39.2243 9.03584 39.3316L9.04979 39.3296C9.05277 39.2413 9.0783 39.1584 9.12638 39.081C9.17368 39.0037 9.23736 38.9382 9.3174 38.8846C9.39667 38.8311 9.48662 38.7967 9.58725 38.7812C9.71601 38.7633 9.83578 38.7814 9.94657 38.8357C10.0565 38.8894 10.149 38.9729 10.224 39.0862C10.2982 39.1988 10.3468 39.3346 10.37 39.4935ZM10.1142 39.5307C10.0985 39.423 10.0676 39.3325 10.0213 39.2593C9.97503 39.1861 9.91702 39.1329 9.84727 39.0995C9.77751 39.0661 9.69996 39.0553 9.6146 39.0669C9.52481 39.0808 9.44876 39.1156 9.38645 39.1713C9.32413 39.2271 9.27897 39.2974 9.25095 39.3822C9.22282 39.4662 9.21609 39.5586 9.23076 39.6593C9.24554 39.7609 9.2785 39.8487 9.32965 39.9227C9.38068 39.996 9.44401 40.0505 9.51964 40.0862C9.59516 40.1211 9.67781 40.1316 9.76759 40.1178C9.85295 40.1061 9.92436 40.0747 9.98182 40.0236C10.0392 39.9718 10.0795 39.9038 10.1029 39.8196C10.1262 39.7355 10.13 39.6392 10.1142 39.5307ZM8.98432 39.6952C8.97191 39.61 8.94386 39.5369 8.90017 39.476C8.85637 39.4143 8.80109 39.3689 8.73434 39.3399C8.66759 39.3108 8.59308 39.3019 8.51082 39.3131C8.43034 39.3256 8.36296 39.3548 8.30871 39.4007C8.25367 39.4467 8.21468 39.505 8.19172 39.5756C8.16799 39.6463 8.1625 39.7254 8.17525 39.813C8.18822 39.9021 8.21622 39.9776 8.25925 40.0394C8.3015 40.1013 8.3555 40.1461 8.42125 40.1737C8.48623 40.2014 8.55896 40.209 8.63944 40.1965C8.7217 40.1853 8.79074 40.1567 8.84655 40.1106C8.90224 40.0637 8.94228 40.0044 8.96668 39.9328C8.99108 39.8612 8.99696 39.782 8.98432 39.6952Z" fill="#FEFEFE"/>
<path d="M11.2315 33.4559L11.0222 33.4258L10.2748 32.516C10.1873 32.4093 10.1106 32.3207 10.0447 32.2504C9.97814 32.1799 9.91395 32.1255 9.85219 32.0874C9.78976 32.0483 9.72211 32.0236 9.64924 32.0131C9.56553 32.001 9.49015 32.0108 9.42311 32.0423C9.35619 32.073 9.3011 32.1205 9.25785 32.1847C9.2146 32.2489 9.18678 32.324 9.17441 32.41C9.16126 32.5015 9.16877 32.5841 9.19694 32.6578C9.22445 32.7305 9.26925 32.7904 9.33134 32.8373C9.39354 32.8834 9.46999 32.913 9.56068 32.9261L9.52122 33.2005C9.38169 33.1804 9.26384 33.1306 9.16767 33.0511C9.0715 32.9716 9.00193 32.8722 8.95896 32.7529C8.91609 32.6328 8.90464 32.5034 8.92459 32.3646C8.94466 32.2251 8.99189 32.1057 9.0663 32.0064C9.14071 31.9071 9.23231 31.8341 9.34111 31.7872C9.44992 31.7403 9.56556 31.7257 9.68804 31.7433C9.77563 31.7559 9.859 31.7841 9.93815 31.828C10.0166 31.8709 10.1015 31.9385 10.1926 32.0307C10.2832 32.122 10.3919 32.2465 10.5187 32.404L11.0139 33.0211L11.0325 33.0238L11.1917 31.9168L11.4475 31.9536L11.2315 33.4559Z" fill="#FEFEFE"/>
<path d="M14.1344 26.6232C14.0768 26.7484 13.9999 26.8497 13.904 26.927C13.808 27.0044 13.7027 27.0533 13.588 27.0738C13.4734 27.0943 13.3593 27.0819 13.2457 27.0365L13.3636 26.7804C13.4671 26.816 13.5695 26.8088 13.671 26.759C13.772 26.7081 13.8482 26.6268 13.8997 26.5151C13.9409 26.4255 13.9566 26.3361 13.9468 26.2471C13.9372 26.1573 13.905 26.0757 13.8501 26.0021C13.7948 25.9275 13.7205 25.8687 13.6273 25.8258C13.532 25.7819 13.4374 25.7637 13.3433 25.7713C13.2489 25.7779 13.1633 25.8074 13.0865 25.86C13.0097 25.9126 12.9495 25.9853 12.9059 26.0781C12.8744 26.1447 12.8531 26.2181 12.842 26.2983C12.8302 26.3782 12.8302 26.4485 12.8419 26.5091L12.6981 26.7429L11.6834 26.1153L12.2062 24.98L12.441 25.0881L12.0204 26.0014L12.6295 26.375L12.6354 26.3622C12.6204 26.3011 12.6168 26.2313 12.6244 26.1529C12.6321 26.0745 12.6528 25.9987 12.6865 25.9254C12.7481 25.7917 12.835 25.6872 12.9472 25.6122C13.059 25.536 13.1837 25.4935 13.3215 25.4845C13.4596 25.4748 13.5994 25.5026 13.741 25.5678C13.8804 25.632 13.9905 25.7206 14.0712 25.8336C14.1516 25.9456 14.1983 26.0706 14.2115 26.2086C14.224 26.3463 14.1983 26.4845 14.1344 26.6232Z" fill="#FEFEFE"/>
<path d="M17.0431 21.6247L16.8629 21.4667L16.302 19.569L16.4166 19.4383L16.6957 19.683L16.6183 19.7713L17.0422 21.2052L17.0563 21.2176L17.9949 20.147L18.1892 20.3173L17.0431 21.6247ZM18.1606 21.0984L17.7349 20.7251L17.651 20.6516L16.3515 19.5125L16.5343 19.304L18.3434 20.8899L18.1606 21.0984Z" fill="#FEFEFE"/>
<path d="M22.6537 17.7941L22.541 17.6152L22.7494 16.4564C22.774 16.3206 22.7918 16.2048 22.8027 16.1091C22.8132 16.0126 22.813 15.9286 22.802 15.8568C22.7913 15.7839 22.7663 15.7164 22.7271 15.6541C22.682 15.5825 22.6257 15.5314 22.5583 15.5008C22.4915 15.4697 22.4197 15.4585 22.3428 15.4672C22.2658 15.4759 22.1906 15.5034 22.1171 15.5497C22.0389 15.599 21.9809 15.6582 21.943 15.7274C21.9054 15.7955 21.8889 15.8684 21.8934 15.9461C21.8985 16.0234 21.9256 16.1008 21.9744 16.1783L21.7398 16.3261C21.6647 16.2068 21.6262 16.0848 21.6245 15.9601C21.6227 15.8353 21.6533 15.7179 21.7163 15.6078C21.78 15.4974 21.8711 15.4048 21.9898 15.33C22.109 15.2549 22.2306 15.2135 22.3544 15.2058C22.4782 15.1981 22.5932 15.2205 22.6994 15.273C22.8056 15.3255 22.8917 15.4041 22.9577 15.5088C23.0049 15.5837 23.0374 15.6655 23.0553 15.7541C23.0735 15.8417 23.077 15.9501 23.0658 16.0793C23.0549 16.2075 23.0306 16.3709 22.9929 16.5696L22.8438 17.3466L22.8538 17.3625L23.8 16.7664L23.9378 16.985L22.6537 17.7941Z" fill="#FEFEFE"/>
<path d="M27.4878 12.5161C27.5831 12.4903 27.6832 12.4819 27.7881 12.4909C27.893 12.4998 27.9962 12.5345 28.0976 12.5948C28.1987 12.6544 28.2928 12.7481 28.3796 12.8759C28.4665 13.0037 28.5396 13.174 28.5989 13.3867C28.6563 13.5927 28.6877 13.7811 28.6931 13.9519C28.699 14.1218 28.6806 14.2717 28.638 14.4015C28.5961 14.531 28.5309 14.6386 28.4426 14.7242C28.355 14.8096 28.246 14.8705 28.1155 14.9069C27.9858 14.9431 27.8628 14.9498 27.7467 14.9269C27.6311 14.903 27.528 14.8541 27.4375 14.7802C27.3475 14.7053 27.2764 14.6092 27.2242 14.4921L27.5003 14.4151C27.5548 14.5145 27.6288 14.5886 27.722 14.6374C27.8159 14.6852 27.9239 14.6921 28.0461 14.658C28.2249 14.6081 28.3442 14.4907 28.404 14.3057C28.4645 14.1206 28.455 13.8854 28.3755 13.6003L28.3574 13.6053C28.3328 13.6804 28.2979 13.7491 28.2527 13.8113C28.2074 13.8736 28.1528 13.927 28.0888 13.9717C28.0249 14.0163 27.9529 14.0498 27.8729 14.0721C27.7402 14.1091 27.6092 14.1103 27.48 14.0756C27.3514 14.0399 27.2377 13.9736 27.1392 13.8767C27.0412 13.7789 26.9713 13.6552 26.9297 13.5059C26.8901 13.3641 26.8856 13.2255 26.9162 13.0901C26.9473 12.9538 27.0107 12.8345 27.1066 12.7321C27.2032 12.6296 27.3303 12.5576 27.4878 12.5161ZM27.5572 12.765C27.4622 12.7915 27.3832 12.8392 27.3202 12.9079C27.2578 12.9757 27.2155 13.0558 27.1933 13.1482C27.1717 13.2396 27.1743 13.3336 27.2012 13.4301C27.2282 13.5267 27.2738 13.6087 27.3381 13.6761C27.403 13.7426 27.4789 13.7889 27.5659 13.8151C27.6534 13.8402 27.7447 13.8396 27.8397 13.8131C27.9114 13.7931 27.9743 13.7605 28.0283 13.7154C28.0822 13.6694 28.1253 13.6156 28.1577 13.5537C28.1905 13.4909 28.2115 13.4245 28.2204 13.3545C28.2291 13.2837 28.2239 13.2141 28.2048 13.1454C28.1795 13.0549 28.134 12.9761 28.0682 12.9091C28.0031 12.8419 27.9256 12.7944 27.8357 12.7666C27.7466 12.7386 27.6538 12.7381 27.5572 12.765Z" fill="#FEFEFE"/>
<path d="M27.8559 23.7152C28.3352 23.7465 28.7203 23.8997 29.068 24.2333C29.3834 24.604 29.5807 24.9974 29.5973 25.4888C29.565 25.7618 29.5273 26.0412 29.3872 26.2812C29.7718 26.6082 30.1928 26.8664 30.623 27.1276C30.7979 27.2338 30.9724 27.3407 31.1469 27.4475C31.2354 27.5017 31.3238 27.5558 31.4123 27.6099C31.7936 27.843 32.1728 28.0793 32.5512 28.3171C32.6702 28.3918 32.7891 28.4665 32.9081 28.5411C32.9669 28.5781 33.0257 28.615 33.0862 28.653C33.4102 28.8561 33.7348 29.0583 34.0594 29.2604C34.1589 29.3224 34.1589 29.3224 34.2605 29.3857C34.3948 29.4693 34.5292 29.553 34.6636 29.6367C34.9305 29.8029 35.1974 29.9692 35.4642 30.1356C35.5962 30.2178 35.7283 30.3001 35.8603 30.3823C36.1702 30.5754 36.48 30.7685 36.7897 30.962C36.9348 31.0527 37.0801 31.1433 37.2253 31.234C37.3269 31.2975 37.4285 31.361 37.5302 31.4246C37.7058 31.5342 37.8818 31.6431 38.058 31.7519C38.1045 31.7811 38.151 31.8103 38.1989 31.8405C38.4958 32.0224 38.6826 32.0737 39.019 31.9973C39.3608 31.8868 39.5438 31.703 39.7175 31.3952C39.7905 31.1901 39.8367 30.9821 39.8817 30.7693C39.9081 30.6525 39.9346 30.5357 39.9612 30.419C39.9737 30.3631 39.9861 30.3072 39.9989 30.2496C40.0411 30.0635 40.0894 29.8794 40.1397 29.6953C40.2291 29.3638 40.3115 29.0308 40.3928 28.6973C40.4898 28.2999 40.5906 27.9041 40.6968 27.5091C40.768 27.237 40.8347 26.964 40.9013 26.6908C41.0601 26.0406 41.227 25.3936 41.4176 24.7519C41.3747 24.7229 41.3317 24.6939 41.2874 24.6641C40.9938 24.4051 40.7809 24.1172 40.7225 23.7231C40.7028 23.397 40.7946 23.1229 40.9787 22.855C41.2525 22.6292 41.52 22.4393 41.8744 22.3879C42.3476 22.4744 42.663 22.5838 42.9666 22.9661C43.1469 23.3018 43.2259 23.5793 43.1255 23.9542C43.016 24.2673 42.876 24.4521 42.62 24.6608C42.5815 24.6922 42.543 24.7237 42.5033 24.7561C42.4738 24.7801 42.4444 24.804 42.4141 24.8286C42.4503 24.9055 42.4503 24.9055 42.4873 24.9838C43.0746 26.2288 43.6616 27.4738 44.2484 28.7189C44.5322 29.321 44.8161 29.9231 45.1001 30.5251C45.3476 31.0497 45.5949 31.5743 45.8421 32.099C45.973 32.3769 46.1041 32.6549 46.2353 32.9327C46.3586 33.194 46.4818 33.4554 46.6048 33.7168C46.6501 33.8129 46.6955 33.9091 46.7409 34.0052C46.8027 34.1359 46.8643 34.2668 46.9258 34.3977C46.9531 34.4553 46.9531 34.4553 46.981 34.514C47.104 34.7768 47.104 34.7768 47.1215 34.9276C46.9981 35.0876 46.8414 35.2009 46.6805 35.3213C46.5972 35.3837 46.5972 35.3837 46.5123 35.4474C46.4516 35.4926 46.391 35.5377 46.3285 35.5843C46.265 35.6318 46.2015 35.6793 46.136 35.7282C45.3329 36.3281 44.5262 36.9234 43.7177 37.5161C43.6574 37.5602 43.5972 37.6043 43.5352 37.6498C40.0164 40.2245 36.32 42.6312 32.5471 44.8164C32.5113 44.8371 32.4754 44.8579 32.4385 44.8793C31.5395 45.3999 30.6384 45.9166 29.7347 46.4289C29.6693 46.4661 29.6038 46.5034 29.5364 46.5417C29.476 46.5759 29.4156 46.61 29.3533 46.6451C29.3009 46.6748 29.2485 46.7045 29.1945 46.7351C29.0521 46.8099 28.9093 46.8711 28.7589 46.9281C28.3755 46.57 28.0358 46.1758 27.6927 45.7798C27.6262 45.7033 27.5598 45.6269 27.4933 45.5505C27.3137 45.3439 27.1343 45.1372 26.955 44.9305C26.8051 44.7576 26.655 44.5849 26.505 44.4121C26.151 44.0047 25.7973 43.5971 25.4437 43.1893C25.0791 42.769 24.7142 42.3489 24.3492 41.9289C24.0354 41.5678 23.7218 41.2065 23.4083 40.8452C23.2212 40.6296 23.034 40.414 22.8468 40.1986C22.6709 39.9962 22.4951 39.7936 22.3195 39.5909C22.2551 39.5166 22.1906 39.4423 22.126 39.3682C22.0379 39.2668 21.9499 39.1652 21.862 39.0636C21.8128 39.0069 21.7635 38.9501 21.7128 38.8917C21.591 38.7424 21.4854 38.5905 21.3835 38.4272C21.3328 38.4667 21.3328 38.4667 21.281 38.507C20.9857 38.7207 20.7592 38.8507 20.389 38.8295C20.0605 38.7738 19.8281 38.6818 19.6062 38.4261C19.4095 38.1438 19.2588 37.8993 19.279 37.546C19.3678 37.1223 19.4778 36.8963 19.8439 36.6491C20.1432 36.4591 20.355 36.3628 20.7132 36.4378C21.1 36.5407 21.2642 36.6697 21.4852 37.0095C21.5421 37.0961 21.5421 37.0961 21.6001 37.1844C21.6976 37.3484 21.6976 37.3484 21.7305 37.4827C21.7736 37.6035 21.7736 37.6035 21.9315 37.6406C22.027 37.6574 22.027 37.6574 22.1245 37.6745C22.1868 37.6861 22.2491 37.6976 22.3132 37.7096C22.4897 37.7371 22.6662 37.7626 22.8432 37.7869C23.1837 37.8342 23.5214 37.8938 23.8596 37.9555C24.3475 38.0435 24.8357 38.128 25.3252 38.2076C25.5754 38.2482 25.8254 38.2898 26.0754 38.3317C26.1408 38.3427 26.1408 38.3427 26.2076 38.3538C26.4498 38.3945 26.6918 38.4366 26.9335 38.4801C28.1113 38.7706 28.1113 38.7706 29.2123 38.4945C29.4332 38.3154 29.506 38.1212 29.5527 37.8469C29.5803 37.5774 29.5487 37.3294 29.5058 37.0632C29.4945 36.988 29.4945 36.988 29.4829 36.9113C29.458 36.747 29.4322 36.5828 29.4065 36.4186C29.3887 36.3026 29.3711 36.1866 29.3534 36.0706C29.317 35.8313 29.2803 35.592 29.2434 35.3527C29.1926 35.0237 29.1432 34.6945 29.0944 34.3652C29.0869 34.3145 29.0794 34.2639 29.0716 34.2117C29.0566 34.1104 29.0416 34.0091 29.0266 33.9077C28.9306 33.261 28.8334 32.6145 28.7354 31.9681C28.7283 31.9207 28.7211 31.8733 28.7137 31.8245C28.6777 31.5874 28.6417 31.3504 28.6057 31.1133C28.5251 30.583 28.4466 30.0525 28.37 29.5216C28.3528 29.4026 28.3355 29.2836 28.3183 29.1646C28.2851 28.9358 28.2524 28.7071 28.2199 28.4783C28.2047 28.3737 28.1896 28.2691 28.1744 28.1646C28.1646 28.094 28.1646 28.094 28.1545 28.0219C28.1134 27.7415 28.0497 27.4832 27.959 27.2146C27.8858 27.2174 27.8126 27.2202 27.7371 27.2231C27.3298 27.2081 26.9605 27.0133 26.6449 26.7632C26.3294 26.3601 26.1111 25.9745 26.0823 25.4567C26.1107 25.2288 26.1107 25.2288 26.1706 25.0349C26.1939 24.9431 26.1939 24.9431 26.2177 24.8495C26.4917 24.169 27.125 23.7455 27.8559 23.7152ZM33.7219 36.4782C33.6196 37.4519 34.1421 38.3608 34.7119 39.1068C35.0877 39.5393 35.5247 39.8396 36.0554 40.0487C36.1168 40.0761 36.1783 40.1035 36.2416 40.1317C36.6293 40.2129 36.9841 40.1899 37.3288 39.9853C37.6746 39.7283 37.8293 39.4344 37.9038 39.0135C38.0089 37.9773 37.5646 37.066 36.935 36.271C36.4147 35.6807 35.7835 35.2609 34.9939 35.1757C34.1868 35.1476 33.8521 35.778 33.7219 36.4782ZM28.6208 41.7045C28.5954 42.2048 28.7678 42.5552 29.0658 42.9423C29.4858 43.3864 30.0787 43.844 30.7089 43.8771C31.1352 43.8842 31.4049 43.8714 31.7471 43.5922C31.9312 43.3138 31.959 43.0392 31.9178 42.7118C31.6359 41.9718 31.0766 41.4925 30.3661 41.1702C29.9682 41.029 29.5628 40.9575 29.1506 41.0671C28.8394 41.2253 28.7168 41.3681 28.6208 41.7045ZM41.2293 33.792C41.161 34.5034 41.3239 35.3076 41.7722 35.8758C42.0538 36.1431 42.3295 36.3393 42.7289 36.3652C43.0344 36.2765 43.2569 36.1144 43.4308 35.8519C43.7354 35.2689 43.6873 34.5949 43.5244 33.978C43.37 33.5418 43.1072 33.0621 42.7022 32.8158C42.5876 32.7612 42.5876 32.7612 42.4771 32.7218C42.4218 32.6993 42.3666 32.6769 42.3097 32.6537C41.6647 32.6438 41.3379 33.2216 41.2293 33.792Z" fill="#E30808"/>
<path d="M29.9451 49.2983C29.9891 49.2731 30.0331 49.2478 30.0784 49.2218C30.5959 48.9264 31.1201 48.6433 31.6439 48.3595C32.5535 47.8661 33.4593 47.3671 34.3529 46.8451C34.3906 46.8231 34.4283 46.8011 34.4672 46.7784C34.7016 46.6415 34.9349 46.5031 35.1678 46.3638C35.2665 46.3048 35.3652 46.246 35.4641 46.1873C36.7289 45.4353 37.9607 44.6338 39.1919 43.8282C39.2711 43.7764 39.2711 43.7764 39.352 43.7235C42.4463 41.6999 45.4715 39.5734 48.3713 37.2775C49.1933 36.6299 49.1933 36.6299 49.6603 36.6091C49.9784 36.6616 50.241 36.7374 50.4394 37.006C50.4721 37.0552 50.5048 37.1045 50.5384 37.1552C50.5756 37.2111 50.6129 37.2669 50.6512 37.3245C50.7111 37.4154 50.7111 37.4154 50.7721 37.5081C50.8132 37.5704 50.8543 37.6326 50.8967 37.6968C50.9836 37.8288 51.0704 37.9608 51.1571 38.093C51.2897 38.2948 51.4234 38.4959 51.5571 38.697C51.6414 38.8253 51.7256 38.9536 51.8098 39.082C51.8499 39.142 51.89 39.202 51.9314 39.2638C52.1586 39.6136 52.2875 39.8618 52.2532 40.2882C52.1468 40.7067 51.9046 40.9194 51.581 41.1909C51.5355 41.2308 51.49 41.2706 51.4431 41.3116C50.8521 41.8241 50.2417 42.3148 49.6373 42.8115C49.6838 42.7814 49.7302 42.7513 49.778 42.7203C50.2154 42.4373 50.6533 42.1552 51.092 41.8742C51.3175 41.7297 51.5428 41.5848 51.7675 41.4391C51.9843 41.2985 52.2017 41.1589 52.4196 41.02C52.5027 40.9668 52.5855 40.9132 52.6682 40.8593C52.7838 40.7839 52.9002 40.7098 53.0168 40.6359C53.0829 40.5934 53.149 40.5508 53.2171 40.507C53.3942 40.429 53.3942 40.429 53.5561 40.4594C53.6806 40.5331 53.6806 40.5331 53.7585 40.6732C53.7962 40.8214 53.7962 40.8214 53.7609 40.9901C53.6149 41.104 53.6149 41.104 53.4116 41.2371C53.3743 41.2618 53.3369 41.2864 53.2985 41.3118C53.172 41.3951 53.0451 41.4777 52.9181 41.5603C52.827 41.6202 52.7358 41.6801 52.6447 41.74C52.3933 41.9053 52.1414 42.0698 51.8894 42.2343C51.6182 42.4116 51.3473 42.5894 51.0764 42.7672C50.5452 43.1155 50.0136 43.4633 49.4818 43.8109C49.0498 44.0933 48.6179 44.3759 48.1861 44.6586C46.9631 45.4591 45.7397 46.2593 44.5161 47.0589C44.45 47.1021 44.384 47.1452 44.316 47.1897C44.2499 47.2329 44.1838 47.2761 44.1156 47.3206C43.0438 48.021 41.9725 48.7225 40.9016 49.4244C39.8032 50.1443 38.7043 50.8635 37.6049 51.5819C36.9872 51.9855 36.3697 52.3895 35.7527 52.7943C35.2275 53.1389 34.7018 53.4827 34.1755 53.8257C33.9068 54.0008 33.6383 54.1763 33.3704 54.3527C33.1254 54.5139 32.8798 54.6742 32.6337 54.8338C32.5445 54.8918 32.4555 54.9503 32.3668 55.0091C32.2467 55.0886 32.1258 55.1668 32.0047 55.2447C31.9376 55.2886 31.8705 55.3325 31.8013 55.3778C31.6238 55.4574 31.6238 55.4574 31.4617 55.4275C31.298 55.3298 31.2682 55.2473 31.2218 55.065C31.2728 54.8216 31.3998 54.7829 31.6046 54.6461C31.6411 54.6215 31.6776 54.5969 31.7152 54.5716C31.8361 54.4903 31.9576 54.4097 32.079 54.3291C32.1628 54.2729 32.2467 54.2167 32.3305 54.1605C32.5513 54.0124 32.7725 53.8649 32.9938 53.7176C33.2195 53.5672 33.4448 53.4162 33.6702 53.2653C34.1125 52.9692 34.5553 52.6737 34.9983 52.3786C34.9485 52.4039 34.9485 52.4039 34.8976 52.4298C34.5499 52.6064 34.2016 52.7817 33.853 52.9565C33.7231 53.0217 33.5934 53.0873 33.4639 53.1532C33.2771 53.2481 33.0899 53.3419 32.9025 53.4355C32.8164 53.4796 32.8164 53.4796 32.7286 53.5247C32.3081 53.7329 31.9176 53.8757 31.4526 53.7404C31.1813 53.6353 31.1025 53.5605 30.943 53.3215C30.9042 53.2637 30.8655 53.2058 30.8256 53.1463C30.7839 53.0833 30.7422 53.0203 30.6993 52.9554C30.6565 52.8909 30.6138 52.8264 30.5697 52.7599C30.4792 52.623 30.3889 52.486 30.2987 52.3488C30.1834 52.1737 30.067 51.9993 29.9503 51.8252C29.8389 51.6584 29.729 51.4907 29.6188 51.3231C29.5769 51.2609 29.535 51.1986 29.4917 51.1345C29.2337 50.7375 29.144 50.5267 29.2293 50.0601C29.3643 49.6383 29.5698 49.5114 29.9451 49.2983ZM33.1639 48.9001C33.1436 49.0003 33.1436 49.0003 33.1229 49.1025C33.1081 49.1746 33.0932 49.2466 33.078 49.3209C33.0628 49.3968 33.0477 49.4727 33.032 49.5508C33.0165 49.627 33.0009 49.7031 32.9849 49.7815C32.9464 49.9702 32.9083 50.159 32.8705 50.3479C33.0619 50.4752 33.2365 50.5229 33.461 50.5683C33.5287 50.5822 33.5964 50.5961 33.6662 50.6104C33.7367 50.6244 33.8071 50.6385 33.8797 50.6529C33.9867 50.6747 33.9867 50.6747 34.0959 50.697C34.2718 50.7328 34.4479 50.7683 34.624 50.8034C34.7412 50.4183 34.8348 50.0342 34.9146 49.6399C34.9257 49.586 34.9368 49.5321 34.9482 49.4766C34.9752 49.3455 35.0019 49.2144 35.0285 49.0832C34.6455 48.9673 34.2629 48.8707 33.8714 48.7885C33.8183 48.7768 33.7653 48.7652 33.7107 48.7532C33.6349 48.7372 33.6349 48.7372 33.5576 48.7208C33.5121 48.7111 33.4666 48.7014 33.4197 48.6914C33.233 48.6702 33.2121 48.7242 33.1639 48.9001ZM46.8889 39.937C46.8671 40.0427 46.8671 40.0427 46.8449 40.1506C46.8291 40.2266 46.8133 40.3026 46.7971 40.3809C46.7805 40.4619 46.7639 40.5429 46.7473 40.6239C46.7305 40.705 46.7137 40.7861 46.6969 40.8672C46.6556 41.0665 46.6146 41.2658 46.5737 41.4652C46.9443 41.5791 47.3152 41.6703 47.6951 41.7469C47.7698 41.7623 47.7698 41.7623 47.8462 41.778C47.9672 41.8028 48.0884 41.8274 48.2096 41.852C48.3325 41.6655 48.382 41.4982 48.4261 41.28C48.4392 41.2161 48.4523 41.1521 48.4658 41.0863C48.4856 40.9866 48.4856 40.9866 48.5057 40.885C48.5194 40.8177 48.5331 40.7504 48.5473 40.681C48.581 40.515 48.6144 40.3489 48.6474 40.1828C48.4615 40.0605 48.2943 40.01 48.0772 39.9651C47.9816 39.9453 47.9816 39.9453 47.8841 39.925C47.8179 39.9116 47.7518 39.8983 47.6836 39.8846C47.5832 39.8636 47.5832 39.8636 47.4809 39.8422C47.0911 39.7041 47.0911 39.7041 46.8889 39.937ZM40.2972 44.9C40.2829 44.9704 40.2687 45.0407 40.254 45.1131C40.2383 45.189 40.2227 45.2649 40.2066 45.3431C40.1905 45.4238 40.1743 45.5045 40.1581 45.5852C40.1416 45.6662 40.1251 45.7471 40.1085 45.8281C40.0679 46.0268 40.0277 46.2256 39.9878 46.4245C40.3729 46.5416 40.7569 46.6352 41.1513 46.715C41.2052 46.7261 41.2591 46.7372 41.3146 46.7486C41.4457 46.7756 41.5768 46.8023 41.708 46.8289C41.8251 46.4438 41.9187 46.0598 41.9985 45.6654C42.0096 45.6115 42.0207 45.5576 42.0321 45.5021C42.0591 45.371 42.0859 45.2399 42.1124 45.1087C41.9273 44.9872 41.7601 44.9355 41.544 44.8899C41.4806 44.8765 41.4171 44.8631 41.3517 44.8493C41.2857 44.8358 41.2198 44.8223 41.1518 44.8084C41.0854 44.7941 41.0189 44.7799 40.9504 44.7652C40.8871 44.752 40.8238 44.7389 40.7586 44.7253C40.7006 44.7133 40.6425 44.7012 40.5827 44.6888C40.3737 44.6621 40.3519 44.6982 40.2972 44.9Z" fill="#DE7E29"/>
<path d="M29.1016 47.3555C29.1395 47.334 29.1774 47.3126 29.2165 47.2904C29.5886 47.0798 29.9605 46.8688 30.3323 46.6575C30.523 46.5491 30.7138 46.4408 30.9048 46.3328C33.3739 44.9359 35.7803 43.4523 38.1522 41.8961C38.3908 41.7396 38.6297 41.5836 38.8688 41.428C41.2975 39.8468 43.674 38.2034 45.9868 36.4569C46.1231 36.3543 46.2595 36.2519 46.3959 36.1494C46.7183 35.9072 47.0403 35.6646 47.3621 35.4216C47.4236 35.533 47.485 35.6444 47.5463 35.7558C47.5805 35.8178 47.6147 35.8799 47.65 35.9438C47.7529 36.1338 47.8465 36.3241 47.9351 36.5212C47.9626 36.5817 47.9901 36.6421 48.0184 36.7044C48.0758 36.8478 48.0758 36.8478 48.0581 36.9321C47.9842 36.9951 47.9078 37.055 47.8305 37.1136C47.7558 37.1704 47.7558 37.1704 47.6797 37.2284C47.6247 37.2698 47.5698 37.3113 47.5131 37.354C47.4562 37.3971 47.3993 37.4403 47.3407 37.4848C47.1531 37.6269 46.9653 37.7686 46.7774 37.9102C46.7134 37.9585 46.6494 38.0068 46.5835 38.0566C45.76 38.6784 44.9332 39.2953 44.0962 39.8989C44.0574 39.927 44.0186 39.955 43.9786 39.9839C43.7376 40.1576 43.4957 40.3299 43.253 40.5014C43.1487 40.5751 43.0445 40.6489 42.9404 40.7228C41.6838 41.6136 40.3998 42.4613 39.11 43.3032C39.0568 43.338 39.0035 43.3728 38.9486 43.4086C36.4087 45.0674 33.8248 46.6259 31.1758 48.1037C31.1168 48.1368 31.0579 48.1698 30.9971 48.2038C30.7376 48.348 30.4813 48.4875 30.2056 48.5993C30.0935 48.4816 29.9816 48.3636 29.8698 48.2456C29.8387 48.213 29.8076 48.1804 29.7755 48.1468C29.6028 47.9638 29.4388 47.777 29.2816 47.5804C29.2476 47.5381 29.2137 47.4958 29.1788 47.4522C29.1533 47.4203 29.1278 47.3884 29.1016 47.3555Z" fill="#F9E342"/>
<path d="M23.3472 31.7338C23.6668 31.7597 23.9314 31.8081 24.1886 32.0119C24.4308 32.3281 24.6488 32.6176 24.6356 33.0301C24.6032 33.2241 24.6032 33.2241 24.5649 33.3674C24.8173 33.5724 25.102 33.6682 25.403 33.7797C25.5173 33.8227 25.6315 33.8658 25.7457 33.9089C25.804 33.9308 25.8624 33.9526 25.9225 33.9751C26.3498 34.1356 26.7756 34.3001 27.2014 34.4644C27.3653 34.5274 27.5294 34.5896 27.6936 34.6519C27.8006 34.693 27.9076 34.7341 28.0146 34.7753C28.0641 34.7939 28.1136 34.8124 28.1647 34.8315C28.2106 34.8494 28.2566 34.8673 28.3039 34.8857C28.3441 34.901 28.3843 34.9163 28.4258 34.9321C28.578 35.0135 28.654 35.072 28.7563 35.2142C28.809 35.4006 28.833 35.5891 28.8575 35.781C28.8652 35.8363 28.8728 35.8917 28.8808 35.9487C28.8967 36.0656 28.9123 36.1826 28.9274 36.2996C28.9506 36.4785 28.9756 36.6572 29.0008 36.8358C29.0161 36.9495 29.0313 37.0633 29.0465 37.177C29.054 37.2304 29.0614 37.2837 29.0691 37.3387C29.128 37.8075 29.128 37.8075 29.0009 38.0388C28.8815 38.1624 28.8815 38.1624 28.6949 38.2388C28.4766 38.2349 28.2673 38.1897 28.0535 38.1484C27.9311 38.128 27.8086 38.1075 27.6862 38.0876C27.5234 38.061 27.3608 38.0341 27.1987 38.0035C27.0749 37.983 27.0749 37.983 26.9509 37.9979C26.7799 38.0036 26.6755 37.9838 26.5176 37.9147C26.2695 37.6549 26.0838 37.3574 25.8906 37.0557C25.8328 36.9684 25.775 36.8812 25.7169 36.7941C25.565 36.5652 25.4152 36.335 25.2659 36.1045C25.1129 35.8692 24.958 35.6353 24.8032 35.4012C24.5001 34.9422 24.1993 34.4818 23.8998 34.0205C23.8225 34.0568 23.8225 34.0568 23.7436 34.0939C23.4482 34.2158 23.214 34.1935 22.9115 34.1023C22.5554 33.9017 22.3592 33.6186 22.229 33.2377C22.1687 32.9205 22.2109 32.5913 22.3723 32.311C22.6117 32.025 22.9681 31.7694 23.3472 31.7338Z" fill="#DE7E29"/>
<path d="M36.4871 23.1317C36.8086 23.1411 37.1073 23.2447 37.3462 23.4634C37.6051 23.7689 37.7243 24.061 37.7088 24.4639C37.662 24.7392 37.5625 24.9735 37.3811 25.1876C37.3306 25.2206 37.2801 25.2536 37.2281 25.2876C37.2753 25.3581 37.2753 25.3581 37.3236 25.43C37.6205 25.8732 37.9162 26.3172 38.2106 26.7621C38.3619 26.9908 38.5138 27.2192 38.6667 27.4469C38.8143 27.6667 38.9606 27.8872 39.1061 28.1084C39.1618 28.1926 39.2179 28.2765 39.2745 28.3601C39.3538 28.4773 39.4314 28.5955 39.5087 28.7141C39.5442 28.7655 39.5442 28.7655 39.5805 28.8179C39.7054 29.0135 39.7294 29.1038 39.7 29.3374C39.6802 29.4025 39.6603 29.4677 39.6398 29.5348C39.6275 29.596 39.6152 29.6571 39.6025 29.7201C39.5299 30.0783 39.4502 30.4315 39.3458 30.7819C39.3127 30.8951 39.2855 31.0101 39.2598 31.1253C39.1449 31.3737 39.0248 31.439 38.7763 31.555C38.4781 31.4891 38.2413 31.3425 37.9905 31.1749C37.9522 31.1498 37.9139 31.1246 37.8744 31.0988C37.794 31.0458 37.7136 30.9927 37.6334 30.9393C37.5113 30.8582 37.3888 30.7776 37.2663 30.6972C37.1877 30.6455 37.1093 30.5937 37.0308 30.5419C36.9946 30.518 36.9583 30.4941 36.921 30.4695C36.8216 30.4033 36.7231 30.3356 36.6248 30.2678C36.5671 30.2286 36.5094 30.1895 36.45 30.1491C36.3228 30.0284 36.3228 30.0284 36.2902 29.8905C36.2927 29.8402 36.2951 29.7899 36.2976 29.738C36.3006 29.653 36.3006 29.653 36.3037 29.5663C36.3074 29.5058 36.3111 29.4453 36.3149 29.383C36.3176 29.3202 36.3202 29.2574 36.3229 29.1927C36.3312 29.0036 36.3416 28.8148 36.3525 28.6259C36.3576 28.5261 36.3627 28.4262 36.3676 28.3263C36.377 28.1436 36.3873 27.961 36.398 27.7784C36.4399 27.0429 36.467 26.3047 36.465 25.5679C36.4292 25.5588 36.3933 25.5496 36.3564 25.5402C35.9174 25.4215 35.6616 25.287 35.4189 24.8932C35.277 24.5965 35.2612 24.2958 35.345 23.9796C35.5595 23.4649 35.9328 23.1714 36.4871 23.1317Z" fill="#DE7E29"/>
<path d="M54.3516 39.7935C54.3967 39.7638 54.4419 39.7341 54.4884 39.7035C54.5598 39.6577 54.5598 39.6577 54.6326 39.6109C54.6797 39.5796 54.7268 39.5483 54.7753 39.516C54.8433 39.4718 54.8433 39.4718 54.9127 39.4268C54.9543 39.3998 54.9959 39.3727 55.0388 39.3449C55.151 39.2903 55.151 39.2903 55.3197 39.3257C55.4491 39.4959 55.4491 39.4959 55.5531 39.6827C55.5106 39.8853 55.4768 39.8968 55.31 40.0065C55.2461 40.0486 55.2461 40.0486 55.1808 40.0915C55.1359 40.1203 55.091 40.1491 55.0447 40.1788C55.0005 40.2082 54.9562 40.2377 54.9107 40.2681C54.8678 40.2959 54.825 40.3237 54.7808 40.3524C54.7416 40.3778 54.7023 40.4033 54.6619 40.4295C54.5486 40.4848 54.5486 40.4848 54.3289 40.4828C54.1963 40.3147 54.1963 40.3147 54.0956 40.1257C54.1388 39.9191 54.1804 39.9061 54.3516 39.7935Z" fill="#E30808"/>
<path d="M29.9904 55.7019C30.0433 55.6676 30.0433 55.6676 30.0973 55.6327C30.132 55.6089 30.1666 55.5851 30.2023 55.5605C30.3044 55.4936 30.3044 55.4936 30.4903 55.3986C30.6923 55.485 30.6923 55.485 30.8004 55.6782C30.8249 55.7433 30.8494 55.8083 30.8747 55.8754C30.7727 56.0501 30.6231 56.125 30.4552 56.2359C30.3596 56.2999 30.3596 56.2999 30.2621 56.3652C30.0919 56.4597 30.0919 56.4597 29.9232 56.4244C29.7938 56.2542 29.7938 56.2542 29.6898 56.0673C29.7337 55.8579 29.8183 55.817 29.9904 55.7019Z" fill="#E30808"/>
<path d="M74.4586 46.004L70.1289 16.7625H75.7136L77.4706 28.8105C77.5543 29.3752 77.638 29.9714 77.7216 30.5989C77.8053 31.2054 77.8681 31.948 77.9099 32.8265C78.391 31.948 78.8302 31.2054 79.2276 30.5989C79.646 29.9714 80.0434 29.3752 80.4199 28.8105L89.048 15.8212L91.2757 28.8105C91.3802 29.3752 91.4953 29.9714 91.6208 30.5989C91.7463 31.2054 91.83 31.948 91.8718 32.8265C92.3529 31.948 92.7817 31.2054 93.1582 30.5989C93.5347 29.9714 93.9007 29.3752 94.2563 28.8105L101.975 16.7625H108.03L89.1422 46.004L86.789 32.0735C86.7054 31.5087 86.6112 30.9126 86.5067 30.2851C86.4021 29.6576 86.3289 28.9046 86.287 28.0261C85.8059 28.9046 85.3562 29.6576 84.9379 30.2851C84.5405 30.8917 84.1535 31.4774 83.777 32.0421L74.4586 46.004ZM104.379 45L111.438 16.7625H117.274L110.214 45H104.379ZM138.406 45.9413L125.856 28.183L121.683 45H116.412L123.691 15.8212L136.241 33.5481L140.414 16.7625H145.685L138.406 45.9413ZM148.76 21.8452L150.015 16.7625H169.655L168.4 21.8452H161.498L155.694 45H149.858L155.662 21.8452H148.76ZM167.088 45L174.084 16.7625H182.116C183.664 16.7625 185.055 17.1076 186.289 17.7978C187.523 18.4672 188.496 19.3875 189.207 20.5588C189.939 21.7302 190.305 23.0479 190.305 24.5121C190.305 25.6625 190.075 26.7816 189.615 27.8692C189.155 28.936 188.517 29.9086 187.701 30.7871C186.906 31.6447 185.986 32.3663 184.94 32.952L189.207 45H183.403L179.794 34.2697H175.214L172.547 45H167.088ZM176.375 29.5635H180.014C180.893 29.5635 181.698 29.3648 182.43 28.9674C183.162 28.5699 183.737 28.0366 184.156 27.3672C184.595 26.6979 184.814 25.9658 184.814 25.171C184.814 24.167 184.459 23.3617 183.748 22.7551C183.037 22.1485 182.095 21.8452 180.924 21.8452H178.288L176.375 29.5635ZM206.546 45.5648C204.057 45.5648 201.808 44.9895 199.8 43.8391C197.813 42.6887 196.234 41.1304 195.062 39.1642C193.912 37.1981 193.337 35.0018 193.337 32.5755C193.337 30.4211 193.786 28.3712 194.686 26.426C195.585 24.4598 196.809 22.7133 198.357 21.1863C199.905 19.6385 201.672 18.4253 203.659 17.5468C205.646 16.6474 207.738 16.1977 209.934 16.1977C212.444 16.1977 214.693 16.7729 216.68 17.9233C218.667 19.0738 220.236 20.632 221.386 22.5982C222.557 24.5644 223.143 26.7711 223.143 29.2184C223.143 31.3519 222.693 33.4017 221.794 35.3679C220.915 37.334 219.692 39.0806 218.123 40.6075C216.575 42.1344 214.808 43.3476 212.821 44.247C210.834 45.1255 208.742 45.5648 206.546 45.5648ZM207.173 40.1055C208.491 40.1055 209.746 39.8231 210.938 39.2584C212.151 38.6936 213.229 37.9197 214.17 36.9366C215.111 35.9535 215.843 34.8345 216.366 33.5795C216.91 32.3245 217.182 31.0172 217.182 29.6576C217.182 28.1307 216.837 26.7711 216.146 25.5788C215.477 24.3657 214.546 23.414 213.354 22.7237C212.183 22.0125 210.844 21.657 209.338 21.657C208.02 21.657 206.755 21.9393 205.542 22.5041C204.328 23.0688 203.251 23.8428 202.31 24.8258C201.39 25.788 200.658 26.8966 200.114 28.1516C199.57 29.3857 199.298 30.6825 199.298 32.0421C199.298 33.5481 199.643 34.9182 200.333 36.1522C201.024 37.3654 201.965 38.3276 203.157 39.0387C204.349 39.7499 205.688 40.1055 207.173 40.1055ZM246.37 45.9413L233.82 28.183L229.647 45H224.376L231.655 15.8212L244.205 33.5481L248.378 16.7625H253.649L246.37 45.9413Z" fill="url(#paint0_linear_1442_11)"/>
<path d="M73.0837 66.4668V58.6146H75.0293C75.5469 58.6146 75.9832 58.6931 76.338 58.8502C76.6986 59.0072 76.9894 59.2137 77.2104 59.4696C77.4315 59.7197 77.5914 59.9931 77.6903 60.2898C77.795 60.5864 77.8473 60.8772 77.8473 61.1622C77.8473 61.4414 77.7979 61.7293 77.699 62.026C77.6001 62.3226 77.4402 62.5989 77.2192 62.8548C76.9981 63.1107 76.7073 63.3172 76.3467 63.4742C75.9861 63.6313 75.5469 63.7098 75.0293 63.7098H74.0783V66.4668H73.0837ZM74.0783 62.8199H74.9769C75.4481 62.8199 75.8203 62.7385 76.0937 62.5756C76.367 62.4069 76.5619 62.1975 76.6782 61.9474C76.7946 61.6915 76.8527 61.4298 76.8527 61.1622C76.8527 60.9063 76.7946 60.6504 76.6782 60.3945C76.5677 60.1385 76.3758 59.9262 76.1024 59.7576C75.8348 59.5889 75.4597 59.5045 74.9769 59.5045H74.0783V62.8199ZM82.1189 66.4668V58.0911H83.0612V66.4668H82.1189ZM89.9897 66.5366C89.5127 66.5366 89.0765 66.4174 88.681 66.1789C88.2855 65.9346 87.9685 65.6089 87.73 65.2017C87.4973 64.7946 87.381 64.3438 87.381 63.8494C87.381 63.355 87.4973 62.9042 87.73 62.4971C87.9685 62.0899 88.2855 61.7671 88.681 61.5287C89.0765 61.2844 89.5127 61.1622 89.9897 61.1622C90.3503 61.1622 90.6876 61.2291 91.0017 61.3629C91.3216 61.4967 91.5979 61.6828 91.8306 61.9213V61.232H92.703V66.4668H91.8306V65.7776C91.5979 66.0102 91.3216 66.1963 91.0017 66.3359C90.6876 66.4697 90.3503 66.5366 89.9897 66.5366ZM90.1118 65.6816C90.4434 65.6816 90.7429 65.6002 91.0105 65.4373C91.2838 65.2686 91.499 65.0476 91.6561 64.7742C91.8189 64.495 91.9004 64.1868 91.9004 63.8494C91.9004 63.5121 91.8189 63.2067 91.6561 62.9333C91.499 62.6541 91.2838 62.4331 91.0105 62.2702C90.7429 62.1016 90.4434 62.0172 90.1118 62.0172C89.7803 62.0172 89.4778 62.1016 89.2045 62.2702C88.9369 62.4331 88.7217 62.6541 88.5588 62.9333C88.4018 63.2067 88.3233 63.5121 88.3233 63.8494C88.3233 64.1868 88.4018 64.495 88.5588 64.7742C88.7217 65.0476 88.9369 65.2686 89.2045 65.4373C89.4778 65.6002 89.7803 65.6816 90.1118 65.6816ZM97.1698 69.0842L98.8711 65.699L96.6551 61.232H97.7195L98.8362 63.5004C98.9351 63.704 99.0311 63.9047 99.1241 64.1024C99.2172 64.3002 99.3103 64.5387 99.4033 64.8178C99.5022 64.5387 99.5953 64.3002 99.6825 64.1024C99.7756 63.8988 99.8745 63.6982 99.9792 63.5004L101.113 61.232H102.117L98.1906 69.0842H97.1698ZM115.478 66.6238C114.908 66.6238 114.376 66.5191 113.881 66.3098C113.387 66.0945 112.951 65.8008 112.572 65.4286C112.2 65.0505 111.909 64.6172 111.7 64.1286C111.491 63.6342 111.386 63.1049 111.386 62.5407C111.386 61.9765 111.491 61.4501 111.7 60.9616C111.915 60.4672 112.209 60.0338 112.581 59.6616C112.959 59.2835 113.395 58.9898 113.89 58.7804C114.384 58.5652 114.916 58.4576 115.486 58.4576C116.045 58.4576 116.568 58.5623 117.057 58.7717C117.545 58.9752 117.976 59.2573 118.348 59.618L118.06 60.822C117.793 60.3915 117.432 60.0484 116.978 59.7925C116.531 59.5307 116.033 59.3998 115.486 59.3998C114.911 59.3998 114.39 59.5423 113.925 59.8274C113.465 60.1065 113.099 60.4846 112.825 60.9616C112.552 61.4327 112.415 61.9591 112.415 62.5407C112.415 63.1107 112.549 63.6342 112.817 64.1111C113.09 64.5881 113.457 64.9691 113.916 65.2541C114.381 65.5391 114.902 65.6816 115.478 65.6816C115.803 65.6816 116.112 65.6438 116.403 65.5682C116.699 65.4867 116.97 65.3733 117.214 65.2279V63.1689H115.05V62.279H118.174V65.7339C117.819 66.0306 117.406 66.2545 116.935 66.4057C116.469 66.5511 115.984 66.6238 115.478 66.6238ZM125.153 66.5366C124.676 66.5366 124.24 66.4174 123.844 66.1789C123.449 65.9346 123.132 65.6089 122.893 65.2017C122.661 64.7946 122.544 64.3438 122.544 63.8494C122.544 63.355 122.661 62.9042 122.893 62.4971C123.132 62.0899 123.449 61.7671 123.844 61.5287C124.24 61.2844 124.676 61.1622 125.153 61.1622C125.514 61.1622 125.851 61.2291 126.165 61.3629C126.485 61.4967 126.761 61.6828 126.994 61.9213V61.232H127.867V66.4668H126.994V65.7776C126.761 66.0102 126.485 66.1963 126.165 66.3359C125.851 66.4697 125.514 66.5366 125.153 66.5366ZM125.275 65.6816C125.607 65.6816 125.906 65.6002 126.174 65.4373C126.447 65.2686 126.663 65.0476 126.82 64.7742C126.982 64.495 127.064 64.1868 127.064 63.8494C127.064 63.5121 126.982 63.2067 126.82 62.9333C126.663 62.6541 126.447 62.4331 126.174 62.2702C125.906 62.1016 125.607 62.0172 125.275 62.0172C124.944 62.0172 124.641 62.1016 124.368 62.2702C124.1 62.4331 123.885 62.6541 123.722 62.9333C123.565 63.2067 123.487 63.5121 123.487 63.8494C123.487 64.1868 123.565 64.495 123.722 64.7742C123.885 65.0476 124.1 65.2686 124.368 65.4373C124.641 65.6002 124.944 65.6816 125.275 65.6816ZM132.551 66.4668V61.232H133.424V61.9823C133.616 61.6973 133.857 61.485 134.148 61.3454C134.445 61.2 134.756 61.1273 135.082 61.1273C135.436 61.1273 135.762 61.2117 136.059 61.3803C136.355 61.5432 136.594 61.7729 136.774 62.0696C136.978 61.7555 137.239 61.5199 137.559 61.3629C137.885 61.2058 138.228 61.1273 138.589 61.1273C138.984 61.1273 139.345 61.2204 139.671 61.4065C140.002 61.5926 140.264 61.8544 140.456 62.1917C140.654 62.5233 140.753 62.9159 140.753 63.3696V66.4668H139.81V63.483C139.81 63.006 139.674 62.6454 139.4 62.4011C139.133 62.151 138.822 62.026 138.467 62.026C138.246 62.026 138.03 62.0754 137.821 62.1743C137.618 62.2732 137.449 62.4273 137.315 62.6367C137.187 62.8461 137.123 63.1194 137.123 63.4568V66.4668H136.181V63.483C136.181 63.1514 136.114 62.8781 135.98 62.6629C135.852 62.4476 135.684 62.2877 135.474 62.183C135.271 62.0725 135.058 62.0172 134.837 62.0172C134.622 62.0172 134.41 62.0667 134.2 62.1656C133.997 62.2644 133.828 62.4186 133.694 62.628C133.561 62.8373 133.494 63.1136 133.494 63.4568V66.4668H132.551ZM147.828 66.5715C147.281 66.5715 146.79 66.4493 146.354 66.2051C145.923 65.9608 145.583 65.6292 145.333 65.2104C145.089 64.7859 144.966 64.3147 144.966 63.7971C144.966 63.3027 145.086 62.8548 145.324 62.4535C145.563 62.0463 145.882 61.7235 146.284 61.485C146.691 61.2466 147.139 61.1273 147.627 61.1273C148.11 61.1273 148.552 61.2437 148.954 61.4763C149.355 61.7031 149.675 62.0114 149.913 62.4011C150.152 62.7908 150.271 63.2329 150.271 63.7273V64.1111H146.851C146.7 64.1111 146.546 64.1053 146.388 64.0937C146.231 64.0821 146.077 64.0646 145.926 64.0413C145.99 64.5067 146.199 64.8964 146.554 65.2104C146.915 65.5245 147.342 65.6816 147.837 65.6816C148.168 65.6816 148.477 65.606 148.762 65.4547C149.047 65.3035 149.276 65.1028 149.451 64.8527L149.713 65.9259C149.462 66.1294 149.175 66.2894 148.849 66.4057C148.529 66.5162 148.189 66.5715 147.828 66.5715ZM145.9 63.4045C146.214 63.3521 146.531 63.3259 146.851 63.3259H148.587C148.715 63.3259 148.84 63.3317 148.962 63.3434C149.09 63.3492 149.218 63.3579 149.346 63.3696C149.265 62.9624 149.061 62.628 148.735 62.3662C148.41 62.0987 148.04 61.9649 147.627 61.9649C147.203 61.9649 146.831 62.1074 146.511 62.3924C146.191 62.6716 145.987 63.0089 145.9 63.4045ZM155.896 66.5715C155.629 66.5715 155.341 66.5221 155.032 66.4232C154.73 66.3185 154.468 66.1469 154.247 65.9084L154.509 64.8789C154.672 65.1523 154.881 65.3704 155.137 65.5333C155.393 65.6903 155.666 65.7688 155.957 65.7688C156.236 65.7688 156.446 65.7019 156.585 65.5682C156.725 65.4286 156.795 65.2599 156.795 65.0621C156.795 64.8353 156.719 64.6695 156.568 64.5648C156.423 64.4601 156.292 64.3874 156.175 64.3467L155.469 64.0762C155.341 64.0239 155.187 63.9483 155.006 63.8494C154.826 63.7447 154.669 63.5964 154.535 63.4045C154.401 63.2125 154.334 62.9624 154.334 62.6541C154.334 62.3749 154.401 62.119 154.535 61.8864C154.669 61.6537 154.858 61.4705 155.102 61.3367C155.347 61.1971 155.634 61.1273 155.966 61.1273C156.228 61.1273 156.501 61.1739 156.786 61.2669C157.071 61.36 157.312 61.517 157.51 61.738L157.249 62.7676C157.109 62.5116 156.92 62.3081 156.681 62.1568C156.443 62.0056 156.196 61.93 155.94 61.93C155.701 61.93 155.512 61.9969 155.373 62.1307C155.239 62.2644 155.172 62.4186 155.172 62.5931C155.172 62.7327 155.219 62.8577 155.312 62.9682C155.405 63.0787 155.544 63.1689 155.73 63.2387L156.437 63.5091C156.565 63.5557 156.722 63.6313 156.908 63.736C157.1 63.8407 157.269 63.9919 157.414 64.1897C157.56 64.3874 157.632 64.655 157.632 64.9923C157.632 65.4635 157.467 65.8444 157.135 66.1353C156.809 66.4261 156.396 66.5715 155.896 66.5715ZM167.903 66.4668V58.6146H171.777V59.5045H168.898V61.1797H171.166V62.0696H168.898V65.5769H171.777V66.4668H167.903ZM178.138 66.5366C177.661 66.5366 177.224 66.4174 176.829 66.1789C176.433 65.9346 176.116 65.6089 175.878 65.2017C175.645 64.7946 175.529 64.3438 175.529 63.8494C175.529 63.355 175.645 62.9042 175.878 62.4971C176.116 62.0899 176.433 61.7671 176.829 61.5287C177.224 61.2844 177.661 61.1622 178.138 61.1622C178.498 61.1622 178.836 61.2291 179.15 61.3629C179.47 61.4967 179.746 61.6828 179.979 61.9213V61.232H180.851V66.4668H179.979V65.7776C179.746 66.0102 179.47 66.1963 179.15 66.3359C178.836 66.4697 178.498 66.5366 178.138 66.5366ZM178.26 65.6816C178.591 65.6816 178.891 65.6002 179.158 65.4373C179.432 65.2686 179.647 65.0476 179.804 64.7742C179.967 64.495 180.048 64.1868 180.048 63.8494C180.048 63.5121 179.967 63.2067 179.804 62.9333C179.647 62.6541 179.432 62.4331 179.158 62.2702C178.891 62.1016 178.591 62.0172 178.26 62.0172C177.928 62.0172 177.626 62.1016 177.352 62.2702C177.085 62.4331 176.87 62.6541 176.707 62.9333C176.55 63.2067 176.471 63.5121 176.471 63.8494C176.471 64.1868 176.55 64.495 176.707 64.7742C176.87 65.0476 177.085 65.2686 177.352 65.4373C177.626 65.6002 177.928 65.6816 178.26 65.6816ZM185.536 66.4668V61.232H186.408V62.1917C186.594 61.8835 186.842 61.6392 187.15 61.4589C187.458 61.2727 187.825 61.1797 188.249 61.1797L188.485 62.1219C188.374 62.087 188.246 62.0696 188.101 62.0696C187.612 62.0696 187.22 62.2266 186.923 62.5407C186.626 62.849 186.478 63.291 186.478 63.8669V66.4668H185.536ZM192.477 66.4668V61.232H193.35V62.0783C193.542 61.77 193.789 61.5345 194.091 61.3716C194.4 61.2088 194.731 61.1273 195.086 61.1273C195.458 61.1273 195.801 61.2204 196.115 61.4065C196.435 61.5868 196.694 61.8515 196.892 62.2005C197.09 62.5436 197.189 62.9624 197.189 63.4568V66.4668H196.246V63.5877C196.246 63.1747 196.121 62.8112 195.871 62.4971C195.627 62.1772 195.281 62.0172 194.833 62.0172C194.466 62.0172 194.138 62.151 193.847 62.4186C193.562 62.6803 193.419 63.0613 193.419 63.5615V66.4668H192.477ZM211.189 66.6238C210.625 66.6238 210.093 66.5191 209.593 66.3098C209.098 66.0945 208.662 65.8008 208.284 65.4286C207.912 65.0563 207.618 64.623 207.403 64.1286C207.193 63.6342 207.089 63.1049 207.089 62.5407C207.089 61.9765 207.193 61.4472 207.403 60.9528C207.618 60.4584 207.912 60.0251 208.284 59.6529C208.662 59.2806 209.098 58.9898 209.593 58.7804C210.093 58.5652 210.625 58.4576 211.189 58.4576C211.748 58.4576 212.271 58.5623 212.76 58.7717C213.248 58.9752 213.679 59.2573 214.051 59.618L213.763 60.822C213.495 60.3915 213.135 60.0484 212.681 59.7925C212.233 59.5307 211.736 59.3998 211.189 59.3998C210.613 59.3998 210.093 59.5423 209.628 59.8274C209.168 60.1065 208.802 60.4846 208.528 60.9616C208.255 61.4327 208.118 61.9591 208.118 62.5407C208.118 63.1165 208.255 63.6429 208.528 64.1199C208.802 64.5968 209.168 64.9778 209.628 65.2628C210.093 65.542 210.613 65.6816 211.189 65.6816C211.742 65.6816 212.242 65.5507 212.69 65.289C213.138 65.0272 213.495 64.6841 213.763 64.2595L214.051 65.4635C213.679 65.8183 213.248 66.1004 212.76 66.3098C212.271 66.5191 211.748 66.6238 211.189 66.6238ZM218.27 66.4668V61.232H219.143V62.1917C219.329 61.8835 219.576 61.6392 219.884 61.4589C220.192 61.2727 220.559 61.1797 220.983 61.1797L221.219 62.1219C221.109 62.087 220.981 62.0696 220.835 62.0696C220.347 62.0696 219.954 62.2266 219.657 62.5407C219.361 62.849 219.212 63.291 219.212 63.8669V66.4668H218.27ZM224.993 69.0842L226.695 65.699L224.479 61.232H225.543L226.66 63.5004C226.759 63.704 226.855 63.9047 226.948 64.1024C227.041 64.3002 227.134 64.5387 227.227 64.8178C227.326 64.5387 227.419 64.3002 227.506 64.1024C227.599 63.8988 227.698 63.6982 227.803 63.5004L228.937 61.232H229.94L226.014 69.0842H224.993ZM233.895 69.0842V61.232H234.767V61.9213C235.006 61.6828 235.282 61.4967 235.596 61.3629C235.91 61.2291 236.248 61.1622 236.608 61.1622C237.091 61.1622 237.527 61.2844 237.917 61.5287C238.313 61.7671 238.627 62.0899 238.859 62.4971C239.098 62.9042 239.217 63.355 239.217 63.8494C239.217 64.3438 239.098 64.7946 238.859 65.2017C238.627 65.6089 238.313 65.9346 237.917 66.1789C237.527 66.4174 237.091 66.5366 236.608 66.5366C236.265 66.5366 235.942 66.4755 235.64 66.3534C235.337 66.2312 235.07 66.0626 234.837 65.8473V69.0842H233.895ZM236.486 65.6816C236.818 65.6816 237.117 65.6002 237.385 65.4373C237.658 65.2686 237.873 65.0476 238.03 64.7742C238.193 64.495 238.275 64.1868 238.275 63.8494C238.275 63.5121 238.193 63.2067 238.03 62.9333C237.873 62.6541 237.658 62.4331 237.385 62.2702C237.117 62.1016 236.818 62.0172 236.486 62.0172C236.155 62.0172 235.852 62.1016 235.579 62.2702C235.311 62.4331 235.096 62.6541 234.933 62.9333C234.776 63.2067 234.698 63.5121 234.698 63.8494C234.698 64.1868 234.776 64.495 234.933 64.7742C235.096 65.0476 235.311 65.2686 235.579 65.4373C235.852 65.6002 236.155 65.6816 236.486 65.6816ZM243.889 66.4668V62.0172H242.702V61.232H243.915V59.4871H244.805V61.232H246.105V62.0172H244.831V66.4668H243.889ZM252.352 66.5715C251.846 66.5715 251.384 66.4493 250.965 66.2051C250.546 65.9608 250.212 65.6321 249.961 65.2192C249.717 64.8062 249.595 64.3496 249.595 63.8494C249.595 63.3434 249.717 62.8868 249.961 62.4796C250.212 62.0667 250.546 61.738 250.965 61.4938C251.384 61.2495 251.846 61.1273 252.352 61.1273C252.864 61.1273 253.326 61.2495 253.739 61.4938C254.158 61.738 254.49 62.0667 254.734 62.4796C254.984 62.8868 255.109 63.3434 255.109 63.8494C255.109 64.3496 254.984 64.8062 254.734 65.2192C254.49 65.6321 254.158 65.9608 253.739 66.2051C253.326 66.4493 252.864 66.5715 252.352 66.5715ZM252.352 65.6816C252.689 65.6816 252.995 65.6002 253.268 65.4373C253.541 65.2686 253.76 65.0476 253.922 64.7742C254.085 64.495 254.167 64.1868 254.167 63.8494C254.167 63.5121 254.085 63.2067 253.922 62.9333C253.76 62.6541 253.541 62.4331 253.268 62.2702C252.995 62.1016 252.689 62.0172 252.352 62.0172C252.015 62.0172 251.709 62.1016 251.436 62.2702C251.163 62.4331 250.944 62.6541 250.782 62.9333C250.619 63.2067 250.537 63.5121 250.537 63.8494C250.537 64.1868 250.619 64.495 250.782 64.7742C250.944 65.0476 251.163 65.2686 251.436 65.4373C251.709 65.6002 252.015 65.6816 252.352 65.6816Z" fill="white"/>
<rect x="71.7812" y="47.4395" width="156.097" height="5.19571" fill="#DE7E29"/>
<path d="M216.101 31.1218L203.919 37.3335L209.793 31.1066L203.951 24.8476L216.101 31.1218Z" fill="url(#paint1_linear_1442_11)"/>
<defs>
<linearGradient id="paint0_linear_1442_11" x1="160.451" y1="0" x2="160.576" y2="45.18" gradientUnits="userSpaceOnUse">
<stop offset="0.427885" stop-color="#CAA12D"/>
<stop offset="0.696789" stop-color="#FAE443"/>
<stop offset="0.918269" stop-color="#DE7E29"/>
</linearGradient>
<linearGradient id="paint1_linear_1442_11" x1="210.034" y1="24.8633" x2="210.002" y2="37.3491" gradientUnits="userSpaceOnUse">
<stop stop-color="#CAA12D"/>
<stop offset="0.466531" stop-color="#F9E243"/>
<stop offset="1" stop-color="#DD7D28"/>
</linearGradient>
</defs>
</svg>
