<svg width="229" height="67" viewBox="0 0 229 67" fill="none" xmlns="http://www.w3.org/2000/svg">
<rect x="200.367" y="39.1504" width="4.68723" height="6.88508" transform="rotate(13.342 200.367 39.1504)" fill="#DE7E29"/>
<circle cx="32.0829" cy="35.3153" r="26.7866" stroke="#F9E342" stroke-width="1.93638"/>
<circle cx="32.0684" cy="35.3184" r="24.2047" stroke="black" stroke-width="3.2273" stroke-dasharray="6.45 6.45"/>
<circle cx="32.0606" cy="35.3169" r="24.2047" transform="rotate(15.1988 32.0606 35.3169)" stroke="#E30808" stroke-width="3.2273" stroke-dasharray="6.45 6.45"/>
<path d="M32.0727 10.335L32.0167 12.4835L31.7565 12.4767L31.8054 10.6009L31.7929 10.6006L31.2592 10.9352L31.2661 10.6708L31.8126 10.3282L32.0727 10.335Z" fill="#FEFEFE"/>
<path d="M38.4885 11.1418C38.5724 11.1687 38.6516 11.211 38.726 11.2686C38.8003 11.3262 38.8609 11.4023 38.9077 11.4967C38.9547 11.5905 38.9798 11.7064 38.9829 11.8444C38.9861 11.9824 38.9583 12.1456 38.8996 12.334C38.8428 12.5163 38.7749 12.6729 38.6961 12.8037C38.6181 12.934 38.5316 13.0375 38.4366 13.1142C38.3423 13.191 38.2413 13.2401 38.1335 13.2615C38.0264 13.2831 37.915 13.2759 37.7995 13.2399C37.6846 13.2041 37.5891 13.1494 37.5131 13.0759C37.438 13.0019 37.3844 12.9152 37.3523 12.8158C37.3212 12.716 37.3144 12.6094 37.3321 12.4962L37.5766 12.5724C37.5693 12.6735 37.5888 12.7649 37.6351 12.8468C37.6823 12.9282 37.76 12.9857 37.8682 13.0194C38.0265 13.0688 38.1729 13.0386 38.3075 12.9288C38.4428 12.8193 38.5498 12.6383 38.6284 12.3858L38.6124 12.3808C38.5575 12.4252 38.498 12.4598 38.4339 12.4845C38.3698 12.5093 38.3029 12.5229 38.2332 12.5253C38.1636 12.5278 38.0933 12.518 38.0225 12.4959C37.905 12.4593 37.8061 12.3966 37.7261 12.3079C37.6469 12.2188 37.5938 12.1139 37.5669 11.9934C37.5408 11.8724 37.5484 11.7458 37.5896 11.6136C37.6287 11.488 37.6926 11.3819 37.7812 11.2951C37.8706 11.208 37.9761 11.1492 38.0977 11.119C38.2199 11.0889 38.3502 11.0965 38.4885 11.1418ZM38.4198 11.3622C38.3356 11.336 38.2533 11.3334 38.1727 11.3545C38.093 11.3751 38.0224 11.4146 37.9609 11.4732C37.9003 11.5312 37.8567 11.603 37.8301 11.6885C37.8034 11.774 37.7979 11.8576 37.8134 11.9394C37.8298 12.0208 37.8643 12.0923 37.9169 12.1542C37.9703 12.2155 38.0391 12.2593 38.1233 12.2855C38.1867 12.3053 38.2497 12.3114 38.3122 12.3037C38.3748 12.2954 38.4333 12.2759 38.4876 12.2452C38.5427 12.214 38.5907 12.1743 38.6313 12.1262C38.6722 12.0773 38.7021 12.0225 38.721 11.9618C38.746 11.8816 38.75 11.8004 38.7332 11.7182C38.7169 11.6362 38.6819 11.563 38.6279 11.4986C38.5747 11.4343 38.5053 11.3889 38.4198 11.3622Z" fill="#FEFEFE"/>
<path d="M43.8874 15.8425C43.7724 15.7653 43.6831 15.6767 43.6196 15.5767C43.5567 15.4772 43.5225 15.3745 43.5168 15.2687C43.5121 15.1628 43.5389 15.0615 43.597 14.9648L43.8166 15.1123C43.7826 15.1729 43.769 15.2358 43.7758 15.3011C43.7829 15.3657 43.807 15.4283 43.8482 15.4888C43.8893 15.5492 43.9441 15.6025 44.0126 15.6485C44.0893 15.7 44.1662 15.7323 44.2434 15.7454C44.3206 15.7585 44.392 15.7525 44.4577 15.7275C44.5234 15.7025 44.5773 15.6587 44.6194 15.5959C44.6635 15.5303 44.686 15.4616 44.6871 15.3898C44.6885 15.3174 44.6674 15.246 44.6238 15.1754C44.5802 15.1048 44.5131 15.0391 44.4225 14.9782L44.2796 14.8822L44.4083 14.6906L44.5512 14.7865C44.6221 14.8341 44.6928 14.8631 44.7634 14.8734C44.8345 14.8842 44.9008 14.8764 44.9622 14.8503C45.0242 14.8245 45.0763 14.7802 45.1184 14.7175C45.159 14.6571 45.181 14.5956 45.1843 14.5329C45.1876 14.4703 45.1733 14.41 45.1412 14.3523C45.1098 14.295 45.0613 14.2442 44.9957 14.2002C44.9341 14.1588 44.8684 14.1311 44.7986 14.1171C44.7298 14.1029 44.664 14.1055 44.6012 14.1248C44.5389 14.1436 44.4864 14.1817 44.4437 14.239L44.2346 14.0985C44.3009 14.0074 44.3841 13.9444 44.4841 13.9096C44.5846 13.8743 44.6907 13.8655 44.8026 13.8834C44.9151 13.9016 45.0228 13.9453 45.1256 14.0143C45.2359 14.0884 45.3155 14.1744 45.3645 14.2722C45.4138 14.3694 45.4353 14.4685 45.4289 14.5696C45.4226 14.6706 45.3911 14.7633 45.3345 14.8475C45.267 14.948 45.1831 15.0159 45.0826 15.0512C44.9828 15.087 44.8787 15.0883 44.7703 15.0551L44.7609 15.069C44.8611 15.1633 44.9169 15.2703 44.9283 15.3901C44.9402 15.5093 44.908 15.6255 44.8319 15.7387C44.7668 15.8357 44.6819 15.9051 44.5771 15.9468C44.4734 15.9884 44.3614 16.0008 44.2411 15.9841C44.1209 15.9673 44.0029 15.9202 43.8874 15.8425Z" fill="#FEFEFE"/>
<path d="M48.1003 19.3981C48.0084 19.2871 47.9468 19.1728 47.9156 19.0551C47.8853 18.9375 47.8853 18.8262 47.9155 18.7212C47.9463 18.6157 48.0066 18.5262 48.0964 18.4527C48.166 18.3941 48.242 18.3542 48.3245 18.3332C48.4075 18.3116 48.4891 18.3086 48.5691 18.324C48.6501 18.3395 48.721 18.373 48.7818 18.4244L48.7915 18.4164C48.7463 18.3202 48.7385 18.2204 48.7681 18.1168C48.7982 18.0128 48.8574 17.9247 48.9457 17.8525C49.0292 17.7823 49.122 17.7413 49.224 17.7295C49.326 17.7176 49.4273 17.7336 49.5281 17.7773C49.6293 17.8216 49.72 17.8922 49.8004 17.9891C49.8799 18.085 49.9317 18.1865 49.956 18.2936C49.9802 18.4008 49.9771 18.5033 49.9465 18.6013C49.9165 18.6999 49.8596 18.7842 49.776 18.8544C49.6878 18.9266 49.5895 18.9676 49.4813 18.9774C49.374 18.9872 49.278 18.9618 49.1933 18.9012L49.1836 18.9092C49.2224 18.978 49.2414 19.053 49.2407 19.1345C49.2406 19.2154 49.2225 19.295 49.1864 19.3731C49.1508 19.4507 49.0982 19.5189 49.0286 19.5774C48.9387 19.651 48.8389 19.6928 48.7291 19.7029C48.6204 19.7131 48.511 19.6924 48.4011 19.6409C48.2921 19.5894 48.1918 19.5085 48.1003 19.3981ZM48.2781 19.2508C48.3401 19.3256 48.4058 19.3802 48.4752 19.4145C48.5445 19.4489 48.6135 19.4625 48.6822 19.4556C48.751 19.4486 48.8152 19.4208 48.8749 19.3722C48.9369 19.3199 48.9788 19.258 49.0004 19.1865C49.022 19.115 49.0237 19.0403 49.0057 18.9626C48.988 18.8855 48.9502 18.8119 48.8922 18.7418C48.8337 18.6713 48.7677 18.6196 48.6943 18.5869C48.6213 18.5547 48.5476 18.5426 48.4733 18.5506C48.3995 18.559 48.3316 18.5895 48.2695 18.6418C48.2098 18.6903 48.1699 18.7475 48.1499 18.8132C48.1303 18.8794 48.1311 18.95 48.1524 19.0251C48.1737 19.1001 48.2156 19.1753 48.2781 19.2508ZM49.0635 18.5999C49.1126 18.6591 49.168 18.7018 49.2296 18.728C49.2917 18.7546 49.355 18.7636 49.4194 18.7547C49.4838 18.7458 49.5448 18.718 49.6024 18.6712C49.658 18.6242 49.6958 18.5706 49.7158 18.5104C49.7364 18.4497 49.739 18.3871 49.7237 18.3226C49.7089 18.2576 49.6763 18.1947 49.6259 18.1338C49.5745 18.0718 49.5181 18.0273 49.4565 18.0002C49.3955 17.9726 49.3335 17.9636 49.2705 17.9731C49.208 17.9821 49.149 18.0101 49.0934 18.0571C49.0359 18.1039 48.9966 18.1578 48.9754 18.219C48.9548 18.2806 48.9518 18.3444 48.9665 18.4104C48.9811 18.4764 49.0135 18.5395 49.0635 18.5999Z" fill="#FEFEFE"/>
<path d="M51.4522 23.8848L53.5789 24.0167L53.5943 24.0101L53.1565 22.992L53.3686 22.9008L53.9125 24.1657L53.6888 24.2618L51.56 24.1355L51.4522 23.8848Z" fill="#FEFEFE"/>
<path d="M53.8227 28.783L54.0052 28.7343L54.9384 29.2197C55.0478 29.2767 55.1418 29.3225 55.2206 29.3573C55.3 29.3918 55.3718 29.414 55.436 29.4236C55.501 29.4338 55.5652 29.4304 55.6288 29.4135C55.7018 29.394 55.7603 29.3596 55.8043 29.3102C55.8485 29.2615 55.8771 29.2032 55.8902 29.1352C55.9032 29.0673 55.8997 28.9959 55.8797 28.9208C55.8584 28.8411 55.8233 28.7758 55.7743 28.7252C55.7261 28.675 55.6683 28.6416 55.6009 28.6248C55.5336 28.6087 55.4604 28.6112 55.3813 28.6323L55.3175 28.393C55.4392 28.3606 55.5535 28.3601 55.6604 28.3917C55.7673 28.4233 55.8593 28.4806 55.9364 28.5635C56.0138 28.6472 56.0686 28.7495 56.1009 28.8705C56.1333 28.9922 56.1364 29.1069 56.1101 29.2145C56.0838 29.3222 56.0341 29.4144 55.9612 29.491C55.8882 29.5677 55.7983 29.6203 55.6915 29.6487C55.6151 29.6691 55.5367 29.6752 55.4563 29.6669C55.3768 29.6592 55.2834 29.6334 55.1761 29.5896C55.0697 29.5463 54.9368 29.4822 54.7773 29.3973L54.154 29.0639L54.1378 29.0683L54.3952 30.0336L54.1721 30.0931L53.8227 28.783Z" fill="#FEFEFE"/>
<path d="M54.8014 34.3386L55.0155 34.3371L56.5165 35.271L56.5176 35.4263L56.186 35.4287L56.1853 35.3237L55.0511 34.6181L55.0343 34.6182L55.0432 35.8901L54.8124 35.8917L54.8014 34.3386ZM54.3678 35.3533L54.8736 35.3498L54.9733 35.3491L56.517 35.3382L56.5188 35.5858L54.3696 35.601L54.3678 35.3533Z" fill="#FEFEFE"/>
<path d="M55.8842 41.6954C55.8507 41.7769 55.8023 41.8525 55.7389 41.922C55.6755 41.9915 55.5949 42.0459 55.497 42.085C55.3998 42.1243 55.2823 42.14 55.1444 42.1322C55.0066 42.1243 54.8461 42.0836 54.6631 42.0101C54.4858 41.9389 54.3352 41.8588 54.2111 41.7697C54.0874 41.6816 53.9912 41.5871 53.9223 41.4863C53.8532 41.3862 53.8123 41.2816 53.7996 41.1724C53.7867 41.0639 53.8027 40.9535 53.8478 40.8412C53.8927 40.7295 53.9548 40.6387 54.0342 40.5688C54.1139 40.4998 54.2046 40.4533 54.3062 40.4293C54.4082 40.4062 54.515 40.408 54.6264 40.4346L54.5309 40.6722C54.4308 40.6569 54.3381 40.669 54.2528 40.7087C54.1679 40.7492 54.1043 40.8221 54.0621 40.9272C54.0003 41.0811 54.0187 41.2295 54.1174 41.3724C54.2158 41.516 54.3877 41.6371 54.6331 41.7356L54.6393 41.7201C54.5994 41.6618 54.5697 41.5997 54.5501 41.5338C54.5306 41.4679 54.5224 41.4002 54.5255 41.3305C54.5286 41.2609 54.544 41.1917 54.5716 41.1229C54.6175 41.0086 54.6879 40.9151 54.7827 40.8424C54.8779 40.7705 54.9866 40.726 55.1089 40.7088C55.2316 40.6924 55.3572 40.7101 55.4857 40.7617C55.6078 40.8107 55.7085 40.8829 55.7878 40.9781C55.8676 41.0742 55.9177 41.1841 55.9382 41.3076C55.9584 41.4319 55.9404 41.5611 55.8842 41.6954ZM55.67 41.6093C55.7029 41.5275 55.712 41.4456 55.6974 41.3636C55.6833 41.2825 55.6495 41.209 55.596 41.1431C55.543 41.078 55.4749 41.0288 55.3918 40.9954C55.3087 40.9621 55.2258 40.9499 55.143 40.9588C55.0606 40.9687 54.9865 40.9974 54.9207 41.0448C54.8553 41.0932 54.8062 41.1583 54.7733 41.2401C54.7485 41.3018 54.7375 41.364 54.7401 41.4269C54.7434 41.4901 54.7582 41.5499 54.7845 41.6065C54.8112 41.6639 54.8469 41.7148 54.8916 41.7592C54.937 41.8038 54.9893 41.838 55.0484 41.8617C55.1263 41.893 55.2069 41.9036 55.2902 41.8933C55.3732 41.8837 55.449 41.8545 55.5175 41.8059C55.5858 41.7579 55.6366 41.6924 55.67 41.6093Z" fill="#FEFEFE"/>
<path d="M52.9131 47.4263L51.1898 46.1419L51.3453 45.9333L52.8498 47.0545L52.8573 47.0444L52.8915 46.4155L53.1036 46.5735L53.0686 47.2176L52.9131 47.4263Z" fill="#FEFEFE"/>
<path d="M43.7851 54.2629L44.3118 56.3275L44.3229 56.3402L45.1576 55.6112L45.3095 55.7851L44.2724 56.6908L44.1122 56.5074L43.5796 54.4424L43.7851 54.2629Z" fill="#FEFEFE"/>
<path d="M48.3575 50.9858L49.1454 52.9655L49.158 52.9766L49.892 52.1464L50.065 52.2993L49.153 53.3308L48.9706 53.1695L48.1767 51.1902L48.3575 50.9858Z" fill="#FEFEFE"/>
<path d="M38.8262 57.2148L38.8844 57.4208L38.3817 59.1157L38.2322 59.1579L38.1421 58.8387L38.2431 58.8102L38.6229 57.5296L38.6183 57.5134L37.3943 57.8591L37.3315 57.637L38.8262 57.2148ZM37.7328 57.0656L37.8703 57.5524L37.8974 57.6483L38.3171 59.1339L38.0787 59.2012L37.4945 57.1329L37.7328 57.0656Z" fill="#FEFEFE"/>
<path d="M31.7124 57.7367C31.8565 57.7388 31.9834 57.7663 32.0932 57.819C32.2023 57.8724 32.2869 57.9447 32.3471 58.0358C32.4073 58.1277 32.4362 58.2317 32.4338 58.3478C32.4331 58.4387 32.4141 58.5224 32.3765 58.5988C32.339 58.6759 32.2884 58.7399 32.2246 58.7907C32.1602 58.8422 32.0887 58.8744 32.0101 58.8872L32.01 58.8998C32.1124 58.9279 32.1934 58.9869 32.2529 59.0766C32.3124 59.1671 32.341 59.2693 32.3386 59.3833C32.3377 59.4925 32.3086 59.5896 32.2514 59.6748C32.1941 59.7601 32.1162 59.8268 32.0175 59.875C31.9181 59.9232 31.8055 59.9463 31.6795 59.9445C31.555 59.9426 31.4442 59.9161 31.347 59.865C31.2498 59.8139 31.1738 59.7449 31.1191 59.658C31.0638 59.5711 31.0365 59.4731 31.0375 59.364C31.0398 59.2499 31.0725 59.1486 31.1354 59.06C31.1976 58.9721 31.2792 58.9155 31.3804 58.8905L31.3805 58.8779C31.3031 58.8627 31.2336 58.8285 31.1722 58.7751C31.1107 58.7224 31.062 58.6569 31.026 58.5787C30.9901 58.5012 30.9725 58.417 30.9731 58.326C30.9756 58.2099 31.0086 58.1069 31.0722 58.0168C31.1351 57.9275 31.2219 57.8578 31.3325 57.8077C31.4423 57.7582 31.569 57.7346 31.7124 57.7367ZM31.709 57.9675C31.6117 57.9661 31.5275 57.9806 31.4564 58.011C31.3853 58.0414 31.3301 58.0851 31.2907 58.1418C31.2514 58.1986 31.2308 58.2655 31.229 58.3424C31.2285 58.4236 31.2484 58.4956 31.2887 58.5585C31.3291 58.6214 31.3847 58.6712 31.4555 58.7079C31.5256 58.7446 31.6062 58.7637 31.6971 58.765C31.7887 58.7664 31.8708 58.7498 31.9434 58.7152C32.0153 58.6806 32.0724 58.6324 32.1146 58.5708C32.1561 58.5091 32.1771 58.4377 32.1776 58.3566C32.1794 58.2796 32.1619 58.2122 32.125 58.1543C32.0873 58.0963 32.0331 58.0511 31.9622 58.0185C31.8913 57.986 31.8069 57.969 31.709 57.9675ZM31.6938 58.9875C31.6168 58.9863 31.5484 59.0007 31.4885 59.0306C31.4279 59.0605 31.38 59.1028 31.3449 59.1576C31.3098 59.2123 31.2913 59.2768 31.2895 59.3509C31.2892 59.4237 31.3054 59.4872 31.3381 59.5416C31.3709 59.5967 31.4168 59.6393 31.4758 59.6696C31.5348 59.7006 31.6039 59.7166 31.6829 59.7178C31.7634 59.719 31.8339 59.705 31.8945 59.6758C31.9551 59.6473 32.0022 59.6061 32.0359 59.552C32.0696 59.4986 32.0866 59.4355 32.087 59.3628C32.0888 59.2886 32.0734 59.2237 32.0406 59.1679C32.0071 59.1121 31.9606 59.0684 31.9009 59.0367C31.8412 59.0051 31.7721 58.9887 31.6938 58.9875Z" fill="#FEFEFE"/>
<path d="M26.1517 57.2383C26.2692 57.275 26.3678 57.3315 26.4473 57.4076C26.5269 57.4838 26.5823 57.5715 26.6136 57.6707C26.6449 57.7699 26.647 57.8724 26.6197 57.9783L26.3793 57.9032C26.399 57.8074 26.3809 57.7175 26.3251 57.6333C26.2684 57.5497 26.1877 57.4914 26.0828 57.4587C25.9987 57.4324 25.9178 57.4287 25.84 57.4477C25.7616 57.4664 25.6929 57.5043 25.634 57.5614C25.5743 57.619 25.5307 57.6915 25.5034 57.779C25.4754 57.8684 25.4702 57.9544 25.4877 58.0368C25.5043 58.1197 25.5403 58.1922 25.5957 58.2542C25.651 58.3162 25.7224 58.3612 25.8096 58.3892C25.8722 58.4095 25.9397 58.42 26.012 58.4206C26.0842 58.4219 26.1465 58.4138 26.1988 58.3965L26.4224 58.4971L25.9827 59.468L24.9169 59.135L24.9858 58.9146L25.8432 59.1825L26.1044 58.6001L26.0924 58.5963C26.0399 58.6166 25.9785 58.6278 25.9081 58.63C25.8378 58.6322 25.7682 58.6226 25.6995 58.6011C25.5739 58.5618 25.4715 58.4968 25.3921 58.4061C25.3118 58.3158 25.2598 58.2101 25.2361 58.089C25.2116 57.9678 25.2202 57.8407 25.2617 57.7078C25.3026 57.577 25.3685 57.4693 25.4594 57.3848C25.5495 57.3008 25.6548 57.245 25.7756 57.2175C25.8961 57.1907 26.0215 57.1976 26.1517 57.2383Z" fill="#FEFEFE"/>
<path d="M18.9412 56.4761L20.1135 54.6747L20.3316 54.8167L19.3081 56.3894L19.3187 56.3963L19.9485 56.3905L19.8043 56.6121L19.1593 56.6181L18.9412 56.4761Z" fill="#FEFEFE"/>
<path d="M15.566 50.9855C15.6474 51.0779 15.7023 51.1773 15.7307 51.2837C15.7591 51.3901 15.7609 51.4939 15.7361 51.5949C15.7114 51.6959 15.6598 51.7846 15.5816 51.8609L15.4152 51.6719C15.4817 51.6002 15.513 51.514 15.509 51.4131C15.5041 51.3122 15.4653 51.2205 15.3927 51.138C15.3345 51.0718 15.2672 51.0267 15.1909 51.0025C15.1142 50.9778 15.0358 50.9745 14.9558 50.9927C14.8749 51.0108 14.8 51.0502 14.7312 51.1107C14.6608 51.1727 14.6117 51.2434 14.5838 51.3229C14.555 51.4024 14.5481 51.483 14.5632 51.5648C14.5783 51.6465 14.6159 51.7221 14.6759 51.7913C14.7188 51.8411 14.7711 51.8851 14.8326 51.9232C14.8936 51.9618 14.951 51.9873 15.0047 51.9996L15.1435 52.2018L14.2635 52.8031L13.5257 51.9649L13.699 51.8124L14.2926 52.4867L14.8183 52.1246L14.81 52.1151C14.7546 52.1052 14.6963 52.0828 14.635 52.0482C14.5738 52.0136 14.5193 51.9692 14.4717 51.9151C14.3848 51.8164 14.331 51.7076 14.3103 51.5888C14.2887 51.47 14.2991 51.3526 14.3417 51.2369C14.3838 51.1206 14.4571 51.0164 14.5616 50.9245C14.6645 50.8339 14.7768 50.7761 14.8983 50.7511C15.0189 50.7261 15.1379 50.7331 15.2554 50.7724C15.3723 50.812 15.4759 50.8831 15.566 50.9855Z" fill="#FEFEFE"/>
<path d="M12.3407 46.2375C12.4127 46.3373 12.4577 46.4416 12.4756 46.5503C12.4936 46.6589 12.4854 46.7623 12.4509 46.8605C12.4164 46.9587 12.3566 47.0419 12.2713 47.1103L12.124 46.906C12.1972 46.8412 12.2367 46.7584 12.2425 46.6576C12.2473 46.5566 12.2176 46.4616 12.1534 46.3725C12.1019 46.301 12.0393 46.2495 11.9657 46.218C11.8917 46.186 11.814 46.1751 11.7327 46.1855C11.6503 46.1957 11.572 46.2276 11.4976 46.2812C11.4216 46.336 11.3658 46.4016 11.3304 46.4781C11.294 46.5544 11.2793 46.6339 11.2864 46.7168C11.2935 46.7996 11.3236 46.8784 11.3767 46.9532C11.4145 47.0069 11.4623 47.0558 11.5198 47.0997C11.5768 47.144 11.6314 47.1749 11.6837 47.1924L11.8022 47.4071L10.868 47.9202L10.215 47.0144L10.4023 46.8794L10.9277 47.6081L11.486 47.2987L11.4787 47.2885C11.4245 47.2732 11.3686 47.2453 11.311 47.2049C11.2534 47.1645 11.2036 47.1151 11.1614 47.0566C11.0845 46.9499 11.0415 46.8364 11.0324 46.7162C11.0224 46.5958 11.0442 46.48 11.0978 46.369C11.1509 46.2573 11.234 46.1608 11.3469 46.0793C11.4582 45.9991 11.5755 45.9525 11.6989 45.9394C11.8213 45.9262 11.9391 45.9448 12.0522 45.9952C12.1647 46.046 12.2609 46.1268 12.3407 46.2375Z" fill="#FEFEFE"/>
<path d="M9.98191 41.0152C10.0402 41.1409 10.0706 41.2629 10.073 41.3813C10.0752 41.4991 10.0513 41.6046 10.0013 41.698C9.95032 41.791 9.87493 41.8638 9.7751 41.9163L9.66384 41.6763C9.72432 41.6421 9.76858 41.5954 9.79661 41.5361C9.82402 41.4771 9.83582 41.4111 9.83202 41.3381C9.82822 41.265 9.80896 41.1911 9.77422 41.1162C9.73537 41.0324 9.68633 40.9649 9.62711 40.9137C9.56789 40.8625 9.50373 40.8306 9.43461 40.8179C9.36549 40.8052 9.29666 40.8148 9.22811 40.8466C9.15639 40.8798 9.10148 40.9269 9.06338 40.9877C9.02465 41.0489 9.00562 41.1209 9.00631 41.2039C9.007 41.2869 9.03031 41.3779 9.07622 41.4769L9.14863 41.633L8.93918 41.7302L8.86677 41.574C8.83086 41.4966 8.78541 41.4352 8.7304 41.3897C8.6751 41.3436 8.61441 41.3159 8.54833 41.3064C8.48195 41.2963 8.41449 41.3072 8.34594 41.339C8.27993 41.3696 8.22926 41.4108 8.19393 41.4627C8.1586 41.5145 8.13965 41.5734 8.13708 41.6394C8.13422 41.7048 8.14942 41.7733 8.18268 41.845C8.21389 41.9123 8.2557 41.97 8.30812 42.0182C8.35961 42.066 8.41721 42.0979 8.48091 42.1139C8.54397 42.1301 8.60861 42.1249 8.67482 42.098L8.78078 42.3265C8.67683 42.3701 8.57306 42.3808 8.46948 42.3587C8.36526 42.3368 8.26994 42.2892 8.18351 42.216C8.09679 42.142 8.02738 42.0489 7.97528 41.9366C7.91935 41.816 7.89581 41.7012 7.90465 41.5922C7.91285 41.4835 7.94588 41.3876 8.00373 41.3045C8.06158 41.2214 8.13652 41.1584 8.22855 41.1158C8.33835 41.0648 8.44536 41.0503 8.54958 41.0722C8.65351 41.0934 8.7432 41.1462 8.81865 41.2308L8.83388 41.2237C8.79709 41.0912 8.80486 40.9707 8.85719 40.8624C8.90889 40.7544 8.99662 40.6717 9.12038 40.6143C9.22638 40.5651 9.33497 40.5498 9.44617 40.5684C9.55644 40.5867 9.65866 40.6342 9.75281 40.7108C9.84697 40.7874 9.92333 40.8889 9.98191 41.0152Z" fill="#FEFEFE"/>
<path d="M9.26498 35.2344C9.28574 35.377 9.27882 35.5067 9.24421 35.6235C9.2088 35.7396 9.15087 35.8347 9.07043 35.9086C8.9893 35.9826 8.89122 36.0276 8.77619 36.0437C8.68629 36.0575 8.60064 36.0519 8.51925 36.027C8.43716 36.0022 8.36596 35.9624 8.30565 35.9075C8.24456 35.8521 8.20144 35.7866 8.17631 35.7111L8.16384 35.7129C8.15235 35.8185 8.10703 35.9078 8.02787 35.9808C7.94802 36.054 7.85162 36.0984 7.73867 36.1141C7.63077 36.1306 7.53021 36.1173 7.43699 36.0743C7.34377 36.0313 7.26553 35.9649 7.20226 35.8751C7.13889 35.7847 7.09814 35.6771 7.07999 35.5525C7.06205 35.4293 7.0706 35.3156 7.10565 35.2115C7.14069 35.1075 7.19676 35.0215 7.27385 34.9537C7.35084 34.8853 7.44329 34.8428 7.55119 34.8264C7.66414 34.8107 7.76936 34.8268 7.86685 34.8748C7.96355 34.9223 8.0323 34.9939 8.07313 35.0898L8.08559 35.088C8.08825 35.0091 8.11105 34.9351 8.15401 34.8659C8.19627 34.7968 8.25315 34.7383 8.32466 34.6905C8.39547 34.6427 8.47583 34.6119 8.56573 34.5981C8.68076 34.5821 8.78776 34.5983 8.88673 34.6468C8.98491 34.6947 9.06753 34.7693 9.13459 34.8705C9.20085 34.9712 9.24432 35.0925 9.26498 35.2344ZM9.03651 35.2677C9.0225 35.1714 8.99483 35.0906 8.95349 35.0252C8.91216 34.9598 8.86033 34.9122 8.79802 34.8824C8.7357 34.8526 8.66642 34.8429 8.59016 34.8533C8.50995 34.8657 8.44201 34.8968 8.38634 34.9466C8.33067 34.9964 8.29032 35.0592 8.2653 35.135C8.24017 35.21 8.23415 35.2926 8.24726 35.3826C8.26046 35.4733 8.28991 35.5517 8.3356 35.6179C8.38119 35.6834 8.43777 35.732 8.50533 35.7639C8.5728 35.7951 8.64663 35.8045 8.72684 35.7921C8.8031 35.7817 8.86689 35.7537 8.91822 35.708C8.96945 35.6617 9.0055 35.6009 9.02637 35.5258C9.04724 35.4506 9.05062 35.3646 9.03651 35.2677ZM8.0271 35.4146C8.01601 35.3385 7.99095 35.2732 7.95192 35.2188C7.91279 35.1637 7.86341 35.1231 7.80378 35.0972C7.74414 35.0712 7.67758 35.0632 7.6041 35.0732C7.53219 35.0844 7.47201 35.1105 7.42354 35.1515C7.37437 35.1926 7.33954 35.2447 7.31903 35.3077C7.29782 35.3709 7.29292 35.4416 7.30431 35.5199C7.3159 35.5995 7.34091 35.6669 7.37935 35.7221C7.4171 35.7774 7.46534 35.8174 7.52408 35.8421C7.58213 35.8669 7.6471 35.8737 7.719 35.8625C7.79249 35.8525 7.85416 35.8269 7.90402 35.7857C7.95377 35.7438 7.98955 35.6909 8.01134 35.6269C8.03313 35.5629 8.03839 35.4922 8.0271 35.4146Z" fill="#FEFEFE"/>
<path d="M10.0246 29.9334L9.83758 29.9065L9.16988 29.0937C9.0917 28.9984 9.02321 28.9193 8.9644 28.8564C8.90489 28.7934 8.84755 28.7449 8.79237 28.7108C8.7366 28.6759 8.67617 28.6538 8.61107 28.6444C8.53628 28.6337 8.46894 28.6424 8.40906 28.6705C8.34927 28.6979 8.30006 28.7403 8.26142 28.7977C8.22278 28.855 8.19793 28.9222 8.18688 28.999C8.17513 29.0807 8.18184 29.1545 8.20701 29.2203C8.23158 29.2854 8.2716 29.3388 8.32707 29.3807C8.38264 29.4219 8.45094 29.4484 8.53196 29.46L8.49671 29.7052C8.37206 29.6872 8.26677 29.6428 8.18086 29.5717C8.09494 29.5007 8.03279 29.4119 7.9944 29.3053C7.95611 29.198 7.94588 29.0824 7.9637 28.9585C7.98163 28.8338 8.02382 28.7271 8.0903 28.6384C8.15677 28.5498 8.2386 28.4845 8.3358 28.4426C8.433 28.4008 8.53631 28.3877 8.64573 28.4034C8.72398 28.4147 8.79846 28.4399 8.86917 28.479C8.93928 28.5174 9.01507 28.5778 9.09652 28.6601C9.17738 28.7417 9.27449 28.8529 9.38784 28.9936L9.8302 29.5449L9.84682 29.5473L9.98902 28.5584L10.2175 28.5913L10.0246 29.9334Z" fill="#FEFEFE"/>
<path d="M12.5944 23.9179C12.5429 24.0297 12.4743 24.1202 12.3885 24.1893C12.3028 24.2584 12.2087 24.3022 12.1063 24.3205C12.0039 24.3388 11.9019 24.3277 11.8005 24.2871L11.9058 24.0583C11.9982 24.0901 12.0898 24.0837 12.1804 24.0392C12.2706 23.9937 12.3387 23.9211 12.3847 23.8213C12.4216 23.7412 12.4356 23.6614 12.4268 23.5819C12.4182 23.5017 12.3894 23.4288 12.3404 23.363C12.291 23.2964 12.2246 23.2439 12.1414 23.2055C12.0562 23.1663 11.9717 23.1501 11.8877 23.1569C11.8033 23.1627 11.7269 23.1891 11.6583 23.2361C11.5896 23.283 11.5358 23.348 11.4969 23.431C11.4687 23.4904 11.4497 23.556 11.4398 23.6277C11.4293 23.6991 11.4292 23.7618 11.4397 23.816L11.3112 24.0248L10.4048 23.4641L10.8718 22.4499L11.0816 22.5465L10.7058 23.3624L11.2499 23.6962L11.2552 23.6848C11.2419 23.6301 11.2386 23.5678 11.2455 23.4977C11.2523 23.4277 11.2708 23.36 11.3009 23.2945C11.3559 23.175 11.4335 23.0818 11.5338 23.0147C11.6336 22.9467 11.7451 22.9087 11.8682 22.9006C11.9916 22.892 12.1165 22.9168 12.2429 22.975C12.3675 23.0324 12.4658 23.1115 12.5379 23.2125C12.6097 23.3126 12.6515 23.4243 12.6633 23.5475C12.6744 23.6705 12.6515 23.794 12.5944 23.9179Z" fill="#FEFEFE"/>
<path d="M15.1473 19.5283L14.9863 19.3872L14.4852 17.6919L14.5876 17.5751L14.8369 17.7937L14.7678 17.8726L15.1465 19.1536L15.1591 19.1646L15.9975 18.2082L16.1711 18.3604L15.1473 19.5283ZM16.1456 19.0581L15.7653 18.7247L15.6903 18.659L14.5294 17.6414L14.6927 17.4551L16.3089 18.8719L16.1456 19.0581Z" fill="#FEFEFE"/>
<path d="M20.0843 16.1676L19.9836 16.0078L20.1699 14.9726C20.1918 14.8513 20.2077 14.7478 20.2175 14.6623C20.2269 14.5762 20.2267 14.501 20.2169 14.4369C20.2073 14.3718 20.185 14.3115 20.1499 14.2558C20.1096 14.1919 20.0594 14.1463 19.9991 14.1189C19.9395 14.0912 19.8753 14.0812 19.8066 14.0889C19.7379 14.0966 19.6707 14.1212 19.6049 14.1626C19.5351 14.2066 19.4833 14.2595 19.4495 14.3213C19.4159 14.3822 19.4011 14.4473 19.4051 14.5167C19.4097 14.5858 19.4339 14.6549 19.4775 14.7242L19.268 14.8562C19.2008 14.7496 19.1665 14.6406 19.1649 14.5292C19.1633 14.4177 19.1906 14.3128 19.2469 14.2145C19.3038 14.1158 19.3853 14.0331 19.4912 13.9663C19.5978 13.8992 19.7063 13.8622 19.817 13.8554C19.9276 13.8485 20.0303 13.8685 20.1252 13.9154C20.2201 13.9623 20.297 14.0325 20.3559 14.1261C20.3981 14.1929 20.4271 14.266 20.4431 14.3452C20.4594 14.4235 20.4625 14.5203 20.4525 14.6357C20.4428 14.7502 20.4211 14.8962 20.3874 15.0737L20.2542 15.7679L20.2631 15.7821L21.1084 15.2495L21.2315 15.4449L20.0843 16.1676Z" fill="#FEFEFE"/>
<path d="M24.3206 11.489C24.4057 11.466 24.4951 11.4585 24.5889 11.4665C24.6826 11.4745 24.7748 11.5055 24.8653 11.5594C24.9557 11.6126 25.0397 11.6963 25.1173 11.8105C25.1949 11.9247 25.2602 12.0768 25.3132 12.2668C25.3645 12.4508 25.3926 12.6191 25.3974 12.7718C25.4026 12.9235 25.3862 13.0574 25.3481 13.1734C25.3107 13.2891 25.2525 13.3852 25.1736 13.4617C25.0953 13.538 24.9979 13.5924 24.8814 13.6249C24.7654 13.6572 24.6556 13.6632 24.5518 13.6427C24.4486 13.6214 24.3565 13.5777 24.2756 13.5117C24.1952 13.4447 24.1317 13.3589 24.0851 13.2543L24.3317 13.1855C24.3805 13.2743 24.4465 13.3405 24.5298 13.3841C24.6137 13.4268 24.7102 13.433 24.8193 13.4025C24.9791 13.358 25.0856 13.2531 25.139 13.0878C25.1931 12.9224 25.1847 12.7123 25.1136 12.4576L25.0975 12.4621C25.0755 12.5292 25.0443 12.5906 25.0039 12.6462C24.9635 12.7017 24.9147 12.7495 24.8575 12.7894C24.8004 12.8293 24.7361 12.8592 24.6647 12.8791C24.5461 12.9122 24.429 12.9132 24.3136 12.8822C24.1987 12.8504 24.0972 12.7911 24.0091 12.7046C23.9216 12.6171 23.8592 12.5067 23.822 12.3733C23.7866 12.2466 23.7826 12.1228 23.8099 12.0019C23.8377 11.8801 23.8944 11.7735 23.98 11.682C24.0663 11.5904 24.1798 11.5261 24.3206 11.489ZM24.3826 11.7114C24.2977 11.7351 24.2271 11.7776 24.1709 11.8391C24.1152 11.8997 24.0774 11.9712 24.0575 12.0537C24.0382 12.1354 24.0405 12.2194 24.0646 12.3056C24.0886 12.3919 24.1294 12.4651 24.1869 12.5254C24.2448 12.5847 24.3127 12.6261 24.3903 12.6495C24.4685 12.672 24.5501 12.6714 24.635 12.6477C24.699 12.6299 24.7552 12.6008 24.8035 12.5604C24.8516 12.5194 24.8901 12.4712 24.919 12.416C24.9484 12.3599 24.9671 12.3005 24.9751 12.238C24.9829 12.1748 24.9782 12.1126 24.9611 12.0512C24.9386 11.9704 24.8979 11.9 24.839 11.8402C24.7809 11.7801 24.7117 11.7377 24.6314 11.7128C24.5518 11.6878 24.4689 11.6874 24.3826 11.7114Z" fill="#FEFEFE"/>
<path d="M24.5673 21.1827C24.9956 21.2106 25.3396 21.3475 25.6502 21.6455C25.932 21.9766 26.1082 22.3281 26.1231 22.7671C26.0942 23.011 26.0606 23.2606 25.9354 23.475C26.279 23.7671 26.6551 23.9978 27.0394 24.2311C27.1956 24.326 27.3515 24.4215 27.5074 24.517C27.5865 24.5653 27.6655 24.6137 27.7446 24.662C28.0852 24.8703 28.4239 25.0814 28.762 25.2938C28.8682 25.3605 28.9745 25.4272 29.0808 25.494C29.1333 25.5269 29.1858 25.5599 29.2399 25.5939C29.5294 25.7754 29.8194 25.9559 30.1094 26.1365C30.1982 26.1919 30.1982 26.1919 30.2889 26.2484C30.409 26.3232 30.529 26.3979 30.6491 26.4727C30.8875 26.6212 31.1259 26.7697 31.3643 26.9183C31.4823 26.9918 31.6002 27.0653 31.7182 27.1388C31.995 27.3113 32.2718 27.4838 32.5484 27.6566C32.6781 27.7377 32.8079 27.8186 32.9376 27.8996C33.0284 27.9563 33.1192 28.0131 33.2099 28.0699C33.3668 28.1678 33.5241 28.2651 33.6815 28.3623C33.723 28.3884 33.7646 28.4145 33.8074 28.4414C34.0726 28.604 34.2395 28.6497 34.5401 28.5815C34.8453 28.4828 35.0088 28.3186 35.164 28.0437C35.2292 27.8604 35.2705 27.6746 35.3107 27.4845C35.3343 27.3801 35.358 27.2758 35.3818 27.1715C35.3929 27.1216 35.404 27.0717 35.4154 27.0202C35.4531 26.8539 35.4962 26.6895 35.5412 26.525C35.6211 26.2289 35.6947 25.9314 35.7673 25.6334C35.8539 25.2785 35.944 24.9248 36.0389 24.572C36.1025 24.3289 36.162 24.085 36.2216 23.8409C36.3635 23.2601 36.5126 22.682 36.6828 22.1088C36.6445 22.0829 36.6061 22.057 36.5665 22.0304C36.3042 21.799 36.114 21.5418 36.0618 21.1897C36.0442 20.8984 36.1263 20.6535 36.2907 20.4142C36.5353 20.2125 36.7743 20.0429 37.0909 19.9969C37.5136 20.0742 37.7954 20.1719 38.0667 20.5135C38.2277 20.8134 38.2983 21.0613 38.2086 21.3962C38.1108 21.6759 37.9857 21.8409 37.757 22.0274C37.7226 22.0555 37.6882 22.0836 37.6527 22.1126C37.6264 22.134 37.6001 22.1553 37.573 22.1773C37.6054 22.246 37.6054 22.246 37.6384 22.316C38.1631 23.4282 38.6875 24.5404 39.2118 25.6527C39.4653 26.1907 39.7189 26.7285 39.9726 27.2663C40.1937 27.7349 40.4146 28.2036 40.6355 28.6723C40.7525 28.9207 40.8695 29.169 40.9867 29.4172C41.0969 29.6506 41.2069 29.8841 41.3169 30.1176C41.3573 30.2035 41.3978 30.2894 41.4384 30.3753C41.4936 30.4921 41.5487 30.609 41.6036 30.7259C41.628 30.7774 41.628 30.7774 41.6529 30.8298C41.7628 31.0646 41.7628 31.0646 41.7784 31.1993C41.6682 31.3423 41.5282 31.4435 41.3845 31.551C41.3101 31.6068 41.3101 31.6068 41.2342 31.6637C41.18 31.7041 41.1258 31.7444 41.07 31.786C41.0133 31.8284 40.9565 31.8708 40.8981 31.9145C40.1805 32.4505 39.4599 32.9823 38.7376 33.5117C38.6838 33.5512 38.63 33.5906 38.5746 33.6312C35.4311 35.9314 32.1288 38.0814 28.7583 40.0335C28.7263 40.0521 28.6943 40.0706 28.6613 40.0897C27.8582 40.5548 27.0532 41.0164 26.2458 41.4741C26.1874 41.5073 26.1289 41.5406 26.0687 41.5749C26.0147 41.6054 25.9607 41.6358 25.9051 41.6673C25.8583 41.6938 25.8115 41.7203 25.7632 41.7476C25.636 41.8145 25.5085 41.8692 25.3741 41.92C25.0316 41.6002 24.7281 41.248 24.4216 40.8942C24.3622 40.8259 24.3028 40.7576 24.2434 40.6893C24.083 40.5048 23.9228 40.3202 23.7626 40.1354C23.6286 39.981 23.4946 39.8267 23.3605 39.6724C23.0443 39.3084 22.7283 38.9442 22.4124 38.58C22.0867 38.2045 21.7608 37.8292 21.4347 37.454C21.1544 37.1314 20.8742 36.8087 20.5941 36.4858C20.4269 36.2932 20.2598 36.1007 20.0925 35.9082C19.9353 35.7274 19.7783 35.5464 19.6214 35.3653C19.5639 35.2989 19.5063 35.2326 19.4486 35.1663C19.3698 35.0758 19.2912 34.985 19.2127 34.8943C19.1687 34.8436 19.1247 34.7929 19.0794 34.7406C18.9706 34.6073 18.8763 34.4716 18.7852 34.3257C18.7399 34.361 18.7399 34.361 18.6936 34.397C18.4298 34.5879 18.2275 34.7041 17.8968 34.6851C17.6033 34.6354 17.3957 34.5532 17.1975 34.3247C17.0217 34.0725 16.8872 33.8541 16.9052 33.5385C16.9845 33.16 17.0828 32.9581 17.4098 32.7372C17.6772 32.5675 17.8665 32.4814 18.1864 32.5485C18.532 32.6404 18.6787 32.7556 18.8761 33.0592C18.9269 33.1366 18.9269 33.1366 18.9787 33.2155C19.0658 33.362 19.0658 33.362 19.0952 33.482C19.1338 33.5899 19.1338 33.5899 19.2748 33.623C19.3601 33.638 19.3601 33.638 19.4472 33.6533C19.5029 33.6636 19.5585 33.674 19.6158 33.6846C19.7735 33.7092 19.9311 33.732 20.0892 33.7537C20.3934 33.796 20.6951 33.8492 20.9972 33.9043C21.4332 33.9829 21.8693 34.0585 22.3065 34.1295C22.5301 34.1658 22.7534 34.203 22.9768 34.2404C23.0352 34.2502 23.0352 34.2502 23.0949 34.2602C23.3113 34.2965 23.5274 34.3341 23.7434 34.373C24.7956 34.6325 24.7956 34.6325 25.7791 34.3858C25.9765 34.2258 26.0415 34.0524 26.0833 33.8073C26.1079 33.5665 26.0797 33.345 26.0413 33.1071C26.0312 33.04 26.0312 33.04 26.0209 32.9715C25.9986 32.8247 25.9756 32.678 25.9526 32.5314C25.9368 32.4277 25.921 32.3241 25.9052 32.2205C25.8727 32.0066 25.8399 31.7928 25.8069 31.5791C25.7616 31.2852 25.7174 30.9911 25.6738 30.6969C25.6671 30.6516 25.6604 30.6064 25.6535 30.5598C25.64 30.4693 25.6266 30.3787 25.6132 30.2882C25.5275 29.7105 25.4407 29.1329 25.3531 28.5555C25.3467 28.5131 25.3403 28.4708 25.3337 28.4272C25.3016 28.2154 25.2694 28.0036 25.2372 27.7918C25.1652 27.3181 25.0951 26.8441 25.0267 26.3698C25.0113 26.2635 24.9959 26.1572 24.9804 26.0509C24.9508 25.8466 24.9216 25.6422 24.8926 25.4378C24.879 25.3444 24.8655 25.251 24.8519 25.1575C24.8431 25.0945 24.8431 25.0945 24.8342 25.0301C24.7974 24.7796 24.7405 24.5488 24.6595 24.3089C24.5941 24.3114 24.5287 24.3139 24.4613 24.3165C24.0974 24.3031 23.7675 24.129 23.4856 23.9056C23.2037 23.5455 23.0087 23.201 22.9829 22.7384C23.0083 22.5348 23.0083 22.5348 23.0618 22.3617C23.0827 22.2796 23.0827 22.2796 23.1039 22.196C23.3487 21.5881 23.9144 21.2097 24.5673 21.1827ZM29.8079 32.5845C29.7164 33.4544 30.1832 34.2664 30.6923 34.9329C31.028 35.3192 31.4184 35.5874 31.8924 35.7743C31.9473 35.7987 32.0022 35.8232 32.0588 35.8484C32.4051 35.921 32.7221 35.9005 33.03 35.7177C33.339 35.488 33.4772 35.2255 33.5438 34.8495C33.6376 33.9238 33.2407 33.1097 32.6782 32.3994C32.2135 31.8722 31.6496 31.4971 30.9442 31.421C30.2231 31.3958 29.9242 31.9591 29.8079 32.5845ZM25.2507 37.2535C25.228 37.7005 25.382 38.0135 25.6483 38.3594C26.0235 38.7561 26.5531 39.1649 27.1161 39.1945C27.497 39.2007 27.7379 39.1893 28.0436 38.9399C28.2081 38.6912 28.2329 38.4459 28.1961 38.1534C27.9442 37.4923 27.4446 37.0641 26.8099 36.7762C26.4544 36.65 26.0923 36.5862 25.724 36.6841C25.446 36.8254 25.3365 36.953 25.2507 37.2535ZM36.5146 30.1849C36.4536 30.8204 36.5991 31.5388 36.9996 32.0464C37.2512 32.2852 37.4975 32.4605 37.8543 32.4836C38.1272 32.4044 38.326 32.2596 38.4813 32.025C38.7534 31.5043 38.7104 30.9021 38.5649 30.351C38.427 29.9613 38.1923 29.5328 37.8305 29.3127C37.728 29.264 37.728 29.264 37.6293 29.2288C37.58 29.2087 37.5306 29.1886 37.4798 29.168C36.9035 29.1591 36.6116 29.6753 36.5146 30.1849Z" fill="#E30808"/>
<path d="M26.4237 44.0387C26.463 44.0162 26.5023 43.9936 26.5428 43.9704C27.0051 43.7065 27.4734 43.4536 27.9413 43.2C28.7539 42.7592 29.5631 42.3135 30.3614 41.8471C30.3951 41.8275 30.4288 41.8078 30.4636 41.7875C30.6729 41.6653 30.8814 41.5417 31.0894 41.4172C31.1776 41.3645 31.2658 41.312 31.3541 41.2595C32.484 40.5877 33.5845 39.8717 34.6844 39.152C34.7552 39.1057 34.7552 39.1057 34.8274 39.0584C37.5917 37.2506 40.2943 35.3509 42.8849 33.2999C43.6192 32.7214 43.6192 32.7214 44.0364 32.7028C44.3206 32.7497 44.5552 32.8174 44.7324 33.0573C44.7616 33.1013 44.7908 33.1453 44.8209 33.1906C44.8541 33.2405 44.8874 33.2904 44.9216 33.3419C44.9751 33.423 44.9751 33.423 45.0297 33.5059C45.0664 33.5615 45.1031 33.6171 45.1409 33.6744C45.2186 33.7923 45.2961 33.9103 45.3735 34.0284C45.492 34.2087 45.6114 34.3884 45.7309 34.568C45.8062 34.6826 45.8815 34.7972 45.9567 34.9119C45.9925 34.9655 46.0283 35.0191 46.0653 35.0744C46.2683 35.3868 46.3834 35.6085 46.3527 35.9895C46.2577 36.3634 46.0413 36.5534 45.7522 36.796C45.7116 36.8315 45.671 36.8671 45.6291 36.9037C45.1011 37.3616 44.5558 37.8 44.0159 38.2437C44.0574 38.2168 44.0988 38.1899 44.1416 38.1622C44.5323 37.9094 44.9235 37.6574 45.3154 37.4063C45.5169 37.2773 45.7181 37.1478 45.9189 37.0176C46.1126 36.892 46.3068 36.7673 46.5014 36.6432C46.5757 36.5957 46.6497 36.5478 46.7235 36.4997C46.8268 36.4323 46.9308 36.3661 47.035 36.3001C47.094 36.2621 47.1531 36.2241 47.2139 36.1849C47.3721 36.1153 47.3721 36.1153 47.5167 36.1424C47.6279 36.2082 47.6279 36.2082 47.6975 36.3334C47.7312 36.4659 47.7312 36.4659 47.6997 36.6166C47.5692 36.7183 47.5692 36.7183 47.3876 36.8372C47.3543 36.8592 47.3209 36.8813 47.2866 36.9039C47.1736 36.9784 47.0602 37.0522 46.9468 37.126C46.8654 37.1794 46.784 37.2329 46.7026 37.2865C46.4779 37.4341 46.2529 37.5811 46.0278 37.7281C45.7855 37.8864 45.5435 38.0453 45.3015 38.2041C44.8269 38.5153 44.352 38.826 43.877 39.1366C43.491 39.3888 43.1052 39.6413 42.7194 39.8938C41.6268 40.609 40.5339 41.3238 39.4408 42.0381C39.3818 42.0767 39.3228 42.1152 39.262 42.1549C39.203 42.1935 39.1439 42.2321 39.083 42.2719C38.1255 42.8977 37.1685 43.5243 36.2118 44.1514C35.2305 44.7945 34.2488 45.437 33.2667 46.0788C32.7148 46.4394 32.1632 46.8003 31.612 47.1619C31.1428 47.4697 30.6731 47.7769 30.203 48.0833C29.9629 48.2398 29.723 48.3965 29.4837 48.5541C29.2648 48.6981 29.0454 48.8413 28.8256 48.9839C28.7459 49.0357 28.6664 49.0879 28.5871 49.1405C28.4798 49.2115 28.3719 49.2814 28.2637 49.351C28.2037 49.3902 28.1437 49.4294 28.082 49.4698C27.9234 49.541 27.9234 49.541 27.7786 49.5142C27.6323 49.427 27.6057 49.3533 27.5643 49.1905C27.6098 48.973 27.7232 48.9384 27.9062 48.8162C27.9388 48.7942 27.9714 48.7723 28.005 48.7496C28.1131 48.677 28.2215 48.605 28.33 48.533C28.4049 48.4828 28.4798 48.4326 28.5547 48.3824C28.752 48.2501 28.9496 48.1184 29.1473 47.9867C29.3489 47.8524 29.5502 47.7175 29.7515 47.5827C30.1467 47.3181 30.5423 47.0541 30.938 46.7905C30.8935 46.8131 30.8935 46.8131 30.848 46.8363C30.5374 46.994 30.2263 47.1507 29.9148 47.3068C29.7988 47.3651 29.683 47.4236 29.5672 47.4825C29.4004 47.5673 29.2331 47.6511 29.0657 47.7347C28.9888 47.7741 28.9888 47.7741 28.9104 47.8144C28.5347 48.0004 28.1859 48.128 27.7704 48.0071C27.5281 47.9132 27.4577 47.8464 27.3151 47.6328C27.2806 47.5812 27.246 47.5296 27.2103 47.4763C27.1731 47.4201 27.1358 47.3638 27.0975 47.3059C27.0593 47.2482 27.0211 47.1906 26.9817 47.1312C26.9009 47.0089 26.8202 46.8865 26.7396 46.7639C26.6366 46.6075 26.5326 46.4517 26.4283 46.2961C26.3288 46.1471 26.2306 45.9973 26.1322 45.8476C26.0948 45.792 26.0573 45.7364 26.0187 45.6791C25.7882 45.3245 25.708 45.1362 25.7843 44.7193C25.9048 44.3425 26.0885 44.2291 26.4237 44.0387ZM29.2992 43.683C29.2811 43.7725 29.2811 43.7725 29.2626 43.8638C29.2494 43.9282 29.2361 43.9926 29.2225 44.0589C29.2089 44.1267 29.1954 44.1945 29.1814 44.2643C29.1675 44.3323 29.1536 44.4003 29.1393 44.4704C29.1049 44.639 29.0709 44.8077 29.0371 44.9764C29.2081 45.0901 29.3641 45.1327 29.5646 45.1733C29.6251 45.1857 29.6856 45.1981 29.748 45.2109C29.8109 45.2234 29.8738 45.236 29.9387 45.2489C30.0343 45.2684 30.0343 45.2684 30.1318 45.2883C30.289 45.3203 30.4463 45.3519 30.6037 45.3833C30.7083 45.0393 30.7919 44.6962 30.8632 44.3439C30.8731 44.2957 30.883 44.2476 30.8933 44.198C30.9173 44.0809 30.9412 43.9637 30.965 43.8466C30.6228 43.743 30.281 43.6567 29.9313 43.5833C29.8839 43.5729 29.8365 43.5624 29.7877 43.5517C29.72 43.5374 29.72 43.5374 29.651 43.5228C29.6103 43.5142 29.5697 43.5055 29.5278 43.4965C29.361 43.4776 29.3423 43.5258 29.2992 43.683ZM41.5606 35.6757C41.5411 35.7702 41.5411 35.7702 41.5212 35.8666C41.5071 35.9345 41.493 36.0024 41.4785 36.0723C41.4637 36.1447 41.4488 36.217 41.434 36.2894C41.419 36.3618 41.404 36.4343 41.389 36.5068C41.3522 36.6848 41.3155 36.8629 41.279 37.041C41.61 37.1427 41.9413 37.2242 42.2807 37.2926C42.3475 37.3064 42.3475 37.3064 42.4157 37.3204C42.5239 37.3426 42.6321 37.3646 42.7404 37.3865C42.8502 37.2199 42.8945 37.0705 42.9338 36.8755C42.9455 36.8184 42.9572 36.7613 42.9693 36.7024C42.9869 36.6134 42.9869 36.6134 43.0049 36.5227C43.0172 36.4625 43.0294 36.4024 43.0421 36.3404C43.0722 36.1921 43.102 36.0438 43.1315 35.8953C42.9655 35.7861 42.8161 35.7409 42.6221 35.7009C42.5367 35.6831 42.5367 35.6831 42.4496 35.665C42.3905 35.6531 42.3314 35.6412 42.2705 35.6289C42.1808 35.6102 42.1808 35.6102 42.0894 35.591C41.7412 35.4677 41.7412 35.4677 41.5606 35.6757ZM35.6718 40.1095C35.6591 40.1723 35.6463 40.2351 35.6332 40.2999C35.6192 40.3677 35.6053 40.4355 35.5909 40.5053C35.5765 40.5774 35.562 40.6495 35.5476 40.7216C35.5328 40.7939 35.518 40.8663 35.5032 40.9386C35.4669 41.1161 35.431 41.2937 35.3954 41.4714C35.7394 41.576 36.0825 41.6596 36.4348 41.7309C36.483 41.7408 36.5311 41.7507 36.5807 41.761C36.6978 41.785 36.815 41.8089 36.9321 41.8327C37.0368 41.4887 37.1204 41.1456 37.1917 40.7933C37.2016 40.7451 37.2115 40.697 37.2217 40.6474C37.2458 40.5303 37.2697 40.4131 37.2935 40.2959C37.128 40.1874 36.9787 40.1412 36.7857 40.1004C36.729 40.0885 36.6723 40.0765 36.6139 40.0641C36.5549 40.0521 36.496 40.0401 36.4353 40.0277C36.3759 40.0149 36.3165 40.0022 36.2554 39.989C36.1988 39.9773 36.1423 39.9655 36.084 39.9534C36.0322 39.9427 35.9803 39.9319 35.9269 39.9208C35.7402 39.8969 35.7207 39.9292 35.6718 40.1095Z" fill="#DE7E29"/>
<path d="M25.6719 42.3027C25.7058 42.2836 25.7396 42.2644 25.7745 42.2446C26.107 42.0565 26.4392 41.868 26.7713 41.6792C26.9418 41.5824 27.1122 41.4856 27.2828 41.3891C29.4886 40.1412 31.6384 38.8158 33.7573 37.4255C33.9704 37.2857 34.1839 37.1464 34.3975 37.0074C36.5672 35.5948 38.6902 34.1266 40.7564 32.5664C40.8782 32.4748 41 32.3833 41.1219 32.2917C41.4099 32.0754 41.6976 31.8586 41.985 31.6416C42.0399 31.741 42.0948 31.8406 42.1496 31.9401C42.1802 31.9955 42.2107 32.0509 42.2422 32.108C42.3342 32.2778 42.4178 32.4478 42.4969 32.6239C42.5215 32.6779 42.5461 32.7319 42.5714 32.7876C42.6226 32.9157 42.6226 32.9157 42.6068 32.991C42.5408 33.0472 42.4725 33.1007 42.4035 33.1531C42.3368 33.2038 42.3368 33.2038 42.2687 33.2556C42.2196 33.2927 42.1705 33.3297 42.12 33.3678C42.0691 33.4064 42.0183 33.445 41.9659 33.4847C41.7983 33.6116 41.6305 33.7382 41.4626 33.8647C41.4055 33.9079 41.3484 33.951 41.2895 33.9955C40.5538 34.551 39.8152 35.1022 39.0675 35.6414C39.0328 35.6664 38.9981 35.6915 38.9624 35.7173C38.7471 35.8725 38.5309 36.0264 38.3142 36.1796C38.221 36.2454 38.1279 36.3114 38.0349 36.3774C36.9123 37.1732 35.7652 37.9305 34.613 38.6826C34.5654 38.7137 34.5178 38.7448 34.4688 38.7768C32.1998 40.2586 29.8914 41.6509 27.5249 42.9712C27.4722 43.0007 27.4195 43.0302 27.3653 43.0606C27.1334 43.1894 26.9044 43.314 26.6582 43.4139C26.558 43.3088 26.458 43.2034 26.3582 43.0979C26.3304 43.0688 26.3026 43.0397 26.274 43.0097C26.1196 42.8462 25.9731 42.6793 25.8327 42.5037C25.8024 42.4659 25.7721 42.4281 25.7409 42.3892C25.7181 42.3606 25.6953 42.3321 25.6719 42.3027Z" fill="#F9E342"/>
<path d="M20.5362 28.3478C20.8218 28.3709 21.0582 28.4141 21.2879 28.5962C21.5043 28.8786 21.699 29.1373 21.6873 29.5058C21.6583 29.6791 21.6583 29.6791 21.6241 29.8072C21.8496 29.9902 22.1039 30.0758 22.3728 30.1754C22.4749 30.2139 22.5769 30.2524 22.6789 30.2909C22.7311 30.3104 22.7832 30.3299 22.8369 30.3501C23.2186 30.4934 23.599 30.6403 23.9794 30.7872C24.1258 30.8435 24.2725 30.899 24.4191 30.9546C24.5147 30.9914 24.6103 31.0281 24.7059 31.0649C24.7501 31.0815 24.7944 31.0981 24.8399 31.1151C24.881 31.1311 24.9221 31.147 24.9644 31.1635C25.0003 31.1772 25.0362 31.1909 25.0732 31.205C25.2092 31.2777 25.2771 31.33 25.3685 31.4569C25.4156 31.6235 25.437 31.7919 25.4589 31.9633C25.4658 32.0128 25.4726 32.0622 25.4797 32.1132C25.494 32.2176 25.5078 32.3221 25.5213 32.4267C25.5421 32.5865 25.5644 32.7461 25.5869 32.9057C25.6006 33.0073 25.6142 33.1089 25.6277 33.2105C25.6344 33.2581 25.6411 33.3058 25.648 33.3549C25.7005 33.7737 25.7005 33.7737 25.587 33.9804C25.4803 34.0907 25.4803 34.0907 25.3136 34.159C25.1187 34.1556 24.9317 34.1151 24.7406 34.0783C24.6313 34.06 24.5219 34.0418 24.4125 34.0239C24.2671 34.0002 24.1218 33.9762 23.977 33.9488C23.8664 33.9305 23.8664 33.9305 23.7556 33.9438C23.6029 33.9489 23.5096 33.9313 23.3686 33.8695C23.1469 33.6374 22.981 33.3716 22.8084 33.1021C22.7568 33.0241 22.7051 32.9462 22.6532 32.8684C22.5175 32.6639 22.3837 32.4583 22.2503 32.2523C22.1137 32.0421 21.9752 31.8331 21.837 31.624C21.5662 31.214 21.2974 30.8027 21.03 30.3906C20.9609 30.423 20.9609 30.423 20.8904 30.4561C20.6265 30.5651 20.4173 30.5451 20.147 30.4636C19.8289 30.2844 19.6536 30.0316 19.5373 29.6913C19.4834 29.4079 19.5211 29.1138 19.6653 28.8634C19.8792 28.6079 20.1976 28.3795 20.5362 28.3478Z" fill="#DE7E29"/>
<path d="M32.2691 20.6636C32.5564 20.6719 32.8232 20.7645 33.0366 20.9599C33.268 21.2328 33.3744 21.4938 33.3606 21.8537C33.3188 22.0997 33.2299 22.3089 33.0678 22.5002C33.0227 22.5297 32.9776 22.5592 32.9311 22.5895C32.9734 22.6525 32.9734 22.6525 33.0164 22.7167C33.2817 23.1127 33.5459 23.5093 33.8088 23.9068C33.9441 24.1111 34.0797 24.3151 34.2163 24.5185C34.3482 24.7149 34.4789 24.9119 34.6089 25.1095C34.6586 25.1847 34.7088 25.2597 34.7593 25.3343C34.8301 25.4391 34.8995 25.5447 34.9685 25.6506C35.0003 25.6965 35.0003 25.6965 35.0327 25.7433C35.1443 25.9181 35.1657 25.9987 35.1395 26.2074C35.1217 26.2656 35.104 26.3238 35.0857 26.3838C35.0747 26.4385 35.0637 26.4931 35.0524 26.5494C34.9875 26.8693 34.9163 27.1849 34.8231 27.4979C34.7934 27.5991 34.7691 27.7018 34.7462 27.8047C34.6435 28.0266 34.5362 28.0849 34.3142 28.1886C34.0479 28.1297 33.8363 27.9987 33.6122 27.849C33.578 27.8265 33.5438 27.8041 33.5086 27.781C33.4367 27.7337 33.3649 27.6862 33.2932 27.6385C33.1841 27.566 33.0747 27.4941 32.9652 27.4222C32.8951 27.376 32.825 27.3297 32.7549 27.2835C32.7225 27.2621 32.6902 27.2408 32.6568 27.2188C32.568 27.1597 32.4801 27.0992 32.3922 27.0386C32.3406 27.0036 32.2891 26.9687 32.236 26.9326C32.1224 26.8248 32.1224 26.8248 32.0933 26.7015C32.0955 26.6566 32.0977 26.6117 32.0999 26.5654C32.1026 26.4894 32.1026 26.4894 32.1053 26.4119C32.1086 26.3579 32.112 26.3038 32.1154 26.2481C32.1177 26.192 32.1201 26.1359 32.1225 26.0781C32.1299 25.9093 32.1392 25.7406 32.1489 25.5719C32.1535 25.4826 32.158 25.3934 32.1625 25.3042C32.1709 25.141 32.18 24.9778 32.1896 24.8147C32.227 24.1576 32.2512 23.4982 32.2494 22.84C32.2174 22.8318 32.1854 22.8236 32.1524 22.8152C31.7602 22.7092 31.5317 22.589 31.3149 22.2372C31.1882 21.9721 31.174 21.7035 31.2489 21.421C31.4405 20.9612 31.774 20.699 32.2691 20.6636Z" fill="#DE7E29"/>
<path d="M48.229 35.5479C48.2693 35.5213 48.3096 35.4948 48.3512 35.4675C48.415 35.4265 48.415 35.4265 48.4801 35.3848C48.5221 35.3568 48.5642 35.3288 48.6075 35.3C48.6683 35.2605 48.6683 35.2605 48.7302 35.2203C48.7674 35.1961 48.8046 35.172 48.8429 35.1471C48.9432 35.0984 48.9432 35.0984 49.0939 35.1299C49.2095 35.282 49.2095 35.282 49.3023 35.4489C49.2644 35.6299 49.2342 35.6401 49.0852 35.7382C49.0281 35.7757 49.0281 35.7757 48.9698 35.8141C48.9297 35.8398 48.8895 35.8655 48.8482 35.8921C48.8087 35.9184 48.7691 35.9447 48.7284 35.9718C48.6902 35.9967 48.6519 36.0215 48.6124 36.0471C48.5774 36.0699 48.5423 36.0926 48.5062 36.1161C48.405 36.1654 48.405 36.1654 48.2087 36.1636C48.0902 36.0135 48.0902 36.0135 48.0003 35.8447C48.0389 35.6601 48.076 35.6484 48.229 35.5479Z" fill="#E30808"/>
<path d="M26.4646 49.7599C26.5118 49.7293 26.5118 49.7293 26.5601 49.6981C26.591 49.6768 26.622 49.6556 26.6539 49.6337C26.7451 49.5739 26.7451 49.5739 26.9111 49.489C27.0916 49.5662 27.0916 49.5662 27.1882 49.7388C27.2101 49.7969 27.232 49.855 27.2545 49.9149C27.1634 50.071 27.0297 50.1379 26.8798 50.237C26.7944 50.2942 26.7944 50.2942 26.7073 50.3525C26.5552 50.4369 26.5552 50.4369 26.4045 50.4054C26.2889 50.2533 26.2889 50.2533 26.1961 50.0864C26.2353 49.8993 26.3108 49.8628 26.4646 49.7599Z" fill="#E30808"/>
<path d="M66.1937 40.8969L62.3257 14.7738H67.3148L68.8845 25.537C68.9592 26.0415 69.034 26.5741 69.1087 27.1347C69.1834 27.6765 69.2395 28.3399 69.2769 29.1247C69.7067 28.3399 70.0991 27.6765 70.4541 27.1347C70.8278 26.5741 71.1829 26.0415 71.5192 25.537L79.2272 13.933L81.2173 25.537C81.3107 26.0415 81.4135 26.5741 81.5256 27.1347C81.6377 27.6765 81.7124 28.3399 81.7498 29.1247C82.1796 28.3399 82.5627 27.6765 82.899 27.1347C83.2354 26.5741 83.5624 26.0415 83.88 25.537L90.7752 14.7738H96.1848L79.3113 40.8969L77.2091 28.452C77.1344 27.9475 77.0503 27.4149 76.9568 26.8544C76.8634 26.2938 76.798 25.6211 76.7606 24.8363C76.3309 25.6211 75.9291 26.2938 75.5554 26.8544C75.2004 27.3963 74.8547 27.9195 74.5183 28.424L66.1937 40.8969ZM92.9229 40L99.2295 14.7738H104.443L98.1363 40H92.9229ZM123.321 40.8409L112.11 24.9764L108.382 40H103.673L110.176 13.933L121.387 29.7694L125.115 14.7738H129.824L123.321 40.8409ZM132.571 19.3145L133.692 14.7738H151.238L150.117 19.3145H143.951L138.765 40H133.552L138.737 19.3145H132.571ZM148.944 40L155.195 14.7738H162.37C163.753 14.7738 164.996 15.0821 166.098 15.6988C167.201 16.2967 168.069 17.1189 168.705 18.1653C169.359 19.2118 169.686 20.389 169.686 21.697C169.686 22.7247 169.48 23.7244 169.069 24.6961C168.658 25.6491 168.088 26.518 167.359 27.3028C166.649 28.069 165.827 28.7136 164.893 29.2368L168.705 40H163.519L160.296 30.4141H156.204L153.821 40H148.944ZM157.241 26.2097H160.492C161.277 26.2097 161.997 26.0322 162.651 25.6771C163.305 25.3221 163.818 24.8456 164.192 24.2477C164.585 23.6497 164.781 22.9957 164.781 22.2856C164.781 21.3887 164.463 20.6693 163.828 20.1274C163.192 19.5855 162.352 19.3145 161.305 19.3145H158.951L157.241 26.2097ZM184.194 40.5045C181.971 40.5045 179.962 39.9907 178.168 38.9629C176.393 37.9352 174.982 36.5431 173.936 34.7866C172.908 33.0301 172.394 31.0681 172.394 28.9005C172.394 26.9758 172.796 25.1446 173.599 23.4068C174.403 21.6503 175.496 20.09 176.879 18.7259C178.262 17.3432 179.841 16.2594 181.616 15.4746C183.391 14.6711 185.259 14.2693 187.222 14.2693C189.464 14.2693 191.473 14.7832 193.248 15.8109C195.023 16.8386 196.424 18.2307 197.452 19.9872C198.499 21.7437 199.022 23.7151 199.022 25.9014C199.022 27.8073 198.62 29.6386 197.817 31.3951C197.032 33.1516 195.939 34.7118 194.537 36.0759C193.154 37.44 191.575 38.5238 189.8 39.3273C188.025 40.1121 186.156 40.5045 184.194 40.5045ZM184.755 35.6275C185.932 35.6275 187.053 35.3752 188.118 34.8707C189.202 34.3662 190.165 33.6748 191.005 32.7965C191.846 31.9183 192.5 30.9186 192.967 29.7974C193.453 28.6762 193.696 27.5084 193.696 26.2938C193.696 24.9297 193.388 23.7151 192.771 22.65C192.173 21.5662 191.342 20.716 190.277 20.0993C189.23 19.464 188.034 19.1464 186.689 19.1464C185.512 19.1464 184.381 19.3986 183.297 19.9031C182.214 20.4077 181.251 21.0991 180.41 21.9773C179.588 22.8369 178.934 23.8272 178.448 24.9484C177.963 26.0509 177.72 27.2094 177.72 28.424C177.72 29.7694 178.028 30.9933 178.645 32.0958C179.261 33.1796 180.102 34.0391 181.167 34.6745C182.232 35.3098 183.428 35.6275 184.755 35.6275ZM219.772 40.8409L208.56 24.9764L204.833 40H200.124L206.626 13.933L217.838 29.7694L221.566 14.7738H226.275L219.772 40.8409Z" fill="url(#paint0_linear_1442_11)"/>
<path d="M64.9664 58.7637V51.7489H66.7046C67.167 51.7489 67.5567 51.819 67.8737 51.9593C68.1958 52.0996 68.4556 52.2841 68.6531 52.5127C68.8506 52.7362 68.9934 52.9804 69.0818 53.2454C69.1753 53.5104 69.2221 53.7702 69.2221 54.0248C69.2221 54.2742 69.1779 54.5314 69.0896 54.7964C69.0012 55.0614 68.8583 55.3082 68.6609 55.5369C68.4634 55.7655 68.2036 55.95 67.8815 56.0903C67.5593 56.2306 67.167 56.3007 66.7046 56.3007H65.855V58.7637H64.9664ZM65.855 55.5057H66.6578C67.0787 55.5057 67.4112 55.4329 67.6554 55.2875C67.8997 55.1368 68.0737 54.9497 68.1777 54.7263C68.2816 54.4976 68.3335 54.2638 68.3335 54.0248C68.3335 53.7962 68.2816 53.5675 68.1777 53.3389C68.0789 53.1103 67.9075 52.9206 67.6632 52.7699C67.4242 52.6192 67.0891 52.5439 66.6578 52.5439H65.855V55.5057ZM73.0381 58.7637V51.2812H73.8799V58.7637H73.0381ZM80.0695 58.826C79.6434 58.826 79.2537 58.7195 78.9004 58.5065C78.547 58.2882 78.2639 57.9972 78.0508 57.6335C77.843 57.2698 77.739 56.8671 77.739 56.4254C77.739 55.9837 77.843 55.581 78.0508 55.2173C78.2639 54.8536 78.547 54.5652 78.9004 54.3522C79.2537 54.1339 79.6434 54.0248 80.0695 54.0248C80.3917 54.0248 80.693 54.0846 80.9736 54.2041C81.2594 54.3236 81.5062 54.4899 81.7141 54.7029V54.0872H82.4935V58.7637H81.7141V58.1479C81.5062 58.3558 81.2594 58.5221 80.9736 58.6468C80.693 58.7663 80.3917 58.826 80.0695 58.826ZM80.1786 58.0622C80.4748 58.0622 80.7424 57.9894 80.9814 57.844C81.2257 57.6933 81.4179 57.4958 81.5582 57.2516C81.7037 57.0022 81.7764 56.7268 81.7764 56.4254C81.7764 56.124 81.7037 55.8512 81.5582 55.607C81.4179 55.3576 81.2257 55.1602 80.9814 55.0147C80.7424 54.864 80.4748 54.7886 80.1786 54.7886C79.8825 54.7886 79.6123 54.864 79.368 55.0147C79.129 55.1602 78.9368 55.3576 78.7913 55.607C78.651 55.8512 78.5808 56.124 78.5808 56.4254C78.5808 56.7268 78.651 57.0022 78.7913 57.2516C78.9368 57.4958 79.129 57.6933 79.368 57.844C79.6123 57.9894 79.8825 58.0622 80.1786 58.0622ZM86.4839 61.1019L88.0038 58.0778L86.0241 54.0872H86.975L87.9726 56.1136C88.061 56.2955 88.1467 56.4748 88.2298 56.6514C88.313 56.8281 88.3961 57.0412 88.4793 57.2906C88.5676 57.0412 88.6507 56.8281 88.7287 56.6514C88.8118 56.4696 88.9001 56.2903 88.9937 56.1136L90.0069 54.0872H90.9033L87.3959 61.1019H86.4839ZM102.839 58.904C102.33 58.904 101.855 58.8104 101.413 58.6234C100.971 58.4311 100.582 58.1687 100.244 57.8362C99.9114 57.4984 99.6516 57.1113 99.4646 56.6748C99.2775 56.2332 99.184 55.7603 99.184 55.2563C99.184 54.7523 99.2775 54.282 99.4646 53.8455C99.6568 53.4039 99.9192 53.0167 100.252 52.6842C100.59 52.3464 100.979 52.084 101.421 51.897C101.863 51.7047 102.338 51.6086 102.847 51.6086C103.346 51.6086 103.814 51.7021 104.25 51.8892C104.687 52.0711 105.071 52.3231 105.404 52.6452L105.147 53.7208C104.908 53.3363 104.585 53.0297 104.18 52.8011C103.78 52.5673 103.336 52.4504 102.847 52.4504C102.333 52.4504 101.868 52.5777 101.452 52.8323C101.042 53.0817 100.714 53.4194 100.47 53.8455C100.226 54.2664 100.104 54.7367 100.104 55.2563C100.104 55.7655 100.223 56.2332 100.462 56.6592C100.706 57.0853 101.034 57.4257 101.444 57.6803C101.86 57.9349 102.325 58.0622 102.839 58.0622C103.13 58.0622 103.406 58.0284 103.666 57.9609C103.931 57.8881 104.172 57.7868 104.39 57.6569V55.8175H102.458V55.0225H105.248V58.109C104.931 58.374 104.562 58.574 104.141 58.7091C103.725 58.839 103.292 58.904 102.839 58.904ZM111.483 58.826C111.057 58.826 110.667 58.7195 110.314 58.5065C109.961 58.2882 109.677 57.9972 109.464 57.6335C109.256 57.2698 109.153 56.8671 109.153 56.4254C109.153 55.9837 109.256 55.581 109.464 55.2173C109.677 54.8536 109.961 54.5652 110.314 54.3522C110.667 54.1339 111.057 54.0248 111.483 54.0248C111.805 54.0248 112.107 54.0846 112.387 54.2041C112.673 54.3236 112.92 54.4899 113.128 54.7029V54.0872H113.907V58.7637H113.128V58.1479C112.92 58.3558 112.673 58.5221 112.387 58.6468C112.107 58.7663 111.805 58.826 111.483 58.826ZM111.592 58.0622C111.888 58.0622 112.156 57.9894 112.395 57.844C112.639 57.6933 112.831 57.4958 112.972 57.2516C113.117 57.0022 113.19 56.7268 113.19 56.4254C113.19 56.124 113.117 55.8512 112.972 55.607C112.831 55.3576 112.639 55.1602 112.395 55.0147C112.156 54.864 111.888 54.7886 111.592 54.7886C111.296 54.7886 111.026 54.864 110.782 55.0147C110.543 55.1602 110.35 55.3576 110.205 55.607C110.064 55.8512 109.994 56.124 109.994 56.4254C109.994 56.7268 110.064 57.0022 110.205 57.2516C110.35 57.4958 110.543 57.6933 110.782 57.844C111.026 57.9894 111.296 58.0622 111.592 58.0622ZM118.092 58.7637V54.0872H118.872V54.7575C119.043 54.5028 119.259 54.3132 119.519 54.1885C119.784 54.0586 120.062 53.9936 120.353 53.9936C120.67 53.9936 120.961 54.069 121.226 54.2197C121.491 54.3651 121.704 54.5704 121.865 54.8354C122.047 54.5548 122.28 54.3444 122.566 54.2041C122.857 54.0638 123.164 53.9936 123.486 53.9936C123.839 53.9936 124.161 54.0768 124.452 54.243C124.749 54.4093 124.982 54.6431 125.154 54.9445C125.331 55.2407 125.419 55.5914 125.419 55.9967V58.7637H124.577V56.0981C124.577 55.672 124.455 55.3498 124.211 55.1316C123.972 54.9081 123.694 54.7964 123.377 54.7964C123.179 54.7964 122.987 54.8406 122.8 54.9289C122.618 55.0173 122.467 55.155 122.348 55.342C122.234 55.5291 122.176 55.7733 122.176 56.0747V58.7637H121.335V56.0981C121.335 55.8019 121.275 55.5577 121.155 55.3654C121.041 55.1731 120.89 55.0302 120.703 54.9367C120.521 54.838 120.332 54.7886 120.134 54.7886C119.942 54.7886 119.752 54.8328 119.565 54.9211C119.384 55.0095 119.233 55.1472 119.113 55.3342C118.994 55.5213 118.934 55.7681 118.934 56.0747V58.7637H118.092ZM131.74 58.8572C131.251 58.8572 130.812 58.7481 130.423 58.5298C130.038 58.3116 129.734 58.0154 129.511 57.6413C129.292 57.262 129.183 56.8411 129.183 56.3786C129.183 55.937 129.29 55.5369 129.503 55.1783C129.716 54.8146 130.002 54.5262 130.36 54.3132C130.724 54.1001 131.124 53.9936 131.56 53.9936C131.992 53.9936 132.387 54.0975 132.745 54.3054C133.104 54.508 133.39 54.7834 133.603 55.1316C133.816 55.4797 133.922 55.8746 133.922 56.3163V56.6592H130.867C130.732 56.6592 130.594 56.654 130.454 56.6436C130.313 56.6333 130.176 56.6177 130.041 56.5969C130.098 57.0126 130.285 57.3607 130.602 57.6413C130.924 57.9219 131.306 58.0622 131.748 58.0622C132.044 58.0622 132.319 57.9946 132.574 57.8595C132.828 57.7244 133.034 57.5452 133.189 57.3217L133.423 58.2804C133.2 58.4623 132.943 58.6052 132.652 58.7091C132.366 58.8078 132.062 58.8572 131.74 58.8572ZM130.017 56.0279C130.298 55.9811 130.581 55.9578 130.867 55.9578H132.418C132.532 55.9578 132.644 55.963 132.753 55.9733C132.867 55.9785 132.982 55.9863 133.096 55.9967C133.023 55.633 132.841 55.3342 132.55 55.1004C132.259 54.8614 131.929 54.7419 131.56 54.7419C131.181 54.7419 130.849 54.8692 130.563 55.1238C130.277 55.3732 130.095 55.6746 130.017 56.0279ZM138.947 58.8572C138.708 58.8572 138.451 58.813 138.176 58.7247C137.906 58.6312 137.672 58.4779 137.474 58.2648L137.708 57.3451C137.854 57.5893 138.041 57.7842 138.269 57.9297C138.498 58.07 138.742 58.1401 139.002 58.1401C139.251 58.1401 139.439 58.0804 139.563 57.9609C139.688 57.8362 139.75 57.6855 139.75 57.5088C139.75 57.3062 139.683 57.1581 139.548 57.0645C139.418 56.971 139.301 56.9061 139.197 56.8697L138.566 56.6281C138.451 56.5813 138.314 56.5137 138.152 56.4254C137.991 56.3319 137.851 56.1994 137.732 56.0279C137.612 55.8564 137.552 55.633 137.552 55.3576C137.552 55.1082 137.612 54.8796 137.732 54.6717C137.851 54.4639 138.02 54.3002 138.238 54.1807C138.456 54.056 138.714 53.9936 139.01 53.9936C139.244 53.9936 139.488 54.0352 139.743 54.1183C139.997 54.2015 140.213 54.3418 140.389 54.5392L140.156 55.4589C140.031 55.2303 139.862 55.0484 139.649 54.9133C139.436 54.7782 139.215 54.7107 138.986 54.7107C138.773 54.7107 138.605 54.7704 138.48 54.89C138.36 55.0095 138.301 55.1472 138.301 55.303C138.301 55.4278 138.342 55.5395 138.425 55.6382C138.508 55.7369 138.633 55.8175 138.799 55.8798L139.431 56.1214C139.545 56.163 139.685 56.2306 139.852 56.3241C140.023 56.4176 140.174 56.5527 140.304 56.7294C140.434 56.9061 140.499 57.1451 140.499 57.4465C140.499 57.8673 140.35 58.2077 140.054 58.4675C139.763 58.7273 139.394 58.8572 138.947 58.8572ZM149.674 58.7637V51.7489H153.134V52.5439H150.562V54.0404H152.589V54.8354H150.562V57.9687H153.134V58.7637H149.674ZM158.817 58.826C158.391 58.826 158.001 58.7195 157.648 58.5065C157.295 58.2882 157.011 57.9972 156.798 57.6335C156.59 57.2698 156.487 56.8671 156.487 56.4254C156.487 55.9837 156.59 55.581 156.798 55.2173C157.011 54.8536 157.295 54.5652 157.648 54.3522C158.001 54.1339 158.391 54.0248 158.817 54.0248C159.139 54.0248 159.441 54.0846 159.721 54.2041C160.007 54.3236 160.254 54.4899 160.462 54.7029V54.0872H161.241V58.7637H160.462V58.1479C160.254 58.3558 160.007 58.5221 159.721 58.6468C159.441 58.7663 159.139 58.826 158.817 58.826ZM158.926 58.0622C159.222 58.0622 159.49 57.9894 159.729 57.844C159.973 57.6933 160.165 57.4958 160.306 57.2516C160.451 57.0022 160.524 56.7268 160.524 56.4254C160.524 56.124 160.451 55.8512 160.306 55.607C160.165 55.3576 159.973 55.1602 159.729 55.0147C159.49 54.864 159.222 54.7886 158.926 54.7886C158.63 54.7886 158.36 54.864 158.116 55.0147C157.877 55.1602 157.684 55.3576 157.539 55.607C157.398 55.8512 157.328 56.124 157.328 56.4254C157.328 56.7268 157.398 57.0022 157.539 57.2516C157.684 57.4958 157.877 57.6933 158.116 57.844C158.36 57.9894 158.63 58.0622 158.926 58.0622ZM165.426 58.7637V54.0872H166.206V54.9445C166.372 54.6691 166.593 54.4509 166.868 54.2898C167.144 54.1235 167.471 54.0404 167.85 54.0404L168.061 54.8822C167.962 54.851 167.848 54.8354 167.718 54.8354C167.281 54.8354 166.931 54.9757 166.666 55.2563C166.401 55.5317 166.268 55.9266 166.268 56.441V58.7637H165.426ZM171.627 58.7637V54.0872H172.407V54.8432C172.578 54.5678 172.799 54.3573 173.069 54.2119C173.345 54.0664 173.641 53.9936 173.958 53.9936C174.29 53.9936 174.597 54.0768 174.878 54.243C175.163 54.4041 175.395 54.6405 175.571 54.9523C175.748 55.2589 175.836 55.633 175.836 56.0747V58.7637H174.994V56.1916C174.994 55.8227 174.883 55.4979 174.659 55.2173C174.441 54.9315 174.132 54.7886 173.732 54.7886C173.404 54.7886 173.111 54.9081 172.851 55.1472C172.596 55.381 172.469 55.7213 172.469 56.1682V58.7637H171.627ZM188.344 58.904C187.84 58.904 187.364 58.8104 186.917 58.6234C186.476 58.4311 186.086 58.1687 185.748 57.8362C185.416 57.5036 185.153 57.1165 184.961 56.6748C184.774 56.2332 184.681 55.7603 184.681 55.2563C184.681 54.7523 184.774 54.2794 184.961 53.8377C185.153 53.3961 185.416 53.009 185.748 52.6764C186.086 52.3438 186.476 52.084 186.917 51.897C187.364 51.7047 187.84 51.6086 188.344 51.6086C188.843 51.6086 189.31 51.7021 189.747 51.8892C190.183 52.0711 190.568 52.3231 190.9 52.6452L190.643 53.7208C190.404 53.3363 190.082 53.0297 189.677 52.8011C189.277 52.5673 188.832 52.4504 188.344 52.4504C187.829 52.4504 187.364 52.5777 186.949 52.8323C186.538 53.0817 186.211 53.4194 185.967 53.8455C185.722 54.2664 185.6 54.7367 185.6 55.2563C185.6 55.7707 185.722 56.2409 185.967 56.667C186.211 57.0931 186.538 57.4335 186.949 57.6881C187.364 57.9375 187.829 58.0622 188.344 58.0622C188.837 58.0622 189.284 57.9453 189.684 57.7115C190.085 57.4776 190.404 57.1711 190.643 56.7917L190.9 57.8673C190.568 58.1843 190.183 58.4363 189.747 58.6234C189.31 58.8104 188.843 58.904 188.344 58.904ZM194.67 58.7637V54.0872H195.449V54.9445C195.615 54.6691 195.836 54.4509 196.112 54.2898C196.387 54.1235 196.714 54.0404 197.094 54.0404L197.304 54.8822C197.205 54.851 197.091 54.8354 196.961 54.8354C196.525 54.8354 196.174 54.9757 195.909 55.2563C195.644 55.5317 195.511 55.9266 195.511 56.441V58.7637H194.67ZM200.676 61.1019L202.196 58.0778L200.216 54.0872H201.167L202.165 56.1136C202.253 56.2955 202.339 56.4748 202.422 56.6514C202.505 56.8281 202.588 57.0412 202.671 57.2906C202.759 57.0412 202.843 56.8281 202.921 56.6514C203.004 56.4696 203.092 56.2903 203.186 56.1136L204.199 54.0872H205.095L201.588 61.1019H200.676ZM208.628 61.1019V54.0872H209.408V54.7029C209.621 54.4899 209.867 54.3236 210.148 54.2041C210.429 54.0846 210.73 54.0248 211.052 54.0248C211.483 54.0248 211.873 54.1339 212.221 54.3522C212.575 54.5652 212.855 54.8536 213.063 55.2173C213.276 55.581 213.383 55.9837 213.383 56.4254C213.383 56.8671 213.276 57.2698 213.063 57.6335C212.855 57.9972 212.575 58.2882 212.221 58.5065C211.873 58.7195 211.483 58.826 211.052 58.826C210.746 58.826 210.457 58.7715 210.187 58.6623C209.917 58.5532 209.678 58.4025 209.47 58.2103V61.1019H208.628ZM210.943 58.0622C211.239 58.0622 211.507 57.9894 211.746 57.844C211.99 57.6933 212.182 57.4958 212.323 57.2516C212.468 57.0022 212.541 56.7268 212.541 56.4254C212.541 56.124 212.468 55.8512 212.323 55.607C212.182 55.3576 211.99 55.1602 211.746 55.0147C211.507 54.864 211.239 54.7886 210.943 54.7886C210.647 54.7886 210.377 54.864 210.132 55.0147C209.893 55.1602 209.701 55.3576 209.556 55.607C209.415 55.8512 209.345 56.124 209.345 56.4254C209.345 56.7268 209.415 57.0022 209.556 57.2516C209.701 57.4958 209.893 57.6933 210.132 57.844C210.377 57.9894 210.647 58.0622 210.943 58.0622ZM217.556 58.7637V54.7886H216.496V54.0872H217.579V52.5283H218.374V54.0872H219.536V54.7886H218.398V58.7637H217.556ZM225.117 58.8572C224.665 58.8572 224.252 58.7481 223.878 58.5298C223.503 58.3116 223.205 58.018 222.981 57.6491C222.763 57.2802 222.654 56.8723 222.654 56.4254C222.654 55.9733 222.763 55.5655 222.981 55.2017C223.205 54.8328 223.503 54.5392 223.878 54.321C224.252 54.1027 224.665 53.9936 225.117 53.9936C225.574 53.9936 225.987 54.1027 226.356 54.321C226.73 54.5392 227.026 54.8328 227.245 55.2017C227.468 55.5655 227.58 55.9733 227.58 56.4254C227.58 56.8723 227.468 57.2802 227.245 57.6491C227.026 58.018 226.73 58.3116 226.356 58.5298C225.987 58.7481 225.574 58.8572 225.117 58.8572ZM225.117 58.0622C225.418 58.0622 225.691 57.9894 225.935 57.844C226.179 57.6933 226.374 57.4958 226.52 57.2516C226.665 57.0022 226.738 56.7268 226.738 56.4254C226.738 56.124 226.665 55.8512 226.52 55.607C226.374 55.3576 226.179 55.1602 225.935 55.0147C225.691 54.864 225.418 54.7886 225.117 54.7886C224.815 54.7886 224.543 54.864 224.298 55.0147C224.054 55.1602 223.859 55.3576 223.714 55.607C223.568 55.8512 223.496 56.124 223.496 56.4254C223.496 56.7268 223.568 57.0022 223.714 57.2516C223.859 57.4958 224.054 57.6933 224.298 57.844C224.543 57.9894 224.815 58.0622 225.117 58.0622Z" fill="white"/>
<rect x="63.8047" y="42.3809" width="139.45" height="4.64161" fill="#DE7E29"/>
<path d="M192.728 27.8018L181.845 33.351L187.092 27.7881L181.874 22.1966L192.728 27.8018Z" fill="url(#paint1_linear_1442_11)"/>
<defs>
<linearGradient id="paint0_linear_1442_11" x1="143.016" y1="0" x2="143.127" y2="40.3618" gradientUnits="userSpaceOnUse">
<stop offset="0.427885" stop-color="#CAA12D"/>
<stop offset="0.696789" stop-color="#FAE443"/>
<stop offset="0.918269" stop-color="#DE7E29"/>
</linearGradient>
<linearGradient id="paint1_linear_1442_11" x1="187.308" y1="22.2106" x2="187.279" y2="33.365" gradientUnits="userSpaceOnUse">
<stop stop-color="#CAA12D"/>
<stop offset="0.466531" stop-color="#F9E243"/>
<stop offset="1" stop-color="#DD7D28"/>
</linearGradient>
</defs>
</svg>
