<svg width="60" height="59" viewBox="0 0 60 59" fill="none" xmlns="http://www.w3.org/2000/svg">
<circle cx="29.9275" cy="29.4997" r="24.9401" stroke="#F9E342" stroke-width="1.8029"/>
<circle cx="29.9449" cy="29.4996" r="22.5362" stroke="black" stroke-width="3.00483" stroke-dasharray="6.01 6.01"/>
<circle cx="29.9347" cy="29.5" r="22.5362" transform="rotate(15.1988 29.9347 29.5)" stroke="#E30808" stroke-width="3.00483" stroke-dasharray="6.01 6.01"/>
<path d="M29.9494 5.44258L29.8972 7.443L29.655 7.43668L29.7006 5.69022L29.6888 5.68991L29.192 6.00145L29.1984 5.75531L29.7072 5.43626L29.9494 5.44258Z" fill="white"/>
<path d="M36.127 6.22888C36.2051 6.25392 36.2788 6.29327 36.3481 6.34692C36.4173 6.40057 36.4737 6.47136 36.5173 6.5593C36.561 6.64662 36.5844 6.75454 36.5873 6.88304C36.5902 7.01155 36.5644 7.16349 36.5097 7.33886C36.4568 7.50864 36.3937 7.65442 36.3202 7.77618C36.2476 7.89752 36.1671 7.99388 36.0787 8.06525C35.9909 8.13682 35.8968 8.18256 35.7964 8.20246C35.6967 8.22255 35.593 8.21583 35.4855 8.1823C35.3785 8.14897 35.2896 8.09807 35.2188 8.02962C35.1489 7.96074 35.099 7.88003 35.0691 7.78749C35.0401 7.69452 35.0338 7.59534 35.0503 7.48994L35.2779 7.56087C35.2711 7.65496 35.2893 7.7401 35.3324 7.81631C35.3763 7.89209 35.4487 7.94568 35.5494 7.97707C35.6968 8.023 35.8332 7.99488 35.9585 7.8927C36.0844 7.79071 36.184 7.62217 36.2573 7.3871L36.2423 7.38244C36.1912 7.42383 36.1358 7.45603 36.0761 7.47904C36.0164 7.50206 35.9541 7.51472 35.8893 7.51702C35.8244 7.51933 35.759 7.51021 35.6931 7.48966C35.5837 7.45556 35.4917 7.3972 35.4171 7.31461C35.3434 7.23159 35.2939 7.13397 35.2689 7.02177C35.2446 6.90913 35.2517 6.79125 35.29 6.66811C35.3265 6.55119 35.3859 6.45237 35.4684 6.37163C35.5517 6.29046 35.6499 6.23579 35.7631 6.2076C35.8769 6.17961 35.9982 6.18671 36.127 6.22888ZM36.063 6.43411C35.9846 6.40969 35.9079 6.40728 35.8329 6.42689C35.7587 6.44607 35.693 6.4829 35.6358 6.53739C35.5793 6.59145 35.5387 6.65828 35.5139 6.73788C35.4891 6.81748 35.484 6.89536 35.4984 6.97151C35.5137 7.04724 35.5458 7.11388 35.5948 7.17143C35.6445 7.22855 35.7086 7.26932 35.7869 7.29374C35.846 7.31215 35.9046 7.3178 35.9628 7.31068C36.0212 7.30294 36.0756 7.28477 36.1261 7.25617C36.1775 7.22714 36.2221 7.1902 36.2599 7.14537C36.298 7.09991 36.3258 7.04889 36.3435 6.99229C36.3667 6.91767 36.3705 6.84208 36.3548 6.76554C36.3397 6.6892 36.307 6.62102 36.2568 6.56103C36.2072 6.50122 36.1426 6.45892 36.063 6.43411Z" fill="white"/>
<path d="M41.3684 10.7087C41.2613 10.6367 41.1782 10.5542 41.1191 10.4612C41.0605 10.3685 41.0286 10.2729 41.0234 10.1744C41.019 10.0757 41.0439 9.98142 41.0981 9.89146L41.3025 10.0288C41.2708 10.0852 41.2582 10.1438 41.2645 10.2045C41.2711 10.2647 41.2936 10.3229 41.3319 10.3793C41.3702 10.4356 41.4212 10.4852 41.485 10.528C41.5564 10.576 41.628 10.606 41.6999 10.6182C41.7717 10.6304 41.8382 10.6248 41.8994 10.6016C41.9605 10.5783 42.0107 10.5375 42.0499 10.4791C42.091 10.418 42.112 10.354 42.1129 10.2871C42.1143 10.2198 42.0946 10.1532 42.054 10.0875C42.0134 10.0218 41.9509 9.96057 41.8666 9.9039L41.7336 9.81455L41.8534 9.63611L41.9865 9.72546C42.0524 9.76978 42.1183 9.79674 42.184 9.80637C42.2503 9.81636 42.312 9.80917 42.3692 9.78479C42.4269 9.76079 42.4754 9.71958 42.5146 9.66118C42.5524 9.60495 42.5728 9.54766 42.5759 9.48931C42.579 9.43097 42.5656 9.37492 42.5358 9.32115C42.5066 9.26776 42.4614 9.22053 42.4003 9.17949C42.343 9.14099 42.2818 9.11521 42.2168 9.10215C42.1527 9.08892 42.0915 9.09133 42.0331 9.10937C41.975 9.12687 41.9261 9.16229 41.8863 9.21563L41.6917 9.08487C41.7534 8.99999 41.8308 8.94137 41.924 8.90899C42.0175 8.87608 42.1164 8.86793 42.2206 8.88455C42.3253 8.90154 42.4255 8.94218 42.5212 9.00647C42.624 9.07548 42.6981 9.15551 42.7437 9.24654C42.7896 9.33704 42.8096 9.42934 42.8037 9.52344C42.7978 9.61755 42.7685 9.70381 42.7158 9.78221C42.6529 9.87576 42.5748 9.93899 42.4813 9.97191C42.3883 10.0052 42.2913 10.0064 42.1905 9.9755L42.1817 9.98847C42.275 10.0762 42.327 10.1759 42.3376 10.2874C42.3486 10.3984 42.3187 10.5066 42.2478 10.612C42.1872 10.7023 42.1081 10.7669 42.0106 10.8058C41.914 10.8444 41.8097 10.856 41.6977 10.8404C41.5858 10.8249 41.476 10.7809 41.3684 10.7087Z" fill="white"/>
<path d="M46.2068 14.7318C46.1211 14.6285 46.0638 14.5221 46.0347 14.4125C46.0066 14.303 46.0066 14.1993 46.0347 14.1016C46.0633 14.0034 46.1195 13.9201 46.2032 13.8516C46.2679 13.797 46.3387 13.7599 46.4155 13.7403C46.4928 13.7203 46.5687 13.7174 46.6432 13.7318C46.7187 13.7463 46.7847 13.7774 46.8413 13.8253L46.8503 13.8178C46.8082 13.7283 46.801 13.6353 46.8285 13.5389C46.8566 13.442 46.9117 13.36 46.9938 13.2927C47.0717 13.2274 47.158 13.1892 47.253 13.1782C47.3479 13.1672 47.4423 13.1821 47.5361 13.2228C47.6303 13.264 47.7148 13.3297 47.7897 13.42C47.8636 13.5093 47.9119 13.6038 47.9345 13.7035C47.9571 13.8032 47.9542 13.8987 47.9257 13.99C47.8977 14.0817 47.8448 14.1603 47.767 14.2256C47.6848 14.2929 47.5933 14.331 47.4925 14.3401C47.3927 14.3493 47.3033 14.3256 47.2244 14.2692L47.2154 14.2767C47.2515 14.3407 47.2692 14.4106 47.2686 14.4864C47.2685 14.5618 47.2516 14.6358 47.2179 14.7085C47.1848 14.7809 47.1358 14.8443 47.071 14.8988C46.9874 14.9673 46.8944 15.0063 46.7922 15.0157C46.691 15.0251 46.5891 15.0059 46.4868 14.9579C46.3853 14.91 46.292 14.8346 46.2068 14.7318ZM46.3723 14.5947C46.4301 14.6644 46.4912 14.7152 46.5558 14.7472C46.6203 14.7791 46.6846 14.7918 46.7486 14.7853C46.8126 14.7788 46.8724 14.753 46.9279 14.7078C46.9857 14.659 47.0246 14.6014 47.0448 14.5348C47.0649 14.4682 47.0665 14.3988 47.0497 14.3264C47.0333 14.2545 46.9981 14.186 46.944 14.1208C46.8896 14.0551 46.8282 14.007 46.7598 13.9766C46.6918 13.9466 46.6232 13.9353 46.5541 13.9427C46.4853 13.9506 46.4221 13.9789 46.3643 14.0277C46.3087 14.0729 46.2716 14.1261 46.2529 14.1872C46.2346 14.2489 46.2354 14.3147 46.2553 14.3845C46.2751 14.4544 46.3141 14.5244 46.3723 14.5947ZM47.1035 13.9886C47.1493 14.0438 47.2008 14.0836 47.2582 14.1079C47.316 14.1327 47.3749 14.141 47.4349 14.1328C47.4949 14.1245 47.5517 14.0986 47.6053 14.055C47.657 14.0113 47.6922 13.9614 47.7109 13.9053C47.7301 13.8488 47.7325 13.7905 47.7183 13.7305C47.7045 13.67 47.6741 13.6114 47.6272 13.5547C47.5794 13.497 47.5268 13.4555 47.4695 13.4303C47.4127 13.4046 47.3549 13.3962 47.2963 13.405C47.2381 13.4135 47.1832 13.4396 47.1314 13.4833C47.0779 13.5268 47.0412 13.5771 47.0216 13.634C47.0023 13.6914 46.9995 13.7508 47.0132 13.8122C47.0269 13.8737 47.057 13.9325 47.1035 13.9886Z" fill="white"/>
<path d="M49.5114 19.4451L51.4915 19.5679L51.5058 19.5617L51.0982 18.6138L51.2957 18.5289L51.8021 19.7066L51.5939 19.7961L49.6118 19.6784L49.5114 19.4451Z" fill="white"/>
<path d="M51.5081 25.238L51.6827 25.2168L52.4799 25.7857C52.5733 25.8525 52.6541 25.907 52.7222 25.9493C52.7909 25.9915 52.8542 26.0212 52.9121 26.0385C52.9707 26.0563 53.0304 26.0616 53.0912 26.0542C53.161 26.0458 53.2194 26.0216 53.2664 25.9818C53.3135 25.9426 53.3475 25.8926 53.3683 25.8317C53.3892 25.7708 53.3953 25.7044 53.3866 25.6326C53.3773 25.5563 53.3534 25.4916 53.3149 25.4386C53.277 25.3861 53.2281 25.3477 53.1681 25.3235C53.1081 25.2999 53.0403 25.2927 52.9647 25.3018L52.9369 25.0729C53.0533 25.0588 53.1588 25.0733 53.2532 25.1163C53.3477 25.1593 53.4251 25.2241 53.4854 25.3106C53.5458 25.3978 53.583 25.4993 53.597 25.615C53.6111 25.7314 53.599 25.8376 53.5608 25.9334C53.5225 26.0292 53.4648 26.1077 53.3875 26.1689C53.3103 26.2301 53.2206 26.2669 53.1184 26.2793C53.0453 26.2881 52.9723 26.2835 52.8992 26.2654C52.8269 26.2479 52.7441 26.212 52.6509 26.1577C52.5585 26.1039 52.4442 26.0275 52.3082 25.9285L51.777 25.5401L51.7615 25.5419L51.8732 26.4654L51.6598 26.4912L51.5081 25.238Z" fill="white"/>
<path d="M52.2185 31.6019L52.415 31.6354L53.639 32.736L53.6147 32.8785L53.3103 32.8267L53.3267 32.7304L52.4019 31.8988L52.3865 31.8962L52.1876 33.0636L51.9757 33.0275L52.2185 31.6019ZM51.6558 32.4616L52.1201 32.5407L52.2116 32.5563L53.6285 32.7976L53.5898 33.025L51.6171 32.6889L51.6558 32.4616Z" fill="white"/>
<path d="M51.7901 39.292C51.753 39.3652 51.7024 39.4317 51.6385 39.4915C51.5745 39.5514 51.4956 39.5958 51.4019 39.6249C51.3087 39.6542 51.1985 39.6601 51.0711 39.6426C50.9438 39.6251 50.7979 39.5754 50.6334 39.4936C50.4742 39.4144 50.3403 39.3289 50.2318 39.2371C50.1235 39.1461 50.0411 39.0513 49.9847 38.9527C49.928 38.8546 49.8978 38.7544 49.8941 38.6522C49.8901 38.5505 49.9132 38.4493 49.9634 38.3484C50.0133 38.248 50.0776 38.1684 50.1565 38.1094C50.2356 38.0512 50.3232 38.0148 50.4193 38C50.5157 37.9861 50.6146 37.9957 50.7161 38.0287L50.6099 38.2422C50.5181 38.2205 50.4311 38.2249 50.349 38.2554C50.2672 38.2867 50.2028 38.3496 50.1558 38.4441C50.0871 38.5823 50.0932 38.7214 50.1742 38.8614C50.2549 39.0019 50.4054 39.127 50.6259 39.2367L50.6329 39.2227C50.6001 39.1657 50.5771 39.1058 50.5639 39.0432C50.5507 38.9806 50.548 38.9171 50.5561 38.8527C50.5641 38.7883 50.5835 38.7252 50.6142 38.6634C50.6653 38.5607 50.7375 38.4792 50.8309 38.4187C50.9246 38.3591 51.0288 38.3258 51.1436 38.3188C51.2586 38.3128 51.3739 38.3385 51.4894 38.3959C51.599 38.4505 51.6872 38.5249 51.7538 38.6191C51.8207 38.7142 51.8591 38.8199 51.8689 38.9361C51.8785 39.0529 51.8522 39.1715 51.7901 39.292ZM51.5976 39.1962C51.6342 39.1227 51.6488 39.0474 51.6413 38.9702C51.6342 38.8939 51.6082 38.8232 51.5635 38.758C51.5191 38.6937 51.4596 38.643 51.3849 38.6059C51.3103 38.5687 51.2342 38.5513 51.1567 38.5535C51.0795 38.5565 51.0086 38.5777 50.9441 38.6168C50.8798 38.6569 50.8293 38.7136 50.7928 38.7871C50.7652 38.8425 50.7503 38.8995 50.7481 38.9581C50.7465 39.0169 50.7558 39.0736 50.776 39.128C50.7965 39.1833 50.8259 39.2332 50.8641 39.2777C50.903 39.3225 50.9489 39.3581 51.002 39.3845C51.072 39.4193 51.146 39.435 51.2241 39.4317C51.3019 39.4289 51.3743 39.4075 51.4416 39.3674C51.5085 39.3279 51.5605 39.2709 51.5976 39.1962Z" fill="white"/>
<path d="M48.0146 45.1191L46.5312 43.776L46.6939 43.5963L47.9889 44.769L47.9968 44.7603L48.0842 44.1804L48.2668 44.3457L48.1772 44.9395L48.0146 45.1191Z" fill="white"/>
<path d="M42.8119 47.2668L43.0025 49.2415L43.0109 49.2547L43.8827 48.7029L43.9977 48.8845L42.9145 49.5701L42.7932 49.3786L42.5972 47.4027L42.8119 47.2668Z" fill="white"/>
<path d="M37.5543 50.5431L37.6085 50.7349L37.1404 52.3129L37.0013 52.3523L36.9173 52.0551L37.0114 52.0286L37.365 50.8362L37.3607 50.8211L36.2211 51.143L36.1627 50.9362L37.5543 50.5431ZM36.5363 50.4042L36.6643 50.8574L36.6896 50.9468L37.0803 52.3299L36.8583 52.3926L36.3144 50.4669L36.5363 50.4042Z" fill="white"/>
<path d="M30.4321 51.4075C30.5663 51.4095 30.6845 51.435 30.7867 51.4841C30.8882 51.5338 30.9671 51.6011 31.0231 51.686C31.0792 51.7715 31.1061 51.8684 31.1038 51.9765C31.1032 52.0612 31.0854 52.1391 31.0505 52.2102C31.0156 52.282 30.9684 52.3416 30.9091 52.3889C30.8491 52.4369 30.7825 52.4668 30.7094 52.4787L30.7092 52.4905C30.8046 52.5166 30.88 52.5715 30.9354 52.6551C30.9908 52.7393 31.0174 52.8345 31.0152 52.9406C31.0143 53.0422 30.9873 53.1327 30.934 53.2121C30.8807 53.2914 30.8081 53.3535 30.7162 53.3984C30.6237 53.4433 30.5188 53.4648 30.4015 53.4631C30.2856 53.4614 30.1824 53.4367 30.0919 53.3891C30.0014 53.3415 29.9307 53.2773 29.8798 53.1964C29.8282 53.1155 29.8029 53.0242 29.8037 52.9226C29.806 52.8164 29.8364 52.7221 29.8949 52.6396C29.9528 52.5577 30.0288 52.5051 30.123 52.4817L30.1232 52.47C30.0511 52.4559 29.9864 52.424 29.9292 52.3743C29.8719 52.3252 29.8266 52.2643 29.7931 52.1915C29.7597 52.1193 29.7432 52.0409 29.7438 51.9562C29.7461 51.8481 29.7768 51.7522 29.8361 51.6683C29.8946 51.5852 29.9754 51.5203 30.0784 51.4736C30.1807 51.4275 30.2986 51.4055 30.4321 51.4075ZM30.4289 51.6224C30.3384 51.6211 30.26 51.6346 30.1938 51.6629C30.1276 51.6913 30.0762 51.7319 30.0396 51.7847C30.0029 51.8376 29.9838 51.8999 29.9821 51.9715C29.9816 52.0471 30.0001 52.1141 30.0377 52.1727C30.0753 52.2312 30.127 52.2776 30.193 52.3118C30.2582 52.346 30.3332 52.3637 30.4179 52.365C30.5032 52.3662 30.5797 52.3508 30.6473 52.3185C30.7142 52.2863 30.7673 52.2415 30.8066 52.1841C30.8452 52.1267 30.8648 52.0602 30.8653 51.9846C30.867 51.913 30.8506 51.8502 30.8163 51.7963C30.7812 51.7423 30.7307 51.7002 30.6647 51.6699C30.5987 51.6396 30.5201 51.6238 30.4289 51.6224ZM30.4148 52.5721C30.3432 52.571 30.2794 52.5844 30.2237 52.6122C30.1672 52.6401 30.1227 52.6795 30.09 52.7304C30.0573 52.7814 30.0401 52.8414 30.0384 52.9105C30.0381 52.9782 30.0532 53.0374 30.0837 53.088C30.1142 53.1393 30.1569 53.179 30.2119 53.2072C30.2668 53.236 30.3311 53.251 30.4047 53.2521C30.4796 53.2532 30.5453 53.2402 30.6017 53.213C30.6581 53.1865 30.702 53.148 30.7334 53.0977C30.7647 53.048 30.7806 52.9893 30.7809 52.9215C30.7826 52.8525 30.7682 52.792 30.7377 52.7401C30.7066 52.6882 30.6632 52.6474 30.6076 52.6179C30.552 52.5885 30.4878 52.5732 30.4148 52.5721Z" fill="white"/>
<path d="M24.1617 50.6692C24.2711 50.7034 24.3628 50.7559 24.4369 50.8268C24.511 50.8977 24.5626 50.9794 24.5917 51.0718C24.6209 51.1641 24.6228 51.2596 24.5974 51.3581L24.3736 51.2882C24.3919 51.199 24.3751 51.1153 24.3231 51.037C24.2704 50.959 24.1952 50.9048 24.0975 50.8743C24.0192 50.8499 23.9438 50.8464 23.8714 50.8641C23.7984 50.8815 23.7345 50.9168 23.6797 50.97C23.624 51.0236 23.5835 51.0911 23.558 51.1725C23.532 51.2559 23.5271 51.3359 23.5434 51.4126C23.5589 51.4898 23.5924 51.5573 23.6439 51.615C23.6955 51.6728 23.7619 51.7147 23.8432 51.7407C23.9014 51.7596 23.9642 51.7694 24.0316 51.7699C24.0988 51.7711 24.1568 51.7637 24.2055 51.7475L24.4137 51.8412L24.0043 52.7452L23.012 52.4351L23.0761 52.2299L23.8744 52.4794L24.1176 51.9371L24.1064 51.9336C24.0575 51.9524 24.0003 51.9629 23.9349 51.9649C23.8694 51.967 23.8046 51.958 23.7406 51.938C23.6237 51.9015 23.5283 51.8409 23.4544 51.7564C23.3797 51.6723 23.3312 51.5739 23.3091 51.4612C23.2864 51.3484 23.2944 51.2301 23.333 51.1063C23.3711 50.9845 23.4325 50.8842 23.5171 50.8056C23.6009 50.7273 23.699 50.6754 23.8115 50.6498C23.9237 50.6248 24.0404 50.6313 24.1617 50.6692Z" fill="white"/>
<path d="M17.2674 49.8597L18.3589 48.1825L18.562 48.3146L17.6091 49.7789L17.6189 49.7853L18.2053 49.7799L18.071 49.9863L17.4705 49.9918L17.2674 49.8597Z" fill="white"/>
<path d="M13.9718 44.6088C14.0475 44.6949 14.0986 44.7875 14.1251 44.8865C14.1515 44.9856 14.1532 45.0822 14.1302 45.1762C14.1071 45.2703 14.0591 45.3529 13.9863 45.4239L13.8314 45.2479C13.8933 45.1812 13.9224 45.1009 13.9187 45.007C13.9141 44.913 13.878 44.8276 13.8104 44.7509C13.7562 44.6893 13.6936 44.6472 13.6225 44.6247C13.5511 44.6016 13.4781 44.5986 13.4036 44.6156C13.3283 44.6325 13.2585 44.6691 13.1945 44.7255C13.129 44.7831 13.0832 44.849 13.0573 44.923C13.0304 44.997 13.024 45.0721 13.0381 45.1482C13.0522 45.2243 13.0871 45.2946 13.143 45.3591C13.183 45.4055 13.2316 45.4465 13.2889 45.482C13.3457 45.5179 13.3991 45.5416 13.4491 45.5531L13.5784 45.7413L12.759 46.3011L12.0721 45.5207L12.2335 45.3787L12.7861 46.0065L13.2756 45.6694L13.2678 45.6606C13.2163 45.6513 13.162 45.6306 13.1049 45.5983C13.0479 45.5661 12.9972 45.5248 12.9529 45.4744C12.872 45.3825 12.8219 45.2812 12.8027 45.1706C12.7825 45.0599 12.7922 44.9507 12.8318 44.8429C12.871 44.7346 12.9393 44.6377 13.0366 44.552C13.1324 44.4677 13.2369 44.4139 13.3501 44.3906C13.4624 44.3673 13.5732 44.3739 13.6826 44.4104C13.7914 44.4473 13.8878 44.5135 13.9718 44.6088Z" fill="white"/>
<path d="M10.3035 39.4678C10.3578 39.5848 10.3861 39.6984 10.3884 39.8087C10.3904 39.9183 10.3681 40.0166 10.3215 40.1035C10.2741 40.1901 10.2039 40.2579 10.111 40.3067L10.0074 40.0834C10.0637 40.0515 10.1049 40.008 10.131 39.9528C10.1565 39.8979 10.1675 39.8364 10.164 39.7684C10.1604 39.7004 10.1425 39.6315 10.1101 39.5618C10.074 39.4838 10.0283 39.4209 9.97318 39.3733C9.91804 39.3256 9.8583 39.2959 9.79395 39.2841C9.72959 39.2723 9.66551 39.2812 9.60168 39.3108C9.53491 39.3417 9.48378 39.3855 9.44831 39.4422C9.41224 39.4991 9.39453 39.5662 9.39517 39.6435C9.39582 39.7207 9.41751 39.8055 9.46027 39.8976L9.52768 40.043L9.33267 40.1335L9.26525 39.9881C9.23182 39.916 9.18949 39.8588 9.13828 39.8165C9.08679 39.7736 9.03028 39.7477 8.96876 39.7389C8.90696 39.7295 8.84415 39.7396 8.78032 39.7692C8.71887 39.7977 8.67169 39.8361 8.63879 39.8844C8.6059 39.9327 8.58825 39.9875 8.58586 40.049C8.5832 40.1098 8.59735 40.1736 8.62832 40.2404C8.65737 40.303 8.6963 40.3568 8.74511 40.4016C8.79305 40.4462 8.84668 40.4759 8.90598 40.4907C8.9647 40.5059 9.02488 40.5009 9.08653 40.4759L9.18519 40.6887C9.0884 40.7293 8.99179 40.7392 8.89535 40.7186C8.79831 40.6983 8.70956 40.654 8.62909 40.5858C8.54834 40.5169 8.48372 40.4302 8.43521 40.3256C8.38314 40.2134 8.36122 40.1065 8.36945 40.005C8.37709 39.9038 8.40784 39.8145 8.4617 39.7371C8.51556 39.6597 8.58534 39.6012 8.67103 39.5614C8.77326 39.514 8.87289 39.5005 8.96993 39.5208C9.06669 39.5406 9.15019 39.5898 9.22045 39.6685L9.23463 39.6619C9.20037 39.5385 9.20761 39.4264 9.25633 39.3255C9.30446 39.2249 9.38615 39.1479 9.50138 39.0945C9.60007 39.0487 9.70118 39.0345 9.80471 39.0518C9.90738 39.0688 10.0025 39.113 10.0902 39.1844C10.1779 39.2557 10.249 39.3502 10.3035 39.4678Z" fill="white"/>
<path d="M8.26683 33.5337C8.28616 33.6665 8.27972 33.7872 8.24749 33.8959C8.21452 34.0041 8.16059 34.0925 8.08569 34.1614C8.01015 34.2303 7.91884 34.2722 7.81174 34.2872C7.72803 34.3 7.64829 34.2948 7.5725 34.2716C7.49607 34.2485 7.42978 34.2115 7.37363 34.1604C7.31675 34.1088 7.2766 34.0478 7.2532 33.9775L7.2416 33.9792C7.2309 34.0775 7.1887 34.1606 7.115 34.2286C7.04065 34.2967 6.9509 34.3381 6.84574 34.3528C6.74527 34.3681 6.65164 34.3557 6.56485 34.3157C6.47805 34.2756 6.4052 34.2138 6.3463 34.1302C6.2873 34.046 6.24935 33.9459 6.23246 33.8299C6.21576 33.7151 6.22372 33.6093 6.25635 33.5124C6.28897 33.4155 6.34118 33.3355 6.41296 33.2724C6.48464 33.2086 6.57071 33.1691 6.67118 33.1538C6.77634 33.1392 6.87431 33.1542 6.96508 33.1989C7.05511 33.2431 7.11913 33.3098 7.15713 33.399L7.16874 33.3973C7.17121 33.3239 7.19245 33.255 7.23244 33.1906C7.27179 33.1263 7.32475 33.0718 7.39133 33.0272C7.45726 32.9827 7.53208 32.9541 7.61578 32.9412C7.72288 32.9263 7.82251 32.9414 7.91466 32.9866C8.00607 33.0312 8.08299 33.1006 8.14543 33.1949C8.20712 33.2886 8.24759 33.4015 8.26683 33.5337ZM8.05411 33.5647C8.04107 33.4751 8.0153 33.3998 7.97681 33.3389C7.93833 33.278 7.89008 33.2337 7.83206 33.206C7.77404 33.1782 7.70953 33.1692 7.63853 33.1789C7.56385 33.1904 7.50059 33.2193 7.44876 33.2657C7.39693 33.3121 7.35936 33.3706 7.33606 33.4411C7.31266 33.511 7.30706 33.5878 7.31926 33.6716C7.33156 33.7561 7.35897 33.8291 7.40152 33.8907C7.44396 33.9517 7.49664 33.997 7.55955 34.0267C7.62236 34.0557 7.69111 34.0645 7.76579 34.0529C7.83679 34.0433 7.89618 34.0172 7.94397 33.9747C7.99167 33.9315 8.02523 33.8749 8.04467 33.805C8.0641 33.735 8.06725 33.6549 8.05411 33.5647ZM7.11428 33.7015C7.10396 33.6306 7.08062 33.5698 7.04428 33.5191C7.00785 33.4678 6.96187 33.4301 6.90635 33.4059C6.85083 33.3817 6.78886 33.3743 6.72043 33.3836C6.65349 33.394 6.59745 33.4183 6.55232 33.4565C6.50655 33.4947 6.47411 33.5432 6.45502 33.602C6.43528 33.6608 6.43071 33.7266 6.44131 33.7995C6.4521 33.8736 6.4754 33.9364 6.51118 33.9878C6.54633 34.0392 6.59125 34.0765 6.64594 34.0995C6.69998 34.1225 6.76048 34.1289 6.82742 34.1185C6.89584 34.1092 6.95326 34.0853 6.99968 34.047C7.04601 34.008 7.07932 33.9587 7.09961 33.8991C7.1199 33.8396 7.12479 33.7737 7.11428 33.7015Z" fill="white"/>
<path d="M7.88412 27.8121L7.71003 27.787L7.08836 27.0303C7.01557 26.9415 6.9518 26.8679 6.89704 26.8093C6.84164 26.7507 6.78825 26.7055 6.73687 26.6738C6.68495 26.6413 6.62868 26.6207 6.56807 26.612C6.49843 26.602 6.43574 26.61 6.37998 26.6363C6.32432 26.6618 6.27849 26.7013 6.24252 26.7547C6.20654 26.8081 6.18341 26.8706 6.17312 26.9421C6.16217 27.0182 6.16842 27.0869 6.19186 27.1482C6.21474 27.2087 6.252 27.2585 6.30365 27.2975C6.35538 27.3359 6.41897 27.3605 6.49441 27.3714L6.46159 27.5996C6.34553 27.5829 6.2475 27.5415 6.16751 27.4754C6.08752 27.4093 6.02965 27.3266 5.99391 27.2273C5.95825 27.1274 5.94873 27.0198 5.96532 26.9044C5.98201 26.7883 6.0213 26.689 6.08319 26.6064C6.14508 26.5238 6.22128 26.4631 6.31178 26.4241C6.40228 26.3851 6.49846 26.3729 6.60034 26.3876C6.67319 26.3981 6.74254 26.4215 6.80837 26.458C6.87366 26.4937 6.94421 26.5499 7.02005 26.6266C7.09534 26.7026 7.18575 26.8061 7.2913 26.9371L7.70316 27.4504L7.71863 27.4526L7.85103 26.5319L8.06381 26.5625L7.88412 27.8121Z" fill="white"/>
<path d="M9.53345 21.0801C9.4855 21.1843 9.4216 21.2685 9.34176 21.3329C9.26193 21.3972 9.17434 21.4379 9.07899 21.455C8.98365 21.472 8.88874 21.4617 8.79426 21.4239L8.89234 21.2109C8.9784 21.2405 9.06361 21.2345 9.14797 21.1931C9.23201 21.1507 9.29542 21.0831 9.3382 20.9902C9.37253 20.9157 9.38559 20.8414 9.37738 20.7673C9.36945 20.6926 9.34264 20.6247 9.29695 20.5635C9.25095 20.5015 9.18919 20.4526 9.11168 20.4169C9.0324 20.3804 8.95366 20.3653 8.87545 20.3716C8.79693 20.377 8.72573 20.4016 8.66185 20.4453C8.59796 20.489 8.54788 20.5495 8.51159 20.6268C8.48539 20.6821 8.46767 20.7432 8.45845 20.8099C8.44863 20.8764 8.44862 20.9348 8.4584 20.9852L8.33873 21.1797L7.49479 20.6577L7.92965 19.7133L8.1249 19.8033L7.77505 20.563L8.28169 20.8737L8.28659 20.8631C8.27417 20.8122 8.27114 20.7541 8.2775 20.6889C8.28386 20.6237 8.30107 20.5607 8.32914 20.4997C8.38036 20.3885 8.45263 20.3016 8.54593 20.2392C8.63891 20.1759 8.74271 20.1405 8.8573 20.133C8.97217 20.1249 9.08848 20.148 9.20622 20.2022C9.32219 20.2557 9.41375 20.3294 9.48089 20.4234C9.54771 20.5166 9.58661 20.6205 9.59758 20.7353C9.60796 20.8498 9.58658 20.9648 9.53345 21.0801Z" fill="white"/>
<path d="M11.9416 15.9088L11.7917 15.7774L11.3251 14.1989L11.4205 14.0902L11.6526 14.2937L11.5882 14.3672L11.9408 15.5599L11.9526 15.5702L12.7332 14.6797L12.8949 14.8214L11.9416 15.9088ZM12.8711 15.471L12.517 15.1606L12.4472 15.0994L11.3663 14.1519L11.5184 13.9785L13.0231 15.2976L12.8711 15.471Z" fill="white"/>
<path d="M16.843 11.6452L16.7492 11.4964L16.9226 10.5325C16.9431 10.4196 16.9578 10.3232 16.9669 10.2436C16.9757 10.1634 16.9755 10.0935 16.9664 10.0338C16.9575 9.97317 16.9367 9.91697 16.904 9.86517C16.8665 9.80564 16.8197 9.76314 16.7636 9.73766C16.7081 9.71183 16.6483 9.70252 16.5844 9.70973C16.5204 9.71693 16.4578 9.73981 16.3966 9.77835C16.3316 9.81933 16.2833 9.8686 16.2519 9.92616C16.2206 9.98282 16.2068 10.0435 16.2106 10.1081C16.2149 10.1723 16.2373 10.2367 16.278 10.3012L16.0829 10.4241C16.0204 10.3249 15.9884 10.2234 15.9869 10.1197C15.9854 10.0159 16.0109 9.91823 16.0633 9.82669C16.1163 9.7348 16.1921 9.65778 16.2907 9.59562C16.3899 9.53311 16.491 9.49867 16.594 9.49229C16.697 9.48591 16.7927 9.50455 16.881 9.54821C16.9694 9.59188 17.041 9.65725 17.0958 9.74433C17.1351 9.8066 17.1621 9.87462 17.177 9.94838C17.1922 10.0212 17.1951 10.1114 17.1858 10.2189C17.1767 10.3255 17.1565 10.4614 17.1251 10.6267L17.0011 11.273L17.0095 11.2862L17.7965 10.7904L17.9111 10.9722L16.843 11.6452Z" fill="white"/>
<path d="M22.5087 6.55343C22.5879 6.53201 22.6712 6.52503 22.7584 6.53247C22.8457 6.53991 22.9315 6.56873 23.0159 6.61893C23.1 6.66849 23.1782 6.74643 23.2505 6.85275C23.3227 6.95906 23.3835 7.10068 23.4329 7.27763C23.4806 7.44892 23.5067 7.60563 23.5112 7.74775C23.5161 7.88907 23.5008 8.01371 23.4654 8.12166C23.4305 8.22944 23.3763 8.31893 23.3029 8.39014C23.23 8.46117 23.1393 8.51182 23.0308 8.54209C22.9229 8.57219 22.8206 8.57771 22.724 8.55867C22.6278 8.53882 22.5421 8.49815 22.4668 8.43664C22.3919 8.37434 22.3328 8.29446 22.2894 8.19701L22.5191 8.13297C22.5644 8.21567 22.6259 8.27731 22.7035 8.31789C22.7815 8.35766 22.8714 8.36338 22.973 8.33503C23.1217 8.29356 23.221 8.1959 23.2707 8.04204C23.3211 7.88801 23.3132 7.69241 23.2471 7.45523L23.232 7.45943C23.2116 7.52193 23.1825 7.57906 23.1449 7.63081C23.1072 7.68256 23.0618 7.72701 23.0086 7.76416C22.9554 7.80131 22.8955 7.82917 22.829 7.84771C22.7186 7.87851 22.6096 7.87947 22.5022 7.85061C22.3952 7.82094 22.3007 7.7658 22.2187 7.6852C22.1372 7.60379 22.0791 7.50097 22.0444 7.37673C22.0115 7.25877 22.0078 7.1435 22.0332 7.03092C22.0591 6.91753 22.1119 6.81828 22.1916 6.73315C22.2719 6.64785 22.3776 6.58795 22.5087 6.55343ZM22.5664 6.76049C22.4873 6.78254 22.4216 6.82217 22.3693 6.87937C22.3174 6.93577 22.2822 7.00239 22.2637 7.07922C22.2457 7.15525 22.2479 7.23343 22.2703 7.31374C22.2927 7.39406 22.3307 7.46226 22.3842 7.51834C22.4381 7.57362 22.5013 7.61214 22.5736 7.63389C22.6464 7.65485 22.7223 7.6543 22.8014 7.63225C22.861 7.61563 22.9133 7.58854 22.9583 7.55097C23.0031 7.51278 23.0389 7.46796 23.0658 7.4165C23.0932 7.36424 23.1106 7.309 23.118 7.2508C23.1253 7.19197 23.121 7.13401 23.105 7.07691C23.084 7.00161 23.0462 6.9361 22.9914 6.88036C22.9373 6.82445 22.8728 6.78494 22.7981 6.76183C22.7239 6.73854 22.6467 6.7381 22.5664 6.76049Z" fill="white"/>
<path d="M22.8888 16.3522C23.2875 16.3783 23.6078 16.5057 23.897 16.7832C24.1594 17.0915 24.3235 17.4187 24.3373 17.8275C24.3104 18.0545 24.279 18.2869 24.1625 18.4866C24.4824 18.7585 24.8326 18.9733 25.1904 19.1905C25.3359 19.2789 25.481 19.3678 25.6262 19.4567C25.6998 19.5017 25.7734 19.5467 25.847 19.5917C26.1641 19.7856 26.4795 19.9822 26.7943 20.18C26.8932 20.2421 26.9921 20.3042 27.0911 20.3663C27.14 20.397 27.1889 20.4277 27.2393 20.4594C27.5088 20.6283 27.7788 20.7965 28.0488 20.9646C28.1315 21.0162 28.1315 21.0162 28.216 21.0688C28.3277 21.1384 28.4395 21.208 28.5513 21.2776C28.7733 21.4158 28.9953 21.5542 29.2172 21.6925C29.327 21.7609 29.4369 21.8294 29.5467 21.8978C29.8044 22.0584 30.0621 22.219 30.3197 22.3799C30.4405 22.4554 30.5612 22.5308 30.682 22.6062C30.7666 22.659 30.8511 22.7118 30.9356 22.7647C31.0817 22.8559 31.2281 22.9465 31.3746 23.0369C31.4133 23.0612 31.452 23.0855 31.4919 23.1106C31.7388 23.262 31.8942 23.3046 32.174 23.241C32.4583 23.1492 32.6105 22.9962 32.755 22.7403C32.8157 22.5696 32.8542 22.3966 32.8915 22.2196C32.9135 22.1225 32.9356 22.0254 32.9577 21.9283C32.9681 21.8818 32.9784 21.8353 32.989 21.7874C33.0242 21.6326 33.0643 21.4794 33.1062 21.3263C33.1806 21.0506 33.2491 20.7736 33.3167 20.4962C33.3973 20.1657 33.4812 19.8364 33.5696 19.5079C33.6288 19.2816 33.6842 19.0544 33.7397 18.8272C33.8717 18.2864 34.0106 17.7482 34.1691 17.2145C34.1334 17.1904 34.0976 17.1663 34.0608 17.1415C33.8166 16.926 33.6395 16.6866 33.5909 16.3587C33.5745 16.0875 33.6509 15.8596 33.804 15.6367C34.0317 15.4489 34.2543 15.291 34.5491 15.2482C34.9426 15.3202 35.2049 15.4111 35.4575 15.7292C35.6075 16.0084 35.6732 16.2392 35.5897 16.551C35.4986 16.8114 35.3822 16.9651 35.1692 17.1387C35.1372 17.1649 35.1051 17.1911 35.0721 17.218C35.0476 17.2379 35.0232 17.2578 34.9979 17.2783C35.0281 17.3422 35.0281 17.3422 35.0588 17.4074C35.5473 18.4429 36.0356 19.4785 36.5237 20.5142C36.7597 21.015 36.9958 21.5158 37.2321 22.0165C37.4379 22.4528 37.6437 22.8892 37.8493 23.3256C37.9582 23.5568 38.0672 23.788 38.1763 24.0191C38.2789 24.2364 38.3814 24.4538 38.4837 24.6713C38.5214 24.7513 38.5591 24.8312 38.5969 24.9111C38.6483 25.0199 38.6995 25.1288 38.7507 25.2377C38.7734 25.2855 38.7734 25.2855 38.7966 25.3344C38.8989 25.553 38.8989 25.553 38.9134 25.6784C38.8108 25.8115 38.6805 25.9057 38.5466 26.0058C38.4774 26.0578 38.4774 26.0578 38.4067 26.1108C38.3563 26.1483 38.3058 26.1859 38.2539 26.2246C38.201 26.2641 38.1482 26.3036 38.0938 26.3443C37.4257 26.8433 36.7547 27.3384 36.0822 27.8314C36.0321 27.8681 35.9821 27.9049 35.9305 27.9427C33.0036 30.0843 29.929 32.0861 26.7909 33.9036C26.761 33.9209 26.7312 33.9382 26.7005 33.956C25.9528 34.389 25.2032 34.8188 24.4516 35.2449C24.3971 35.2759 24.3427 35.3068 24.2866 35.3387C24.2364 35.3671 24.1861 35.3955 24.1343 35.4248C24.0907 35.4494 24.0471 35.4741 24.0022 35.4996C23.8838 35.5618 23.765 35.6127 23.6399 35.6601C23.321 35.3623 23.0384 35.0344 22.7531 34.705C22.6978 34.6414 22.6425 34.5778 22.5872 34.5142C22.4378 34.3425 22.2886 34.1705 22.1395 33.9985C22.0148 33.8548 21.8899 33.7111 21.7651 33.5674C21.4708 33.2285 21.1765 32.8894 20.8824 32.5503C20.5791 32.2007 20.2757 31.8512 19.9721 31.5019C19.7111 31.2015 19.4502 30.9011 19.1894 30.6005C19.0338 30.4212 18.8781 30.2419 18.7224 30.0627C18.576 29.8943 18.4298 29.7258 18.2838 29.5572C18.2302 29.4954 18.1766 29.4336 18.1229 29.3719C18.0495 29.2876 17.9764 29.2032 17.9033 29.1186C17.8623 29.0714 17.8213 29.0242 17.7791 28.9756C17.6778 28.8515 17.59 28.7251 17.5052 28.5893C17.463 28.6221 17.463 28.6221 17.42 28.6557C17.1743 28.8334 16.986 28.9416 16.6781 28.9239C16.4048 28.8776 16.2115 28.8011 16.0269 28.5883C15.8633 28.3536 15.738 28.1501 15.7548 27.8563C15.8286 27.5039 15.9201 27.3159 16.2246 27.1103C16.4736 26.9523 16.6498 26.8721 16.9477 26.9346C17.2695 27.0201 17.406 27.1274 17.5898 27.4101C17.6371 27.4821 17.6371 27.4821 17.6854 27.5556C17.7665 27.692 17.7665 27.692 17.7939 27.8037C17.8297 27.9042 17.8297 27.9042 17.961 27.935C18.0405 27.949 18.0405 27.949 18.1216 27.9632C18.1734 27.9728 18.2252 27.9825 18.2785 27.9924C18.4254 28.0153 18.5721 28.0365 18.7193 28.0567C19.0026 28.0961 19.2835 28.1456 19.5648 28.1969C19.9706 28.2701 20.3767 28.3405 20.7838 28.4066C20.9919 28.4404 21.1999 28.475 21.4078 28.5099C21.4623 28.519 21.4623 28.519 21.5178 28.5283C21.7193 28.5621 21.9205 28.5971 22.1216 28.6333C23.1013 28.8749 23.1013 28.8749 24.017 28.6452C24.2008 28.4963 24.2613 28.3348 24.3002 28.1066C24.3231 27.8824 24.2968 27.6762 24.2612 27.4547C24.2517 27.3922 24.2517 27.3922 24.2421 27.3284C24.2214 27.1917 24.2 27.0552 24.1785 26.9186C24.1638 26.8221 24.1491 26.7256 24.1344 26.6291C24.1042 26.4301 24.0736 26.231 24.0429 26.032C24.0007 25.7583 23.9596 25.4845 23.9189 25.2106C23.9127 25.1685 23.9065 25.1263 23.9 25.0829C23.8875 24.9987 23.875 24.9144 23.8625 24.8301C23.7827 24.2922 23.7019 23.7545 23.6204 23.2168C23.6144 23.1774 23.6084 23.138 23.6023 23.0973C23.5724 22.9002 23.5425 22.703 23.5124 22.5058C23.4454 22.0647 23.3802 21.6234 23.3165 21.1818C23.3021 21.0828 23.2878 20.9838 23.2734 20.8849C23.2458 20.6946 23.2186 20.5043 23.1916 20.314C23.179 20.227 23.1664 20.1401 23.1538 20.0531C23.1456 19.9944 23.1456 19.9944 23.1372 19.9344C23.103 19.7012 23.05 19.4863 22.9746 19.2629C22.9137 19.2653 22.8528 19.2676 22.79 19.27C22.4512 19.2576 22.144 19.0955 21.8816 18.8874C21.6191 18.5522 21.4375 18.2314 21.4135 17.8007C21.4372 17.6111 21.4372 17.6111 21.487 17.4499C21.5064 17.3736 21.5064 17.3736 21.5262 17.2957C21.7541 16.7297 22.2808 16.3774 22.8888 16.3522ZM27.768 26.9681C27.6829 27.7781 28.1175 28.5341 28.5915 29.1546C28.9041 29.5143 29.2675 29.764 29.7089 29.938C29.76 29.9608 29.8111 29.9836 29.8638 30.0071C30.1863 30.0746 30.4814 30.0555 30.7681 29.8853C31.0558 29.6715 31.1845 29.427 31.2464 29.077C31.3338 28.2151 30.9643 27.4571 30.4406 26.7958C30.0078 26.3049 29.4828 25.9556 28.8261 25.8848C28.1547 25.8614 27.8763 26.3858 27.768 26.9681ZM23.5251 31.3153C23.5039 31.7314 23.6473 32.0228 23.8952 32.3449C24.2446 32.7142 24.7376 33.0949 25.2619 33.1224C25.6165 33.1283 25.8408 33.1177 26.1254 32.8854C26.2786 32.6538 26.3016 32.4255 26.2674 32.1531C26.0329 31.5376 25.5677 31.1389 24.9767 30.8708C24.6457 30.7534 24.3086 30.6939 23.9657 30.7851C23.7069 30.9167 23.6049 31.0354 23.5251 31.3153ZM34.0125 24.7339C33.9557 25.3256 34.0912 25.9944 34.464 26.4671C34.6983 26.6894 34.9276 26.8526 35.2598 26.8741C35.5139 26.8004 35.699 26.6656 35.8436 26.4472C36.097 25.9623 36.0569 25.4017 35.9214 24.8886C35.793 24.5257 35.5745 24.1268 35.2376 23.9218C35.1422 23.8765 35.1422 23.8765 35.0503 23.8437C35.0044 23.825 34.9585 23.8063 34.9111 23.7871C34.3746 23.7788 34.1028 24.2594 34.0125 24.7339Z" fill="#E30808"/>
<path d="M24.6324 37.6303C24.669 37.6092 24.7056 37.5882 24.7433 37.5666C25.1737 37.3209 25.6097 37.0855 26.0454 36.8494C26.802 36.439 27.5554 36.0239 28.2987 35.5897C28.3301 35.5714 28.3615 35.5531 28.3938 35.5342C28.5887 35.4204 28.7828 35.3053 28.9765 35.1894C29.0586 35.1404 29.1407 35.0914 29.223 35.0426C30.275 34.4171 31.2996 33.7504 32.3236 33.0803C32.3896 33.0372 32.3896 33.0372 32.4568 32.9932C35.0305 31.3101 37.5468 29.5413 39.9588 27.6317C40.6425 27.093 40.6425 27.093 41.031 27.0757C41.2956 27.1194 41.5141 27.1824 41.679 27.4058C41.7062 27.4468 41.7334 27.4877 41.7614 27.5299C41.7924 27.5764 41.8233 27.6229 41.8552 27.6707C41.905 27.7463 41.905 27.7463 41.9558 27.8235C41.99 27.8753 42.0242 27.927 42.0594 27.9804C42.1317 28.0902 42.2039 28.2 42.276 28.3099C42.3863 28.4778 42.4975 28.6451 42.6087 28.8124C42.6788 28.9191 42.7489 29.0258 42.8189 29.1326C42.8523 29.1825 42.8856 29.2324 42.92 29.2838C43.109 29.5747 43.2162 29.7812 43.1877 30.1359C43.0992 30.484 42.8977 30.6609 42.6286 30.8867C42.5907 30.9199 42.5529 30.953 42.5139 30.9871C42.0223 31.4134 41.5146 31.8215 41.0119 32.2347C41.0505 32.2096 41.0892 32.1846 41.1289 32.1589C41.4927 31.9234 41.857 31.6888 42.2219 31.4551C42.4094 31.3349 42.5968 31.2144 42.7837 31.0931C42.9641 30.9762 43.1449 30.8601 43.3261 30.7445C43.3952 30.7003 43.4642 30.6557 43.5329 30.6109C43.6291 30.5481 43.7259 30.4865 43.8229 30.4251C43.8779 30.3897 43.9328 30.3543 43.9895 30.3178C44.1368 30.253 44.1368 30.253 44.2714 30.2782C44.375 30.3395 44.375 30.3395 44.4398 30.4561C44.4712 30.5794 44.4712 30.5794 44.4418 30.7197C44.3203 30.8144 44.3203 30.8144 44.1512 30.9251C44.1202 30.9457 44.0891 30.9662 44.0572 30.9873C43.952 31.0566 43.8464 31.1253 43.7408 31.194C43.665 31.2438 43.5892 31.2936 43.5134 31.3435C43.3042 31.4809 43.0947 31.6178 42.8851 31.7546C42.6595 31.902 42.4342 32.05 42.2089 32.1978C41.767 32.4876 41.3248 32.7769 40.8826 33.066C40.5232 33.3009 40.164 33.5359 39.8048 33.771C38.7875 34.4369 37.77 35.1025 36.7522 35.7676C36.6972 35.8035 36.6423 35.8393 36.5857 35.8763C36.5307 35.9123 36.4758 35.9482 36.4191 35.9852C35.5275 36.5678 34.6365 37.1513 33.7458 37.7351C32.8321 38.334 31.9181 38.9321 31.0037 39.5297C30.4899 39.8654 29.9762 40.2014 29.463 40.5381C29.0262 40.8247 28.5889 41.1107 28.1512 41.396C27.9276 41.5417 27.7043 41.6876 27.4815 41.8343C27.2777 41.9685 27.0734 42.1018 26.8687 42.2345C26.7945 42.2828 26.7205 42.3314 26.6467 42.3803C26.5468 42.4464 26.4463 42.5115 26.3455 42.5763C26.2897 42.6128 26.2339 42.6494 26.1764 42.687C26.0287 42.7532 26.0287 42.7532 25.8939 42.7283C25.7577 42.6471 25.7329 42.5785 25.6943 42.4268C25.7368 42.2244 25.8424 42.1922 26.0127 42.0784C26.0431 42.0579 26.0734 42.0375 26.1047 42.0164C26.2053 41.9488 26.3063 41.8818 26.4073 41.8147C26.4771 41.768 26.5468 41.7213 26.6165 41.6745C26.8002 41.5513 26.9842 41.4287 27.1683 41.3061C27.356 41.181 27.5434 41.0554 27.7308 40.9299C28.0988 40.6836 28.4671 40.4378 28.8356 40.1923C28.7941 40.2134 28.7941 40.2134 28.7517 40.2349C28.4625 40.3818 28.1729 40.5277 27.8829 40.673C27.7749 40.7273 27.667 40.7818 27.5593 40.8366C27.4039 40.9156 27.2482 40.9936 27.0923 41.0714C27.0207 41.1082 27.0207 41.1082 26.9477 41.1456C26.5979 41.3188 26.2731 41.4376 25.8863 41.3251C25.6607 41.2377 25.5951 41.1754 25.4624 40.9766C25.4302 40.9285 25.398 40.8804 25.3648 40.8309C25.3301 40.7785 25.2955 40.7261 25.2597 40.6722C25.2242 40.6185 25.1886 40.5648 25.152 40.5095C25.0767 40.3956 25.0015 40.2817 24.9265 40.1676C24.8307 40.0219 24.7338 39.8769 24.6367 39.732C24.5441 39.5933 24.4527 39.4538 24.361 39.3144C24.3262 39.2627 24.2913 39.2109 24.2553 39.1576C24.0407 38.8273 23.966 38.652 24.0371 38.2639C24.1493 37.913 24.3203 37.8075 24.6324 37.6303ZM27.3097 37.299C27.2928 37.3823 27.2928 37.3823 27.2756 37.4674C27.2633 37.5273 27.251 37.5873 27.2383 37.649C27.2256 37.7122 27.213 37.7753 27.2 37.8403C27.1871 37.9036 27.1742 37.9669 27.1608 38.0322C27.1288 38.1891 27.0971 38.3462 27.0657 38.5033C27.2249 38.6091 27.3702 38.6488 27.5568 38.6866C27.6132 38.6981 27.6695 38.7097 27.7275 38.7216C27.7861 38.7333 27.8447 38.7449 27.9051 38.757C27.9941 38.7751 27.9941 38.7751 28.0849 38.7936C28.2313 38.8234 28.3777 38.8529 28.5242 38.8821C28.6217 38.5618 28.6995 38.2424 28.7659 37.9144C28.7751 37.8695 28.7844 37.8247 28.7939 37.7785C28.8163 37.6695 28.8385 37.5604 28.8606 37.4513C28.5421 37.3549 28.2238 37.2746 27.8982 37.2062C27.8541 37.1965 27.81 37.1868 27.7645 37.1768C27.7015 37.1635 27.7015 37.1635 27.6372 37.1499C27.5994 37.1418 27.5615 37.1338 27.5225 37.1254C27.3672 37.1078 27.3498 37.1527 27.3097 37.299ZM38.7259 29.8437C38.7077 29.9317 38.7077 29.9317 38.6892 30.0214C38.6761 30.0846 38.663 30.1479 38.6494 30.213C38.6356 30.2803 38.6218 30.3477 38.608 30.4151C38.5941 30.4825 38.5801 30.55 38.5661 30.6175C38.5318 30.7832 38.4977 30.949 38.4637 31.1149C38.7719 31.2096 39.0804 31.2854 39.3964 31.3492C39.4586 31.362 39.4586 31.362 39.522 31.375C39.6228 31.3957 39.7235 31.4162 39.8243 31.4366C39.9266 31.2815 39.9678 31.1423 40.0044 30.9608C40.0153 30.9076 40.0262 30.8545 40.0374 30.7997C40.0539 30.7168 40.0539 30.7168 40.0707 30.6323C40.0821 30.5763 40.0935 30.5203 40.1052 30.4626C40.1333 30.3245 40.161 30.1864 40.1885 30.0482C40.0339 29.9465 39.8948 29.9045 39.7142 29.8672C39.6347 29.8506 39.6347 29.8506 39.5536 29.8337C39.4986 29.8226 39.4435 29.8116 39.3868 29.8001C39.3034 29.7827 39.3034 29.7827 39.2182 29.7649C38.894 29.65 38.894 29.65 38.7259 29.8437ZM33.243 33.9719C33.2312 34.0304 33.2193 34.0889 33.2071 34.1491C33.1941 34.2122 33.1811 34.2754 33.1677 34.3404C33.1542 34.4075 33.1408 34.4747 33.1274 34.5418C33.1136 34.6091 33.0998 34.6765 33.086 34.7438C33.0523 34.9091 33.0188 35.0744 32.9857 35.2398C33.306 35.3373 33.6254 35.4151 33.9534 35.4815C33.9983 35.4908 34.0431 35.5 34.0893 35.5095C34.1983 35.5319 34.3074 35.5542 34.4165 35.5763C34.5139 35.256 34.5918 34.9365 34.6581 34.6085C34.6674 34.5637 34.6766 34.5189 34.6861 34.4727C34.7085 34.3636 34.7308 34.2546 34.7529 34.1455C34.5989 34.0444 34.4598 34.0014 34.2801 33.9634C34.2273 33.9523 34.1745 33.9411 34.1201 33.9296C34.0653 33.9184 34.0104 33.9072 33.9539 33.8957C33.8986 33.8838 33.8433 33.8719 33.7863 33.8597C33.7337 33.8488 33.681 33.8378 33.6268 33.8266C33.5785 33.8165 33.5303 33.8065 33.4805 33.7962C33.3067 33.7739 33.2886 33.804 33.243 33.9719Z" fill="#DE7E29"/>
<path d="M23.9297 36.0137C23.9612 35.9958 23.9928 35.978 24.0253 35.9596C24.3348 35.7844 24.6442 35.6089 24.9534 35.4331C25.112 35.343 25.2707 35.2529 25.4296 35.163C27.4833 34.0011 29.4849 32.7671 31.4578 31.4727C31.6562 31.3425 31.855 31.2128 32.0539 31.0833C34.074 29.7681 36.0507 28.4012 37.9744 26.9485C38.0878 26.8632 38.2012 26.778 38.3147 26.6928C38.5828 26.4913 38.8507 26.2895 39.1183 26.0874C39.1695 26.18 39.2205 26.2727 39.2716 26.3654C39.3 26.417 39.3285 26.4685 39.3578 26.5217C39.4434 26.6798 39.5212 26.8381 39.5949 27.002C39.6178 27.0523 39.6407 27.1026 39.6643 27.1544C39.7119 27.2737 39.7119 27.2737 39.6972 27.3438C39.6358 27.3961 39.5722 27.446 39.5079 27.4947C39.4458 27.542 39.4458 27.542 39.3825 27.5902C39.3368 27.6247 39.2911 27.6592 39.244 27.6947C39.1966 27.7306 39.1493 27.7665 39.1005 27.8035C38.9445 27.9217 38.7882 28.0395 38.632 28.1573C38.5788 28.1975 38.5256 28.2377 38.4707 28.2791C37.7858 28.7963 37.098 29.3095 36.4019 29.8115C36.3696 29.8348 36.3373 29.8582 36.3041 29.8822C36.1036 30.0267 35.9023 30.17 35.7005 30.3126C35.6138 30.3739 35.5271 30.4353 35.4405 30.4968C34.3952 31.2378 33.3273 31.9429 32.2545 32.6431C32.2102 32.672 32.1659 32.701 32.1202 32.7308C30.0076 34.1105 27.8584 35.4068 25.655 36.6361C25.6059 36.6635 25.5569 36.691 25.5063 36.7193C25.2905 36.8392 25.0773 36.9553 24.848 37.0483C24.7547 36.9504 24.6617 36.8523 24.5687 36.754C24.5428 36.7269 24.5169 36.6998 24.4903 36.6719C24.3466 36.5197 24.2102 36.3643 24.0794 36.2008C24.0512 36.1656 24.023 36.1304 23.9939 36.0941C23.9727 36.0676 23.9515 36.041 23.9297 36.0137Z" fill="#F9E342"/>
<path d="M19.141 23.0234C19.4068 23.0449 19.627 23.0852 19.8409 23.2547C20.0423 23.5177 20.2236 23.7584 20.2127 24.1016C20.1857 24.263 20.1857 24.263 20.1539 24.3822C20.3638 24.5526 20.6006 24.6323 20.851 24.7251C20.946 24.7609 21.041 24.7967 21.136 24.8326C21.1845 24.8507 21.2331 24.8689 21.2831 24.8876C21.6385 25.0211 21.9926 25.1579 22.3468 25.2946C22.4831 25.347 22.6197 25.3988 22.7563 25.4505C22.8453 25.4847 22.9342 25.519 23.0232 25.5532C23.0644 25.5687 23.1056 25.5841 23.148 25.6C23.1863 25.6148 23.2245 25.6297 23.2639 25.645C23.2973 25.6577 23.3308 25.6705 23.3652 25.6836C23.4918 25.7513 23.5551 25.8 23.6402 25.9182C23.684 26.0733 23.704 26.2301 23.7243 26.3897C23.7307 26.4357 23.7371 26.4818 23.7437 26.5292C23.757 26.6265 23.7699 26.7238 23.7825 26.8211C23.8018 26.9699 23.8226 27.1185 23.8435 27.2671C23.8563 27.3617 23.8689 27.4563 23.8815 27.5509C23.8877 27.5953 23.894 27.6396 23.9004 27.6854C23.9493 28.0753 23.9493 28.0753 23.8436 28.2677C23.7443 28.3705 23.7443 28.3705 23.5891 28.4341C23.4075 28.4308 23.2334 28.3932 23.0556 28.3589C22.9537 28.3419 22.8519 28.3249 22.75 28.3083C22.6147 28.2862 22.4794 28.2638 22.3446 28.2383C22.2416 28.2213 22.2416 28.2213 22.1384 28.2336C21.9963 28.2384 21.9094 28.222 21.7781 28.1645C21.5717 27.9484 21.4173 27.7009 21.2565 27.45C21.2085 27.3774 21.1604 27.3049 21.1121 27.2324C20.9857 27.042 20.8611 26.8506 20.7369 26.6588C20.6097 26.4631 20.4808 26.2685 20.3521 26.0738C20.1 25.6921 19.8497 25.3091 19.6007 24.9254C19.5364 24.9556 19.5364 24.9556 19.4708 24.9864C19.225 25.0879 19.0302 25.0693 18.7786 24.9934C18.4824 24.8266 18.3192 24.5911 18.2109 24.2743C18.1608 24.0104 18.1959 23.7366 18.3301 23.5034C18.5293 23.2656 18.8257 23.0529 19.141 23.0234Z" fill="#DE7E29"/>
<path d="M30.0777 15.8668C30.3452 15.8746 30.5936 15.9607 30.7923 16.1427C31.0077 16.3968 31.1068 16.6397 31.094 16.9748C31.055 17.2039 30.9723 17.3987 30.8214 17.5768C30.7794 17.6042 30.7374 17.6317 30.6941 17.66C30.7334 17.7186 30.7334 17.7186 30.7735 17.7784C31.0205 18.1471 31.2665 18.5164 31.5113 18.8864C31.6372 19.0767 31.7635 19.2666 31.8907 19.456C32.0134 19.6388 32.1351 19.8223 32.2562 20.0062C32.3025 20.0763 32.3492 20.146 32.3963 20.2156C32.4622 20.3131 32.5267 20.4114 32.5911 20.51C32.6206 20.5528 32.6206 20.5528 32.6508 20.5964C32.7546 20.7591 32.7746 20.8342 32.7502 21.0284C32.7337 21.0827 32.7171 21.1369 32.7001 21.1927C32.6899 21.2436 32.6796 21.2944 32.6691 21.3468C32.6087 21.6447 32.5424 21.9386 32.4556 22.23C32.428 22.3242 32.4054 22.4198 32.384 22.5156C32.2884 22.7222 32.1885 22.7765 31.9819 22.8731C31.7338 22.8182 31.5369 22.6963 31.3282 22.5569C31.2964 22.536 31.2645 22.5151 31.2317 22.4935C31.1648 22.4495 31.0979 22.4053 31.0312 22.3609C30.9297 22.2934 30.8278 22.2264 30.7258 22.1595C30.6605 22.1165 30.5953 22.0734 30.53 22.0303C30.4999 22.0105 30.4697 21.9906 30.4387 21.9701C30.356 21.9151 30.2741 21.8588 30.1923 21.8024C30.1443 21.7698 30.0963 21.7372 30.0469 21.7037C29.9411 21.6033 29.9411 21.6033 29.914 21.4885C29.916 21.4467 29.9181 21.4048 29.9202 21.3617C29.9227 21.291 29.9227 21.291 29.9252 21.2189C29.9283 21.1685 29.9314 21.1182 29.9346 21.0664C29.9367 21.0142 29.9389 20.9619 29.9412 20.9081C29.9481 20.7509 29.9567 20.5938 29.9658 20.4367C29.9701 20.3536 29.9743 20.2706 29.9784 20.1875C29.9862 20.0355 29.9947 19.8836 30.0037 19.7318C30.0385 19.12 30.0611 18.506 30.0594 17.8932C30.0296 17.8855 29.9998 17.8779 29.9691 17.8701C29.6039 17.7714 29.3911 17.6595 29.1893 17.332C29.0713 17.0851 29.0581 16.835 29.1278 16.572C29.3062 16.1439 29.6167 15.8998 30.0777 15.8668Z" fill="#DE7E29"/>
<path d="M44.9187 29.7296C44.9563 29.7049 44.9939 29.6802 45.0325 29.6548C45.0919 29.6167 45.0919 29.6167 45.1525 29.5778C45.1917 29.5517 45.2308 29.5257 45.2712 29.4988C45.3277 29.4621 45.3277 29.4621 45.3854 29.4246C45.4201 29.4021 45.4547 29.3796 45.4904 29.3565C45.5837 29.3111 45.5837 29.3111 45.724 29.3405C45.8317 29.4821 45.8317 29.4821 45.9181 29.6375C45.8828 29.806 45.8547 29.8156 45.7159 29.9068C45.6628 29.9418 45.6628 29.9418 45.6085 29.9775C45.5711 30.0015 45.5338 30.0254 45.4952 30.0501C45.4585 30.0746 45.4217 30.0991 45.3838 30.1244C45.3481 30.1475 45.3125 30.1706 45.2758 30.1945C45.2431 30.2157 45.2105 30.2369 45.1769 30.2587C45.0826 30.3046 45.0826 30.3046 44.8999 30.303C44.7896 30.1631 44.7896 30.1631 44.7058 30.006C44.7418 29.8341 44.7763 29.8233 44.9187 29.7296Z" fill="#E30808"/>
<path d="M24.6828 42.9541C24.7268 42.9256 24.7268 42.9256 24.7717 42.8966C24.8006 42.8768 24.8294 42.857 24.8591 42.8365C24.944 42.7809 24.944 42.7809 25.0986 42.7019C25.2666 42.7737 25.2666 42.7737 25.3565 42.9344C25.3769 42.9885 25.3973 43.0427 25.4183 43.0984C25.3335 43.2438 25.209 43.306 25.0694 43.3983C24.9899 43.4516 24.9899 43.4516 24.9088 43.5059C24.7672 43.5845 24.7672 43.5845 24.6269 43.5551C24.5192 43.4135 24.5192 43.4135 24.4328 43.2581C24.4693 43.0839 24.5396 43.0499 24.6828 42.9541Z" fill="#E30808"/>
</svg>
